<?xml version="1.0" encoding="utf-8" standalone="no"?>
<!DOCTYPE svg PUBLIC "-//W3C//DTD SVG 1.1//EN"
  "http://www.w3.org/Graphics/SVG/1.1/DTD/svg11.dtd">
<!-- Created with matplotlib (https://matplotlib.org/) -->
<svg height="293.16625pt" version="1.1" viewBox="0 0 659.702188 293.16625" width="659.702188pt" xmlns="http://www.w3.org/2000/svg" xmlns:xlink="http://www.w3.org/1999/xlink">
 <metadata>
  <rdf:RDF xmlns:cc="http://creativecommons.org/ns#" xmlns:dc="http://purl.org/dc/elements/1.1/" xmlns:rdf="http://www.w3.org/1999/02/22-rdf-syntax-ns#">
   <cc:Work>
    <dc:type rdf:resource="http://purl.org/dc/dcmitype/StillImage"/>
    <dc:date>2021-09-06T21:54:16.895635</dc:date>
    <dc:format>image/svg+xml</dc:format>
    <dc:creator>
     <cc:Agent>
      <dc:title>Matplotlib v3.3.2, https://matplotlib.org/</dc:title>
     </cc:Agent>
    </dc:creator>
   </cc:Work>
  </rdf:RDF>
 </metadata>
 <defs>
  <style type="text/css">*{stroke-linecap:butt;stroke-linejoin:round;}</style>
 </defs>
 <g id="figure_1">
  <g id="patch_1">
   <path d="M 0 293.16625 
L 659.702188 293.16625 
L 659.702188 0 
L 0 0 
z
" style="fill:#ffffff;"/>
  </g>
  <g id="axes_1">
   <g id="patch_2">
    <path d="M 76.448125 224.64 
L 411.248125 224.64 
L 411.248125 7.2 
L 76.448125 7.2 
z
" style="fill:#ffffff;"/>
   </g>
   <g id="line2d_1">
    <path clip-path="url(#p46cf4982a5)" d="M 91.666307 214.753139 
L 91.767795 214.756364 
L 91.970772 212.377588 
L 92.376725 201.066446 
L 93.594586 164.99042 
L 94.102028 155.596936 
L 95.522865 131.468276 
L 95.928819 119.969938 
L 96.537749 94.697904 
L 97.755609 43.880727 
L 98.161563 35.629926 
L 98.466028 33.400202 
L 98.567516 33.398007 
L 98.770493 34.306091 
L 99.074958 37.529779 
L 99.379423 43.276058 
L 99.886865 58.390401 
L 100.698772 87.838006 
L 102.72854 164.163818 
L 103.235982 174.088586 
L 103.540447 176.79781 
L 103.641935 176.862358 
L 103.743423 176.696026 
L 103.9464 175.639192 
L 104.352354 171.801951 
L 104.758307 167.19101 
L 105.367237 160.050663 
L 105.773191 157.326981 
L 106.179144 155.733207 
L 106.788075 151.251171 
L 107.397005 144.853808 
L 107.904447 136.956049 
L 108.513377 121.056022 
L 109.223796 98.522458 
L 110.137191 72.481076 
L 110.644633 64.427002 
L 110.949098 63.025948 
L 111.152075 63.184262 
L 111.355052 64.527346 
L 111.761005 69.611854 
L 112.166959 76.78329 
L 112.572912 86.604336 
L 115.21161 166.704799 
L 115.617563 172.048155 
L 115.82054 172.523204 
L 116.125005 171.058564 
L 116.530959 166.747499 
L 117.748819 152.223408 
L 118.560726 145.585623 
L 119.169656 137.053398 
L 119.778587 123.457991 
L 120.489005 102.028816 
L 121.402401 75.395774 
L 121.909843 67.375423 
L 122.214308 65.633741 
L 122.315796 65.591286 
L 122.518773 65.932457 
L 122.72175 67.435725 
L 123.127703 73.471995 
L 123.533657 82.74115 
L 124.447052 108.879698 
L 125.766401 149.366649 
L 126.273843 159.135336 
L 126.679796 164.157785 
L 126.882773 165.110467 
L 126.984261 165.21636 
L 127.288726 164.206897 
L 127.897657 160.278102 
L 128.30361 155.149878 
L 130.84082 112.648443 
L 131.348261 98.933803 
L 132.05868 81.749721 
L 132.464634 74.554525 
L 132.769099 71.894331 
L 133.073564 70.858785 
L 133.276541 71.751603 
L 133.479517 73.498338 
L 133.986959 80.739482 
L 134.494401 91.012701 
L 135.20482 113.34078 
L 136.321192 150.133498 
L 136.828634 161.055537 
L 137.336076 167.686703 
L 137.539052 168.867919 
L 137.640541 168.987832 
L 137.742029 168.774332 
L 138.147983 165.903557 
L 138.655424 159.73181 
L 139.670308 147.485278 
L 140.279238 139.583704 
L 140.989657 127.919111 
L 141.700076 111.389899 
L 142.714959 82.49278 
L 143.120913 75.351619 
L 143.628355 71.651285 
L 143.729843 71.700141 
L 144.034308 72.821192 
L 144.440262 75.99563 
L 144.744727 80.323152 
L 145.353657 94.281509 
L 147.586401 155.310843 
L 148.093843 161.336413 
L 148.398308 163.258579 
L 148.601285 163.528364 
L 148.804262 162.622485 
L 149.311704 157.882583 
L 150.326588 141.912875 
L 151.645936 119.38342 
L 153.168262 87.107585 
L 153.675704 80.857236 
L 154.183146 77.419431 
L 154.284634 77.301109 
L 154.386123 77.387909 
L 154.589099 78.359658 
L 154.893564 81.621466 
L 155.299518 88.431805 
L 155.80696 98.867181 
L 156.618867 121.173201 
L 158.039704 156.566248 
L 158.547146 163.228067 
L 158.851611 165.242568 
L 159.054588 165.397779 
L 159.156076 165.210609 
L 159.359053 163.912405 
L 159.663518 161.191481 
L 160.069472 156.228491 
L 160.881379 141.435667 
L 162.403704 109.527866 
L 163.824541 76.555216 
L 164.230495 71.540113 
L 164.53496 70.412316 
L 164.636448 70.581663 
L 164.839425 71.929754 
L 165.14389 76.056478 
L 165.752821 89.542723 
L 166.767704 122.449967 
L 167.6811 151.880723 
L 168.188542 162.65458 
L 168.493007 165.99936 
L 168.797472 167.451263 
L 168.89896 167.649832 
L 169.000449 167.444823 
L 169.304914 164.892017 
L 169.812356 158.318963 
L 171.233193 135.765733 
L 172.248076 116.107374 
L 174.176356 74.11858 
L 174.582309 71.510375 
L 174.785286 71.09487 
L 174.988263 71.981549 
L 175.292728 75.656579 
L 175.80017 84.915309 
L 176.612077 107.13659 
L 178.641844 164.255503 
L 179.047798 169.276731 
L 179.250774 169.794249 
L 179.352263 169.68593 
L 179.555239 168.83578 
L 179.859705 165.52762 
L 182.396914 124.142254 
L 184.325193 76.465939 
L 184.731147 72.567438 
L 184.934123 71.936984 
L 185.035612 71.975288 
L 185.1371 72.136061 
L 185.340077 73.144274 
L 185.644542 75.700036 
L 186.050495 81.448975 
L 186.456449 90.028415 
L 188.486216 147.882983 
L 189.095147 162.683654 
L 189.5011 168.56015 
L 189.704077 169.786504 
L 189.907054 169.944693 
L 190.11003 169.389973 
L 190.313007 167.670889 
L 191.023426 157.439611 
L 192.951705 124.023702 
L 193.459147 112.102848 
L 194.879984 74.0997 
L 195.387426 67.262983 
L 195.590403 66.696192 
L 195.691891 66.852683 
L 195.996356 68.519353 
L 196.300821 72.20233 
L 196.706775 80.567874 
L 197.417193 98.295914 
L 198.2291 123.132818 
L 199.142496 151.512231 
L 199.649938 163.78531 
L 200.055891 169.631456 
L 200.461845 171.965718 
L 200.563333 172.066254 
L 200.664821 171.953832 
L 200.969287 169.33255 
L 201.476728 162.119599 
L 203.405008 132.449938 
L 204.115426 114.664601 
L 205.73924 66.528843 
L 206.145194 62.029394 
L 206.246682 61.830029 
L 206.449659 62.404597 
L 206.652636 63.420599 
L 206.957101 66.483796 
L 207.261566 71.254508 
L 207.769008 84.100799 
L 208.479426 109.5356 
L 210.001752 162.691614 
L 210.509194 172.220111 
L 210.813659 174.186519 
L 210.915147 174.27557 
L 211.016636 174.198136 
L 211.321101 172.392621 
L 211.930031 164.539994 
L 213.553845 141.100439 
L 214.162775 130.966452 
L 214.568729 120.812683 
L 216.39552 67.16116 
L 216.801473 61.513827 
L 217.00445 60.698858 
L 217.105938 60.656204 
L 217.308915 61.631945 
L 217.816357 68.26553 
L 218.22231 77.364734 
L 218.831241 97.32422 
L 220.658031 159.426788 
L 221.165473 168.458419 
L 221.469938 171.592203 
L 221.672915 172.042763 
L 221.774403 171.894178 
L 222.078869 169.829026 
L 222.383334 166.166678 
L 224.108636 138.133434 
L 224.51459 131.101478 
L 225.12352 116.407827 
L 226.747334 69.871828 
L 227.153287 64.162172 
L 227.457752 62.950136 
L 227.559241 62.998168 
L 227.762218 63.780093 
L 227.965194 65.491234 
L 228.269659 70.048464 
L 229.081566 89.512447 
L 229.589008 106.696433 
L 231.111334 163.236349 
L 231.618776 174.60961 
L 231.923241 177.207172 
L 232.024729 177.253463 
L 232.126218 177.161515 
L 232.329194 176.132616 
L 232.532171 174.546844 
L 233.039613 165.914677 
L 233.648543 155.34963 
L 234.663427 141.976565 
L 235.576822 123.331285 
L 236.084264 109.05972 
L 237.505102 64.34348 
L 237.911055 58.375401 
L 238.21552 56.557884 
L 238.317009 56.46846 
L 238.519985 57.574812 
L 238.82445 60.745947 
L 239.230404 68.44956 
L 239.737846 84.879293 
L 242.173567 171.838907 
L 242.478032 176.229339 
L 242.57952 176.761223 
L 242.681009 176.683027 
L 242.883985 176.062577 
L 243.188451 173.701766 
L 243.492916 169.468098 
L 245.827148 128.088299 
L 246.33459 113.718096 
L 247.552451 73.237345 
L 248.161381 59.847306 
L 248.465846 57.041908 
L 248.668823 56.595318 
L 248.770311 56.950335 
L 249.074776 59.937884 
L 249.582218 68.081416 
L 249.988172 78.285026 
L 250.597102 100.348815 
L 252.525381 173.344483 
L 252.829846 178.238487 
L 253.134311 180.516354 
L 253.2358 180.594868 
L 253.438776 179.930138 
L 253.743242 177.15659 
L 254.047707 172.681334 
L 255.164079 152.41799 
L 256.077474 141.61941 
L 256.483428 133.960967 
L 256.99087 120.018566 
L 258.20873 74.658201 
L 258.716172 59.414829 
L 259.122125 52.566451 
L 259.325102 50.989907 
L 259.426591 50.708223 
L 259.528079 50.870158 
L 259.731056 51.724202 
L 260.035521 54.985315 
L 260.339986 61.013329 
L 260.948916 80.186798 
L 263.486126 173.658307 
L 263.892079 180.506711 
L 264.095056 181.678017 
L 264.196544 181.765087 
L 264.298033 181.474404 
L 264.602498 179.130686 
L 265.008451 171.91454 
L 265.820358 156.39593 
L 266.93673 142.26824 
L 267.342684 134.733839 
L 267.951614 114.462037 
L 269.575428 57.146561 
L 269.981382 49.896946 
L 270.184358 48.38596 
L 270.285847 48.372886 
L 270.387335 48.518479 
L 270.590312 49.725441 
L 270.894777 53.171376 
L 271.30073 60.684196 
L 271.808172 74.632801 
L 272.315614 93.928805 
L 274.243893 172.815015 
L 274.649847 180.313776 
L 275.0558 183.788753 
L 275.157289 183.830853 
L 275.360265 183.084934 
L 275.563242 181.021526 
L 276.172172 170.804904 
L 276.781103 159.709541 
L 277.998963 142.100281 
L 278.506405 130.712902 
L 279.216824 107.562151 
L 280.536173 55.989271 
L 281.043614 46.912667 
L 281.34808 45.110208 
L 281.551056 45.247979 
L 281.754033 46.94336 
L 282.058498 52.045966 
L 282.667428 68.56004 
L 283.17487 87.923264 
L 285.204638 170.590301 
L 285.71208 182.013724 
L 286.016545 185.338384 
L 286.219522 185.504223 
L 286.422498 184.074736 
L 286.92994 175.134685 
L 288.249289 149.904983 
L 288.655243 145.100903 
L 289.365661 132.297657 
L 289.974591 114.532055 
L 290.68501 85.019897 
L 291.395429 56.392496 
L 291.902871 43.57134 
L 292.207336 40.221114 
L 292.308824 40.041211 
L 292.410312 40.162242 
L 292.613289 41.972805 
L 293.019243 49.366555 
L 293.526685 64.274316 
L 294.237103 91.324367 
L 295.04901 129.529383 
L 296.063894 174.018627 
L 296.571336 187.609151 
L 296.875801 191.970628 
L 296.977289 192.221965 
L 297.180266 191.258186 
L 297.484731 187.587958 
L 297.890685 178.441811 
L 298.601103 162.502143 
L 298.905568 158.794726 
L 299.41301 155.626233 
L 299.615987 154.075221 
L 300.021941 149.664013 
L 300.427894 142.23808 
L 300.833848 130.200213 
L 301.645755 97.006532 
L 302.863615 44.92693 
L 303.269569 35.776421 
L 303.574034 32.981007 
L 303.77701 32.632401 
L 303.979987 34.265431 
L 304.284452 39.311626 
L 304.791894 53.497947 
L 305.400824 76.214675 
L 306.31422 121.322471 
L 307.227615 164.899412 
L 307.836545 184.695765 
L 308.242499 191.15951 
L 308.445476 192.009166 
L 308.749941 189.901799 
L 309.054406 185.535379 
L 310.576732 160.882895 
L 310.779708 160.54992 
L 310.982685 160.458304 
L 311.185662 160.068621 
L 311.490127 158.920438 
L 311.794592 156.116526 
L 312.099057 151.310339 
L 312.606499 139.061055 
L 313.215429 119.207895 
L 314.027336 83.125103 
L 314.839243 45.869505 
L 315.346685 30.924034 
L 315.65115 26.04738 
L 315.854127 24.965631 
L 316.057104 25.426321 
L 316.260081 27.885489 
L 316.666034 37.355434 
L 317.173476 55.281532 
L 317.985383 93.15501 
L 319.609197 170.174392 
L 320.116639 184.465172 
L 320.421104 188.908164 
L 320.624081 190.063411 
L 320.725569 189.962335 
L 320.928546 188.481804 
L 321.233011 183.704998 
L 322.653848 155.418109 
L 323.77022 141.736207 
L 324.277662 126.373677 
L 324.886592 99.68564 
L 326.104453 47.850574 
L 326.510406 39.373502 
L 326.814871 36.373498 
L 327.017848 35.988228 
L 327.119337 36.271584 
L 327.322313 38.14044 
L 327.626778 43.133877 
L 328.032732 53.949182 
L 328.641662 78.906046 
L 330.772918 177.510867 
L 331.28036 189.314021 
L 331.584825 192.448493 
L 331.686313 192.719181 
L 331.787802 192.474429 
L 331.990779 190.57595 
L 332.295244 184.538622 
L 333.208639 165.120551 
L 333.716081 159.066046 
L 334.730965 149.363033 
L 335.238407 140.80417 
L 335.64436 130.784066 
L 336.151802 111.226268 
L 337.877104 34.073779 
L 338.181569 30.116907 
L 338.283058 29.610548 
L 338.384546 29.692613 
L 338.587523 30.597085 
L 338.7905 33.129948 
L 339.196453 42.975879 
L 339.805383 63.528469 
L 340.61729 97.320854 
L 342.444081 185.768935 
L 342.951523 198.522269 
L 343.1545 200.573406 
L 343.255988 200.822608 
L 343.357477 200.588996 
L 343.661942 197.582041 
L 344.067895 189.907645 
L 344.879802 172.265604 
L 345.184267 169.554714 
L 345.387244 169.132903 
L 345.590221 169.046044 
L 346.402128 169.489784 
L 346.605105 168.798412 
L 347.011058 165.706401 
L 347.417012 159.523974 
L 348.025942 144.364334 
L 348.73636 120.634982 
L 349.243802 97.050454 
L 350.66464 26.748081 
L 351.070593 18.536481 
L 351.27357 17.138504 
L 351.375058 17.083636 
L 351.476547 17.432877 
L 351.781012 20.781153 
L 352.186965 31.03916 
L 352.795895 55.18719 
L 353.912268 113.734693 
L 355.02864 169.823689 
L 355.536082 187.603541 
L 355.942035 194.60739 
L 356.145012 195.396941 
L 356.2465 195.18021 
L 356.449477 193.759865 
L 356.652454 191.347752 
L 357.058407 182.495608 
L 357.768826 166.90911 
L 358.174779 161.871677 
L 358.682221 158.737338 
L 358.885198 157.911469 
L 359.189663 155.899742 
L 359.494128 152.209383 
L 360.00157 141.822413 
L 360.509012 125.482088 
L 361.117942 98.610089 
L 362.538779 32.782585 
L 362.944733 23.924711 
L 363.249198 21.450001 
L 363.350686 21.664151 
L 363.553663 23.588308 
L 363.858128 29.289724 
L 364.264082 42.759387 
L 364.873012 71.265539 
L 367.207245 190.106458 
L 367.613198 199.801909 
L 367.917663 202.383615 
L 368.019152 202.462275 
L 368.222128 201.150459 
L 368.628082 193.703263 
L 369.439989 175.072836 
L 369.845942 170.732946 
L 370.150408 169.775722 
L 370.251896 169.601765 
L 370.860826 169.947355 
L 371.063803 169.346274 
L 371.469756 167.570455 
L 371.774222 163.590091 
L 372.586129 148.391 
L 372.992082 138.467362 
L 373.601012 115.057553 
L 374.209943 84.528418 
L 375.224826 31.833019 
L 375.63078 21.196076 
L 375.935245 17.834922 
L 376.036733 17.791314 
L 376.138222 17.969591 
L 376.341198 19.085405 
L 376.645664 24.424539 
L 377.051617 35.666207 
L 377.559059 57.256546 
L 378.776919 121.698327 
L 379.99478 182.565719 
L 380.502222 196.604146 
L 380.806687 198.895839 
L 380.908175 198.801612 
L 381.111152 197.317398 
L 381.517106 190.841429 
L 382.734966 168.02072 
L 383.039431 166.679762 
L 383.14092 166.621286 
L 383.343896 166.914586 
L 383.648361 167.405049 
L 383.74985 167.446205 
L 384.054315 166.24059 
L 384.35878 163.238417 
L 384.764734 156.592929 
L 385.373664 141.466151 
L 385.982594 118.436726 
L 386.591524 89.681967 
L 387.707896 34.696916 
L 388.215338 20.459234 
L 388.418315 18.004335 
L 388.519803 17.619457 
L 388.621292 17.725616 
L 388.824269 19.035856 
L 389.027245 21.840003 
L 389.433199 32.806537 
L 390.042129 58.795612 
L 392.579338 183.087612 
L 392.985292 191.149282 
L 393.289757 194.476246 
L 393.391245 194.838325 
L 393.492734 194.725013 
L 393.695711 193.171749 
L 394.000176 187.788666 
L 395.015059 165.791999 
L 395.319525 162.792843 
L 396.029943 159.275601 
L 396.029943 159.275601 
" style="fill:none;stroke:#1f77b4;stroke-linecap:square;stroke-width:1.5;"/>
   </g>
   <g id="matplotlib.axis_1">
    <g id="xtick_1">
     <g id="line2d_2">
      <defs>
       <path d="M 0 0 
L 0 3.5 
" id="m143f3fb7a6" style="stroke:#000000;stroke-width:0.8;"/>
      </defs>
      <g>
       <use style="stroke:#000000;stroke-width:0.8;" x="91.666307" xlink:href="#m143f3fb7a6" y="224.64"/>
      </g>
     </g>
     <g id="text_1">
      <!-- 0 -->
      <g transform="translate(83.395057 251.395937)scale(0.26 -0.26)">
       <defs>
        <path d="M 31.78125 66.40625 
Q 24.171875 66.40625 20.328125 58.90625 
Q 16.5 51.421875 16.5 36.375 
Q 16.5 21.390625 20.328125 13.890625 
Q 24.171875 6.390625 31.78125 6.390625 
Q 39.453125 6.390625 43.28125 13.890625 
Q 47.125 21.390625 47.125 36.375 
Q 47.125 51.421875 43.28125 58.90625 
Q 39.453125 66.40625 31.78125 66.40625 
z
M 31.78125 74.21875 
Q 44.046875 74.21875 50.515625 64.515625 
Q 56.984375 54.828125 56.984375 36.375 
Q 56.984375 17.96875 50.515625 8.265625 
Q 44.046875 -1.421875 31.78125 -1.421875 
Q 19.53125 -1.421875 13.0625 8.265625 
Q 6.59375 17.96875 6.59375 36.375 
Q 6.59375 54.828125 13.0625 64.515625 
Q 19.53125 74.21875 31.78125 74.21875 
z
" id="DejaVuSans-48"/>
       </defs>
       <use xlink:href="#DejaVuSans-48"/>
      </g>
     </g>
    </g>
    <g id="xtick_2">
     <g id="line2d_3">
      <g>
       <use style="stroke:#000000;stroke-width:0.8;" x="193.154682" xlink:href="#m143f3fb7a6" y="224.64"/>
      </g>
     </g>
     <g id="text_2">
      <!-- 1 -->
      <g transform="translate(184.883432 251.395937)scale(0.26 -0.26)">
       <defs>
        <path d="M 12.40625 8.296875 
L 28.515625 8.296875 
L 28.515625 63.921875 
L 10.984375 60.40625 
L 10.984375 69.390625 
L 28.421875 72.90625 
L 38.28125 72.90625 
L 38.28125 8.296875 
L 54.390625 8.296875 
L 54.390625 0 
L 12.40625 0 
z
" id="DejaVuSans-49"/>
       </defs>
       <use xlink:href="#DejaVuSans-49"/>
      </g>
     </g>
    </g>
    <g id="xtick_3">
     <g id="line2d_4">
      <g>
       <use style="stroke:#000000;stroke-width:0.8;" x="294.643057" xlink:href="#m143f3fb7a6" y="224.64"/>
      </g>
     </g>
     <g id="text_3">
      <!-- 2 -->
      <g transform="translate(286.371807 251.395937)scale(0.26 -0.26)">
       <defs>
        <path d="M 19.1875 8.296875 
L 53.609375 8.296875 
L 53.609375 0 
L 7.328125 0 
L 7.328125 8.296875 
Q 12.9375 14.109375 22.625 23.890625 
Q 32.328125 33.6875 34.8125 36.53125 
Q 39.546875 41.84375 41.421875 45.53125 
Q 43.3125 49.21875 43.3125 52.78125 
Q 43.3125 58.59375 39.234375 62.25 
Q 35.15625 65.921875 28.609375 65.921875 
Q 23.96875 65.921875 18.8125 64.3125 
Q 13.671875 62.703125 7.8125 59.421875 
L 7.8125 69.390625 
Q 13.765625 71.78125 18.9375 73 
Q 24.125 74.21875 28.421875 74.21875 
Q 39.75 74.21875 46.484375 68.546875 
Q 53.21875 62.890625 53.21875 53.421875 
Q 53.21875 48.921875 51.53125 44.890625 
Q 49.859375 40.875 45.40625 35.40625 
Q 44.1875 33.984375 37.640625 27.21875 
Q 31.109375 20.453125 19.1875 8.296875 
z
" id="DejaVuSans-50"/>
       </defs>
       <use xlink:href="#DejaVuSans-50"/>
      </g>
     </g>
    </g>
    <g id="xtick_4">
     <g id="line2d_5">
      <g>
       <use style="stroke:#000000;stroke-width:0.8;" x="396.131432" xlink:href="#m143f3fb7a6" y="224.64"/>
      </g>
     </g>
     <g id="text_4">
      <!-- 3 -->
      <g transform="translate(387.860182 251.395937)scale(0.26 -0.26)">
       <defs>
        <path d="M 40.578125 39.3125 
Q 47.65625 37.796875 51.625 33 
Q 55.609375 28.21875 55.609375 21.1875 
Q 55.609375 10.40625 48.1875 4.484375 
Q 40.765625 -1.421875 27.09375 -1.421875 
Q 22.515625 -1.421875 17.65625 -0.515625 
Q 12.796875 0.390625 7.625 2.203125 
L 7.625 11.71875 
Q 11.71875 9.328125 16.59375 8.109375 
Q 21.484375 6.890625 26.8125 6.890625 
Q 36.078125 6.890625 40.9375 10.546875 
Q 45.796875 14.203125 45.796875 21.1875 
Q 45.796875 27.640625 41.28125 31.265625 
Q 36.765625 34.90625 28.71875 34.90625 
L 20.21875 34.90625 
L 20.21875 43.015625 
L 29.109375 43.015625 
Q 36.375 43.015625 40.234375 45.921875 
Q 44.09375 48.828125 44.09375 54.296875 
Q 44.09375 59.90625 40.109375 62.90625 
Q 36.140625 65.921875 28.71875 65.921875 
Q 24.65625 65.921875 20.015625 65.03125 
Q 15.375 64.15625 9.8125 62.3125 
L 9.8125 71.09375 
Q 15.4375 72.65625 20.34375 73.4375 
Q 25.25 74.21875 29.59375 74.21875 
Q 40.828125 74.21875 47.359375 69.109375 
Q 53.90625 64.015625 53.90625 55.328125 
Q 53.90625 49.265625 50.4375 45.09375 
Q 46.96875 40.921875 40.578125 39.3125 
z
" id="DejaVuSans-51"/>
       </defs>
       <use xlink:href="#DejaVuSans-51"/>
      </g>
     </g>
    </g>
    <g id="text_5">
     <!-- time (s) -->
     <g transform="translate(193.430469 280.559062)scale(0.26 -0.26)">
      <defs>
       <path d="M 18.3125 70.21875 
L 18.3125 54.6875 
L 36.8125 54.6875 
L 36.8125 47.703125 
L 18.3125 47.703125 
L 18.3125 18.015625 
Q 18.3125 11.328125 20.140625 9.421875 
Q 21.96875 7.515625 27.59375 7.515625 
L 36.8125 7.515625 
L 36.8125 0 
L 27.59375 0 
Q 17.1875 0 13.234375 3.875 
Q 9.28125 7.765625 9.28125 18.015625 
L 9.28125 47.703125 
L 2.6875 47.703125 
L 2.6875 54.6875 
L 9.28125 54.6875 
L 9.28125 70.21875 
z
" id="DejaVuSans-116"/>
       <path d="M 9.421875 54.6875 
L 18.40625 54.6875 
L 18.40625 0 
L 9.421875 0 
z
M 9.421875 75.984375 
L 18.40625 75.984375 
L 18.40625 64.59375 
L 9.421875 64.59375 
z
" id="DejaVuSans-105"/>
       <path d="M 52 44.1875 
Q 55.375 50.25 60.0625 53.125 
Q 64.75 56 71.09375 56 
Q 79.640625 56 84.28125 50.015625 
Q 88.921875 44.046875 88.921875 33.015625 
L 88.921875 0 
L 79.890625 0 
L 79.890625 32.71875 
Q 79.890625 40.578125 77.09375 44.375 
Q 74.3125 48.1875 68.609375 48.1875 
Q 61.625 48.1875 57.5625 43.546875 
Q 53.515625 38.921875 53.515625 30.90625 
L 53.515625 0 
L 44.484375 0 
L 44.484375 32.71875 
Q 44.484375 40.625 41.703125 44.40625 
Q 38.921875 48.1875 33.109375 48.1875 
Q 26.21875 48.1875 22.15625 43.53125 
Q 18.109375 38.875 18.109375 30.90625 
L 18.109375 0 
L 9.078125 0 
L 9.078125 54.6875 
L 18.109375 54.6875 
L 18.109375 46.1875 
Q 21.1875 51.21875 25.484375 53.609375 
Q 29.78125 56 35.6875 56 
Q 41.65625 56 45.828125 52.96875 
Q 50 49.953125 52 44.1875 
z
" id="DejaVuSans-109"/>
       <path d="M 56.203125 29.59375 
L 56.203125 25.203125 
L 14.890625 25.203125 
Q 15.484375 15.921875 20.484375 11.0625 
Q 25.484375 6.203125 34.421875 6.203125 
Q 39.59375 6.203125 44.453125 7.46875 
Q 49.3125 8.734375 54.109375 11.28125 
L 54.109375 2.78125 
Q 49.265625 0.734375 44.1875 -0.34375 
Q 39.109375 -1.421875 33.890625 -1.421875 
Q 20.796875 -1.421875 13.15625 6.1875 
Q 5.515625 13.8125 5.515625 26.8125 
Q 5.515625 40.234375 12.765625 48.109375 
Q 20.015625 56 32.328125 56 
Q 43.359375 56 49.78125 48.890625 
Q 56.203125 41.796875 56.203125 29.59375 
z
M 47.21875 32.234375 
Q 47.125 39.59375 43.09375 43.984375 
Q 39.0625 48.390625 32.421875 48.390625 
Q 24.90625 48.390625 20.390625 44.140625 
Q 15.875 39.890625 15.1875 32.171875 
z
" id="DejaVuSans-101"/>
       <path id="DejaVuSans-32"/>
       <path d="M 31 75.875 
Q 24.46875 64.65625 21.28125 53.65625 
Q 18.109375 42.671875 18.109375 31.390625 
Q 18.109375 20.125 21.3125 9.0625 
Q 24.515625 -2 31 -13.1875 
L 23.1875 -13.1875 
Q 15.875 -1.703125 12.234375 9.375 
Q 8.59375 20.453125 8.59375 31.390625 
Q 8.59375 42.28125 12.203125 53.3125 
Q 15.828125 64.359375 23.1875 75.875 
z
" id="DejaVuSans-40"/>
       <path d="M 44.28125 53.078125 
L 44.28125 44.578125 
Q 40.484375 46.53125 36.375 47.5 
Q 32.28125 48.484375 27.875 48.484375 
Q 21.1875 48.484375 17.84375 46.4375 
Q 14.5 44.390625 14.5 40.28125 
Q 14.5 37.15625 16.890625 35.375 
Q 19.28125 33.59375 26.515625 31.984375 
L 29.59375 31.296875 
Q 39.15625 29.25 43.1875 25.515625 
Q 47.21875 21.78125 47.21875 15.09375 
Q 47.21875 7.46875 41.1875 3.015625 
Q 35.15625 -1.421875 24.609375 -1.421875 
Q 20.21875 -1.421875 15.453125 -0.5625 
Q 10.6875 0.296875 5.421875 2 
L 5.421875 11.28125 
Q 10.40625 8.6875 15.234375 7.390625 
Q 20.0625 6.109375 24.8125 6.109375 
Q 31.15625 6.109375 34.5625 8.28125 
Q 37.984375 10.453125 37.984375 14.40625 
Q 37.984375 18.0625 35.515625 20.015625 
Q 33.0625 21.96875 24.703125 23.78125 
L 21.578125 24.515625 
Q 13.234375 26.265625 9.515625 29.90625 
Q 5.8125 33.546875 5.8125 39.890625 
Q 5.8125 47.609375 11.28125 51.796875 
Q 16.75 56 26.8125 56 
Q 31.78125 56 36.171875 55.265625 
Q 40.578125 54.546875 44.28125 53.078125 
z
" id="DejaVuSans-115"/>
       <path d="M 8.015625 75.875 
L 15.828125 75.875 
Q 23.140625 64.359375 26.78125 53.3125 
Q 30.421875 42.28125 30.421875 31.390625 
Q 30.421875 20.453125 26.78125 9.375 
Q 23.140625 -1.703125 15.828125 -13.1875 
L 8.015625 -13.1875 
Q 14.5 -2 17.703125 9.0625 
Q 20.90625 20.125 20.90625 31.390625 
Q 20.90625 42.671875 17.703125 53.65625 
Q 14.5 64.65625 8.015625 75.875 
z
" id="DejaVuSans-41"/>
      </defs>
      <use xlink:href="#DejaVuSans-116"/>
      <use x="39.208984" xlink:href="#DejaVuSans-105"/>
      <use x="66.992188" xlink:href="#DejaVuSans-109"/>
      <use x="164.404297" xlink:href="#DejaVuSans-101"/>
      <use x="225.927734" xlink:href="#DejaVuSans-32"/>
      <use x="257.714844" xlink:href="#DejaVuSans-40"/>
      <use x="296.728516" xlink:href="#DejaVuSans-115"/>
      <use x="348.828125" xlink:href="#DejaVuSans-41"/>
     </g>
    </g>
   </g>
   <g id="matplotlib.axis_2">
    <g id="ytick_1">
     <g id="line2d_6">
      <defs>
       <path d="M 0 0 
L -3.5 0 
" id="m2d1c743bdc" style="stroke:#000000;stroke-width:0.8;"/>
      </defs>
      <g>
       <use style="stroke:#000000;stroke-width:0.8;" x="76.448125" xlink:href="#m2d1c743bdc" y="214.753139"/>
      </g>
     </g>
     <g id="text_6">
      <!-- 0 -->
      <g transform="translate(52.905625 224.631108)scale(0.26 -0.26)">
       <use xlink:href="#DejaVuSans-48"/>
      </g>
     </g>
    </g>
    <g id="ytick_2">
     <g id="line2d_7">
      <g>
       <use style="stroke:#000000;stroke-width:0.8;" x="76.448125" xlink:href="#m2d1c743bdc" y="153.387397"/>
      </g>
     </g>
     <g id="text_7">
      <!-- 5 -->
      <g transform="translate(52.905625 163.265366)scale(0.26 -0.26)">
       <defs>
        <path d="M 10.796875 72.90625 
L 49.515625 72.90625 
L 49.515625 64.59375 
L 19.828125 64.59375 
L 19.828125 46.734375 
Q 21.96875 47.46875 24.109375 47.828125 
Q 26.265625 48.1875 28.421875 48.1875 
Q 40.625 48.1875 47.75 41.5 
Q 54.890625 34.8125 54.890625 23.390625 
Q 54.890625 11.625 47.5625 5.09375 
Q 40.234375 -1.421875 26.90625 -1.421875 
Q 22.3125 -1.421875 17.546875 -0.640625 
Q 12.796875 0.140625 7.71875 1.703125 
L 7.71875 11.625 
Q 12.109375 9.234375 16.796875 8.0625 
Q 21.484375 6.890625 26.703125 6.890625 
Q 35.15625 6.890625 40.078125 11.328125 
Q 45.015625 15.765625 45.015625 23.390625 
Q 45.015625 31 40.078125 35.4375 
Q 35.15625 39.890625 26.703125 39.890625 
Q 22.75 39.890625 18.8125 39.015625 
Q 14.890625 38.140625 10.796875 36.28125 
z
" id="DejaVuSans-53"/>
       </defs>
       <use xlink:href="#DejaVuSans-53"/>
      </g>
     </g>
    </g>
    <g id="ytick_3">
     <g id="line2d_8">
      <g>
       <use style="stroke:#000000;stroke-width:0.8;" x="76.448125" xlink:href="#m2d1c743bdc" y="92.021656"/>
      </g>
     </g>
     <g id="text_8">
      <!-- 10 -->
      <g transform="translate(36.363125 101.899624)scale(0.26 -0.26)">
       <use xlink:href="#DejaVuSans-49"/>
       <use x="63.623047" xlink:href="#DejaVuSans-48"/>
      </g>
     </g>
    </g>
    <g id="ytick_4">
     <g id="line2d_9">
      <g>
       <use style="stroke:#000000;stroke-width:0.8;" x="76.448125" xlink:href="#m2d1c743bdc" y="30.655914"/>
      </g>
     </g>
     <g id="text_9">
      <!-- 15 -->
      <g transform="translate(36.363125 40.533883)scale(0.26 -0.26)">
       <use xlink:href="#DejaVuSans-49"/>
       <use x="63.623047" xlink:href="#DejaVuSans-53"/>
      </g>
     </g>
    </g>
    <g id="text_10">
     <!-- amplitude (a.u.) -->
     <g transform="translate(26.955937 220.356719)rotate(-90)scale(0.26 -0.26)">
      <defs>
       <path d="M 34.28125 27.484375 
Q 23.390625 27.484375 19.1875 25 
Q 14.984375 22.515625 14.984375 16.5 
Q 14.984375 11.71875 18.140625 8.90625 
Q 21.296875 6.109375 26.703125 6.109375 
Q 34.1875 6.109375 38.703125 11.40625 
Q 43.21875 16.703125 43.21875 25.484375 
L 43.21875 27.484375 
z
M 52.203125 31.203125 
L 52.203125 0 
L 43.21875 0 
L 43.21875 8.296875 
Q 40.140625 3.328125 35.546875 0.953125 
Q 30.953125 -1.421875 24.3125 -1.421875 
Q 15.921875 -1.421875 10.953125 3.296875 
Q 6 8.015625 6 15.921875 
Q 6 25.140625 12.171875 29.828125 
Q 18.359375 34.515625 30.609375 34.515625 
L 43.21875 34.515625 
L 43.21875 35.40625 
Q 43.21875 41.609375 39.140625 45 
Q 35.0625 48.390625 27.6875 48.390625 
Q 23 48.390625 18.546875 47.265625 
Q 14.109375 46.140625 10.015625 43.890625 
L 10.015625 52.203125 
Q 14.9375 54.109375 19.578125 55.046875 
Q 24.21875 56 28.609375 56 
Q 40.484375 56 46.34375 49.84375 
Q 52.203125 43.703125 52.203125 31.203125 
z
" id="DejaVuSans-97"/>
       <path d="M 18.109375 8.203125 
L 18.109375 -20.796875 
L 9.078125 -20.796875 
L 9.078125 54.6875 
L 18.109375 54.6875 
L 18.109375 46.390625 
Q 20.953125 51.265625 25.265625 53.625 
Q 29.59375 56 35.59375 56 
Q 45.5625 56 51.78125 48.09375 
Q 58.015625 40.1875 58.015625 27.296875 
Q 58.015625 14.40625 51.78125 6.484375 
Q 45.5625 -1.421875 35.59375 -1.421875 
Q 29.59375 -1.421875 25.265625 0.953125 
Q 20.953125 3.328125 18.109375 8.203125 
z
M 48.6875 27.296875 
Q 48.6875 37.203125 44.609375 42.84375 
Q 40.53125 48.484375 33.40625 48.484375 
Q 26.265625 48.484375 22.1875 42.84375 
Q 18.109375 37.203125 18.109375 27.296875 
Q 18.109375 17.390625 22.1875 11.75 
Q 26.265625 6.109375 33.40625 6.109375 
Q 40.53125 6.109375 44.609375 11.75 
Q 48.6875 17.390625 48.6875 27.296875 
z
" id="DejaVuSans-112"/>
       <path d="M 9.421875 75.984375 
L 18.40625 75.984375 
L 18.40625 0 
L 9.421875 0 
z
" id="DejaVuSans-108"/>
       <path d="M 8.5 21.578125 
L 8.5 54.6875 
L 17.484375 54.6875 
L 17.484375 21.921875 
Q 17.484375 14.15625 20.5 10.265625 
Q 23.53125 6.390625 29.59375 6.390625 
Q 36.859375 6.390625 41.078125 11.03125 
Q 45.3125 15.671875 45.3125 23.6875 
L 45.3125 54.6875 
L 54.296875 54.6875 
L 54.296875 0 
L 45.3125 0 
L 45.3125 8.40625 
Q 42.046875 3.421875 37.71875 1 
Q 33.40625 -1.421875 27.6875 -1.421875 
Q 18.265625 -1.421875 13.375 4.4375 
Q 8.5 10.296875 8.5 21.578125 
z
M 31.109375 56 
z
" id="DejaVuSans-117"/>
       <path d="M 45.40625 46.390625 
L 45.40625 75.984375 
L 54.390625 75.984375 
L 54.390625 0 
L 45.40625 0 
L 45.40625 8.203125 
Q 42.578125 3.328125 38.25 0.953125 
Q 33.9375 -1.421875 27.875 -1.421875 
Q 17.96875 -1.421875 11.734375 6.484375 
Q 5.515625 14.40625 5.515625 27.296875 
Q 5.515625 40.1875 11.734375 48.09375 
Q 17.96875 56 27.875 56 
Q 33.9375 56 38.25 53.625 
Q 42.578125 51.265625 45.40625 46.390625 
z
M 14.796875 27.296875 
Q 14.796875 17.390625 18.875 11.75 
Q 22.953125 6.109375 30.078125 6.109375 
Q 37.203125 6.109375 41.296875 11.75 
Q 45.40625 17.390625 45.40625 27.296875 
Q 45.40625 37.203125 41.296875 42.84375 
Q 37.203125 48.484375 30.078125 48.484375 
Q 22.953125 48.484375 18.875 42.84375 
Q 14.796875 37.203125 14.796875 27.296875 
z
" id="DejaVuSans-100"/>
       <path d="M 10.6875 12.40625 
L 21 12.40625 
L 21 0 
L 10.6875 0 
z
" id="DejaVuSans-46"/>
      </defs>
      <use xlink:href="#DejaVuSans-97"/>
      <use x="61.279297" xlink:href="#DejaVuSans-109"/>
      <use x="158.691406" xlink:href="#DejaVuSans-112"/>
      <use x="222.167969" xlink:href="#DejaVuSans-108"/>
      <use x="249.951172" xlink:href="#DejaVuSans-105"/>
      <use x="277.734375" xlink:href="#DejaVuSans-116"/>
      <use x="316.943359" xlink:href="#DejaVuSans-117"/>
      <use x="380.322266" xlink:href="#DejaVuSans-100"/>
      <use x="443.798828" xlink:href="#DejaVuSans-101"/>
      <use x="505.322266" xlink:href="#DejaVuSans-32"/>
      <use x="537.109375" xlink:href="#DejaVuSans-40"/>
      <use x="576.123047" xlink:href="#DejaVuSans-97"/>
      <use x="637.402344" xlink:href="#DejaVuSans-46"/>
      <use x="669.189453" xlink:href="#DejaVuSans-117"/>
      <use x="732.568359" xlink:href="#DejaVuSans-46"/>
      <use x="764.355469" xlink:href="#DejaVuSans-41"/>
     </g>
    </g>
   </g>
   <g id="line2d_10">
    <path clip-path="url(#p46cf4982a5)" d="M 91.666307 214.753139 
L 91.767795 214.753139 
L 91.970772 207.96085 
L 92.985656 162.929508 
L 93.493098 151.388632 
L 95.522865 114.246793 
L 96.43626 89.105897 
L 97.146679 70.540706 
L 97.451144 67.479775 
L 97.552633 67.519667 
L 97.755609 69.437223 
L 98.060074 76.600857 
L 98.466028 86.819863 
L 98.567516 87.396162 
L 98.669005 86.679845 
L 98.871981 81.673417 
L 99.5824 59.210366 
L 99.785377 58.295409 
L 99.988354 60.317236 
L 100.292819 67.639681 
L 100.800261 87.028059 
L 102.525563 159.005108 
L 103.033005 172.392722 
L 103.33747 175.106587 
L 103.438958 175.033952 
L 103.641935 173.434587 
L 103.9464 167.609207 
L 104.656819 151.102041 
L 104.758307 151.286659 
L 105.265749 156.015478 
L 105.468726 154.125779 
L 106.48361 138.253774 
L 107.09254 131.533959 
L 107.904447 118.889826 
L 108.513377 106.282423 
L 109.426772 86.643728 
L 109.731238 83.330842 
L 109.832726 82.949449 
L 109.934214 82.986119 
L 110.137191 84.381003 
L 110.441656 89.589038 
L 110.949098 98.519546 
L 111.050586 98.611703 
L 111.253563 96.630893 
L 111.862493 86.650406 
L 112.06547 86.047997 
L 112.166959 86.447319 
L 112.369935 88.557269 
L 112.6744 94.328749 
L 113.181842 108.986863 
L 115.008633 166.192642 
L 115.313098 169.901411 
L 115.516075 170.409053 
L 115.617563 170.099022 
L 115.82054 168.328178 
L 116.125005 162.834859 
L 117.038401 142.372199 
L 117.139889 142.177339 
L 117.444354 142.980746 
L 117.545842 142.812227 
L 117.748819 141.127596 
L 118.357749 130.625328 
L 120.18454 98.890799 
L 120.79347 88.59109 
L 121.097936 86.780792 
L 121.199424 86.945241 
L 121.402401 88.593503 
L 121.808354 95.77869 
L 122.112819 99.84718 
L 122.214308 99.960278 
L 122.417284 98.178861 
L 123.127703 87.854509 
L 123.229191 87.741179 
L 123.33068 88.10746 
L 123.533657 90.164581 
L 123.838122 96.119223 
L 124.447052 113.664109 
L 125.969378 160.147175 
L 126.375331 166.000789 
L 126.578308 166.691201 
L 126.679796 166.505316 
L 126.882773 165.106568 
L 127.187238 160.613781 
L 127.796168 146.11338 
L 128.30361 135.324808 
L 128.709564 130.708572 
L 129.115517 126.472356 
L 129.724447 116.270655 
L 130.637843 100.922225 
L 131.043796 96.863546 
L 131.348261 95.729381 
L 131.44975 95.864414 
L 131.652727 97.096006 
L 131.957192 101.252395 
L 132.363145 106.399866 
L 132.464634 106.489552 
L 132.66761 104.791958 
L 133.581006 91.614172 
L 133.682494 91.616192 
L 133.885471 92.711328 
L 134.189936 96.458906 
L 134.798866 108.293905 
L 135.509285 127.811678 
L 136.727145 164.838986 
L 137.03161 168.557471 
L 137.234587 168.941002 
L 137.437564 167.781437 
L 137.742029 163.506206 
L 138.249471 151.23893 
L 138.756913 139.510745 
L 139.061378 137.094188 
L 139.365843 136.249061 
L 139.56882 134.606325 
L 139.974773 128.328629 
L 141.801564 96.420289 
L 142.207518 91.878636 
L 142.410494 91.032185 
L 142.511983 91.151014 
L 142.714959 92.555514 
L 143.120913 98.902179 
L 143.425378 102.733326 
L 143.526866 103.0145 
L 143.628355 102.693677 
L 143.831332 100.553945 
L 144.338773 94.063385 
L 144.54175 93.272413 
L 144.643239 93.387544 
L 144.846215 94.629039 
L 145.15068 98.864043 
L 145.658122 110.205173 
L 146.673006 140.01418 
L 147.383425 158.124035 
L 147.789378 163.764199 
L 147.992355 164.617705 
L 148.093843 164.538627 
L 148.29682 163.373194 
L 148.601285 159.59441 
L 149.108727 149.438022 
L 150.022122 130.263669 
L 151.138495 113.635679 
L 151.848913 105.116332 
L 152.153378 103.759355 
L 152.254867 103.873152 
L 152.457843 105.090893 
L 152.863797 110.541972 
L 153.168262 113.709369 
L 153.26975 113.845065 
L 153.371239 113.410894 
L 153.574216 111.127029 
L 154.386123 99.462457 
L 154.589099 98.613676 
L 154.690588 98.602545 
L 154.893564 99.301416 
L 155.19803 101.91027 
L 155.705471 109.12835 
L 156.314402 120.875105 
L 157.227797 144.291424 
L 157.836727 157.982368 
L 158.242681 163.125675 
L 158.445658 163.961517 
L 158.547146 163.926141 
L 158.750123 163.014603 
L 159.054588 159.737012 
L 159.56203 150.314454 
L 160.373937 134.071977 
L 161.490309 116.983587 
L 162.302216 103.425863 
L 162.606681 100.827315 
L 162.809658 100.414295 
L 162.911146 100.686627 
L 163.114123 102.303235 
L 163.824541 110.625878 
L 163.92603 110.129055 
L 164.129007 107.192215 
L 164.940914 91.402241 
L 165.14389 90.85018 
L 165.346867 91.988735 
L 165.651332 96.324341 
L 166.158774 107.876867 
L 166.970681 132.792397 
L 167.985565 163.789953 
L 168.29003 168.33696 
L 168.493007 169.266877 
L 168.594495 169.066706 
L 168.797472 167.400838 
L 169.101937 162.187568 
L 169.710867 145.932387 
L 170.116821 137.10984 
L 170.522774 133.193496 
L 170.827239 129.798238 
L 171.233193 122.18494 
L 172.146588 104.682653 
L 172.65403 98.430086 
L 172.857007 97.237595 
L 172.958495 97.059347 
L 173.059983 97.189189 
L 173.26296 98.460506 
L 173.567425 102.604667 
L 173.973379 107.740263 
L 174.074867 107.872158 
L 174.176356 107.358386 
L 174.379332 104.663435 
L 175.089751 92.570646 
L 175.292728 91.72773 
L 175.394216 91.92219 
L 175.597193 93.42346 
L 175.901658 97.825511 
L 176.4091 108.823506 
L 177.322495 134.568848 
L 178.235891 159.171837 
L 178.641844 165.850428 
L 178.946309 167.770393 
L 179.047798 167.736164 
L 179.250774 166.54675 
L 179.555239 162.091135 
L 180.062681 149.59885 
L 180.570123 137.699742 
L 180.976077 133.443064 
L 181.280542 129.902866 
L 181.889472 118.91006 
L 183.005844 99.101934 
L 183.310309 95.910659 
L 183.513286 95.205861 
L 183.614774 95.396006 
L 183.817751 96.926841 
L 184.52817 106.274199 
L 184.629658 106.150114 
L 184.832635 104.092334 
L 185.543054 93.264986 
L 185.74603 92.741144 
L 185.847519 93.026984 
L 186.050495 94.592241 
L 186.456449 100.652545 
L 187.065379 114.554462 
L 189.095147 164.974934 
L 189.399612 167.172472 
L 189.5011 167.278717 
L 189.602589 167.04376 
L 189.805565 165.543733 
L 190.11003 160.869836 
L 190.718961 146.008001 
L 191.124914 137.652428 
L 191.429379 135.087151 
L 191.733844 133.091804 
L 192.03831 128.856516 
L 193.763612 96.161571 
L 194.068077 94.057691 
L 194.169565 93.975741 
L 194.271054 94.260991 
L 194.474031 95.961293 
L 195.184449 104.152874 
L 195.285938 103.564991 
L 195.488914 100.496184 
L 196.097845 89.036281 
L 196.300821 87.825684 
L 196.40231 87.876537 
L 196.605286 89.20491 
L 196.909752 93.898933 
L 197.518682 108.458661 
L 198.736542 144.666278 
L 199.446961 163.46119 
L 199.751426 167.910221 
L 199.954403 169.071984 
L 200.055891 169.086457 
L 200.258868 168.001078 
L 200.563333 163.766513 
L 201.070775 151.812109 
L 201.578217 140.863036 
L 201.781194 139.859515 
L 202.085659 140.397048 
L 202.187147 140.067199 
L 202.390124 137.741636 
L 202.897566 126.330747 
L 203.912449 105.010475 
L 204.724356 91.031941 
L 205.028822 89.056802 
L 205.13031 89.130816 
L 205.333287 90.526739 
L 206.043705 98.955036 
L 206.145194 98.482959 
L 206.34817 95.600454 
L 206.957101 84.759732 
L 207.160077 83.830791 
L 207.261566 84.025348 
L 207.464543 85.639422 
L 207.769008 90.822145 
L 208.27645 104.583267 
L 209.088357 134.481061 
L 210.001752 166.70749 
L 210.306217 172.513275 
L 210.509194 174.07062 
L 210.610682 174.118139 
L 210.813659 172.739085 
L 211.118124 167.217478 
L 212.133008 143.480495 
L 212.437473 145.45882 
L 212.538961 145.434939 
L 212.741938 143.23331 
L 213.147892 133.442939 
L 213.85831 117.406086 
L 215.583613 85.509939 
L 215.786589 84.807478 
L 215.888078 85.106289 
L 216.091054 87.019198 
L 216.801473 96.436841 
L 216.902961 95.960058 
L 217.105938 93.151575 
L 217.714868 83.498221 
L 217.816357 83.114876 
L 217.917845 83.178593 
L 218.120822 84.614709 
L 218.425287 89.634615 
L 218.831241 100.488759 
L 219.541659 126.189361 
L 220.556543 163.594784 
L 220.962496 170.829962 
L 221.165473 171.811986 
L 221.266962 171.628107 
L 221.469938 170.013005 
L 221.774403 164.802908 
L 222.281845 150.710347 
L 222.687799 140.434266 
L 222.890776 138.391584 
L 223.093752 138.124563 
L 223.195241 138.013075 
L 223.398217 136.617393 
L 223.702683 130.788927 
L 224.920543 103.828891 
L 225.73245 89.763966 
L 226.036915 87.537571 
L 226.138404 87.510565 
L 226.34138 88.685553 
L 226.645845 93.050415 
L 226.950311 97.420687 
L 227.051799 97.976531 
L 227.153287 97.858167 
L 227.356264 95.767989 
L 228.066683 84.734272 
L 228.269659 84.348014 
L 228.472636 85.621541 
L 228.777101 90.247272 
L 229.284543 102.477952 
L 229.994962 124.959391 
L 231.314311 171.623526 
L 231.618776 175.682674 
L 231.720264 176.076344 
L 231.821753 175.976281 
L 232.024729 174.188983 
L 232.329194 167.835305 
L 233.141101 145.640017 
L 233.24259 145.526662 
L 233.547055 147.598793 
L 233.648543 147.529221 
L 233.85152 145.045264 
L 234.358962 132.150705 
L 235.373846 109.436038 
L 236.490218 87.00253 
L 236.794683 83.499476 
L 236.99766 82.973691 
L 237.200636 84.276955 
L 237.911055 93.414184 
L 238.012543 93.044294 
L 238.21552 90.394907 
L 238.82445 79.459808 
L 239.027427 78.478079 
L 239.128916 78.683428 
L 239.331892 80.393313 
L 239.636357 85.879024 
L 240.042311 97.684313 
L 240.854218 129.86253 
L 241.767613 165.621004 
L 242.173567 174.499128 
L 242.376544 176.230537 
L 242.478032 176.317483 
L 242.57952 175.887341 
L 242.782497 173.44097 
L 243.086962 165.997059 
L 243.898869 143.58079 
L 244.000358 143.72958 
L 244.304823 145.326269 
L 244.406311 144.751833 
L 244.609288 141.176932 
L 246.33459 97.982027 
L 247.045009 84.845509 
L 247.247986 83.446369 
L 247.349474 83.402855 
L 247.552451 84.706081 
L 247.958404 91.151706 
L 248.161381 93.614149 
L 248.262869 93.93919 
L 248.364358 93.514839 
L 248.567334 90.723729 
L 249.176265 79.576883 
L 249.379241 78.740968 
L 249.48073 79.020444 
L 249.683707 80.800872 
L 249.988172 85.918822 
L 250.495614 99.536146 
L 251.206032 126.142074 
L 252.423893 174.384529 
L 252.728358 178.993576 
L 252.829846 179.415035 
L 252.931335 179.228316 
L 253.134311 177.088767 
L 253.438776 170.056253 
L 254.149195 149.305975 
L 254.250683 149.458941 
L 254.656637 155.612403 
L 254.758125 155.538459 
L 254.961102 152.027778 
L 255.975986 124.216555 
L 256.787893 107.082251 
L 258.005753 78.875779 
L 258.20873 77.044263 
L 258.310218 76.763924 
L 258.411707 76.944665 
L 258.614684 78.683699 
L 259.223614 86.848146 
L 259.325102 86.708443 
L 259.528079 84.460521 
L 260.137009 74.463667 
L 260.339986 73.740747 
L 260.441474 74.106609 
L 260.644451 76.349008 
L 260.948916 82.926689 
L 261.456358 100.074737 
L 263.384637 174.503817 
L 263.689102 177.442108 
L 263.790591 177.420956 
L 263.993567 175.920214 
L 264.298033 170.19458 
L 265.10994 147.767101 
L 265.211428 148.135467 
L 265.617381 153.694567 
L 265.71887 153.142326 
L 265.921847 149.035799 
L 266.835242 124.75083 
L 267.647149 107.100444 
L 268.865009 76.816721 
L 269.067986 75.253304 
L 269.169475 75.155968 
L 269.270963 75.533529 
L 269.47394 77.648586 
L 269.981382 84.905156 
L 270.08287 85.126228 
L 270.184358 84.626331 
L 270.387335 81.751754 
L 270.996265 71.844232 
L 271.097754 71.417304 
L 271.199242 71.459521 
L 271.402219 72.921964 
L 271.706684 77.95884 
L 272.214126 92.030845 
L 272.823056 115.616229 
L 274.345382 178.935675 
L 274.548358 181.515166 
L 274.649847 181.853836 
L 274.751335 181.551988 
L 274.954312 179.138918 
L 275.258777 171.62363 
L 275.969196 151.311572 
L 276.070684 152.567856 
L 276.476638 161.789848 
L 276.578126 161.622511 
L 276.781103 157.819913 
L 277.897475 126.202139 
L 278.709382 105.457611 
L 279.825754 75.715371 
L 280.130219 71.739685 
L 280.231707 71.299058 
L 280.333196 71.362644 
L 280.536173 72.94942 
L 281.145103 81.059077 
L 281.246591 80.926374 
L 281.449568 78.736563 
L 282.058498 68.948942 
L 282.159987 68.472874 
L 282.261475 68.528506 
L 282.464452 70.21649 
L 282.768917 76.044457 
L 283.276359 92.046531 
L 284.088266 127.798587 
L 285.103149 171.294155 
L 285.509103 180.169382 
L 285.71208 181.254323 
L 285.813568 180.94199 
L 286.016545 178.659319 
L 286.32101 171.414098 
L 287.031429 150.44448 
L 287.132917 151.348432 
L 287.53887 158.979182 
L 287.640359 158.289281 
L 287.843336 153.258175 
L 288.655243 126.307855 
L 289.670126 103.05876 
L 290.887987 73.397714 
L 291.090964 71.357125 
L 291.192452 71.051133 
L 291.29394 71.274481 
L 291.496917 73.181554 
L 292.004359 79.318008 
L 292.105847 79.083433 
L 292.308824 76.457416 
L 293.019243 63.812409 
L 293.120731 63.676692 
L 293.222219 64.086546 
L 293.425196 66.488968 
L 293.729661 73.474206 
L 294.237103 91.204101 
L 295.150499 133.098485 
L 296.165382 179.364325 
L 296.469847 185.68081 
L 296.672824 186.613535 
L 296.774313 186.135444 
L 296.977289 183.35507 
L 297.281754 174.707023 
L 297.789196 157.489772 
L 297.890685 157.458666 
L 298.093661 162.606716 
L 298.296638 167.677845 
L 298.398127 168.261579 
L 298.499615 167.450649 
L 298.702592 162.513705 
L 299.41301 139.392648 
L 300.427894 121.419541 
L 301.036824 103.831337 
L 302.153196 68.556428 
L 302.457662 64.006306 
L 302.55915 63.501036 
L 302.660638 63.546778 
L 302.863615 65.195196 
L 303.472545 72.326449 
L 303.574034 71.746374 
L 303.77701 68.581954 
L 304.385941 57.341163 
L 304.487429 56.940823 
L 304.588917 57.13388 
L 304.791894 59.226595 
L 305.096359 65.961395 
L 305.603801 84.002873 
L 306.415708 122.987042 
L 307.53208 179.270003 
L 307.836545 186.807851 
L 308.039522 188.340798 
L 308.141011 188.022921 
L 308.343987 185.338165 
L 308.648452 176.691909 
L 309.257383 156.834536 
L 309.358871 158.436769 
L 309.764825 171.650527 
L 309.866313 172.135105 
L 309.967801 171.237115 
L 310.170778 166.364723 
L 310.881197 144.413633 
L 311.28715 140.343399 
L 311.693104 135.970153 
L 312.200546 127.916604 
L 312.707987 115.326239 
L 313.722871 80.373138 
L 314.331801 62.122178 
L 314.636267 57.130798 
L 314.839243 56.406478 
L 315.04222 57.841227 
L 315.65115 65.024639 
L 315.752639 64.531582 
L 315.955615 61.522741 
L 316.564546 50.38095 
L 316.666034 50.001518 
L 316.767522 50.201614 
L 316.970499 52.340789 
L 317.274964 59.425227 
L 317.782406 79.188768 
L 318.695801 127.46127 
L 319.609197 174.707282 
L 320.01515 185.706065 
L 320.218127 187.213709 
L 320.319615 186.90554 
L 320.522592 184.267098 
L 320.827057 175.767651 
L 321.435988 153.708042 
L 321.537476 153.918803 
L 322.044918 165.613411 
L 322.146406 164.559708 
L 322.349383 158.706371 
L 323.059802 133.296964 
L 324.176174 107.90463 
L 325.698499 61.997296 
L 325.901476 60.829975 
L 326.002964 61.10538 
L 326.205941 63.220574 
L 326.713383 70.517243 
L 326.814871 70.691879 
L 326.91636 70.203054 
L 327.220825 65.991267 
L 327.626778 60.760304 
L 327.728267 60.41512 
L 327.829755 60.550685 
L 328.032732 62.290165 
L 328.337197 68.339569 
L 328.743151 81.885966 
L 329.352081 110.863303 
L 330.772918 181.327523 
L 331.077383 187.031464 
L 331.178872 187.528569 
L 331.28036 187.334196 
L 331.483337 185.049574 
L 331.787802 177.118227 
L 332.396732 155.451315 
L 332.49822 155.667402 
L 333.005662 169.38506 
L 333.107151 168.860086 
L 333.310127 164.131174 
L 334.122034 138.802739 
L 334.832453 125.862296 
L 335.847337 99.659009 
L 337.369662 55.087423 
L 337.471151 54.576852 
L 337.572639 54.662733 
L 337.775616 56.512032 
L 338.283058 63.678647 
L 338.384546 63.934714 
L 338.486035 63.565266 
L 338.7905 60.043656 
L 339.094965 56.789244 
L 339.196453 56.522714 
L 339.297942 56.792033 
L 339.500918 58.88657 
L 339.805383 65.627532 
L 340.312825 83.757232 
L 341.226221 127.047868 
L 342.444081 187.00611 
L 342.748546 192.052565 
L 342.850035 192.271786 
L 342.951523 191.810144 
L 343.1545 188.886472 
L 343.458965 179.650023 
L 343.966407 163.013596 
L 344.067895 165.007393 
L 344.575337 183.412476 
L 344.676825 183.180212 
L 344.879802 179.481834 
L 345.793198 155.025131 
L 346.199151 152.948096 
L 346.706593 149.527062 
L 347.214035 144.983097 
L 347.5185 140.537266 
L 347.924453 130.707533 
L 348.533384 108.310717 
L 349.954221 53.178688 
L 350.258686 47.278589 
L 350.461663 46.22445 
L 350.563151 46.608302 
L 350.766128 48.914041 
L 351.172081 54.556511 
L 351.27357 54.891091 
L 351.375058 54.53776 
L 351.578035 52.10331 
L 352.085477 44.726596 
L 352.186965 44.401826 
L 352.288454 44.643672 
L 352.49143 46.874164 
L 352.795895 54.381029 
L 353.201849 70.49929 
L 353.912268 109.010461 
L 355.231616 181.01738 
L 355.536082 189.501491 
L 355.739058 191.482204 
L 355.840547 191.316606 
L 356.043523 188.757044 
L 356.347989 179.70247 
L 356.956919 157.542479 
L 357.058407 159.247166 
L 357.464361 173.815166 
L 357.565849 174.270138 
L 357.667337 173.223351 
L 357.870314 167.665282 
L 358.580733 143.515588 
L 359.900082 120.000695 
L 360.509012 101.89689 
L 361.929849 53.147352 
L 362.234314 49.807565 
L 362.335803 49.87283 
L 362.538779 51.657342 
L 363.046221 58.42421 
L 363.14771 58.491751 
L 363.350686 56.65541 
L 363.959617 47.993567 
L 364.061105 47.829196 
L 364.162593 48.241531 
L 364.36557 50.867815 
L 364.670035 58.956897 
L 365.177477 81.187184 
L 366.192361 141.40244 
L 367.004268 185.475185 
L 367.308733 193.43032 
L 367.51171 194.951251 
L 367.613198 194.583944 
L 367.816175 191.57459 
L 368.12064 181.87169 
L 368.628082 163.770455 
L 368.72957 165.575488 
L 369.237012 184.415781 
L 369.338501 184.251296 
L 369.541477 180.711547 
L 370.556361 155.004932 
L 371.368268 149.195168 
L 371.977198 142.522079 
L 372.383152 133.763214 
L 373.195059 109.013445 
L 374.108454 71.588091 
L 374.818873 47.025854 
L 375.123338 42.669054 
L 375.224826 42.466024 
L 375.326315 42.879873 
L 375.529291 45.262118 
L 376.036733 51.910729 
L 376.138222 51.898117 
L 376.341198 50.411847 
L 376.84864 45.618855 
L 376.950129 45.679858 
L 377.153105 47.311844 
L 377.457571 53.576139 
L 377.863524 68.395474 
L 378.573943 105.970089 
L 379.99478 184.904696 
L 380.299245 192.721633 
L 380.502222 194.110741 
L 380.60371 193.64995 
L 380.806687 190.379628 
L 381.111152 180.031875 
L 381.618594 159.891653 
L 381.720082 160.793285 
L 382.227524 178.778741 
L 382.329013 178.427051 
L 382.531989 174.035616 
L 383.242408 151.634806 
L 383.546873 149.091025 
L 383.851338 147.603599 
L 384.155803 145.024885 
L 384.663245 138.606355 
L 385.069199 130.188939 
L 385.576641 113.753057 
L 387.403431 45.700645 
L 387.606408 43.904363 
L 387.707896 43.931758 
L 387.910873 45.69645 
L 388.418315 52.84308 
L 388.519803 53.080736 
L 388.621292 52.684877 
L 388.925757 48.992295 
L 389.230222 45.393346 
L 389.33171 44.953217 
L 389.433199 45.033016 
L 389.636176 46.852178 
L 389.940641 53.742397 
L 390.346594 69.442007 
L 391.057013 107.843537 
L 392.376362 181.611827 
L 392.680827 189.664151 
L 392.883804 191.13772 
L 392.985292 190.663903 
L 393.188269 187.537634 
L 393.492734 178.142601 
L 394.101664 155.549112 
L 394.203152 157.053134 
L 394.710594 173.927739 
L 394.812083 173.054413 
L 395.015059 167.475731 
L 395.725478 143.732118 
L 396.029943 139.890433 
L 396.029943 139.890433 
" style="fill:none;stroke:#ff7f0e;stroke-linecap:square;stroke-width:1.5;"/>
   </g>
   <g id="patch_3">
    <path d="M 76.448125 224.64 
L 76.448125 7.2 
" style="fill:none;stroke:#000000;stroke-linecap:square;stroke-linejoin:miter;stroke-width:0.8;"/>
   </g>
   <g id="patch_4">
    <path d="M 411.248125 224.64 
L 411.248125 7.2 
" style="fill:none;stroke:#000000;stroke-linecap:square;stroke-linejoin:miter;stroke-width:0.8;"/>
   </g>
   <g id="patch_5">
    <path d="M 76.448125 224.64 
L 411.248125 224.64 
" style="fill:none;stroke:#000000;stroke-linecap:square;stroke-linejoin:miter;stroke-width:0.8;"/>
   </g>
   <g id="patch_6">
    <path d="M 76.448125 7.2 
L 411.248125 7.2 
" style="fill:none;stroke:#000000;stroke-linecap:square;stroke-linejoin:miter;stroke-width:0.8;"/>
   </g>
   <g id="legend_1">
    <g id="line2d_11">
     <path d="M 438.388125 28.255937 
L 490.388125 28.255937 
" style="fill:none;stroke:#1f77b4;stroke-linecap:square;stroke-width:1.5;"/>
    </g>
    <g id="line2d_12"/>
    <g id="text_11">
     <!-- exact -->
     <g transform="translate(511.188125 37.355937)scale(0.26 -0.26)">
      <defs>
       <path d="M 54.890625 54.6875 
L 35.109375 28.078125 
L 55.90625 0 
L 45.3125 0 
L 29.390625 21.484375 
L 13.484375 0 
L 2.875 0 
L 24.125 28.609375 
L 4.6875 54.6875 
L 15.28125 54.6875 
L 29.78125 35.203125 
L 44.28125 54.6875 
z
" id="DejaVuSans-120"/>
       <path d="M 48.78125 52.59375 
L 48.78125 44.1875 
Q 44.96875 46.296875 41.140625 47.34375 
Q 37.3125 48.390625 33.40625 48.390625 
Q 24.65625 48.390625 19.8125 42.84375 
Q 14.984375 37.3125 14.984375 27.296875 
Q 14.984375 17.28125 19.8125 11.734375 
Q 24.65625 6.203125 33.40625 6.203125 
Q 37.3125 6.203125 41.140625 7.25 
Q 44.96875 8.296875 48.78125 10.40625 
L 48.78125 2.09375 
Q 45.015625 0.34375 40.984375 -0.53125 
Q 36.96875 -1.421875 32.421875 -1.421875 
Q 20.0625 -1.421875 12.78125 6.34375 
Q 5.515625 14.109375 5.515625 27.296875 
Q 5.515625 40.671875 12.859375 48.328125 
Q 20.21875 56 33.015625 56 
Q 37.15625 56 41.109375 55.140625 
Q 45.0625 54.296875 48.78125 52.59375 
z
" id="DejaVuSans-99"/>
      </defs>
      <use xlink:href="#DejaVuSans-101"/>
      <use x="59.773438" xlink:href="#DejaVuSans-120"/>
      <use x="118.953125" xlink:href="#DejaVuSans-97"/>
      <use x="180.232422" xlink:href="#DejaVuSans-99"/>
      <use x="235.212891" xlink:href="#DejaVuSans-116"/>
     </g>
    </g>
    <g id="line2d_13">
     <path d="M 438.388125 66.419062 
L 490.388125 66.419062 
" style="fill:none;stroke:#ff7f0e;stroke-linecap:square;stroke-width:1.5;"/>
    </g>
    <g id="line2d_14"/>
    <g id="text_12">
     <!-- estimated -->
     <g transform="translate(511.188125 75.519062)scale(0.26 -0.26)">
      <use xlink:href="#DejaVuSans-101"/>
      <use x="61.523438" xlink:href="#DejaVuSans-115"/>
      <use x="113.623047" xlink:href="#DejaVuSans-116"/>
      <use x="152.832031" xlink:href="#DejaVuSans-105"/>
      <use x="180.615234" xlink:href="#DejaVuSans-109"/>
      <use x="278.027344" xlink:href="#DejaVuSans-97"/>
      <use x="339.306641" xlink:href="#DejaVuSans-116"/>
      <use x="378.515625" xlink:href="#DejaVuSans-101"/>
      <use x="440.039062" xlink:href="#DejaVuSans-100"/>
     </g>
    </g>
   </g>
  </g>
 </g>
 <defs>
  <clipPath id="p46cf4982a5">
   <rect height="217.44" width="334.8" x="76.448125" y="7.2"/>
  </clipPath>
 </defs>
</svg>
