<?xml version="1.0" encoding="utf-8" standalone="no"?>
<!DOCTYPE svg PUBLIC "-//W3C//DTD SVG 1.1//EN"
  "http://www.w3.org/Graphics/SVG/1.1/DTD/svg11.dtd">
<!-- Created with matplotlib (https://matplotlib.org/) -->
<svg height="299.866339pt" version="1.1" viewBox="0 0 659.702188 299.866339" width="659.702188pt" xmlns="http://www.w3.org/2000/svg" xmlns:xlink="http://www.w3.org/1999/xlink">
 <metadata>
  <rdf:RDF xmlns:cc="http://creativecommons.org/ns#" xmlns:dc="http://purl.org/dc/elements/1.1/" xmlns:rdf="http://www.w3.org/1999/02/22-rdf-syntax-ns#">
   <cc:Work>
    <dc:type rdf:resource="http://purl.org/dc/dcmitype/StillImage"/>
    <dc:date>2021-10-08T14:26:12.230009</dc:date>
    <dc:format>image/svg+xml</dc:format>
    <dc:creator>
     <cc:Agent>
      <dc:title>Matplotlib v3.3.2, https://matplotlib.org/</dc:title>
     </cc:Agent>
    </dc:creator>
   </cc:Work>
  </rdf:RDF>
 </metadata>
 <defs>
  <style type="text/css">*{stroke-linecap:butt;stroke-linejoin:round;}</style>
 </defs>
 <g id="figure_1">
  <g id="patch_1">
   <path d="M 0 299.866339 
L 659.702188 299.866339 
L 659.702188 0 
L 0 0 
z
" style="fill:#ffffff;"/>
  </g>
  <g id="axes_1">
   <g id="patch_2">
    <path d="M 76.448125 231.340089 
L 411.248125 231.340089 
L 411.248125 13.900089 
L 76.448125 13.900089 
z
" style="fill:#ffffff;"/>
   </g>
   <g id="line2d_1">
    <path clip-path="url(#p0124d326ee)" d="M 91.666307 221.456453 
L 91.742417 220.937996 
L 91.970747 214.9346 
L 92.579626 189.782798 
L 93.188506 166.850918 
L 94.177935 141.918308 
L 94.482374 134.175544 
L 94.939034 116.334302 
L 95.547914 78.253358 
L 96.232903 37.765021 
L 96.613453 26.900034 
L 96.841783 25.170222 
L 96.917892 25.158793 
L 97.070112 25.773693 
L 97.222332 27.645594 
L 97.526772 35.992019 
L 98.059541 59.778253 
L 100.19062 165.643805 
L 100.495059 170.535721 
L 100.647279 170.986035 
L 100.799499 170.329666 
L 101.027829 167.507411 
L 102.550028 141.019019 
L 103.158907 126.111822 
L 103.843897 102.506129 
L 104.681106 74.40001 
L 104.985546 69.81038 
L 105.213876 69.182076 
L 105.366095 69.657375 
L 105.594425 71.965497 
L 105.974975 78.481644 
L 106.355525 88.925965 
L 108.182163 148.09188 
L 108.638823 155.680446 
L 108.867152 157.225255 
L 108.943262 157.241203 
L 109.095482 156.737961 
L 109.323812 154.995141 
L 109.628252 150.76393 
L 110.084911 140.975343 
L 110.922121 119.637301 
L 112.13988 85.207918 
L 112.596539 77.938997 
L 112.900979 76.383229 
L 112.977089 76.25415 
L 113.129309 76.665648 
L 113.281529 77.576861 
L 113.585969 81.719778 
L 113.966518 90.70999 
L 114.575398 112.319701 
L 115.640937 150.759282 
L 116.097596 160.03048 
L 116.402036 161.780655 
L 116.478146 161.554689 
L 116.706476 158.982138 
L 117.315355 148.629128 
L 118.152565 126.681971 
L 119.903093 78.049098 
L 120.207533 75.415945 
L 120.283643 75.173113 
L 120.359753 75.205047 
L 120.511973 75.757187 
L 120.740303 78.64065 
L 121.349182 91.868918 
L 122.186391 117.762078 
L 123.175821 146.942351 
L 123.55637 152.617396 
L 123.93692 154.252 
L 124.08914 153.96282 
L 124.24136 153.115445 
L 124.621909 148.521692 
L 125.078569 138.455512 
L 125.687448 121.586777 
L 126.752988 94.044899 
L 127.209647 86.787795 
L 127.437977 85.854563 
L 127.514087 85.829751 
L 127.894637 86.62579 
L 128.199076 88.263151 
L 128.427406 91.031934 
L 129.036286 103.503133 
L 129.569055 117.295379 
L 130.482374 142.617942 
L 130.939034 149.333346 
L 131.167364 150.780772 
L 131.395694 151.291413 
L 131.471804 151.252068 
L 131.624024 150.708904 
L 132.004573 146.299865 
L 132.613453 133.195295 
L 134.440091 84.678154 
L 134.744531 82.081935 
L 135.048971 81.165525 
L 135.2773 82.263854 
L 135.50563 84.984908 
L 135.88618 94.346231 
L 137.712818 147.939413 
L 138.093368 153.421013 
L 138.321698 154.563584 
L 138.473918 153.64434 
L 138.778358 149.791467 
L 139.311127 138.831537 
L 139.920007 121.744671 
L 141.061656 91.524439 
L 141.518315 82.744635 
L 141.746645 81.033312 
L 141.822755 81.013918 
L 141.974975 81.527621 
L 142.127195 82.602099 
L 142.507744 87.834797 
L 142.888294 97.442995 
L 144.410493 138.819392 
L 144.943262 149.015281 
L 145.171592 151.471961 
L 145.247702 151.632587 
L 145.399922 151.178877 
L 145.628252 148.920016 
L 146.313241 137.293389 
L 147.226561 115.017112 
L 148.13988 92.034875 
L 148.596539 84.910521 
L 148.900979 82.738387 
L 149.053199 82.545323 
L 149.129309 82.685302 
L 149.281529 83.773128 
L 149.509859 87.565374 
L 150.118738 102.433709 
L 150.803728 124.965048 
L 151.488717 146.579534 
L 151.869267 151.871765 
L 152.097596 153.321443 
L 152.249816 153.476718 
L 152.402036 153.065391 
L 152.554256 151.770572 
L 152.934806 145.323913 
L 153.619795 128.592569 
L 155.065884 88.228598 
L 155.446434 83.272333 
L 155.750873 81.614559 
L 155.903093 81.242605 
L 156.055313 81.588828 
L 156.283643 83.538838 
L 156.588083 90.251608 
L 157.577512 122.82698 
L 158.490831 150.692615 
L 158.795271 155.875869 
L 159.023601 156.817947 
L 159.175821 156.392394 
L 159.40415 154.47299 
L 159.70859 148.973233 
L 160.469689 127.218004 
L 161.535229 96.433102 
L 162.220218 81.976355 
L 162.524658 78.865272 
L 162.676878 78.60038 
L 162.829098 79.226705 
L 163.057427 81.397423 
L 163.437977 87.804455 
L 163.818527 97.360478 
L 164.579626 124.924096 
L 165.340725 149.266024 
L 165.721275 156.560855 
L 166.025715 158.415581 
L 166.101825 158.474476 
L 166.177935 158.347531 
L 166.406265 156.88745 
L 166.634594 153.950076 
L 166.939034 147.029566 
L 167.700133 124.783001 
L 168.917892 86.285742 
L 169.374552 77.945175 
L 169.602882 76.17574 
L 169.678992 76.051762 
L 169.831212 76.665941 
L 170.059541 79.028693 
L 170.363981 84.719882 
L 170.820641 97.139462 
L 171.73396 129.411953 
L 172.495059 152.083108 
L 172.951719 159.580247 
L 173.103939 160.061838 
L 173.256159 159.445595 
L 173.484489 156.848969 
L 173.865038 149.453486 
L 174.778358 124.554462 
L 175.463347 99.605021 
L 176.148336 77.734072 
L 176.528886 71.165052 
L 176.757216 69.810794 
L 176.909436 69.823016 
L 177.061656 70.781682 
L 177.366095 75.871797 
L 177.670535 84.667206 
L 178.507744 117.88253 
L 179.497174 156.452252 
L 179.877723 163.996652 
L 180.106053 165.337067 
L 180.182163 165.12773 
L 180.334383 163.70344 
L 180.714933 157.16988 
L 181.171592 146.046294 
L 181.932692 121.5431 
L 183.37878 71.683787 
L 183.75933 66.949003 
L 183.91155 66.355715 
L 183.98766 66.422191 
L 184.13988 67.668512 
L 184.36821 71.470376 
L 184.824869 84.365693 
L 185.433749 111.076932 
L 186.575398 161.363078 
L 186.955947 169.110918 
L 187.184277 170.25754 
L 187.260387 170.089198 
L 187.412607 168.627808 
L 187.717047 163.296948 
L 188.249816 146.78888 
L 189.848125 89.023771 
L 190.380895 71.424561 
L 190.761444 64.434171 
L 190.913664 63.505501 
L 190.989774 63.63971 
L 191.218104 65.387568 
L 191.522544 70.340582 
L 191.903093 81.68457 
L 193.273072 142.128844 
L 193.805842 160.737549 
L 194.110281 166.366719 
L 194.262501 167.208379 
L 194.338611 167.043202 
L 194.566941 164.198182 
L 195.25193 148.732727 
L 195.86081 128.760838 
L 197.383009 71.943078 
L 197.763558 65.723862 
L 197.991888 64.760551 
L 198.144108 65.488978 
L 198.372438 68.475079 
L 198.676878 75.261256 
L 199.057427 88.694292 
L 200.884066 166.542986 
L 201.112396 169.054379 
L 201.188506 169.077126 
L 201.340725 168.414389 
L 201.569055 165.360994 
L 201.949605 156.10784 
L 202.710704 131.2825 
L 203.547914 97.125249 
L 204.309013 68.539742 
L 204.765673 60.004219 
L 204.917892 58.702088 
L 204.994002 58.710357 
L 205.146222 59.959021 
L 205.374552 64.308126 
L 205.755102 76.315903 
L 206.440091 109.111454 
L 207.42952 158.903359 
L 207.73396 166.237141 
L 208.0384 168.698278 
L 208.19062 169.304514 
L 208.26673 169.20432 
L 208.495059 167.767855 
L 208.723389 164.977674 
L 209.027829 157.649873 
L 209.560599 140.564295 
L 210.473918 99.497443 
L 211.158907 70.329773 
L 211.615567 60.730214 
L 211.843897 58.419238 
L 211.920007 58.1603 
L 211.996117 58.194785 
L 212.148336 59.53089 
L 212.452776 65.282802 
L 212.757216 73.841582 
L 213.442205 103.535944 
L 214.812184 169.996775 
L 215.116624 175.286125 
L 215.268844 175.996642 
L 215.344954 175.884511 
L 215.497174 174.789961 
L 215.725503 170.753034 
L 216.182163 156.562304 
L 217.628252 102.507636 
L 218.541571 64.611345 
L 218.846011 58.843892 
L 219.150451 56.590988 
L 219.226561 56.585878 
L 219.30267 56.782047 
L 219.45489 58.138057 
L 219.75933 63.505185 
L 220.06377 72.3546 
L 220.520429 93.829888 
L 222.042628 173.889695 
L 222.347068 180.512134 
L 222.499288 181.534842 
L 222.575398 181.52867 
L 222.727618 180.073651 
L 223.032057 173.25355 
L 223.717047 149.19768 
L 225.163136 93.015931 
L 225.924235 58.404335 
L 226.228675 50.403909 
L 226.457004 48.724683 
L 226.533114 48.751769 
L 226.685334 49.726437 
L 226.913664 53.414942 
L 227.218104 62.733757 
L 227.674763 84.175198 
L 229.425292 178.230736 
L 229.729732 182.884909 
L 229.805842 183.0658 
L 229.958062 182.455954 
L 230.186391 179.871064 
L 230.490831 172.357044 
L 231.63248 133.104927 
L 232.24136 106.039952 
L 233.459119 46.953356 
L 233.763558 42.554667 
L 233.839668 42.385515 
L 233.991888 43.068495 
L 234.144108 45.226417 
L 234.524658 56.494359 
L 234.981317 76.427058 
L 235.818527 125.926067 
L 236.503516 164.527102 
L 236.960176 179.693308 
L 237.188506 182.484613 
L 237.264615 182.533072 
L 237.416835 181.322745 
L 237.645165 177.826486 
L 238.025715 165.916512 
L 239.243474 116.373307 
L 240.537343 55.135573 
L 240.917892 46.475676 
L 241.070112 45.267905 
L 241.146222 45.345288 
L 241.298442 46.77728 
L 241.526772 51.426112 
L 241.907322 66.155865 
L 242.592311 104.532329 
L 243.58174 164.016699 
L 244.0384 180.302358 
L 244.34284 184.37823 
L 244.41895 184.258065 
L 244.571169 182.816155 
L 244.799499 178.302372 
L 245.332269 159.652877 
L 246.626138 105.131255 
L 247.615567 54.050272 
L 247.996117 43.406919 
L 248.224446 41.611797 
L 248.300556 41.709141 
L 248.452776 42.856353 
L 248.604996 45.101027 
L 248.909436 55.258037 
L 249.442205 80.55954 
L 250.203305 126.719152 
L 250.888294 167.987003 
L 251.421064 186.712847 
L 251.649393 188.459032 
L 251.725503 188.072413 
L 251.953833 183.606943 
L 252.410493 169.318844 
L 253.780472 119.222897 
L 254.313241 88.402165 
L 254.998231 50.729806 
L 255.37878 40.246575 
L 255.60711 38.013242 
L 255.68322 38.085446 
L 255.83544 39.247016 
L 256.06377 43.700511 
L 256.44432 57.852462 
L 257.281529 103.301408 
L 258.575398 182.960076 
L 258.879837 190.849236 
L 259.032057 191.648433 
L 259.184277 190.613491 
L 259.412607 185.927217 
L 259.869267 169.755241 
L 260.630366 142.709669 
L 261.163136 123.590597 
L 261.619795 98.715405 
L 262.533114 47.76114 
L 262.913664 38.172387 
L 263.141994 36.805093 
L 263.294214 38.087255 
L 263.598654 44.473617 
L 263.903093 55.481959 
L 264.511973 89.182461 
L 266.110281 183.278191 
L 266.414721 188.37244 
L 266.566941 188.898988 
L 266.719161 187.469154 
L 267.023601 180.686428 
L 267.40415 166.318459 
L 269.002459 94.435939 
L 269.839668 50.297435 
L 270.220218 39.91743 
L 270.448548 37.561723 
L 270.524658 37.497186 
L 270.676878 38.754113 
L 270.981317 46.260428 
L 271.285757 59.723157 
L 272.275186 122.156228 
L 273.036286 167.702932 
L 273.492945 183.560353 
L 273.721275 186.37366 
L 273.797385 186.388199 
L 273.949605 185.116598 
L 274.177935 180.23702 
L 274.634594 163.931225 
L 275.700133 118.013837 
L 277.298442 40.826322 
L 277.526772 37.840078 
L 277.678992 37.439212 
L 277.831212 38.545958 
L 278.059541 43.699245 
L 278.363981 54.936269 
L 278.972861 88.899323 
L 280.41895 180.500655 
L 280.723389 188.163073 
L 280.951719 189.68757 
L 281.103939 188.203016 
L 281.332269 182.541924 
L 281.865038 160.304384 
L 282.702248 128.759467 
L 283.082797 112.627816 
L 284.528886 39.541537 
L 284.833326 36.597651 
L 284.909436 36.789096 
L 285.061656 38.286353 
L 285.366095 45.089789 
L 285.670535 56.819911 
L 286.279415 94.034553 
L 287.573284 175.27618 
L 287.953833 188.587361 
L 288.182163 192.241813 
L 288.258273 192.45018 
L 288.410493 191.5889 
L 288.562713 189.21548 
L 288.943262 177.198391 
L 290.541571 116.145682 
L 291.30267 66.342021 
L 291.83544 34.141769 
L 292.13988 25.608996 
L 292.36821 23.783726 
L 292.44432 23.989583 
L 292.596539 25.700561 
L 292.824869 31.494547 
L 293.205419 50.072174 
L 293.890408 95.05003 
L 294.955947 166.159716 
L 295.412607 183.959071 
L 295.640937 188.348222 
L 295.869267 189.335801 
L 296.021487 187.685228 
L 296.402036 177.20997 
L 297.239246 144.933354 
L 297.924235 115.537596 
L 298.609224 72.583313 
L 299.218104 38.519563 
L 299.522544 28.654931 
L 299.750873 26.314573 
L 299.826983 26.191576 
L 299.979203 27.274214 
L 300.207533 32.432422 
L 300.588083 48.888807 
L 301.196962 86.905888 
L 302.643051 180.757864 
L 303.023601 191.123406 
L 303.175821 192.090397 
L 303.25193 191.890608 
L 303.48026 188.193522 
L 303.7847 178.73455 
L 305.535229 103.433334 
L 306.600768 37.850601 
L 306.981317 28.393189 
L 307.133537 27.081292 
L 307.209647 27.15609 
L 307.361867 28.778859 
L 307.590197 34.390042 
L 307.970747 50.934261 
L 308.655736 94.266569 
L 309.797385 170.448755 
L 310.177935 185.840826 
L 310.406265 190.374172 
L 310.558484 190.901824 
L 310.710704 189.83075 
L 311.015144 184.177356 
L 311.395694 170.358628 
L 312.917892 100.590507 
L 314.135651 33.228358 
L 314.363981 29.47187 
L 314.440091 29.145897 
L 314.516201 29.20497 
L 314.668421 30.767001 
L 314.896751 35.275877 
L 315.201191 46.954192 
L 315.81007 81.673433 
L 317.560599 184.365327 
L 317.788928 187.199347 
L 317.865038 187.437336 
L 317.941148 187.318865 
L 318.093368 185.447166 
L 318.473918 173.865508 
L 319.082797 148.596757 
L 320.148336 95.486578 
L 320.985546 49.71654 
L 321.442205 37.363138 
L 321.594425 36.340092 
L 321.670535 36.514881 
L 321.822755 37.818815 
L 322.051085 42.114009 
L 322.431635 55.121998 
L 323.116624 92.998104 
L 324.714933 186.022558 
L 324.943262 190.711852 
L 325.095482 191.228392 
L 325.247702 190.167365 
L 325.476032 185.397498 
L 325.932692 168.847268 
L 327.30267 106.012794 
L 328.2921 47.051407 
L 328.672649 34.24826 
L 328.977089 30.167974 
L 329.053199 29.960856 
L 329.205419 31.112244 
L 329.433749 36.421181 
L 329.814298 52.973653 
L 330.347068 85.05886 
L 331.869267 180.805141 
L 332.173706 185.721179 
L 332.249816 185.992648 
L 332.325926 185.887106 
L 332.478146 184.215584 
L 332.782586 177.466611 
L 333.239246 159.654728 
L 334.304785 110.102315 
L 335.522544 42.638437 
L 335.826983 35.520451 
L 335.979203 34.631197 
L 336.055313 34.819716 
L 336.283643 37.514353 
L 336.511973 42.899367 
L 336.892522 58.354339 
L 337.653622 102.527916 
L 338.871381 175.000089 
L 339.175821 183.219905 
L 339.40415 185.282791 
L 339.48026 185.306829 
L 339.63248 183.668857 
L 339.93692 175.290559 
L 340.850239 138.784382 
L 341.535229 105.717716 
L 342.600768 48.300479 
L 342.905207 40.411208 
L 343.133537 38.796255 
L 343.209647 38.820024 
L 343.285757 39.065199 
L 343.437977 40.731684 
L 343.666307 46.334621 
L 344.122966 65.942568 
L 344.807956 105.359707 
L 345.721275 160.416408 
L 346.254045 179.576534 
L 346.482374 181.656076 
L 346.558484 181.576541 
L 346.710704 180.212993 
L 346.939034 175.617341 
L 347.319584 162.707664 
L 348.385123 116.268467 
L 349.070112 77.19847 
L 349.678992 45.693493 
L 350.059541 36.891235 
L 350.211761 36.03384 
L 350.287871 36.244268 
L 350.440091 38.160552 
L 350.744531 45.830205 
L 351.125081 61.608279 
L 351.81007 101.053368 
L 353.103939 176.943773 
L 353.484489 185.975472 
L 353.636709 186.595372 
L 353.712818 186.38124 
L 353.865038 184.919943 
L 354.093368 179.23503 
L 354.626138 157.957502 
L 355.767787 100.111852 
L 356.833326 44.046589 
L 357.213876 36.091154 
L 357.442205 35.214709 
L 357.594425 36.171612 
L 357.822755 40.774218 
L 358.203305 54.883266 
L 358.812184 88.775904 
L 360.106053 169.34162 
L 360.562713 183.992927 
L 360.791043 187.009842 
L 360.867152 187.300799 
L 360.943262 187.054421 
L 361.171592 183.86667 
L 361.476032 175.415432 
L 362.161021 145.452566 
L 362.922121 106.360488 
L 364.21599 34.752138 
L 364.520429 29.1143 
L 364.596539 28.663315 
L 364.672649 28.696757 
L 364.824869 30.294247 
L 365.053199 36.048557 
L 365.433749 51.522516 
L 366.118738 91.016713 
L 367.717047 182.257688 
L 368.021487 186.661016 
L 368.173706 187.23567 
L 368.325926 185.887328 
L 368.554256 179.605953 
L 369.163136 152.890206 
L 370.228675 96.823485 
L 370.989774 53.43545 
L 371.370324 40.841361 
L 371.598654 37.800993 
L 371.826983 37.519679 
L 371.979203 38.201998 
L 372.207533 40.919515 
L 372.588083 52.636808 
L 373.044742 74.341697 
L 374.947491 184.081923 
L 375.175821 188.074376 
L 375.25193 188.462662 
L 375.32804 188.398047 
L 375.48026 187.285244 
L 375.70859 182.868813 
L 376.08914 170.710577 
L 377.459119 105.677374 
L 378.752988 33.835117 
L 379.057427 27.253038 
L 379.209647 26.311937 
L 379.361867 27.506858 
L 379.590197 33.137894 
L 379.970747 49.790638 
L 380.655736 92.528704 
L 381.949605 177.525308 
L 382.330155 189.485832 
L 382.482374 190.891352 
L 382.558484 190.822889 
L 382.710704 189.513786 
L 382.939034 184.392761 
L 383.395694 167.856451 
L 384.689563 104.381461 
L 385.831212 36.622122 
L 386.211761 26.64423 
L 386.363981 25.622645 
L 386.516201 26.771841 
L 386.744531 31.970314 
L 387.125081 46.673046 
L 387.65785 77.812006 
L 389.256159 176.07011 
L 389.636709 185.328765 
L 389.788928 185.909117 
L 389.865038 185.708834 
L 390.017258 184.010686 
L 390.321698 177.03539 
L 390.702248 162.569598 
L 391.691677 112.321599 
L 393.061656 42.570454 
L 393.366095 37.315607 
L 393.518315 36.663309 
L 393.670535 37.96718 
L 393.974975 43.118928 
L 394.279415 52.009226 
L 394.736074 73.305035 
L 395.497174 121.368669 
L 396.029943 155.375559 
L 396.029943 155.375559 
" style="fill:none;stroke:#1f77b4;stroke-linecap:square;stroke-width:1.5;"/>
   </g>
   <g id="matplotlib.axis_1">
    <g id="xtick_1">
     <g id="line2d_2">
      <defs>
       <path d="M 0 0 
L 0 3.5 
" id="m9efde7fc10" style="stroke:#000000;stroke-width:0.8;"/>
      </defs>
      <g>
       <use style="stroke:#000000;stroke-width:0.8;" x="91.666307" xlink:href="#m9efde7fc10" y="231.340089"/>
      </g>
     </g>
     <g id="text_1">
      <!-- 0 -->
      <g transform="translate(83.395057 258.096027)scale(0.26 -0.26)">
       <defs>
        <path d="M 31.78125 66.40625 
Q 24.171875 66.40625 20.328125 58.90625 
Q 16.5 51.421875 16.5 36.375 
Q 16.5 21.390625 20.328125 13.890625 
Q 24.171875 6.390625 31.78125 6.390625 
Q 39.453125 6.390625 43.28125 13.890625 
Q 47.125 21.390625 47.125 36.375 
Q 47.125 51.421875 43.28125 58.90625 
Q 39.453125 66.40625 31.78125 66.40625 
z
M 31.78125 74.21875 
Q 44.046875 74.21875 50.515625 64.515625 
Q 56.984375 54.828125 56.984375 36.375 
Q 56.984375 17.96875 50.515625 8.265625 
Q 44.046875 -1.421875 31.78125 -1.421875 
Q 19.53125 -1.421875 13.0625 8.265625 
Q 6.59375 17.96875 6.59375 36.375 
Q 6.59375 54.828125 13.0625 64.515625 
Q 19.53125 74.21875 31.78125 74.21875 
z
" id="DejaVuSans-48"/>
       </defs>
       <use xlink:href="#DejaVuSans-48"/>
      </g>
     </g>
    </g>
    <g id="xtick_2">
     <g id="line2d_3">
      <g>
       <use style="stroke:#000000;stroke-width:0.8;" x="243.88618" xlink:href="#m9efde7fc10" y="231.340089"/>
      </g>
     </g>
     <g id="text_2">
      <!-- 2 -->
      <g transform="translate(235.61493 258.096027)scale(0.26 -0.26)">
       <defs>
        <path d="M 19.1875 8.296875 
L 53.609375 8.296875 
L 53.609375 0 
L 7.328125 0 
L 7.328125 8.296875 
Q 12.9375 14.109375 22.625 23.890625 
Q 32.328125 33.6875 34.8125 36.53125 
Q 39.546875 41.84375 41.421875 45.53125 
Q 43.3125 49.21875 43.3125 52.78125 
Q 43.3125 58.59375 39.234375 62.25 
Q 35.15625 65.921875 28.609375 65.921875 
Q 23.96875 65.921875 18.8125 64.3125 
Q 13.671875 62.703125 7.8125 59.421875 
L 7.8125 69.390625 
Q 13.765625 71.78125 18.9375 73 
Q 24.125 74.21875 28.421875 74.21875 
Q 39.75 74.21875 46.484375 68.546875 
Q 53.21875 62.890625 53.21875 53.421875 
Q 53.21875 48.921875 51.53125 44.890625 
Q 49.859375 40.875 45.40625 35.40625 
Q 44.1875 33.984375 37.640625 27.21875 
Q 31.109375 20.453125 19.1875 8.296875 
z
" id="DejaVuSans-50"/>
       </defs>
       <use xlink:href="#DejaVuSans-50"/>
      </g>
     </g>
    </g>
    <g id="xtick_3">
     <g id="line2d_4">
      <g>
       <use style="stroke:#000000;stroke-width:0.8;" x="396.106053" xlink:href="#m9efde7fc10" y="231.340089"/>
      </g>
     </g>
     <g id="text_3">
      <!-- 4 -->
      <g transform="translate(387.834803 258.096027)scale(0.26 -0.26)">
       <defs>
        <path d="M 37.796875 64.3125 
L 12.890625 25.390625 
L 37.796875 25.390625 
z
M 35.203125 72.90625 
L 47.609375 72.90625 
L 47.609375 25.390625 
L 58.015625 25.390625 
L 58.015625 17.1875 
L 47.609375 17.1875 
L 47.609375 0 
L 37.796875 0 
L 37.796875 17.1875 
L 4.890625 17.1875 
L 4.890625 26.703125 
z
" id="DejaVuSans-52"/>
       </defs>
       <use xlink:href="#DejaVuSans-52"/>
      </g>
     </g>
    </g>
    <g id="text_4">
     <!-- time (s) -->
     <g transform="translate(193.430469 287.259152)scale(0.26 -0.26)">
      <defs>
       <path d="M 18.3125 70.21875 
L 18.3125 54.6875 
L 36.8125 54.6875 
L 36.8125 47.703125 
L 18.3125 47.703125 
L 18.3125 18.015625 
Q 18.3125 11.328125 20.140625 9.421875 
Q 21.96875 7.515625 27.59375 7.515625 
L 36.8125 7.515625 
L 36.8125 0 
L 27.59375 0 
Q 17.1875 0 13.234375 3.875 
Q 9.28125 7.765625 9.28125 18.015625 
L 9.28125 47.703125 
L 2.6875 47.703125 
L 2.6875 54.6875 
L 9.28125 54.6875 
L 9.28125 70.21875 
z
" id="DejaVuSans-116"/>
       <path d="M 9.421875 54.6875 
L 18.40625 54.6875 
L 18.40625 0 
L 9.421875 0 
z
M 9.421875 75.984375 
L 18.40625 75.984375 
L 18.40625 64.59375 
L 9.421875 64.59375 
z
" id="DejaVuSans-105"/>
       <path d="M 52 44.1875 
Q 55.375 50.25 60.0625 53.125 
Q 64.75 56 71.09375 56 
Q 79.640625 56 84.28125 50.015625 
Q 88.921875 44.046875 88.921875 33.015625 
L 88.921875 0 
L 79.890625 0 
L 79.890625 32.71875 
Q 79.890625 40.578125 77.09375 44.375 
Q 74.3125 48.1875 68.609375 48.1875 
Q 61.625 48.1875 57.5625 43.546875 
Q 53.515625 38.921875 53.515625 30.90625 
L 53.515625 0 
L 44.484375 0 
L 44.484375 32.71875 
Q 44.484375 40.625 41.703125 44.40625 
Q 38.921875 48.1875 33.109375 48.1875 
Q 26.21875 48.1875 22.15625 43.53125 
Q 18.109375 38.875 18.109375 30.90625 
L 18.109375 0 
L 9.078125 0 
L 9.078125 54.6875 
L 18.109375 54.6875 
L 18.109375 46.1875 
Q 21.1875 51.21875 25.484375 53.609375 
Q 29.78125 56 35.6875 56 
Q 41.65625 56 45.828125 52.96875 
Q 50 49.953125 52 44.1875 
z
" id="DejaVuSans-109"/>
       <path d="M 56.203125 29.59375 
L 56.203125 25.203125 
L 14.890625 25.203125 
Q 15.484375 15.921875 20.484375 11.0625 
Q 25.484375 6.203125 34.421875 6.203125 
Q 39.59375 6.203125 44.453125 7.46875 
Q 49.3125 8.734375 54.109375 11.28125 
L 54.109375 2.78125 
Q 49.265625 0.734375 44.1875 -0.34375 
Q 39.109375 -1.421875 33.890625 -1.421875 
Q 20.796875 -1.421875 13.15625 6.1875 
Q 5.515625 13.8125 5.515625 26.8125 
Q 5.515625 40.234375 12.765625 48.109375 
Q 20.015625 56 32.328125 56 
Q 43.359375 56 49.78125 48.890625 
Q 56.203125 41.796875 56.203125 29.59375 
z
M 47.21875 32.234375 
Q 47.125 39.59375 43.09375 43.984375 
Q 39.0625 48.390625 32.421875 48.390625 
Q 24.90625 48.390625 20.390625 44.140625 
Q 15.875 39.890625 15.1875 32.171875 
z
" id="DejaVuSans-101"/>
       <path id="DejaVuSans-32"/>
       <path d="M 31 75.875 
Q 24.46875 64.65625 21.28125 53.65625 
Q 18.109375 42.671875 18.109375 31.390625 
Q 18.109375 20.125 21.3125 9.0625 
Q 24.515625 -2 31 -13.1875 
L 23.1875 -13.1875 
Q 15.875 -1.703125 12.234375 9.375 
Q 8.59375 20.453125 8.59375 31.390625 
Q 8.59375 42.28125 12.203125 53.3125 
Q 15.828125 64.359375 23.1875 75.875 
z
" id="DejaVuSans-40"/>
       <path d="M 44.28125 53.078125 
L 44.28125 44.578125 
Q 40.484375 46.53125 36.375 47.5 
Q 32.28125 48.484375 27.875 48.484375 
Q 21.1875 48.484375 17.84375 46.4375 
Q 14.5 44.390625 14.5 40.28125 
Q 14.5 37.15625 16.890625 35.375 
Q 19.28125 33.59375 26.515625 31.984375 
L 29.59375 31.296875 
Q 39.15625 29.25 43.1875 25.515625 
Q 47.21875 21.78125 47.21875 15.09375 
Q 47.21875 7.46875 41.1875 3.015625 
Q 35.15625 -1.421875 24.609375 -1.421875 
Q 20.21875 -1.421875 15.453125 -0.5625 
Q 10.6875 0.296875 5.421875 2 
L 5.421875 11.28125 
Q 10.40625 8.6875 15.234375 7.390625 
Q 20.0625 6.109375 24.8125 6.109375 
Q 31.15625 6.109375 34.5625 8.28125 
Q 37.984375 10.453125 37.984375 14.40625 
Q 37.984375 18.0625 35.515625 20.015625 
Q 33.0625 21.96875 24.703125 23.78125 
L 21.578125 24.515625 
Q 13.234375 26.265625 9.515625 29.90625 
Q 5.8125 33.546875 5.8125 39.890625 
Q 5.8125 47.609375 11.28125 51.796875 
Q 16.75 56 26.8125 56 
Q 31.78125 56 36.171875 55.265625 
Q 40.578125 54.546875 44.28125 53.078125 
z
" id="DejaVuSans-115"/>
       <path d="M 8.015625 75.875 
L 15.828125 75.875 
Q 23.140625 64.359375 26.78125 53.3125 
Q 30.421875 42.28125 30.421875 31.390625 
Q 30.421875 20.453125 26.78125 9.375 
Q 23.140625 -1.703125 15.828125 -13.1875 
L 8.015625 -13.1875 
Q 14.5 -2 17.703125 9.0625 
Q 20.90625 20.125 20.90625 31.390625 
Q 20.90625 42.671875 17.703125 53.65625 
Q 14.5 64.65625 8.015625 75.875 
z
" id="DejaVuSans-41"/>
      </defs>
      <use xlink:href="#DejaVuSans-116"/>
      <use x="39.208984" xlink:href="#DejaVuSans-105"/>
      <use x="66.992188" xlink:href="#DejaVuSans-109"/>
      <use x="164.404297" xlink:href="#DejaVuSans-101"/>
      <use x="225.927734" xlink:href="#DejaVuSans-32"/>
      <use x="257.714844" xlink:href="#DejaVuSans-40"/>
      <use x="296.728516" xlink:href="#DejaVuSans-115"/>
      <use x="348.828125" xlink:href="#DejaVuSans-41"/>
     </g>
    </g>
   </g>
   <g id="matplotlib.axis_2">
    <g id="ytick_1">
     <g id="line2d_5">
      <defs>
       <path d="M 0 0 
L -3.5 0 
" id="m7467cb7ab4" style="stroke:#000000;stroke-width:0.8;"/>
      </defs>
      <g>
       <use style="stroke:#000000;stroke-width:0.8;" x="76.448125" xlink:href="#m7467cb7ab4" y="221.456453"/>
      </g>
     </g>
     <g id="text_5">
      <!-- 0 -->
      <g transform="translate(52.905625 231.334422)scale(0.26 -0.26)">
       <use xlink:href="#DejaVuSans-48"/>
      </g>
     </g>
    </g>
    <g id="ytick_2">
     <g id="line2d_6">
      <g>
       <use style="stroke:#000000;stroke-width:0.8;" x="76.448125" xlink:href="#m7467cb7ab4" y="153.330292"/>
      </g>
     </g>
     <g id="text_6">
      <!-- 5 -->
      <g transform="translate(52.905625 163.20826)scale(0.26 -0.26)">
       <defs>
        <path d="M 10.796875 72.90625 
L 49.515625 72.90625 
L 49.515625 64.59375 
L 19.828125 64.59375 
L 19.828125 46.734375 
Q 21.96875 47.46875 24.109375 47.828125 
Q 26.265625 48.1875 28.421875 48.1875 
Q 40.625 48.1875 47.75 41.5 
Q 54.890625 34.8125 54.890625 23.390625 
Q 54.890625 11.625 47.5625 5.09375 
Q 40.234375 -1.421875 26.90625 -1.421875 
Q 22.3125 -1.421875 17.546875 -0.640625 
Q 12.796875 0.140625 7.71875 1.703125 
L 7.71875 11.625 
Q 12.109375 9.234375 16.796875 8.0625 
Q 21.484375 6.890625 26.703125 6.890625 
Q 35.15625 6.890625 40.078125 11.328125 
Q 45.015625 15.765625 45.015625 23.390625 
Q 45.015625 31 40.078125 35.4375 
Q 35.15625 39.890625 26.703125 39.890625 
Q 22.75 39.890625 18.8125 39.015625 
Q 14.890625 38.140625 10.796875 36.28125 
z
" id="DejaVuSans-53"/>
       </defs>
       <use xlink:href="#DejaVuSans-53"/>
      </g>
     </g>
    </g>
    <g id="ytick_3">
     <g id="line2d_7">
      <g>
       <use style="stroke:#000000;stroke-width:0.8;" x="76.448125" xlink:href="#m7467cb7ab4" y="85.20413"/>
      </g>
     </g>
     <g id="text_7">
      <!-- 10 -->
      <g transform="translate(36.363125 95.082099)scale(0.26 -0.26)">
       <defs>
        <path d="M 12.40625 8.296875 
L 28.515625 8.296875 
L 28.515625 63.921875 
L 10.984375 60.40625 
L 10.984375 69.390625 
L 28.421875 72.90625 
L 38.28125 72.90625 
L 38.28125 8.296875 
L 54.390625 8.296875 
L 54.390625 0 
L 12.40625 0 
z
" id="DejaVuSans-49"/>
       </defs>
       <use xlink:href="#DejaVuSans-49"/>
       <use x="63.623047" xlink:href="#DejaVuSans-48"/>
      </g>
     </g>
    </g>
    <g id="ytick_4">
     <g id="line2d_8">
      <g>
       <use style="stroke:#000000;stroke-width:0.8;" x="76.448125" xlink:href="#m7467cb7ab4" y="17.077969"/>
      </g>
     </g>
     <g id="text_8">
      <!-- 15 -->
      <g transform="translate(36.363125 26.955937)scale(0.26 -0.26)">
       <use xlink:href="#DejaVuSans-49"/>
       <use x="63.623047" xlink:href="#DejaVuSans-53"/>
      </g>
     </g>
    </g>
    <g id="text_9">
     <!-- amplitude (a.u.) -->
     <g transform="translate(26.955937 227.056808)rotate(-90)scale(0.26 -0.26)">
      <defs>
       <path d="M 34.28125 27.484375 
Q 23.390625 27.484375 19.1875 25 
Q 14.984375 22.515625 14.984375 16.5 
Q 14.984375 11.71875 18.140625 8.90625 
Q 21.296875 6.109375 26.703125 6.109375 
Q 34.1875 6.109375 38.703125 11.40625 
Q 43.21875 16.703125 43.21875 25.484375 
L 43.21875 27.484375 
z
M 52.203125 31.203125 
L 52.203125 0 
L 43.21875 0 
L 43.21875 8.296875 
Q 40.140625 3.328125 35.546875 0.953125 
Q 30.953125 -1.421875 24.3125 -1.421875 
Q 15.921875 -1.421875 10.953125 3.296875 
Q 6 8.015625 6 15.921875 
Q 6 25.140625 12.171875 29.828125 
Q 18.359375 34.515625 30.609375 34.515625 
L 43.21875 34.515625 
L 43.21875 35.40625 
Q 43.21875 41.609375 39.140625 45 
Q 35.0625 48.390625 27.6875 48.390625 
Q 23 48.390625 18.546875 47.265625 
Q 14.109375 46.140625 10.015625 43.890625 
L 10.015625 52.203125 
Q 14.9375 54.109375 19.578125 55.046875 
Q 24.21875 56 28.609375 56 
Q 40.484375 56 46.34375 49.84375 
Q 52.203125 43.703125 52.203125 31.203125 
z
" id="DejaVuSans-97"/>
       <path d="M 18.109375 8.203125 
L 18.109375 -20.796875 
L 9.078125 -20.796875 
L 9.078125 54.6875 
L 18.109375 54.6875 
L 18.109375 46.390625 
Q 20.953125 51.265625 25.265625 53.625 
Q 29.59375 56 35.59375 56 
Q 45.5625 56 51.78125 48.09375 
Q 58.015625 40.1875 58.015625 27.296875 
Q 58.015625 14.40625 51.78125 6.484375 
Q 45.5625 -1.421875 35.59375 -1.421875 
Q 29.59375 -1.421875 25.265625 0.953125 
Q 20.953125 3.328125 18.109375 8.203125 
z
M 48.6875 27.296875 
Q 48.6875 37.203125 44.609375 42.84375 
Q 40.53125 48.484375 33.40625 48.484375 
Q 26.265625 48.484375 22.1875 42.84375 
Q 18.109375 37.203125 18.109375 27.296875 
Q 18.109375 17.390625 22.1875 11.75 
Q 26.265625 6.109375 33.40625 6.109375 
Q 40.53125 6.109375 44.609375 11.75 
Q 48.6875 17.390625 48.6875 27.296875 
z
" id="DejaVuSans-112"/>
       <path d="M 9.421875 75.984375 
L 18.40625 75.984375 
L 18.40625 0 
L 9.421875 0 
z
" id="DejaVuSans-108"/>
       <path d="M 8.5 21.578125 
L 8.5 54.6875 
L 17.484375 54.6875 
L 17.484375 21.921875 
Q 17.484375 14.15625 20.5 10.265625 
Q 23.53125 6.390625 29.59375 6.390625 
Q 36.859375 6.390625 41.078125 11.03125 
Q 45.3125 15.671875 45.3125 23.6875 
L 45.3125 54.6875 
L 54.296875 54.6875 
L 54.296875 0 
L 45.3125 0 
L 45.3125 8.40625 
Q 42.046875 3.421875 37.71875 1 
Q 33.40625 -1.421875 27.6875 -1.421875 
Q 18.265625 -1.421875 13.375 4.4375 
Q 8.5 10.296875 8.5 21.578125 
z
M 31.109375 56 
z
" id="DejaVuSans-117"/>
       <path d="M 45.40625 46.390625 
L 45.40625 75.984375 
L 54.390625 75.984375 
L 54.390625 0 
L 45.40625 0 
L 45.40625 8.203125 
Q 42.578125 3.328125 38.25 0.953125 
Q 33.9375 -1.421875 27.875 -1.421875 
Q 17.96875 -1.421875 11.734375 6.484375 
Q 5.515625 14.40625 5.515625 27.296875 
Q 5.515625 40.1875 11.734375 48.09375 
Q 17.96875 56 27.875 56 
Q 33.9375 56 38.25 53.625 
Q 42.578125 51.265625 45.40625 46.390625 
z
M 14.796875 27.296875 
Q 14.796875 17.390625 18.875 11.75 
Q 22.953125 6.109375 30.078125 6.109375 
Q 37.203125 6.109375 41.296875 11.75 
Q 45.40625 17.390625 45.40625 27.296875 
Q 45.40625 37.203125 41.296875 42.84375 
Q 37.203125 48.484375 30.078125 48.484375 
Q 22.953125 48.484375 18.875 42.84375 
Q 14.796875 37.203125 14.796875 27.296875 
z
" id="DejaVuSans-100"/>
       <path d="M 10.6875 12.40625 
L 21 12.40625 
L 21 0 
L 10.6875 0 
z
" id="DejaVuSans-46"/>
      </defs>
      <use xlink:href="#DejaVuSans-97"/>
      <use x="61.279297" xlink:href="#DejaVuSans-109"/>
      <use x="158.691406" xlink:href="#DejaVuSans-112"/>
      <use x="222.167969" xlink:href="#DejaVuSans-108"/>
      <use x="249.951172" xlink:href="#DejaVuSans-105"/>
      <use x="277.734375" xlink:href="#DejaVuSans-116"/>
      <use x="316.943359" xlink:href="#DejaVuSans-117"/>
      <use x="380.322266" xlink:href="#DejaVuSans-100"/>
      <use x="443.798828" xlink:href="#DejaVuSans-101"/>
      <use x="505.322266" xlink:href="#DejaVuSans-32"/>
      <use x="537.109375" xlink:href="#DejaVuSans-40"/>
      <use x="576.123047" xlink:href="#DejaVuSans-97"/>
      <use x="637.402344" xlink:href="#DejaVuSans-46"/>
      <use x="669.189453" xlink:href="#DejaVuSans-117"/>
      <use x="732.568359" xlink:href="#DejaVuSans-46"/>
      <use x="764.355469" xlink:href="#DejaVuSans-41"/>
     </g>
    </g>
   </g>
   <g id="line2d_9">
    <path clip-path="url(#p0124d326ee)" d="M 91.666307 221.456453 
L 91.742417 221.456453 
L 91.894637 213.916001 
L 92.655736 164.353434 
L 93.036286 152.95639 
L 93.492945 145.584056 
L 93.873495 139.484752 
L 94.254045 128.645468 
L 95.015144 100.966098 
L 96.080683 56.082344 
L 96.156793 55.423412 
L 96.232903 55.451866 
L 96.385123 57.702166 
L 96.917892 72.523312 
L 97.070112 68.00584 
L 97.602882 42.862003 
L 97.678992 42.027961 
L 97.755102 42.150431 
L 97.907322 44.982883 
L 98.211761 58.303686 
L 98.820641 100.071699 
L 99.50563 141.853605 
L 100.0384 164.410859 
L 100.34284 169.896361 
L 100.41895 170.228037 
L 100.495059 170.134307 
L 100.647279 168.661908 
L 100.875609 163.522217 
L 101.636709 142.017817 
L 101.865038 143.432138 
L 101.941148 143.343779 
L 102.093368 141.287802 
L 102.778358 122.013552 
L 104.452776 81.51137 
L 104.528886 81.580712 
L 104.681106 83.026491 
L 104.985546 90.125702 
L 105.213876 94.153137 
L 105.289985 94.215242 
L 105.442205 92.47259 
L 105.822755 86.47426 
L 105.898865 86.230371 
L 105.974975 86.424251 
L 106.127195 88.098941 
L 106.431635 95.587934 
L 108.258273 154.375178 
L 108.562713 157.78045 
L 108.714933 158.064213 
L 108.867152 157.433366 
L 109.095482 155.003813 
L 109.552142 146.383951 
L 110.313241 131.977051 
L 110.617681 129.404683 
L 110.769901 129.112441 
L 111.074341 129.164017 
L 111.226561 128.050222 
L 111.45489 123.658099 
L 112.36821 101.183466 
L 112.824869 96.190965 
L 113.205419 94.037524 
L 113.357639 93.834175 
L 113.509859 94.173559 
L 113.738188 95.962035 
L 114.042628 100.944699 
L 114.423178 111.30725 
L 115.184277 140.318698 
L 115.717047 157.152355 
L 116.021487 161.56055 
L 116.173706 162.014066 
L 116.325926 161.281835 
L 116.554256 158.203759 
L 116.934806 148.879935 
L 117.924235 122.819376 
L 118.609224 109.975096 
L 118.761444 109.003174 
L 118.837554 109.008001 
L 118.989774 109.99466 
L 119.370324 113.377494 
L 119.522544 111.63314 
L 119.826983 102.337306 
L 120.207533 92.073198 
L 120.435863 90.001976 
L 120.511973 89.937768 
L 120.664193 90.543644 
L 120.892522 92.944977 
L 121.349182 101.259912 
L 121.881952 114.949744 
L 123.175821 152.403504 
L 123.48026 156.009413 
L 123.63248 156.45326 
L 123.7847 155.915102 
L 124.01303 153.647913 
L 124.469689 146.200753 
L 125.230789 134.224321 
L 125.611339 131.515556 
L 125.915778 129.671024 
L 126.144108 126.498404 
L 126.600768 115.04141 
L 127.057427 106.30134 
L 127.437977 103.126192 
L 127.666307 102.549892 
L 127.818527 102.609298 
L 128.122966 103.339982 
L 128.427406 104.832519 
L 128.731846 107.926512 
L 129.112396 114.64324 
L 129.873495 133.129539 
L 130.634594 151.03485 
L 130.939034 153.967023 
L 131.091254 154.1628 
L 131.243474 153.605661 
L 131.547914 150.574017 
L 133.678992 121.326048 
L 134.516201 102.991475 
L 134.896751 99.383251 
L 135.201191 98.317344 
L 135.35341 98.335541 
L 135.50563 98.802017 
L 135.73396 100.663338 
L 136.0384 106.037337 
L 136.495059 119.454393 
L 137.484489 149.404052 
L 137.865038 155.045176 
L 138.093368 155.901193 
L 138.245588 155.492945 
L 138.473918 153.635767 
L 138.778358 148.811249 
L 139.767787 130.927627 
L 140.528886 123.384885 
L 141.594425 101.544736 
L 141.974975 98.543646 
L 142.127195 98.269235 
L 142.203305 98.334031 
L 142.355525 98.920911 
L 142.583854 100.904822 
L 142.888294 105.745746 
L 143.344954 117.914954 
L 144.258273 142.656132 
L 144.714933 150.352128 
L 145.019372 152.908127 
L 145.247702 153.379285 
L 145.399922 152.895746 
L 145.628252 150.758998 
L 146.008802 144.185391 
L 146.617681 133.610299 
L 146.998231 130.405007 
L 147.30267 128.273239 
L 147.60711 123.533028 
L 148.596539 103.899805 
L 148.977089 100.962265 
L 149.281529 99.966595 
L 149.357639 99.963757 
L 149.509859 100.416247 
L 149.738188 102.678948 
L 150.118738 110.198389 
L 150.727618 128.164769 
L 151.640937 155.220099 
L 151.869267 157.669429 
L 151.945377 157.835051 
L 152.021487 157.701988 
L 152.173706 156.633931 
L 152.478146 152.013143 
L 153.695905 129.89403 
L 154.304785 126.039887 
L 154.609224 119.522125 
L 155.294214 102.957834 
L 155.598654 100.078831 
L 155.903093 99.095965 
L 156.131423 98.853566 
L 156.283643 98.976674 
L 156.435863 99.512022 
L 156.664193 101.718557 
L 156.968632 108.121717 
L 157.577512 128.627517 
L 158.338611 152.036011 
L 158.719161 157.882165 
L 158.871381 158.645031 
L 158.947491 158.638206 
L 159.099711 157.815724 
L 159.32804 154.691551 
L 159.7847 144.170954 
L 160.469689 128.454665 
L 160.774129 125.381262 
L 161.230789 123.495948 
L 161.459119 119.579671 
L 162.372438 98.83718 
L 162.676878 96.710491 
L 162.905207 96.215762 
L 163.057427 96.428349 
L 163.285757 97.67813 
L 163.590197 101.387798 
L 163.970747 109.267312 
L 164.503516 126.570171 
L 165.340725 154.358343 
L 165.645165 159.00408 
L 165.797385 159.747193 
L 165.873495 159.711755 
L 166.025715 158.817741 
L 166.330155 154.335706 
L 167.015144 138.287679 
L 167.624024 126.04007 
L 167.928463 123.415438 
L 168.080683 123.180114 
L 168.232903 123.112422 
L 168.385123 122.261525 
L 168.613453 117.937558 
L 169.450662 95.095151 
L 169.755102 93.003323 
L 169.907322 92.935153 
L 170.059541 93.417091 
L 170.287871 95.089541 
L 170.592311 99.351184 
L 170.972861 108.24022 
L 171.73396 133.403419 
L 172.41895 154.850836 
L 172.723389 159.251603 
L 172.875609 159.930008 
L 172.951719 159.910332 
L 173.103939 159.173166 
L 173.332269 156.274606 
L 173.712818 147.657996 
L 174.626138 125.415749 
L 174.930577 121.704794 
L 175.158907 121.055603 
L 175.387237 121.299873 
L 175.539457 120.260228 
L 175.767787 114.723242 
L 176.528886 89.305141 
L 176.833326 86.527767 
L 176.985546 86.364025 
L 177.137766 86.672632 
L 177.366095 88.086937 
L 177.670535 92.125761 
L 177.974975 99.658082 
L 178.507744 120.014475 
L 179.497174 159.450344 
L 179.801613 164.753621 
L 179.953833 165.250943 
L 180.106053 164.384131 
L 180.334383 160.575192 
L 180.714933 149.023321 
L 181.399922 128.513513 
L 181.856582 116.49952 
L 182.617681 96.087631 
L 182.846011 94.463067 
L 182.922121 94.707305 
L 183.150451 97.53718 
L 183.37878 100.539508 
L 183.45489 100.60769 
L 183.60711 98.617592 
L 184.36821 81.392934 
L 184.520429 82.530891 
L 184.748759 87.17091 
L 185.129309 99.92536 
L 185.890408 135.412609 
L 186.575398 164.742438 
L 186.879837 169.573603 
L 186.955947 169.729548 
L 187.032057 169.454992 
L 187.184277 167.674252 
L 187.488717 159.83497 
L 188.325926 134.141872 
L 188.554256 129.916091 
L 188.934806 115.069444 
L 189.467575 96.929573 
L 189.848125 89.25448 
L 190.000345 88.333547 
L 190.076455 88.486421 
L 190.228675 90.032224 
L 190.609224 95.552918 
L 190.685334 95.321476 
L 190.837554 92.689594 
L 191.370324 79.509947 
L 191.446434 79.157066 
L 191.522544 79.287671 
L 191.674763 80.91303 
L 191.979203 88.545668 
L 192.511973 110.795868 
L 193.653622 160.425194 
L 193.958062 166.30818 
L 194.110281 167.103417 
L 194.186391 166.935403 
L 194.338611 165.500656 
L 194.566941 160.625784 
L 195.023601 143.80105 
L 195.63248 123.709091 
L 196.24136 105.403825 
L 196.698019 92.711066 
L 196.926349 90.013052 
L 197.002459 89.857368 
L 197.078569 90.099842 
L 197.306899 92.838523 
L 197.535229 95.580371 
L 197.611339 95.533735 
L 197.763558 93.433072 
L 198.372438 80.154815 
L 198.448548 80.098811 
L 198.600768 81.308977 
L 198.829098 85.884188 
L 199.209647 98.654473 
L 199.818527 128.003216 
L 200.579626 163.504005 
L 200.884066 169.353975 
L 200.960176 169.737242 
L 201.036286 169.662364 
L 201.188506 168.233979 
L 201.416835 163.133965 
L 201.873495 145.692294 
L 202.330155 129.906738 
L 202.862924 116.220992 
L 203.700133 87.725483 
L 203.928463 84.89177 
L 204.004573 84.809565 
L 204.156793 86.035443 
L 204.613453 91.977567 
L 204.765673 89.670735 
L 205.374552 74.369929 
L 205.450662 74.361102 
L 205.602882 75.975964 
L 205.831212 81.775178 
L 206.287871 101.90119 
L 207.65785 169.93457 
L 207.88618 172.301159 
L 208.0384 170.952891 
L 208.26673 165.511416 
L 208.799499 144.763773 
L 209.103939 136.076174 
L 209.180049 135.530593 
L 209.256159 135.68021 
L 209.408379 136.372489 
L 209.484489 135.899493 
L 209.636709 132.066523 
L 210.169478 104.726932 
L 210.702248 84.179641 
L 211.006687 78.987576 
L 211.082797 78.860892 
L 211.235017 80.148746 
L 211.691677 87.7309 
L 211.767787 87.374444 
L 211.996117 82.59656 
L 212.376666 74.832375 
L 212.452776 74.653807 
L 212.604996 75.814637 
L 212.833326 80.679047 
L 213.213876 95.051634 
L 213.974975 134.015181 
L 214.659964 167.805154 
L 214.964404 174.731516 
L 215.040514 175.135846 
L 215.116624 174.996302 
L 215.268844 173.230708 
L 215.497174 167.127765 
L 216.258273 139.732514 
L 216.334383 140.026754 
L 216.410493 140.404872 
L 216.486603 140.248859 
L 216.638823 137.07621 
L 217.019372 118.033716 
L 217.628252 91.602524 
L 218.084911 79.900147 
L 218.313241 78.49076 
L 218.465461 79.914692 
L 218.846011 85.913842 
L 218.922121 85.837463 
L 219.074341 83.626058 
L 219.60711 72.472295 
L 219.68322 72.309325 
L 219.83544 73.393162 
L 220.06377 77.853054 
L 220.44432 91.364984 
L 220.977089 119.579525 
L 221.966518 174.808295 
L 222.194848 178.618121 
L 222.270958 178.76239 
L 222.423178 177.477468 
L 222.651508 171.866994 
L 223.260387 147.406735 
L 223.336497 147.582986 
L 223.640937 152.662495 
L 223.793157 147.854298 
L 224.782586 97.854972 
L 225.467575 75.484942 
L 225.695905 72.787724 
L 225.772015 72.869691 
L 225.924235 74.506175 
L 226.304785 79.501325 
L 226.457004 77.337719 
L 226.989774 65.224171 
L 227.065884 65.147552 
L 227.218104 66.715853 
L 227.446434 72.959534 
L 227.826983 90.962174 
L 229.425292 179.080238 
L 229.577512 180.192461 
L 229.653622 179.889977 
L 229.805842 177.572322 
L 230.110281 166.956297 
L 230.566941 149.051385 
L 230.719161 153.026154 
L 230.947491 158.090775 
L 231.099711 153.123809 
L 232.16525 97.187742 
L 232.850239 70.983937 
L 233.078569 67.600627 
L 233.154679 67.595884 
L 233.306899 69.248537 
L 233.687448 74.327194 
L 233.839668 71.946571 
L 234.372438 59.407892 
L 234.448548 59.575634 
L 234.600768 61.781844 
L 234.905207 72.121635 
L 235.437977 101.5861 
L 236.731846 176.401505 
L 236.960176 180.025581 
L 237.036286 180.088749 
L 237.188506 178.502516 
L 237.416835 172.174873 
L 238.025715 145.78357 
L 238.101825 146.156788 
L 238.330155 151.76413 
L 238.406265 151.516418 
L 238.558484 145.681985 
L 239.471804 92.668391 
L 240.004573 73.145736 
L 240.232903 69.701106 
L 240.309013 69.608623 
L 240.461233 71.039632 
L 240.841783 76.951435 
L 240.917892 76.566158 
L 241.146222 71.209819 
L 241.526772 62.232876 
L 241.602882 61.962237 
L 241.678992 62.307653 
L 241.831212 64.821421 
L 242.135651 76.114378 
L 242.668421 107.832923 
L 243.73396 174.701028 
L 244.0384 180.838242 
L 244.11451 180.951757 
L 244.26673 179.4927 
L 244.495059 173.447735 
L 245.103939 147.163309 
L 245.180049 147.730036 
L 245.484489 154.881958 
L 245.636709 149.749415 
L 246.702248 89.349933 
L 247.235017 68.779188 
L 247.463347 65.737725 
L 247.539457 65.840481 
L 247.691677 67.643705 
L 247.996117 72.657837 
L 248.072226 72.638163 
L 248.224446 70.190579 
L 248.757216 58.418663 
L 248.833326 58.548098 
L 248.985546 60.754155 
L 249.289985 71.543102 
L 249.822755 102.082518 
L 251.116624 179.75794 
L 251.344954 183.670945 
L 251.421064 183.821908 
L 251.573284 182.337787 
L 251.801613 175.759041 
L 252.334383 150.318703 
L 252.410493 150.487112 
L 252.714933 160.087016 
L 252.791043 159.355502 
L 252.943262 152.694981 
L 253.704362 107.267801 
L 254.846011 61.665913 
L 254.922121 61.179824 
L 254.998231 61.333552 
L 255.150451 63.295542 
L 255.45489 68.051849 
L 255.531 67.902569 
L 255.68322 65.392731 
L 256.13988 55.820474 
L 256.21599 55.797813 
L 256.36821 57.631303 
L 256.596539 64.540065 
L 257.053199 88.748955 
L 258.727618 186.751101 
L 258.803728 187.378172 
L 258.879837 187.339616 
L 259.032057 185.247775 
L 259.260387 177.205283 
L 259.717047 153.830912 
L 259.793157 154.042889 
L 260.097596 164.646272 
L 260.173706 163.851698 
L 260.325926 157.137896 
L 261.087026 111.847774 
L 262.380895 59.27246 
L 262.457004 59.06011 
L 262.609224 60.338581 
L 262.989774 65.578776 
L 263.141994 63.937085 
L 263.598654 55.325896 
L 263.674763 55.285279 
L 263.826983 56.788854 
L 264.055313 63.029236 
L 264.435863 82.136666 
L 266.186391 184.795368 
L 266.338611 185.63131 
L 266.490831 183.655491 
L 266.719161 176.050319 
L 267.25193 150.218627 
L 267.32804 151.35422 
L 267.63248 160.973902 
L 267.7847 155.511784 
L 268.850239 88.928492 
L 269.459119 64.425577 
L 269.687448 60.996898 
L 269.763558 60.998893 
L 269.915778 62.615013 
L 270.220218 67.423514 
L 270.296328 67.456165 
L 270.448548 65.31637 
L 270.905207 55.213589 
L 270.981317 54.972779 
L 271.057427 55.335655 
L 271.209647 57.862319 
L 271.437977 65.882149 
L 271.894637 93.639359 
L 273.112396 175.315504 
L 273.416835 182.670625 
L 273.492945 182.988298 
L 273.569055 182.718265 
L 273.721275 180.45953 
L 273.949605 172.992109 
L 274.558484 146.126933 
L 274.862924 155.106181 
L 274.939034 154.101222 
L 275.167364 140.683907 
L 275.776243 100.283932 
L 276.461233 68.909378 
L 276.765673 61.578144 
L 276.841783 61.032316 
L 276.917892 61.096574 
L 277.070112 62.84273 
L 277.374552 67.383693 
L 277.450662 67.215359 
L 277.602882 64.732352 
L 278.059541 54.845448 
L 278.135651 54.688009 
L 278.287871 56.14809 
L 278.516201 62.437696 
L 278.896751 81.804482 
L 279.65785 135.575462 
L 280.34284 179.639115 
L 280.647279 187.162336 
L 280.723389 187.207086 
L 280.875609 185.207706 
L 281.103939 177.438114 
L 281.636709 149.889829 
L 281.712818 150.461328 
L 281.941148 157.792299 
L 282.017258 157.612406 
L 282.169478 151.26966 
L 282.930577 102.455024 
L 283.996117 60.303802 
L 284.148336 59.260336 
L 284.300556 60.470155 
L 284.681106 64.991146 
L 284.833326 63.1993 
L 285.289985 54.556853 
L 285.366095 54.453459 
L 285.518315 55.852427 
L 285.746645 61.717797 
L 286.051085 75.981121 
L 286.659964 118.078584 
L 287.497174 174.506103 
L 287.801613 184.53242 
L 287.953833 185.859663 
L 288.029943 185.602946 
L 288.182163 183.340982 
L 288.410493 175.843247 
L 288.943262 152.945638 
L 289.323812 168.621213 
L 289.399922 167.016937 
L 289.628252 152.521919 
L 290.084911 121.968045 
L 290.846011 84.368829 
L 291.45489 56.74899 
L 291.68322 53.039417 
L 291.75933 53.050213 
L 291.91155 54.542218 
L 292.13988 56.878946 
L 292.21599 56.536645 
L 292.36821 53.579011 
L 292.824869 41.727024 
L 292.900979 41.408234 
L 292.977089 41.816091 
L 293.129309 44.822833 
L 293.433749 58.444213 
L 293.966518 96.834737 
L 295.032057 173.736454 
L 295.336497 183.990968 
L 295.488717 185.097497 
L 295.564827 184.716918 
L 295.717047 182.215771 
L 296.021487 170.690156 
L 296.478146 148.366685 
L 296.554256 149.549244 
L 296.858696 162.842362 
L 296.934806 161.778351 
L 297.087026 153.652886 
L 297.772015 107.280065 
L 298.913664 55.02695 
L 299.065884 53.410989 
L 299.141994 53.557602 
L 299.370324 56.659412 
L 299.522544 58.342567 
L 299.598654 58.200663 
L 299.750873 55.639741 
L 300.283643 43.616494 
L 300.359753 43.853528 
L 300.511973 46.377364 
L 300.816413 58.463416 
L 301.273072 88.541978 
L 302.566941 180.299606 
L 302.871381 187.760279 
L 302.947491 187.874063 
L 303.099711 186.141125 
L 303.32804 178.799773 
L 303.86081 150.729491 
L 303.93692 151.354297 
L 304.24136 163.679941 
L 304.31747 162.552872 
L 304.469689 154.299111 
L 305.078569 111.385345 
L 306.448548 52.509132 
L 306.524658 52.642061 
L 306.676878 54.449632 
L 306.981317 57.935325 
L 307.133537 55.952512 
L 307.666307 45.328938 
L 307.742417 45.732376 
L 307.894637 48.469898 
L 308.199076 60.763664 
L 308.731846 96.195287 
L 309.873495 178.084169 
L 310.177935 186.390833 
L 310.254045 186.78487 
L 310.330155 186.526916 
L 310.482374 184.138138 
L 310.710704 176.069561 
L 311.243474 149.559283 
L 311.319584 151.410612 
L 311.624024 165.674387 
L 311.700133 164.340467 
L 311.928463 148.799551 
L 312.385123 113.293464 
L 313.602882 55.165002 
L 313.831212 52.07827 
L 313.907322 52.279354 
L 314.135651 55.422233 
L 314.363981 57.293404 
L 314.516201 55.474709 
L 314.972861 48.002011 
L 315.048971 48.159028 
L 315.201191 50.249694 
L 315.42952 57.637296 
L 315.81007 78.758803 
L 317.484489 184.404614 
L 317.636709 185.789518 
L 317.712818 185.431031 
L 317.865038 182.642321 
L 318.169478 169.885172 
L 318.702248 143.901505 
L 319.006687 152.994109 
L 319.158907 147.2956 
L 320.148336 81.489862 
L 320.681106 59.598737 
L 320.909436 56.61294 
L 320.985546 56.876627 
L 321.213876 60.569403 
L 321.442205 63.83133 
L 321.518315 63.670724 
L 321.670535 61.492798 
L 322.051085 55.04832 
L 322.127195 54.846794 
L 322.203305 55.153315 
L 322.355525 57.26981 
L 322.583854 63.894202 
L 322.964404 82.622992 
L 323.801613 138.814467 
L 324.486603 179.908332 
L 324.714933 185.261384 
L 324.791043 185.829917 
L 324.867152 185.802558 
L 325.019372 183.956619 
L 325.247702 176.64035 
L 325.780472 148.842459 
L 325.856582 149.086174 
L 326.161021 162.150018 
L 326.237131 161.346659 
L 326.389351 153.26929 
L 327.074341 103.580743 
L 328.06377 55.974365 
L 328.2921 53.45295 
L 328.44432 54.784578 
L 328.824869 59.831719 
L 328.977089 58.05397 
L 329.509859 48.004044 
L 329.585969 48.339114 
L 329.738188 50.895496 
L 330.042628 62.767701 
L 330.499288 91.772606 
L 331.869267 185.234052 
L 332.021487 187.355645 
L 332.097596 187.19965 
L 332.249816 184.598913 
L 332.478146 175.687409 
L 333.087026 144.395166 
L 333.391465 153.65102 
L 333.467575 152.275342 
L 333.695905 137.110159 
L 334.228675 99.254133 
L 334.989774 61.420223 
L 335.218104 55.921861 
L 335.294214 55.335569 
L 335.370324 55.400696 
L 335.522544 57.239692 
L 335.826983 62.131451 
L 335.903093 62.090276 
L 336.055313 60.103154 
L 336.435863 53.585875 
L 336.511973 53.33905 
L 336.588083 53.605312 
L 336.740303 55.743688 
L 336.968632 62.699991 
L 337.349182 82.144671 
L 339.099711 183.426441 
L 339.175821 183.746438 
L 339.25193 183.398655 
L 339.40415 180.791571 
L 339.70859 168.885856 
L 340.24136 140.292701 
L 340.31747 140.478544 
L 340.545799 147.240062 
L 340.621909 147.101016 
L 340.774129 140.41115 
L 341.611339 85.53355 
L 342.220218 60.726814 
L 342.448548 57.822549 
L 342.524658 58.041123 
L 342.752988 61.435278 
L 342.981317 64.32399 
L 343.057427 64.235333 
L 343.209647 62.506302 
L 343.590197 56.978008 
L 343.666307 56.815149 
L 343.742417 57.153585 
L 343.894637 59.442539 
L 344.199076 69.721203 
L 344.731846 99.607216 
L 346.025715 177.463702 
L 346.254045 180.6975 
L 346.330155 180.585017 
L 346.482374 178.533222 
L 346.710704 171.294404 
L 347.167364 146.239547 
L 347.471804 135.147646 
L 347.700133 138.817244 
L 347.776243 138.453823 
L 347.928463 132.392039 
L 348.841783 78.306287 
L 349.298442 63.288068 
L 349.450662 61.817091 
L 349.526772 61.921737 
L 349.755102 64.555597 
L 349.907322 66.055415 
L 349.983432 65.984239 
L 350.135651 63.857241 
L 350.668421 53.411604 
L 350.744531 53.63883 
L 350.896751 55.699634 
L 351.125081 62.422689 
L 351.50563 81.038596 
L 352.41895 141.153858 
L 353.027829 176.200158 
L 353.332269 183.429256 
L 353.408379 183.614252 
L 353.560599 182.130154 
L 353.788928 175.446655 
L 354.169478 154.998395 
L 354.473918 142.836917 
L 354.626138 147.397209 
L 354.778358 150.868721 
L 354.854467 149.447774 
L 355.082797 133.616256 
L 355.615567 94.363586 
L 356.224446 66.266541 
L 356.528886 59.733226 
L 356.604996 59.496709 
L 356.757216 60.677845 
L 357.137766 65.045389 
L 357.289985 63.061183 
L 357.822755 52.143248 
L 357.898865 52.072551 
L 358.051085 53.580706 
L 358.279415 59.673696 
L 358.659964 77.658656 
L 359.344954 122.974609 
L 360.182163 176.919516 
L 360.410493 182.679322 
L 360.486603 183.259582 
L 360.562713 183.230622 
L 360.714933 181.466391 
L 360.943262 174.857922 
L 361.323812 155.408843 
L 361.552142 145.141125 
L 361.628252 145.241602 
L 361.932692 157.611847 
L 362.008802 156.833816 
L 362.161021 148.536147 
L 362.922121 92.733035 
L 363.531 63.270135 
L 363.83544 55.913509 
L 363.91155 55.373171 
L 363.98766 55.385691 
L 364.13988 56.772752 
L 364.36821 59.270482 
L 364.44432 59.227173 
L 364.596539 57.112029 
L 365.129309 46.551158 
L 365.205419 46.925793 
L 365.357639 49.50303 
L 365.662078 60.989226 
L 366.194848 93.987077 
L 367.488717 178.321076 
L 367.717047 183.806274 
L 367.793157 184.273008 
L 367.869267 184.032587 
L 368.021487 181.602247 
L 368.325926 170.376939 
L 368.858696 143.639682 
L 368.934806 144.474469 
L 369.163136 152.226117 
L 369.239246 151.760931 
L 369.391465 144.041108 
L 370.152565 88.288179 
L 370.761444 61.32855 
L 370.989774 57.848417 
L 371.065884 57.869404 
L 371.218104 59.481623 
L 371.522544 63.872018 
L 371.598654 63.890137 
L 371.750873 62.195317 
L 372.207533 54.83458 
L 372.283643 54.54706 
L 372.359753 54.676632 
L 372.511973 56.381771 
L 372.816413 64.776846 
L 373.273072 86.581114 
L 373.958062 133.30098 
L 374.643051 177.134509 
L 374.947491 184.312597 
L 375.023601 184.496685 
L 375.175821 183.102985 
L 375.40415 176.690466 
L 375.7847 156.568398 
L 376.01303 146.018824 
L 376.08914 146.405584 
L 376.39358 159.650849 
L 376.469689 158.682149 
L 376.621909 149.859951 
L 377.306899 98.218849 
L 378.144108 58.808684 
L 378.372438 54.096644 
L 378.448548 53.674842 
L 378.524658 53.827907 
L 378.752988 56.598741 
L 378.905207 58.095316 
L 378.981317 57.988734 
L 379.133537 55.65682 
L 379.666307 43.948162 
L 379.742417 44.190082 
L 379.894637 46.65621 
L 380.122966 54.770395 
L 380.503516 77.277697 
L 382.101825 184.890125 
L 382.330155 187.366662 
L 382.482374 185.652796 
L 382.710704 178.187295 
L 383.319584 147.790297 
L 383.395694 150.244561 
L 383.624024 159.998745 
L 383.700133 159.322448 
L 383.852353 151.134186 
L 384.613453 94.272909 
L 385.374552 57.506678 
L 385.602882 53.124779 
L 385.678992 52.848834 
L 385.755102 53.148165 
L 386.135651 57.243488 
L 386.211761 56.843084 
L 386.440091 51.766517 
L 386.744531 44.370756 
L 386.896751 43.745117 
L 387.048971 45.669949 
L 387.2773 52.776702 
L 387.65785 73.388605 
L 389.408379 183.075935 
L 389.484489 183.685195 
L 389.560599 183.657967 
L 389.712818 181.750846 
L 389.941148 174.52002 
L 390.321698 153.403541 
L 390.626138 141.110438 
L 390.778358 146.607577 
L 390.930577 151.421399 
L 391.006687 150.424448 
L 391.158907 141.434738 
L 391.843897 88.900006 
L 392.452776 61.660411 
L 392.757216 56.151543 
L 392.833326 56.173375 
L 392.985546 57.748256 
L 393.366095 62.273692 
L 393.518315 60.864792 
L 393.974975 55.006579 
L 394.051085 55.142849 
L 394.203305 56.655453 
L 394.431635 61.861443 
L 394.812184 77.209191 
L 395.421064 113.749596 
L 396.029943 156.792421 
L 396.029943 156.792421 
" style="fill:none;stroke:#ff7f0e;stroke-linecap:square;stroke-width:1.5;"/>
   </g>
   <g id="patch_3">
    <path d="M 76.448125 231.340089 
L 76.448125 13.900089 
" style="fill:none;stroke:#000000;stroke-linecap:square;stroke-linejoin:miter;stroke-width:0.8;"/>
   </g>
   <g id="patch_4">
    <path d="M 411.248125 231.340089 
L 411.248125 13.900089 
" style="fill:none;stroke:#000000;stroke-linecap:square;stroke-linejoin:miter;stroke-width:0.8;"/>
   </g>
   <g id="patch_5">
    <path d="M 76.448125 231.340089 
L 411.248125 231.340089 
" style="fill:none;stroke:#000000;stroke-linecap:square;stroke-linejoin:miter;stroke-width:0.8;"/>
   </g>
   <g id="patch_6">
    <path d="M 76.448125 13.900089 
L 411.248125 13.900089 
" style="fill:none;stroke:#000000;stroke-linecap:square;stroke-linejoin:miter;stroke-width:0.8;"/>
   </g>
   <g id="legend_1">
    <g id="line2d_10">
     <path d="M 438.388125 34.956027 
L 490.388125 34.956027 
" style="fill:none;stroke:#1f77b4;stroke-linecap:square;stroke-width:1.5;"/>
    </g>
    <g id="line2d_11"/>
    <g id="text_10">
     <!-- exact -->
     <g transform="translate(511.188125 44.056027)scale(0.26 -0.26)">
      <defs>
       <path d="M 54.890625 54.6875 
L 35.109375 28.078125 
L 55.90625 0 
L 45.3125 0 
L 29.390625 21.484375 
L 13.484375 0 
L 2.875 0 
L 24.125 28.609375 
L 4.6875 54.6875 
L 15.28125 54.6875 
L 29.78125 35.203125 
L 44.28125 54.6875 
z
" id="DejaVuSans-120"/>
       <path d="M 48.78125 52.59375 
L 48.78125 44.1875 
Q 44.96875 46.296875 41.140625 47.34375 
Q 37.3125 48.390625 33.40625 48.390625 
Q 24.65625 48.390625 19.8125 42.84375 
Q 14.984375 37.3125 14.984375 27.296875 
Q 14.984375 17.28125 19.8125 11.734375 
Q 24.65625 6.203125 33.40625 6.203125 
Q 37.3125 6.203125 41.140625 7.25 
Q 44.96875 8.296875 48.78125 10.40625 
L 48.78125 2.09375 
Q 45.015625 0.34375 40.984375 -0.53125 
Q 36.96875 -1.421875 32.421875 -1.421875 
Q 20.0625 -1.421875 12.78125 6.34375 
Q 5.515625 14.109375 5.515625 27.296875 
Q 5.515625 40.671875 12.859375 48.328125 
Q 20.21875 56 33.015625 56 
Q 37.15625 56 41.109375 55.140625 
Q 45.0625 54.296875 48.78125 52.59375 
z
" id="DejaVuSans-99"/>
      </defs>
      <use xlink:href="#DejaVuSans-101"/>
      <use x="59.773438" xlink:href="#DejaVuSans-120"/>
      <use x="118.953125" xlink:href="#DejaVuSans-97"/>
      <use x="180.232422" xlink:href="#DejaVuSans-99"/>
      <use x="235.212891" xlink:href="#DejaVuSans-116"/>
     </g>
    </g>
    <g id="line2d_12">
     <path d="M 438.388125 73.119152 
L 490.388125 73.119152 
" style="fill:none;stroke:#ff7f0e;stroke-linecap:square;stroke-width:1.5;"/>
    </g>
    <g id="line2d_13"/>
    <g id="text_11">
     <!-- estimated -->
     <g transform="translate(511.188125 82.219152)scale(0.26 -0.26)">
      <use xlink:href="#DejaVuSans-101"/>
      <use x="61.523438" xlink:href="#DejaVuSans-115"/>
      <use x="113.623047" xlink:href="#DejaVuSans-116"/>
      <use x="152.832031" xlink:href="#DejaVuSans-105"/>
      <use x="180.615234" xlink:href="#DejaVuSans-109"/>
      <use x="278.027344" xlink:href="#DejaVuSans-97"/>
      <use x="339.306641" xlink:href="#DejaVuSans-116"/>
      <use x="378.515625" xlink:href="#DejaVuSans-101"/>
      <use x="440.039062" xlink:href="#DejaVuSans-100"/>
     </g>
    </g>
   </g>
  </g>
 </g>
 <defs>
  <clipPath id="p0124d326ee">
   <rect height="217.44" width="334.8" x="76.448125" y="13.900089"/>
  </clipPath>
 </defs>
</svg>
