<?xml version="1.0" encoding="utf-8" standalone="no"?>
<!DOCTYPE svg PUBLIC "-//W3C//DTD SVG 1.1//EN"
  "http://www.w3.org/Graphics/SVG/1.1/DTD/svg11.dtd">
<!-- Created with matplotlib (https://matplotlib.org/) -->
<svg height="293.16625pt" version="1.1" viewBox="0 0 659.702188 293.16625" width="659.702188pt" xmlns="http://www.w3.org/2000/svg" xmlns:xlink="http://www.w3.org/1999/xlink">
 <metadata>
  <rdf:RDF xmlns:cc="http://creativecommons.org/ns#" xmlns:dc="http://purl.org/dc/elements/1.1/" xmlns:rdf="http://www.w3.org/1999/02/22-rdf-syntax-ns#">
   <cc:Work>
    <dc:type rdf:resource="http://purl.org/dc/dcmitype/StillImage"/>
    <dc:date>2021-09-29T18:19:30.680230</dc:date>
    <dc:format>image/svg+xml</dc:format>
    <dc:creator>
     <cc:Agent>
      <dc:title>Matplotlib v3.3.2, https://matplotlib.org/</dc:title>
     </cc:Agent>
    </dc:creator>
   </cc:Work>
  </rdf:RDF>
 </metadata>
 <defs>
  <style type="text/css">*{stroke-linecap:butt;stroke-linejoin:round;}</style>
 </defs>
 <g id="figure_1">
  <g id="patch_1">
   <path d="M 0 293.16625 
L 659.702188 293.16625 
L 659.702188 0 
L 0 0 
z
" style="fill:#ffffff;"/>
  </g>
  <g id="axes_1">
   <g id="patch_2">
    <path d="M 76.448125 224.64 
L 411.248125 224.64 
L 411.248125 7.2 
L 76.448125 7.2 
z
" style="fill:#ffffff;"/>
   </g>
   <g id="line2d_1">
    <path clip-path="url(#p04bb9ca591)" d="M 91.666307 214.756364 
L 91.767795 214.26981 
L 91.970772 210.841338 
L 92.579702 192.285992 
L 93.493098 163.552135 
L 94.203516 148.385774 
L 95.2184 129.568703 
L 95.82733 113.788963 
L 96.334772 94.522572 
L 97.958586 24.523865 
L 98.36454 18.028704 
L 98.567516 17.099579 
L 98.669005 17.083636 
L 98.871981 17.629956 
L 99.074958 19.28847 
L 99.379423 24.314209 
L 99.886865 37.961441 
L 100.800261 70.556446 
L 103.033005 156.061522 
L 103.438958 163.221641 
L 103.641935 164.809759 
L 103.844912 164.978262 
L 104.047889 164.280886 
L 104.250865 162.803419 
L 104.758307 156.338427 
L 105.773191 143.035157 
L 106.280633 137.487978 
L 106.889563 127.074988 
L 108.107424 98.308552 
L 109.426772 63.208135 
L 109.832726 57.075842 
L 110.137191 55.514784 
L 110.238679 55.592242 
L 110.441656 56.493979 
L 110.746121 59.606803 
L 111.253563 66.923496 
L 112.166959 86.537619 
L 112.775889 104.351377 
L 113.790773 133.935984 
L 114.399703 145.582547 
L 114.704168 148.433501 
L 115.110121 150.021293 
L 115.21161 149.94879 
L 115.414587 148.978693 
L 116.023517 143.112482 
L 116.632447 133.436319 
L 117.850308 110.615319 
L 119.677098 75.95687 
L 120.489005 67.729097 
L 120.691982 67.310192 
L 120.79347 67.318052 
L 120.996447 67.780437 
L 121.199424 69.229098 
L 121.605377 74.613246 
L 122.011331 81.61054 
L 122.620261 97.547536 
L 123.736633 130.254487 
L 124.345564 144.197752 
L 124.751517 149.825504 
L 124.954494 150.895416 
L 125.157471 151.068564 
L 125.360447 150.503347 
L 125.664912 149.191205 
L 125.969378 146.182661 
L 126.781285 134.644546 
L 127.999145 111.48248 
L 130.028913 68.494776 
L 130.333378 66.435251 
L 130.536354 66.465433 
L 130.739331 67.124698 
L 131.246773 70.355094 
L 131.551238 74.451595 
L 132.261657 88.221198 
L 134.189936 132.190595 
L 134.798866 139.425802 
L 135.20482 142.152832 
L 135.509285 143.000999 
L 135.610773 142.862274 
L 135.81375 141.936391 
L 136.118215 138.985428 
L 136.930122 126.39161 
L 138.452448 98.431597 
L 139.264355 84.664734 
L 139.873285 79.068331 
L 140.279238 76.996847 
L 140.482215 76.591557 
L 140.685192 77.038114 
L 141.091145 79.192685 
L 141.395611 82.424542 
L 142.106029 94.351078 
L 144.135797 137.556162 
L 144.440262 140.303538 
L 144.846215 142.421764 
L 144.947704 142.58498 
L 145.15068 141.955329 
L 145.658122 139.188286 
L 146.064076 134.333062 
L 146.875983 119.901861 
L 148.195332 94.466286 
L 149.514681 77.841296 
L 149.819146 75.955392 
L 150.022122 75.505237 
L 150.123611 75.604005 
L 150.428076 76.642901 
L 150.732541 79.31394 
L 151.239983 86.570384 
L 152.153378 103.885583 
L 153.878681 138.220712 
L 154.183146 140.241045 
L 154.487611 140.619323 
L 154.589099 140.48869 
L 154.792076 139.700559 
L 155.19803 136.803434 
L 155.80696 127.91412 
L 156.720355 111.131329 
L 158.242681 82.796894 
L 158.547146 80.135322 
L 159.054588 78.420842 
L 159.257565 78.296775 
L 159.460541 78.554011 
L 159.663518 79.220168 
L 159.967983 81.915569 
L 161.084355 95.302251 
L 162.200727 116.841058 
L 162.911146 130.69645 
L 163.215611 134.571033 
L 163.520076 136.253792 
L 163.824541 136.910004 
L 163.92603 136.900712 
L 164.230495 135.694187 
L 164.53496 134.22762 
L 165.042402 130.203957 
L 165.752821 122.469676 
L 166.260262 115.211292 
L 168.087053 86.346574 
L 168.594495 80.520037 
L 169.000449 79.122448 
L 169.101937 78.980154 
L 169.203425 79.071621 
L 169.609379 80.506783 
L 169.913844 82.711418 
L 170.218309 86.428317 
L 171.639146 112.891349 
L 172.552542 128.873042 
L 173.059983 135.067415 
L 173.26296 136.135936 
L 173.465937 136.371068 
L 173.668914 136.229259 
L 173.87189 135.655307 
L 174.176356 133.664759 
L 174.582309 129.42007 
L 175.394216 117.887183 
L 177.62696 81.145417 
L 177.829937 80.120928 
L 177.931425 80.04795 
L 178.032914 80.176686 
L 178.337379 81.510423 
L 178.743332 84.498251 
L 179.453751 91.542282 
L 180.062681 99.997012 
L 180.874588 115.169023 
L 181.787984 130.476066 
L 182.193937 134.089257 
L 182.396914 134.834312 
L 182.701379 134.977695 
L 183.107333 133.937525 
L 183.411798 132.34553 
L 183.91924 126.996286 
L 185.035612 109.504522 
L 186.456449 83.009664 
L 186.862402 80.110029 
L 187.268356 78.819012 
L 187.471333 78.67171 
L 187.674309 79.169998 
L 187.978775 80.296878 
L 188.28324 82.779808 
L 188.790682 89.548906 
L 189.298123 98.19438 
L 191.023426 132.791898 
L 191.530868 138.695128 
L 191.835333 140.267203 
L 192.03831 140.197714 
L 192.342775 139.356437 
L 192.64724 137.071702 
L 193.459147 128.090137 
L 194.271054 114.53691 
L 195.488914 89.472865 
L 195.894868 83.027717 
L 196.300821 79.330412 
L 196.706775 77.34542 
L 196.909752 76.911514 
L 197.112728 77.532796 
L 197.721659 80.506818 
L 198.127612 84.658484 
L 198.736542 94.865799 
L 199.751426 117.416344 
L 200.664821 135.756223 
L 201.172263 141.664503 
L 201.476728 143.346247 
L 201.679705 143.440755 
L 201.882682 142.896961 
L 202.187147 140.924162 
L 202.694589 134.686214 
L 203.810961 113.298717 
L 204.52138 95.703619 
L 205.231798 79.523661 
L 205.73924 71.942755 
L 206.043705 69.505709 
L 206.145194 69.281567 
L 206.246682 69.342364 
L 206.449659 69.969583 
L 206.652636 71.133298 
L 207.261566 77.53618 
L 207.971984 91.528762 
L 210.001752 137.106012 
L 210.407705 141.163687 
L 210.610682 142.184968 
L 210.712171 142.329272 
L 210.915147 141.966813 
L 211.219612 140.646729 
L 211.625566 136.724833 
L 212.234496 128.364727 
L 212.944915 114.778911 
L 214.162775 90.619396 
L 214.873194 78.242205 
L 215.177659 75.49563 
L 215.380636 75.185962 
L 215.583613 75.26173 
L 215.685101 75.187812 
L 215.888078 75.474475 
L 216.091054 76.229314 
L 216.497008 79.766613 
L 217.105938 88.294149 
L 218.323799 111.629652 
L 219.440171 136.798644 
L 219.846124 142.635954 
L 220.150589 144.721564 
L 220.252078 144.91155 
L 220.353566 144.834205 
L 220.556543 144.14913 
L 220.861008 141.490414 
L 221.571427 131.364786 
L 222.992264 102.8992 
L 224.007148 84.239526 
L 224.717566 74.99751 
L 225.022031 73.423045 
L 225.225008 72.993761 
L 225.326497 73.020985 
L 225.529473 73.647798 
L 225.935427 76.129466 
L 226.544357 84.518606 
L 227.051799 94.815862 
L 228.574125 128.593897 
L 228.980078 132.828328 
L 229.791985 138.263242 
L 229.994962 138.457897 
L 230.09645 138.399049 
L 230.299427 137.824732 
L 230.502404 136.607942 
L 230.908357 131.967285 
L 231.618776 119.815503 
L 233.445567 83.012946 
L 234.054497 77.243843 
L 234.561939 75.670131 
L 234.764915 75.611665 
L 234.967892 76.250962 
L 235.170869 77.792353 
L 235.475334 82.012119 
L 236.185753 97.728069 
L 237.708078 130.322165 
L 238.21552 136.552577 
L 238.519985 138.827291 
L 238.722962 139.007318 
L 238.82445 138.768494 
L 239.331892 135.670721 
L 239.636357 133.287584 
L 240.143799 126.295458 
L 241.057195 110.072475 
L 242.883985 76.310812 
L 243.188451 73.539355 
L 243.594404 72.140949 
L 243.695892 72.271676 
L 243.898869 73.091632 
L 244.101846 74.475229 
L 244.507799 80.096179 
L 244.913753 87.698604 
L 246.94352 131.89 
L 247.552451 140.232142 
L 247.856916 142.168927 
L 248.059893 142.724911 
L 248.262869 142.749939 
L 248.465846 142.212031 
L 248.668823 140.879126 
L 249.074776 135.151223 
L 249.683707 123.094482 
L 252.119428 73.902701 
L 252.423893 72.100169 
L 252.829846 71.146618 
L 252.931335 71.222912 
L 253.134311 71.862362 
L 253.438776 74.073308 
L 253.743242 77.803596 
L 254.250683 87.787881 
L 256.381939 134.700443 
L 256.889381 140.841256 
L 257.092358 141.785606 
L 257.193846 141.759506 
L 257.498311 140.909959 
L 257.904265 139.689948 
L 258.107242 138.189513 
L 258.513195 132.818138 
L 259.223614 118.176719 
L 261.151893 77.144118 
L 261.557846 72.946242 
L 261.9638 70.561199 
L 262.166777 70.232722 
L 262.369753 70.295874 
L 262.471242 70.421515 
L 262.674219 71.227281 
L 262.978684 74.083587 
L 263.689102 86.81324 
L 264.602498 111.509693 
L 265.71887 138.94096 
L 266.023335 143.012374 
L 266.429288 145.200513 
L 266.632265 145.627981 
L 266.733754 145.439633 
L 267.038219 143.548581 
L 267.342684 140.271053 
L 267.850126 130.437832 
L 270.387335 73.855152 
L 270.894777 67.951118 
L 271.097754 66.93935 
L 271.30073 66.711226 
L 271.605196 67.549268 
L 271.909661 69.42527 
L 272.214126 73.380465 
L 272.620079 80.964893 
L 273.22901 97.542008 
L 274.751335 138.386206 
L 275.360265 147.307182 
L 275.664731 149.032872 
L 275.766219 149.249725 
L 275.867707 149.204247 
L 276.172172 147.817004 
L 276.476638 144.963209 
L 276.882591 138.824328 
L 277.491521 124.516065 
L 280.028731 63.068421 
L 280.333196 60.537846 
L 280.536173 60.074093 
L 280.637661 60.245937 
L 280.942126 61.773898 
L 281.246591 64.69074 
L 281.652545 71.15287 
L 282.261475 85.288006 
L 282.971894 106.061672 
L 283.986777 136.84952 
L 284.595708 148.405975 
L 285.001661 152.67517 
L 285.204638 153.278076 
L 285.306126 153.261246 
L 285.509103 152.503843 
L 285.813568 150.114372 
L 286.118033 144.901227 
L 287.031429 122.115915 
L 288.959708 69.271435 
L 289.46715 60.456441 
L 289.771615 58.36181 
L 289.873103 58.236785 
L 290.07608 58.492955 
L 290.380545 59.872237 
L 290.68501 62.023164 
L 290.989475 65.96764 
L 291.496917 77.890567 
L 292.207336 99.868665 
L 293.932638 152.629984 
L 294.237103 155.442588 
L 294.541568 156.444141 
L 294.643057 156.385254 
L 294.846033 155.307251 
L 295.353475 149.797579 
L 295.759429 141.768994 
L 297.078778 107.091885 
L 298.702592 59.333045 
L 299.210034 52.453589 
L 299.514499 50.93039 
L 299.615987 50.903381 
L 299.717475 51.132134 
L 299.920452 52.581666 
L 300.326406 58.396525 
L 300.935336 72.217474 
L 301.645755 96.468562 
L 303.371057 151.273265 
L 303.77701 157.842601 
L 304.081476 160.233255 
L 304.182964 160.362946 
L 304.284452 160.138149 
L 304.487429 158.615234 
L 304.791894 153.959395 
L 305.400824 139.401864 
L 307.227615 84.576089 
L 307.938034 63.889735 
L 308.343987 56.266934 
L 308.749941 52.207324 
L 308.952918 51.711707 
L 309.054406 51.895897 
L 309.257383 53.375808 
L 309.663336 58.834825 
L 310.272266 72.93608 
L 310.982685 95.431855 
L 312.200546 133.621406 
L 312.809476 147.681395 
L 313.215429 152.835142 
L 313.316918 153.323383 
L 313.418406 153.302164 
L 313.621383 152.614601 
L 313.82436 151.077114 
L 314.331801 143.976965 
L 314.737755 135.120745 
L 315.752639 105.608883 
L 317.071987 68.03519 
L 317.579429 58.84916 
L 317.883894 55.843595 
L 318.086871 55.088621 
L 318.18836 55.141009 
L 318.391336 56.159145 
L 318.695801 59.22212 
L 319.101755 65.965612 
L 319.609197 78.40995 
L 320.522592 107.99778 
L 321.435988 136.316625 
L 322.044918 148.787924 
L 322.349383 151.333887 
L 322.55236 151.987212 
L 322.653848 151.788207 
L 322.958313 149.304868 
L 323.465755 142.026652 
L 324.074685 128.740879 
L 326.611895 62.056185 
L 326.91636 59.237702 
L 327.119337 58.438432 
L 327.220825 58.411161 
L 327.423802 58.933382 
L 327.728267 60.937365 
L 328.13422 66.156795 
L 328.641662 78.37391 
L 330.975895 145.772345 
L 331.483337 153.40852 
L 331.787802 154.877382 
L 331.88929 154.742455 
L 332.092267 153.169051 
L 332.599709 145.957015 
L 333.005662 136.967665 
L 333.919058 109.671984 
L 335.542872 60.877825 
L 336.050314 52.402133 
L 336.354779 50.151731 
L 336.456267 49.98789 
L 336.557755 50.164985 
L 336.760732 51.257005 
L 337.065197 54.837056 
L 337.471151 63.691744 
L 338.181569 86.928966 
L 339.906872 147.207057 
L 340.312825 153.629851 
L 340.718779 156.27235 
L 340.820267 156.356081 
L 341.023244 156.109339 
L 341.226221 155.1506 
L 341.429197 153.124855 
L 341.835151 146.176882 
L 342.748546 125.646412 
L 343.357477 107.490421 
L 345.184267 45.974231 
L 345.590221 41.003401 
L 345.793198 40.394207 
L 345.894686 40.48328 
L 346.097663 41.934405 
L 346.402128 46.269858 
L 346.90957 57.594677 
L 347.619988 83.585441 
L 349.345291 148.308501 
L 349.751244 155.481459 
L 350.055709 157.954269 
L 350.258686 158.249576 
L 350.461663 157.809271 
L 350.66464 156.492862 
L 350.969105 151.498081 
L 351.578035 136.299302 
L 352.694407 102.354009 
L 353.709291 72.210556 
L 354.521198 54.399618 
L 354.825663 51.04756 
L 355.02864 50.360219 
L 355.130128 50.365388 
L 355.231616 50.687346 
L 355.536082 53.809838 
L 355.942035 60.68522 
L 356.449477 74.518839 
L 358.682221 144.172447 
L 359.088175 149.987189 
L 359.39264 152.637705 
L 359.697105 153.520833 
L 359.900082 153.390527 
L 360.00157 153.051479 
L 360.204547 151.102979 
L 360.6105 144.065152 
L 361.320919 123.790825 
L 363.553663 55.245379 
L 363.858128 50.680646 
L 364.162593 48.731354 
L 364.264082 48.554366 
L 364.36557 48.678539 
L 364.568547 49.64999 
L 364.771524 51.78101 
L 365.177477 59.231724 
L 365.684919 72.884587 
L 367.917663 150.158364 
L 368.323617 157.69411 
L 368.526594 159.327353 
L 368.628082 159.556269 
L 368.72957 159.413296 
L 368.932547 158.210966 
L 369.135524 155.886123 
L 369.541477 147.324686 
L 370.251896 126.918103 
L 372.383152 60.761797 
L 372.992082 51.508948 
L 373.195059 50.171784 
L 373.296547 50.009984 
L 373.398036 50.076217 
L 373.601012 50.771375 
L 373.803989 53.113776 
L 374.412919 65.301325 
L 375.123338 83.928773 
L 376.138222 122.010371 
L 376.950129 148.289968 
L 377.457571 157.625403 
L 377.762036 159.808417 
L 377.863524 159.866068 
L 377.965012 159.683484 
L 378.167989 158.349328 
L 378.472454 154.305599 
L 378.979896 143.166688 
L 379.588826 126.351804 
L 380.299245 102.937699 
L 381.720082 53.224683 
L 382.227524 43.855367 
L 382.430501 42.123305 
L 382.531989 41.933477 
L 382.734966 42.150385 
L 382.937943 43.571001 
L 383.242408 48.298022 
L 383.74985 61.567493 
L 384.764734 98.347151 
L 385.576641 125.828771 
L 386.693013 155.990571 
L 387.098966 161.07833 
L 387.301943 161.63313 
L 387.50492 160.77935 
L 387.707896 158.848209 
L 388.012362 153.257682 
L 388.72278 135.15154 
L 389.636176 104.939108 
L 391.158501 53.706377 
L 391.665943 44.844842 
L 391.970408 42.346841 
L 392.173385 42.06733 
L 392.274873 42.127462 
L 392.376362 42.382135 
L 392.579338 44.085267 
L 392.883804 49.203703 
L 393.289757 60.29276 
L 394.304641 97.425005 
L 395.319525 139.18403 
L 395.928455 156.279655 
L 396.029943 158.19643 
L 396.029943 158.19643 
" style="fill:none;stroke:#1f77b4;stroke-linecap:square;stroke-width:1.5;"/>
   </g>
   <g id="matplotlib.axis_1">
    <g id="xtick_1">
     <g id="line2d_2">
      <defs>
       <path d="M 0 0 
L 0 3.5 
" id="m51b90baf2d" style="stroke:#000000;stroke-width:0.8;"/>
      </defs>
      <g>
       <use style="stroke:#000000;stroke-width:0.8;" x="91.666307" xlink:href="#m51b90baf2d" y="224.64"/>
      </g>
     </g>
     <g id="text_1">
      <!-- 0 -->
      <g transform="translate(83.395057 251.395937)scale(0.26 -0.26)">
       <defs>
        <path d="M 31.78125 66.40625 
Q 24.171875 66.40625 20.328125 58.90625 
Q 16.5 51.421875 16.5 36.375 
Q 16.5 21.390625 20.328125 13.890625 
Q 24.171875 6.390625 31.78125 6.390625 
Q 39.453125 6.390625 43.28125 13.890625 
Q 47.125 21.390625 47.125 36.375 
Q 47.125 51.421875 43.28125 58.90625 
Q 39.453125 66.40625 31.78125 66.40625 
z
M 31.78125 74.21875 
Q 44.046875 74.21875 50.515625 64.515625 
Q 56.984375 54.828125 56.984375 36.375 
Q 56.984375 17.96875 50.515625 8.265625 
Q 44.046875 -1.421875 31.78125 -1.421875 
Q 19.53125 -1.421875 13.0625 8.265625 
Q 6.59375 17.96875 6.59375 36.375 
Q 6.59375 54.828125 13.0625 64.515625 
Q 19.53125 74.21875 31.78125 74.21875 
z
" id="DejaVuSans-48"/>
       </defs>
       <use xlink:href="#DejaVuSans-48"/>
      </g>
     </g>
    </g>
    <g id="xtick_2">
     <g id="line2d_3">
      <g>
       <use style="stroke:#000000;stroke-width:0.8;" x="193.154682" xlink:href="#m51b90baf2d" y="224.64"/>
      </g>
     </g>
     <g id="text_2">
      <!-- 1 -->
      <g transform="translate(184.883432 251.395937)scale(0.26 -0.26)">
       <defs>
        <path d="M 12.40625 8.296875 
L 28.515625 8.296875 
L 28.515625 63.921875 
L 10.984375 60.40625 
L 10.984375 69.390625 
L 28.421875 72.90625 
L 38.28125 72.90625 
L 38.28125 8.296875 
L 54.390625 8.296875 
L 54.390625 0 
L 12.40625 0 
z
" id="DejaVuSans-49"/>
       </defs>
       <use xlink:href="#DejaVuSans-49"/>
      </g>
     </g>
    </g>
    <g id="xtick_3">
     <g id="line2d_4">
      <g>
       <use style="stroke:#000000;stroke-width:0.8;" x="294.643057" xlink:href="#m51b90baf2d" y="224.64"/>
      </g>
     </g>
     <g id="text_3">
      <!-- 2 -->
      <g transform="translate(286.371807 251.395937)scale(0.26 -0.26)">
       <defs>
        <path d="M 19.1875 8.296875 
L 53.609375 8.296875 
L 53.609375 0 
L 7.328125 0 
L 7.328125 8.296875 
Q 12.9375 14.109375 22.625 23.890625 
Q 32.328125 33.6875 34.8125 36.53125 
Q 39.546875 41.84375 41.421875 45.53125 
Q 43.3125 49.21875 43.3125 52.78125 
Q 43.3125 58.59375 39.234375 62.25 
Q 35.15625 65.921875 28.609375 65.921875 
Q 23.96875 65.921875 18.8125 64.3125 
Q 13.671875 62.703125 7.8125 59.421875 
L 7.8125 69.390625 
Q 13.765625 71.78125 18.9375 73 
Q 24.125 74.21875 28.421875 74.21875 
Q 39.75 74.21875 46.484375 68.546875 
Q 53.21875 62.890625 53.21875 53.421875 
Q 53.21875 48.921875 51.53125 44.890625 
Q 49.859375 40.875 45.40625 35.40625 
Q 44.1875 33.984375 37.640625 27.21875 
Q 31.109375 20.453125 19.1875 8.296875 
z
" id="DejaVuSans-50"/>
       </defs>
       <use xlink:href="#DejaVuSans-50"/>
      </g>
     </g>
    </g>
    <g id="xtick_4">
     <g id="line2d_5">
      <g>
       <use style="stroke:#000000;stroke-width:0.8;" x="396.131432" xlink:href="#m51b90baf2d" y="224.64"/>
      </g>
     </g>
     <g id="text_4">
      <!-- 3 -->
      <g transform="translate(387.860182 251.395937)scale(0.26 -0.26)">
       <defs>
        <path d="M 40.578125 39.3125 
Q 47.65625 37.796875 51.625 33 
Q 55.609375 28.21875 55.609375 21.1875 
Q 55.609375 10.40625 48.1875 4.484375 
Q 40.765625 -1.421875 27.09375 -1.421875 
Q 22.515625 -1.421875 17.65625 -0.515625 
Q 12.796875 0.390625 7.625 2.203125 
L 7.625 11.71875 
Q 11.71875 9.328125 16.59375 8.109375 
Q 21.484375 6.890625 26.8125 6.890625 
Q 36.078125 6.890625 40.9375 10.546875 
Q 45.796875 14.203125 45.796875 21.1875 
Q 45.796875 27.640625 41.28125 31.265625 
Q 36.765625 34.90625 28.71875 34.90625 
L 20.21875 34.90625 
L 20.21875 43.015625 
L 29.109375 43.015625 
Q 36.375 43.015625 40.234375 45.921875 
Q 44.09375 48.828125 44.09375 54.296875 
Q 44.09375 59.90625 40.109375 62.90625 
Q 36.140625 65.921875 28.71875 65.921875 
Q 24.65625 65.921875 20.015625 65.03125 
Q 15.375 64.15625 9.8125 62.3125 
L 9.8125 71.09375 
Q 15.4375 72.65625 20.34375 73.4375 
Q 25.25 74.21875 29.59375 74.21875 
Q 40.828125 74.21875 47.359375 69.109375 
Q 53.90625 64.015625 53.90625 55.328125 
Q 53.90625 49.265625 50.4375 45.09375 
Q 46.96875 40.921875 40.578125 39.3125 
z
" id="DejaVuSans-51"/>
       </defs>
       <use xlink:href="#DejaVuSans-51"/>
      </g>
     </g>
    </g>
    <g id="text_5">
     <!-- time (s) -->
     <g transform="translate(193.430469 280.559062)scale(0.26 -0.26)">
      <defs>
       <path d="M 18.3125 70.21875 
L 18.3125 54.6875 
L 36.8125 54.6875 
L 36.8125 47.703125 
L 18.3125 47.703125 
L 18.3125 18.015625 
Q 18.3125 11.328125 20.140625 9.421875 
Q 21.96875 7.515625 27.59375 7.515625 
L 36.8125 7.515625 
L 36.8125 0 
L 27.59375 0 
Q 17.1875 0 13.234375 3.875 
Q 9.28125 7.765625 9.28125 18.015625 
L 9.28125 47.703125 
L 2.6875 47.703125 
L 2.6875 54.6875 
L 9.28125 54.6875 
L 9.28125 70.21875 
z
" id="DejaVuSans-116"/>
       <path d="M 9.421875 54.6875 
L 18.40625 54.6875 
L 18.40625 0 
L 9.421875 0 
z
M 9.421875 75.984375 
L 18.40625 75.984375 
L 18.40625 64.59375 
L 9.421875 64.59375 
z
" id="DejaVuSans-105"/>
       <path d="M 52 44.1875 
Q 55.375 50.25 60.0625 53.125 
Q 64.75 56 71.09375 56 
Q 79.640625 56 84.28125 50.015625 
Q 88.921875 44.046875 88.921875 33.015625 
L 88.921875 0 
L 79.890625 0 
L 79.890625 32.71875 
Q 79.890625 40.578125 77.09375 44.375 
Q 74.3125 48.1875 68.609375 48.1875 
Q 61.625 48.1875 57.5625 43.546875 
Q 53.515625 38.921875 53.515625 30.90625 
L 53.515625 0 
L 44.484375 0 
L 44.484375 32.71875 
Q 44.484375 40.625 41.703125 44.40625 
Q 38.921875 48.1875 33.109375 48.1875 
Q 26.21875 48.1875 22.15625 43.53125 
Q 18.109375 38.875 18.109375 30.90625 
L 18.109375 0 
L 9.078125 0 
L 9.078125 54.6875 
L 18.109375 54.6875 
L 18.109375 46.1875 
Q 21.1875 51.21875 25.484375 53.609375 
Q 29.78125 56 35.6875 56 
Q 41.65625 56 45.828125 52.96875 
Q 50 49.953125 52 44.1875 
z
" id="DejaVuSans-109"/>
       <path d="M 56.203125 29.59375 
L 56.203125 25.203125 
L 14.890625 25.203125 
Q 15.484375 15.921875 20.484375 11.0625 
Q 25.484375 6.203125 34.421875 6.203125 
Q 39.59375 6.203125 44.453125 7.46875 
Q 49.3125 8.734375 54.109375 11.28125 
L 54.109375 2.78125 
Q 49.265625 0.734375 44.1875 -0.34375 
Q 39.109375 -1.421875 33.890625 -1.421875 
Q 20.796875 -1.421875 13.15625 6.1875 
Q 5.515625 13.8125 5.515625 26.8125 
Q 5.515625 40.234375 12.765625 48.109375 
Q 20.015625 56 32.328125 56 
Q 43.359375 56 49.78125 48.890625 
Q 56.203125 41.796875 56.203125 29.59375 
z
M 47.21875 32.234375 
Q 47.125 39.59375 43.09375 43.984375 
Q 39.0625 48.390625 32.421875 48.390625 
Q 24.90625 48.390625 20.390625 44.140625 
Q 15.875 39.890625 15.1875 32.171875 
z
" id="DejaVuSans-101"/>
       <path id="DejaVuSans-32"/>
       <path d="M 31 75.875 
Q 24.46875 64.65625 21.28125 53.65625 
Q 18.109375 42.671875 18.109375 31.390625 
Q 18.109375 20.125 21.3125 9.0625 
Q 24.515625 -2 31 -13.1875 
L 23.1875 -13.1875 
Q 15.875 -1.703125 12.234375 9.375 
Q 8.59375 20.453125 8.59375 31.390625 
Q 8.59375 42.28125 12.203125 53.3125 
Q 15.828125 64.359375 23.1875 75.875 
z
" id="DejaVuSans-40"/>
       <path d="M 44.28125 53.078125 
L 44.28125 44.578125 
Q 40.484375 46.53125 36.375 47.5 
Q 32.28125 48.484375 27.875 48.484375 
Q 21.1875 48.484375 17.84375 46.4375 
Q 14.5 44.390625 14.5 40.28125 
Q 14.5 37.15625 16.890625 35.375 
Q 19.28125 33.59375 26.515625 31.984375 
L 29.59375 31.296875 
Q 39.15625 29.25 43.1875 25.515625 
Q 47.21875 21.78125 47.21875 15.09375 
Q 47.21875 7.46875 41.1875 3.015625 
Q 35.15625 -1.421875 24.609375 -1.421875 
Q 20.21875 -1.421875 15.453125 -0.5625 
Q 10.6875 0.296875 5.421875 2 
L 5.421875 11.28125 
Q 10.40625 8.6875 15.234375 7.390625 
Q 20.0625 6.109375 24.8125 6.109375 
Q 31.15625 6.109375 34.5625 8.28125 
Q 37.984375 10.453125 37.984375 14.40625 
Q 37.984375 18.0625 35.515625 20.015625 
Q 33.0625 21.96875 24.703125 23.78125 
L 21.578125 24.515625 
Q 13.234375 26.265625 9.515625 29.90625 
Q 5.8125 33.546875 5.8125 39.890625 
Q 5.8125 47.609375 11.28125 51.796875 
Q 16.75 56 26.8125 56 
Q 31.78125 56 36.171875 55.265625 
Q 40.578125 54.546875 44.28125 53.078125 
z
" id="DejaVuSans-115"/>
       <path d="M 8.015625 75.875 
L 15.828125 75.875 
Q 23.140625 64.359375 26.78125 53.3125 
Q 30.421875 42.28125 30.421875 31.390625 
Q 30.421875 20.453125 26.78125 9.375 
Q 23.140625 -1.703125 15.828125 -13.1875 
L 8.015625 -13.1875 
Q 14.5 -2 17.703125 9.0625 
Q 20.90625 20.125 20.90625 31.390625 
Q 20.90625 42.671875 17.703125 53.65625 
Q 14.5 64.65625 8.015625 75.875 
z
" id="DejaVuSans-41"/>
      </defs>
      <use xlink:href="#DejaVuSans-116"/>
      <use x="39.208984" xlink:href="#DejaVuSans-105"/>
      <use x="66.992188" xlink:href="#DejaVuSans-109"/>
      <use x="164.404297" xlink:href="#DejaVuSans-101"/>
      <use x="225.927734" xlink:href="#DejaVuSans-32"/>
      <use x="257.714844" xlink:href="#DejaVuSans-40"/>
      <use x="296.728516" xlink:href="#DejaVuSans-115"/>
      <use x="348.828125" xlink:href="#DejaVuSans-41"/>
     </g>
    </g>
   </g>
   <g id="matplotlib.axis_2">
    <g id="ytick_1">
     <g id="line2d_6">
      <defs>
       <path d="M 0 0 
L -3.5 0 
" id="mfc3bd346ac" style="stroke:#000000;stroke-width:0.8;"/>
      </defs>
      <g>
       <use style="stroke:#000000;stroke-width:0.8;" x="76.448125" xlink:href="#mfc3bd346ac" y="214.756364"/>
      </g>
     </g>
     <g id="text_6">
      <!-- 0 -->
      <g transform="translate(52.905625 224.634332)scale(0.26 -0.26)">
       <use xlink:href="#DejaVuSans-48"/>
      </g>
     </g>
    </g>
    <g id="ytick_2">
     <g id="line2d_7">
      <g>
       <use style="stroke:#000000;stroke-width:0.8;" x="76.448125" xlink:href="#mfc3bd346ac" y="144.937961"/>
      </g>
     </g>
     <g id="text_7">
      <!-- 5 -->
      <g transform="translate(52.905625 154.81593)scale(0.26 -0.26)">
       <defs>
        <path d="M 10.796875 72.90625 
L 49.515625 72.90625 
L 49.515625 64.59375 
L 19.828125 64.59375 
L 19.828125 46.734375 
Q 21.96875 47.46875 24.109375 47.828125 
Q 26.265625 48.1875 28.421875 48.1875 
Q 40.625 48.1875 47.75 41.5 
Q 54.890625 34.8125 54.890625 23.390625 
Q 54.890625 11.625 47.5625 5.09375 
Q 40.234375 -1.421875 26.90625 -1.421875 
Q 22.3125 -1.421875 17.546875 -0.640625 
Q 12.796875 0.140625 7.71875 1.703125 
L 7.71875 11.625 
Q 12.109375 9.234375 16.796875 8.0625 
Q 21.484375 6.890625 26.703125 6.890625 
Q 35.15625 6.890625 40.078125 11.328125 
Q 45.015625 15.765625 45.015625 23.390625 
Q 45.015625 31 40.078125 35.4375 
Q 35.15625 39.890625 26.703125 39.890625 
Q 22.75 39.890625 18.8125 39.015625 
Q 14.890625 38.140625 10.796875 36.28125 
z
" id="DejaVuSans-53"/>
       </defs>
       <use xlink:href="#DejaVuSans-53"/>
      </g>
     </g>
    </g>
    <g id="ytick_3">
     <g id="line2d_8">
      <g>
       <use style="stroke:#000000;stroke-width:0.8;" x="76.448125" xlink:href="#mfc3bd346ac" y="75.119559"/>
      </g>
     </g>
     <g id="text_8">
      <!-- 10 -->
      <g transform="translate(36.363125 84.997527)scale(0.26 -0.26)">
       <use xlink:href="#DejaVuSans-49"/>
       <use x="63.623047" xlink:href="#DejaVuSans-48"/>
      </g>
     </g>
    </g>
    <g id="text_9">
     <!-- amplitude (a.u.) -->
     <g transform="translate(26.955937 220.356719)rotate(-90)scale(0.26 -0.26)">
      <defs>
       <path d="M 34.28125 27.484375 
Q 23.390625 27.484375 19.1875 25 
Q 14.984375 22.515625 14.984375 16.5 
Q 14.984375 11.71875 18.140625 8.90625 
Q 21.296875 6.109375 26.703125 6.109375 
Q 34.1875 6.109375 38.703125 11.40625 
Q 43.21875 16.703125 43.21875 25.484375 
L 43.21875 27.484375 
z
M 52.203125 31.203125 
L 52.203125 0 
L 43.21875 0 
L 43.21875 8.296875 
Q 40.140625 3.328125 35.546875 0.953125 
Q 30.953125 -1.421875 24.3125 -1.421875 
Q 15.921875 -1.421875 10.953125 3.296875 
Q 6 8.015625 6 15.921875 
Q 6 25.140625 12.171875 29.828125 
Q 18.359375 34.515625 30.609375 34.515625 
L 43.21875 34.515625 
L 43.21875 35.40625 
Q 43.21875 41.609375 39.140625 45 
Q 35.0625 48.390625 27.6875 48.390625 
Q 23 48.390625 18.546875 47.265625 
Q 14.109375 46.140625 10.015625 43.890625 
L 10.015625 52.203125 
Q 14.9375 54.109375 19.578125 55.046875 
Q 24.21875 56 28.609375 56 
Q 40.484375 56 46.34375 49.84375 
Q 52.203125 43.703125 52.203125 31.203125 
z
" id="DejaVuSans-97"/>
       <path d="M 18.109375 8.203125 
L 18.109375 -20.796875 
L 9.078125 -20.796875 
L 9.078125 54.6875 
L 18.109375 54.6875 
L 18.109375 46.390625 
Q 20.953125 51.265625 25.265625 53.625 
Q 29.59375 56 35.59375 56 
Q 45.5625 56 51.78125 48.09375 
Q 58.015625 40.1875 58.015625 27.296875 
Q 58.015625 14.40625 51.78125 6.484375 
Q 45.5625 -1.421875 35.59375 -1.421875 
Q 29.59375 -1.421875 25.265625 0.953125 
Q 20.953125 3.328125 18.109375 8.203125 
z
M 48.6875 27.296875 
Q 48.6875 37.203125 44.609375 42.84375 
Q 40.53125 48.484375 33.40625 48.484375 
Q 26.265625 48.484375 22.1875 42.84375 
Q 18.109375 37.203125 18.109375 27.296875 
Q 18.109375 17.390625 22.1875 11.75 
Q 26.265625 6.109375 33.40625 6.109375 
Q 40.53125 6.109375 44.609375 11.75 
Q 48.6875 17.390625 48.6875 27.296875 
z
" id="DejaVuSans-112"/>
       <path d="M 9.421875 75.984375 
L 18.40625 75.984375 
L 18.40625 0 
L 9.421875 0 
z
" id="DejaVuSans-108"/>
       <path d="M 8.5 21.578125 
L 8.5 54.6875 
L 17.484375 54.6875 
L 17.484375 21.921875 
Q 17.484375 14.15625 20.5 10.265625 
Q 23.53125 6.390625 29.59375 6.390625 
Q 36.859375 6.390625 41.078125 11.03125 
Q 45.3125 15.671875 45.3125 23.6875 
L 45.3125 54.6875 
L 54.296875 54.6875 
L 54.296875 0 
L 45.3125 0 
L 45.3125 8.40625 
Q 42.046875 3.421875 37.71875 1 
Q 33.40625 -1.421875 27.6875 -1.421875 
Q 18.265625 -1.421875 13.375 4.4375 
Q 8.5 10.296875 8.5 21.578125 
z
M 31.109375 56 
z
" id="DejaVuSans-117"/>
       <path d="M 45.40625 46.390625 
L 45.40625 75.984375 
L 54.390625 75.984375 
L 54.390625 0 
L 45.40625 0 
L 45.40625 8.203125 
Q 42.578125 3.328125 38.25 0.953125 
Q 33.9375 -1.421875 27.875 -1.421875 
Q 17.96875 -1.421875 11.734375 6.484375 
Q 5.515625 14.40625 5.515625 27.296875 
Q 5.515625 40.1875 11.734375 48.09375 
Q 17.96875 56 27.875 56 
Q 33.9375 56 38.25 53.625 
Q 42.578125 51.265625 45.40625 46.390625 
z
M 14.796875 27.296875 
Q 14.796875 17.390625 18.875 11.75 
Q 22.953125 6.109375 30.078125 6.109375 
Q 37.203125 6.109375 41.296875 11.75 
Q 45.40625 17.390625 45.40625 27.296875 
Q 45.40625 37.203125 41.296875 42.84375 
Q 37.203125 48.484375 30.078125 48.484375 
Q 22.953125 48.484375 18.875 42.84375 
Q 14.796875 37.203125 14.796875 27.296875 
z
" id="DejaVuSans-100"/>
       <path d="M 10.6875 12.40625 
L 21 12.40625 
L 21 0 
L 10.6875 0 
z
" id="DejaVuSans-46"/>
      </defs>
      <use xlink:href="#DejaVuSans-97"/>
      <use x="61.279297" xlink:href="#DejaVuSans-109"/>
      <use x="158.691406" xlink:href="#DejaVuSans-112"/>
      <use x="222.167969" xlink:href="#DejaVuSans-108"/>
      <use x="249.951172" xlink:href="#DejaVuSans-105"/>
      <use x="277.734375" xlink:href="#DejaVuSans-116"/>
      <use x="316.943359" xlink:href="#DejaVuSans-117"/>
      <use x="380.322266" xlink:href="#DejaVuSans-100"/>
      <use x="443.798828" xlink:href="#DejaVuSans-101"/>
      <use x="505.322266" xlink:href="#DejaVuSans-32"/>
      <use x="537.109375" xlink:href="#DejaVuSans-40"/>
      <use x="576.123047" xlink:href="#DejaVuSans-97"/>
      <use x="637.402344" xlink:href="#DejaVuSans-46"/>
      <use x="669.189453" xlink:href="#DejaVuSans-117"/>
      <use x="732.568359" xlink:href="#DejaVuSans-46"/>
      <use x="764.355469" xlink:href="#DejaVuSans-41"/>
     </g>
    </g>
   </g>
   <g id="line2d_9">
    <path clip-path="url(#p04bb9ca591)" d="M 91.666307 214.756364 
L 91.767795 214.756364 
L 91.970772 207.029856 
L 92.884167 161.304684 
L 93.391609 149.467595 
L 94.203516 136.490261 
L 94.60947 132.273451 
L 94.812446 131.902441 
L 94.913935 131.775981 
L 95.015423 131.292274 
L 95.2184 128.516484 
L 95.522865 119.215131 
L 97.654121 40.683243 
L 97.857098 38.259119 
L 97.958586 38.24125 
L 98.161563 40.681681 
L 98.567516 48.003479 
L 98.669005 46.842647 
L 98.97347 35.032923 
L 99.379423 20.750499 
L 99.480912 20.04189 
L 99.5824 20.799236 
L 99.886865 27.001606 
L 100.495795 43.816496 
L 100.800261 58.360154 
L 101.713656 109.579176 
L 103.134493 157.457935 
L 103.438958 162.551695 
L 103.641935 163.674232 
L 103.743423 163.542736 
L 103.9464 161.941404 
L 104.250865 156.709722 
L 104.859796 144.348287 
L 104.961284 145.587876 
L 105.265749 152.072812 
L 105.367237 151.906759 
L 105.570214 147.571746 
L 106.077656 132.409418 
L 106.382121 130.100751 
L 106.585098 128.34639 
L 106.889563 122.800437 
L 109.528261 60.603864 
L 109.731238 59.144655 
L 109.832726 59.009563 
L 109.934214 59.336163 
L 110.137191 61.384087 
L 110.746121 69.54401 
L 110.84761 69.528363 
L 111.152075 68.896012 
L 111.253563 69.060799 
L 111.45654 70.577042 
L 111.761005 76.035544 
L 112.471424 96.147756 
L 114.298214 145.764585 
L 114.60268 148.933982 
L 114.805656 149.628026 
L 114.907145 149.568417 
L 115.110121 148.763474 
L 115.414587 146.440047 
L 115.922028 140.483648 
L 117.038401 127.123342 
L 117.850308 119.426245 
L 118.357749 109.389509 
L 118.96668 98.239664 
L 120.590494 76.219988 
L 120.894959 74.661121 
L 121.097936 74.506147 
L 121.300912 75.034924 
L 121.503889 76.386923 
L 121.808354 80.123759 
L 122.315796 89.646918 
L 122.924726 106.333102 
L 124.041098 139.286858 
L 124.54854 147.823623 
L 124.853005 150.305424 
L 125.055982 150.737089 
L 125.157471 150.545915 
L 125.360447 149.417108 
L 125.766401 144.994848 
L 127.796168 118.988231 
L 128.202122 116.45532 
L 128.405099 113.653034 
L 128.811052 103.424855 
L 129.419982 88.672892 
L 130.028913 80.161516 
L 130.637843 73.279978 
L 130.84082 72.599987 
L 130.942308 72.706036 
L 131.145285 73.758917 
L 131.551238 77.960058 
L 132.05868 86.099687 
L 132.769099 101.502972 
L 134.291424 137.066915 
L 134.697378 140.764385 
L 135.001843 141.689245 
L 135.20482 141.792064 
L 135.407796 141.646724 
L 135.81375 140.94012 
L 136.118215 139.750908 
L 136.42268 137.418294 
L 136.828634 132.13038 
L 139.670308 89.35101 
L 140.076262 86.67521 
L 140.583704 84.585875 
L 140.78668 84.172595 
L 140.888169 84.167419 
L 141.091145 84.643978 
L 141.395611 86.464272 
L 141.700076 89.861165 
L 142.309006 100.576986 
L 144.338773 141.572998 
L 144.643239 143.734881 
L 144.846215 143.936104 
L 145.049192 143.41517 
L 145.353657 141.457216 
L 146.571518 129.411327 
L 147.180448 121.612251 
L 149.007239 93.378583 
L 150.123611 83.157042 
L 150.326588 82.544461 
L 150.428076 82.553141 
L 150.631053 83.136103 
L 150.935518 85.456285 
L 151.341471 91.134552 
L 152.153378 106.651497 
L 153.980169 141.756069 
L 154.284634 143.711771 
L 154.386123 143.761783 
L 154.589099 143.015325 
L 154.893564 140.47118 
L 156.821844 118.171928 
L 158.648634 88.157866 
L 158.953099 85.867237 
L 159.156076 85.281359 
L 159.359053 85.256519 
L 159.56203 85.652469 
L 159.866495 86.727485 
L 160.17096 88.693126 
L 160.576913 93.17504 
L 161.591797 107.341765 
L 162.606681 127.010791 
L 163.215611 137.574855 
L 163.520076 140.32359 
L 163.723053 140.690515 
L 163.92603 140.046078 
L 164.230495 137.883697 
L 165.14389 130.189957 
L 166.057286 125.067606 
L 166.463239 120.046371 
L 167.985565 97.959343 
L 168.89896 87.452678 
L 169.203425 86.140209 
L 169.406402 86.028636 
L 169.609379 86.582738 
L 169.913844 88.213957 
L 170.319797 91.727001 
L 170.725751 97.737481 
L 172.755518 133.949276 
L 173.26296 138.639727 
L 173.465937 139.43578 
L 173.567425 139.499275 
L 173.770402 139.006437 
L 174.074867 137.083823 
L 174.683797 130.938428 
L 176.104635 114.221851 
L 177.423984 93.556443 
L 177.931425 88.026491 
L 178.235891 86.672485 
L 178.337379 86.728045 
L 178.540356 87.569684 
L 178.844821 90.18811 
L 180.265658 106.766378 
L 180.874588 117.24396 
L 181.787984 133.599766 
L 182.193937 137.634869 
L 182.396914 138.457325 
L 182.498402 138.5618 
L 182.599891 138.459186 
L 182.802867 137.727118 
L 183.208821 135.019083 
L 184.52817 124.587465 
L 185.1371 115.968686 
L 186.151984 98.560538 
L 186.760914 89.096152 
L 187.065379 86.818059 
L 187.268356 86.272764 
L 187.471333 86.208337 
L 187.674309 86.403823 
L 187.978775 87.207367 
L 188.28324 88.509715 
L 188.587705 90.804551 
L 188.993658 96.003684 
L 189.602589 107.064952 
L 190.921937 133.543051 
L 191.429379 139.749061 
L 191.733844 141.703931 
L 191.936821 142.194298 
L 192.03831 142.150477 
L 192.241286 141.467234 
L 192.545751 139.340363 
L 193.25617 131.964453 
L 194.474031 119.210525 
L 195.184449 105.843622 
L 196.097845 90.727155 
L 196.503798 86.612096 
L 196.808263 85.084501 
L 197.112728 84.539655 
L 197.214217 84.603389 
L 197.417193 85.186279 
L 197.823147 87.457695 
L 198.2291 90.733305 
L 198.635054 95.966101 
L 199.243984 107.781429 
L 200.664821 137.772032 
L 201.070775 142.458593 
L 201.37524 144.071879 
L 201.578217 144.279331 
L 201.781194 143.813464 
L 202.085659 141.977761 
L 202.593101 136.88972 
L 203.405008 126.229345 
L 204.419891 109.962414 
L 205.942217 79.630455 
L 206.34817 76.665624 
L 206.551147 76.397771 
L 206.754124 77.006028 
L 207.058589 79.445078 
L 207.566031 86.151521 
L 208.174961 98.224714 
L 209.088357 121.958477 
L 209.697287 135.77901 
L 210.10324 141.213975 
L 210.407705 143.054956 
L 210.610682 143.358412 
L 210.712171 143.283123 
L 210.915147 142.699644 
L 211.219612 140.799757 
L 211.828543 135.13975 
L 212.944915 122.406659 
L 213.655333 109.866445 
L 215.076171 86.506778 
L 215.482124 82.18999 
L 215.685101 81.635005 
L 215.786589 81.706468 
L 215.989566 82.281446 
L 216.39552 84.542944 
L 216.801473 88.18551 
L 217.308915 94.981557 
L 218.22231 112.471998 
L 220.049101 146.23625 
L 220.252078 146.839213 
L 220.353566 146.733283 
L 220.556543 145.711751 
L 220.861008 142.496254 
L 223.195241 108.54121 
L 224.108636 93.39229 
L 225.022031 82.407077 
L 225.326497 80.480853 
L 225.529473 80.096713 
L 225.630962 80.194896 
L 225.833938 80.959499 
L 226.138404 83.144803 
L 226.544357 88.193205 
L 227.153287 99.072666 
L 228.980078 137.512515 
L 229.183055 138.612489 
L 229.386032 138.804587 
L 229.791985 138.402596 
L 230.400915 137.48073 
L 230.70538 136.623469 
L 231.009846 134.632725 
L 231.415799 129.550875 
L 232.227706 115.024022 
L 233.648543 90.080638 
L 234.155985 85.52604 
L 234.46045 84.207961 
L 234.764915 83.646781 
L 234.967892 83.570812 
L 235.170869 83.878553 
L 235.373846 84.794 
L 235.678311 87.915342 
L 236.084264 96.03784 
L 237.403613 127.787055 
L 238.012543 137.312274 
L 238.418497 140.532582 
L 238.621474 141.173691 
L 238.722962 141.236275 
L 238.925939 140.766542 
L 239.128916 139.524131 
L 239.737846 133.210113 
L 240.955706 120.010756 
L 241.666125 108.083067 
L 242.883985 88.483541 
L 243.391427 81.301434 
L 243.695892 79.281499 
L 243.898869 79.045229 
L 244.101846 79.722044 
L 244.406311 82.188842 
L 244.812265 88.211914 
L 245.319706 98.98947 
L 246.639055 129.428201 
L 247.247986 138.537497 
L 247.653939 142.103178 
L 247.958404 143.360745 
L 248.059893 143.449462 
L 248.161381 143.382951 
L 248.364358 142.830441 
L 248.668823 141.126952 
L 249.074776 137.282999 
L 249.582218 129.77031 
L 252.525381 80.161296 
L 252.829846 78.634913 
L 253.032823 78.439899 
L 253.2358 78.816878 
L 253.540265 80.395602 
L 253.84473 83.240516 
L 254.250683 89.507498 
L 254.859614 103.928321 
L 256.077474 132.653806 
L 256.584916 140.035569 
L 256.99087 142.898429 
L 257.193846 143.34459 
L 257.295335 143.27659 
L 257.498311 142.473046 
L 258.005753 138.264609 
L 259.020637 128.690648 
L 259.426591 121.961758 
L 261.35487 85.497583 
L 261.862312 79.768524 
L 262.166777 78.178029 
L 262.369753 77.807072 
L 262.57273 77.919568 
L 262.775707 78.390745 
L 263.080172 79.99514 
L 263.384637 83.426262 
L 263.892079 93.028319 
L 264.602498 112.585507 
L 265.515893 137.440635 
L 265.921847 144.342329 
L 266.226312 146.758231 
L 266.3278 146.945392 
L 266.429288 146.868219 
L 266.632265 146.021538 
L 267.038219 142.608314 
L 267.850126 132.616819 
L 268.662033 119.552117 
L 270.08287 92.541709 
L 270.793289 78.938877 
L 271.199242 74.878543 
L 271.503707 73.843707 
L 271.605196 73.902869 
L 271.808172 74.516375 
L 272.112637 76.471457 
L 272.417103 79.839466 
L 272.823056 86.954044 
L 273.330498 100.407441 
L 274.649847 139.24539 
L 275.0558 145.525312 
L 275.360265 147.585365 
L 275.563242 148.084878 
L 275.664731 148.06929 
L 275.867707 147.551842 
L 276.172172 145.748274 
L 276.679614 140.650129 
L 277.390033 130.79697 
L 278.20194 115.201757 
L 280.333196 69.63829 
L 280.637661 67.259555 
L 280.840638 66.874233 
L 281.043614 67.483888 
L 281.34808 69.892962 
L 281.754033 75.513546 
L 282.261475 86.166501 
L 283.073382 109.330634 
L 284.291242 145.523996 
L 284.697196 150.559116 
L 284.900173 151.391023 
L 285.001661 151.474613 
L 285.103149 151.371261 
L 285.306126 150.610006 
L 285.610591 148.231994 
L 286.118033 142.1236 
L 286.726963 131.53527 
L 288.147801 102.264312 
L 289.061196 78.682137 
L 289.771615 67.639881 
L 290.07608 65.093784 
L 290.279057 64.685288 
L 290.380545 64.875312 
L 290.583522 65.926332 
L 290.989475 69.805828 
L 291.395429 75.918798 
L 291.801382 85.670596 
L 292.511801 109.565101 
L 293.729661 150.464099 
L 294.034126 155.630762 
L 294.237103 156.735333 
L 294.338592 156.634212 
L 294.541568 155.306335 
L 294.846033 151.3237 
L 295.454964 139.6093 
L 297.078778 104.765172 
L 297.890685 81.185717 
L 298.296638 75.041115 
L 298.499615 74.016643 
L 298.702592 73.957136 
L 298.80408 73.935079 
L 298.905568 73.627461 
L 299.108545 71.477118 
L 300.021941 55.625934 
L 300.123429 55.972493 
L 300.326406 58.240467 
L 300.732359 67.403481 
L 301.747243 98.783696 
L 303.066592 143.237304 
L 303.574034 154.137753 
L 303.878499 157.441668 
L 304.081476 157.975347 
L 304.182964 157.781362 
L 304.385941 156.480297 
L 304.690406 152.291057 
L 305.197848 140.461944 
L 307.633569 74.228278 
L 307.938034 71.379195 
L 308.039522 71.285362 
L 308.343987 71.795053 
L 308.445476 71.410435 
L 308.648452 68.78613 
L 309.257383 57.199375 
L 309.358871 56.663784 
L 309.460359 56.742648 
L 309.663336 58.580714 
L 309.967801 64.688698 
L 310.881197 91.946193 
L 312.707987 146.764817 
L 313.113941 151.622652 
L 313.316918 152.497027 
L 313.418406 152.569821 
L 313.519894 152.356942 
L 313.722871 150.974558 
L 314.027336 147.021298 
L 314.737755 133.282056 
L 315.65115 117.253735 
L 316.057104 108.994721 
L 317.477941 72.272279 
L 318.18836 62.811832 
L 318.391336 61.665476 
L 318.492825 61.544652 
L 318.594313 61.762218 
L 318.79729 63.155425 
L 319.101755 67.384796 
L 319.609197 78.673387 
L 320.319615 100.408178 
L 321.638964 142.865242 
L 322.044918 149.852748 
L 322.349383 152.007151 
L 322.450871 152.06533 
L 322.653848 151.292535 
L 322.958313 148.241999 
L 323.465755 139.380535 
L 324.37915 123.415783 
L 324.988081 114.062346 
L 325.495523 100.658285 
L 326.30743 79.462207 
L 326.91636 68.965738 
L 327.322313 65.21602 
L 327.52529 64.79035 
L 327.626778 64.963933 
L 327.829755 66.021068 
L 328.13422 69.137997 
L 328.540174 75.95634 
L 329.047616 89.59649 
L 330.67143 139.358351 
L 331.28036 149.892506 
L 331.584825 152.662823 
L 331.787802 153.27159 
L 331.88929 153.183366 
L 332.092267 152.156074 
L 332.396732 148.31372 
L 333.005662 135.34799 
L 333.919058 115.849335 
L 334.527988 104.666203 
L 335.136918 83.868108 
L 335.64436 70.016266 
L 336.151802 62.253429 
L 336.659244 57.217924 
L 336.862221 56.656153 
L 336.963709 56.834838 
L 337.166686 58.20562 
L 337.471151 62.864945 
L 337.877104 73.86431 
L 338.689011 105.090236 
L 339.805383 146.364324 
L 340.211337 154.011245 
L 340.414314 155.451796 
L 340.515802 155.561087 
L 340.718779 154.743773 
L 341.023244 151.721103 
L 341.632174 142.413407 
L 342.54557 124.780263 
L 343.76343 100.960514 
L 344.270872 93.765371 
L 344.575337 82.332148 
L 345.184267 55.74874 
L 345.488732 49.299106 
L 345.691709 47.608457 
L 345.894686 47.265284 
L 346.097663 47.735795 
L 346.300639 48.770433 
L 346.605105 51.723561 
L 347.011058 59.1047 
L 347.417012 71.337059 
L 348.228919 106.369111 
L 349.142314 142.419111 
L 349.649756 154.968134 
L 349.954221 157.642681 
L 350.055709 157.69876 
L 350.258686 156.697594 
L 350.563151 152.876883 
L 351.070593 142.799674 
L 352.694407 100.805059 
L 353.303337 81.538797 
L 353.709291 74.41772 
L 353.912268 73.191728 
L 354.013756 73.142026 
L 354.419709 74.174373 
L 354.521198 73.535366 
L 354.724175 69.771149 
L 355.333105 54.757445 
L 355.536082 53.783414 
L 355.63757 54.296961 
L 355.840547 57.088769 
L 356.2465 67.616013 
L 357.667337 115.783249 
L 358.479244 141.506129 
L 358.885198 148.930004 
L 359.189663 151.226915 
L 359.39264 151.428374 
L 359.595617 150.813525 
L 359.900082 148.73428 
L 360.509012 142.527266 
L 361.016454 134.950379 
L 361.726872 119.584556 
L 362.538779 96.961215 
L 363.655152 64.967127 
L 364.162593 57.065223 
L 364.467059 55.091601 
L 364.568547 54.9405 
L 364.670035 55.060629 
L 364.873012 56.084713 
L 365.177477 59.871876 
L 365.583431 68.742932 
L 366.090873 84.925639 
L 367.816175 147.559814 
L 368.222128 155.589937 
L 368.526594 158.193375 
L 368.628082 158.33202 
L 368.72957 158.078892 
L 368.932547 156.415486 
L 369.237012 151.3617 
L 369.744454 138.007846 
L 371.774222 79.176899 
L 372.078687 75.413636 
L 372.281663 74.908987 
L 372.48464 74.903405 
L 372.586129 74.45581 
L 372.789105 71.663564 
L 373.601012 54.16498 
L 373.702501 53.89976 
L 373.803989 54.157994 
L 374.006966 56.257071 
L 374.311431 62.730233 
L 375.732268 103.533511 
L 377.254594 156.063521 
L 377.559059 158.307511 
L 377.660547 158.301602 
L 377.863524 157.313465 
L 378.167989 153.661267 
L 378.675431 143.502647 
L 379.690315 116.74101 
L 380.60371 89.848534 
L 381.21264 71.174989 
L 381.517106 67.046299 
L 381.720082 66.601468 
L 381.923059 66.728804 
L 382.024547 66.278045 
L 382.227524 62.999875 
L 382.937943 45.740885 
L 383.039431 45.305749 
L 383.14092 45.54472 
L 383.343896 47.946575 
L 383.648361 55.650809 
L 384.35878 82.72758 
L 385.576641 127.088465 
L 386.287059 146.184338 
L 386.794501 155.217827 
L 387.098966 157.955744 
L 387.301943 158.363002 
L 387.403431 158.122609 
L 387.606408 156.626291 
L 387.910873 152.091702 
L 388.418315 139.546666 
L 389.839152 100.583223 
L 390.245106 94.565364 
L 390.448083 92.12702 
L 390.651059 86.987084 
L 391.564455 54.11738 
L 391.86892 50.836329 
L 392.173385 50.01546 
L 392.376362 50.030858 
L 392.579338 50.21949 
L 392.782315 50.871384 
L 392.985292 52.524716 
L 393.289757 57.746941 
L 393.695711 70.335704 
L 394.812083 117.384308 
L 395.62399 148.962023 
L 396.029943 158.169535 
L 396.029943 158.169535 
" style="fill:none;stroke:#ff7f0e;stroke-linecap:square;stroke-width:1.5;"/>
   </g>
   <g id="patch_3">
    <path d="M 76.448125 224.64 
L 76.448125 7.2 
" style="fill:none;stroke:#000000;stroke-linecap:square;stroke-linejoin:miter;stroke-width:0.8;"/>
   </g>
   <g id="patch_4">
    <path d="M 411.248125 224.64 
L 411.248125 7.2 
" style="fill:none;stroke:#000000;stroke-linecap:square;stroke-linejoin:miter;stroke-width:0.8;"/>
   </g>
   <g id="patch_5">
    <path d="M 76.448125 224.64 
L 411.248125 224.64 
" style="fill:none;stroke:#000000;stroke-linecap:square;stroke-linejoin:miter;stroke-width:0.8;"/>
   </g>
   <g id="patch_6">
    <path d="M 76.448125 7.2 
L 411.248125 7.2 
" style="fill:none;stroke:#000000;stroke-linecap:square;stroke-linejoin:miter;stroke-width:0.8;"/>
   </g>
   <g id="legend_1">
    <g id="line2d_10">
     <path d="M 438.388125 28.255937 
L 490.388125 28.255937 
" style="fill:none;stroke:#1f77b4;stroke-linecap:square;stroke-width:1.5;"/>
    </g>
    <g id="line2d_11"/>
    <g id="text_10">
     <!-- exact -->
     <g transform="translate(511.188125 37.355937)scale(0.26 -0.26)">
      <defs>
       <path d="M 54.890625 54.6875 
L 35.109375 28.078125 
L 55.90625 0 
L 45.3125 0 
L 29.390625 21.484375 
L 13.484375 0 
L 2.875 0 
L 24.125 28.609375 
L 4.6875 54.6875 
L 15.28125 54.6875 
L 29.78125 35.203125 
L 44.28125 54.6875 
z
" id="DejaVuSans-120"/>
       <path d="M 48.78125 52.59375 
L 48.78125 44.1875 
Q 44.96875 46.296875 41.140625 47.34375 
Q 37.3125 48.390625 33.40625 48.390625 
Q 24.65625 48.390625 19.8125 42.84375 
Q 14.984375 37.3125 14.984375 27.296875 
Q 14.984375 17.28125 19.8125 11.734375 
Q 24.65625 6.203125 33.40625 6.203125 
Q 37.3125 6.203125 41.140625 7.25 
Q 44.96875 8.296875 48.78125 10.40625 
L 48.78125 2.09375 
Q 45.015625 0.34375 40.984375 -0.53125 
Q 36.96875 -1.421875 32.421875 -1.421875 
Q 20.0625 -1.421875 12.78125 6.34375 
Q 5.515625 14.109375 5.515625 27.296875 
Q 5.515625 40.671875 12.859375 48.328125 
Q 20.21875 56 33.015625 56 
Q 37.15625 56 41.109375 55.140625 
Q 45.0625 54.296875 48.78125 52.59375 
z
" id="DejaVuSans-99"/>
      </defs>
      <use xlink:href="#DejaVuSans-101"/>
      <use x="59.773438" xlink:href="#DejaVuSans-120"/>
      <use x="118.953125" xlink:href="#DejaVuSans-97"/>
      <use x="180.232422" xlink:href="#DejaVuSans-99"/>
      <use x="235.212891" xlink:href="#DejaVuSans-116"/>
     </g>
    </g>
    <g id="line2d_12">
     <path d="M 438.388125 66.419062 
L 490.388125 66.419062 
" style="fill:none;stroke:#ff7f0e;stroke-linecap:square;stroke-width:1.5;"/>
    </g>
    <g id="line2d_13"/>
    <g id="text_11">
     <!-- estimated -->
     <g transform="translate(511.188125 75.519062)scale(0.26 -0.26)">
      <use xlink:href="#DejaVuSans-101"/>
      <use x="61.523438" xlink:href="#DejaVuSans-115"/>
      <use x="113.623047" xlink:href="#DejaVuSans-116"/>
      <use x="152.832031" xlink:href="#DejaVuSans-105"/>
      <use x="180.615234" xlink:href="#DejaVuSans-109"/>
      <use x="278.027344" xlink:href="#DejaVuSans-97"/>
      <use x="339.306641" xlink:href="#DejaVuSans-116"/>
      <use x="378.515625" xlink:href="#DejaVuSans-101"/>
      <use x="440.039062" xlink:href="#DejaVuSans-100"/>
     </g>
    </g>
   </g>
  </g>
 </g>
 <defs>
  <clipPath id="p04bb9ca591">
   <rect height="217.44" width="334.8" x="76.448125" y="7.2"/>
  </clipPath>
 </defs>
</svg>
