<?xml version="1.0" encoding="utf-8" standalone="no"?>
<!DOCTYPE svg PUBLIC "-//W3C//DTD SVG 1.1//EN"
  "http://www.w3.org/Graphics/SVG/1.1/DTD/svg11.dtd">
<!-- Created with matplotlib (https://matplotlib.org/) -->
<svg height="323.362pt" version="1.1" viewBox="0 0 684.507812 323.362" width="684.507812pt" xmlns="http://www.w3.org/2000/svg" xmlns:xlink="http://www.w3.org/1999/xlink">
 <metadata>
  <rdf:RDF xmlns:cc="http://creativecommons.org/ns#" xmlns:dc="http://purl.org/dc/elements/1.1/" xmlns:rdf="http://www.w3.org/1999/02/22-rdf-syntax-ns#">
   <cc:Work>
    <dc:type rdf:resource="http://purl.org/dc/dcmitype/StillImage"/>
    <dc:date>2021-09-06T21:54:17.836699</dc:date>
    <dc:format>image/svg+xml</dc:format>
    <dc:creator>
     <cc:Agent>
      <dc:title>Matplotlib v3.3.2, https://matplotlib.org/</dc:title>
     </cc:Agent>
    </dc:creator>
   </cc:Work>
  </rdf:RDF>
 </metadata>
 <defs>
  <style type="text/css">*{stroke-linecap:butt;stroke-linejoin:round;}</style>
 </defs>
 <g id="figure_1">
  <g id="patch_1">
   <path d="M 0 323.362 
L 684.507812 323.362 
L 684.507812 0 
L 0 0 
z
" style="fill:#ffffff;"/>
  </g>
  <g id="axes_1">
   <g id="patch_2">
    <path d="M 101.25375 254.83575 
L 436.05375 254.83575 
L 436.05375 37.39575 
L 101.25375 37.39575 
z
" style="fill:#ffffff;"/>
   </g>
   <g id="line2d_1">
    <path clip-path="url(#p20d95a81ca)" d="M 116.471932 106.908273 
L 116.57342 95.67503 
L 116.674909 98.425643 
L 116.776397 82.095432 
L 116.979374 110.945241 
L 117.080862 114.960588 
L 117.283839 83.180332 
L 117.385327 98.558727 
L 117.486816 88.365002 
L 117.689792 105.102692 
L 117.791281 83.715796 
L 117.892769 121.028151 
L 118.095746 95.242531 
L 118.197234 107.614774 
L 118.400211 86.880922 
L 118.603188 100.610777 
L 118.704676 101.518456 
L 118.806164 104.36232 
L 118.907653 98.417113 
L 119.009141 101.690253 
L 119.11063 99.4633 
L 119.212118 68.788204 
L 119.313606 106.077486 
L 119.618071 75.314654 
L 119.71956 107.929139 
L 119.821048 97.679052 
L 119.922537 104.975312 
L 120.125513 86.296 
L 120.227002 105.409093 
L 120.429978 88.149502 
L 120.734444 105.941943 
L 120.835932 80.918004 
L 120.93742 102.028043 
L 121.038909 100.432742 
L 121.140397 100.629972 
L 121.343374 84.72839 
L 121.444862 99.421092 
L 121.546351 97.354291 
L 121.647839 91.929451 
L 121.749327 95.318871 
L 121.952304 85.51798 
L 122.053792 104.417933 
L 122.256769 98.065758 
L 122.358258 102.851037 
L 122.459746 121.941812 
L 122.561234 106.215752 
L 122.662723 106.345023 
L 122.865699 92.80863 
L 123.068676 94.579801 
L 123.271653 113.524157 
L 123.373141 88.912845 
L 123.47463 113.698057 
L 123.576118 76.332522 
L 123.779095 96.417849 
L 123.880583 93.445846 
L 123.982072 102.710709 
L 124.08356 89.850891 
L 124.286537 106.833362 
L 124.489513 68.135131 
L 124.591002 109.888403 
L 124.793979 83.30149 
L 124.895467 103.141873 
L 124.996955 83.027126 
L 125.098444 86.020458 
L 125.30142 99.722542 
L 125.402909 87.625755 
L 125.504397 106.312627 
L 125.707374 82.643268 
L 125.910351 87.021701 
L 126.011839 108.551284 
L 126.113327 90.558806 
L 126.316304 109.448507 
L 126.417793 99.487971 
L 126.519281 113.561255 
L 126.722258 99.337514 
L 126.925234 86.4395 
L 127.026723 113.270354 
L 127.128211 112.480753 
L 127.2297 120.306457 
L 127.331188 88.954259 
L 127.432676 105.551018 
L 127.534165 104.204839 
L 127.83863 90.692073 
L 127.940118 121.62902 
L 128.041607 100.300279 
L 128.143095 111.566739 
L 128.244583 79.78504 
L 128.44756 94.376332 
L 128.549048 74.600092 
L 128.650537 99.816801 
L 128.752025 88.49599 
L 128.853514 114.137807 
L 129.05649 73.546041 
L 129.259467 106.474829 
L 129.360955 108.919654 
L 129.462444 115.436384 
L 129.665421 88.988689 
L 129.868397 107.195824 
L 129.969886 95.758234 
L 130.071374 105.866039 
L 130.172862 85.140431 
L 130.375839 108.034763 
L 130.477328 104.381924 
L 130.578816 94.257135 
L 130.680304 111.852924 
L 130.781793 91.235699 
L 130.883281 101.449434 
L 130.984769 97.623398 
L 131.086258 99.938621 
L 131.187746 73.923492 
L 131.289235 100.393932 
L 131.492211 71.905091 
L 131.5937 93.960615 
L 131.695188 78.515151 
L 131.796676 97.555527 
L 131.898165 89.966125 
L 132.101142 110.745325 
L 132.20263 109.199126 
L 132.405607 95.586031 
L 132.608583 113.704091 
L 132.710072 119.135435 
L 132.81156 75.623133 
L 133.014537 122.094275 
L 133.116025 98.882894 
L 133.217514 100.528807 
L 133.319002 113.783027 
L 133.42049 86.219567 
L 133.521979 103.809275 
L 133.623467 98.401142 
L 133.724956 101.9544 
L 133.826444 98.372351 
L 133.927932 87.827356 
L 134.029421 92.318467 
L 134.130909 103.829599 
L 134.232397 81.801368 
L 134.333886 82.198509 
L 134.435374 114.864864 
L 134.638351 105.628446 
L 134.739839 82.41666 
L 134.942816 105.242388 
L 135.044304 99.407616 
L 135.145793 101.488518 
L 135.247281 100.761062 
L 135.34877 110.708008 
L 135.551746 102.010853 
L 135.653235 84.099504 
L 135.754723 85.117977 
L 135.9577 95.211213 
L 136.059188 127.571421 
L 136.160677 79.832794 
L 136.262165 87.047781 
L 136.465142 106.279829 
L 136.56663 97.221564 
L 136.668118 98.772409 
L 136.769607 106.803224 
L 136.871095 83.043929 
L 136.972584 106.422256 
L 137.074072 96.59797 
L 137.17556 112.421271 
L 137.378537 87.590481 
L 137.683002 120.579978 
L 137.784491 103.120889 
L 137.885979 103.283675 
L 138.088956 85.081289 
L 138.190444 112.719079 
L 138.291932 90.769143 
L 138.393421 110.031595 
L 138.494909 87.018291 
L 138.596398 104.277154 
L 138.799374 82.718356 
L 138.900863 118.094028 
L 139.103839 82.451357 
L 139.205328 91.144752 
L 139.306816 76.081843 
L 139.408305 105.039787 
L 139.509793 87.860815 
L 139.71277 99.138593 
L 139.814258 110.709248 
L 140.017235 78.708986 
L 140.423188 115.094639 
L 140.524677 101.970913 
L 140.626165 109.704491 
L 140.727653 103.706382 
L 140.93063 86.546083 
L 141.032119 88.062135 
L 141.235095 105.672001 
L 141.336584 95.154371 
L 141.438072 118.715054 
L 141.53956 87.954249 
L 141.641049 111.924672 
L 141.742537 85.483088 
L 141.844026 106.890949 
L 141.945514 75.73989 
L 142.047002 102.902254 
L 142.148491 101.306758 
L 142.249979 91.775417 
L 142.351467 114.668361 
L 142.452956 97.718362 
L 142.554444 111.039828 
L 142.655933 92.767107 
L 142.858909 97.717866 
L 142.960398 86.732526 
L 143.061886 98.627744 
L 143.163374 124.064914 
L 143.264863 108.407977 
L 143.366351 110.667202 
L 143.46784 93.037948 
L 143.670816 107.272668 
L 143.772305 109.141239 
L 144.07677 90.67401 
L 144.279747 105.1914 
L 144.381235 99.965568 
L 144.482723 113.575299 
L 144.584212 105.402701 
L 144.6857 84.908252 
L 144.787188 88.799121 
L 144.888677 76.15732 
L 144.990165 108.459568 
L 145.091654 72.234435 
L 145.29463 107.637578 
L 145.497607 95.227393 
L 145.700584 101.444687 
L 145.802072 78.201384 
L 145.903561 113.657895 
L 146.005049 112.571857 
L 146.106537 98.352546 
L 146.208026 101.740805 
L 146.309514 100.145766 
L 146.411002 75.515718 
L 146.613979 93.75506 
L 146.715468 109.091669 
L 146.816956 98.008234 
L 146.918444 119.735451 
L 147.121421 92.680224 
L 147.222909 111.062117 
L 147.324398 107.540883 
L 147.425886 98.443867 
L 147.527375 132.834376 
L 147.730351 97.523217 
L 147.83184 94.775234 
L 147.933328 82.671601 
L 148.034816 106.595423 
L 148.136305 103.237311 
L 148.237793 109.560984 
L 148.339282 107.783403 
L 148.44077 108.903023 
L 148.542258 108.887777 
L 148.643747 122.402748 
L 148.745235 113.513909 
L 148.846723 92.465583 
L 149.0497 106.503292 
L 149.151189 105.898725 
L 149.252677 97.775492 
L 149.354165 115.633199 
L 149.455654 91.321281 
L 149.557142 123.847012 
L 149.65863 90.19078 
L 149.760119 96.634713 
L 149.861607 123.677219 
L 150.064584 96.977296 
L 150.166072 114.32628 
L 150.267561 102.073889 
L 150.369049 117.868196 
L 150.470537 91.960252 
L 150.572026 93.759118 
L 150.673514 101.584986 
L 150.775003 129.186788 
L 150.876491 102.108906 
L 150.977979 103.422101 
L 151.180956 117.368018 
L 151.58691 94.429383 
L 151.688398 94.783746 
L 151.789886 99.422863 
L 151.891375 112.827763 
L 152.094351 94.535813 
L 152.19584 94.191835 
L 152.297328 91.291074 
L 152.398817 126.980422 
L 152.80477 92.641381 
L 152.906258 108.64804 
L 153.007747 79.228207 
L 153.109235 122.109986 
L 153.312212 94.377347 
L 153.515189 112.143997 
L 153.616677 88.774018 
L 153.718165 103.392519 
L 153.819654 99.683371 
L 153.921142 88.949751 
L 154.022631 110.72016 
L 154.124119 99.841778 
L 154.327096 115.113462 
L 154.428584 90.49064 
L 154.631561 99.046554 
L 154.733049 101.262248 
L 154.834538 86.890334 
L 154.936026 130.251077 
L 155.037514 105.347413 
L 155.139003 118.044757 
L 155.341979 88.96803 
L 155.443468 111.546735 
L 155.544956 85.71417 
L 155.646445 98.313633 
L 155.849421 93.588472 
L 155.95091 98.090639 
L 156.052398 112.586247 
L 156.153886 110.305302 
L 156.255375 102.802027 
L 156.356863 107.592083 
L 156.458352 96.354734 
L 156.55984 127.160288 
L 156.661328 98.797434 
L 156.864305 105.173573 
L 156.965793 103.628126 
L 157.067282 126.457993 
L 157.16877 95.071994 
L 157.270259 102.32313 
L 157.371747 75.989941 
L 157.676212 114.541168 
L 157.7777 112.385255 
L 157.879189 112.98083 
L 157.980677 81.880355 
L 158.183654 119.36845 
L 158.285142 92.812952 
L 158.386631 93.366265 
L 158.488119 103.970249 
L 158.589607 92.672422 
L 158.691096 99.92794 
L 158.792584 116.782847 
L 158.894073 80.049926 
L 158.995561 127.058319 
L 159.300026 81.616826 
L 159.401514 113.115673 
L 159.503003 103.144346 
L 159.604491 113.84335 
L 159.70598 86.933065 
L 159.908956 106.953101 
L 160.010445 97.15434 
L 160.111933 119.967885 
L 160.213421 116.893007 
L 160.416398 89.23486 
L 160.517887 105.963208 
L 160.619375 99.58001 
L 160.720863 114.526968 
L 160.822352 84.156342 
L 160.92384 94.15085 
L 161.126817 85.199363 
L 161.431282 125.566929 
L 161.735747 91.743308 
L 161.938724 104.830793 
L 162.040212 92.850047 
L 162.243189 110.454724 
L 162.344677 105.247014 
L 162.446166 100.713004 
L 162.649142 133.699813 
L 162.750631 95.523448 
L 162.852119 114.450163 
L 162.953608 93.884139 
L 163.055096 96.628289 
L 163.156584 105.231508 
L 163.258073 83.977087 
L 163.461049 107.720764 
L 163.562538 86.286655 
L 163.765515 131.434181 
L 163.968491 93.696155 
L 164.171468 107.000325 
L 164.272956 96.4644 
L 164.475933 117.009851 
L 164.577422 110.204175 
L 164.780398 115.32338 
L 164.983375 90.620224 
L 165.186352 114.278279 
L 165.592305 95.887124 
L 165.693794 85.170836 
L 165.795282 110.5399 
L 165.89677 98.905646 
L 166.099747 115.372057 
L 166.201236 104.467 
L 166.302724 128.528369 
L 166.505701 105.527332 
L 166.607189 107.588589 
L 166.708677 112.628489 
L 166.810166 99.4258 
L 167.013143 113.981947 
L 167.114631 104.817584 
L 167.216119 108.422497 
L 167.317608 94.713953 
L 167.419096 99.816375 
L 167.520584 92.710669 
L 167.622073 114.092276 
L 167.926538 100.759388 
L 168.028026 87.258732 
L 168.129515 131.075097 
L 168.332491 97.295591 
L 168.43398 102.634075 
L 168.535468 125.170903 
L 168.839933 110.92835 
L 168.941422 110.491861 
L 169.144398 89.227333 
L 169.347375 105.165563 
L 169.550352 112.944451 
L 169.65184 107.034645 
L 169.753329 109.331502 
L 169.956305 89.247143 
L 170.159282 127.841589 
L 170.260771 115.336098 
L 170.362259 127.067613 
L 170.463747 95.732002 
L 170.565236 96.671186 
L 170.768212 97.24468 
L 170.869701 98.276975 
L 170.971189 91.342023 
L 171.072678 103.674011 
L 171.174166 101.305462 
L 171.275654 108.07439 
L 171.377143 97.613782 
L 171.478631 131.860857 
L 171.681608 97.339415 
L 171.783096 86.132734 
L 171.884585 120.857085 
L 171.986073 103.783525 
L 172.087561 107.928019 
L 172.18905 122.373766 
L 172.290538 92.37271 
L 172.392026 101.115105 
L 172.493515 97.812941 
L 172.595003 125.935666 
L 172.79798 111.67935 
L 172.899468 111.239448 
L 173.000957 129.138053 
L 173.203933 107.958993 
L 173.305422 110.388191 
L 173.40691 103.025554 
L 173.609887 120.888111 
L 173.812864 102.255493 
L 173.914352 110.56995 
L 174.01584 104.680348 
L 174.117329 74.332182 
L 174.421794 117.502054 
L 174.523282 104.987383 
L 174.726259 109.339682 
L 174.827747 97.644897 
L 174.929236 105.751548 
L 175.030724 100.075214 
L 175.132213 104.977502 
L 175.233701 77.057503 
L 175.335189 124.201025 
L 175.436678 90.123586 
L 175.538166 132.63737 
L 175.639654 96.766802 
L 175.741143 118.551974 
L 175.94412 86.710789 
L 176.045608 102.499544 
L 176.248585 93.500053 
L 176.451561 115.075567 
L 176.654538 102.229897 
L 176.756027 102.848578 
L 176.857515 90.203725 
L 176.959003 114.971641 
L 177.060492 96.496232 
L 177.16198 121.093146 
L 177.263468 84.274644 
L 177.466445 119.480582 
L 177.567934 110.289452 
L 177.669422 115.296313 
L 177.77091 135.380716 
L 177.973887 96.778392 
L 178.075375 120.845532 
L 178.278352 98.930855 
L 178.379841 97.322444 
L 178.684306 119.016136 
L 178.887282 93.545414 
L 178.988771 98.436345 
L 179.191748 122.682466 
L 179.394724 103.25942 
L 179.496213 99.883197 
L 179.800678 122.615801 
L 179.902166 89.412697 
L 180.003655 108.986909 
L 180.105143 96.102143 
L 180.206631 110.032866 
L 180.30812 102.383727 
L 180.409608 105.785659 
L 180.511096 99.516307 
L 180.612585 114.519704 
L 180.714073 105.963924 
L 180.91705 111.338037 
L 181.018538 96.169169 
L 181.120027 103.378882 
L 181.221515 121.024079 
L 181.323003 109.696446 
L 181.424492 112.353443 
L 181.52598 107.028019 
L 181.627469 120.68456 
L 181.728957 97.78059 
L 181.931934 120.907923 
L 182.033422 114.49995 
L 182.13491 82.017447 
L 182.236399 86.421644 
L 182.337887 105.07204 
L 182.540864 93.389419 
L 182.642352 123.675027 
L 182.743841 101.288928 
L 182.845329 110.933222 
L 182.946817 108.23929 
L 183.048306 112.686339 
L 183.149794 123.781273 
L 183.251283 108.421994 
L 183.352771 127.615445 
L 183.555748 96.188675 
L 183.657236 100.359638 
L 183.758724 114.72068 
L 183.860213 94.053922 
L 184.06319 118.887737 
L 184.164678 84.196413 
L 184.367655 101.894328 
L 184.469143 99.460992 
L 184.570631 103.23585 
L 184.67212 117.082265 
L 184.773608 116.681305 
L 184.976585 103.960594 
L 185.078073 99.28215 
L 185.179562 110.522305 
L 185.28105 89.268759 
L 185.382538 123.796454 
L 185.484027 88.434513 
L 185.991469 118.449607 
L 186.092957 114.48626 
L 186.194445 105.207528 
L 186.295934 85.296113 
L 186.498911 125.374122 
L 186.600399 120.594157 
L 186.701887 99.552508 
L 186.904864 121.032259 
L 187.006352 120.295628 
L 187.107841 122.846536 
L 187.209329 90.841759 
L 187.310818 110.455886 
L 187.412306 110.15552 
L 187.615283 116.59909 
L 187.716771 126.470313 
L 187.919748 96.018188 
L 188.021236 113.908801 
L 188.224213 97.757614 
L 188.325701 101.264811 
L 188.42719 118.935607 
L 188.630166 108.725229 
L 188.731655 91.996253 
L 188.833143 96.889299 
L 189.03612 130.990232 
L 189.137608 111.219821 
L 189.239097 119.765126 
L 189.340585 100.615788 
L 189.442073 120.181837 
L 189.543562 117.991579 
L 189.64505 109.885726 
L 189.746539 111.723047 
L 189.848027 120.306797 
L 189.949515 94.300353 
L 190.152492 144.190971 
L 190.355469 108.553058 
L 190.456957 111.745181 
L 190.659934 131.192519 
L 190.862911 95.349729 
L 191.065887 120.125697 
L 191.167376 106.294198 
L 191.370353 136.0412 
L 191.471841 107.900211 
L 191.573329 108.673861 
L 191.674818 101.173273 
L 191.776306 103.304191 
L 191.877794 111.660763 
L 191.979283 103.079761 
L 192.18226 126.7985 
L 192.283748 131.042834 
L 192.588213 102.34582 
L 192.689701 120.872505 
L 192.892678 104.893199 
L 192.994167 102.217574 
L 193.095655 107.612893 
L 193.197143 122.259017 
L 193.298632 112.962238 
L 193.501608 125.117287 
L 193.603097 95.92259 
L 193.907562 122.028768 
L 194.110539 112.48291 
L 194.212027 102.311021 
L 194.313515 105.358991 
L 194.415004 112.234008 
L 194.516492 103.098149 
L 194.617981 119.384144 
L 194.719469 92.398565 
L 194.820957 106.018693 
L 194.922446 137.544812 
L 195.226911 93.733384 
L 195.328399 112.918575 
L 195.429888 112.519519 
L 195.632864 99.855314 
L 195.734353 134.956826 
L 195.835841 106.134844 
L 195.937329 126.878534 
L 196.038818 113.839017 
L 196.140306 116.355575 
L 196.343283 80.675314 
L 196.444771 130.080765 
L 196.647748 99.159062 
L 196.850725 119.922908 
L 196.952213 93.841406 
L 197.15519 117.335449 
L 197.256678 112.23396 
L 197.358167 118.551995 
L 197.459655 106.23422 
L 197.561143 125.766298 
L 197.76412 117.672671 
L 197.865608 105.257221 
L 197.967097 106.087868 
L 198.068585 97.801694 
L 198.170074 116.768311 
L 198.37305 99.717497 
L 198.474539 112.828086 
L 198.576027 104.501116 
L 198.677515 125.738811 
L 198.779004 104.428657 
L 199.083469 126.206112 
L 199.286446 107.96281 
L 199.489422 114.885787 
L 199.692399 102.162315 
L 199.793888 123.122164 
L 199.895376 115.999022 
L 199.996864 118.333469 
L 200.098353 112.524989 
L 200.199841 114.776255 
L 200.301329 106.710244 
L 200.402818 125.535259 
L 200.605795 82.199456 
L 200.707283 135.245584 
L 200.808771 115.910601 
L 200.91026 127.286097 
L 201.113236 104.028323 
L 201.214725 111.044259 
L 201.316213 98.730797 
L 201.417702 108.402456 
L 201.51919 100.36623 
L 201.722167 125.18142 
L 201.823655 110.800745 
L 201.925143 113.005807 
L 202.026632 112.532241 
L 202.12812 105.583701 
L 202.229609 122.695712 
L 202.331097 113.600654 
L 202.432585 123.133019 
L 202.534074 105.461039 
L 202.635562 122.267524 
L 202.73705 111.361343 
L 202.838539 128.00462 
L 203.143004 103.418758 
L 203.244492 110.44953 
L 203.345981 108.005037 
L 203.447469 117.394763 
L 203.548957 115.824651 
L 203.650446 120.345814 
L 203.853423 109.558601 
L 203.954911 109.389618 
L 204.056399 110.480701 
L 204.157888 101.446446 
L 204.259376 118.103847 
L 204.360864 97.015853 
L 204.563841 123.736215 
L 204.66533 112.150168 
L 204.766818 116.408496 
L 204.868306 116.14998 
L 204.969795 105.621235 
L 205.172771 126.58851 
L 205.27426 113.716979 
L 205.375748 123.126768 
L 205.578725 107.491699 
L 205.680213 131.001326 
L 205.781702 105.957968 
L 205.984678 113.586622 
L 206.086167 131.824791 
L 206.49212 115.54427 
L 206.593609 102.373908 
L 206.898074 123.106604 
L 206.999562 101.643011 
L 207.101051 112.150857 
L 207.202539 105.516573 
L 207.304027 125.696741 
L 207.405516 113.972035 
L 207.507004 124.521628 
L 207.608492 118.497029 
L 207.709981 123.65514 
L 207.811469 118.444882 
L 207.912958 119.072932 
L 208.014446 131.873343 
L 208.115934 129.692894 
L 208.217423 112.392878 
L 208.318911 115.659825 
L 208.420399 125.979058 
L 208.521888 122.936967 
L 208.724865 102.994038 
L 208.826353 108.252343 
L 208.927841 119.544715 
L 209.02933 116.374425 
L 209.130818 128.40852 
L 209.333795 112.796785 
L 209.536772 122.8248 
L 209.739748 111.24499 
L 209.841237 113.142987 
L 209.942725 102.108666 
L 210.044213 120.056823 
L 210.24719 108.66925 
L 210.348679 119.616088 
L 210.450167 109.337302 
L 210.551655 111.889529 
L 210.653144 111.252187 
L 210.754632 125.122413 
L 210.85612 100.64285 
L 210.957609 133.976 
L 211.160586 107.943757 
L 211.262074 130.773775 
L 211.363562 105.404207 
L 211.566539 134.546023 
L 211.668027 104.410692 
L 211.871004 128.606067 
L 211.972493 103.197531 
L 212.073981 132.768656 
L 212.276958 117.060217 
L 212.378446 125.649988 
L 212.479934 123.685724 
L 212.682911 98.189842 
L 212.7844 104.785089 
L 212.885888 126.268368 
L 213.088865 118.52762 
L 213.190353 118.384447 
L 213.494818 116.626282 
L 213.799283 96.729327 
L 213.900772 136.187407 
L 214.00226 113.060024 
L 214.103748 136.034949 
L 214.205237 129.673881 
L 214.306725 102.654528 
L 214.509702 125.154108 
L 214.61119 121.353715 
L 214.814167 111.535421 
L 214.915655 131.493696 
L 215.017144 116.654373 
L 215.118632 128.974653 
L 215.220121 124.711183 
L 215.321609 127.687863 
L 215.423097 103.465563 
L 215.626074 134.104118 
L 215.829051 112.470682 
L 215.930539 106.016561 
L 216.133516 124.101654 
L 216.235004 110.136864 
L 216.336493 133.068665 
L 216.437981 110.900711 
L 216.539469 116.578581 
L 216.742446 114.131982 
L 216.843935 130.360371 
L 216.945423 118.347093 
L 217.046911 132.890318 
L 217.1484 108.992684 
L 217.249888 127.027412 
L 217.351376 107.28171 
L 217.655842 132.092677 
L 217.75733 130.70609 
L 217.858818 126.550085 
L 217.960307 116.45215 
L 218.061795 143.312742 
L 218.36626 104.816781 
L 218.467749 124.016559 
L 218.569237 122.933043 
L 218.670725 139.297438 
L 218.772214 122.355459 
L 218.873702 133.23278 
L 219.076679 97.886842 
L 219.279656 133.529057 
L 219.381144 114.55649 
L 219.482632 131.040753 
L 219.787097 108.210029 
L 219.888586 120.671117 
L 219.990074 115.34934 
L 220.091563 121.178259 
L 220.193051 115.219768 
L 220.294539 123.105842 
L 220.396028 108.679622 
L 220.497516 137.665687 
L 220.599004 130.397649 
L 220.700493 134.263181 
L 220.801981 129.744926 
L 220.90347 132.898117 
L 221.004958 116.920299 
L 221.106446 129.416867 
L 221.207935 122.779038 
L 221.410911 130.700579 
L 221.5124 121.426006 
L 221.613888 136.782763 
L 221.715377 134.44448 
L 221.816865 140.739052 
L 222.12133 110.170156 
L 222.222818 131.919529 
L 222.324307 105.668819 
L 222.425795 124.296595 
L 222.527284 118.243663 
L 222.628772 121.161077 
L 222.73026 116.8236 
L 222.831749 103.197428 
L 222.933237 107.713081 
L 223.034725 133.810089 
L 223.237702 118.598909 
L 223.339191 134.876042 
L 223.440679 119.107423 
L 223.643656 134.315151 
L 223.846632 112.954133 
L 223.948121 133.838237 
L 224.049609 106.206623 
L 224.252586 125.113974 
L 224.354074 119.500052 
L 224.455563 152.000515 
L 224.557051 115.426829 
L 224.760028 128.912226 
L 224.963005 119.634633 
L 225.064493 135.617107 
L 225.165981 123.10929 
L 225.26747 141.484821 
L 225.368958 104.499236 
L 225.571935 127.628671 
L 225.673423 139.627707 
L 225.8764 125.504663 
L 225.977888 121.501551 
L 226.079377 141.486856 
L 226.282353 116.513624 
L 226.48533 123.090229 
L 226.586819 117.469909 
L 226.789795 133.55881 
L 226.891284 130.926926 
L 227.09426 115.314741 
L 227.297237 135.803987 
L 227.500214 115.139591 
L 227.601702 117.461081 
L 227.703191 136.379031 
L 227.804679 122.796792 
L 228.007656 129.763958 
L 228.109144 154.363709 
L 228.312121 110.450527 
L 228.413609 126.377157 
L 228.515098 124.138065 
L 228.616586 126.746727 
L 228.819563 118.958937 
L 228.921051 119.659685 
L 229.02254 113.031267 
L 229.124028 120.941558 
L 229.225516 107.452042 
L 229.327005 109.598861 
L 229.529981 139.306398 
L 229.63147 138.769876 
L 229.732958 137.039404 
L 229.834447 124.278641 
L 229.935935 139.983738 
L 230.138912 113.131049 
L 230.544865 138.679538 
L 230.646354 122.614108 
L 230.747842 124.041069 
L 230.84933 142.556494 
L 231.052307 124.256202 
L 231.255284 135.820156 
L 231.356772 129.92582 
L 231.458261 132.950086 
L 231.559749 141.103217 
L 231.762726 110.901362 
L 231.864214 129.613786 
L 231.965702 121.721488 
L 232.067191 144.129035 
L 232.270168 128.069538 
L 232.371656 137.412109 
L 232.473144 108.486252 
L 232.777609 146.831984 
L 232.980586 130.198402 
L 233.082075 130.427519 
L 233.183563 138.252947 
L 233.38654 129.869361 
L 233.488028 148.142269 
L 233.589516 122.77425 
L 233.691005 130.653 
L 233.792493 130.549941 
L 233.893982 136.788081 
L 233.99547 128.312759 
L 234.096958 129.503218 
L 234.198447 140.939769 
L 234.299935 122.296325 
L 234.401423 141.418627 
L 234.502912 114.586029 
L 234.705889 136.902563 
L 234.807377 150.763201 
L 234.908865 137.758976 
L 235.010354 109.050098 
L 235.21333 133.306124 
L 235.416307 122.099178 
L 235.517796 132.013893 
L 235.619284 119.484929 
L 235.822261 140.943605 
L 235.923749 127.756651 
L 236.025237 130.709646 
L 236.126726 146.17509 
L 236.228214 124.671312 
L 236.329703 131.088056 
L 236.431191 115.090039 
L 236.532679 137.768981 
L 236.634168 131.030945 
L 236.735656 141.97764 
L 236.837144 123.694439 
L 236.938633 130.292054 
L 237.040121 129.559243 
L 237.243098 139.235384 
L 237.344586 126.222807 
L 237.446075 132.309913 
L 237.547563 127.911182 
L 237.649051 129.160552 
L 237.75054 124.799409 
L 237.953517 132.176763 
L 238.055005 144.435845 
L 238.257982 113.83316 
L 238.460958 136.261343 
L 238.663935 119.666446 
L 238.765424 130.325643 
L 238.866912 127.799336 
L 238.9684 138.360849 
L 239.069889 118.677923 
L 239.171377 122.576231 
L 239.272865 138.282514 
L 239.374354 137.527344 
L 239.475842 140.397251 
L 239.577331 115.888815 
L 239.678819 146.898687 
L 239.780307 145.060541 
L 239.881796 143.440936 
L 240.084772 153.568851 
L 240.186261 148.379276 
L 240.389238 102.704952 
L 240.490726 140.881843 
L 240.693703 125.266357 
L 240.795191 137.804095 
L 241.201145 127.797206 
L 241.302633 151.222654 
L 241.50561 107.625628 
L 241.607098 134.75503 
L 241.708586 127.42462 
L 241.810075 128.07311 
L 241.911563 137.506464 
L 242.013052 122.861984 
L 242.11454 124.907835 
L 242.216028 116.395565 
L 242.317517 130.262235 
L 242.419005 99.66131 
L 242.621982 134.787775 
L 242.72347 132.177025 
L 242.824959 133.51425 
L 242.926447 131.245368 
L 243.027935 131.947187 
L 243.129424 135.194886 
L 243.230912 144.15319 
L 243.3324 130.95875 
L 243.433889 138.097596 
L 243.535377 135.981545 
L 243.636866 146.516001 
L 243.839842 128.188364 
L 243.941331 140.692712 
L 244.042819 131.361088 
L 244.144307 136.867631 
L 244.245796 135.064647 
L 244.550261 147.39555 
L 244.651749 131.071514 
L 244.753238 149.286103 
L 244.956214 124.714528 
L 245.057703 142.125609 
L 245.159191 119.6237 
L 245.26068 139.537908 
L 245.768121 123.837517 
L 245.86961 139.166604 
L 245.971098 112.955307 
L 246.174075 156.282579 
L 246.47854 98.599478 
L 246.580028 139.911314 
L 246.681517 124.316139 
L 246.783005 129.961152 
L 246.884494 147.810462 
L 246.985982 138.607478 
L 247.08747 145.759088 
L 247.188959 125.887799 
L 247.290447 163.537559 
L 247.493424 142.356766 
L 247.594912 149.957515 
L 247.696401 136.289595 
L 247.797889 140.519429 
L 247.899377 120.938306 
L 248.000866 147.898523 
L 248.102354 130.583786 
L 248.305331 145.553529 
L 248.406819 133.280833 
L 248.508308 136.857112 
L 248.609796 117.699895 
L 248.711284 149.104076 
L 248.914261 127.086333 
L 249.117238 120.500346 
L 249.320215 144.188024 
L 249.421703 127.309453 
L 249.62468 154.349745 
L 249.726168 116.550887 
L 249.827656 141.741446 
L 249.929145 121.110719 
L 250.030633 141.525641 
L 250.132122 125.90746 
L 250.23361 140.817331 
L 250.335098 122.743006 
L 250.436587 125.768366 
L 250.538075 108.599023 
L 250.84254 158.202508 
L 250.944029 128.874923 
L 251.147005 141.022377 
L 251.248494 119.305548 
L 251.349982 156.075892 
L 251.552959 140.076997 
L 251.654447 142.410008 
L 251.857424 130.530702 
L 251.958912 132.353724 
L 252.060401 128.462042 
L 252.263377 148.60324 
L 252.466354 128.310229 
L 252.669331 152.330096 
L 252.770819 130.793833 
L 252.973796 137.653065 
L 253.176773 118.271777 
L 253.278261 148.736324 
L 253.37975 103.050007 
L 253.481238 139.828212 
L 253.582726 118.759931 
L 253.684215 141.76092 
L 253.785703 140.666512 
L 253.887191 139.116736 
L 253.98868 157.065981 
L 254.090168 133.520274 
L 254.191657 146.056969 
L 254.293145 132.658846 
L 254.394633 133.512859 
L 254.496122 131.956371 
L 254.59761 150.750704 
L 254.902075 128.810207 
L 255.105052 149.376659 
L 255.20654 138.962324 
L 255.308029 151.04167 
L 255.409517 125.995204 
L 255.511005 149.057392 
L 255.612494 142.676415 
L 255.713982 146.321581 
L 255.815471 127.938754 
L 255.916959 148.509269 
L 256.221424 124.407612 
L 256.322912 136.388953 
L 256.424401 135.718747 
L 256.525889 134.202758 
L 256.627378 142.321468 
L 256.728866 141.223178 
L 256.830354 134.093379 
L 256.931843 153.59777 
L 257.134819 107.29546 
L 257.337796 147.928385 
L 257.439285 139.684728 
L 257.540773 141.46282 
L 257.642261 131.289599 
L 257.74375 151.221099 
L 257.845238 147.581571 
L 258.048215 138.525822 
L 258.149703 138.217794 
L 258.251192 161.400403 
L 258.454168 120.081573 
L 258.657145 155.196105 
L 258.758633 142.402929 
L 258.860122 155.604702 
L 259.164587 125.985013 
L 259.266075 152.651424 
L 259.367564 144.073377 
L 259.469052 111.164721 
L 259.57054 134.708435 
L 259.672029 127.035451 
L 259.773517 130.726751 
L 259.976494 146.289126 
L 260.077982 153.442287 
L 260.280959 144.593395 
L 260.382447 142.830052 
L 260.483936 129.890031 
L 260.585424 174.18968 
L 260.788401 142.262814 
L 260.889889 139.055043 
L 261.092866 151.190574 
L 261.194354 130.89173 
L 261.49882 147.688651 
L 261.600308 133.325028 
L 261.701796 176.358914 
L 261.904773 133.671303 
L 262.006261 134.290464 
L 262.209238 157.65428 
L 262.412215 141.837822 
L 262.513703 152.429304 
L 262.615192 136.200826 
L 262.71668 144.680163 
L 262.818168 140.055465 
L 262.919657 158.378936 
L 263.021145 147.904557 
L 263.122634 156.854879 
L 263.224122 126.839329 
L 263.427099 148.329567 
L 263.528587 146.187121 
L 263.630075 123.061137 
L 264.036029 169.976521 
L 264.137517 138.721831 
L 264.239006 148.290732 
L 264.340494 121.940585 
L 264.543471 147.309282 
L 264.644959 144.520363 
L 264.746448 145.172383 
L 264.847936 153.773207 
L 264.949424 147.062557 
L 265.050913 131.391382 
L 265.253889 160.632855 
L 265.355378 159.513559 
L 265.558355 144.879484 
L 265.659843 147.045158 
L 265.761331 158.408911 
L 265.86282 142.664829 
L 265.964308 146.810269 
L 266.065796 135.24603 
L 266.167285 140.244475 
L 266.370262 158.63639 
L 266.47175 127.671027 
L 266.674727 146.95407 
L 266.776215 151.447851 
L 266.877703 149.905126 
L 266.979192 145.000413 
L 267.182169 128.078342 
L 267.283657 148.873632 
L 267.385145 119.956435 
L 267.486634 152.134053 
L 267.588122 135.462043 
L 267.68961 148.00512 
L 267.791099 135.938257 
L 267.892587 144.102743 
L 268.095564 141.684189 
L 268.197052 123.777064 
L 268.400029 142.05024 
L 268.501517 141.118027 
L 268.603006 149.386544 
L 268.704494 134.05426 
L 268.907471 149.527936 
L 269.008959 162.122782 
L 269.110448 156.341122 
L 269.211936 138.965612 
L 269.313424 150.306608 
L 269.414913 142.226406 
L 269.61789 165.156763 
L 269.719378 148.401629 
L 269.820866 164.293391 
L 270.023843 120.657981 
L 270.125331 143.44986 
L 270.22682 133.223785 
L 270.429797 161.175784 
L 270.531285 141.08437 
L 270.734262 164.631449 
L 270.83575 144.184667 
L 270.937238 145.262914 
L 271.038727 159.382138 
L 271.140215 147.698737 
L 271.241704 163.366833 
L 271.343192 122.447836 
L 271.546169 154.038653 
L 271.749145 139.477984 
L 271.850634 140.052916 
L 271.952122 160.127896 
L 272.053611 143.682355 
L 272.155099 150.328839 
L 272.256587 131.792165 
L 272.459564 152.484202 
L 272.561052 153.615203 
L 272.764029 163.888629 
L 272.865518 161.894191 
L 272.967006 143.063907 
L 273.169983 167.66732 
L 273.271471 162.529469 
L 273.474448 130.533617 
L 273.575936 132.570133 
L 273.677425 163.011775 
L 273.778913 153.181783 
L 273.880401 156.390233 
L 273.98189 152.040448 
L 274.083378 142.893097 
L 274.184866 151.4668 
L 274.286355 147.987177 
L 274.387843 163.977954 
L 274.793797 132.426112 
L 274.895285 154.45512 
L 274.996773 153.309298 
L 275.098262 142.008431 
L 275.301239 164.829954 
L 275.402727 163.313391 
L 275.504215 136.782189 
L 275.605704 159.133049 
L 275.80868 137.032584 
L 275.910169 168.099171 
L 276.011657 146.523198 
L 276.113146 148.526774 
L 276.316122 135.134017 
L 276.417611 172.673879 
L 276.519099 145.747295 
L 276.620587 168.590493 
L 276.722076 119.246457 
L 276.925053 163.707638 
L 277.026541 169.301672 
L 277.128029 150.742968 
L 277.229518 164.624904 
L 277.331006 143.539784 
L 277.432494 152.037153 
L 277.533983 147.563847 
L 277.635471 161.344542 
L 277.73696 143.560685 
L 277.838448 146.530236 
L 277.939936 142.686559 
L 278.041425 171.328524 
L 278.142913 153.986342 
L 278.244401 158.336982 
L 278.34589 142.402387 
L 278.447378 163.326215 
L 278.548867 151.653176 
L 278.650355 158.870042 
L 278.751843 143.401667 
L 278.853332 150.525068 
L 278.95482 171.274891 
L 279.157797 128.758053 
L 279.259285 146.190015 
L 279.360774 141.78444 
L 279.462262 160.511751 
L 279.766727 133.709463 
L 279.868215 153.177876 
L 279.969704 152.418597 
L 280.071192 158.224631 
L 280.172681 155.873907 
L 280.274169 147.604986 
L 280.375657 155.762804 
L 280.477146 146.60585 
L 280.578634 147.219058 
L 280.680122 145.578746 
L 280.883099 139.361619 
L 280.984588 153.609185 
L 281.086076 151.267131 
L 281.187564 152.189426 
L 281.289053 166.895634 
L 281.390541 159.693364 
L 281.492029 141.696048 
L 281.593518 143.837516 
L 281.695006 165.1999 
L 281.897983 126.3599 
L 282.10096 158.771218 
L 282.202448 146.343421 
L 282.303936 176.132484 
L 282.405425 170.1084 
L 282.506913 176.652784 
L 282.70989 154.12566 
L 282.811378 160.439741 
L 282.912867 143.799194 
L 283.014355 172.975066 
L 283.217332 151.634704 
L 283.31882 151.504756 
L 283.420309 155.48648 
L 283.521797 148.87287 
L 283.623285 166.243988 
L 283.826262 151.26325 
L 284.029239 154.631488 
L 284.130727 158.79373 
L 284.333704 149.583165 
L 284.435192 152.891602 
L 284.536681 152.588472 
L 284.638169 164.143438 
L 284.841146 152.272527 
L 284.942634 157.565085 
L 285.044123 140.690878 
L 285.145611 172.79274 
L 285.247099 148.250448 
L 285.348588 158.48854 
L 285.551564 146.926066 
L 285.754541 154.067789 
L 285.85603 139.578335 
L 286.059006 176.573474 
L 286.363471 147.473824 
L 286.46496 162.772168 
L 286.667937 154.094248 
L 286.769425 168.746273 
L 286.972402 153.923178 
L 287.07389 144.775694 
L 287.276867 158.338074 
L 287.479844 145.06795 
L 287.68282 161.945636 
L 287.885797 158.633086 
L 287.987285 145.600838 
L 288.190262 156.85399 
L 288.291751 140.016266 
L 288.393239 176.898996 
L 288.697704 146.664287 
L 288.799192 166.406773 
L 288.900681 162.735798 
L 289.103658 148.011829 
L 289.205146 159.500695 
L 289.306634 141.393981 
L 289.408123 162.998904 
L 289.509611 155.749592 
L 289.611099 163.98876 
L 290.017053 149.546605 
L 290.118541 162.986899 
L 290.22003 154.440625 
L 290.321518 132.215524 
L 290.423006 138.739052 
L 290.524495 159.099553 
L 290.82896 135.329683 
L 291.031937 157.184804 
L 291.133425 154.300537 
L 291.336402 167.867873 
L 291.539379 139.504182 
L 291.742355 163.228047 
L 291.843844 148.580613 
L 291.945332 175.321802 
L 292.04682 145.358853 
L 292.148309 173.20874 
L 292.351286 151.988972 
L 292.452774 163.856741 
L 292.757239 135.979784 
L 292.960216 176.499881 
L 293.163193 148.068494 
L 293.467658 161.051016 
L 293.670634 149.835872 
L 293.772123 170.201403 
L 293.873611 152.45266 
L 293.9751 167.682666 
L 294.076588 156.081795 
L 294.178076 163.055344 
L 294.381053 150.031777 
L 294.482541 161.054321 
L 294.58403 126.036093 
L 294.685518 175.115829 
L 294.888495 147.313932 
L 295.091472 167.485976 
L 295.19296 158.742943 
L 295.294448 160.339212 
L 295.395937 178.893574 
L 295.497425 134.796782 
L 295.598914 142.2081 
L 295.80189 181.403088 
L 296.106355 155.855782 
L 296.207844 160.125168 
L 296.309332 144.007768 
L 296.410821 162.518076 
L 296.613797 152.781297 
L 296.715286 159.488991 
L 296.816774 176.188993 
L 297.019751 151.351426 
L 297.121239 173.520021 
L 297.324216 144.738915 
L 297.425704 170.355524 
L 297.527193 167.609312 
L 297.628681 174.179229 
L 297.730169 153.837747 
L 297.933146 161.663927 
L 298.136123 150.560223 
L 298.237611 163.052151 
L 298.440588 153.283044 
L 298.745053 178.069558 
L 298.846542 193.628105 
L 298.94803 154.668388 
L 299.049518 160.458508 
L 299.151007 155.496537 
L 299.252495 160.777632 
L 299.353983 179.921829 
L 299.55696 139.00839 
L 299.658449 173.937457 
L 299.759937 165.380574 
L 299.861425 187.211899 
L 300.16589 155.764309 
L 300.368867 170.510836 
L 300.470356 157.581947 
L 300.673332 175.570617 
L 300.774821 163.936499 
L 300.876309 175.472814 
L 300.977797 148.351305 
L 301.079286 179.121372 
L 301.180774 165.530581 
L 301.282263 176.809532 
L 301.383751 174.667866 
L 301.485239 155.503381 
L 301.586728 158.869206 
L 301.688216 149.661966 
L 301.789704 167.113208 
L 301.891193 149.551502 
L 302.195658 177.516885 
L 302.297146 154.57633 
L 302.398635 158.476203 
L 302.500123 150.462798 
L 302.601611 164.446663 
L 302.7031 161.245633 
L 302.906077 166.231342 
L 303.007565 155.116689 
L 303.31203 174.36648 
L 303.413518 157.374017 
L 303.616495 169.902165 
L 303.819472 146.036384 
L 303.92096 148.784701 
L 304.123937 172.244018 
L 304.225425 158.275019 
L 304.326914 169.18551 
L 304.428402 165.634173 
L 304.529891 189.782484 
L 304.732867 158.73386 
L 304.834356 170.532995 
L 304.935844 168.872145 
L 305.037332 161.899534 
L 305.138821 166.41482 
L 305.240309 160.640692 
L 305.341798 166.483346 
L 305.443286 165.130774 
L 305.544774 170.910011 
L 305.646263 155.12127 
L 305.747751 156.769673 
L 305.849239 164.063305 
L 305.950728 156.415689 
L 306.153705 167.776046 
L 306.255193 151.423909 
L 306.356681 166.205356 
L 306.45817 153.824701 
L 306.661146 161.855361 
L 306.762635 158.708503 
L 306.864123 169.042985 
L 306.965612 161.715049 
L 307.0671 162.228931 
L 307.168588 167.241868 
L 307.270077 162.543345 
L 307.371565 183.93443 
L 307.473053 163.956066 
L 307.67603 176.973176 
L 307.777519 174.205006 
L 307.879007 184.778932 
L 308.081984 156.838574 
L 308.28496 178.895027 
L 308.386449 152.02447 
L 308.487937 184.045067 
L 308.690914 159.033408 
L 308.893891 173.148829 
L 308.995379 155.226289 
L 309.096867 191.216608 
L 309.198356 167.358537 
L 309.299844 168.007945 
L 309.401333 165.886116 
L 309.604309 180.544085 
L 309.705798 183.157986 
L 309.807286 165.594021 
L 309.908774 166.040561 
L 310.111751 175.672282 
L 310.21324 178.105623 
L 310.314728 168.002314 
L 310.416216 183.989498 
L 310.923658 147.530259 
L 311.025147 153.130004 
L 311.329612 184.285641 
L 311.4311 187.420814 
L 311.634077 148.810538 
L 311.735565 149.133774 
L 311.837054 182.361581 
L 311.938542 165.892281 
L 312.04003 177.308643 
L 312.141519 166.496649 
L 312.243007 171.700349 
L 312.344495 166.684446 
L 312.547472 178.063911 
L 312.648961 159.099919 
L 312.750449 174.836528 
L 312.953426 170.572084 
L 313.054914 182.127236 
L 313.156402 173.278832 
L 313.257891 175.868384 
L 313.359379 174.732371 
L 313.460868 168.145988 
L 313.562356 189.424457 
L 313.663844 163.747968 
L 313.765333 174.175579 
L 313.866821 163.032946 
L 313.968309 165.871769 
L 314.069798 157.319911 
L 314.272775 180.66661 
L 314.475751 157.043537 
L 314.678728 175.755314 
L 314.780216 161.283221 
L 314.881705 172.421289 
L 315.084682 156.384456 
L 315.18617 167.862391 
L 315.389147 158.352908 
L 315.490635 161.037695 
L 315.592123 186.061103 
L 315.693612 170.937655 
L 315.896589 174.914686 
L 315.998077 183.43509 
L 316.099565 179.458249 
L 316.201054 160.24398 
L 316.40403 173.693111 
L 316.505519 171.158181 
L 316.607007 160.932174 
L 316.809984 179.218666 
L 316.911472 155.855586 
L 317.012961 174.162201 
L 317.114449 148.568672 
L 317.215937 153.055606 
L 317.418914 198.131055 
L 317.621891 168.264546 
L 317.926356 187.745705 
L 318.027844 161.393817 
L 318.230821 170.738739 
L 318.33231 171.150436 
L 318.433798 176.126098 
L 318.535286 149.861704 
L 318.636775 173.74864 
L 318.738263 161.956677 
L 318.94124 180.034871 
L 319.042728 173.269248 
L 319.144217 173.911531 
L 319.245705 170.380962 
L 319.347193 160.345099 
L 319.448682 168.408841 
L 319.651658 155.273966 
L 319.753147 191.795745 
L 319.854635 179.914778 
L 320.057612 187.314101 
L 320.1591 184.062919 
L 320.362077 168.441926 
L 320.463565 162.021535 
L 320.666542 172.067125 
L 320.768031 168.763658 
L 320.869519 161.280523 
L 320.971007 187.433936 
L 321.072496 187.160478 
L 321.173984 174.073436 
L 321.275472 177.821457 
L 321.376961 165.471851 
L 321.478449 187.475141 
L 321.579938 182.696491 
L 321.782914 156.402684 
L 321.884403 169.710154 
L 321.985891 158.07196 
L 322.188868 165.938195 
L 322.290356 185.857443 
L 322.493333 180.798779 
L 322.594821 181.26236 
L 322.797798 189.479674 
L 323.000775 164.446808 
L 323.203752 176.496509 
L 323.30524 177.594868 
L 323.406728 171.325085 
L 323.508217 176.170922 
L 323.609705 195.792617 
L 323.711193 146.841853 
L 323.812682 169.360732 
L 323.91417 169.129684 
L 324.015659 169.713562 
L 324.117147 168.547133 
L 324.218635 171.21419 
L 324.320124 168.846309 
L 324.421612 145.643005 
L 324.5231 177.446076 
L 324.624589 174.990923 
L 324.726077 182.480289 
L 324.827566 181.863978 
L 324.929054 160.277572 
L 325.233519 175.426225 
L 325.335007 172.310894 
L 325.436496 179.49476 
L 325.639473 168.340461 
L 325.740961 180.455622 
L 325.842449 171.371642 
L 325.943938 187.624959 
L 326.045426 185.642984 
L 326.146914 170.048648 
L 326.248403 176.812034 
L 326.349891 165.55051 
L 326.45138 179.269665 
L 326.552868 159.937878 
L 326.755845 169.287933 
L 326.857333 200.856239 
L 326.958821 167.3738 
L 327.06031 180.769057 
L 327.161798 175.899642 
L 327.263287 186.571084 
L 327.567752 164.696496 
L 327.66924 198.366274 
L 327.770728 178.849462 
L 327.973705 190.646603 
L 328.176682 165.250654 
L 328.27817 185.766079 
L 328.481147 176.910457 
L 328.582635 197.631901 
L 328.684124 181.049218 
L 328.785612 189.66185 
L 328.988589 162.254514 
L 329.090077 172.944496 
L 329.191566 156.818706 
L 329.293054 186.883437 
L 329.394542 168.913977 
L 329.496031 171.983662 
L 329.597519 181.778011 
L 329.699008 160.307776 
L 329.901984 191.782826 
L 330.206449 163.640511 
L 330.307938 164.894567 
L 330.612403 194.687715 
L 330.916868 167.307364 
L 331.018356 174.416703 
L 331.119845 161.354122 
L 331.221333 162.727515 
L 331.322822 171.253934 
L 331.525798 162.956012 
L 331.627287 181.425258 
L 331.728775 143.28305 
L 331.931752 173.712536 
L 332.03324 170.497536 
L 332.236217 179.116005 
L 332.337705 182.041722 
L 332.439194 173.422461 
L 332.64217 186.197825 
L 332.845147 175.534747 
L 333.048124 196.911735 
L 333.149612 177.465441 
L 333.251101 185.161952 
L 333.352589 171.491247 
L 333.758543 189.619449 
L 333.860031 170.977568 
L 333.961519 191.086732 
L 334.063008 172.949025 
L 334.367473 185.197262 
L 334.468961 174.390066 
L 334.57045 200.254749 
L 334.671938 159.00972 
L 334.773426 185.023396 
L 334.874915 183.079476 
L 334.976403 173.413546 
L 335.077891 179.94204 
L 335.17938 155.713614 
L 335.382357 193.3529 
L 335.585333 168.114544 
L 335.686822 191.760718 
L 335.78831 184.689151 
L 335.889798 159.13023 
L 336.092775 195.286542 
L 336.39724 158.319543 
L 336.498729 187.257349 
L 336.600217 177.668305 
L 336.701705 180.603673 
L 336.904682 191.533386 
L 337.006171 193.256064 
L 337.107659 203.502634 
L 337.310636 180.171659 
L 337.412124 178.426639 
L 337.513612 191.653388 
L 337.716589 162.544443 
L 337.818078 185.134482 
L 338.122543 158.269139 
L 338.224031 161.250773 
L 338.427008 185.766499 
L 338.528496 171.310885 
L 338.629985 172.802783 
L 338.731473 190.046434 
L 338.832961 184.407355 
L 338.93445 200.207432 
L 339.035938 179.744798 
L 339.137426 184.78132 
L 339.340403 174.792574 
L 339.441892 173.9335 
L 339.54338 166.547175 
L 339.746357 178.158057 
L 339.847845 162.990008 
L 340.050822 182.697249 
L 340.15231 181.552773 
L 340.355287 190.554472 
L 340.456775 168.502231 
L 340.558264 180.325036 
L 340.659752 160.340436 
L 340.76124 167.012136 
L 340.862729 162.352545 
L 340.964217 190.906812 
L 341.065706 161.29135 
L 341.268682 200.201598 
L 341.370171 175.65339 
L 341.471659 187.646381 
L 341.674636 169.52002 
L 341.776124 180.83875 
L 341.877612 175.793168 
L 341.979101 179.043544 
L 342.080589 169.595913 
L 342.182078 194.155266 
L 342.486543 166.897789 
L 342.689519 180.122649 
L 342.791008 179.09605 
L 342.892496 176.617868 
L 343.095473 190.406292 
L 343.29845 176.257055 
L 343.399938 187.704158 
L 343.602915 167.07712 
L 343.704403 186.632149 
L 343.805892 181.428579 
L 343.90738 184.732073 
L 344.008868 181.225023 
L 344.110357 181.628021 
L 344.313333 173.373601 
L 344.414822 179.234768 
L 344.51631 193.880516 
L 344.617799 177.483457 
L 344.820775 190.465004 
L 344.922264 176.526028 
L 345.023752 181.273435 
L 345.12524 165.964183 
L 345.328217 186.352505 
L 345.429706 165.572122 
L 345.531194 169.888807 
L 345.632682 185.990895 
L 345.937147 177.412511 
L 346.038636 166.743551 
L 346.140124 177.206174 
L 346.241613 162.87443 
L 346.343101 186.124261 
L 346.546078 171.389886 
L 346.647566 187.883341 
L 346.850543 162.180117 
L 347.256496 197.112179 
L 347.459473 157.0639 
L 347.560961 179.547644 
L 347.763938 168.675772 
L 347.966915 186.09364 
L 348.169892 168.001483 
L 348.27138 185.052822 
L 348.372868 174.089948 
L 348.474357 176.558441 
L 348.677334 193.330245 
L 348.778822 170.77748 
L 348.88031 171.830964 
L 349.184775 198.108609 
L 349.286264 168.570695 
L 349.387752 199.197298 
L 349.489241 191.681163 
L 349.590729 163.386027 
L 349.692217 188.29984 
L 349.793706 182.900219 
L 349.895194 194.913297 
L 349.996682 189.449619 
L 350.098171 173.877602 
L 350.199659 179.469199 
L 350.301148 158.390644 
L 350.402636 190.722809 
L 350.504124 182.357728 
L 350.605613 183.700103 
L 350.707101 192.388204 
L 350.808589 178.93221 
L 350.910078 184.081378 
L 351.011566 195.834755 
L 351.113055 172.96933 
L 351.214543 189.76741 
L 351.316031 185.078381 
L 351.519008 194.910976 
L 351.620496 194.308091 
L 351.721985 177.731407 
L 351.823473 190.941216 
L 351.924962 179.031952 
L 352.02645 179.954828 
L 352.127938 173.871433 
L 352.229427 196.89319 
L 352.330915 179.464305 
L 352.432403 192.269224 
L 352.533892 174.494029 
L 352.63538 176.327446 
L 352.736869 175.898859 
L 352.838357 181.123478 
L 352.939845 207.876966 
L 353.041334 198.350809 
L 353.142822 174.861542 
L 353.24431 189.741345 
L 353.345799 171.727397 
L 353.447287 196.751774 
L 353.548776 174.100159 
L 353.650264 178.753347 
L 353.751752 177.458555 
L 353.853241 181.816246 
L 353.954729 194.194159 
L 354.157706 176.980678 
L 354.259194 193.170996 
L 354.360683 169.867903 
L 354.462171 171.896534 
L 354.563659 168.694198 
L 354.665148 175.398968 
L 354.766636 198.430789 
L 354.969613 175.347054 
L 355.17259 193.878279 
L 355.274078 198.404485 
L 355.375566 195.301993 
L 355.477055 180.472827 
L 355.578543 182.478777 
L 355.680031 167.84767 
L 355.883008 185.603406 
L 355.984497 178.063811 
L 356.085985 193.758004 
L 356.187473 172.356401 
L 356.288962 174.03287 
L 356.39045 195.44796 
L 356.491938 181.495841 
L 356.593427 186.740803 
L 356.796404 172.278229 
L 356.99938 195.756781 
L 357.100869 173.713583 
L 357.202357 213.918902 
L 357.405334 184.014107 
L 357.506822 186.322986 
L 357.608311 179.846668 
L 357.709799 193.875953 
L 357.811287 179.301157 
L 358.014264 191.183203 
L 358.115752 194.321196 
L 358.217241 192.128625 
L 358.318729 181.827414 
L 358.420218 157.849966 
L 358.724683 207.365164 
L 358.826171 173.268376 
L 358.927659 191.918871 
L 359.029148 177.158549 
L 359.130636 200.950274 
L 359.232125 177.210394 
L 359.435101 197.23793 
L 359.638078 163.778235 
L 359.739566 181.91023 
L 359.841055 178.299767 
L 359.942543 166.65235 
L 360.044032 204.184978 
L 360.14552 186.102432 
L 360.247008 201.801866 
L 360.551473 164.388074 
L 360.652962 183.266073 
L 360.75445 182.304368 
L 360.855939 190.435273 
L 361.058915 178.680201 
L 361.261892 188.708025 
L 361.36338 185.360443 
L 361.566357 205.501218 
L 361.667846 199.790702 
L 361.769334 183.889878 
L 361.870822 192.633978 
L 361.972311 189.52987 
L 362.175287 191.962114 
L 362.276776 188.806047 
L 362.378264 205.749736 
L 362.479753 187.297309 
L 362.581241 193.87148 
L 362.682729 193.505912 
L 362.784218 174.036341 
L 362.885706 179.004927 
L 362.987194 204.253493 
L 363.29166 175.843069 
L 363.393148 190.201189 
L 363.494636 178.213498 
L 363.697613 193.045117 
L 363.799101 189.470479 
L 363.90059 206.385779 
L 364.103567 182.916443 
L 364.205055 189.133592 
L 364.408032 178.866329 
L 364.50952 178.262901 
L 364.611008 171.682631 
L 364.712497 195.720167 
L 364.813985 188.235588 
L 364.915474 189.28879 
L 365.016962 180.450627 
L 365.11845 199.835457 
L 365.219939 193.410156 
L 365.321427 196.100916 
L 365.422915 185.300863 
L 365.524404 186.99493 
L 365.625892 193.09144 
L 365.727381 218.873156 
L 365.828869 193.995125 
L 365.930357 210.519693 
L 366.031846 191.255664 
L 366.133334 193.940201 
L 366.234822 184.791347 
L 366.336311 188.117359 
L 366.437799 195.090729 
L 366.539288 182.29667 
L 366.640776 206.68318 
L 366.742264 194.697099 
L 366.843753 208.601428 
L 367.046729 187.329862 
L 367.148218 201.429815 
L 367.249706 186.184323 
L 367.351195 206.093789 
L 367.452683 196.022609 
L 367.554171 197.907939 
L 367.65566 166.239126 
L 367.757148 200.921973 
L 368.061613 174.556333 
L 368.163102 201.934604 
L 368.26459 180.464872 
L 368.467567 193.748843 
L 368.569055 175.595709 
L 368.772032 190.198218 
L 368.87352 170.065045 
L 368.975009 184.372786 
L 369.076497 173.487498 
L 369.177985 174.405385 
L 369.279474 180.7807 
L 369.380962 180.126721 
L 369.48245 197.826402 
L 369.786916 174.109148 
L 369.888404 204.806269 
L 369.989892 197.430685 
L 370.091381 165.130611 
L 370.294357 188.264084 
L 370.395846 187.869863 
L 370.598823 178.721351 
L 370.700311 177.895959 
L 370.801799 195.942439 
L 370.903288 172.045441 
L 371.004776 174.679013 
L 371.106264 194.94863 
L 371.41073 160.785496 
L 371.816683 215.402203 
L 371.918171 180.540936 
L 372.01966 196.874974 
L 372.121148 187.961528 
L 372.222637 191.147473 
L 372.324125 206.615204 
L 372.425613 184.992789 
L 372.62859 199.15688 
L 372.730078 184.693611 
L 372.831567 194.125055 
L 372.933055 193.857059 
L 373.034544 187.125921 
L 373.136032 187.561673 
L 373.23752 186.185393 
L 373.339009 176.525929 
L 373.440497 197.023199 
L 373.541985 188.05813 
L 373.643474 199.746387 
L 373.846451 178.617737 
L 373.947939 189.899318 
L 374.049427 182.456484 
L 374.150916 159.948018 
L 374.353892 195.708603 
L 374.455381 186.854048 
L 374.556869 193.007773 
L 374.658358 191.826945 
L 374.759846 185.569761 
L 374.962823 189.00143 
L 375.064311 174.960145 
L 375.165799 194.957379 
L 375.267288 188.415053 
L 375.368776 192.856933 
L 375.571753 168.157941 
L 375.673241 195.766213 
L 375.77473 172.944121 
L 375.977706 187.592861 
L 376.079195 184.31432 
L 376.180683 186.410395 
L 376.282172 199.216366 
L 376.38366 189.637912 
L 376.485148 191.258425 
L 376.586637 191.013139 
L 376.688125 193.134788 
L 376.891102 186.703714 
L 376.99259 194.304399 
L 377.094079 174.442531 
L 377.195567 177.775798 
L 377.297055 193.297507 
L 377.398544 186.048607 
L 377.500032 189.615373 
L 377.60152 186.066005 
L 377.703009 191.513981 
L 377.804497 184.701333 
L 377.905986 207.492468 
L 378.108962 194.077361 
L 378.210451 206.919581 
L 378.311939 190.04675 
L 378.413427 200.017663 
L 378.717893 182.119943 
L 378.819381 183.659944 
L 379.022358 190.497805 
L 379.123846 190.744421 
L 379.326823 170.445746 
L 379.428311 199.656977 
L 379.5298 191.702622 
L 379.631288 205.15831 
L 379.732776 167.051649 
L 379.834265 202.771101 
L 379.935753 178.205512 
L 380.037241 207.367446 
L 380.240218 189.193925 
L 380.341707 205.207986 
L 380.443195 171.709181 
L 380.544683 190.71039 
L 380.646172 165.522286 
L 380.849148 208.474949 
L 380.950637 208.177675 
L 381.153614 179.584878 
L 381.35659 202.286157 
L 381.458079 196.864584 
L 381.559567 198.787483 
L 381.762544 174.543633 
L 381.965521 208.228743 
L 382.168497 182.796011 
L 382.472962 198.858421 
L 382.675939 174.004736 
L 382.878916 196.213454 
L 383.081893 203.565586 
L 383.183381 177.821507 
L 383.487846 188.111713 
L 383.690823 174.450163 
L 383.792311 206.451113 
L 384.096776 185.337445 
L 384.198265 185.333366 
L 384.401242 216.531813 
L 384.50273 206.653306 
L 384.604218 214.393659 
L 384.807195 197.923953 
L 385.010172 179.947135 
L 385.11166 190.306341 
L 385.213149 190.200566 
L 385.314637 167.436541 
L 385.517614 189.480343 
L 385.619102 177.082556 
L 385.822079 190.35772 
L 385.923567 194.967176 
L 386.025056 188.424616 
L 386.126544 196.002562 
L 386.228032 191.98243 
L 386.329521 200.826158 
L 386.431009 178.721676 
L 386.532497 193.433365 
L 386.633986 191.473708 
L 386.735474 205.250097 
L 386.938451 174.701184 
L 387.141428 198.255521 
L 387.242916 195.327163 
L 387.344404 194.629738 
L 387.445893 196.696868 
L 387.547381 193.686642 
L 387.64887 177.483457 
L 387.851846 200.499002 
L 387.953335 203.4245 
L 388.054823 197.320625 
L 388.156311 165.454234 
L 388.359288 183.374576 
L 388.460777 180.079082 
L 388.562265 198.07445 
L 388.663753 196.296863 
L 388.765242 177.575381 
L 388.968218 194.980324 
L 389.069707 177.206667 
L 389.171195 205.63366 
L 389.272684 179.35322 
L 389.47566 198.777093 
L 389.678637 186.15779 
L 389.780125 196.366715 
L 389.881614 182.470716 
L 389.983102 199.449711 
L 390.084591 187.468585 
L 390.186079 205.761575 
L 390.389056 190.811333 
L 390.592032 206.890387 
L 390.693521 178.790222 
L 390.795009 183.390935 
L 390.896498 198.515268 
L 390.997986 186.369496 
L 391.099474 202.778748 
L 391.200963 172.202996 
L 391.302451 199.686718 
L 391.403939 172.373305 
L 391.606916 191.046374 
L 391.708405 213.091175 
L 391.911381 195.191812 
L 392.114358 195.729343 
L 392.215846 212.387044 
L 392.317335 169.339437 
L 392.520312 191.294281 
L 392.6218 206.501473 
L 392.723288 186.057056 
L 392.824777 200.685666 
L 392.926265 198.707017 
L 393.027753 192.032439 
L 393.23073 174.649312 
L 393.332219 208.274505 
L 393.535195 187.809166 
L 393.636684 182.125855 
L 393.83966 193.118645 
L 394.042637 179.542193 
L 394.144126 179.22461 
L 394.245614 201.137345 
L 394.753056 184.799862 
L 395.057521 192.605079 
L 395.159009 185.836431 
L 395.260498 187.752253 
L 395.463474 174.647453 
L 395.666451 198.130649 
L 395.76794 188.228835 
L 395.869428 196.778733 
L 395.970916 178.97642 
L 396.072405 211.45248 
L 396.275381 191.286828 
L 396.478358 214.440483 
L 396.782823 184.672946 
L 396.884312 185.785562 
L 396.9858 195.314191 
L 397.087288 187.874988 
L 397.188777 204.545101 
L 397.391754 194.190998 
L 397.493242 172.424925 
L 397.59473 208.375152 
L 397.797707 186.728617 
L 397.899195 212.494753 
L 398.102172 186.43385 
L 398.203661 196.76086 
L 398.305149 190.906346 
L 398.609614 225.484643 
L 398.812591 188.709359 
L 398.914079 196.826716 
L 399.218544 180.449849 
L 399.320033 190.911923 
L 399.421521 171.131985 
L 399.725986 209.518658 
L 399.827475 195.282034 
L 399.928963 200.700973 
L 400.030451 179.402908 
L 400.13194 198.597851 
L 400.233428 188.910304 
L 400.334916 196.041395 
L 400.436405 191.753487 
L 400.537893 196.864641 
L 400.639382 192.184076 
L 400.74087 182.318873 
L 400.842358 185.785086 
L 400.943847 212.372472 
L 401.045335 204.809238 
L 401.146823 187.044454 
L 401.248312 197.572562 
L 401.3498 175.523548 
L 401.552777 204.185497 
L 401.654265 189.34132 
L 401.857242 201.145568 
L 401.95873 197.692844 
L 402.060219 183.888278 
L 402.161707 190.100827 
L 402.263196 183.992326 
L 402.364684 204.369939 
L 402.466172 182.601182 
L 402.770637 208.375204 
L 402.872126 180.351586 
L 402.973614 191.787923 
L 403.075103 188.438886 
L 403.176591 207.012612 
L 403.278079 192.894879 
L 403.379568 203.811365 
L 403.481056 188.834934 
L 403.582544 195.259859 
L 403.684033 221.368084 
L 403.988498 192.919789 
L 404.191475 201.240485 
L 404.292963 194.310977 
L 404.394451 204.543161 
L 404.597428 182.2136 
L 404.800405 200.280662 
L 404.901893 190.95603 
L 405.003382 171.416177 
L 405.10487 207.854091 
L 405.206358 178.31409 
L 405.307847 185.615895 
L 405.510824 178.753385 
L 405.612312 194.495349 
L 405.7138 187.835606 
L 405.815289 194.600677 
L 405.916777 213.560649 
L 406.221242 184.725683 
L 406.424219 207.216728 
L 406.627196 181.503978 
L 406.728684 191.99524 
L 406.830172 191.408254 
L 406.931661 194.809277 
L 407.033149 202.171472 
L 407.236126 189.509123 
L 407.337614 204.969908 
L 407.439103 177.677083 
L 407.642079 221.288768 
L 407.743568 184.761489 
L 407.845056 207.285133 
L 408.25101 193.00302 
L 408.352498 210.771829 
L 408.555475 192.919627 
L 408.656963 211.631949 
L 408.85994 181.944382 
L 408.961428 192.09228 
L 409.062917 178.683417 
L 409.164405 186.812955 
L 409.265893 185.560979 
L 409.367382 216.49214 
L 409.46887 184.70869 
L 409.570359 198.317755 
L 409.874824 193.61977 
L 409.976312 184.57187 
L 410.0778 193.148812 
L 410.179289 172.587779 
L 410.382266 193.661013 
L 410.483754 174.582643 
L 410.686731 207.100886 
L 410.788219 168.975792 
L 410.889707 198.271235 
L 410.991196 194.654135 
L 411.092684 175.570208 
L 411.295661 206.075441 
L 411.397149 211.455483 
L 411.600126 179.683667 
L 411.803103 207.111245 
L 412.107568 190.54574 
L 412.310545 204.490685 
L 412.412033 192.596619 
L 412.513521 201.482398 
L 412.61501 200.581665 
L 412.716498 193.321568 
L 412.817987 195.389467 
L 413.020963 207.95296 
L 413.122452 207.883137 
L 413.325428 195.047892 
L 413.426917 190.76884 
L 413.528405 203.150216 
L 413.629894 193.662282 
L 413.731382 205.069758 
L 413.83287 204.321025 
L 413.934359 186.377242 
L 414.035847 189.241261 
L 414.137335 198.530353 
L 414.340312 181.78276 
L 414.441801 206.730903 
L 414.644777 179.58241 
L 414.847754 202.920643 
L 414.949242 204.875838 
L 415.050731 184.507665 
L 415.152219 188.793271 
L 415.253708 184.299581 
L 415.355196 205.067587 
L 415.659661 188.347355 
L 415.862638 204.441705 
L 415.964126 194.282541 
L 416.065615 196.763889 
L 416.167103 191.792878 
L 416.268591 205.402658 
L 416.37008 179.760336 
L 416.471568 201.476955 
L 416.573056 197.318649 
L 416.674545 173.875627 
L 416.776033 204.592701 
L 417.080498 180.018271 
L 417.283475 206.365247 
L 417.384963 218.566618 
L 417.486452 180.632319 
L 417.689429 210.229322 
L 417.790917 172.782391 
L 417.892405 217.014287 
L 417.993894 195.114856 
L 418.095382 212.669222 
L 418.19687 190.232561 
L 418.298359 194.543475 
L 418.399847 185.135952 
L 418.501336 195.574726 
L 418.602824 194.775644 
L 418.704312 201.150653 
L 418.805801 196.851187 
L 418.907289 186.536716 
L 419.008777 220.609205 
L 419.313243 178.989235 
L 419.414731 203.166897 
L 419.719196 175.534814 
L 419.922173 211.257229 
L 420.023661 200.967157 
L 420.12515 173.113166 
L 420.328126 194.682972 
L 420.429615 193.224509 
L 420.632591 207.043203 
L 420.835568 179.903291 
L 420.835568 179.903291 
" style="fill:none;stroke:#1f77b4;stroke-linecap:square;stroke-width:1.5;"/>
   </g>
   <g id="matplotlib.axis_1">
    <g id="xtick_1">
     <g id="line2d_2">
      <defs>
       <path d="M 0 0 
L 0 3.5 
" id="m511007bbb1" style="stroke:#000000;stroke-width:0.8;"/>
      </defs>
      <g>
       <use style="stroke:#000000;stroke-width:0.8;" x="116.471932" xlink:href="#m511007bbb1" y="254.83575"/>
      </g>
     </g>
     <g id="text_1">
      <!-- 0 -->
      <g transform="translate(108.200682 281.591688)scale(0.26 -0.26)">
       <defs>
        <path d="M 31.78125 66.40625 
Q 24.171875 66.40625 20.328125 58.90625 
Q 16.5 51.421875 16.5 36.375 
Q 16.5 21.390625 20.328125 13.890625 
Q 24.171875 6.390625 31.78125 6.390625 
Q 39.453125 6.390625 43.28125 13.890625 
Q 47.125 21.390625 47.125 36.375 
Q 47.125 51.421875 43.28125 58.90625 
Q 39.453125 66.40625 31.78125 66.40625 
z
M 31.78125 74.21875 
Q 44.046875 74.21875 50.515625 64.515625 
Q 56.984375 54.828125 56.984375 36.375 
Q 56.984375 17.96875 50.515625 8.265625 
Q 44.046875 -1.421875 31.78125 -1.421875 
Q 19.53125 -1.421875 13.0625 8.265625 
Q 6.59375 17.96875 6.59375 36.375 
Q 6.59375 54.828125 13.0625 64.515625 
Q 19.53125 74.21875 31.78125 74.21875 
z
" id="DejaVuSans-48"/>
       </defs>
       <use xlink:href="#DejaVuSans-48"/>
      </g>
     </g>
    </g>
    <g id="xtick_2">
     <g id="line2d_3">
      <g>
       <use style="stroke:#000000;stroke-width:0.8;" x="217.960307" xlink:href="#m511007bbb1" y="254.83575"/>
      </g>
     </g>
     <g id="text_2">
      <!-- 1 -->
      <g transform="translate(209.689057 281.591688)scale(0.26 -0.26)">
       <defs>
        <path d="M 12.40625 8.296875 
L 28.515625 8.296875 
L 28.515625 63.921875 
L 10.984375 60.40625 
L 10.984375 69.390625 
L 28.421875 72.90625 
L 38.28125 72.90625 
L 38.28125 8.296875 
L 54.390625 8.296875 
L 54.390625 0 
L 12.40625 0 
z
" id="DejaVuSans-49"/>
       </defs>
       <use xlink:href="#DejaVuSans-49"/>
      </g>
     </g>
    </g>
    <g id="xtick_3">
     <g id="line2d_4">
      <g>
       <use style="stroke:#000000;stroke-width:0.8;" x="319.448682" xlink:href="#m511007bbb1" y="254.83575"/>
      </g>
     </g>
     <g id="text_3">
      <!-- 2 -->
      <g transform="translate(311.177432 281.591688)scale(0.26 -0.26)">
       <defs>
        <path d="M 19.1875 8.296875 
L 53.609375 8.296875 
L 53.609375 0 
L 7.328125 0 
L 7.328125 8.296875 
Q 12.9375 14.109375 22.625 23.890625 
Q 32.328125 33.6875 34.8125 36.53125 
Q 39.546875 41.84375 41.421875 45.53125 
Q 43.3125 49.21875 43.3125 52.78125 
Q 43.3125 58.59375 39.234375 62.25 
Q 35.15625 65.921875 28.609375 65.921875 
Q 23.96875 65.921875 18.8125 64.3125 
Q 13.671875 62.703125 7.8125 59.421875 
L 7.8125 69.390625 
Q 13.765625 71.78125 18.9375 73 
Q 24.125 74.21875 28.421875 74.21875 
Q 39.75 74.21875 46.484375 68.546875 
Q 53.21875 62.890625 53.21875 53.421875 
Q 53.21875 48.921875 51.53125 44.890625 
Q 49.859375 40.875 45.40625 35.40625 
Q 44.1875 33.984375 37.640625 27.21875 
Q 31.109375 20.453125 19.1875 8.296875 
z
" id="DejaVuSans-50"/>
       </defs>
       <use xlink:href="#DejaVuSans-50"/>
      </g>
     </g>
    </g>
    <g id="xtick_4">
     <g id="line2d_5">
      <g>
       <use style="stroke:#000000;stroke-width:0.8;" x="420.937057" xlink:href="#m511007bbb1" y="254.83575"/>
      </g>
     </g>
     <g id="text_4">
      <!-- 3 -->
      <g transform="translate(412.665807 281.591688)scale(0.26 -0.26)">
       <defs>
        <path d="M 40.578125 39.3125 
Q 47.65625 37.796875 51.625 33 
Q 55.609375 28.21875 55.609375 21.1875 
Q 55.609375 10.40625 48.1875 4.484375 
Q 40.765625 -1.421875 27.09375 -1.421875 
Q 22.515625 -1.421875 17.65625 -0.515625 
Q 12.796875 0.390625 7.625 2.203125 
L 7.625 11.71875 
Q 11.71875 9.328125 16.59375 8.109375 
Q 21.484375 6.890625 26.8125 6.890625 
Q 36.078125 6.890625 40.9375 10.546875 
Q 45.796875 14.203125 45.796875 21.1875 
Q 45.796875 27.640625 41.28125 31.265625 
Q 36.765625 34.90625 28.71875 34.90625 
L 20.21875 34.90625 
L 20.21875 43.015625 
L 29.109375 43.015625 
Q 36.375 43.015625 40.234375 45.921875 
Q 44.09375 48.828125 44.09375 54.296875 
Q 44.09375 59.90625 40.109375 62.90625 
Q 36.140625 65.921875 28.71875 65.921875 
Q 24.65625 65.921875 20.015625 65.03125 
Q 15.375 64.15625 9.8125 62.3125 
L 9.8125 71.09375 
Q 15.4375 72.65625 20.34375 73.4375 
Q 25.25 74.21875 29.59375 74.21875 
Q 40.828125 74.21875 47.359375 69.109375 
Q 53.90625 64.015625 53.90625 55.328125 
Q 53.90625 49.265625 50.4375 45.09375 
Q 46.96875 40.921875 40.578125 39.3125 
z
" id="DejaVuSans-51"/>
       </defs>
       <use xlink:href="#DejaVuSans-51"/>
      </g>
     </g>
    </g>
    <g id="text_5">
     <!-- time (s) -->
     <g transform="translate(218.236094 310.754813)scale(0.26 -0.26)">
      <defs>
       <path d="M 18.3125 70.21875 
L 18.3125 54.6875 
L 36.8125 54.6875 
L 36.8125 47.703125 
L 18.3125 47.703125 
L 18.3125 18.015625 
Q 18.3125 11.328125 20.140625 9.421875 
Q 21.96875 7.515625 27.59375 7.515625 
L 36.8125 7.515625 
L 36.8125 0 
L 27.59375 0 
Q 17.1875 0 13.234375 3.875 
Q 9.28125 7.765625 9.28125 18.015625 
L 9.28125 47.703125 
L 2.6875 47.703125 
L 2.6875 54.6875 
L 9.28125 54.6875 
L 9.28125 70.21875 
z
" id="DejaVuSans-116"/>
       <path d="M 9.421875 54.6875 
L 18.40625 54.6875 
L 18.40625 0 
L 9.421875 0 
z
M 9.421875 75.984375 
L 18.40625 75.984375 
L 18.40625 64.59375 
L 9.421875 64.59375 
z
" id="DejaVuSans-105"/>
       <path d="M 52 44.1875 
Q 55.375 50.25 60.0625 53.125 
Q 64.75 56 71.09375 56 
Q 79.640625 56 84.28125 50.015625 
Q 88.921875 44.046875 88.921875 33.015625 
L 88.921875 0 
L 79.890625 0 
L 79.890625 32.71875 
Q 79.890625 40.578125 77.09375 44.375 
Q 74.3125 48.1875 68.609375 48.1875 
Q 61.625 48.1875 57.5625 43.546875 
Q 53.515625 38.921875 53.515625 30.90625 
L 53.515625 0 
L 44.484375 0 
L 44.484375 32.71875 
Q 44.484375 40.625 41.703125 44.40625 
Q 38.921875 48.1875 33.109375 48.1875 
Q 26.21875 48.1875 22.15625 43.53125 
Q 18.109375 38.875 18.109375 30.90625 
L 18.109375 0 
L 9.078125 0 
L 9.078125 54.6875 
L 18.109375 54.6875 
L 18.109375 46.1875 
Q 21.1875 51.21875 25.484375 53.609375 
Q 29.78125 56 35.6875 56 
Q 41.65625 56 45.828125 52.96875 
Q 50 49.953125 52 44.1875 
z
" id="DejaVuSans-109"/>
       <path d="M 56.203125 29.59375 
L 56.203125 25.203125 
L 14.890625 25.203125 
Q 15.484375 15.921875 20.484375 11.0625 
Q 25.484375 6.203125 34.421875 6.203125 
Q 39.59375 6.203125 44.453125 7.46875 
Q 49.3125 8.734375 54.109375 11.28125 
L 54.109375 2.78125 
Q 49.265625 0.734375 44.1875 -0.34375 
Q 39.109375 -1.421875 33.890625 -1.421875 
Q 20.796875 -1.421875 13.15625 6.1875 
Q 5.515625 13.8125 5.515625 26.8125 
Q 5.515625 40.234375 12.765625 48.109375 
Q 20.015625 56 32.328125 56 
Q 43.359375 56 49.78125 48.890625 
Q 56.203125 41.796875 56.203125 29.59375 
z
M 47.21875 32.234375 
Q 47.125 39.59375 43.09375 43.984375 
Q 39.0625 48.390625 32.421875 48.390625 
Q 24.90625 48.390625 20.390625 44.140625 
Q 15.875 39.890625 15.1875 32.171875 
z
" id="DejaVuSans-101"/>
       <path id="DejaVuSans-32"/>
       <path d="M 31 75.875 
Q 24.46875 64.65625 21.28125 53.65625 
Q 18.109375 42.671875 18.109375 31.390625 
Q 18.109375 20.125 21.3125 9.0625 
Q 24.515625 -2 31 -13.1875 
L 23.1875 -13.1875 
Q 15.875 -1.703125 12.234375 9.375 
Q 8.59375 20.453125 8.59375 31.390625 
Q 8.59375 42.28125 12.203125 53.3125 
Q 15.828125 64.359375 23.1875 75.875 
z
" id="DejaVuSans-40"/>
       <path d="M 44.28125 53.078125 
L 44.28125 44.578125 
Q 40.484375 46.53125 36.375 47.5 
Q 32.28125 48.484375 27.875 48.484375 
Q 21.1875 48.484375 17.84375 46.4375 
Q 14.5 44.390625 14.5 40.28125 
Q 14.5 37.15625 16.890625 35.375 
Q 19.28125 33.59375 26.515625 31.984375 
L 29.59375 31.296875 
Q 39.15625 29.25 43.1875 25.515625 
Q 47.21875 21.78125 47.21875 15.09375 
Q 47.21875 7.46875 41.1875 3.015625 
Q 35.15625 -1.421875 24.609375 -1.421875 
Q 20.21875 -1.421875 15.453125 -0.5625 
Q 10.6875 0.296875 5.421875 2 
L 5.421875 11.28125 
Q 10.40625 8.6875 15.234375 7.390625 
Q 20.0625 6.109375 24.8125 6.109375 
Q 31.15625 6.109375 34.5625 8.28125 
Q 37.984375 10.453125 37.984375 14.40625 
Q 37.984375 18.0625 35.515625 20.015625 
Q 33.0625 21.96875 24.703125 23.78125 
L 21.578125 24.515625 
Q 13.234375 26.265625 9.515625 29.90625 
Q 5.8125 33.546875 5.8125 39.890625 
Q 5.8125 47.609375 11.28125 51.796875 
Q 16.75 56 26.8125 56 
Q 31.78125 56 36.171875 55.265625 
Q 40.578125 54.546875 44.28125 53.078125 
z
" id="DejaVuSans-115"/>
       <path d="M 8.015625 75.875 
L 15.828125 75.875 
Q 23.140625 64.359375 26.78125 53.3125 
Q 30.421875 42.28125 30.421875 31.390625 
Q 30.421875 20.453125 26.78125 9.375 
Q 23.140625 -1.703125 15.828125 -13.1875 
L 8.015625 -13.1875 
Q 14.5 -2 17.703125 9.0625 
Q 20.90625 20.125 20.90625 31.390625 
Q 20.90625 42.671875 17.703125 53.65625 
Q 14.5 64.65625 8.015625 75.875 
z
" id="DejaVuSans-41"/>
      </defs>
      <use xlink:href="#DejaVuSans-116"/>
      <use x="39.208984" xlink:href="#DejaVuSans-105"/>
      <use x="66.992188" xlink:href="#DejaVuSans-109"/>
      <use x="164.404297" xlink:href="#DejaVuSans-101"/>
      <use x="225.927734" xlink:href="#DejaVuSans-32"/>
      <use x="257.714844" xlink:href="#DejaVuSans-40"/>
      <use x="296.728516" xlink:href="#DejaVuSans-115"/>
      <use x="348.828125" xlink:href="#DejaVuSans-41"/>
     </g>
    </g>
   </g>
   <g id="matplotlib.axis_2">
    <g id="ytick_1">
     <g id="line2d_6">
      <defs>
       <path d="M 0 0 
L -3.5 0 
" id="m279105f032" style="stroke:#000000;stroke-width:0.8;"/>
      </defs>
      <g>
       <use style="stroke:#000000;stroke-width:0.8;" x="101.25375" xlink:href="#m279105f032" y="254.83575"/>
      </g>
     </g>
     <g id="text_6">
      <!-- 20.5 -->
      <g transform="translate(36.363125 264.713719)scale(0.26 -0.26)">
       <defs>
        <path d="M 10.6875 12.40625 
L 21 12.40625 
L 21 0 
L 10.6875 0 
z
" id="DejaVuSans-46"/>
        <path d="M 10.796875 72.90625 
L 49.515625 72.90625 
L 49.515625 64.59375 
L 19.828125 64.59375 
L 19.828125 46.734375 
Q 21.96875 47.46875 24.109375 47.828125 
Q 26.265625 48.1875 28.421875 48.1875 
Q 40.625 48.1875 47.75 41.5 
Q 54.890625 34.8125 54.890625 23.390625 
Q 54.890625 11.625 47.5625 5.09375 
Q 40.234375 -1.421875 26.90625 -1.421875 
Q 22.3125 -1.421875 17.546875 -0.640625 
Q 12.796875 0.140625 7.71875 1.703125 
L 7.71875 11.625 
Q 12.109375 9.234375 16.796875 8.0625 
Q 21.484375 6.890625 26.703125 6.890625 
Q 35.15625 6.890625 40.078125 11.328125 
Q 45.015625 15.765625 45.015625 23.390625 
Q 45.015625 31 40.078125 35.4375 
Q 35.15625 39.890625 26.703125 39.890625 
Q 22.75 39.890625 18.8125 39.015625 
Q 14.890625 38.140625 10.796875 36.28125 
z
" id="DejaVuSans-53"/>
       </defs>
       <use xlink:href="#DejaVuSans-50"/>
       <use x="63.623047" xlink:href="#DejaVuSans-48"/>
       <use x="127.246094" xlink:href="#DejaVuSans-46"/>
       <use x="159.033203" xlink:href="#DejaVuSans-53"/>
      </g>
     </g>
    </g>
    <g id="ytick_2">
     <g id="line2d_7">
      <g>
       <use style="stroke:#000000;stroke-width:0.8;" x="101.25375" xlink:href="#m279105f032" y="200.47575"/>
      </g>
     </g>
     <g id="text_7">
      <!-- 21.0 -->
      <g transform="translate(36.363125 210.353719)scale(0.26 -0.26)">
       <use xlink:href="#DejaVuSans-50"/>
       <use x="63.623047" xlink:href="#DejaVuSans-49"/>
       <use x="127.246094" xlink:href="#DejaVuSans-46"/>
       <use x="159.033203" xlink:href="#DejaVuSans-48"/>
      </g>
     </g>
    </g>
    <g id="ytick_3">
     <g id="line2d_8">
      <g>
       <use style="stroke:#000000;stroke-width:0.8;" x="101.25375" xlink:href="#m279105f032" y="146.11575"/>
      </g>
     </g>
     <g id="text_8">
      <!-- 21.5 -->
      <g transform="translate(36.363125 155.993719)scale(0.26 -0.26)">
       <use xlink:href="#DejaVuSans-50"/>
       <use x="63.623047" xlink:href="#DejaVuSans-49"/>
       <use x="127.246094" xlink:href="#DejaVuSans-46"/>
       <use x="159.033203" xlink:href="#DejaVuSans-53"/>
      </g>
     </g>
    </g>
    <g id="ytick_4">
     <g id="line2d_9">
      <g>
       <use style="stroke:#000000;stroke-width:0.8;" x="101.25375" xlink:href="#m279105f032" y="91.75575"/>
      </g>
     </g>
     <g id="text_9">
      <!-- 22.0 -->
      <g transform="translate(36.363125 101.633719)scale(0.26 -0.26)">
       <use xlink:href="#DejaVuSans-50"/>
       <use x="63.623047" xlink:href="#DejaVuSans-50"/>
       <use x="127.246094" xlink:href="#DejaVuSans-46"/>
       <use x="159.033203" xlink:href="#DejaVuSans-48"/>
      </g>
     </g>
    </g>
    <g id="ytick_5">
     <g id="line2d_10">
      <g>
       <use style="stroke:#000000;stroke-width:0.8;" x="101.25375" xlink:href="#m279105f032" y="37.39575"/>
      </g>
     </g>
     <g id="text_10">
      <!-- 22.5 -->
      <g transform="translate(36.363125 47.273719)scale(0.26 -0.26)">
       <use xlink:href="#DejaVuSans-50"/>
       <use x="63.623047" xlink:href="#DejaVuSans-50"/>
       <use x="127.246094" xlink:href="#DejaVuSans-46"/>
       <use x="159.033203" xlink:href="#DejaVuSans-53"/>
      </g>
     </g>
    </g>
    <g id="text_11">
     <!-- amplitude (a.u.) -->
     <g transform="translate(26.955937 250.552469)rotate(-90)scale(0.26 -0.26)">
      <defs>
       <path d="M 34.28125 27.484375 
Q 23.390625 27.484375 19.1875 25 
Q 14.984375 22.515625 14.984375 16.5 
Q 14.984375 11.71875 18.140625 8.90625 
Q 21.296875 6.109375 26.703125 6.109375 
Q 34.1875 6.109375 38.703125 11.40625 
Q 43.21875 16.703125 43.21875 25.484375 
L 43.21875 27.484375 
z
M 52.203125 31.203125 
L 52.203125 0 
L 43.21875 0 
L 43.21875 8.296875 
Q 40.140625 3.328125 35.546875 0.953125 
Q 30.953125 -1.421875 24.3125 -1.421875 
Q 15.921875 -1.421875 10.953125 3.296875 
Q 6 8.015625 6 15.921875 
Q 6 25.140625 12.171875 29.828125 
Q 18.359375 34.515625 30.609375 34.515625 
L 43.21875 34.515625 
L 43.21875 35.40625 
Q 43.21875 41.609375 39.140625 45 
Q 35.0625 48.390625 27.6875 48.390625 
Q 23 48.390625 18.546875 47.265625 
Q 14.109375 46.140625 10.015625 43.890625 
L 10.015625 52.203125 
Q 14.9375 54.109375 19.578125 55.046875 
Q 24.21875 56 28.609375 56 
Q 40.484375 56 46.34375 49.84375 
Q 52.203125 43.703125 52.203125 31.203125 
z
" id="DejaVuSans-97"/>
       <path d="M 18.109375 8.203125 
L 18.109375 -20.796875 
L 9.078125 -20.796875 
L 9.078125 54.6875 
L 18.109375 54.6875 
L 18.109375 46.390625 
Q 20.953125 51.265625 25.265625 53.625 
Q 29.59375 56 35.59375 56 
Q 45.5625 56 51.78125 48.09375 
Q 58.015625 40.1875 58.015625 27.296875 
Q 58.015625 14.40625 51.78125 6.484375 
Q 45.5625 -1.421875 35.59375 -1.421875 
Q 29.59375 -1.421875 25.265625 0.953125 
Q 20.953125 3.328125 18.109375 8.203125 
z
M 48.6875 27.296875 
Q 48.6875 37.203125 44.609375 42.84375 
Q 40.53125 48.484375 33.40625 48.484375 
Q 26.265625 48.484375 22.1875 42.84375 
Q 18.109375 37.203125 18.109375 27.296875 
Q 18.109375 17.390625 22.1875 11.75 
Q 26.265625 6.109375 33.40625 6.109375 
Q 40.53125 6.109375 44.609375 11.75 
Q 48.6875 17.390625 48.6875 27.296875 
z
" id="DejaVuSans-112"/>
       <path d="M 9.421875 75.984375 
L 18.40625 75.984375 
L 18.40625 0 
L 9.421875 0 
z
" id="DejaVuSans-108"/>
       <path d="M 8.5 21.578125 
L 8.5 54.6875 
L 17.484375 54.6875 
L 17.484375 21.921875 
Q 17.484375 14.15625 20.5 10.265625 
Q 23.53125 6.390625 29.59375 6.390625 
Q 36.859375 6.390625 41.078125 11.03125 
Q 45.3125 15.671875 45.3125 23.6875 
L 45.3125 54.6875 
L 54.296875 54.6875 
L 54.296875 0 
L 45.3125 0 
L 45.3125 8.40625 
Q 42.046875 3.421875 37.71875 1 
Q 33.40625 -1.421875 27.6875 -1.421875 
Q 18.265625 -1.421875 13.375 4.4375 
Q 8.5 10.296875 8.5 21.578125 
z
M 31.109375 56 
z
" id="DejaVuSans-117"/>
       <path d="M 45.40625 46.390625 
L 45.40625 75.984375 
L 54.390625 75.984375 
L 54.390625 0 
L 45.40625 0 
L 45.40625 8.203125 
Q 42.578125 3.328125 38.25 0.953125 
Q 33.9375 -1.421875 27.875 -1.421875 
Q 17.96875 -1.421875 11.734375 6.484375 
Q 5.515625 14.40625 5.515625 27.296875 
Q 5.515625 40.1875 11.734375 48.09375 
Q 17.96875 56 27.875 56 
Q 33.9375 56 38.25 53.625 
Q 42.578125 51.265625 45.40625 46.390625 
z
M 14.796875 27.296875 
Q 14.796875 17.390625 18.875 11.75 
Q 22.953125 6.109375 30.078125 6.109375 
Q 37.203125 6.109375 41.296875 11.75 
Q 45.40625 17.390625 45.40625 27.296875 
Q 45.40625 37.203125 41.296875 42.84375 
Q 37.203125 48.484375 30.078125 48.484375 
Q 22.953125 48.484375 18.875 42.84375 
Q 14.796875 37.203125 14.796875 27.296875 
z
" id="DejaVuSans-100"/>
      </defs>
      <use xlink:href="#DejaVuSans-97"/>
      <use x="61.279297" xlink:href="#DejaVuSans-109"/>
      <use x="158.691406" xlink:href="#DejaVuSans-112"/>
      <use x="222.167969" xlink:href="#DejaVuSans-108"/>
      <use x="249.951172" xlink:href="#DejaVuSans-105"/>
      <use x="277.734375" xlink:href="#DejaVuSans-116"/>
      <use x="316.943359" xlink:href="#DejaVuSans-117"/>
      <use x="380.322266" xlink:href="#DejaVuSans-100"/>
      <use x="443.798828" xlink:href="#DejaVuSans-101"/>
      <use x="505.322266" xlink:href="#DejaVuSans-32"/>
      <use x="537.109375" xlink:href="#DejaVuSans-40"/>
      <use x="576.123047" xlink:href="#DejaVuSans-97"/>
      <use x="637.402344" xlink:href="#DejaVuSans-46"/>
      <use x="669.189453" xlink:href="#DejaVuSans-117"/>
      <use x="732.568359" xlink:href="#DejaVuSans-46"/>
      <use x="764.355469" xlink:href="#DejaVuSans-41"/>
     </g>
    </g>
   </g>
   <g id="line2d_11">
    <path clip-path="url(#p20d95a81ca)" d="M 116.471932 91.75575 
L 122.967188 91.841184 
L 124.489513 92.264542 
L 128.650537 92.288623 
L 134.942816 92.067787 
L 135.34877 92.243001 
L 136.668118 93.144547 
L 137.784491 93.224772 
L 141.336584 93.235388 
L 142.452956 93.073754 
L 145.193142 92.942384 
L 146.208026 92.949093 
L 146.613979 93.225799 
L 147.730351 94.321985 
L 148.44077 94.458749 
L 152.398817 94.677465 
L 154.428584 94.306131 
L 155.747933 94.17745 
L 156.458352 94.112585 
L 156.864305 94.314672 
L 158.285142 95.584109 
L 159.401514 95.81504 
L 162.243189 96.172364 
L 163.055096 96.042605 
L 164.272956 95.742114 
L 166.810166 95.617191 
L 167.520584 95.617161 
L 167.82505 95.80664 
L 168.332491 96.495763 
L 168.941422 97.215831 
L 169.550352 97.509939 
L 170.869701 97.78715 
L 173.508399 98.175407 
L 174.320306 97.954518 
L 175.436678 97.639669 
L 177.364957 97.438444 
L 177.669422 97.608896 
L 178.176864 98.214638 
L 178.785794 98.865256 
L 179.496213 99.28448 
L 181.018538 99.843189 
L 183.149794 100.366507 
L 183.961701 100.328891 
L 184.773608 100.062094 
L 185.585515 99.809692 
L 187.006352 99.768366 
L 187.919748 99.764522 
L 188.224213 99.964173 
L 188.630166 100.590691 
L 189.340585 101.726421 
L 189.848027 102.113759 
L 190.761422 102.444183 
L 193.298632 103.028175 
L 194.00905 102.993568 
L 194.820957 102.681722 
L 195.429888 102.557274 
L 198.170074 102.573825 
L 198.474539 102.825779 
L 198.880492 103.526841 
L 199.489422 104.582521 
L 199.996864 105.059624 
L 200.808771 105.453276 
L 203.143004 106.254873 
L 203.853423 106.322781 
L 204.563841 106.188117 
L 205.984678 105.745403 
L 208.724865 105.896233 
L 209.02933 106.218177 
L 209.63826 107.440563 
L 210.145702 108.217712 
L 210.754632 108.694315 
L 212.073981 109.33387 
L 213.900772 110.027694 
L 214.61119 110.022053 
L 215.321609 109.773427 
L 216.235004 109.383652 
L 217.046911 109.414265 
L 218.569237 109.48921 
L 219.279656 109.534416 
L 219.584121 109.811112 
L 219.990074 110.629486 
L 220.599004 111.937983 
L 221.106446 112.500762 
L 221.816865 112.907388 
L 224.354074 114.010561 
L 224.963005 114.078417 
L 225.571935 113.907374 
L 226.891284 113.311513 
L 228.109144 113.438953 
L 229.529981 113.531605 
L 230.138912 113.595496 
L 230.443377 113.895565 
L 230.84933 114.801675 
L 231.458261 116.26266 
L 231.965702 116.87508 
L 232.676121 117.296543 
L 233.99547 117.745843 
L 235.619284 118.221489 
L 236.126726 118.06448 
L 237.243098 117.491961 
L 238.257982 117.580061 
L 240.389238 117.813003 
L 240.896679 117.877226 
L 241.201145 118.185958 
L 241.607098 119.141582 
L 242.216028 120.665949 
L 242.72347 121.295725 
L 243.3324 121.677319 
L 246.174075 122.857455 
L 246.681517 122.73178 
L 247.290447 122.291827 
L 247.797889 122.004262 
L 248.406819 122.007589 
L 251.45147 122.535664 
L 251.755936 123.144047 
L 252.669331 125.42887 
L 253.176773 126.036326 
L 254.090168 126.668215 
L 255.003564 127.122292 
L 256.728866 127.670441 
L 257.236308 127.489622 
L 258.35268 126.828308 
L 259.266075 126.9113 
L 261.701796 127.27693 
L 262.10775 127.396211 
L 262.412215 127.825147 
L 262.818168 128.986175 
L 263.427099 130.651679 
L 263.934541 131.34793 
L 264.543471 131.768697 
L 267.385145 132.908831 
L 267.892587 132.754945 
L 268.400029 132.32679 
L 268.805983 132.035327 
L 269.313424 131.997714 
L 270.328308 132.172404 
L 271.749145 132.406327 
L 272.358076 132.447283 
L 272.662541 132.749721 
L 272.967006 133.498316 
L 273.880401 136.150024 
L 274.387843 136.790752 
L 275.19975 137.401073 
L 276.214634 137.827689 
L 277.026541 138.204687 
L 277.635471 138.447434 
L 278.041425 138.396406 
L 278.447378 138.116164 
L 279.259285 137.397358 
L 280.071192 137.40178 
L 281.187564 137.644922 
L 282.912867 138.031044 
L 283.420309 138.132231 
L 283.724774 138.554656 
L 284.130727 139.800056 
L 284.739657 141.682483 
L 285.145611 142.351409 
L 285.653053 142.761496 
L 286.46496 143.069671 
L 287.276867 143.432666 
L 288.494727 144.199342 
L 288.900681 144.099854 
L 289.306634 143.775339 
L 290.22003 142.878497 
L 291.031937 142.902599 
L 292.249797 143.223921 
L 293.569146 143.556946 
L 294.279565 143.677371 
L 294.482541 143.955858 
L 294.787007 144.80617 
L 295.598914 147.525851 
L 296.106355 148.321209 
L 296.816774 148.918455 
L 297.527193 149.269271 
L 298.643565 149.744526 
L 299.455472 150.204198 
L 299.861425 150.135679 
L 300.267379 149.755402 
L 300.977797 148.877983 
L 301.485239 148.83434 
L 302.500123 148.94867 
L 303.616495 149.28799 
L 304.631379 149.590793 
L 305.341798 149.699315 
L 305.646263 150.152166 
L 306.052216 151.514469 
L 306.661146 153.616126 
L 307.0671 154.345439 
L 307.574542 154.794562 
L 308.28496 155.131621 
L 309.198356 155.549675 
L 310.517705 156.396168 
L 310.82217 156.309201 
L 311.228123 155.937091 
L 312.141519 154.857992 
L 312.953426 154.866103 
L 313.866821 155.107244 
L 315.7951 155.688836 
L 316.201054 155.774546 
L 316.40403 156.014237 
L 316.708496 156.867499 
L 317.723379 160.59886 
L 318.129333 161.15217 
L 318.738263 161.53898 
L 321.478449 162.760338 
L 321.782914 162.599328 
L 322.188868 162.118801 
L 322.899286 161.121198 
L 323.508217 161.097325 
L 324.421612 161.206186 
L 325.537984 161.57727 
L 327.06031 162.175117 
L 327.567752 162.233017 
L 327.770728 162.430022 
L 328.075194 163.206038 
L 329.293054 167.567391 
L 329.699008 167.994471 
L 330.409426 168.342939 
L 332.03324 168.959665 
L 332.743659 169.451056 
L 333.048124 169.432896 
L 333.352589 169.192958 
L 333.758543 168.533007 
L 334.265984 167.698374 
L 334.671938 167.637301 
L 335.991287 167.744122 
L 337.107659 168.096129 
L 338.122543 168.677292 
L 339.035938 169.152805 
L 339.949333 169.411107 
L 340.253799 170.167092 
L 341.573147 174.944719 
L 341.979101 175.306811 
L 342.588031 175.471731 
L 343.602915 175.675669 
L 344.110357 176.021347 
L 345.023752 176.828888 
L 345.328217 176.769205 
L 345.632682 176.46379 
L 346.038636 175.681118 
L 346.444589 174.951517 
L 346.749054 174.859677 
L 347.763938 174.934487 
L 348.88031 175.33986 
L 350.301148 175.936571 
L 350.910078 176.021787 
L 351.113055 176.289657 
L 351.41752 177.223233 
L 352.432403 181.356902 
L 352.838357 182.063706 
L 353.345799 182.494166 
L 353.954729 182.657132 
L 354.665148 182.851738 
L 355.17259 183.300725 
L 355.883008 183.974388 
L 356.187473 183.96996 
L 356.491938 183.703399 
L 356.897892 182.943715 
L 357.405334 181.884368 
L 357.709799 181.778901 
L 358.826171 181.848795 
L 359.841055 182.172805 
L 360.652962 182.700317 
L 361.566357 183.301626 
L 362.073799 183.376842 
L 362.479753 183.478163 
L 362.682729 183.756251 
L 362.987194 184.722047 
L 364.002078 188.836805 
L 364.408032 189.408285 
L 365.016962 189.806477 
L 367.148218 191.045711 
L 367.554171 191.198625 
L 367.858636 191.025858 
L 368.163102 190.593685 
L 368.569055 189.595708 
L 368.975009 188.701113 
L 369.279474 188.619228 
L 372.222637 188.975046 
L 373.136032 189.338644 
L 374.049427 190.004672 
L 374.658358 190.353852 
L 375.571753 190.632088 
L 375.77473 191.091006 
L 376.180683 192.885391 
L 376.789613 195.584916 
L 377.195567 196.431206 
L 377.60152 196.753484 
L 378.108962 196.827493 
L 379.022358 196.917779 
L 379.428311 197.180139 
L 380.544683 198.18407 
L 380.849148 198.067611 
L 381.153614 197.678238 
L 381.559567 196.661347 
L 381.965521 195.754727 
L 382.269986 195.673474 
L 383.690823 195.811845 
L 384.604218 196.16141 
L 385.517614 196.810534 
L 386.329521 197.373785 
L 386.836963 197.455148 
L 387.242916 197.545902 
L 387.445893 197.841849 
L 387.750358 198.928154 
L 388.765242 203.803876 
L 389.171195 204.483832 
L 389.577149 204.69039 
L 390.084591 204.654656 
L 390.693521 204.655556 
L 391.200963 204.860712 
L 391.708405 205.338459 
L 392.114358 205.681161 
L 392.418823 205.638949 
L 392.723288 205.288773 
L 393.027753 204.60488 
L 393.636684 202.862072 
L 393.941149 202.765058 
L 397.087288 203.198043 
L 397.797707 203.581159 
L 399.725986 204.884503 
L 400.13194 204.93955 
L 400.334916 205.156881 
L 400.639382 206.042148 
L 401.857242 211.153844 
L 402.263196 211.670337 
L 402.669149 211.820334 
L 403.785521 211.965952 
L 404.394451 212.426817 
L 405.10487 213.102793 
L 405.409335 213.074633 
L 405.7138 212.765436 
L 406.018265 212.140284 
L 406.728684 210.323592 
L 407.134638 210.296017 
L 409.062917 210.542831 
L 410.0778 210.943791 
L 410.889707 211.531713 
L 411.803103 212.206517 
L 412.310545 212.27037 
L 412.61501 212.341725 
L 412.817987 212.611228 
L 413.122452 213.673002 
L 414.238824 218.941692 
L 414.644777 219.526052 
L 415.050731 219.691821 
L 416.268591 219.820016 
L 416.674545 220.150118 
L 417.790917 221.423704 
L 417.993894 221.331694 
L 418.298359 220.865543 
L 418.704312 219.621258 
L 419.110266 218.480965 
L 419.414731 218.360765 
L 420.632591 218.46705 
L 420.835568 218.521171 
L 420.835568 218.521171 
" style="fill:none;stroke:#ff7f0e;stroke-linecap:square;stroke-width:1.5;"/>
   </g>
   <g id="patch_3">
    <path d="M 101.25375 254.83575 
L 101.25375 37.39575 
" style="fill:none;stroke:#000000;stroke-linecap:square;stroke-linejoin:miter;stroke-width:0.8;"/>
   </g>
   <g id="patch_4">
    <path d="M 436.05375 254.83575 
L 436.05375 37.39575 
" style="fill:none;stroke:#000000;stroke-linecap:square;stroke-linejoin:miter;stroke-width:0.8;"/>
   </g>
   <g id="patch_5">
    <path d="M 101.25375 254.83575 
L 436.05375 254.83575 
" style="fill:none;stroke:#000000;stroke-linecap:square;stroke-linejoin:miter;stroke-width:0.8;"/>
   </g>
   <g id="patch_6">
    <path d="M 101.25375 37.39575 
L 436.05375 37.39575 
" style="fill:none;stroke:#000000;stroke-linecap:square;stroke-linejoin:miter;stroke-width:0.8;"/>
   </g>
   <g id="text_12">
    <!-- $B(t)$ -->
    <g transform="translate(244.31775 30.907125)scale(0.312 -0.312)">
     <defs>
      <path d="M 13 65.296875 
L 38 65.296875 
Q 58.796875 65.296875 58.796875 50.296875 
Q 58.796875 43.296875 52.40625 39 
Q 49 36.703125 41.296875 35.09375 
L 41.296875 35 
Q 53.90625 31.203125 53.90625 20 
Q 53.90625 10.203125 46.453125 5.09375 
Q 39 0 26.40625 0 
L -0.796875 0 
L -0.796875 1.59375 
Q 3.296875 2.203125 4.75 3.59375 
Q 6.203125 5 7.5 9.59375 
L 19.59375 53.203125 
Q 20.703125 57.09375 20.703125 59.59375 
Q 20.703125 61.796875 19.203125 62.546875 
Q 17.703125 63.296875 13 63.703125 
z
M 24.796875 36.296875 
L 28.59375 36.296875 
Q 38.40625 36.296875 43.546875 40.1875 
Q 48.703125 44.09375 48.703125 51.5 
Q 48.703125 57.09375 45.890625 59.6875 
Q 43.09375 62.296875 37 62.296875 
Q 34.703125 62.296875 33.84375 62.140625 
Q 33 62 32.296875 61.25 
Q 31.59375 60.5 31.09375 58.703125 
z
M 23.796875 33.09375 
L 20.59375 21.203125 
Q 17.09375 7.90625 17.09375 7.203125 
Q 17.09375 3 23.796875 3 
Q 32.59375 3 37.84375 7.390625 
Q 43.09375 11.796875 43.09375 20 
Q 43.09375 24.5 41.1875 27.703125 
Q 39.296875 30.90625 36.40625 31.90625 
Q 33 33.09375 23.796875 33.09375 
z
" id="STIXGeneral-Italic-66"/>
      <path d="M 30.40625 -16.09375 
L 29.203125 -17.703125 
Q 17.59375 -11.09375 11.1875 0.5 
Q 4.796875 12.09375 4.796875 25.203125 
Q 4.796875 52.90625 29.5 67.59375 
L 30.40625 66 
Q 20.203125 57.296875 16.796875 48.84375 
Q 13.40625 40.40625 13.40625 25.5 
Q 13.40625 10.703125 16.90625 1.5 
Q 20.40625 -7.703125 30.40625 -16.09375 
z
" id="STIXGeneral-Regular-40"/>
      <path d="M 29.59375 42.796875 
L 29.09375 39.59375 
L 20.703125 39.59375 
L 12 6.796875 
Q 11.796875 6 11.796875 5.40625 
Q 11.796875 3.796875 13.296875 3.796875 
Q 14.5 3.796875 16.09375 5.34375 
Q 17.703125 6.90625 21.40625 11.703125 
L 22.703125 11 
Q 18.09375 4 15.140625 1.453125 
Q 12.203125 -1.09375 8.40625 -1.09375 
Q 3.796875 -1.09375 3.796875 2.59375 
Q 3.796875 3.59375 5.40625 10 
L 13.203125 39.59375 
L 5.703125 39.59375 
L 5.59375 40.203125 
Q 5.59375 42 8.90625 42.703125 
Q 11.40625 43.296875 15.5 46.546875 
Q 19.59375 49.796875 22.203125 53.703125 
Q 22.796875 54.59375 23.59375 54.59375 
Q 24.5 54.59375 24.5 53.796875 
Q 24.5 53.296875 24.40625 53.09375 
L 21.59375 42.796875 
z
" id="STIXGeneral-Italic-116"/>
      <path d="M 2.90625 66 
L 4.09375 67.59375 
Q 15.5 60.796875 22 49.1875 
Q 28.5 37.59375 28.5 24.703125 
Q 28.5 -2.59375 3.796875 -17.703125 
L 2.90625 -16.09375 
Q 13.203125 -7.59375 16.546875 0.84375 
Q 19.90625 9.296875 19.90625 24.40625 
Q 19.90625 39.59375 16.546875 48.75 
Q 13.203125 57.90625 2.90625 66 
z
" id="STIXGeneral-Regular-41"/>
     </defs>
     <use transform="translate(0 0.40625)" xlink:href="#STIXGeneral-Italic-66"/>
     <use transform="translate(61.099991 0.40625)" xlink:href="#STIXGeneral-Regular-40"/>
     <use transform="translate(94.399979 0.40625)" xlink:href="#STIXGeneral-Italic-116"/>
     <use transform="translate(122.199966 0.40625)" xlink:href="#STIXGeneral-Regular-41"/>
    </g>
   </g>
   <g id="legend_1">
    <g id="line2d_12">
     <path d="M 463.19375 58.451688 
L 515.19375 58.451688 
" style="fill:none;stroke:#1f77b4;stroke-linecap:square;stroke-width:1.5;"/>
    </g>
    <g id="line2d_13"/>
    <g id="text_13">
     <!-- exact -->
     <g transform="translate(535.99375 67.551688)scale(0.26 -0.26)">
      <defs>
       <path d="M 54.890625 54.6875 
L 35.109375 28.078125 
L 55.90625 0 
L 45.3125 0 
L 29.390625 21.484375 
L 13.484375 0 
L 2.875 0 
L 24.125 28.609375 
L 4.6875 54.6875 
L 15.28125 54.6875 
L 29.78125 35.203125 
L 44.28125 54.6875 
z
" id="DejaVuSans-120"/>
       <path d="M 48.78125 52.59375 
L 48.78125 44.1875 
Q 44.96875 46.296875 41.140625 47.34375 
Q 37.3125 48.390625 33.40625 48.390625 
Q 24.65625 48.390625 19.8125 42.84375 
Q 14.984375 37.3125 14.984375 27.296875 
Q 14.984375 17.28125 19.8125 11.734375 
Q 24.65625 6.203125 33.40625 6.203125 
Q 37.3125 6.203125 41.140625 7.25 
Q 44.96875 8.296875 48.78125 10.40625 
L 48.78125 2.09375 
Q 45.015625 0.34375 40.984375 -0.53125 
Q 36.96875 -1.421875 32.421875 -1.421875 
Q 20.0625 -1.421875 12.78125 6.34375 
Q 5.515625 14.109375 5.515625 27.296875 
Q 5.515625 40.671875 12.859375 48.328125 
Q 20.21875 56 33.015625 56 
Q 37.15625 56 41.109375 55.140625 
Q 45.0625 54.296875 48.78125 52.59375 
z
" id="DejaVuSans-99"/>
      </defs>
      <use xlink:href="#DejaVuSans-101"/>
      <use x="59.773438" xlink:href="#DejaVuSans-120"/>
      <use x="118.953125" xlink:href="#DejaVuSans-97"/>
      <use x="180.232422" xlink:href="#DejaVuSans-99"/>
      <use x="235.212891" xlink:href="#DejaVuSans-116"/>
     </g>
    </g>
    <g id="line2d_14">
     <path d="M 463.19375 96.614813 
L 515.19375 96.614813 
" style="fill:none;stroke:#ff7f0e;stroke-linecap:square;stroke-width:1.5;"/>
    </g>
    <g id="line2d_15"/>
    <g id="text_14">
     <!-- estimated -->
     <g transform="translate(535.99375 105.714813)scale(0.26 -0.26)">
      <use xlink:href="#DejaVuSans-101"/>
      <use x="61.523438" xlink:href="#DejaVuSans-115"/>
      <use x="113.623047" xlink:href="#DejaVuSans-116"/>
      <use x="152.832031" xlink:href="#DejaVuSans-105"/>
      <use x="180.615234" xlink:href="#DejaVuSans-109"/>
      <use x="278.027344" xlink:href="#DejaVuSans-97"/>
      <use x="339.306641" xlink:href="#DejaVuSans-116"/>
      <use x="378.515625" xlink:href="#DejaVuSans-101"/>
      <use x="440.039062" xlink:href="#DejaVuSans-100"/>
     </g>
    </g>
   </g>
  </g>
 </g>
 <defs>
  <clipPath id="p20d95a81ca">
   <rect height="217.44" width="334.8" x="101.25375" y="37.39575"/>
  </clipPath>
 </defs>
</svg>
