<?xml version="1.0" encoding="utf-8" standalone="no"?>
<!DOCTYPE svg PUBLIC "-//W3C//DTD SVG 1.1//EN"
  "http://www.w3.org/Graphics/SVG/1.1/DTD/svg11.dtd">
<!-- Created with matplotlib (https://matplotlib.org/) -->
<svg height="323.362pt" version="1.1" viewBox="0 0 676.244688 323.362" width="676.244688pt" xmlns="http://www.w3.org/2000/svg" xmlns:xlink="http://www.w3.org/1999/xlink">
 <metadata>
  <rdf:RDF xmlns:cc="http://creativecommons.org/ns#" xmlns:dc="http://purl.org/dc/elements/1.1/" xmlns:rdf="http://www.w3.org/1999/02/22-rdf-syntax-ns#">
   <cc:Work>
    <dc:type rdf:resource="http://purl.org/dc/dcmitype/StillImage"/>
    <dc:date>2021-09-06T21:54:18.444549</dc:date>
    <dc:format>image/svg+xml</dc:format>
    <dc:creator>
     <cc:Agent>
      <dc:title>Matplotlib v3.3.2, https://matplotlib.org/</dc:title>
     </cc:Agent>
    </dc:creator>
   </cc:Work>
  </rdf:RDF>
 </metadata>
 <defs>
  <style type="text/css">*{stroke-linecap:butt;stroke-linejoin:round;}</style>
 </defs>
 <g id="figure_1">
  <g id="patch_1">
   <path d="M 0 323.362 
L 676.244688 323.362 
L 676.244688 0 
L 0 0 
z
" style="fill:#ffffff;"/>
  </g>
  <g id="axes_1">
   <g id="patch_2">
    <path d="M 92.990625 254.83575 
L 427.790625 254.83575 
L 427.790625 37.39575 
L 92.990625 37.39575 
z
" style="fill:#ffffff;"/>
   </g>
   <g id="line2d_1">
    <path clip-path="url(#pcdeb2d5b6d)" d="M 108.208807 136.000096 
L 108.310295 174.236134 
L 108.61476 108.177963 
L 108.919225 162.181213 
L 109.020714 162.782745 
L 109.122202 179.509554 
L 109.426667 112.448 
L 109.528156 148.025286 
L 109.731132 134.372519 
L 109.832621 138.310286 
L 109.934109 110.776576 
L 110.035598 120.983842 
L 110.238574 207.890912 
L 110.441551 136.695873 
L 110.543039 142.948689 
L 110.644528 131.544637 
L 110.746016 161.436543 
L 110.847505 120.498585 
L 110.948993 122.72569 
L 111.050481 123.476028 
L 111.253458 171.179091 
L 111.354946 149.312596 
L 111.456435 169.080372 
L 111.557923 151.489485 
L 111.659412 179.441962 
L 111.7609 105.911931 
L 111.862388 167.003295 
L 111.963877 156.437217 
L 112.065365 176.588099 
L 112.36983 86.25279 
L 112.471319 173.84365 
L 112.572807 86.678113 
L 112.877272 157.041274 
L 113.080249 134.429069 
L 113.181737 100.412917 
L 113.283226 155.932511 
L 113.384714 129.08085 
L 113.486202 143.246565 
L 113.587691 129.246894 
L 113.689179 142.808272 
L 113.790667 117.582153 
L 113.892156 150.279869 
L 113.993644 123.911464 
L 114.095133 165.208421 
L 114.196621 161.479066 
L 114.298109 118.358799 
L 114.399598 171.328357 
L 114.501086 128.015241 
L 114.704063 178.890665 
L 114.805551 75.68551 
L 114.90704 180.654353 
L 115.008528 148.193345 
L 115.211505 165.927725 
L 115.312993 124.548675 
L 115.51597 162.327711 
L 115.617458 119.387207 
L 115.820435 170.709188 
L 115.921923 150.911694 
L 116.023412 199.19629 
L 116.1249 141.289334 
L 116.226388 144.934699 
L 116.327877 114.123652 
L 116.632342 169.994673 
L 116.73383 131.675781 
L 116.835319 189.778168 
L 117.139784 85.706912 
L 117.241272 180.021212 
L 117.444249 107.258931 
L 117.545737 141.206835 
L 117.647226 130.574975 
L 117.748714 136.363299 
L 117.951691 164.209564 
L 118.154668 120.109021 
L 118.357644 159.712424 
L 118.459133 165.174944 
L 118.560621 186.067719 
L 118.763598 138.50031 
L 118.865086 169.216968 
L 118.966575 145.075012 
L 119.169551 172.658402 
L 119.27104 142.053064 
L 119.372528 75.748829 
L 119.474016 202.270112 
L 119.778482 150.358874 
L 119.87997 146.508103 
L 119.981458 85.031645 
L 120.082947 103.876384 
L 120.184435 148.482143 
L 120.285923 138.124761 
L 120.387412 95.062755 
L 120.4889 157.853166 
L 120.590389 143.331869 
L 120.691877 151.967079 
L 120.894854 189.01697 
L 121.09783 126.636015 
L 121.199319 138.506147 
L 121.300807 100.44856 
L 121.503784 127.452324 
L 121.706761 152.307557 
L 121.909737 137.343961 
L 122.011226 155.114441 
L 122.112714 141.152794 
L 122.214203 154.283202 
L 122.315691 142.804487 
L 122.417179 164.906726 
L 122.620156 113.514349 
L 122.721644 161.624193 
L 122.823133 126.807917 
L 122.924621 154.030527 
L 123.127598 131.87557 
L 123.330575 134.812389 
L 123.432063 165.570213 
L 123.533551 136.472719 
L 123.736528 176.000451 
L 123.939505 153.294252 
L 124.040993 127.921733 
L 124.142482 208.389996 
L 124.24397 140.584828 
L 124.345458 144.628523 
L 124.446947 114.6051 
L 124.548435 160.22837 
L 124.649924 119.549204 
L 124.751412 121.043218 
L 124.8529 153.035008 
L 124.954389 140.825082 
L 125.055877 166.588759 
L 125.157365 145.839291 
L 125.258854 168.447585 
L 125.360342 99.565632 
L 125.461831 196.967088 
L 125.664807 116.302415 
L 125.766296 187.310597 
L 125.867784 126.595289 
L 126.070761 171.524841 
L 126.172249 131.370906 
L 126.273738 131.428829 
L 126.375226 127.940448 
L 126.578203 109.106377 
L 126.679691 172.466801 
L 126.984156 85.035605 
L 127.187133 200.941984 
L 127.39011 151.784581 
L 127.491598 163.64304 
L 127.593086 94.435961 
L 127.796063 177.715556 
L 127.99904 159.765768 
L 128.100528 206.752251 
L 128.202017 117.701533 
L 128.303505 162.708339 
L 128.404993 144.115071 
L 128.506482 159.895668 
L 128.60797 123.039726 
L 128.912435 169.769331 
L 129.013924 147.821921 
L 129.115412 193.310647 
L 129.2169 145.692327 
L 129.318389 146.555181 
L 129.419877 137.066044 
L 129.521366 145.72559 
L 129.622854 177.468045 
L 129.724342 104.598613 
L 129.927319 155.451128 
L 130.028807 154.172745 
L 130.130296 134.233886 
L 130.231784 212.868159 
L 130.434761 154.783981 
L 130.536249 134.440867 
L 130.840714 189.795214 
L 131.043691 134.662411 
L 131.14518 134.973248 
L 131.348156 143.758937 
L 131.449645 134.782346 
L 131.551133 163.682494 
L 131.652621 116.49499 
L 131.75411 209.036133 
L 132.160063 106.938473 
L 132.566017 157.527899 
L 132.667505 119.092543 
L 132.768994 130.064953 
L 132.870482 153.947266 
L 132.97197 128.621523 
L 133.073459 166.081783 
L 133.276435 126.249326 
L 133.479412 170.18929 
L 133.580901 164.935502 
L 133.682389 139.282765 
L 133.885366 210.347348 
L 133.986854 117.803057 
L 134.189831 164.366574 
L 134.291319 164.292105 
L 134.392808 187.748167 
L 134.595784 153.997637 
L 134.697273 142.422622 
L 134.798761 184.749574 
L 135.001738 123.865184 
L 135.204715 181.387981 
L 135.407691 167.535706 
L 135.50918 119.519994 
L 135.610668 156.650139 
L 135.712156 152.248183 
L 135.813645 177.228635 
L 135.915133 171.339974 
L 136.016622 103.245393 
L 136.219598 148.641497 
L 136.321087 116.1212 
L 136.422575 149.165608 
L 136.524063 142.912867 
L 136.72704 155.697466 
L 136.828529 151.172666 
L 136.930017 118.053083 
L 137.132994 149.901303 
L 137.234482 129.571961 
L 137.33597 148.752198 
L 137.437459 141.097129 
L 137.538947 152.535979 
L 137.640436 151.40384 
L 137.741924 112.418915 
L 137.944901 175.905679 
L 138.147877 159.13369 
L 138.249366 115.051476 
L 138.553831 190.647459 
L 138.655319 112.83596 
L 138.756808 195.164502 
L 138.858296 120.599321 
L 138.959784 122.139542 
L 139.061273 167.753181 
L 139.26425 151.65257 
L 139.365738 149.138621 
L 139.467226 165.978681 
L 139.568715 165.397128 
L 139.670203 151.910576 
L 139.771691 192.804716 
L 139.974668 135.414889 
L 140.076157 143.107316 
L 140.177645 131.656951 
L 140.279133 170.468622 
L 140.48211 120.956477 
L 140.583598 140.826292 
L 140.685087 196.439142 
L 140.786575 134.713038 
L 140.989552 162.956476 
L 141.09104 178.780005 
L 141.192529 168.09183 
L 141.294017 143.384565 
L 141.395505 147.624734 
L 141.496994 123.906721 
L 141.598482 201.406356 
L 141.699971 198.025187 
L 141.801459 130.943764 
L 141.902947 184.417049 
L 142.105924 109.578124 
L 142.207412 162.315223 
L 142.308901 100.014646 
L 142.613366 167.364638 
L 142.714854 140.72589 
L 142.917831 159.559749 
L 143.019319 132.386393 
L 143.120808 138.674711 
L 143.222296 109.582152 
L 143.323785 155.596012 
L 143.425273 150.970955 
L 143.526761 114.084082 
L 143.729738 171.350527 
L 143.831226 171.252956 
L 143.932715 170.127989 
L 144.034203 184.897305 
L 144.23718 159.108224 
L 144.338668 186.489798 
L 144.440157 94.757784 
L 144.643133 174.177764 
L 144.84611 129.449139 
L 145.049087 177.711113 
L 145.252064 110.353479 
L 145.45504 173.647343 
L 145.556529 139.714555 
L 145.658017 192.017305 
L 145.759506 114.128265 
L 145.860994 121.425266 
L 145.962482 135.845893 
L 146.063971 172.361734 
L 146.165459 119.259066 
L 146.368436 155.578891 
L 146.469924 132.407809 
L 146.571413 163.848112 
L 146.672901 145.506519 
L 146.774389 150.294878 
L 146.875878 160.684396 
L 146.977366 202.28797 
L 147.180343 122.164225 
L 147.281831 160.894331 
L 147.38332 69.229846 
L 147.586296 150.503559 
L 147.687785 136.905164 
L 147.789273 77.277004 
L 147.99225 155.048153 
L 148.195227 141.778008 
L 148.296715 159.896288 
L 148.398203 158.891849 
L 148.499692 111.721641 
L 148.702668 160.905428 
L 148.804157 136.504687 
L 148.905645 137.683426 
L 149.007134 160.606072 
L 149.108622 159.625357 
L 149.413087 109.156296 
L 149.514575 169.272045 
L 149.616064 159.95168 
L 149.819041 135.312141 
L 149.920529 191.796874 
L 150.022017 140.136369 
L 150.123506 166.845682 
L 150.224994 126.857131 
L 150.326482 165.595243 
L 150.630948 139.080006 
L 150.935413 168.846233 
L 151.036901 161.141871 
L 151.138389 179.073728 
L 151.239878 109.302268 
L 151.442855 183.546642 
L 151.544343 131.358256 
L 151.645831 183.775045 
L 151.848808 147.031099 
L 151.950296 170.361357 
L 152.153273 134.76472 
L 152.254762 190.440281 
L 152.35625 109.478686 
L 152.559227 161.724615 
L 152.660715 98.085547 
L 152.762203 172.327708 
L 152.863692 120.948517 
L 152.96518 153.851217 
L 153.066669 100.084487 
L 153.269645 150.835209 
L 153.472622 148.555329 
L 153.57411 149.3913 
L 153.878576 161.127352 
L 154.183041 131.162277 
L 154.487506 156.53759 
L 154.588994 141.592143 
L 154.690483 142.462113 
L 154.791971 155.364758 
L 154.893459 121.696739 
L 154.994948 129.794283 
L 155.197924 164.512738 
L 155.299413 159.934203 
L 155.400901 145.804352 
L 155.50239 166.20357 
L 155.705366 135.468021 
L 155.806855 152.503048 
L 155.908343 141.951408 
L 156.11132 167.623243 
L 156.212808 138.511091 
L 156.314297 188.115294 
L 156.415785 87.720269 
L 156.517273 170.309967 
L 156.618762 164.570968 
L 156.72025 153.471705 
L 156.821738 162.274328 
L 156.923227 161.821659 
L 157.024715 138.817221 
L 157.32918 182.312518 
L 157.633645 142.934144 
L 157.735134 180.049083 
L 157.836622 151.153213 
L 157.938111 205.559891 
L 158.039599 136.909095 
L 158.141087 156.782184 
L 158.242576 121.520086 
L 158.344064 135.983279 
L 158.445552 118.686881 
L 158.547041 155.772082 
L 158.648529 147.832419 
L 158.750018 166.427944 
L 158.851506 125.166932 
L 159.054483 150.363816 
L 159.155971 117.268516 
L 159.257459 190.475431 
L 159.358948 121.715014 
L 159.460436 165.764772 
L 159.561925 144.606857 
L 159.663413 190.648673 
L 159.764901 142.403682 
L 159.967878 174.12636 
L 160.069366 112.555556 
L 160.170855 179.025759 
L 160.47532 134.632742 
L 160.576808 178.255748 
L 160.678297 155.190631 
L 160.779785 104.937145 
L 160.881273 157.136748 
L 160.982762 102.050216 
L 161.08425 138.803093 
L 161.185739 133.727859 
L 161.287227 200.25937 
L 161.490204 115.269266 
L 161.69318 165.267023 
L 161.794669 156.582088 
L 161.896157 133.672346 
L 161.997646 169.048336 
L 162.099134 158.357303 
L 162.302111 172.86667 
L 162.403599 107.562424 
L 162.505087 176.603839 
L 162.606576 129.201765 
L 162.708064 143.202335 
L 162.809553 117.459021 
L 163.012529 147.85738 
L 163.114018 122.776687 
L 163.215506 156.098337 
L 163.316994 146.152669 
L 163.418483 164.342167 
L 163.519971 158.897071 
L 163.62146 135.579384 
L 163.722948 177.784707 
L 163.824436 111.610163 
L 163.925925 136.392858 
L 164.027413 108.724889 
L 164.23039 156.93823 
L 164.433367 117.327676 
L 164.534855 166.951401 
L 164.737832 140.210317 
L 164.83932 150.360889 
L 165.042297 175.731563 
L 165.143785 88.383618 
L 165.245274 118.009435 
L 165.346762 107.923241 
L 165.549739 201.881041 
L 165.651227 114.078999 
L 165.752715 170.590442 
L 165.854204 122.607331 
L 166.158669 148.58994 
L 166.260157 121.486151 
L 166.666111 175.044737 
L 166.970576 119.828483 
L 167.173553 157.090403 
L 167.275041 165.921979 
L 167.376529 152.418119 
L 167.478018 163.319663 
L 167.579506 146.226101 
L 167.680995 152.821848 
L 167.782483 102.312811 
L 167.883971 152.568677 
L 167.98546 107.999942 
L 168.086948 160.559038 
L 168.188436 150.569864 
L 168.289925 152.062879 
L 168.391413 150.143607 
L 168.492902 175.173779 
L 168.695878 136.990961 
L 168.797367 138.704962 
L 168.898855 137.331151 
L 169.101832 173.049849 
L 169.20332 135.298467 
L 169.304809 201.605969 
L 169.406297 115.585993 
L 169.507785 145.945759 
L 169.609274 124.701305 
L 169.81225 166.071996 
L 169.913739 117.411949 
L 170.218204 158.637679 
L 170.421181 109.014977 
L 170.624157 162.351883 
L 170.725646 156.293525 
L 170.827134 177.159165 
L 171.030111 141.373 
L 171.131599 189.485342 
L 171.334576 123.687545 
L 171.436064 143.88147 
L 171.537553 199.174792 
L 171.74053 124.13134 
L 171.842018 121.14718 
L 171.943506 124.284215 
L 172.146483 159.915641 
L 172.247971 155.418074 
L 172.34946 125.00986 
L 172.450948 170.769471 
L 172.552437 162.123611 
L 172.653925 135.461774 
L 172.856902 182.804706 
L 173.059878 120.641377 
L 173.161367 163.850666 
L 173.262855 150.418047 
L 173.364344 153.611325 
L 173.465832 145.324494 
L 173.56732 125.263339 
L 173.871785 161.309929 
L 173.973274 134.509159 
L 174.074762 179.258653 
L 174.176251 170.434351 
L 174.379227 135.843578 
L 174.480716 164.909935 
L 174.582204 150.676075 
L 174.683692 112.118963 
L 174.785181 179.472457 
L 174.886669 145.929176 
L 174.988158 171.852374 
L 175.089646 116.977764 
L 175.191134 174.310881 
L 175.394111 149.042139 
L 175.495599 162.212319 
L 175.800065 131.951902 
L 175.901553 186.722828 
L 176.003041 152.074144 
L 176.10453 155.697899 
L 176.206018 155.590325 
L 176.307506 108.053434 
L 176.408995 160.108412 
L 176.510483 123.648338 
L 176.611972 134.217823 
L 176.71346 157.370392 
L 176.814948 134.379572 
L 176.916437 144.113376 
L 177.017925 136.726083 
L 177.119413 160.112532 
L 177.220902 120.614407 
L 177.32239 157.655718 
L 177.423879 151.523862 
L 177.525367 117.034061 
L 177.626855 149.945662 
L 177.728344 148.467033 
L 177.93132 106.198687 
L 178.032809 159.309351 
L 178.235786 136.846274 
L 178.438762 159.241883 
L 178.540251 121.35349 
L 178.641739 155.30755 
L 178.743227 112.181096 
L 178.844716 177.490072 
L 179.047693 131.452134 
L 179.149181 135.235117 
L 179.352158 178.005986 
L 179.453646 165.603909 
L 179.656623 115.603221 
L 179.758111 160.149542 
L 179.8596 97.873381 
L 179.961088 151.068571 
L 180.062576 126.755334 
L 180.265553 151.317131 
L 180.46853 115.62958 
L 180.570018 118.783604 
L 180.671507 145.858687 
L 180.874483 137.45154 
L 180.975972 96.447967 
L 181.07746 165.61223 
L 181.178948 147.893938 
L 181.280437 167.689886 
L 181.381925 147.427206 
L 181.483414 156.895188 
L 181.584902 129.132003 
L 181.68639 170.396093 
L 181.787879 101.344594 
L 181.990855 181.315283 
L 182.092344 164.328768 
L 182.193832 160.576014 
L 182.295321 183.924322 
L 182.396809 113.386427 
L 182.498297 163.068748 
L 182.599786 158.937426 
L 182.701274 172.755193 
L 182.802762 144.807802 
L 182.904251 151.27132 
L 183.107228 132.45405 
L 183.208716 158.707314 
L 183.310204 152.929109 
L 183.411693 168.660484 
L 183.513181 204.2449 
L 183.614669 148.941935 
L 183.716158 181.197975 
L 183.817646 122.358421 
L 183.919135 141.414095 
L 184.020623 137.299269 
L 184.2236 178.809066 
L 184.325088 121.647437 
L 184.528065 172.807191 
L 184.629553 119.929073 
L 184.731042 163.24088 
L 184.83253 124.509434 
L 184.934018 130.722688 
L 185.035507 148.880664 
L 185.136995 120.863432 
L 185.238483 131.152013 
L 185.339972 189.845308 
L 185.542949 92.226737 
L 185.745925 143.862493 
L 185.847414 144.777258 
L 185.948902 161.513311 
L 186.05039 158.539602 
L 186.151879 148.779132 
L 186.253367 160.356887 
L 186.354856 145.385016 
L 186.456344 97.330404 
L 186.557832 168.415591 
L 186.659321 117.414177 
L 186.760809 149.716982 
L 186.862297 147.828693 
L 186.963786 148.991052 
L 187.065274 105.845596 
L 187.166763 155.250225 
L 187.369739 116.467207 
L 187.471228 172.446854 
L 187.674204 137.5443 
L 187.775693 138.729084 
L 187.877181 164.723762 
L 187.978669 140.210771 
L 188.080158 147.425145 
L 188.181646 174.478119 
L 188.384623 161.392555 
L 188.5876 103.959203 
L 188.790576 177.418392 
L 188.993553 147.028986 
L 189.095042 160.882634 
L 189.19653 137.052001 
L 189.399507 174.118491 
L 189.500995 114.977907 
L 189.703972 146.201367 
L 189.80546 142.627717 
L 189.906949 145.133859 
L 190.008437 140.798142 
L 190.109925 173.201328 
L 190.211414 113.392513 
L 190.312902 121.091647 
L 190.515879 186.773233 
L 190.617367 118.568408 
L 190.718856 152.882084 
L 190.921832 145.696096 
L 191.023321 131.399419 
L 191.124809 76.162678 
L 191.327786 155.885129 
L 191.429274 155.879657 
L 191.530763 148.228218 
L 191.632251 162.463501 
L 191.733739 142.75971 
L 191.835228 147.793251 
L 192.038204 163.914442 
L 192.139693 144.249449 
L 192.241181 160.144196 
L 192.34267 193.528451 
L 192.545646 148.607887 
L 192.647135 175.489724 
L 192.748623 124.785046 
L 192.850111 126.860071 
L 192.9516 127.213979 
L 193.053088 142.075272 
L 193.154577 126.732775 
L 193.357553 171.808671 
L 193.56053 121.122666 
L 193.662018 177.367034 
L 193.966484 107.251672 
L 194.270949 162.57439 
L 194.372437 147.013311 
L 194.473925 150.51021 
L 194.676902 161.653104 
L 194.778391 101.617748 
L 194.879879 153.31906 
L 194.981367 127.272819 
L 195.285832 168.576851 
L 195.387321 117.294209 
L 195.488809 149.958755 
L 195.691786 118.501697 
L 195.793274 157.335913 
L 195.894763 123.366996 
L 195.996251 137.855822 
L 196.199228 125.997009 
L 196.300716 65.282557 
L 196.503693 200.611821 
L 196.605181 115.775342 
L 196.70667 150.133737 
L 196.808158 132.3692 
L 196.909646 175.457803 
L 197.011135 81.546392 
L 197.112623 116.344191 
L 197.214112 97.710373 
L 197.417088 176.123283 
L 197.518577 104.697148 
L 197.620065 196.950274 
L 197.823042 129.168353 
L 197.92453 166.284742 
L 198.026019 148.154575 
L 198.127507 107.142205 
L 198.228995 160.852417 
L 198.431972 97.024141 
L 198.634949 134.28294 
L 198.736437 125.456093 
L 198.837926 152.647658 
L 198.939414 126.654278 
L 199.040902 155.061162 
L 199.243879 106.483459 
L 199.446856 176.970271 
L 199.548344 99.138015 
L 199.751321 149.842209 
L 199.954298 179.642357 
L 200.055786 137.201304 
L 200.360251 208.923795 
L 200.46174 147.296581 
L 200.563228 169.634586 
L 200.664716 122.138822 
L 200.766205 155.114793 
L 200.867693 114.855011 
L 200.969181 175.458964 
L 201.172158 148.220498 
L 201.273647 149.395818 
L 201.375135 195.587476 
L 201.476623 114.693704 
L 201.6796 190.820641 
L 201.882577 116.389635 
L 201.984065 194.429436 
L 202.085554 118.411684 
L 202.28853 149.801338 
L 202.390019 153.989565 
L 202.592995 132.8438 
L 202.694484 126.863519 
L 202.795972 169.829935 
L 203.201926 108.946789 
L 203.303414 145.621855 
L 203.404902 71.745838 
L 203.506391 160.743674 
L 203.607879 130.755831 
L 203.709368 137.626755 
L 203.810856 159.479095 
L 203.912344 113.579651 
L 204.013833 125.606695 
L 204.115321 93.80673 
L 204.216809 195.960611 
L 204.318298 149.490522 
L 204.419786 151.396428 
L 204.521275 137.848003 
L 204.622763 103.727549 
L 204.82574 148.35841 
L 205.028716 180.650071 
L 205.130205 180.359602 
L 205.231693 113.89023 
L 205.333182 118.084014 
L 205.43467 143.723348 
L 205.536158 205.978662 
L 205.637647 132.719804 
L 205.739135 187.762426 
L 205.942112 118.267703 
L 206.0436 143.456814 
L 206.145089 121.52007 
L 206.348065 183.07712 
L 206.754019 99.349246 
L 206.956996 198.268471 
L 207.159972 151.106361 
L 207.261461 145.342384 
L 207.362949 128.493311 
L 207.464437 150.75194 
L 207.565926 145.593272 
L 207.768903 175.679321 
L 207.870391 145.337881 
L 207.971879 150.457911 
L 208.174856 175.77122 
L 208.276344 81.149902 
L 208.479321 145.399031 
L 208.58081 155.979932 
L 208.682298 105.438477 
L 208.783786 172.722738 
L 208.885275 143.941911 
L 209.18974 167.116711 
L 209.291228 142.55785 
L 209.392717 148.702773 
L 209.494205 210.663046 
L 209.595693 161.668255 
L 209.697182 179.171553 
L 209.79867 113.708234 
L 209.900158 141.134694 
L 210.001647 121.817132 
L 210.103135 154.73351 
L 210.204624 121.444526 
L 210.306112 127.682982 
L 210.4076 181.221247 
L 210.509089 134.297637 
L 210.610577 134.315541 
L 210.712065 163.742881 
L 210.813554 131.911012 
L 210.915042 168.571864 
L 211.016531 137.270566 
L 211.118019 141.385949 
L 211.219507 96.897643 
L 211.320996 102.477514 
L 211.422484 161.954377 
L 211.625461 102.170256 
L 211.726949 186.841341 
L 211.828438 146.762097 
L 211.929926 163.466901 
L 212.132903 152.084507 
L 212.335879 119.759906 
L 212.437368 112.604379 
L 212.538856 157.401576 
L 212.640345 127.542914 
L 212.741833 153.08265 
L 212.843321 137.748393 
L 212.94481 211.005782 
L 213.046298 138.176407 
L 213.147786 156.131675 
L 213.249275 114.792394 
L 213.350763 117.72779 
L 213.55374 137.937478 
L 213.655228 136.616209 
L 213.756717 158.817227 
L 213.858205 115.731543 
L 213.959693 116.12986 
L 214.061182 151.819301 
L 214.16267 129.040581 
L 214.264159 162.759464 
L 214.365647 120.450017 
L 214.467135 121.948097 
L 214.568624 152.622203 
L 214.670112 87.892388 
L 214.873089 174.292305 
L 214.974577 109.545891 
L 215.076066 139.249219 
L 215.177554 119.821586 
L 215.279042 120.704684 
L 215.380531 122.91604 
L 215.482019 183.019287 
L 215.583507 155.041483 
L 215.684996 168.896866 
L 215.786484 106.596371 
L 215.887973 161.67866 
L 215.989461 100.814815 
L 216.192438 181.733571 
L 216.293926 140.459877 
L 216.395414 155.772411 
L 216.496903 154.049371 
L 216.598391 136.280359 
L 216.801368 182.836048 
L 216.902856 129.21251 
L 217.105833 173.001049 
L 217.207321 109.357689 
L 217.410298 157.46354 
L 217.511787 137.950305 
L 217.613275 162.182906 
L 217.714763 129.087637 
L 218.019228 178.939682 
L 218.323694 127.025491 
L 218.425182 142.009181 
L 218.52667 127.322466 
L 218.628159 152.7091 
L 218.729647 113.869117 
L 218.831135 142.057669 
L 218.932624 135.49545 
L 219.034112 166.18618 
L 219.135601 135.320317 
L 219.237089 183.396496 
L 219.338577 154.447465 
L 219.440066 166.49989 
L 219.541554 108.066392 
L 219.643042 153.468976 
L 219.846019 127.982653 
L 220.048996 190.675914 
L 220.150484 121.187533 
L 220.251973 187.731343 
L 220.353461 116.881453 
L 220.759415 166.568712 
L 220.860903 145.071512 
L 220.962391 159.801566 
L 221.06388 131.508654 
L 221.165368 138.3672 
L 221.266856 165.173628 
L 221.368345 162.030088 
L 221.469833 168.357844 
L 221.67281 81.520518 
L 221.774298 143.847475 
L 221.875787 133.662946 
L 222.078763 185.234673 
L 222.180252 174.342037 
L 222.28174 170.247169 
L 222.383229 125.003396 
L 222.484717 126.000428 
L 222.586205 133.248161 
L 222.687694 167.330221 
L 222.789182 162.7618 
L 222.992159 118.75501 
L 223.093647 139.328271 
L 223.195136 130.518965 
L 223.296624 108.9509 
L 223.398112 123.609883 
L 223.499601 105.491934 
L 223.702577 157.917932 
L 223.804066 119.557265 
L 224.007043 152.423819 
L 224.108531 90.344979 
L 224.311508 172.432764 
L 224.412996 154.562608 
L 224.615973 175.864898 
L 225.021926 110.590334 
L 225.224903 185.659582 
L 225.326391 136.107115 
L 225.42788 186.689771 
L 225.529368 151.708754 
L 225.630857 163.404268 
L 225.732345 150.003326 
L 225.833833 156.420559 
L 226.03681 134.873916 
L 226.239787 211.436858 
L 226.442764 134.526303 
L 226.64574 164.377953 
L 226.747229 154.57003 
L 226.950205 98.193137 
L 227.051694 142.700209 
L 227.153182 137.842579 
L 227.254671 119.264085 
L 227.457647 164.676125 
L 227.559136 114.015947 
L 227.762112 182.239811 
L 227.863601 148.306375 
L 227.965089 176.704738 
L 228.168066 141.182426 
L 228.269554 140.538719 
L 228.371043 140.96093 
L 228.472531 158.360136 
L 228.574019 141.293564 
L 228.878485 174.178707 
L 228.979973 152.750899 
L 229.081461 184.424397 
L 229.18295 120.030327 
L 229.284438 173.868248 
L 229.385926 119.177689 
L 229.487415 170.095692 
L 229.588903 145.467434 
L 229.690392 152.284355 
L 229.79188 135.077698 
L 229.893368 149.918467 
L 229.994857 141.714376 
L 230.096345 162.615933 
L 230.197833 145.815769 
L 230.40081 165.334498 
L 230.502299 151.26776 
L 230.603787 178.811621 
L 230.806764 139.127834 
L 230.908252 173.312876 
L 231.00974 99.26418 
L 231.111229 125.588424 
L 231.212717 114.201951 
L 231.314206 149.750036 
L 231.415694 149.204771 
L 231.618671 173.374216 
L 231.720159 126.831923 
L 231.821647 175.916115 
L 231.923136 167.754497 
L 232.024624 175.83556 
L 232.126113 196.620393 
L 232.227601 158.004495 
L 232.329089 167.005024 
L 232.430578 118.421795 
L 232.532066 122.030303 
L 232.735043 137.346908 
L 232.836531 130.43339 
L 233.039508 159.243989 
L 233.140996 148.116517 
L 233.242485 97.682686 
L 233.343973 171.653782 
L 233.445461 137.436935 
L 233.54695 138.350882 
L 233.648438 174.519927 
L 233.749927 139.687013 
L 233.851415 172.073563 
L 233.952903 128.056002 
L 234.054392 155.841548 
L 234.15588 117.186416 
L 234.358857 154.718564 
L 234.460345 161.785172 
L 234.663322 136.841401 
L 234.76481 158.867863 
L 234.866299 158.749243 
L 234.967787 117.211204 
L 235.069275 177.288345 
L 235.170764 127.870669 
L 235.272252 148.696934 
L 235.475229 118.968038 
L 235.678206 161.459034 
L 235.779694 160.577944 
L 235.881182 122.908468 
L 235.982671 128.025078 
L 236.084159 119.751936 
L 236.185648 123.155957 
L 236.388624 152.126553 
L 236.490113 98.716697 
L 236.591601 150.20519 
L 236.693089 85.620673 
L 236.794578 147.85355 
L 236.896066 125.716461 
L 237.099043 174.634496 
L 237.200531 127.312006 
L 237.30202 150.337045 
L 237.403508 133.409239 
L 237.504996 161.274789 
L 237.606485 133.933826 
L 237.707973 162.475792 
L 237.91095 107.736402 
L 238.113927 163.274369 
L 238.215415 155.159109 
L 238.316903 114.452041 
L 238.418392 158.344476 
L 238.51988 145.87335 
L 238.722857 159.654836 
L 238.824345 120.572489 
L 239.027322 145.612301 
L 239.12881 139.585223 
L 239.230299 123.69657 
L 239.433276 217.438498 
L 239.636252 161.406159 
L 239.839229 112.981802 
L 239.940717 187.316558 
L 240.245183 84.023236 
L 240.346671 195.668984 
L 240.549648 149.343353 
L 240.651136 162.818897 
L 240.854113 119.19241 
L 240.955601 181.445015 
L 241.158578 151.864491 
L 241.260066 174.261878 
L 241.361555 143.255709 
L 241.463043 151.971557 
L 241.66602 102.276914 
L 241.767508 179.22756 
L 241.868997 146.379487 
L 241.970485 147.399114 
L 242.071973 147.654482 
L 242.173462 141.820018 
L 242.27495 169.595592 
L 242.376438 138.518546 
L 242.477927 150.426718 
L 242.579415 122.547858 
L 242.680904 173.940403 
L 242.88388 142.764652 
L 242.985369 118.905378 
L 243.086857 157.084132 
L 243.188345 107.437928 
L 243.289834 166.738197 
L 243.391322 144.330221 
L 243.492811 195.795773 
L 243.594299 122.947746 
L 243.695787 140.387044 
L 243.797276 126.986669 
L 243.898764 163.187363 
L 244.000252 157.097957 
L 244.101741 120.369899 
L 244.203229 127.730884 
L 244.304718 121.17743 
L 244.406206 174.018578 
L 244.609183 139.144636 
L 244.812159 170.667445 
L 244.913648 119.044804 
L 245.015136 161.454541 
L 245.116625 134.566509 
L 245.218113 135.506956 
L 245.319601 152.088978 
L 245.42109 128.866152 
L 245.522578 169.533858 
L 245.725555 132.124725 
L 245.827043 136.856732 
L 245.928532 186.763687 
L 246.232997 145.171384 
L 246.334485 200.3073 
L 246.435973 125.520483 
L 246.63895 168.202059 
L 246.740439 165.210948 
L 246.841927 136.859835 
L 247.044904 160.509973 
L 247.146392 184.187544 
L 247.24788 161.43506 
L 247.349369 166.419266 
L 247.450857 137.739153 
L 247.552346 193.039485 
L 247.755322 126.997592 
L 247.958299 195.69167 
L 248.161276 93.291877 
L 248.262764 149.292616 
L 248.364253 149.032383 
L 248.465741 128.441942 
L 248.567229 176.990326 
L 248.770206 144.46613 
L 248.871694 191.34946 
L 249.074671 92.627327 
L 249.277648 156.411128 
L 249.379136 131.332046 
L 249.582113 152.518805 
L 249.683601 128.185676 
L 249.78509 184.274837 
L 249.886578 107.559202 
L 249.988067 176.161911 
L 250.089555 152.474055 
L 250.191043 185.65778 
L 250.292532 138.341534 
L 250.39402 140.661801 
L 250.495508 189.036304 
L 250.596997 122.524782 
L 250.698485 123.022332 
L 250.799974 176.569464 
L 251.00295 104.385583 
L 251.104439 135.238314 
L 251.205927 124.514877 
L 251.307415 146.138539 
L 251.408904 143.525647 
L 251.510392 144.614398 
L 251.611881 164.384893 
L 251.713369 143.282787 
L 251.916346 162.700921 
L 252.017834 161.350287 
L 252.119322 144.30327 
L 252.322299 165.581113 
L 252.423788 130.358169 
L 252.626764 165.161678 
L 252.829741 106.908686 
L 252.931229 108.878742 
L 253.032718 152.634455 
L 253.134206 135.4107 
L 253.235695 190.625759 
L 253.438671 132.648244 
L 253.54016 165.684896 
L 253.641648 128.152852 
L 253.844625 143.27396 
L 253.946113 183.731221 
L 254.047602 118.697588 
L 254.250578 184.166282 
L 254.352067 118.842661 
L 254.453555 144.836148 
L 254.555043 130.059752 
L 254.656532 151.514402 
L 254.75802 141.081148 
L 254.859509 115.976427 
L 254.960997 166.264374 
L 255.062485 135.8281 
L 255.265462 148.711552 
L 255.36695 139.457918 
L 255.468439 150.525319 
L 255.569927 119.184464 
L 255.772904 178.024549 
L 255.975881 119.015895 
L 256.077369 158.183388 
L 256.178857 147.295166 
L 256.381834 170.420898 
L 256.483323 131.415704 
L 256.584811 140.919852 
L 256.686299 124.792012 
L 256.787788 127.307463 
L 256.889276 182.115152 
L 256.990764 157.139709 
L 257.193741 171.143274 
L 257.29523 157.69566 
L 257.396718 111.137944 
L 257.701183 147.868941 
L 257.802671 134.169095 
L 258.005648 168.125724 
L 258.208625 191.031595 
L 258.310113 142.802666 
L 258.51309 161.833195 
L 258.614578 113.33505 
L 258.817555 160.743813 
L 258.919044 143.430652 
L 259.020532 103.939047 
L 259.223509 145.768433 
L 259.324997 136.226959 
L 259.426485 119.944433 
L 259.527974 164.262753 
L 259.730951 126.819724 
L 259.832439 138.201883 
L 259.933927 126.669729 
L 260.035416 156.461008 
L 260.136904 155.675488 
L 260.238392 129.07554 
L 260.339881 132.730947 
L 260.441369 116.438607 
L 260.542858 182.241177 
L 260.745834 135.567829 
L 260.847323 179.345705 
L 260.948811 140.072978 
L 261.050299 182.983543 
L 261.151788 93.628264 
L 261.354765 166.762295 
L 261.456253 140.167561 
L 261.65923 169.717655 
L 261.760718 137.440599 
L 261.963695 185.210794 
L 262.065183 139.051156 
L 262.166672 140.942808 
L 262.26816 152.273825 
L 262.369648 178.523912 
L 262.572625 127.932704 
L 262.674113 99.52089 
L 262.978579 169.855014 
L 263.080067 120.902396 
L 263.283044 174.60798 
L 263.384532 126.742354 
L 263.587509 173.007722 
L 263.688997 140.449706 
L 263.790486 171.191178 
L 263.993462 104.61931 
L 264.094951 104.97516 
L 264.297927 159.011269 
L 264.399416 127.835372 
L 264.500904 181.721756 
L 264.602393 127.266856 
L 264.703881 149.425978 
L 264.805369 141.144425 
L 264.906858 115.662672 
L 265.008346 177.215834 
L 265.109834 135.210303 
L 265.312811 206.850021 
L 265.515788 148.703875 
L 265.617276 133.087974 
L 265.718765 146.979143 
L 265.921741 93.281139 
L 266.02323 141.240107 
L 266.124718 117.775537 
L 266.429183 170.248963 
L 266.530672 135.673906 
L 266.63216 140.680575 
L 266.733648 174.953428 
L 266.936625 125.278023 
L 267.038114 180.504663 
L 267.139602 112.80292 
L 267.24109 172.820715 
L 267.342579 143.009765 
L 267.444067 170.371769 
L 267.545555 144.688757 
L 267.647044 181.85111 
L 267.850021 147.34238 
L 267.951509 123.939639 
L 268.052997 157.702911 
L 268.154486 151.661005 
L 268.255974 130.330425 
L 268.357462 187.140086 
L 268.458951 127.68265 
L 268.560439 145.829997 
L 268.661928 124.505214 
L 268.763416 150.581432 
L 268.864904 144.524797 
L 268.966393 125.922039 
L 269.067881 147.278178 
L 269.169369 132.546384 
L 269.270858 153.19733 
L 269.372346 149.700424 
L 269.473835 155.742295 
L 269.575323 175.76125 
L 269.676811 108.651588 
L 269.879788 185.5018 
L 269.981276 167.188027 
L 270.082765 172.545014 
L 270.184253 157.21336 
L 270.285742 182.521602 
L 270.488718 79.614311 
L 270.590207 144.824431 
L 270.691695 124.264058 
L 270.793183 169.293576 
L 271.097649 104.18909 
L 271.199137 108.826064 
L 271.300625 109.019721 
L 271.402114 125.143548 
L 271.503602 188.787297 
L 271.60509 150.258692 
L 271.706579 161.187924 
L 271.909556 89.004214 
L 272.011044 146.759003 
L 272.112532 133.011777 
L 272.214021 158.981619 
L 272.315509 93.870227 
L 272.416997 158.98539 
L 272.518486 158.683063 
L 272.619974 132.19986 
L 272.721463 163.047637 
L 272.822951 114.136932 
L 272.924439 126.83652 
L 273.025928 185.959356 
L 273.330393 126.26942 
L 273.431881 155.998116 
L 273.53337 150.951063 
L 273.837835 171.432032 
L 273.939323 165.794869 
L 274.040811 137.290789 
L 274.1423 173.724287 
L 274.345277 112.932646 
L 274.446765 131.108439 
L 274.548253 117.876865 
L 274.649742 146.420345 
L 274.75123 127.388821 
L 274.954207 190.250737 
L 275.055695 157.750657 
L 275.157184 176.319704 
L 275.258672 169.33316 
L 275.36016 142.941962 
L 275.461649 147.185102 
L 275.563137 176.427392 
L 275.664625 133.984362 
L 275.969091 162.966394 
L 276.070579 109.737566 
L 276.375044 152.330917 
L 276.578021 133.450402 
L 276.679509 180.132407 
L 276.780998 167.086365 
L 276.882486 131.056714 
L 276.983974 148.032042 
L 277.085463 131.28425 
L 277.186951 159.723376 
L 277.288439 142.006285 
L 277.491416 168.967659 
L 277.592905 152.692811 
L 277.694393 108.923136 
L 277.89737 161.099418 
L 277.998858 135.3852 
L 278.100346 141.832998 
L 278.201835 196.152196 
L 278.303323 121.545007 
L 278.404812 153.827523 
L 278.5063 113.296986 
L 278.607788 144.54454 
L 278.709277 143.29132 
L 278.810765 143.19587 
L 278.912253 150.491619 
L 279.216719 100.147189 
L 279.318207 163.911312 
L 279.419695 145.281439 
L 279.521184 190.961689 
L 279.72416 179.19205 
L 279.825649 146.394376 
L 279.927137 168.954117 
L 280.028626 139.05155 
L 280.130114 179.927547 
L 280.333091 159.495806 
L 280.536067 121.691091 
L 280.637556 139.919148 
L 280.739044 124.335213 
L 280.942021 176.057263 
L 281.043509 163.852121 
L 281.246486 119.243815 
L 281.347974 114.535965 
L 281.550951 133.048742 
L 281.65244 139.794796 
L 281.753928 159.585559 
L 281.956905 138.154503 
L 282.26137 188.683153 
L 282.464347 128.927689 
L 282.565835 160.842476 
L 282.667323 143.370185 
L 282.768812 144.109508 
L 282.8703 152.153174 
L 282.971788 77.140832 
L 283.174765 192.666732 
L 283.276254 127.797035 
L 283.47923 188.327541 
L 283.783695 118.18877 
L 283.885184 127.423079 
L 283.986672 158.642895 
L 284.189649 130.729624 
L 284.291137 139.521773 
L 284.392626 178.286084 
L 284.494114 144.215014 
L 284.595602 156.750224 
L 284.697091 136.28161 
L 284.798579 196.857615 
L 285.001556 131.106179 
L 285.103044 150.021117 
L 285.204533 138.517957 
L 285.407509 100.345871 
L 285.508998 154.609804 
L 285.610486 150.387976 
L 285.711975 129.882 
L 285.813463 140.395658 
L 285.914951 121.785061 
L 286.01644 190.441215 
L 286.117928 137.820461 
L 286.219416 181.211824 
L 286.320905 152.567076 
L 286.62537 180.511484 
L 286.726858 206.648366 
L 286.929835 118.767402 
L 287.132812 150.246883 
L 287.2343 132.902461 
L 287.335789 173.234662 
L 287.437277 138.796242 
L 287.538765 155.18853 
L 287.640254 110.836872 
L 287.741742 125.936734 
L 287.84323 103.235733 
L 287.944719 154.895878 
L 288.147696 129.381306 
L 288.249184 141.654747 
L 288.350672 139.622855 
L 288.452161 174.526899 
L 288.553649 144.836037 
L 288.655137 154.856357 
L 288.756626 196.532153 
L 288.959603 128.888086 
L 289.061091 129.737247 
L 289.162579 182.903007 
L 289.264068 143.553606 
L 289.365556 180.505132 
L 289.568533 119.064715 
L 289.670021 151.879989 
L 289.77151 118.103776 
L 289.872998 145.537756 
L 289.974486 142.588275 
L 290.075975 120.313931 
L 290.177463 150.999158 
L 290.278951 117.840802 
L 290.481928 150.457176 
L 290.583417 131.532551 
L 290.684905 163.602021 
L 290.786393 114.511804 
L 290.887882 157.334688 
L 290.98937 149.001363 
L 291.090858 193.046104 
L 291.192347 144.220287 
L 291.293835 167.731392 
L 291.496812 160.02154 
L 291.5983 127.844712 
L 291.801277 172.834877 
L 292.004254 128.328307 
L 292.207231 183.446981 
L 292.308719 234.477143 
L 292.511696 107.265605 
L 292.613184 143.536001 
L 292.714672 126.050241 
L 292.917649 178.010803 
L 293.120626 141.895513 
L 293.222114 183.766063 
L 293.323603 152.433755 
L 293.425091 159.916011 
L 293.526579 144.73077 
L 293.628068 107.164751 
L 293.729556 113.057955 
L 293.831045 149.954301 
L 293.932533 133.208858 
L 294.034021 136.969926 
L 294.13551 159.064309 
L 294.236998 136.948614 
L 294.338486 137.120722 
L 294.541463 129.174851 
L 294.642952 106.982135 
L 294.74444 165.862322 
L 294.947417 127.569201 
L 295.048905 131.770394 
L 295.150393 171.589099 
L 295.251882 148.521876 
L 295.35337 161.815341 
L 295.454859 156.473627 
L 295.556347 140.287782 
L 295.657835 150.743501 
L 295.759324 135.65463 
L 296.063789 168.177097 
L 296.266766 135.383799 
L 296.368254 128.943173 
L 296.571231 154.317509 
L 296.672719 81.09107 
L 296.875696 188.843233 
L 296.977184 149.68316 
L 297.078673 203.864797 
L 297.180161 101.663691 
L 297.383138 147.769361 
L 297.484626 145.129984 
L 297.586114 149.021008 
L 297.687603 125.17186 
L 297.789091 131.134691 
L 297.89058 152.607594 
L 297.992068 83.929312 
L 298.195045 160.689648 
L 298.296533 126.515771 
L 298.398021 139.90145 
L 298.49951 182.019498 
L 298.600998 154.408374 
L 298.702487 158.423376 
L 298.905463 108.973981 
L 299.10844 135.267976 
L 299.311417 170.305185 
L 299.412905 147.253171 
L 299.514394 193.626232 
L 299.71737 125.255365 
L 299.818859 130.12888 
L 299.920347 110.01303 
L 300.021835 159.689031 
L 300.123324 152.626473 
L 300.224812 118.501827 
L 300.326301 124.031401 
L 300.427789 103.431495 
L 300.529277 172.583196 
L 300.732254 117.435188 
L 300.833742 137.654746 
L 300.935231 97.034434 
L 301.138208 205.087139 
L 301.239696 119.297182 
L 301.341184 184.518535 
L 301.645649 92.355397 
L 301.747138 163.117021 
L 301.848626 147.744011 
L 301.950115 113.653781 
L 302.051603 191.426121 
L 302.153091 131.06527 
L 302.356068 192.041181 
L 302.457556 146.343602 
L 302.559045 147.580275 
L 302.762022 123.830131 
L 302.86351 140.557537 
L 302.964998 107.922267 
L 303.066487 115.158469 
L 303.167975 164.928105 
L 303.269463 148.499942 
L 303.370952 151.933939 
L 303.47244 191.078413 
L 303.573929 107.391534 
L 303.675417 157.024498 
L 303.776905 120.2771 
L 303.878394 155.628363 
L 303.979882 122.404533 
L 304.08137 157.621282 
L 304.182859 119.308941 
L 304.284347 138.42439 
L 304.487324 129.342628 
L 304.588812 138.87392 
L 304.791789 165.774011 
L 304.893277 94.814635 
L 305.096254 138.450019 
L 305.197743 116.496307 
L 305.299231 160.642417 
L 305.400719 141.346599 
L 305.502208 184.386149 
L 305.705184 149.722355 
L 305.806673 149.739699 
L 305.908161 142.898775 
L 306.00965 178.846309 
L 306.212626 144.263047 
L 306.314115 140.120087 
L 306.415603 128.235696 
L 306.61858 181.791529 
L 306.720068 135.351205 
L 306.821557 137.438549 
L 306.923045 139.16244 
L 307.024533 111.767327 
L 307.126022 141.118995 
L 307.22751 127.515036 
L 307.328998 144.739124 
L 307.430487 143.197407 
L 307.531975 160.079607 
L 307.734952 141.237919 
L 307.83644 138.162667 
L 308.039417 111.932724 
L 308.140905 107.505845 
L 308.242394 152.254119 
L 308.343882 143.982898 
L 308.445371 120.412168 
L 308.546859 144.652598 
L 308.648347 112.933761 
L 308.749836 201.371965 
L 308.851324 107.998498 
L 308.952812 162.638269 
L 309.054301 147.777814 
L 309.155789 153.226154 
L 309.257278 126.236705 
L 309.358766 150.366841 
L 309.460254 97.836828 
L 309.663231 151.022402 
L 309.764719 123.801344 
L 309.866208 131.093494 
L 309.967696 150.271973 
L 310.069185 116.23498 
L 310.170673 125.929876 
L 310.272161 117.240894 
L 310.37365 170.653821 
L 310.475138 153.229155 
L 310.576626 155.787436 
L 310.779603 121.945213 
L 310.881092 121.796401 
L 311.084068 163.012022 
L 311.185557 153.361046 
L 311.388533 103.056594 
L 311.59151 155.003439 
L 311.692999 153.22222 
L 311.794487 137.572262 
L 311.895975 210.179102 
L 311.997464 137.38703 
L 312.20044 164.271147 
L 312.301929 146.478591 
L 312.403417 167.214636 
L 312.504906 131.879789 
L 312.606394 148.155292 
L 312.707882 122.794809 
L 312.809371 194.585504 
L 312.910859 138.366199 
L 313.012347 183.113367 
L 313.215324 115.660093 
L 313.316813 158.483567 
L 313.519789 97.970735 
L 313.824254 186.964278 
L 314.12872 75.790338 
L 314.230208 159.127382 
L 314.331696 133.103293 
L 314.433185 153.358842 
L 314.534673 149.073192 
L 314.636161 120.49661 
L 314.940627 184.262211 
L 315.143603 105.276508 
L 315.245092 189.067273 
L 315.448068 142.364533 
L 315.549557 153.56608 
L 315.854022 123.261017 
L 315.95551 152.681443 
L 316.056999 79.951637 
L 316.259975 155.765558 
L 316.361464 137.233371 
L 316.462952 137.285908 
L 316.564441 165.64371 
L 316.767417 125.782612 
L 316.970394 157.265567 
L 317.071882 129.11957 
L 317.173371 149.175022 
L 317.274859 137.688427 
L 317.477836 174.790495 
L 317.883789 89.379086 
L 318.188255 188.582278 
L 318.289743 199.139542 
L 318.391231 89.369833 
L 318.49272 144.563806 
L 318.594208 136.029408 
L 318.797185 174.116802 
L 318.898673 115.381188 
L 319.10165 146.044134 
L 319.203138 152.124381 
L 319.304627 120.302079 
L 319.507603 148.867133 
L 319.609092 114.454436 
L 319.71058 116.297301 
L 319.812069 164.621794 
L 319.913557 137.580775 
L 320.015045 163.438036 
L 320.116534 96.957084 
L 320.31951 196.809384 
L 320.522487 131.848693 
L 320.725464 152.3341 
L 320.826952 160.211983 
L 320.928441 111.767303 
L 321.029929 176.245265 
L 321.131417 105.722218 
L 321.232906 143.687147 
L 321.334394 120.626408 
L 321.537371 150.52206 
L 321.638859 137.432059 
L 321.740348 138.354219 
L 321.841836 188.365888 
L 322.044813 125.092525 
L 322.146301 147.308918 
L 322.24779 142.795436 
L 322.450766 176.047726 
L 322.552255 168.408346 
L 322.653743 179.155633 
L 322.755231 105.633904 
L 322.958208 151.276626 
L 323.059697 156.66157 
L 323.161185 105.219214 
L 323.364162 161.105351 
L 323.567138 125.534094 
L 323.668627 136.770957 
L 323.770115 130.279354 
L 323.871604 154.284776 
L 324.07458 143.508578 
L 324.277557 113.966571 
L 324.582022 186.215918 
L 324.683511 119.93093 
L 324.784999 156.148925 
L 324.886487 92.902667 
L 324.987976 111.63588 
L 325.190952 173.840339 
L 325.393929 142.188306 
L 325.596906 171.949598 
L 325.698394 145.392605 
L 325.799883 150.84967 
L 325.901371 140.332337 
L 326.002859 156.202838 
L 326.104348 77.213134 
L 326.205836 153.091156 
L 326.307325 148.793412 
L 326.61179 70.976181 
L 327.017743 192.589788 
L 327.119232 142.807143 
L 327.322208 154.014551 
L 327.423697 137.104291 
L 327.525185 149.598973 
L 327.626673 147.877912 
L 327.728162 152.412665 
L 327.82965 170.623148 
L 328.032627 112.278721 
L 328.337092 162.819465 
L 328.540069 132.028781 
L 328.641557 138.830257 
L 328.844534 171.798021 
L 328.946022 122.732463 
L 329.148999 179.744105 
L 329.250487 166.647893 
L 329.351976 168.671539 
L 329.554953 135.829285 
L 329.656441 122.085087 
L 329.960906 176.991722 
L 330.062394 166.158454 
L 330.163883 176.811623 
L 330.468348 104.156239 
L 330.569836 168.726962 
L 330.671325 136.264042 
L 330.772813 172.855585 
L 330.874301 141.916502 
L 330.97579 160.512666 
L 331.077278 151.949363 
L 331.178767 111.174978 
L 331.381743 136.408604 
L 331.483232 113.336725 
L 331.58472 167.043621 
L 331.889185 117.859831 
L 331.990674 121.471436 
L 332.092162 135.760187 
L 332.19365 129.852764 
L 332.295139 141.574019 
L 332.396627 133.755082 
L 332.498115 113.852392 
L 332.701092 169.963987 
L 332.904069 110.478978 
L 333.107046 166.702329 
L 333.208534 109.310341 
L 333.310022 151.7928 
L 333.411511 143.288184 
L 333.512999 193.114755 
L 333.715976 128.986605 
L 333.817464 145.249616 
L 333.918953 123.310969 
L 334.121929 168.769536 
L 334.324906 108.306679 
L 334.426394 161.067201 
L 334.527883 144.107646 
L 334.629371 177.468272 
L 334.73086 125.917868 
L 334.832348 168.685678 
L 334.933836 140.22007 
L 335.035325 142.524572 
L 335.136813 168.03978 
L 335.238301 125.639482 
L 335.33979 188.337984 
L 335.441278 120.456469 
L 335.542767 172.685405 
L 335.644255 91.592405 
L 335.94872 164.252966 
L 336.050208 133.600797 
L 336.151697 160.209815 
L 336.253185 157.978031 
L 336.354674 131.784774 
L 336.456162 169.678869 
L 336.55765 132.465374 
L 336.659139 173.532823 
L 336.862115 136.712902 
L 337.166581 126.033383 
L 337.369557 156.031345 
L 337.471046 148.850897 
L 337.572534 112.155571 
L 337.674022 135.250955 
L 337.775511 121.026034 
L 337.876999 142.352964 
L 337.978488 105.654375 
L 338.079976 141.051009 
L 338.181464 131.630518 
L 338.282953 166.254667 
L 338.485929 122.243194 
L 338.587418 121.669208 
L 338.688906 130.299159 
L 338.790395 170.422714 
L 338.891883 162.19246 
L 338.993371 170.608129 
L 339.09486 128.440928 
L 339.196348 131.61063 
L 339.297836 135.765545 
L 339.399325 134.61767 
L 339.805278 159.513341 
L 339.906767 161.152051 
L 340.008255 120.291244 
L 340.109743 133.603261 
L 340.211232 117.351892 
L 340.31272 80.087843 
L 340.515697 134.401689 
L 340.617185 138.92755 
L 340.718674 154.654586 
L 340.820162 110.489541 
L 341.023139 123.495062 
L 341.124627 113.020309 
L 341.226116 175.746169 
L 341.327604 168.10834 
L 341.530581 117.86421 
L 341.632069 142.516966 
L 341.733557 118.561137 
L 341.835046 129.27508 
L 341.936534 163.58301 
L 342.038023 163.42912 
L 342.139511 129.891183 
L 342.240999 132.875073 
L 342.342488 174.566215 
L 342.443976 141.659974 
L 342.646953 186.48459 
L 342.84993 123.590634 
L 342.951418 173.059062 
L 343.052906 137.225062 
L 343.154395 162.496946 
L 343.255883 125.792738 
L 343.357371 132.960026 
L 343.45886 116.521246 
L 343.661837 154.176517 
L 343.763325 104.492172 
L 343.966302 142.536306 
L 344.06779 146.463235 
L 344.169278 172.402859 
L 344.270767 120.009077 
L 344.575232 169.8608 
L 344.67672 139.415625 
L 344.778209 166.98618 
L 344.879697 153.428873 
L 344.981185 179.866143 
L 345.082674 144.892097 
L 345.184162 146.093156 
L 345.387139 121.292682 
L 345.488627 167.322356 
L 345.590116 142.027314 
L 345.793092 159.873579 
L 345.894581 155.977928 
L 345.996069 138.387233 
L 346.097558 175.928721 
L 346.300534 121.439787 
L 346.402023 188.754943 
L 346.604999 140.241157 
L 346.706488 149.099695 
L 346.807976 118.08791 
L 346.909465 168.312408 
L 347.010953 167.077026 
L 347.112441 168.913149 
L 347.315418 124.20601 
L 347.416906 117.654722 
L 347.619883 159.796888 
L 347.82286 130.101572 
L 347.924348 180.022714 
L 348.127325 124.782891 
L 348.330302 141.087164 
L 348.43179 118.583653 
L 348.533279 152.64936 
L 348.634767 124.204083 
L 348.736255 154.558579 
L 348.837744 128.782296 
L 348.939232 137.219383 
L 349.142209 162.920697 
L 349.243697 152.376548 
L 349.345186 182.143521 
L 349.548162 127.561183 
L 349.649651 133.181697 
L 349.751139 167.518318 
L 350.157093 127.346748 
L 350.258581 120.20287 
L 350.360069 174.443291 
L 350.461558 124.399204 
L 350.563046 128.793208 
L 350.664534 149.319275 
L 350.766023 136.046122 
L 350.867511 137.919494 
L 350.969 114.966755 
L 351.070488 148.784701 
L 351.171976 117.506039 
L 351.273465 161.121702 
L 351.374953 132.793327 
L 351.476441 195.750073 
L 351.57793 134.456613 
L 351.679418 145.847851 
L 351.780907 191.875192 
L 351.882395 185.64234 
L 352.18686 153.218611 
L 352.288348 157.415317 
L 352.389837 153.101551 
L 352.491325 161.342459 
L 352.592814 111.097299 
L 352.694302 146.113357 
L 352.79579 130.097882 
L 352.998767 140.85533 
L 353.100255 133.016287 
L 353.201744 138.966482 
L 353.303232 153.435489 
L 353.404721 108.166177 
L 353.607697 164.139304 
L 353.709186 87.175096 
L 353.810674 112.13511 
L 354.013651 186.129007 
L 354.216628 143.037545 
L 354.318116 140.935641 
L 354.521093 176.055031 
L 354.622581 145.77018 
L 354.825558 181.858532 
L 354.927046 103.303247 
L 355.130023 152.016525 
L 355.231511 143.39497 
L 355.434488 171.924328 
L 355.535976 181.021176 
L 355.637465 130.977598 
L 355.738953 150.782543 
L 355.840442 141.070007 
L 355.94193 161.54994 
L 356.043418 113.075667 
L 356.144907 136.752448 
L 356.246395 87.752655 
L 356.449372 134.181081 
L 356.55086 135.171914 
L 356.652349 131.75285 
L 356.753837 112.574476 
L 356.855325 167.994252 
L 356.956814 136.693718 
L 357.15979 169.424297 
L 357.261279 165.478657 
L 357.464256 138.334094 
L 357.667232 176.327785 
L 357.768721 193.727205 
L 357.870209 149.917491 
L 357.971697 152.541255 
L 358.073186 170.900903 
L 358.174674 160.299061 
L 358.276163 95.220363 
L 358.580628 166.62686 
L 358.682116 143.040609 
L 358.783604 150.839115 
L 358.885093 114.803144 
L 359.189558 191.970116 
L 359.291046 184.705119 
L 359.392535 130.03219 
L 359.494023 139.503086 
L 359.595511 172.301201 
L 359.697 129.035684 
L 360.001465 209.670545 
L 360.102953 134.303401 
L 360.30593 173.414644 
L 360.407418 138.782777 
L 360.610395 151.085375 
L 360.711884 174.8361 
L 360.813372 113.962912 
L 360.91486 153.0095 
L 361.016349 127.472393 
L 361.219325 157.871587 
L 361.320814 161.6883 
L 361.422302 135.409345 
L 361.523791 151.938354 
L 361.625279 138.214698 
L 361.726767 149.10036 
L 361.828256 123.496491 
L 362.031232 148.169521 
L 362.234209 138.468288 
L 362.335698 158.612152 
L 362.538674 123.156233 
L 362.741651 184.676596 
L 362.944628 147.758198 
L 363.046116 160.968811 
L 363.147605 158.300395 
L 363.249093 177.91796 
L 363.45207 136.849127 
L 363.553558 140.019671 
L 363.655046 131.627555 
L 363.756535 172.801218 
L 363.858023 104.119272 
L 363.959512 113.181131 
L 364.061 158.236686 
L 364.263977 143.318488 
L 364.365465 112.41264 
L 364.568442 155.267451 
L 364.66993 144.336094 
L 364.771419 171.711006 
L 364.872907 139.737204 
L 364.974395 145.733756 
L 365.075884 171.950025 
L 365.177372 138.892379 
L 365.27886 172.955247 
L 365.481837 135.825502 
L 365.583326 126.908396 
L 365.684814 136.994146 
L 365.887791 159.857424 
L 365.989279 175.136996 
L 366.090767 121.337419 
L 366.192256 171.884669 
L 366.293744 171.425631 
L 366.395233 163.323948 
L 366.496721 127.191814 
L 366.598209 137.564568 
L 366.699698 134.792619 
L 366.801186 113.21377 
L 367.004163 163.376262 
L 367.105651 112.244742 
L 367.20714 171.606352 
L 367.410116 147.442343 
L 367.511605 159.693762 
L 367.613093 121.021132 
L 367.714581 159.175271 
L 367.81607 146.114847 
L 368.019047 150.665342 
L 368.120535 119.513129 
L 368.323512 158.559478 
L 368.425 168.329265 
L 368.526488 134.938127 
L 368.627977 141.148104 
L 368.830954 179.981085 
L 368.932442 124.087052 
L 369.03393 175.896974 
L 369.236907 113.511988 
L 369.338395 162.127188 
L 369.439884 158.729754 
L 369.541372 143.321415 
L 369.642861 149.503477 
L 369.744349 120.03775 
L 369.845837 183.202833 
L 370.048814 115.706588 
L 370.150302 125.509164 
L 370.353279 168.687265 
L 370.454768 165.351955 
L 370.556256 115.584189 
L 370.657744 180.541708 
L 370.759233 130.662943 
L 370.860721 141.905558 
L 370.962209 131.711441 
L 371.063698 161.158084 
L 371.165186 141.206687 
L 371.368163 200.810711 
L 371.57114 154.972554 
L 371.672628 154.637096 
L 371.774116 105.720941 
L 371.875605 121.60263 
L 371.977093 115.336957 
L 372.078582 180.793964 
L 372.281558 127.722358 
L 372.383047 117.249277 
L 372.484535 92.275992 
L 372.586023 179.250102 
L 372.789 133.955792 
L 372.890489 149.478426 
L 372.991977 192.137137 
L 373.194954 121.501818 
L 373.296442 162.532202 
L 373.39793 108.035002 
L 373.499419 158.433504 
L 373.702396 116.635785 
L 373.905372 144.904327 
L 374.006861 139.61293 
L 374.209837 152.845136 
L 374.311326 142.597984 
L 374.412814 119.229164 
L 374.514303 157.428273 
L 374.615791 138.863634 
L 374.717279 147.02151 
L 374.818768 128.052804 
L 374.920256 139.593466 
L 375.021744 126.832316 
L 375.224721 178.313324 
L 375.32621 112.742089 
L 375.427698 155.594711 
L 375.630675 141.663819 
L 375.732163 149.184297 
L 375.833651 114.563249 
L 375.93514 179.427407 
L 376.036628 106.591349 
L 376.138117 180.96692 
L 376.341093 127.283163 
L 376.442582 184.079678 
L 376.54407 127.483829 
L 376.645558 128.757788 
L 376.747047 124.338322 
L 376.848535 171.129835 
L 376.950024 142.979686 
L 377.051512 144.864731 
L 377.153 159.552737 
L 377.254489 131.011183 
L 377.355977 165.364593 
L 377.457465 163.634536 
L 377.558954 133.025626 
L 377.660442 173.019361 
L 377.863419 99.937803 
L 378.066396 167.991208 
L 378.167884 127.609192 
L 378.269372 164.188386 
L 378.573838 120.513613 
L 378.675326 145.821709 
L 378.776814 104.452534 
L 378.878303 166.603858 
L 378.979791 149.669575 
L 379.081279 84.253988 
L 379.182768 140.621771 
L 379.284256 134.343753 
L 379.385745 151.276029 
L 379.487233 103.760242 
L 379.588721 111.587599 
L 379.69021 138.728313 
L 379.791698 136.976515 
L 380.096163 115.847562 
L 380.197652 133.388771 
L 380.29914 107.760308 
L 380.502117 164.791336 
L 380.705093 144.658839 
L 380.806582 157.323037 
L 380.90807 145.154653 
L 381.009559 165.202997 
L 381.212535 137.452062 
L 381.314024 146.412918 
L 381.415512 146.069797 
L 381.517 190.819878 
L 381.719977 115.969566 
L 381.922954 168.770254 
L 382.024442 123.969628 
L 382.125931 162.833234 
L 382.227419 160.36458 
L 382.328907 126.839526 
L 382.633373 166.959695 
L 382.836349 140.908896 
L 383.039326 161.034272 
L 383.140814 124.760549 
L 383.546768 198.703132 
L 383.648256 132.378194 
L 383.851233 169.711413 
L 383.952721 131.70393 
L 384.05421 185.008063 
L 384.155698 135.971049 
L 384.257187 183.815733 
L 384.358675 158.628478 
L 384.460163 175.698374 
L 384.561652 114.456508 
L 384.66314 152.403645 
L 384.764628 124.574608 
L 384.866117 160.187212 
L 384.967605 123.83418 
L 385.27207 167.730432 
L 385.373559 130.4923 
L 385.475047 158.642612 
L 385.576535 156.584851 
L 385.678024 116.428085 
L 385.779512 189.35461 
L 385.881001 120.053593 
L 385.982489 160.110325 
L 386.083977 122.211992 
L 386.185466 122.690174 
L 386.286954 104.194309 
L 386.388442 150.009214 
L 386.489931 144.22644 
L 386.591419 160.48716 
L 386.692908 130.750674 
L 386.794396 178.92702 
L 386.895884 126.556537 
L 387.200349 163.748432 
L 387.403326 132.203584 
L 387.504815 130.994246 
L 387.707791 201.602423 
L 387.80928 149.047253 
L 387.910768 164.170075 
L 388.012256 103.421446 
L 388.113745 156.094827 
L 388.215233 117.866448 
L 388.316722 162.454152 
L 388.41821 123.659842 
L 388.519698 175.686705 
L 388.621187 162.217701 
L 388.722675 174.193672 
L 388.824163 155.114636 
L 388.925652 200.414087 
L 389.02714 190.941665 
L 389.230117 141.700818 
L 389.331605 145.419796 
L 389.433094 173.220686 
L 389.534582 109.085528 
L 389.63607 130.144743 
L 389.737559 106.494016 
L 389.940536 180.730836 
L 390.042024 168.823115 
L 390.143512 201.614604 
L 390.245001 148.620007 
L 390.346489 158.94089 
L 390.447977 142.519306 
L 390.549466 151.185236 
L 390.853931 119.635293 
L 390.955419 132.861067 
L 391.056908 199.673061 
L 391.259884 142.528114 
L 391.462861 154.825043 
L 391.56435 116.629803 
L 391.767326 174.477435 
L 391.868815 155.105899 
L 391.970303 163.906083 
L 392.071791 158.694151 
L 392.17328 107.630533 
L 392.376257 160.062708 
L 392.477745 164.516757 
L 392.579233 123.172762 
L 392.883698 134.504202 
L 392.985187 171.818644 
L 393.086675 122.066236 
L 393.289652 178.322519 
L 393.39114 125.61984 
L 393.594117 170.117437 
L 393.797094 130.983585 
L 394.000071 165.902968 
L 394.101559 122.501795 
L 394.203047 161.646585 
L 394.304536 146.413983 
L 394.406024 147.337466 
L 394.507512 170.083574 
L 394.609001 103.891084 
L 394.710489 130.492407 
L 394.811978 103.525095 
L 394.913466 175.174593 
L 395.116443 116.818979 
L 395.217931 162.600258 
L 395.319419 160.003128 
L 395.522396 180.684775 
L 395.725373 140.008225 
L 395.826861 132.702448 
L 396.029838 176.779056 
L 396.232815 128.694052 
L 396.334303 124.545555 
L 396.435792 157.355796 
L 396.53728 128.123111 
L 396.638768 144.983271 
L 396.740257 180.955222 
L 397.044722 90.895116 
L 397.14621 156.588349 
L 397.247699 108.178645 
L 397.349187 148.274136 
L 397.450675 140.254407 
L 397.552164 106.253834 
L 397.75514 161.106343 
L 397.856629 172.904545 
L 397.958117 148.930773 
L 398.059606 169.756988 
L 398.161094 143.72674 
L 398.262582 153.5403 
L 398.465559 102.949392 
L 398.567047 105.26534 
L 398.668536 153.161931 
L 398.770024 111.347792 
L 398.973001 182.592343 
L 399.074489 175.813379 
L 399.277466 106.314849 
L 399.581931 145.46697 
L 399.784908 157.8914 
L 399.886396 158.755487 
L 399.987885 128.59081 
L 400.089373 161.23324 
L 400.190861 149.372827 
L 400.29235 103.490998 
L 400.393838 155.928759 
L 400.596815 136.127213 
L 400.698303 132.683515 
L 400.90128 152.602354 
L 401.002768 126.169745 
L 401.104257 155.472251 
L 401.205745 126.897026 
L 401.408722 138.327115 
L 401.611699 172.579697 
L 401.713187 170.091347 
L 402.017652 117.967365 
L 402.119141 149.971774 
L 402.220629 140.302291 
L 402.525094 183.090247 
L 402.728071 125.542772 
L 402.829559 132.523684 
L 402.931048 133.932489 
L 403.032536 129.996321 
L 403.134024 139.413546 
L 403.235513 121.975835 
L 403.742955 176.66861 
L 403.844443 122.977244 
L 404.04742 131.002099 
L 404.148908 154.511944 
L 404.250396 152.77687 
L 404.351885 124.001346 
L 404.453373 142.632949 
L 404.554862 125.553225 
L 404.757838 138.40875 
L 404.859327 172.566734 
L 405.163792 110.293978 
L 405.26528 144.57881 
L 405.366769 122.661448 
L 405.569745 194.500484 
L 405.772722 125.881934 
L 405.87421 169.595688 
L 406.077187 142.2092 
L 406.178676 124.894434 
L 406.280164 140.50408 
L 406.381652 180.925797 
L 406.483141 174.999188 
L 406.584629 122.437022 
L 406.686117 163.492929 
L 406.990583 109.015779 
L 407.092071 120.645295 
L 407.193559 116.185452 
L 407.295048 184.815481 
L 407.396536 150.80505 
L 407.498024 172.843517 
L 407.701001 137.390174 
L 407.80249 134.29052 
L 407.903978 134.874727 
L 408.005466 108.092558 
L 408.208443 152.322526 
L 408.309931 122.581865 
L 408.41142 173.135041 
L 408.512908 151.262246 
L 408.614397 101.464476 
L 408.715885 116.554781 
L 408.817373 164.954369 
L 408.918862 92.514098 
L 409.02035 160.471197 
L 409.223327 99.746066 
L 409.426304 205.883041 
L 409.527792 127.008175 
L 409.62928 187.619905 
L 409.933745 146.061686 
L 410.136722 188.344554 
L 410.339699 118.182209 
L 410.441187 107.900218 
L 410.745652 175.41403 
L 410.847141 120.543822 
L 410.948629 126.974641 
L 411.050118 124.399073 
L 411.253094 160.697758 
L 411.456071 125.606543 
L 411.557559 126.514648 
L 411.659048 100.273201 
L 411.760536 175.969098 
L 411.963513 117.348572 
L 412.065001 131.084421 
L 412.16649 102.132661 
L 412.369466 160.013125 
L 412.470955 150.860676 
L 412.572443 87.037732 
L 412.572443 87.037732 
" style="fill:none;stroke:#1f77b4;stroke-linecap:square;stroke-width:1.5;"/>
   </g>
   <g id="matplotlib.axis_1">
    <g id="xtick_1">
     <g id="line2d_2">
      <defs>
       <path d="M 0 0 
L 0 3.5 
" id="med70e7f8d8" style="stroke:#000000;stroke-width:0.8;"/>
      </defs>
      <g>
       <use style="stroke:#000000;stroke-width:0.8;" x="108.208807" xlink:href="#med70e7f8d8" y="254.83575"/>
      </g>
     </g>
     <g id="text_1">
      <!-- 0 -->
      <g transform="translate(99.937557 281.591687)scale(0.26 -0.26)">
       <defs>
        <path d="M 31.78125 66.40625 
Q 24.171875 66.40625 20.328125 58.90625 
Q 16.5 51.421875 16.5 36.375 
Q 16.5 21.390625 20.328125 13.890625 
Q 24.171875 6.390625 31.78125 6.390625 
Q 39.453125 6.390625 43.28125 13.890625 
Q 47.125 21.390625 47.125 36.375 
Q 47.125 51.421875 43.28125 58.90625 
Q 39.453125 66.40625 31.78125 66.40625 
z
M 31.78125 74.21875 
Q 44.046875 74.21875 50.515625 64.515625 
Q 56.984375 54.828125 56.984375 36.375 
Q 56.984375 17.96875 50.515625 8.265625 
Q 44.046875 -1.421875 31.78125 -1.421875 
Q 19.53125 -1.421875 13.0625 8.265625 
Q 6.59375 17.96875 6.59375 36.375 
Q 6.59375 54.828125 13.0625 64.515625 
Q 19.53125 74.21875 31.78125 74.21875 
z
" id="DejaVuSans-48"/>
       </defs>
       <use xlink:href="#DejaVuSans-48"/>
      </g>
     </g>
    </g>
    <g id="xtick_2">
     <g id="line2d_3">
      <g>
       <use style="stroke:#000000;stroke-width:0.8;" x="209.697182" xlink:href="#med70e7f8d8" y="254.83575"/>
      </g>
     </g>
     <g id="text_2">
      <!-- 1 -->
      <g transform="translate(201.425932 281.591687)scale(0.26 -0.26)">
       <defs>
        <path d="M 12.40625 8.296875 
L 28.515625 8.296875 
L 28.515625 63.921875 
L 10.984375 60.40625 
L 10.984375 69.390625 
L 28.421875 72.90625 
L 38.28125 72.90625 
L 38.28125 8.296875 
L 54.390625 8.296875 
L 54.390625 0 
L 12.40625 0 
z
" id="DejaVuSans-49"/>
       </defs>
       <use xlink:href="#DejaVuSans-49"/>
      </g>
     </g>
    </g>
    <g id="xtick_3">
     <g id="line2d_4">
      <g>
       <use style="stroke:#000000;stroke-width:0.8;" x="311.185557" xlink:href="#med70e7f8d8" y="254.83575"/>
      </g>
     </g>
     <g id="text_3">
      <!-- 2 -->
      <g transform="translate(302.914307 281.591687)scale(0.26 -0.26)">
       <defs>
        <path d="M 19.1875 8.296875 
L 53.609375 8.296875 
L 53.609375 0 
L 7.328125 0 
L 7.328125 8.296875 
Q 12.9375 14.109375 22.625 23.890625 
Q 32.328125 33.6875 34.8125 36.53125 
Q 39.546875 41.84375 41.421875 45.53125 
Q 43.3125 49.21875 43.3125 52.78125 
Q 43.3125 58.59375 39.234375 62.25 
Q 35.15625 65.921875 28.609375 65.921875 
Q 23.96875 65.921875 18.8125 64.3125 
Q 13.671875 62.703125 7.8125 59.421875 
L 7.8125 69.390625 
Q 13.765625 71.78125 18.9375 73 
Q 24.125 74.21875 28.421875 74.21875 
Q 39.75 74.21875 46.484375 68.546875 
Q 53.21875 62.890625 53.21875 53.421875 
Q 53.21875 48.921875 51.53125 44.890625 
Q 49.859375 40.875 45.40625 35.40625 
Q 44.1875 33.984375 37.640625 27.21875 
Q 31.109375 20.453125 19.1875 8.296875 
z
" id="DejaVuSans-50"/>
       </defs>
       <use xlink:href="#DejaVuSans-50"/>
      </g>
     </g>
    </g>
    <g id="xtick_4">
     <g id="line2d_5">
      <g>
       <use style="stroke:#000000;stroke-width:0.8;" x="412.673932" xlink:href="#med70e7f8d8" y="254.83575"/>
      </g>
     </g>
     <g id="text_4">
      <!-- 3 -->
      <g transform="translate(404.402682 281.591687)scale(0.26 -0.26)">
       <defs>
        <path d="M 40.578125 39.3125 
Q 47.65625 37.796875 51.625 33 
Q 55.609375 28.21875 55.609375 21.1875 
Q 55.609375 10.40625 48.1875 4.484375 
Q 40.765625 -1.421875 27.09375 -1.421875 
Q 22.515625 -1.421875 17.65625 -0.515625 
Q 12.796875 0.390625 7.625 2.203125 
L 7.625 11.71875 
Q 11.71875 9.328125 16.59375 8.109375 
Q 21.484375 6.890625 26.8125 6.890625 
Q 36.078125 6.890625 40.9375 10.546875 
Q 45.796875 14.203125 45.796875 21.1875 
Q 45.796875 27.640625 41.28125 31.265625 
Q 36.765625 34.90625 28.71875 34.90625 
L 20.21875 34.90625 
L 20.21875 43.015625 
L 29.109375 43.015625 
Q 36.375 43.015625 40.234375 45.921875 
Q 44.09375 48.828125 44.09375 54.296875 
Q 44.09375 59.90625 40.109375 62.90625 
Q 36.140625 65.921875 28.71875 65.921875 
Q 24.65625 65.921875 20.015625 65.03125 
Q 15.375 64.15625 9.8125 62.3125 
L 9.8125 71.09375 
Q 15.4375 72.65625 20.34375 73.4375 
Q 25.25 74.21875 29.59375 74.21875 
Q 40.828125 74.21875 47.359375 69.109375 
Q 53.90625 64.015625 53.90625 55.328125 
Q 53.90625 49.265625 50.4375 45.09375 
Q 46.96875 40.921875 40.578125 39.3125 
z
" id="DejaVuSans-51"/>
       </defs>
       <use xlink:href="#DejaVuSans-51"/>
      </g>
     </g>
    </g>
    <g id="text_5">
     <!-- time (s) -->
     <g transform="translate(209.972969 310.754812)scale(0.26 -0.26)">
      <defs>
       <path d="M 18.3125 70.21875 
L 18.3125 54.6875 
L 36.8125 54.6875 
L 36.8125 47.703125 
L 18.3125 47.703125 
L 18.3125 18.015625 
Q 18.3125 11.328125 20.140625 9.421875 
Q 21.96875 7.515625 27.59375 7.515625 
L 36.8125 7.515625 
L 36.8125 0 
L 27.59375 0 
Q 17.1875 0 13.234375 3.875 
Q 9.28125 7.765625 9.28125 18.015625 
L 9.28125 47.703125 
L 2.6875 47.703125 
L 2.6875 54.6875 
L 9.28125 54.6875 
L 9.28125 70.21875 
z
" id="DejaVuSans-116"/>
       <path d="M 9.421875 54.6875 
L 18.40625 54.6875 
L 18.40625 0 
L 9.421875 0 
z
M 9.421875 75.984375 
L 18.40625 75.984375 
L 18.40625 64.59375 
L 9.421875 64.59375 
z
" id="DejaVuSans-105"/>
       <path d="M 52 44.1875 
Q 55.375 50.25 60.0625 53.125 
Q 64.75 56 71.09375 56 
Q 79.640625 56 84.28125 50.015625 
Q 88.921875 44.046875 88.921875 33.015625 
L 88.921875 0 
L 79.890625 0 
L 79.890625 32.71875 
Q 79.890625 40.578125 77.09375 44.375 
Q 74.3125 48.1875 68.609375 48.1875 
Q 61.625 48.1875 57.5625 43.546875 
Q 53.515625 38.921875 53.515625 30.90625 
L 53.515625 0 
L 44.484375 0 
L 44.484375 32.71875 
Q 44.484375 40.625 41.703125 44.40625 
Q 38.921875 48.1875 33.109375 48.1875 
Q 26.21875 48.1875 22.15625 43.53125 
Q 18.109375 38.875 18.109375 30.90625 
L 18.109375 0 
L 9.078125 0 
L 9.078125 54.6875 
L 18.109375 54.6875 
L 18.109375 46.1875 
Q 21.1875 51.21875 25.484375 53.609375 
Q 29.78125 56 35.6875 56 
Q 41.65625 56 45.828125 52.96875 
Q 50 49.953125 52 44.1875 
z
" id="DejaVuSans-109"/>
       <path d="M 56.203125 29.59375 
L 56.203125 25.203125 
L 14.890625 25.203125 
Q 15.484375 15.921875 20.484375 11.0625 
Q 25.484375 6.203125 34.421875 6.203125 
Q 39.59375 6.203125 44.453125 7.46875 
Q 49.3125 8.734375 54.109375 11.28125 
L 54.109375 2.78125 
Q 49.265625 0.734375 44.1875 -0.34375 
Q 39.109375 -1.421875 33.890625 -1.421875 
Q 20.796875 -1.421875 13.15625 6.1875 
Q 5.515625 13.8125 5.515625 26.8125 
Q 5.515625 40.234375 12.765625 48.109375 
Q 20.015625 56 32.328125 56 
Q 43.359375 56 49.78125 48.890625 
Q 56.203125 41.796875 56.203125 29.59375 
z
M 47.21875 32.234375 
Q 47.125 39.59375 43.09375 43.984375 
Q 39.0625 48.390625 32.421875 48.390625 
Q 24.90625 48.390625 20.390625 44.140625 
Q 15.875 39.890625 15.1875 32.171875 
z
" id="DejaVuSans-101"/>
       <path id="DejaVuSans-32"/>
       <path d="M 31 75.875 
Q 24.46875 64.65625 21.28125 53.65625 
Q 18.109375 42.671875 18.109375 31.390625 
Q 18.109375 20.125 21.3125 9.0625 
Q 24.515625 -2 31 -13.1875 
L 23.1875 -13.1875 
Q 15.875 -1.703125 12.234375 9.375 
Q 8.59375 20.453125 8.59375 31.390625 
Q 8.59375 42.28125 12.203125 53.3125 
Q 15.828125 64.359375 23.1875 75.875 
z
" id="DejaVuSans-40"/>
       <path d="M 44.28125 53.078125 
L 44.28125 44.578125 
Q 40.484375 46.53125 36.375 47.5 
Q 32.28125 48.484375 27.875 48.484375 
Q 21.1875 48.484375 17.84375 46.4375 
Q 14.5 44.390625 14.5 40.28125 
Q 14.5 37.15625 16.890625 35.375 
Q 19.28125 33.59375 26.515625 31.984375 
L 29.59375 31.296875 
Q 39.15625 29.25 43.1875 25.515625 
Q 47.21875 21.78125 47.21875 15.09375 
Q 47.21875 7.46875 41.1875 3.015625 
Q 35.15625 -1.421875 24.609375 -1.421875 
Q 20.21875 -1.421875 15.453125 -0.5625 
Q 10.6875 0.296875 5.421875 2 
L 5.421875 11.28125 
Q 10.40625 8.6875 15.234375 7.390625 
Q 20.0625 6.109375 24.8125 6.109375 
Q 31.15625 6.109375 34.5625 8.28125 
Q 37.984375 10.453125 37.984375 14.40625 
Q 37.984375 18.0625 35.515625 20.015625 
Q 33.0625 21.96875 24.703125 23.78125 
L 21.578125 24.515625 
Q 13.234375 26.265625 9.515625 29.90625 
Q 5.8125 33.546875 5.8125 39.890625 
Q 5.8125 47.609375 11.28125 51.796875 
Q 16.75 56 26.8125 56 
Q 31.78125 56 36.171875 55.265625 
Q 40.578125 54.546875 44.28125 53.078125 
z
" id="DejaVuSans-115"/>
       <path d="M 8.015625 75.875 
L 15.828125 75.875 
Q 23.140625 64.359375 26.78125 53.3125 
Q 30.421875 42.28125 30.421875 31.390625 
Q 30.421875 20.453125 26.78125 9.375 
Q 23.140625 -1.703125 15.828125 -13.1875 
L 8.015625 -13.1875 
Q 14.5 -2 17.703125 9.0625 
Q 20.90625 20.125 20.90625 31.390625 
Q 20.90625 42.671875 17.703125 53.65625 
Q 14.5 64.65625 8.015625 75.875 
z
" id="DejaVuSans-41"/>
      </defs>
      <use xlink:href="#DejaVuSans-116"/>
      <use x="39.208984" xlink:href="#DejaVuSans-105"/>
      <use x="66.992188" xlink:href="#DejaVuSans-109"/>
      <use x="164.404297" xlink:href="#DejaVuSans-101"/>
      <use x="225.927734" xlink:href="#DejaVuSans-32"/>
      <use x="257.714844" xlink:href="#DejaVuSans-40"/>
      <use x="296.728516" xlink:href="#DejaVuSans-115"/>
      <use x="348.828125" xlink:href="#DejaVuSans-41"/>
     </g>
    </g>
   </g>
   <g id="matplotlib.axis_2">
    <g id="ytick_1">
     <g id="line2d_6">
      <defs>
       <path d="M 0 0 
L -3.5 0 
" id="m2799563b4a" style="stroke:#000000;stroke-width:0.8;"/>
      </defs>
      <g>
       <use style="stroke:#000000;stroke-width:0.8;" x="92.990625" xlink:href="#m2799563b4a" y="222.21975"/>
      </g>
     </g>
     <g id="text_6">
      <!-- 150 -->
      <g transform="translate(36.363125 232.097719)scale(0.26 -0.26)">
       <defs>
        <path d="M 10.796875 72.90625 
L 49.515625 72.90625 
L 49.515625 64.59375 
L 19.828125 64.59375 
L 19.828125 46.734375 
Q 21.96875 47.46875 24.109375 47.828125 
Q 26.265625 48.1875 28.421875 48.1875 
Q 40.625 48.1875 47.75 41.5 
Q 54.890625 34.8125 54.890625 23.390625 
Q 54.890625 11.625 47.5625 5.09375 
Q 40.234375 -1.421875 26.90625 -1.421875 
Q 22.3125 -1.421875 17.546875 -0.640625 
Q 12.796875 0.140625 7.71875 1.703125 
L 7.71875 11.625 
Q 12.109375 9.234375 16.796875 8.0625 
Q 21.484375 6.890625 26.703125 6.890625 
Q 35.15625 6.890625 40.078125 11.328125 
Q 45.015625 15.765625 45.015625 23.390625 
Q 45.015625 31 40.078125 35.4375 
Q 35.15625 39.890625 26.703125 39.890625 
Q 22.75 39.890625 18.8125 39.015625 
Q 14.890625 38.140625 10.796875 36.28125 
z
" id="DejaVuSans-53"/>
       </defs>
       <use xlink:href="#DejaVuSans-49"/>
       <use x="63.623047" xlink:href="#DejaVuSans-53"/>
       <use x="127.246094" xlink:href="#DejaVuSans-48"/>
      </g>
     </g>
    </g>
    <g id="ytick_2">
     <g id="line2d_7">
      <g>
       <use style="stroke:#000000;stroke-width:0.8;" x="92.990625" xlink:href="#m2799563b4a" y="167.85975"/>
      </g>
     </g>
     <g id="text_7">
      <!-- 200 -->
      <g transform="translate(36.363125 177.737719)scale(0.26 -0.26)">
       <use xlink:href="#DejaVuSans-50"/>
       <use x="63.623047" xlink:href="#DejaVuSans-48"/>
       <use x="127.246094" xlink:href="#DejaVuSans-48"/>
      </g>
     </g>
    </g>
    <g id="ytick_3">
     <g id="line2d_8">
      <g>
       <use style="stroke:#000000;stroke-width:0.8;" x="92.990625" xlink:href="#m2799563b4a" y="113.49975"/>
      </g>
     </g>
     <g id="text_8">
      <!-- 250 -->
      <g transform="translate(36.363125 123.377719)scale(0.26 -0.26)">
       <use xlink:href="#DejaVuSans-50"/>
       <use x="63.623047" xlink:href="#DejaVuSans-53"/>
       <use x="127.246094" xlink:href="#DejaVuSans-48"/>
      </g>
     </g>
    </g>
    <g id="ytick_4">
     <g id="line2d_9">
      <g>
       <use style="stroke:#000000;stroke-width:0.8;" x="92.990625" xlink:href="#m2799563b4a" y="59.13975"/>
      </g>
     </g>
     <g id="text_9">
      <!-- 300 -->
      <g transform="translate(36.363125 69.017719)scale(0.26 -0.26)">
       <use xlink:href="#DejaVuSans-51"/>
       <use x="63.623047" xlink:href="#DejaVuSans-48"/>
       <use x="127.246094" xlink:href="#DejaVuSans-48"/>
      </g>
     </g>
    </g>
    <g id="text_10">
     <!-- amplitude (a.u.) -->
     <g transform="translate(26.955938 250.552469)rotate(-90)scale(0.26 -0.26)">
      <defs>
       <path d="M 34.28125 27.484375 
Q 23.390625 27.484375 19.1875 25 
Q 14.984375 22.515625 14.984375 16.5 
Q 14.984375 11.71875 18.140625 8.90625 
Q 21.296875 6.109375 26.703125 6.109375 
Q 34.1875 6.109375 38.703125 11.40625 
Q 43.21875 16.703125 43.21875 25.484375 
L 43.21875 27.484375 
z
M 52.203125 31.203125 
L 52.203125 0 
L 43.21875 0 
L 43.21875 8.296875 
Q 40.140625 3.328125 35.546875 0.953125 
Q 30.953125 -1.421875 24.3125 -1.421875 
Q 15.921875 -1.421875 10.953125 3.296875 
Q 6 8.015625 6 15.921875 
Q 6 25.140625 12.171875 29.828125 
Q 18.359375 34.515625 30.609375 34.515625 
L 43.21875 34.515625 
L 43.21875 35.40625 
Q 43.21875 41.609375 39.140625 45 
Q 35.0625 48.390625 27.6875 48.390625 
Q 23 48.390625 18.546875 47.265625 
Q 14.109375 46.140625 10.015625 43.890625 
L 10.015625 52.203125 
Q 14.9375 54.109375 19.578125 55.046875 
Q 24.21875 56 28.609375 56 
Q 40.484375 56 46.34375 49.84375 
Q 52.203125 43.703125 52.203125 31.203125 
z
" id="DejaVuSans-97"/>
       <path d="M 18.109375 8.203125 
L 18.109375 -20.796875 
L 9.078125 -20.796875 
L 9.078125 54.6875 
L 18.109375 54.6875 
L 18.109375 46.390625 
Q 20.953125 51.265625 25.265625 53.625 
Q 29.59375 56 35.59375 56 
Q 45.5625 56 51.78125 48.09375 
Q 58.015625 40.1875 58.015625 27.296875 
Q 58.015625 14.40625 51.78125 6.484375 
Q 45.5625 -1.421875 35.59375 -1.421875 
Q 29.59375 -1.421875 25.265625 0.953125 
Q 20.953125 3.328125 18.109375 8.203125 
z
M 48.6875 27.296875 
Q 48.6875 37.203125 44.609375 42.84375 
Q 40.53125 48.484375 33.40625 48.484375 
Q 26.265625 48.484375 22.1875 42.84375 
Q 18.109375 37.203125 18.109375 27.296875 
Q 18.109375 17.390625 22.1875 11.75 
Q 26.265625 6.109375 33.40625 6.109375 
Q 40.53125 6.109375 44.609375 11.75 
Q 48.6875 17.390625 48.6875 27.296875 
z
" id="DejaVuSans-112"/>
       <path d="M 9.421875 75.984375 
L 18.40625 75.984375 
L 18.40625 0 
L 9.421875 0 
z
" id="DejaVuSans-108"/>
       <path d="M 8.5 21.578125 
L 8.5 54.6875 
L 17.484375 54.6875 
L 17.484375 21.921875 
Q 17.484375 14.15625 20.5 10.265625 
Q 23.53125 6.390625 29.59375 6.390625 
Q 36.859375 6.390625 41.078125 11.03125 
Q 45.3125 15.671875 45.3125 23.6875 
L 45.3125 54.6875 
L 54.296875 54.6875 
L 54.296875 0 
L 45.3125 0 
L 45.3125 8.40625 
Q 42.046875 3.421875 37.71875 1 
Q 33.40625 -1.421875 27.6875 -1.421875 
Q 18.265625 -1.421875 13.375 4.4375 
Q 8.5 10.296875 8.5 21.578125 
z
M 31.109375 56 
z
" id="DejaVuSans-117"/>
       <path d="M 45.40625 46.390625 
L 45.40625 75.984375 
L 54.390625 75.984375 
L 54.390625 0 
L 45.40625 0 
L 45.40625 8.203125 
Q 42.578125 3.328125 38.25 0.953125 
Q 33.9375 -1.421875 27.875 -1.421875 
Q 17.96875 -1.421875 11.734375 6.484375 
Q 5.515625 14.40625 5.515625 27.296875 
Q 5.515625 40.1875 11.734375 48.09375 
Q 17.96875 56 27.875 56 
Q 33.9375 56 38.25 53.625 
Q 42.578125 51.265625 45.40625 46.390625 
z
M 14.796875 27.296875 
Q 14.796875 17.390625 18.875 11.75 
Q 22.953125 6.109375 30.078125 6.109375 
Q 37.203125 6.109375 41.296875 11.75 
Q 45.40625 17.390625 45.40625 27.296875 
Q 45.40625 37.203125 41.296875 42.84375 
Q 37.203125 48.484375 30.078125 48.484375 
Q 22.953125 48.484375 18.875 42.84375 
Q 14.796875 37.203125 14.796875 27.296875 
z
" id="DejaVuSans-100"/>
       <path d="M 10.6875 12.40625 
L 21 12.40625 
L 21 0 
L 10.6875 0 
z
" id="DejaVuSans-46"/>
      </defs>
      <use xlink:href="#DejaVuSans-97"/>
      <use x="61.279297" xlink:href="#DejaVuSans-109"/>
      <use x="158.691406" xlink:href="#DejaVuSans-112"/>
      <use x="222.167969" xlink:href="#DejaVuSans-108"/>
      <use x="249.951172" xlink:href="#DejaVuSans-105"/>
      <use x="277.734375" xlink:href="#DejaVuSans-116"/>
      <use x="316.943359" xlink:href="#DejaVuSans-117"/>
      <use x="380.322266" xlink:href="#DejaVuSans-100"/>
      <use x="443.798828" xlink:href="#DejaVuSans-101"/>
      <use x="505.322266" xlink:href="#DejaVuSans-32"/>
      <use x="537.109375" xlink:href="#DejaVuSans-40"/>
      <use x="576.123047" xlink:href="#DejaVuSans-97"/>
      <use x="637.402344" xlink:href="#DejaVuSans-46"/>
      <use x="669.189453" xlink:href="#DejaVuSans-117"/>
      <use x="732.568359" xlink:href="#DejaVuSans-46"/>
      <use x="764.355469" xlink:href="#DejaVuSans-41"/>
     </g>
    </g>
   </g>
   <g id="line2d_10">
    <path clip-path="url(#pcdeb2d5b6d)" d="M 108.208807 146.11575 
L 412.572443 146.023673 
L 412.572443 146.023673 
" style="fill:none;stroke:#ff7f0e;stroke-linecap:square;stroke-width:1.5;"/>
   </g>
   <g id="patch_3">
    <path d="M 92.990625 254.83575 
L 92.990625 37.39575 
" style="fill:none;stroke:#000000;stroke-linecap:square;stroke-linejoin:miter;stroke-width:0.8;"/>
   </g>
   <g id="patch_4">
    <path d="M 427.790625 254.83575 
L 427.790625 37.39575 
" style="fill:none;stroke:#000000;stroke-linecap:square;stroke-linejoin:miter;stroke-width:0.8;"/>
   </g>
   <g id="patch_5">
    <path d="M 92.990625 254.83575 
L 427.790625 254.83575 
" style="fill:none;stroke:#000000;stroke-linecap:square;stroke-linejoin:miter;stroke-width:0.8;"/>
   </g>
   <g id="patch_6">
    <path d="M 92.990625 37.39575 
L 427.790625 37.39575 
" style="fill:none;stroke:#000000;stroke-linecap:square;stroke-linejoin:miter;stroke-width:0.8;"/>
   </g>
   <g id="text_11">
    <!-- $p(t)$ -->
    <g transform="translate(237.770625 30.84375)scale(0.312 -0.312)">
     <defs>
      <path d="M 21.5 42.796875 
L 18.59375 32.796875 
Q 26.09375 44.09375 35.703125 44.09375 
Q 41.203125 44.09375 44.203125 40.796875 
Q 47.203125 37.5 47.203125 31.59375 
Q 47.203125 19.296875 37.84375 9.09375 
Q 28.5 -1.09375 17.5 -1.09375 
Q 13.90625 -1.09375 10.59375 0.59375 
Q 6.59375 -15.90625 6.59375 -16 
Q 6.59375 -17.59375 7.9375 -18.25 
Q 9.296875 -18.90625 12.796875 -18.90625 
L 12.796875 -20.5 
L -7.5 -20.5 
L -7.5 -18.90625 
Q -4.296875 -18.796875 -2.9375 -17.5 
Q -1.59375 -16.203125 -0.703125 -12.59375 
L 10.796875 30.59375 
Q 12.40625 36.40625 12.40625 37.703125 
Q 12.40625 40.40625 8 40.40625 
L 5.796875 40.40625 
L 5.59375 41.90625 
L 21.203125 44.09375 
Q 21.703125 44.09375 21.703125 43.703125 
Q 21.59375 43.203125 21.5 42.796875 
z
M 38.203125 31.296875 
Q 38.203125 35.703125 36.75 37.75 
Q 35.296875 39.796875 32 39.796875 
Q 28.09375 39.796875 24.1875 36.390625 
Q 20.296875 33 18.5 28.40625 
Q 16.296875 22.703125 14.140625 14.890625 
Q 12 7.09375 12 4.59375 
Q 12 2.90625 13.34375 1.84375 
Q 14.703125 0.796875 16.796875 0.796875 
Q 24.59375 0.796875 31.296875 10.296875 
Q 38.203125 19.90625 38.203125 31.296875 
z
" id="STIXGeneral-Italic-112"/>
      <path d="M 30.40625 -16.09375 
L 29.203125 -17.703125 
Q 17.59375 -11.09375 11.1875 0.5 
Q 4.796875 12.09375 4.796875 25.203125 
Q 4.796875 52.90625 29.5 67.59375 
L 30.40625 66 
Q 20.203125 57.296875 16.796875 48.84375 
Q 13.40625 40.40625 13.40625 25.5 
Q 13.40625 10.703125 16.90625 1.5 
Q 20.40625 -7.703125 30.40625 -16.09375 
z
" id="STIXGeneral-Regular-40"/>
      <path d="M 29.59375 42.796875 
L 29.09375 39.59375 
L 20.703125 39.59375 
L 12 6.796875 
Q 11.796875 6 11.796875 5.40625 
Q 11.796875 3.796875 13.296875 3.796875 
Q 14.5 3.796875 16.09375 5.34375 
Q 17.703125 6.90625 21.40625 11.703125 
L 22.703125 11 
Q 18.09375 4 15.140625 1.453125 
Q 12.203125 -1.09375 8.40625 -1.09375 
Q 3.796875 -1.09375 3.796875 2.59375 
Q 3.796875 3.59375 5.40625 10 
L 13.203125 39.59375 
L 5.703125 39.59375 
L 5.59375 40.203125 
Q 5.59375 42 8.90625 42.703125 
Q 11.40625 43.296875 15.5 46.546875 
Q 19.59375 49.796875 22.203125 53.703125 
Q 22.796875 54.59375 23.59375 54.59375 
Q 24.5 54.59375 24.5 53.796875 
Q 24.5 53.296875 24.40625 53.09375 
L 21.59375 42.796875 
z
" id="STIXGeneral-Italic-116"/>
      <path d="M 2.90625 66 
L 4.09375 67.59375 
Q 15.5 60.796875 22 49.1875 
Q 28.5 37.59375 28.5 24.703125 
Q 28.5 -2.59375 3.796875 -17.703125 
L 2.90625 -16.09375 
Q 13.203125 -7.59375 16.546875 0.84375 
Q 19.90625 9.296875 19.90625 24.40625 
Q 19.90625 39.59375 16.546875 48.75 
Q 13.203125 57.90625 2.90625 66 
z
" id="STIXGeneral-Regular-41"/>
     </defs>
     <use transform="translate(0 0.40625)" xlink:href="#STIXGeneral-Italic-112"/>
     <use transform="translate(50.399994 0.40625)" xlink:href="#STIXGeneral-Regular-40"/>
     <use transform="translate(83.699982 0.40625)" xlink:href="#STIXGeneral-Italic-116"/>
     <use transform="translate(111.499969 0.40625)" xlink:href="#STIXGeneral-Regular-41"/>
    </g>
   </g>
   <g id="legend_1">
    <g id="line2d_11">
     <path d="M 454.930625 58.451687 
L 506.930625 58.451687 
" style="fill:none;stroke:#1f77b4;stroke-linecap:square;stroke-width:1.5;"/>
    </g>
    <g id="line2d_12"/>
    <g id="text_12">
     <!-- exact -->
     <g transform="translate(527.730625 67.551687)scale(0.26 -0.26)">
      <defs>
       <path d="M 54.890625 54.6875 
L 35.109375 28.078125 
L 55.90625 0 
L 45.3125 0 
L 29.390625 21.484375 
L 13.484375 0 
L 2.875 0 
L 24.125 28.609375 
L 4.6875 54.6875 
L 15.28125 54.6875 
L 29.78125 35.203125 
L 44.28125 54.6875 
z
" id="DejaVuSans-120"/>
       <path d="M 48.78125 52.59375 
L 48.78125 44.1875 
Q 44.96875 46.296875 41.140625 47.34375 
Q 37.3125 48.390625 33.40625 48.390625 
Q 24.65625 48.390625 19.8125 42.84375 
Q 14.984375 37.3125 14.984375 27.296875 
Q 14.984375 17.28125 19.8125 11.734375 
Q 24.65625 6.203125 33.40625 6.203125 
Q 37.3125 6.203125 41.140625 7.25 
Q 44.96875 8.296875 48.78125 10.40625 
L 48.78125 2.09375 
Q 45.015625 0.34375 40.984375 -0.53125 
Q 36.96875 -1.421875 32.421875 -1.421875 
Q 20.0625 -1.421875 12.78125 6.34375 
Q 5.515625 14.109375 5.515625 27.296875 
Q 5.515625 40.671875 12.859375 48.328125 
Q 20.21875 56 33.015625 56 
Q 37.15625 56 41.109375 55.140625 
Q 45.0625 54.296875 48.78125 52.59375 
z
" id="DejaVuSans-99"/>
      </defs>
      <use xlink:href="#DejaVuSans-101"/>
      <use x="59.773438" xlink:href="#DejaVuSans-120"/>
      <use x="118.953125" xlink:href="#DejaVuSans-97"/>
      <use x="180.232422" xlink:href="#DejaVuSans-99"/>
      <use x="235.212891" xlink:href="#DejaVuSans-116"/>
     </g>
    </g>
    <g id="line2d_13">
     <path d="M 454.930625 96.614812 
L 506.930625 96.614812 
" style="fill:none;stroke:#ff7f0e;stroke-linecap:square;stroke-width:1.5;"/>
    </g>
    <g id="line2d_14"/>
    <g id="text_13">
     <!-- estimated -->
     <g transform="translate(527.730625 105.714812)scale(0.26 -0.26)">
      <use xlink:href="#DejaVuSans-101"/>
      <use x="61.523438" xlink:href="#DejaVuSans-115"/>
      <use x="113.623047" xlink:href="#DejaVuSans-116"/>
      <use x="152.832031" xlink:href="#DejaVuSans-105"/>
      <use x="180.615234" xlink:href="#DejaVuSans-109"/>
      <use x="278.027344" xlink:href="#DejaVuSans-97"/>
      <use x="339.306641" xlink:href="#DejaVuSans-116"/>
      <use x="378.515625" xlink:href="#DejaVuSans-101"/>
      <use x="440.039062" xlink:href="#DejaVuSans-100"/>
     </g>
    </g>
   </g>
  </g>
 </g>
 <defs>
  <clipPath id="pcdeb2d5b6d">
   <rect height="217.44" width="334.8" x="92.990625" y="37.39575"/>
  </clipPath>
 </defs>
</svg>
