<?xml version="1.0" encoding="utf-8" standalone="no"?>
<!DOCTYPE svg PUBLIC "-//W3C//DTD SVG 1.1//EN"
  "http://www.w3.org/Graphics/SVG/1.1/DTD/svg11.dtd">
<!-- Created with matplotlib (https://matplotlib.org/) -->
<svg height="323.362pt" version="1.1" viewBox="0 0 659.702188 323.362" width="659.702188pt" xmlns="http://www.w3.org/2000/svg" xmlns:xlink="http://www.w3.org/1999/xlink">
 <metadata>
  <rdf:RDF xmlns:cc="http://creativecommons.org/ns#" xmlns:dc="http://purl.org/dc/elements/1.1/" xmlns:rdf="http://www.w3.org/1999/02/22-rdf-syntax-ns#">
   <cc:Work>
    <dc:type rdf:resource="http://purl.org/dc/dcmitype/StillImage"/>
    <dc:date>2021-09-29T18:19:31.646753</dc:date>
    <dc:format>image/svg+xml</dc:format>
    <dc:creator>
     <cc:Agent>
      <dc:title>Matplotlib v3.3.2, https://matplotlib.org/</dc:title>
     </cc:Agent>
    </dc:creator>
   </cc:Work>
  </rdf:RDF>
 </metadata>
 <defs>
  <style type="text/css">*{stroke-linecap:butt;stroke-linejoin:round;}</style>
 </defs>
 <g id="figure_1">
  <g id="patch_1">
   <path d="M 0 323.362 
L 659.702188 323.362 
L 659.702188 0 
L 0 0 
z
" style="fill:#ffffff;"/>
  </g>
  <g id="axes_1">
   <g id="patch_2">
    <path d="M 76.448125 254.83575 
L 411.248125 254.83575 
L 411.248125 37.39575 
L 76.448125 37.39575 
z
" style="fill:#ffffff;"/>
   </g>
   <g id="line2d_1">
    <path clip-path="url(#p92729bb1b6)" d="M 91.666307 60.545871 
L 91.767795 63.850556 
L 91.869284 62.084901 
L 91.970772 69.155063 
L 92.173749 62.899149 
L 92.275237 62.834132 
L 92.376725 70.713934 
L 92.478214 61.738385 
L 92.579702 61.975853 
L 92.681191 65.150318 
L 92.782679 63.311717 
L 92.884167 70.503612 
L 92.985656 70.48925 
L 93.087144 62.691573 
L 93.188632 66.572331 
L 93.391609 59.296515 
L 93.493098 64.196894 
L 93.594586 76.941151 
L 93.696074 64.091506 
L 93.797563 65.691503 
L 93.899051 64.5047 
L 94.000539 59.026723 
L 94.102028 71.005252 
L 94.305005 55.79725 
L 94.406493 66.413108 
L 94.60947 58.726567 
L 94.913935 66.835024 
L 95.015423 59.81621 
L 95.116912 60.552629 
L 95.319888 69.105916 
L 95.421377 69.613718 
L 95.522865 55.399427 
L 95.624353 63.760517 
L 95.725842 52.031265 
L 95.928819 61.319506 
L 96.030307 61.967074 
L 96.131795 58.622803 
L 96.233284 68.122431 
L 96.334772 53.020957 
L 96.537749 66.864444 
L 96.740726 58.194936 
L 96.842214 68.345385 
L 96.943702 60.741536 
L 97.045191 66.946284 
L 97.248167 65.85718 
L 97.349656 59.806367 
L 97.451144 68.858645 
L 97.552633 62.572697 
L 97.857098 69.378648 
L 97.958586 69.331101 
L 98.060074 71.417097 
L 98.161563 59.196172 
L 98.263051 64.697985 
L 98.36454 62.767583 
L 98.466028 57.845057 
L 98.567516 69.437561 
L 98.669005 68.095399 
L 98.770493 62.318966 
L 98.871981 72.367614 
L 98.97347 66.353898 
L 99.074958 68.030586 
L 99.176447 61.973182 
L 99.277935 65.626917 
L 99.379423 53.869944 
L 99.5824 67.704087 
L 99.683888 65.456707 
L 99.785377 65.268714 
L 99.886865 47.615804 
L 99.988354 70.894448 
L 100.089842 62.61766 
L 100.19133 73.677148 
L 100.394307 54.38462 
L 100.495795 65.590899 
L 100.597284 58.284074 
L 100.800261 65.670896 
L 100.901749 64.849448 
L 101.206214 70.073177 
L 101.307702 56.36891 
L 101.409191 65.553218 
L 101.510679 62.238464 
L 101.612168 67.8975 
L 101.713656 58.268925 
L 101.815144 64.992178 
L 101.916633 64.114367 
L 102.018121 72.51626 
L 102.221098 54.933771 
L 102.322586 67.890521 
L 102.424075 65.909482 
L 102.525563 69.199889 
L 102.627051 63.079592 
L 102.72854 63.398543 
L 102.830028 60.305169 
L 102.931516 61.051621 
L 103.033005 67.646647 
L 103.134493 62.637858 
L 103.33747 69.005176 
L 103.438958 64.350533 
L 103.540447 45.372212 
L 103.743423 63.074755 
L 103.844912 55.352533 
L 104.149377 73.187952 
L 104.453842 63.261094 
L 104.55533 63.717404 
L 104.758307 66.638851 
L 104.859796 64.600934 
L 104.961284 70.477448 
L 105.164261 65.653654 
L 105.265749 69.850593 
L 105.367237 65.415799 
L 105.468726 67.858305 
L 105.570214 57.859584 
L 105.671703 65.011455 
L 105.773191 64.753732 
L 105.976168 61.155507 
L 106.077656 72.240776 
L 106.179144 65.676362 
L 106.280633 68.25268 
L 106.382121 64.566202 
L 106.48361 66.46081 
L 106.585098 63.114812 
L 106.686586 68.61588 
L 106.788075 66.62629 
L 106.889563 66.743869 
L 106.991051 58.660859 
L 107.295517 65.289148 
L 107.397005 65.769204 
L 107.599982 60.162893 
L 107.70147 63.850881 
L 107.904447 57.776612 
L 108.005935 71.981792 
L 108.107424 61.863032 
L 108.208912 64.153135 
L 108.411889 58.564232 
L 108.614865 71.795177 
L 108.716354 58.6256 
L 108.817842 68.800109 
L 108.919331 67.295967 
L 109.020819 62.996158 
L 109.223796 71.687938 
L 109.325284 63.83393 
L 109.426772 67.780036 
L 109.528261 61.11982 
L 109.731238 67.344832 
L 109.832726 65.037787 
L 109.934214 58.943872 
L 110.035703 59.645707 
L 110.137191 69.32 
L 110.238679 50.514185 
L 110.441656 69.620554 
L 110.543145 59.765012 
L 110.644633 65.809428 
L 110.746121 53.659941 
L 110.949098 65.036729 
L 111.050586 56.469547 
L 111.152075 59.983429 
L 111.253563 70.029309 
L 111.355052 59.803509 
L 111.45654 66.596849 
L 111.659517 63.477859 
L 111.862493 70.563794 
L 111.963982 62.348951 
L 112.166959 76.579489 
L 112.369935 62.546337 
L 112.471424 65.455288 
L 112.572912 58.033502 
L 112.775889 67.869228 
L 112.877377 66.295572 
L 112.978866 71.117967 
L 113.080354 58.935132 
L 113.181842 70.860293 
L 113.486307 64.190847 
L 113.587796 71.468178 
L 113.790773 62.93703 
L 113.892261 58.764065 
L 114.196726 71.788052 
L 114.501191 59.031053 
L 114.60268 59.961974 
L 114.704168 63.597538 
L 114.907145 50.352034 
L 115.110121 67.973219 
L 115.21161 56.953845 
L 115.414587 63.759136 
L 115.516075 62.411195 
L 115.719052 69.317991 
L 115.82054 68.078408 
L 115.922028 58.308201 
L 116.023517 71.275852 
L 116.125005 61.929907 
L 116.226494 67.039564 
L 116.327982 66.05771 
L 116.530959 60.282962 
L 116.632447 62.709306 
L 116.733935 73.422946 
L 116.835424 56.786604 
L 116.936912 58.05212 
L 117.139889 64.344423 
L 117.241377 55.694901 
L 117.545842 65.828691 
L 117.647331 65.356839 
L 117.748819 58.738849 
L 117.850308 59.407572 
L 117.951796 72.23446 
L 118.154773 60.274174 
L 118.256261 71.734458 
L 118.357749 64.475183 
L 118.459238 73.053173 
L 118.560726 63.846441 
L 118.662215 74.544001 
L 118.865191 67.441839 
L 118.96668 67.920025 
L 119.068168 57.486784 
L 119.372633 69.026378 
L 119.474122 65.677261 
L 119.57561 69.501926 
L 119.778587 54.892429 
L 120.083052 65.358527 
L 120.18454 66.521506 
L 120.286029 56.136652 
L 120.387517 67.358633 
L 120.489005 57.038341 
L 120.590494 70.055035 
L 120.691982 66.024707 
L 120.79347 72.881527 
L 120.894959 63.835686 
L 120.996447 70.71735 
L 121.097936 56.571422 
L 121.199424 62.630775 
L 121.300912 62.032119 
L 121.402401 63.268874 
L 121.503889 69.919901 
L 121.706866 55.775938 
L 122.011331 73.621269 
L 122.112819 68.12358 
L 122.214308 73.19792 
L 122.315796 60.675827 
L 122.417284 60.920356 
L 122.518773 68.932331 
L 122.620261 61.74037 
L 122.72175 67.49866 
L 122.924726 62.928182 
L 123.026215 66.876823 
L 123.127703 62.716998 
L 123.229191 72.889355 
L 123.33068 64.18245 
L 123.432168 64.92516 
L 123.533657 74.650639 
L 123.635145 73.513096 
L 123.736633 73.760109 
L 123.838122 62.77919 
L 123.93961 64.188389 
L 124.041098 63.469852 
L 124.142587 71.208941 
L 124.244075 59.302635 
L 124.345564 60.063355 
L 124.447052 68.524709 
L 124.54854 59.142332 
L 124.751517 73.420336 
L 124.853005 72.733242 
L 124.954494 61.305068 
L 125.055982 65.359554 
L 125.157471 60.605094 
L 125.258959 65.296586 
L 125.360447 63.582588 
L 125.461936 54.621512 
L 125.563424 58.139247 
L 125.664912 66.986685 
L 125.867889 62.519024 
L 125.969378 61.235621 
L 126.172354 67.312402 
L 126.273843 64.951676 
L 126.375331 67.261444 
L 126.476819 56.813205 
L 126.578308 58.958598 
L 126.679796 65.944218 
L 126.781285 62.897417 
L 126.882773 65.773012 
L 126.984261 59.214372 
L 127.08575 59.918535 
L 127.187238 62.245822 
L 127.288726 60.790038 
L 127.390215 61.814758 
L 127.491703 59.34023 
L 127.897657 72.634767 
L 127.999145 65.181354 
L 128.100633 68.634307 
L 128.30361 59.556197 
L 128.608075 69.209713 
L 128.709564 72.00462 
L 128.811052 58.660916 
L 128.91254 73.692839 
L 129.014029 69.631589 
L 129.115517 76.298971 
L 129.217006 66.65605 
L 129.318494 66.789261 
L 129.419982 67.095793 
L 129.521471 65.454199 
L 129.724447 69.577804 
L 129.825936 56.386235 
L 129.927424 66.791129 
L 130.028913 60.798108 
L 130.130401 69.234182 
L 130.231889 57.405203 
L 130.333378 57.888396 
L 130.536354 70.531932 
L 130.637843 64.80566 
L 130.739331 65.004544 
L 130.84082 64.082338 
L 131.043796 72.613539 
L 131.145285 64.476985 
L 131.246773 65.318385 
L 131.348261 65.265778 
L 131.44975 60.321464 
L 131.551238 72.418114 
L 131.652727 60.413653 
L 131.754215 68.895801 
L 131.855703 67.221452 
L 131.957192 69.309131 
L 132.05868 64.893162 
L 132.160168 74.542371 
L 132.464634 59.247988 
L 132.566122 64.634433 
L 132.66761 62.009182 
L 132.870587 70.452895 
L 132.972075 61.008356 
L 133.073564 69.484517 
L 133.175052 67.94954 
L 133.378029 60.852706 
L 133.479517 66.402069 
L 133.581006 58.137566 
L 133.682494 68.205262 
L 133.783982 62.235221 
L 133.885471 65.441359 
L 133.986959 57.992812 
L 134.189936 74.552543 
L 134.291424 60.230071 
L 134.494401 68.176422 
L 134.595889 59.602242 
L 134.697378 67.120086 
L 134.798866 62.627675 
L 135.001843 69.582251 
L 135.103331 56.80099 
L 135.20482 69.360328 
L 135.306308 68.390678 
L 135.407796 73.827364 
L 135.509285 57.704391 
L 135.712262 64.446971 
L 135.81375 60.891803 
L 135.915238 72.03479 
L 136.118215 66.068833 
L 136.219703 73.117025 
L 136.321192 59.305818 
L 136.524169 67.220449 
L 136.625657 64.524741 
L 136.727145 69.310538 
L 136.828634 65.463968 
L 136.930122 49.127995 
L 137.03161 62.775959 
L 137.133099 57.64444 
L 137.336076 69.353216 
L 137.437564 64.233127 
L 137.640541 76.892839 
L 137.742029 62.218587 
L 137.843517 62.662735 
L 137.945006 61.740565 
L 138.046494 65.641685 
L 138.147983 56.226387 
L 138.452448 80.337622 
L 138.655424 61.806886 
L 138.756913 65.801537 
L 138.95989 54.762213 
L 139.061378 66.696923 
L 139.162866 59.918109 
L 139.264355 73.538612 
L 139.365843 60.9007 
L 139.56882 66.97036 
L 139.771797 66.672488 
L 139.873285 67.417702 
L 139.974773 64.973931 
L 140.076262 66.784466 
L 140.17775 71.535458 
L 140.279238 63.943862 
L 140.380727 68.904697 
L 140.482215 60.912036 
L 140.583704 66.147803 
L 140.685192 65.37903 
L 140.78668 75.903173 
L 140.888169 72.082053 
L 140.989657 61.478063 
L 141.091145 69.572603 
L 141.294122 67.386894 
L 141.395611 59.462851 
L 141.497099 64.253203 
L 141.598587 59.738438 
L 141.700076 67.372007 
L 141.801564 65.056812 
L 141.903052 71.909597 
L 142.004541 60.411939 
L 142.207518 65.908323 
L 142.309006 64.495522 
L 142.410494 59.148087 
L 142.511983 67.184166 
L 142.613471 58.120677 
L 142.714959 70.27981 
L 142.917936 56.474299 
L 143.019425 68.558447 
L 143.222401 61.969244 
L 143.425378 73.476805 
L 143.526866 71.338393 
L 143.729843 61.946042 
L 143.831332 62.47182 
L 143.93282 60.732196 
L 144.034308 65.932903 
L 144.135797 65.283548 
L 144.237285 73.637917 
L 144.440262 63.356343 
L 144.54175 69.143955 
L 144.643239 63.223139 
L 144.744727 75.118424 
L 144.846215 62.723846 
L 144.947704 64.911313 
L 145.049192 56.172969 
L 145.15068 59.55256 
L 145.252169 59.108036 
L 145.556634 72.127036 
L 145.658122 68.045797 
L 145.759611 57.609143 
L 145.861099 73.481357 
L 145.962587 68.630225 
L 146.064076 73.321511 
L 146.165564 59.462099 
L 146.267053 69.216296 
L 146.368541 59.02861 
L 146.571518 68.946536 
L 146.673006 60.342127 
L 146.774494 61.992972 
L 146.875983 79.663917 
L 147.07896 63.657783 
L 147.180448 65.553497 
L 147.281936 69.754599 
L 147.383425 66.449055 
L 147.484913 68.519303 
L 147.586401 65.584321 
L 147.789378 69.629768 
L 147.992355 62.766473 
L 148.195332 69.338373 
L 148.499797 58.983283 
L 148.702774 64.115144 
L 148.90575 73.329674 
L 149.007239 67.719035 
L 149.108727 73.560133 
L 149.311704 67.592682 
L 149.413192 69.120231 
L 149.514681 68.37492 
L 149.616169 73.217249 
L 149.819146 62.005079 
L 149.920634 69.478771 
L 150.123611 53.983857 
L 150.225099 67.303801 
L 150.326588 63.723559 
L 150.428076 65.929466 
L 150.529564 62.205108 
L 150.631053 75.204935 
L 150.935518 62.644991 
L 151.037006 66.310264 
L 151.138495 74.994353 
L 151.44296 65.102173 
L 151.544448 70.674206 
L 151.645936 70.291963 
L 151.848913 60.57065 
L 151.950402 69.030167 
L 152.05189 64.990437 
L 152.153378 76.145258 
L 152.356355 61.324732 
L 152.66082 68.983935 
L 152.762309 70.241783 
L 152.863797 67.992301 
L 152.965285 74.634048 
L 153.066774 59.366275 
L 153.371239 70.174605 
L 153.675704 62.324257 
L 153.878681 71.937001 
L 153.980169 57.201599 
L 154.284634 67.945749 
L 154.386123 62.821716 
L 154.487611 73.449637 
L 154.589099 59.90668 
L 154.690588 67.491866 
L 154.792076 63.50842 
L 154.893564 64.218207 
L 155.096541 68.209894 
L 155.19803 61.470759 
L 155.299518 62.424358 
L 155.401006 75.958778 
L 155.502495 75.584045 
L 155.705471 71.745976 
L 155.80696 72.844123 
L 155.908448 66.135628 
L 156.009937 69.702167 
L 156.212913 60.46346 
L 156.314402 67.633501 
L 156.41589 59.371593 
L 156.618867 69.629345 
L 156.821844 62.985327 
L 156.923332 75.363222 
L 157.126309 66.147655 
L 157.227797 65.841609 
L 157.329285 69.387654 
L 157.430774 65.256912 
L 157.532262 66.218568 
L 157.633751 70.501595 
L 157.735239 57.111426 
L 157.938216 69.276078 
L 158.039704 70.449821 
L 158.141192 62.724666 
L 158.242681 67.217132 
L 158.344169 55.40934 
L 158.547146 73.749228 
L 158.750123 66.922237 
L 158.851611 78.016153 
L 158.953099 69.285358 
L 159.054588 69.583316 
L 159.156076 69.596695 
L 159.257565 70.871798 
L 159.359053 74.328592 
L 159.460541 64.187204 
L 159.663518 72.820148 
L 159.866495 70.179549 
L 160.069472 64.691612 
L 160.17096 72.538691 
L 160.272448 70.260816 
L 160.373937 74.458288 
L 160.475425 84.360353 
L 160.678402 60.648094 
L 160.881379 70.466939 
L 160.982867 67.562707 
L 161.084355 73.717714 
L 161.185844 68.644011 
L 161.38882 72.197693 
L 161.591797 55.539188 
L 161.693286 60.06651 
L 161.794774 68.474456 
L 161.896262 63.866415 
L 161.997751 63.982134 
L 162.099239 71.29194 
L 162.200727 65.064014 
L 162.302216 75.150575 
L 162.505193 67.058798 
L 162.606681 70.229112 
L 162.708169 59.749982 
L 163.012634 70.548542 
L 163.114123 67.383773 
L 163.215611 73.400079 
L 163.3171 65.434312 
L 163.418588 74.970347 
L 163.520076 65.327104 
L 163.621565 69.145433 
L 163.723053 66.359343 
L 163.824541 73.268237 
L 164.027518 56.744355 
L 164.129007 70.622822 
L 164.331983 61.164179 
L 164.737937 74.663706 
L 164.839425 68.245098 
L 164.940914 70.754547 
L 165.14389 67.548339 
L 165.245379 71.823545 
L 165.448355 59.600516 
L 165.549844 73.471235 
L 165.854309 63.122654 
L 165.955797 74.379082 
L 166.057286 73.806432 
L 166.158774 79.127621 
L 166.361751 65.412764 
L 166.463239 63.565304 
L 166.666216 71.642846 
L 166.767704 65.338661 
L 166.869193 67.778397 
L 166.970681 78.05987 
L 167.072169 74.726553 
L 167.173658 61.500466 
L 167.376635 75.475676 
L 167.579611 63.730777 
L 167.6811 70.975231 
L 167.782588 65.708765 
L 167.884076 86.972412 
L 168.087053 63.249086 
L 168.188542 74.375631 
L 168.29003 67.591684 
L 168.391518 70.602196 
L 168.493007 69.477519 
L 168.594495 71.048842 
L 168.695983 75.447218 
L 168.797472 59.888905 
L 168.89896 70.53655 
L 169.000449 68.544768 
L 169.203425 74.088789 
L 169.406402 66.562916 
L 169.609379 63.800897 
L 169.812356 71.308706 
L 169.913844 65.56774 
L 170.015332 72.270502 
L 170.116821 64.992133 
L 170.218309 67.408984 
L 170.319797 63.651604 
L 170.421286 66.007505 
L 170.522774 74.35609 
L 170.624263 73.457943 
L 170.827239 60.088766 
L 170.928728 75.709752 
L 171.131704 67.985477 
L 171.233193 76.733423 
L 171.334681 67.064927 
L 171.436169 69.839582 
L 171.537658 79.534589 
L 171.639146 61.582267 
L 171.842123 75.644454 
L 172.0451 66.782658 
L 172.146588 65.93265 
L 172.248076 71.370737 
L 172.349565 69.572911 
L 172.552542 75.880328 
L 172.65403 64.349772 
L 172.958495 79.268771 
L 173.059983 70.484975 
L 173.161472 73.708819 
L 173.26296 70.496444 
L 173.364449 70.726948 
L 173.465937 71.839752 
L 173.567425 65.160865 
L 173.668914 67.552091 
L 173.770402 64.280795 
L 173.87189 76.143745 
L 174.074867 69.966838 
L 174.176356 71.752128 
L 174.277844 70.185296 
L 174.379332 75.529344 
L 174.480821 73.293116 
L 174.582309 77.779681 
L 174.683797 74.163469 
L 174.785286 66.523802 
L 174.886774 70.928336 
L 174.988263 62.632738 
L 175.089751 72.801431 
L 175.191239 69.36376 
L 175.292728 75.816871 
L 175.394216 57.40334 
L 175.495704 70.848257 
L 175.597193 65.991792 
L 175.698681 68.018513 
L 175.901658 76.477834 
L 176.003146 69.307938 
L 176.104635 72.768358 
L 176.307611 66.961993 
L 176.4091 69.746628 
L 176.510588 68.318095 
L 176.612077 69.430953 
L 176.713565 77.261409 
L 176.815053 63.441596 
L 176.916542 64.521385 
L 177.01803 75.708812 
L 177.119518 67.793036 
L 177.322495 73.875399 
L 177.423984 70.305558 
L 177.525472 61.85332 
L 177.728449 67.405481 
L 177.829937 75.905605 
L 177.931425 58.018773 
L 178.134402 81.743523 
L 178.235891 68.479753 
L 178.337379 72.787485 
L 178.438867 68.461203 
L 178.540356 68.522495 
L 178.641844 74.912852 
L 178.743332 61.668092 
L 178.844821 69.541644 
L 179.047798 64.009466 
L 179.250774 74.977858 
L 179.453751 63.874756 
L 179.555239 77.275118 
L 179.656728 60.919481 
L 179.758216 71.79223 
L 179.859705 67.328072 
L 179.961193 67.960175 
L 180.062681 75.397376 
L 180.16417 74.895508 
L 180.265658 80.804951 
L 180.367146 76.316021 
L 180.468635 77.933646 
L 180.671612 64.186769 
L 180.7731 70.951624 
L 180.976077 67.094707 
L 181.077565 67.586485 
L 181.280542 77.975447 
L 181.483519 70.634177 
L 181.585007 75.167143 
L 181.686495 69.223344 
L 181.787984 72.403734 
L 181.889472 68.001747 
L 182.092449 75.495497 
L 182.193937 62.485431 
L 182.295426 70.93587 
L 182.396914 68.420075 
L 182.498402 76.416777 
L 182.802867 63.595924 
L 183.005844 75.075334 
L 183.107333 71.322544 
L 183.208821 78.596283 
L 183.310309 71.393436 
L 183.411798 71.578054 
L 183.614774 64.464884 
L 183.716263 68.564328 
L 183.817751 67.752207 
L 184.122216 81.032808 
L 184.325193 70.3738 
L 184.426681 79.392876 
L 184.52817 70.285487 
L 184.731147 76.430918 
L 184.832635 73.783746 
L 185.035612 67.269628 
L 185.1371 80.92599 
L 185.340077 67.186363 
L 185.441565 72.86642 
L 185.543054 71.112524 
L 185.644542 78.88222 
L 185.74603 73.994022 
L 185.847519 62.855989 
L 186.050495 78.690119 
L 186.253472 67.954794 
L 186.354961 66.015235 
L 186.456449 74.303668 
L 186.659426 69.208407 
L 186.760914 68.720137 
L 186.862402 74.519627 
L 186.963891 63.618106 
L 187.065379 75.233492 
L 187.166868 68.510542 
L 187.369844 74.805524 
L 187.471333 75.092937 
L 187.572821 74.838533 
L 187.674309 74.183239 
L 187.775798 76.965897 
L 187.877286 68.69147 
L 187.978775 75.479482 
L 188.080263 75.070648 
L 188.181751 69.756314 
L 188.28324 72.658169 
L 188.384728 79.025995 
L 188.587705 73.142928 
L 188.689193 74.990453 
L 188.790682 68.604757 
L 188.993658 76.94229 
L 189.095147 77.171158 
L 189.298123 69.990285 
L 189.399612 80.426828 
L 189.602589 68.223753 
L 189.704077 80.574122 
L 189.805565 75.75866 
L 189.907054 65.537392 
L 190.008542 67.599651 
L 190.11003 72.360701 
L 190.211519 70.077856 
L 190.313007 62.314039 
L 190.515984 78.457206 
L 190.617472 65.982387 
L 190.718961 76.805694 
L 190.820449 67.814357 
L 190.921937 69.465398 
L 191.023426 68.358004 
L 191.124914 65.230011 
L 191.226403 79.778793 
L 191.429379 63.331667 
L 191.733844 77.738404 
L 191.835333 72.298637 
L 192.03831 79.949308 
L 192.139798 70.088584 
L 192.342775 76.651776 
L 192.444263 71.025834 
L 192.545751 75.389113 
L 192.64724 64.375611 
L 192.748728 73.142321 
L 192.850217 65.39429 
L 192.951705 76.962456 
L 193.154682 64.166762 
L 193.25617 71.785917 
L 193.357658 67.624854 
L 193.459147 81.536159 
L 193.560635 69.740066 
L 193.662124 73.030547 
L 193.8651 69.025773 
L 193.966589 84.141058 
L 194.068077 75.402903 
L 194.169565 76.517555 
L 194.271054 72.565364 
L 194.372542 82.69793 
L 194.474031 78.611292 
L 194.575519 68.521387 
L 194.778496 78.661474 
L 194.981472 68.138978 
L 195.082961 82.355491 
L 195.184449 74.509229 
L 195.285938 74.618271 
L 195.488914 71.116237 
L 195.590403 64.340752 
L 195.793379 76.452388 
L 195.894868 67.556386 
L 195.996356 77.80504 
L 196.199333 66.105049 
L 196.40231 69.821705 
L 196.503798 84.544993 
L 196.605286 74.271593 
L 196.706775 76.643122 
L 196.808263 67.424572 
L 197.01124 72.607584 
L 197.112728 70.052013 
L 197.214217 77.051239 
L 197.315705 70.868998 
L 197.417193 73.49641 
L 197.518682 82.110351 
L 197.721659 70.603472 
L 197.823147 68.27561 
L 197.924635 71.515611 
L 198.026124 69.221353 
L 198.127612 82.478179 
L 198.330589 74.839935 
L 198.432077 75.766564 
L 198.533566 74.625457 
L 198.635054 77.007173 
L 198.736542 70.682064 
L 198.838031 79.050775 
L 198.939519 73.678512 
L 199.041007 73.952001 
L 199.142496 73.632122 
L 199.243984 78.929215 
L 199.345473 67.610949 
L 199.548449 81.369103 
L 199.649938 70.566988 
L 199.852914 74.952024 
L 199.954403 74.969267 
L 200.055891 72.617711 
L 200.360356 81.453502 
L 200.461845 73.152296 
L 200.563333 81.977161 
L 200.664821 69.253402 
L 200.76631 79.295563 
L 200.867798 78.814552 
L 200.969287 79.476499 
L 201.070775 81.341127 
L 201.273752 76.170865 
L 201.476728 86.66151 
L 201.679705 70.623515 
L 201.781194 81.198822 
L 201.98417 68.048763 
L 202.085659 81.379032 
L 202.187147 77.125601 
L 202.288635 78.621552 
L 202.390124 70.743861 
L 202.491612 72.835657 
L 202.593101 72.115829 
L 202.694589 63.060988 
L 203.202031 83.52357 
L 203.303519 75.504105 
L 203.405008 81.56646 
L 203.506496 72.289643 
L 203.607984 79.16056 
L 203.709473 78.175401 
L 203.810961 82.88485 
L 203.912449 65.20975 
L 204.115426 78.883923 
L 204.318403 69.108028 
L 204.419891 80.008339 
L 204.52138 66.33632 
L 204.622868 80.560425 
L 204.724356 76.453952 
L 204.927333 87.9111 
L 205.028822 70.788343 
L 205.231798 84.095395 
L 205.333287 83.668953 
L 205.434775 70.231406 
L 205.536263 76.517726 
L 205.637752 68.89761 
L 205.840729 76.184663 
L 205.942217 75.731208 
L 206.043705 78.593972 
L 206.145194 75.463818 
L 206.246682 76.255498 
L 206.34817 71.938471 
L 206.449659 76.799557 
L 206.652636 71.610662 
L 206.855612 82.452797 
L 206.957101 76.908697 
L 207.058589 85.368201 
L 207.160077 82.013253 
L 207.261566 72.67832 
L 207.464543 76.272998 
L 207.667519 79.880208 
L 207.769008 78.810348 
L 207.870496 71.693396 
L 207.971984 74.079264 
L 208.073473 83.033418 
L 208.377938 68.516883 
L 208.479426 85.001024 
L 208.682403 71.854601 
L 208.783891 81.952551 
L 208.88538 65.082603 
L 208.986868 82.332021 
L 209.189845 73.982606 
L 209.291333 72.454709 
L 209.392822 73.281569 
L 209.49431 78.995826 
L 209.595798 72.376097 
L 209.697287 80.460875 
L 209.798775 79.425121 
L 210.001752 69.597374 
L 210.204729 81.245459 
L 210.306217 71.123604 
L 210.407705 83.106663 
L 210.509194 68.13902 
L 210.610682 81.802199 
L 210.813659 72.621442 
L 210.915147 73.332034 
L 211.118124 76.938308 
L 211.219612 85.192014 
L 211.422589 73.754891 
L 211.524078 74.077291 
L 211.625566 82.324086 
L 211.930031 68.927876 
L 212.133008 79.953293 
L 212.335985 82.323024 
L 212.437473 75.709398 
L 212.538961 80.951199 
L 212.64045 72.381562 
L 212.741938 80.632385 
L 212.843426 70.21579 
L 213.147892 83.267485 
L 213.24938 76.145258 
L 213.350868 77.542535 
L 213.452357 74.73527 
L 213.655333 84.867532 
L 213.756822 76.540825 
L 213.85831 77.222383 
L 213.959799 76.746522 
L 214.061287 73.092919 
L 214.264264 89.515368 
L 214.365752 75.73874 
L 214.46724 76.100056 
L 214.568729 80.393953 
L 214.670217 77.291913 
L 214.873194 88.348351 
L 214.974682 86.37889 
L 215.177659 71.572665 
L 215.279147 80.163718 
L 215.380636 74.376298 
L 215.482124 81.208774 
L 215.685101 74.543522 
L 215.989566 82.657228 
L 216.192543 72.820073 
L 216.294031 86.1494 
L 216.39552 74.435754 
L 216.497008 77.245537 
L 216.598496 83.326985 
L 216.699985 78.761168 
L 216.801473 79.686474 
L 216.902961 83.30828 
L 217.00445 81.36361 
L 217.207427 88.823293 
L 217.410403 73.823495 
L 217.511892 71.006569 
L 217.61338 84.297572 
L 217.714868 68.579839 
L 217.917845 72.134818 
L 218.019334 82.838015 
L 218.120822 81.787137 
L 218.22231 88.465179 
L 218.323799 78.20409 
L 218.425287 81.058433 
L 218.526775 78.40358 
L 218.628264 83.246589 
L 218.729752 75.99177 
L 218.831241 77.613714 
L 218.932729 84.829357 
L 219.237194 69.68325 
L 219.440171 83.990337 
L 219.643148 79.65554 
L 219.744636 80.179449 
L 219.846124 88.461195 
L 219.947613 81.194705 
L 220.049101 82.971953 
L 220.150589 80.910079 
L 220.252078 69.432223 
L 220.353566 83.731811 
L 220.455055 72.791558 
L 220.658031 76.496151 
L 220.75952 79.8134 
L 220.861008 76.696054 
L 221.063985 82.557992 
L 221.165473 83.560933 
L 221.266962 78.653575 
L 221.469938 81.194455 
L 221.571427 73.204147 
L 221.672915 83.501986 
L 221.774403 76.573344 
L 221.97738 87.880196 
L 222.078869 87.106999 
L 222.383334 77.206207 
L 222.484822 81.500564 
L 222.58631 77.379632 
L 222.789287 81.692041 
L 222.992264 74.749439 
L 223.093752 75.610365 
L 223.195241 82.033123 
L 223.296729 77.837691 
L 223.398217 90.899947 
L 223.601194 78.928336 
L 223.804171 81.808136 
L 223.905659 74.460214 
L 224.108636 81.500763 
L 224.210124 82.021597 
L 224.311613 75.891505 
L 224.51459 84.981813 
L 224.616078 81.506781 
L 224.717566 72.760647 
L 224.819055 82.496333 
L 224.920543 78.099143 
L 225.12352 82.474173 
L 225.225008 83.878163 
L 225.326497 87.076642 
L 225.630962 73.677368 
L 225.833938 85.303506 
L 225.935427 77.785661 
L 226.036915 79.225613 
L 226.239892 71.385683 
L 226.442869 83.443834 
L 226.544357 82.347153 
L 226.645845 76.014353 
L 226.747334 84.094499 
L 226.848822 82.351982 
L 227.051799 76.56379 
L 227.153287 80.691806 
L 227.254776 95.777556 
L 227.356264 80.193111 
L 227.559241 86.612742 
L 227.762218 76.547322 
L 227.863706 87.453185 
L 227.965194 74.34336 
L 228.269659 86.059512 
L 228.371148 83.369242 
L 228.472636 84.037532 
L 228.574125 82.2185 
L 228.675613 82.553231 
L 228.777101 83.818634 
L 228.87859 83.177534 
L 228.980078 83.37296 
L 229.081566 81.090588 
L 229.183055 90.397346 
L 229.386032 74.280052 
L 229.48752 77.331753 
L 229.589008 87.117497 
L 229.791985 71.549241 
L 229.893473 83.817711 
L 230.09645 71.601097 
L 230.197939 77.766382 
L 230.299427 75.284794 
L 230.400915 88.103148 
L 230.603892 80.983419 
L 230.806869 79.129057 
L 230.908357 82.222647 
L 231.009846 89.352139 
L 231.111334 77.891824 
L 231.212822 81.246838 
L 231.314311 88.806043 
L 231.415799 79.477013 
L 231.618776 80.616668 
L 231.720264 84.631231 
L 231.821753 75.381457 
L 232.126218 90.834719 
L 232.227706 87.121672 
L 232.329194 94.89779 
L 232.532171 82.892455 
L 232.63366 89.384978 
L 232.735148 86.219112 
L 232.836636 76.112099 
L 232.938125 83.133198 
L 233.039613 76.266956 
L 233.344078 94.415072 
L 233.547055 78.538925 
L 233.648543 85.545472 
L 233.750032 85.424905 
L 233.85152 80.031325 
L 234.054497 87.809022 
L 234.155985 82.531126 
L 234.257474 87.0273 
L 234.358962 81.179848 
L 234.46045 88.614039 
L 234.561939 76.907816 
L 234.967892 89.451839 
L 235.069381 88.711066 
L 235.170869 91.330904 
L 235.272357 77.968456 
L 235.373846 82.827465 
L 235.576822 76.147228 
L 235.779799 82.448008 
L 235.881288 86.641891 
L 235.982776 81.070254 
L 236.287241 87.286054 
L 236.490218 77.728195 
L 236.693195 87.049743 
L 236.794683 81.600034 
L 236.896171 88.078267 
L 237.099148 76.68737 
L 237.200636 87.134804 
L 237.302125 85.033031 
L 237.403613 75.572969 
L 237.505102 87.026039 
L 237.60659 84.577161 
L 237.708078 89.8453 
L 237.809567 88.726377 
L 237.911055 92.02869 
L 238.012543 71.26725 
L 238.21552 85.695648 
L 238.418497 94.362961 
L 238.519985 84.414053 
L 238.621474 86.31963 
L 238.82445 82.34528 
L 238.925939 80.835533 
L 239.027427 85.966915 
L 239.128916 82.793866 
L 239.331892 89.986329 
L 239.433381 87.542656 
L 239.534869 82.229352 
L 239.636357 83.050894 
L 239.737846 86.07896 
L 239.839334 84.496601 
L 239.940823 78.323686 
L 240.042311 94.837042 
L 240.143799 92.228951 
L 240.346776 82.853777 
L 240.448264 87.314879 
L 240.549753 81.947766 
L 240.651241 100.880272 
L 240.75273 97.646035 
L 240.955706 73.570589 
L 241.158683 97.363787 
L 241.36166 83.623533 
L 241.463148 81.994938 
L 241.666125 87.858176 
L 241.869102 81.219003 
L 241.97059 89.511066 
L 242.072078 87.465183 
L 242.173567 87.56295 
L 242.275055 95.183925 
L 242.376544 93.054488 
L 242.478032 98.221283 
L 242.57952 86.647691 
L 242.782497 88.768574 
L 242.985474 84.696556 
L 243.086962 90.493287 
L 243.188451 81.610213 
L 243.289939 95.012528 
L 243.391427 87.422636 
L 243.492916 87.869731 
L 243.594404 83.325798 
L 243.695892 89.862088 
L 243.797381 82.344158 
L 243.898869 88.676291 
L 244.000358 88.07619 
L 244.101846 88.342662 
L 244.304823 83.576122 
L 244.507799 94.582648 
L 244.609288 92.553799 
L 244.710776 87.053215 
L 244.812265 87.970111 
L 244.913753 87.247025 
L 245.015241 91.470412 
L 245.11673 84.159764 
L 245.319706 95.97445 
L 245.522683 85.513581 
L 245.72566 87.606704 
L 245.827148 87.176883 
L 245.928637 93.404878 
L 246.030125 80.950543 
L 246.131613 89.968341 
L 246.233102 81.341712 
L 246.33459 91.145877 
L 246.436079 83.836204 
L 246.740544 93.160185 
L 246.842032 82.836419 
L 247.045009 89.177106 
L 247.146497 82.946075 
L 247.247986 88.391218 
L 247.349474 78.180619 
L 247.552451 90.53481 
L 247.653939 82.412386 
L 247.755427 88.721326 
L 247.856916 79.362248 
L 248.059893 89.51622 
L 248.262869 87.281963 
L 248.364358 81.765608 
L 248.567334 89.846629 
L 248.668823 91.754983 
L 248.770311 85.613807 
L 248.973288 95.137378 
L 249.074776 94.082261 
L 249.277753 90.210165 
L 249.379241 84.559807 
L 249.48073 92.477845 
L 249.582218 83.943982 
L 249.683707 97.68184 
L 249.785195 77.078011 
L 249.886683 97.514015 
L 249.988172 88.931294 
L 250.191148 93.763262 
L 250.394125 84.940466 
L 250.495614 90.921129 
L 250.597102 84.285612 
L 250.800079 95.350111 
L 250.901567 90.632893 
L 251.003055 92.839485 
L 251.104544 88.107265 
L 251.206032 92.300228 
L 251.307521 90.77037 
L 251.409009 95.69686 
L 251.510497 85.325811 
L 251.713474 95.74181 
L 251.814962 77.899438 
L 251.916451 97.482873 
L 252.017939 88.244168 
L 252.119428 101.191627 
L 252.220916 89.286768 
L 252.322404 89.909373 
L 252.423893 92.078648 
L 252.525381 97.488654 
L 252.728358 94.879111 
L 252.829846 96.696123 
L 252.931335 95.644696 
L 253.032823 84.170222 
L 253.134311 89.255472 
L 253.2358 84.756311 
L 253.337288 96.006062 
L 253.438776 93.353174 
L 253.540265 99.703711 
L 253.743242 92.799383 
L 253.84473 93.46636 
L 253.946218 82.887114 
L 254.149195 92.838939 
L 254.250683 89.379245 
L 254.352172 91.510914 
L 254.45366 96.928364 
L 254.555149 94.752852 
L 254.656637 85.005487 
L 254.758125 85.506892 
L 254.859614 90.605412 
L 255.06259 83.99357 
L 255.164079 94.107714 
L 255.367056 90.98842 
L 255.468544 96.093659 
L 255.570032 89.983133 
L 255.671521 97.708369 
L 255.773009 91.729853 
L 255.874497 93.565252 
L 255.975986 90.232206 
L 256.077474 98.896415 
L 256.178963 94.909656 
L 256.280451 83.334263 
L 256.381939 93.127328 
L 256.483428 92.188548 
L 256.584916 95.795289 
L 256.787893 90.809155 
L 256.889381 94.984326 
L 257.193846 91.384147 
L 257.295335 87.3928 
L 257.396823 96.131982 
L 257.498311 89.045671 
L 257.5998 89.094714 
L 257.701288 91.793647 
L 257.802777 87.840914 
L 258.005753 92.631493 
L 258.20873 94.543982 
L 258.310218 94.297317 
L 258.411707 102.314312 
L 258.513195 90.464966 
L 258.716172 100.548464 
L 258.81766 88.80506 
L 258.919149 98.250256 
L 259.020637 89.426179 
L 259.122125 97.205282 
L 259.325102 84.53226 
L 259.426591 101.458114 
L 259.629567 89.213407 
L 259.832544 92.561598 
L 259.934032 89.541627 
L 260.137009 100.251725 
L 260.238498 97.544324 
L 260.339986 87.694651 
L 260.542963 101.641738 
L 260.644451 88.678519 
L 260.745939 96.786238 
L 260.847428 96.524308 
L 260.948916 101.133237 
L 261.151893 91.740414 
L 261.456358 103.757831 
L 261.659335 82.155994 
L 261.760823 92.792139 
L 261.862312 91.850012 
L 261.9638 94.124864 
L 262.065288 93.187544 
L 262.166777 96.046311 
L 262.268265 93.542561 
L 262.471242 101.046601 
L 262.57273 94.557851 
L 262.674219 94.664848 
L 262.775707 100.857817 
L 263.080172 91.856018 
L 263.283149 96.212493 
L 263.384637 103.140186 
L 263.689102 84.957471 
L 263.790591 93.466171 
L 263.993567 91.19969 
L 264.095056 104.514295 
L 264.196544 96.401679 
L 264.298033 96.663483 
L 264.399521 98.110588 
L 264.602498 88.116293 
L 264.703986 100.48798 
L 264.906963 94.0561 
L 265.10994 106.425637 
L 265.211428 97.28218 
L 265.414405 105.698627 
L 265.617381 88.518445 
L 265.820358 94.50035 
L 265.921847 94.457434 
L 266.023335 96.974585 
L 266.124823 94.473883 
L 266.3278 100.362228 
L 266.429288 90.604854 
L 266.530777 93.205234 
L 266.632265 84.028113 
L 266.835242 103.940711 
L 266.93673 90.51922 
L 267.038219 97.555798 
L 267.241195 87.405682 
L 267.342684 103.814918 
L 267.444172 101.370463 
L 267.545661 105.396376 
L 267.647149 98.045127 
L 267.748637 100.846683 
L 267.850126 106.785937 
L 268.053102 91.304012 
L 268.154591 102.23043 
L 268.256079 91.57053 
L 268.459056 97.990542 
L 268.560544 102.835363 
L 268.662033 100.036436 
L 268.763521 87.530045 
L 268.865009 99.740584 
L 268.966498 95.152746 
L 269.169475 103.30342 
L 269.372451 90.117545 
L 269.47394 92.985447 
L 269.575428 90.402739 
L 269.778405 98.28102 
L 269.879893 95.764455 
L 270.184358 106.152398 
L 270.285847 93.575817 
L 270.590312 107.420173 
L 270.6918 90.118683 
L 270.894777 96.918219 
L 270.996265 105.905131 
L 271.097754 100.141824 
L 271.199242 103.895225 
L 271.402219 100.047858 
L 271.605196 105.826401 
L 271.706684 95.568206 
L 271.808172 97.97873 
L 272.214126 91.330824 
L 272.620079 105.783833 
L 272.721568 96.745843 
L 272.823056 101.055356 
L 272.924544 90.037752 
L 273.026033 102.174465 
L 273.127521 98.429327 
L 273.22901 98.453391 
L 273.330498 106.993795 
L 273.431986 103.618338 
L 273.533475 109.56721 
L 273.634963 98.687564 
L 273.736451 99.15824 
L 273.83794 96.512755 
L 274.040917 105.318972 
L 274.243893 98.295293 
L 274.345382 105.571602 
L 274.548358 98.062583 
L 274.649847 96.5142 
L 274.751335 102.251745 
L 274.852824 100.14994 
L 274.954312 94.681406 
L 275.0558 104.04633 
L 275.157289 100.895448 
L 275.258777 91.064126 
L 275.360265 99.3347 
L 275.461754 96.29258 
L 275.563242 99.44521 
L 275.664731 96.078278 
L 275.969196 102.24492 
L 276.070684 102.234318 
L 276.172172 97.998907 
L 276.375149 101.351762 
L 276.578126 100.038111 
L 276.679614 93.857707 
L 276.781103 105.935399 
L 276.882591 96.293371 
L 276.984079 103.611402 
L 277.085568 103.21777 
L 277.187056 102.362259 
L 277.288545 108.237989 
L 277.491521 102.44307 
L 277.59301 104.717106 
L 277.694498 95.613 
L 277.795986 105.909783 
L 277.897475 102.782688 
L 277.998963 104.940247 
L 278.100452 96.022366 
L 278.20194 108.604408 
L 278.404917 96.42658 
L 278.506405 95.454941 
L 278.607893 101.449372 
L 278.709382 93.999933 
L 278.81087 106.996923 
L 279.115335 101.296807 
L 279.216824 112.801675 
L 279.4198 96.732099 
L 279.521289 104.121398 
L 279.622777 96.696543 
L 279.724266 100.051045 
L 279.825754 107.590991 
L 280.028731 105.416601 
L 280.231707 98.515141 
L 280.333196 99.860286 
L 280.434684 106.151975 
L 280.536173 102.656905 
L 280.637661 106.2126 
L 280.739149 95.651485 
L 280.840638 105.202053 
L 280.942126 103.717448 
L 281.043614 104.808785 
L 281.145103 109.282888 
L 281.34808 99.610502 
L 281.551056 111.654598 
L 281.652545 104.732427 
L 281.754033 107.207187 
L 281.95701 99.202395 
L 282.058498 107.297999 
L 282.261475 103.785766 
L 282.362963 110.955925 
L 282.464452 102.399647 
L 282.768917 110.750743 
L 282.971894 100.378651 
L 283.073382 102.018521 
L 283.17487 110.131013 
L 283.580824 97.344832 
L 283.682312 103.634012 
L 283.783801 99.524951 
L 283.885289 111.534616 
L 284.088266 97.173909 
L 284.189754 105.116567 
L 284.291242 98.315582 
L 284.392731 98.461678 
L 284.494219 102.038221 
L 284.595708 97.011613 
L 284.697196 106.557719 
L 284.798684 106.309861 
L 284.900173 97.884136 
L 285.103149 111.352908 
L 285.204638 105.263959 
L 285.306126 91.043565 
L 285.407615 116.936786 
L 285.509103 99.149812 
L 285.610591 108.044508 
L 285.813568 101.695037 
L 286.016545 113.307269 
L 286.219522 106.347129 
L 286.32101 114.052212 
L 286.422498 102.799321 
L 286.523987 103.156712 
L 286.726963 105.028255 
L 286.828452 112.535264 
L 287.132917 102.568946 
L 287.234405 105.721739 
L 287.335894 98.346996 
L 287.53887 106.235223 
L 287.640359 104.360957 
L 287.741847 98.792349 
L 287.843336 112.088041 
L 288.046312 108.429073 
L 288.249289 111.457806 
L 288.350777 103.994501 
L 288.452266 109.139014 
L 288.553754 104.027208 
L 288.756731 113.174405 
L 288.959708 98.482728 
L 289.061196 106.135178 
L 289.162684 104.741455 
L 289.264173 98.925127 
L 289.365661 104.907559 
L 289.46715 101.784097 
L 289.568638 104.015964 
L 289.670126 101.131835 
L 289.873103 106.16194 
L 289.974591 104.71349 
L 290.07608 114.223825 
L 290.177568 111.970906 
L 290.380545 100.982899 
L 290.583522 112.544004 
L 290.68501 102.180451 
L 290.887987 113.743427 
L 291.090964 103.872733 
L 291.192452 104.000116 
L 291.395429 110.840765 
L 291.496917 114.693113 
L 291.598405 101.083883 
L 291.699894 107.446316 
L 291.801382 100.953826 
L 291.902871 109.822458 
L 292.004359 100.349798 
L 292.105847 117.466185 
L 292.207336 107.926287 
L 292.308824 112.693567 
L 292.410312 111.737955 
L 292.511801 115.275774 
L 292.613289 112.022116 
L 292.714778 99.734056 
L 292.816266 111.729135 
L 292.917754 103.823882 
L 293.019243 118.534329 
L 293.120731 97.355048 
L 293.222219 109.282836 
L 293.425196 103.305908 
L 293.526685 112.114763 
L 293.628173 107.3395 
L 293.932638 116.966414 
L 294.135615 106.026263 
L 294.237103 105.192665 
L 294.338592 108.622243 
L 294.44008 107.776701 
L 294.541568 108.330844 
L 294.744545 117.350467 
L 294.846033 112.689205 
L 294.947522 117.749547 
L 295.150499 98.078487 
L 295.353475 111.572926 
L 295.454964 110.181576 
L 295.556452 104.734878 
L 295.65794 113.262555 
L 295.759429 109.764896 
L 295.860917 120.940879 
L 296.165382 107.526055 
L 296.266871 114.358085 
L 296.368359 107.708618 
L 296.469847 109.860381 
L 296.571336 101.809334 
L 296.774313 120.647191 
L 296.875801 122.716447 
L 297.078778 105.472844 
L 297.180266 110.188016 
L 297.281754 107.950104 
L 297.383243 111.419432 
L 297.484731 110.081245 
L 297.58622 118.580593 
L 297.687708 101.987702 
L 297.992173 120.957919 
L 298.093661 108.942212 
L 298.296638 112.982861 
L 298.398127 104.734924 
L 298.601103 115.865733 
L 298.702592 108.306994 
L 298.80408 108.92806 
L 298.905568 118.138527 
L 299.108545 102.525324 
L 299.311522 115.032886 
L 299.41301 115.659152 
L 299.615987 107.948708 
L 299.717475 117.659653 
L 299.920452 106.222674 
L 300.021941 111.01081 
L 300.123429 123.0437 
L 300.224917 108.701906 
L 300.326406 120.431045 
L 300.529382 107.774223 
L 300.630871 108.093265 
L 300.732359 125.408948 
L 300.935336 109.280005 
L 301.138313 120.33234 
L 301.341289 113.0863 
L 301.442778 121.381148 
L 301.544266 104.915062 
L 301.848731 116.854439 
L 301.95022 114.861045 
L 302.153196 118.23452 
L 302.356173 108.209756 
L 302.55915 115.629144 
L 302.762127 109.956041 
L 302.965103 120.502592 
L 303.066592 109.308585 
L 303.16808 120.504802 
L 303.269569 111.388027 
L 303.472545 118.400454 
L 303.574034 107.414107 
L 303.878499 112.134689 
L 303.979987 112.011219 
L 304.081476 119.109245 
L 304.182964 117.120053 
L 304.284452 122.381718 
L 304.487429 107.623382 
L 304.588917 116.450102 
L 304.690406 113.496299 
L 304.791894 117.26598 
L 304.893383 117.016284 
L 304.994871 116.430657 
L 305.096359 121.905394 
L 305.197848 109.381283 
L 305.299336 114.955066 
L 305.400824 110.283861 
L 305.806778 122.837348 
L 305.908266 111.406414 
L 306.212731 122.640238 
L 306.31422 118.193395 
L 306.415708 120.806281 
L 306.517197 114.849849 
L 306.618685 120.638214 
L 306.720173 105.682159 
L 307.024638 122.923207 
L 307.126127 116.328866 
L 307.227615 125.30577 
L 307.329104 110.759179 
L 307.430592 112.108502 
L 307.53208 108.979757 
L 307.633569 118.716906 
L 307.836545 109.434515 
L 308.039522 119.763125 
L 308.141011 109.7506 
L 308.242499 115.60921 
L 308.343987 114.304569 
L 308.445476 116.83246 
L 308.546964 122.487106 
L 308.648452 111.164487 
L 308.749941 126.355298 
L 308.851429 111.774477 
L 308.952918 117.993356 
L 309.054406 117.598081 
L 309.155894 119.31203 
L 309.257383 114.24039 
L 309.358871 114.8584 
L 309.460359 109.094007 
L 309.663336 117.855068 
L 309.764825 118.732157 
L 309.866313 116.56768 
L 309.967801 119.286591 
L 310.170778 110.589784 
L 310.272266 126.547727 
L 310.475243 122.275874 
L 310.576732 114.203337 
L 310.67822 121.757738 
L 310.881197 110.915379 
L 310.982685 113.863824 
L 311.185662 123.480828 
L 311.28715 130.622013 
L 311.388639 115.409238 
L 311.490127 123.888345 
L 311.693104 116.802822 
L 311.794592 124.293794 
L 311.89608 113.453448 
L 311.997569 123.064655 
L 312.099057 120.976752 
L 312.200546 123.865457 
L 312.302034 117.962635 
L 312.403522 121.458031 
L 312.505011 107.324411 
L 312.606499 121.450027 
L 312.707987 117.486451 
L 312.809476 119.788303 
L 312.910964 114.196283 
L 313.113941 125.637438 
L 313.316918 116.541675 
L 313.418406 124.895127 
L 313.621383 121.975611 
L 313.722871 117.611809 
L 313.82436 120.625124 
L 313.925848 129.830503 
L 314.128825 113.555772 
L 314.230313 116.030303 
L 314.331801 115.974506 
L 314.43329 119.451433 
L 314.534778 108.727113 
L 314.737755 120.437749 
L 314.839243 121.648855 
L 314.940732 121.339385 
L 315.04222 115.679374 
L 315.143708 129.575652 
L 315.245197 125.279129 
L 315.346685 112.829971 
L 315.549662 125.139693 
L 315.65115 120.545679 
L 315.752639 123.399611 
L 315.854127 118.41496 
L 315.955615 125.657047 
L 316.057104 112.678955 
L 316.158592 126.303248 
L 316.361569 119.791492 
L 316.463057 118.916815 
L 316.564546 120.446376 
L 316.666034 120.227575 
L 316.767522 120.584005 
L 316.869011 113.982775 
L 316.970499 120.94383 
L 317.071987 115.728058 
L 317.173476 123.968276 
L 317.274964 120.487664 
L 317.376453 121.150945 
L 317.477941 115.73365 
L 317.680918 124.002196 
L 317.883894 120.854033 
L 317.985383 130.955998 
L 318.18836 115.52475 
L 318.289848 122.165001 
L 318.391336 122.148214 
L 318.695801 112.713709 
L 318.898778 123.336709 
L 319.203243 116.699358 
L 319.304732 125.753207 
L 319.507708 112.944056 
L 319.609197 122.366326 
L 319.710685 121.519204 
L 319.913662 126.795762 
L 320.116639 117.947568 
L 320.218127 123.244544 
L 320.319615 116.503877 
L 320.421104 117.505225 
L 320.522592 123.70627 
L 320.624081 118.454532 
L 320.725569 122.652596 
L 320.827057 121.62374 
L 321.030034 110.379589 
L 321.131522 128.955007 
L 321.334499 116.692416 
L 321.537476 124.463677 
L 321.638964 114.375792 
L 321.740453 122.773072 
L 321.841941 118.719907 
L 322.044918 130.145439 
L 322.247895 119.400021 
L 322.450871 126.649024 
L 322.55236 112.865986 
L 322.755336 127.73783 
L 322.856825 116.693788 
L 322.958313 118.588765 
L 323.059802 125.768126 
L 323.262778 119.331993 
L 323.465755 122.613756 
L 323.567243 131.829176 
L 323.77022 123.630653 
L 323.871709 126.238316 
L 323.973197 125.185398 
L 324.074685 120.118822 
L 324.277662 131.793304 
L 324.480639 126.274138 
L 324.582127 124.512817 
L 324.683616 129.702598 
L 324.785104 125.320205 
L 324.886592 128.100475 
L 324.988081 120.140971 
L 325.089569 124.887155 
L 325.191057 121.350331 
L 325.292546 122.702807 
L 325.394034 130.291563 
L 325.597011 116.103868 
L 325.698499 132.000455 
L 325.799988 119.680881 
L 326.002964 131.648428 
L 326.205941 119.588124 
L 326.30743 124.775442 
L 326.408918 123.040405 
L 326.510406 115.762692 
L 326.611895 127.53771 
L 326.713383 115.823174 
L 326.814871 116.766808 
L 326.91636 131.147505 
L 327.017848 124.19047 
L 327.119337 124.507707 
L 327.220825 118.625043 
L 327.322313 119.269463 
L 327.423802 117.664986 
L 327.52529 132.830243 
L 327.626778 118.394825 
L 327.728267 122.34861 
L 327.829755 134.020764 
L 327.931244 118.834968 
L 328.032732 130.572712 
L 328.13422 121.531737 
L 328.235709 128.142025 
L 328.438685 123.253308 
L 328.641662 132.500314 
L 328.743151 124.049041 
L 328.844639 131.138893 
L 328.946127 122.982799 
L 329.047616 131.707273 
L 329.352081 116.055395 
L 329.453569 135.191215 
L 329.555058 124.344097 
L 329.656546 132.004738 
L 329.758034 123.645118 
L 329.859523 126.54311 
L 330.062499 119.24354 
L 330.163988 127.760042 
L 330.265476 126.236859 
L 330.366965 121.846248 
L 330.468453 128.814654 
L 330.67143 122.289952 
L 330.874406 133.797343 
L 331.077383 122.277575 
L 331.178872 133.828492 
L 331.28036 124.226074 
L 331.381848 128.407134 
L 331.483337 127.513233 
L 331.584825 121.741526 
L 331.787802 130.9431 
L 331.88929 126.912916 
L 332.092267 128.296865 
L 332.193755 121.282082 
L 332.396732 130.897419 
L 332.599709 124.062224 
L 332.802686 133.184537 
L 333.005662 115.603788 
L 333.208639 135.433622 
L 333.513104 124.909419 
L 333.614593 130.930878 
L 333.716081 117.153926 
L 333.919058 126.087433 
L 334.020546 121.662935 
L 334.122034 126.591374 
L 334.223523 137.316984 
L 334.325011 129.766401 
L 334.4265 130.99216 
L 334.629476 127.435267 
L 334.730965 124.681576 
L 334.933941 131.80828 
L 335.136918 125.411885 
L 335.238407 125.572288 
L 335.339895 125.375595 
L 335.441383 122.956124 
L 335.542872 130.103056 
L 335.64436 122.987548 
L 335.847337 127.719429 
L 335.948825 119.818943 
L 336.151802 132.308302 
L 336.25329 121.567141 
L 336.354779 128.904522 
L 336.456267 123.387939 
L 336.557755 126.844247 
L 336.659244 137.278295 
L 336.862221 125.874231 
L 336.963709 129.283706 
L 337.268174 121.944985 
L 337.369662 125.269315 
L 337.471151 133.218644 
L 337.572639 128.577538 
L 337.674128 132.66758 
L 338.080081 128.307925 
L 338.181569 119.351105 
L 338.283058 128.264883 
L 338.384546 120.887012 
L 338.486035 129.606753 
L 338.587523 125.871035 
L 338.689011 131.339876 
L 338.7905 129.487398 
L 338.891988 133.165396 
L 338.993476 126.395412 
L 339.094965 133.547654 
L 339.39943 127.801242 
L 339.500918 127.406754 
L 339.805383 140.983099 
L 340.00836 133.31585 
L 340.109849 133.530934 
L 340.211337 134.289045 
L 340.312825 128.036192 
L 340.414314 131.62994 
L 340.515802 131.004005 
L 340.61729 134.180242 
L 340.718779 122.53576 
L 340.921756 141.86039 
L 341.023244 134.294713 
L 341.226221 137.388605 
L 341.429197 119.188476 
L 341.530686 136.577935 
L 341.632174 132.79938 
L 341.733663 134.609349 
L 341.835151 141.313018 
L 341.936639 125.362485 
L 342.038128 135.525087 
L 342.241104 124.634708 
L 342.54557 144.458694 
L 342.748546 120.848498 
L 342.850035 133.422958 
L 342.951523 129.035775 
L 343.1545 134.292523 
L 343.255988 123.974874 
L 343.458965 131.411384 
L 343.560453 130.89455 
L 343.661942 130.95605 
L 343.76343 139.385258 
L 343.966407 123.364607 
L 344.169384 134.4632 
L 344.37236 125.733682 
L 344.473849 130.254587 
L 344.575337 119.839475 
L 344.778314 130.797194 
L 344.981291 140.128255 
L 345.082779 127.11678 
L 345.285756 135.862659 
L 345.387244 129.479996 
L 345.488732 135.209741 
L 345.590221 128.871547 
L 345.793198 135.378253 
L 345.894686 131.150113 
L 345.996174 139.567072 
L 346.097663 130.346102 
L 346.199151 134.988933 
L 346.300639 132.724168 
L 346.402128 126.620502 
L 346.605105 135.821857 
L 346.706593 127.929863 
L 346.808081 132.953946 
L 346.90957 126.957043 
L 347.011058 136.412763 
L 347.112546 134.285364 
L 347.315523 139.307963 
L 347.417012 132.168874 
L 347.619988 136.616685 
L 347.721477 132.411706 
L 347.822965 138.226363 
L 347.924453 133.535502 
L 348.025942 135.71595 
L 348.12743 124.335894 
L 348.330407 139.859861 
L 348.533384 132.618595 
L 348.634872 137.64499 
L 348.73636 136.119467 
L 348.837849 139.641918 
L 348.939337 137.607632 
L 349.142314 129.302097 
L 349.243802 131.705396 
L 349.345291 129.007313 
L 349.446779 134.082169 
L 349.548267 130.617607 
L 349.751244 133.909335 
L 349.852733 145.624002 
L 350.055709 129.458918 
L 350.157198 137.844203 
L 350.258686 125.205458 
L 350.360174 130.030622 
L 350.563151 125.576077 
L 350.66464 144.283728 
L 350.766128 129.543634 
L 350.867616 133.007723 
L 350.969105 128.52732 
L 351.070593 129.549317 
L 351.27357 139.106287 
L 351.375058 139.189258 
L 351.476547 133.603123 
L 351.679523 139.104332 
L 351.781012 137.488725 
L 351.8825 132.986803 
L 351.983988 138.473205 
L 352.085477 129.569096 
L 352.186965 138.447874 
L 352.288454 128.099184 
L 352.389942 139.677936 
L 352.592919 134.317847 
L 352.694407 139.504971 
L 352.795895 138.43395 
L 352.897384 133.726622 
L 353.100361 137.731195 
L 353.201849 137.039261 
L 353.303337 134.17733 
L 353.404826 139.15187 
L 353.506314 127.093293 
L 353.607802 144.267821 
L 353.709291 135.012321 
L 353.912268 136.99217 
L 354.013756 142.077514 
L 354.115244 132.34569 
L 354.216733 143.45288 
L 354.318221 132.888365 
L 354.622686 141.6922 
L 354.724175 139.035156 
L 354.825663 146.945932 
L 354.927151 132.636841 
L 355.02864 134.986334 
L 355.130128 133.211556 
L 355.231616 141.52648 
L 355.63757 130.542099 
L 355.840547 134.299411 
L 355.942035 135.291882 
L 356.043523 129.20392 
L 356.2465 139.182011 
L 356.347989 136.036329 
L 356.449477 136.315023 
L 356.550965 137.345115 
L 356.652454 131.952684 
L 356.85543 138.706406 
L 356.956919 125.877717 
L 357.058407 139.088365 
L 357.159896 133.525405 
L 357.261384 140.521589 
L 357.464361 138.169875 
L 357.565849 127.522574 
L 357.667337 136.022239 
L 357.768826 135.664465 
L 357.870314 143.559191 
L 357.971803 135.539571 
L 358.073291 141.651799 
L 358.174779 139.974828 
L 358.276268 134.595463 
L 358.377756 139.050856 
L 358.479244 129.494601 
L 358.580733 130.597546 
L 358.78371 136.557297 
L 358.885198 137.814902 
L 359.088175 134.735475 
L 359.291151 142.698345 
L 359.39264 135.865304 
L 359.494128 136.284134 
L 359.595617 140.429055 
L 359.697105 137.467452 
L 359.798593 141.184004 
L 359.900082 134.358163 
L 360.00157 136.543568 
L 360.103058 136.442607 
L 360.204547 133.867048 
L 360.306035 126.811113 
L 360.407524 137.242706 
L 360.6105 132.250148 
L 360.711989 137.982397 
L 360.914965 131.534011 
L 361.016454 137.568661 
L 361.117942 123.929602 
L 361.219431 146.136058 
L 361.320919 141.459371 
L 361.422407 143.38656 
L 361.523896 132.238674 
L 361.726872 141.472745 
L 361.828361 134.026893 
L 361.929849 139.327585 
L 362.031338 125.242165 
L 362.132826 140.418375 
L 362.234314 132.752071 
L 362.335803 142.912435 
L 362.437291 135.473893 
L 362.741756 148.07946 
L 362.944733 133.492766 
L 363.14771 145.143316 
L 363.249198 131.515894 
L 363.350686 136.311145 
L 363.452175 134.615343 
L 363.553663 136.266085 
L 363.655152 126.199598 
L 363.858128 142.389293 
L 363.959617 133.334351 
L 364.061105 149.130937 
L 364.162593 137.221453 
L 364.264082 140.475831 
L 364.36557 132.477583 
L 364.568547 142.388513 
L 364.670035 138.09781 
L 364.771524 145.122346 
L 364.873012 129.905545 
L 364.9745 139.974075 
L 365.075989 135.565122 
L 365.177477 141.96536 
L 365.278966 136.831587 
L 365.380454 139.390804 
L 365.481942 129.708274 
L 365.583431 146.159567 
L 365.684919 141.075873 
L 365.786407 141.568781 
L 365.887896 145.088502 
L 366.090873 135.076413 
L 366.192361 142.748187 
L 366.395338 137.096871 
L 366.496826 136.666296 
L 366.699803 151.040186 
L 366.90278 129.444476 
L 367.105756 144.588423 
L 367.207245 138.550433 
L 367.308733 139.530332 
L 367.410221 142.914677 
L 367.51171 139.700165 
L 367.613198 140.450906 
L 367.816175 137.58004 
L 367.917663 144.977459 
L 368.019152 136.412779 
L 368.222128 142.918877 
L 368.323617 134.814066 
L 368.526594 141.662424 
L 368.628082 141.223194 
L 368.72957 137.427278 
L 368.831059 139.127952 
L 368.932547 136.770867 
L 369.034035 148.895689 
L 369.135524 134.638223 
L 369.237012 140.536613 
L 369.439989 133.436251 
L 369.541477 133.59848 
L 369.642966 146.881528 
L 369.744454 135.370986 
L 369.845942 139.026095 
L 369.947431 135.350041 
L 370.048919 147.990572 
L 370.150408 145.179894 
L 370.251896 139.181054 
L 370.353384 144.797548 
L 370.454873 142.3484 
L 370.657849 129.762068 
L 370.759338 141.482384 
L 370.860826 135.992637 
L 370.962315 139.801276 
L 371.063803 136.11094 
L 371.165291 138.109756 
L 371.26678 146.695584 
L 371.368268 134.507915 
L 371.571245 147.081048 
L 371.672733 135.034469 
L 371.774222 142.479282 
L 371.87571 136.812742 
L 371.977198 138.283864 
L 372.180175 148.701959 
L 372.281663 132.502986 
L 372.383152 137.671249 
L 372.48464 133.969725 
L 372.586129 141.94761 
L 372.789105 132.860245 
L 372.992082 142.489573 
L 373.09357 140.769949 
L 373.195059 141.428978 
L 373.296547 154.128639 
L 373.499524 139.975122 
L 373.601012 139.939932 
L 373.702501 140.14626 
L 373.803989 142.871027 
L 373.905477 151.267098 
L 374.108454 140.464849 
L 374.209943 145.910399 
L 374.311431 139.848549 
L 374.412919 140.341571 
L 374.514408 144.220825 
L 374.615896 142.232847 
L 374.717384 137.618181 
L 374.818873 140.273877 
L 374.920361 146.217796 
L 375.02185 134.172228 
L 375.123338 136.159419 
L 375.224826 145.74587 
L 375.326315 145.29688 
L 375.427803 144.914138 
L 375.63078 138.631384 
L 375.732268 139.088775 
L 375.833757 138.519886 
L 375.935245 148.197618 
L 376.036733 144.726377 
L 376.138222 151.278851 
L 376.341198 137.18868 
L 376.442687 136.830888 
L 376.544175 144.08343 
L 376.84864 134.901809 
L 376.950129 151.498038 
L 377.051617 138.696216 
L 377.254594 144.032633 
L 377.356082 139.317202 
L 377.457571 140.306653 
L 377.559059 146.521844 
L 377.660547 139.919486 
L 377.762036 140.513752 
L 377.863524 134.52109 
L 377.965012 141.317173 
L 378.066501 138.758601 
L 378.167989 149.736919 
L 378.269478 144.796406 
L 378.370966 147.324208 
L 378.573943 134.42794 
L 378.675431 151.04161 
L 378.878408 142.975623 
L 378.979896 145.226395 
L 379.081385 136.105415 
L 379.284361 137.967803 
L 379.38585 144.35331 
L 379.487338 143.420724 
L 379.588826 140.406257 
L 379.690315 142.271935 
L 379.791803 146.944623 
L 379.893292 139.41019 
L 379.99478 153.236913 
L 380.197757 134.725099 
L 380.299245 141.379976 
L 380.400733 138.905924 
L 380.60371 148.205068 
L 380.705199 136.696738 
L 380.806687 147.494211 
L 380.908175 132.566219 
L 381.009664 145.001741 
L 381.111152 143.011891 
L 381.21264 143.312649 
L 381.314129 141.386605 
L 381.415617 146.185338 
L 381.517106 145.005093 
L 381.618594 137.585938 
L 381.720082 150.385654 
L 381.821571 146.791317 
L 381.923059 147.802309 
L 382.126036 143.243304 
L 382.227524 144.596067 
L 382.430501 139.035753 
L 382.531989 139.812393 
L 382.633478 144.514462 
L 382.734966 142.612005 
L 382.836454 147.945916 
L 382.937943 137.377184 
L 383.039431 142.913646 
L 383.14092 155.602405 
L 383.242408 145.51834 
L 383.343896 148.246627 
L 383.445385 139.113725 
L 383.648361 147.211771 
L 383.74985 146.403871 
L 383.851338 152.470801 
L 383.952827 151.08072 
L 384.054315 141.461972 
L 384.155803 147.924011 
L 384.257292 138.437024 
L 384.35878 149.154803 
L 384.460268 143.823365 
L 384.663245 149.723977 
L 384.764734 143.511614 
L 384.866222 147.358865 
L 385.069199 142.167768 
L 385.170687 148.588062 
L 385.272175 132.408945 
L 385.373664 147.179735 
L 385.475152 140.564081 
L 385.576641 144.766002 
L 385.779617 143.598732 
L 385.881106 147.91833 
L 386.084082 144.394918 
L 386.185571 143.72526 
L 386.287059 146.403661 
L 386.388548 144.738697 
L 386.490036 150.79741 
L 386.591524 146.027779 
L 386.693013 147.5247 
L 386.895989 142.88589 
L 386.997478 144.662305 
L 387.098966 136.222887 
L 387.200455 151.295439 
L 387.301943 139.049144 
L 387.50492 144.83189 
L 387.606408 153.998459 
L 387.707896 142.690329 
L 387.809385 146.704458 
L 387.910873 143.810786 
L 388.012362 151.78208 
L 388.316827 138.369729 
L 388.519803 154.282429 
L 388.72278 137.885247 
L 388.925757 148.760725 
L 389.027245 143.619998 
L 389.128734 152.005313 
L 389.230222 144.517356 
L 389.433199 146.513349 
L 389.534687 146.294195 
L 389.636176 148.57294 
L 389.737664 147.829086 
L 389.839152 148.94626 
L 389.940641 144.093651 
L 390.042129 145.065581 
L 390.143617 147.77242 
L 390.448083 136.974589 
L 390.752548 150.631853 
L 390.854036 144.345287 
L 390.955524 151.336206 
L 391.057013 142.436053 
L 391.158501 147.159449 
L 391.25999 139.781842 
L 391.361478 150.942181 
L 391.564455 144.735021 
L 391.665943 148.780117 
L 391.86892 132.141915 
L 392.173385 151.128242 
L 392.376362 146.69261 
L 392.47785 148.149534 
L 392.579338 152.393144 
L 392.680827 143.477286 
L 392.782315 148.356712 
L 392.883804 144.545143 
L 392.985292 134.179013 
L 393.08678 155.106542 
L 393.289757 145.819024 
L 393.492734 146.453637 
L 393.594222 145.029018 
L 393.695711 151.684587 
L 393.797199 146.251253 
L 394.000176 151.506078 
L 394.101664 147.936749 
L 394.304641 158.863659 
L 394.406129 145.368698 
L 394.507618 148.686871 
L 394.812083 139.840827 
L 395.116548 146.525684 
L 395.218036 139.994203 
L 395.319525 150.530414 
L 395.421013 148.504488 
L 395.522501 152.984108 
L 395.62399 144.87037 
L 395.725478 149.193618 
L 395.826966 144.713837 
L 395.928455 145.250875 
L 396.029943 136.786136 
L 396.029943 136.786136 
" style="fill:none;stroke:#1f77b4;stroke-linecap:square;stroke-width:1.5;"/>
   </g>
   <g id="matplotlib.axis_1">
    <g id="xtick_1">
     <g id="line2d_2">
      <defs>
       <path d="M 0 0 
L 0 3.5 
" id="m1c6394436f" style="stroke:#000000;stroke-width:0.8;"/>
      </defs>
      <g>
       <use style="stroke:#000000;stroke-width:0.8;" x="91.666307" xlink:href="#m1c6394436f" y="254.83575"/>
      </g>
     </g>
     <g id="text_1">
      <!-- 0 -->
      <g transform="translate(83.395057 281.591688)scale(0.26 -0.26)">
       <defs>
        <path d="M 31.78125 66.40625 
Q 24.171875 66.40625 20.328125 58.90625 
Q 16.5 51.421875 16.5 36.375 
Q 16.5 21.390625 20.328125 13.890625 
Q 24.171875 6.390625 31.78125 6.390625 
Q 39.453125 6.390625 43.28125 13.890625 
Q 47.125 21.390625 47.125 36.375 
Q 47.125 51.421875 43.28125 58.90625 
Q 39.453125 66.40625 31.78125 66.40625 
z
M 31.78125 74.21875 
Q 44.046875 74.21875 50.515625 64.515625 
Q 56.984375 54.828125 56.984375 36.375 
Q 56.984375 17.96875 50.515625 8.265625 
Q 44.046875 -1.421875 31.78125 -1.421875 
Q 19.53125 -1.421875 13.0625 8.265625 
Q 6.59375 17.96875 6.59375 36.375 
Q 6.59375 54.828125 13.0625 64.515625 
Q 19.53125 74.21875 31.78125 74.21875 
z
" id="DejaVuSans-48"/>
       </defs>
       <use xlink:href="#DejaVuSans-48"/>
      </g>
     </g>
    </g>
    <g id="xtick_2">
     <g id="line2d_3">
      <g>
       <use style="stroke:#000000;stroke-width:0.8;" x="193.154682" xlink:href="#m1c6394436f" y="254.83575"/>
      </g>
     </g>
     <g id="text_2">
      <!-- 1 -->
      <g transform="translate(184.883432 281.591688)scale(0.26 -0.26)">
       <defs>
        <path d="M 12.40625 8.296875 
L 28.515625 8.296875 
L 28.515625 63.921875 
L 10.984375 60.40625 
L 10.984375 69.390625 
L 28.421875 72.90625 
L 38.28125 72.90625 
L 38.28125 8.296875 
L 54.390625 8.296875 
L 54.390625 0 
L 12.40625 0 
z
" id="DejaVuSans-49"/>
       </defs>
       <use xlink:href="#DejaVuSans-49"/>
      </g>
     </g>
    </g>
    <g id="xtick_3">
     <g id="line2d_4">
      <g>
       <use style="stroke:#000000;stroke-width:0.8;" x="294.643057" xlink:href="#m1c6394436f" y="254.83575"/>
      </g>
     </g>
     <g id="text_3">
      <!-- 2 -->
      <g transform="translate(286.371807 281.591688)scale(0.26 -0.26)">
       <defs>
        <path d="M 19.1875 8.296875 
L 53.609375 8.296875 
L 53.609375 0 
L 7.328125 0 
L 7.328125 8.296875 
Q 12.9375 14.109375 22.625 23.890625 
Q 32.328125 33.6875 34.8125 36.53125 
Q 39.546875 41.84375 41.421875 45.53125 
Q 43.3125 49.21875 43.3125 52.78125 
Q 43.3125 58.59375 39.234375 62.25 
Q 35.15625 65.921875 28.609375 65.921875 
Q 23.96875 65.921875 18.8125 64.3125 
Q 13.671875 62.703125 7.8125 59.421875 
L 7.8125 69.390625 
Q 13.765625 71.78125 18.9375 73 
Q 24.125 74.21875 28.421875 74.21875 
Q 39.75 74.21875 46.484375 68.546875 
Q 53.21875 62.890625 53.21875 53.421875 
Q 53.21875 48.921875 51.53125 44.890625 
Q 49.859375 40.875 45.40625 35.40625 
Q 44.1875 33.984375 37.640625 27.21875 
Q 31.109375 20.453125 19.1875 8.296875 
z
" id="DejaVuSans-50"/>
       </defs>
       <use xlink:href="#DejaVuSans-50"/>
      </g>
     </g>
    </g>
    <g id="xtick_4">
     <g id="line2d_5">
      <g>
       <use style="stroke:#000000;stroke-width:0.8;" x="396.131432" xlink:href="#m1c6394436f" y="254.83575"/>
      </g>
     </g>
     <g id="text_4">
      <!-- 3 -->
      <g transform="translate(387.860182 281.591688)scale(0.26 -0.26)">
       <defs>
        <path d="M 40.578125 39.3125 
Q 47.65625 37.796875 51.625 33 
Q 55.609375 28.21875 55.609375 21.1875 
Q 55.609375 10.40625 48.1875 4.484375 
Q 40.765625 -1.421875 27.09375 -1.421875 
Q 22.515625 -1.421875 17.65625 -0.515625 
Q 12.796875 0.390625 7.625 2.203125 
L 7.625 11.71875 
Q 11.71875 9.328125 16.59375 8.109375 
Q 21.484375 6.890625 26.8125 6.890625 
Q 36.078125 6.890625 40.9375 10.546875 
Q 45.796875 14.203125 45.796875 21.1875 
Q 45.796875 27.640625 41.28125 31.265625 
Q 36.765625 34.90625 28.71875 34.90625 
L 20.21875 34.90625 
L 20.21875 43.015625 
L 29.109375 43.015625 
Q 36.375 43.015625 40.234375 45.921875 
Q 44.09375 48.828125 44.09375 54.296875 
Q 44.09375 59.90625 40.109375 62.90625 
Q 36.140625 65.921875 28.71875 65.921875 
Q 24.65625 65.921875 20.015625 65.03125 
Q 15.375 64.15625 9.8125 62.3125 
L 9.8125 71.09375 
Q 15.4375 72.65625 20.34375 73.4375 
Q 25.25 74.21875 29.59375 74.21875 
Q 40.828125 74.21875 47.359375 69.109375 
Q 53.90625 64.015625 53.90625 55.328125 
Q 53.90625 49.265625 50.4375 45.09375 
Q 46.96875 40.921875 40.578125 39.3125 
z
" id="DejaVuSans-51"/>
       </defs>
       <use xlink:href="#DejaVuSans-51"/>
      </g>
     </g>
    </g>
    <g id="text_5">
     <!-- time (s) -->
     <g transform="translate(193.430469 310.754813)scale(0.26 -0.26)">
      <defs>
       <path d="M 18.3125 70.21875 
L 18.3125 54.6875 
L 36.8125 54.6875 
L 36.8125 47.703125 
L 18.3125 47.703125 
L 18.3125 18.015625 
Q 18.3125 11.328125 20.140625 9.421875 
Q 21.96875 7.515625 27.59375 7.515625 
L 36.8125 7.515625 
L 36.8125 0 
L 27.59375 0 
Q 17.1875 0 13.234375 3.875 
Q 9.28125 7.765625 9.28125 18.015625 
L 9.28125 47.703125 
L 2.6875 47.703125 
L 2.6875 54.6875 
L 9.28125 54.6875 
L 9.28125 70.21875 
z
" id="DejaVuSans-116"/>
       <path d="M 9.421875 54.6875 
L 18.40625 54.6875 
L 18.40625 0 
L 9.421875 0 
z
M 9.421875 75.984375 
L 18.40625 75.984375 
L 18.40625 64.59375 
L 9.421875 64.59375 
z
" id="DejaVuSans-105"/>
       <path d="M 52 44.1875 
Q 55.375 50.25 60.0625 53.125 
Q 64.75 56 71.09375 56 
Q 79.640625 56 84.28125 50.015625 
Q 88.921875 44.046875 88.921875 33.015625 
L 88.921875 0 
L 79.890625 0 
L 79.890625 32.71875 
Q 79.890625 40.578125 77.09375 44.375 
Q 74.3125 48.1875 68.609375 48.1875 
Q 61.625 48.1875 57.5625 43.546875 
Q 53.515625 38.921875 53.515625 30.90625 
L 53.515625 0 
L 44.484375 0 
L 44.484375 32.71875 
Q 44.484375 40.625 41.703125 44.40625 
Q 38.921875 48.1875 33.109375 48.1875 
Q 26.21875 48.1875 22.15625 43.53125 
Q 18.109375 38.875 18.109375 30.90625 
L 18.109375 0 
L 9.078125 0 
L 9.078125 54.6875 
L 18.109375 54.6875 
L 18.109375 46.1875 
Q 21.1875 51.21875 25.484375 53.609375 
Q 29.78125 56 35.6875 56 
Q 41.65625 56 45.828125 52.96875 
Q 50 49.953125 52 44.1875 
z
" id="DejaVuSans-109"/>
       <path d="M 56.203125 29.59375 
L 56.203125 25.203125 
L 14.890625 25.203125 
Q 15.484375 15.921875 20.484375 11.0625 
Q 25.484375 6.203125 34.421875 6.203125 
Q 39.59375 6.203125 44.453125 7.46875 
Q 49.3125 8.734375 54.109375 11.28125 
L 54.109375 2.78125 
Q 49.265625 0.734375 44.1875 -0.34375 
Q 39.109375 -1.421875 33.890625 -1.421875 
Q 20.796875 -1.421875 13.15625 6.1875 
Q 5.515625 13.8125 5.515625 26.8125 
Q 5.515625 40.234375 12.765625 48.109375 
Q 20.015625 56 32.328125 56 
Q 43.359375 56 49.78125 48.890625 
Q 56.203125 41.796875 56.203125 29.59375 
z
M 47.21875 32.234375 
Q 47.125 39.59375 43.09375 43.984375 
Q 39.0625 48.390625 32.421875 48.390625 
Q 24.90625 48.390625 20.390625 44.140625 
Q 15.875 39.890625 15.1875 32.171875 
z
" id="DejaVuSans-101"/>
       <path id="DejaVuSans-32"/>
       <path d="M 31 75.875 
Q 24.46875 64.65625 21.28125 53.65625 
Q 18.109375 42.671875 18.109375 31.390625 
Q 18.109375 20.125 21.3125 9.0625 
Q 24.515625 -2 31 -13.1875 
L 23.1875 -13.1875 
Q 15.875 -1.703125 12.234375 9.375 
Q 8.59375 20.453125 8.59375 31.390625 
Q 8.59375 42.28125 12.203125 53.3125 
Q 15.828125 64.359375 23.1875 75.875 
z
" id="DejaVuSans-40"/>
       <path d="M 44.28125 53.078125 
L 44.28125 44.578125 
Q 40.484375 46.53125 36.375 47.5 
Q 32.28125 48.484375 27.875 48.484375 
Q 21.1875 48.484375 17.84375 46.4375 
Q 14.5 44.390625 14.5 40.28125 
Q 14.5 37.15625 16.890625 35.375 
Q 19.28125 33.59375 26.515625 31.984375 
L 29.59375 31.296875 
Q 39.15625 29.25 43.1875 25.515625 
Q 47.21875 21.78125 47.21875 15.09375 
Q 47.21875 7.46875 41.1875 3.015625 
Q 35.15625 -1.421875 24.609375 -1.421875 
Q 20.21875 -1.421875 15.453125 -0.5625 
Q 10.6875 0.296875 5.421875 2 
L 5.421875 11.28125 
Q 10.40625 8.6875 15.234375 7.390625 
Q 20.0625 6.109375 24.8125 6.109375 
Q 31.15625 6.109375 34.5625 8.28125 
Q 37.984375 10.453125 37.984375 14.40625 
Q 37.984375 18.0625 35.515625 20.015625 
Q 33.0625 21.96875 24.703125 23.78125 
L 21.578125 24.515625 
Q 13.234375 26.265625 9.515625 29.90625 
Q 5.8125 33.546875 5.8125 39.890625 
Q 5.8125 47.609375 11.28125 51.796875 
Q 16.75 56 26.8125 56 
Q 31.78125 56 36.171875 55.265625 
Q 40.578125 54.546875 44.28125 53.078125 
z
" id="DejaVuSans-115"/>
       <path d="M 8.015625 75.875 
L 15.828125 75.875 
Q 23.140625 64.359375 26.78125 53.3125 
Q 30.421875 42.28125 30.421875 31.390625 
Q 30.421875 20.453125 26.78125 9.375 
Q 23.140625 -1.703125 15.828125 -13.1875 
L 8.015625 -13.1875 
Q 14.5 -2 17.703125 9.0625 
Q 20.90625 20.125 20.90625 31.390625 
Q 20.90625 42.671875 17.703125 53.65625 
Q 14.5 64.65625 8.015625 75.875 
z
" id="DejaVuSans-41"/>
      </defs>
      <use xlink:href="#DejaVuSans-116"/>
      <use x="39.208984" xlink:href="#DejaVuSans-105"/>
      <use x="66.992188" xlink:href="#DejaVuSans-109"/>
      <use x="164.404297" xlink:href="#DejaVuSans-101"/>
      <use x="225.927734" xlink:href="#DejaVuSans-32"/>
      <use x="257.714844" xlink:href="#DejaVuSans-40"/>
      <use x="296.728516" xlink:href="#DejaVuSans-115"/>
      <use x="348.828125" xlink:href="#DejaVuSans-41"/>
     </g>
    </g>
   </g>
   <g id="matplotlib.axis_2">
    <g id="ytick_1">
     <g id="line2d_6">
      <defs>
       <path d="M 0 0 
L -3.5 0 
" id="mc8649ea1cd" style="stroke:#000000;stroke-width:0.8;"/>
      </defs>
      <g>
       <use style="stroke:#000000;stroke-width:0.8;" x="76.448125" xlink:href="#mc8649ea1cd" y="254.83575"/>
      </g>
     </g>
     <g id="text_6">
      <!-- 18 -->
      <g transform="translate(36.363125 264.713719)scale(0.26 -0.26)">
       <defs>
        <path d="M 31.78125 34.625 
Q 24.75 34.625 20.71875 30.859375 
Q 16.703125 27.09375 16.703125 20.515625 
Q 16.703125 13.921875 20.71875 10.15625 
Q 24.75 6.390625 31.78125 6.390625 
Q 38.8125 6.390625 42.859375 10.171875 
Q 46.921875 13.96875 46.921875 20.515625 
Q 46.921875 27.09375 42.890625 30.859375 
Q 38.875 34.625 31.78125 34.625 
z
M 21.921875 38.8125 
Q 15.578125 40.375 12.03125 44.71875 
Q 8.5 49.078125 8.5 55.328125 
Q 8.5 64.0625 14.71875 69.140625 
Q 20.953125 74.21875 31.78125 74.21875 
Q 42.671875 74.21875 48.875 69.140625 
Q 55.078125 64.0625 55.078125 55.328125 
Q 55.078125 49.078125 51.53125 44.71875 
Q 48 40.375 41.703125 38.8125 
Q 48.828125 37.15625 52.796875 32.3125 
Q 56.78125 27.484375 56.78125 20.515625 
Q 56.78125 9.90625 50.3125 4.234375 
Q 43.84375 -1.421875 31.78125 -1.421875 
Q 19.734375 -1.421875 13.25 4.234375 
Q 6.78125 9.90625 6.78125 20.515625 
Q 6.78125 27.484375 10.78125 32.3125 
Q 14.796875 37.15625 21.921875 38.8125 
z
M 18.3125 54.390625 
Q 18.3125 48.734375 21.84375 45.5625 
Q 25.390625 42.390625 31.78125 42.390625 
Q 38.140625 42.390625 41.71875 45.5625 
Q 45.3125 48.734375 45.3125 54.390625 
Q 45.3125 60.0625 41.71875 63.234375 
Q 38.140625 66.40625 31.78125 66.40625 
Q 25.390625 66.40625 21.84375 63.234375 
Q 18.3125 60.0625 18.3125 54.390625 
z
" id="DejaVuSans-56"/>
       </defs>
       <use xlink:href="#DejaVuSans-49"/>
       <use x="63.623047" xlink:href="#DejaVuSans-56"/>
      </g>
     </g>
    </g>
    <g id="ytick_2">
     <g id="line2d_7">
      <g>
       <use style="stroke:#000000;stroke-width:0.8;" x="76.448125" xlink:href="#mc8649ea1cd" y="158.19575"/>
      </g>
     </g>
     <g id="text_7">
      <!-- 20 -->
      <g transform="translate(36.363125 168.073719)scale(0.26 -0.26)">
       <use xlink:href="#DejaVuSans-50"/>
       <use x="63.623047" xlink:href="#DejaVuSans-48"/>
      </g>
     </g>
    </g>
    <g id="ytick_3">
     <g id="line2d_8">
      <g>
       <use style="stroke:#000000;stroke-width:0.8;" x="76.448125" xlink:href="#mc8649ea1cd" y="61.55575"/>
      </g>
     </g>
     <g id="text_8">
      <!-- 22 -->
      <g transform="translate(36.363125 71.433719)scale(0.26 -0.26)">
       <use xlink:href="#DejaVuSans-50"/>
       <use x="63.623047" xlink:href="#DejaVuSans-50"/>
      </g>
     </g>
    </g>
    <g id="text_9">
     <!-- amplitude (a.u.) -->
     <g transform="translate(26.955937 250.552469)rotate(-90)scale(0.26 -0.26)">
      <defs>
       <path d="M 34.28125 27.484375 
Q 23.390625 27.484375 19.1875 25 
Q 14.984375 22.515625 14.984375 16.5 
Q 14.984375 11.71875 18.140625 8.90625 
Q 21.296875 6.109375 26.703125 6.109375 
Q 34.1875 6.109375 38.703125 11.40625 
Q 43.21875 16.703125 43.21875 25.484375 
L 43.21875 27.484375 
z
M 52.203125 31.203125 
L 52.203125 0 
L 43.21875 0 
L 43.21875 8.296875 
Q 40.140625 3.328125 35.546875 0.953125 
Q 30.953125 -1.421875 24.3125 -1.421875 
Q 15.921875 -1.421875 10.953125 3.296875 
Q 6 8.015625 6 15.921875 
Q 6 25.140625 12.171875 29.828125 
Q 18.359375 34.515625 30.609375 34.515625 
L 43.21875 34.515625 
L 43.21875 35.40625 
Q 43.21875 41.609375 39.140625 45 
Q 35.0625 48.390625 27.6875 48.390625 
Q 23 48.390625 18.546875 47.265625 
Q 14.109375 46.140625 10.015625 43.890625 
L 10.015625 52.203125 
Q 14.9375 54.109375 19.578125 55.046875 
Q 24.21875 56 28.609375 56 
Q 40.484375 56 46.34375 49.84375 
Q 52.203125 43.703125 52.203125 31.203125 
z
" id="DejaVuSans-97"/>
       <path d="M 18.109375 8.203125 
L 18.109375 -20.796875 
L 9.078125 -20.796875 
L 9.078125 54.6875 
L 18.109375 54.6875 
L 18.109375 46.390625 
Q 20.953125 51.265625 25.265625 53.625 
Q 29.59375 56 35.59375 56 
Q 45.5625 56 51.78125 48.09375 
Q 58.015625 40.1875 58.015625 27.296875 
Q 58.015625 14.40625 51.78125 6.484375 
Q 45.5625 -1.421875 35.59375 -1.421875 
Q 29.59375 -1.421875 25.265625 0.953125 
Q 20.953125 3.328125 18.109375 8.203125 
z
M 48.6875 27.296875 
Q 48.6875 37.203125 44.609375 42.84375 
Q 40.53125 48.484375 33.40625 48.484375 
Q 26.265625 48.484375 22.1875 42.84375 
Q 18.109375 37.203125 18.109375 27.296875 
Q 18.109375 17.390625 22.1875 11.75 
Q 26.265625 6.109375 33.40625 6.109375 
Q 40.53125 6.109375 44.609375 11.75 
Q 48.6875 17.390625 48.6875 27.296875 
z
" id="DejaVuSans-112"/>
       <path d="M 9.421875 75.984375 
L 18.40625 75.984375 
L 18.40625 0 
L 9.421875 0 
z
" id="DejaVuSans-108"/>
       <path d="M 8.5 21.578125 
L 8.5 54.6875 
L 17.484375 54.6875 
L 17.484375 21.921875 
Q 17.484375 14.15625 20.5 10.265625 
Q 23.53125 6.390625 29.59375 6.390625 
Q 36.859375 6.390625 41.078125 11.03125 
Q 45.3125 15.671875 45.3125 23.6875 
L 45.3125 54.6875 
L 54.296875 54.6875 
L 54.296875 0 
L 45.3125 0 
L 45.3125 8.40625 
Q 42.046875 3.421875 37.71875 1 
Q 33.40625 -1.421875 27.6875 -1.421875 
Q 18.265625 -1.421875 13.375 4.4375 
Q 8.5 10.296875 8.5 21.578125 
z
M 31.109375 56 
z
" id="DejaVuSans-117"/>
       <path d="M 45.40625 46.390625 
L 45.40625 75.984375 
L 54.390625 75.984375 
L 54.390625 0 
L 45.40625 0 
L 45.40625 8.203125 
Q 42.578125 3.328125 38.25 0.953125 
Q 33.9375 -1.421875 27.875 -1.421875 
Q 17.96875 -1.421875 11.734375 6.484375 
Q 5.515625 14.40625 5.515625 27.296875 
Q 5.515625 40.1875 11.734375 48.09375 
Q 17.96875 56 27.875 56 
Q 33.9375 56 38.25 53.625 
Q 42.578125 51.265625 45.40625 46.390625 
z
M 14.796875 27.296875 
Q 14.796875 17.390625 18.875 11.75 
Q 22.953125 6.109375 30.078125 6.109375 
Q 37.203125 6.109375 41.296875 11.75 
Q 45.40625 17.390625 45.40625 27.296875 
Q 45.40625 37.203125 41.296875 42.84375 
Q 37.203125 48.484375 30.078125 48.484375 
Q 22.953125 48.484375 18.875 42.84375 
Q 14.796875 37.203125 14.796875 27.296875 
z
" id="DejaVuSans-100"/>
       <path d="M 10.6875 12.40625 
L 21 12.40625 
L 21 0 
L 10.6875 0 
z
" id="DejaVuSans-46"/>
      </defs>
      <use xlink:href="#DejaVuSans-97"/>
      <use x="61.279297" xlink:href="#DejaVuSans-109"/>
      <use x="158.691406" xlink:href="#DejaVuSans-112"/>
      <use x="222.167969" xlink:href="#DejaVuSans-108"/>
      <use x="249.951172" xlink:href="#DejaVuSans-105"/>
      <use x="277.734375" xlink:href="#DejaVuSans-116"/>
      <use x="316.943359" xlink:href="#DejaVuSans-117"/>
      <use x="380.322266" xlink:href="#DejaVuSans-100"/>
      <use x="443.798828" xlink:href="#DejaVuSans-101"/>
      <use x="505.322266" xlink:href="#DejaVuSans-32"/>
      <use x="537.109375" xlink:href="#DejaVuSans-40"/>
      <use x="576.123047" xlink:href="#DejaVuSans-97"/>
      <use x="637.402344" xlink:href="#DejaVuSans-46"/>
      <use x="669.189453" xlink:href="#DejaVuSans-117"/>
      <use x="732.568359" xlink:href="#DejaVuSans-46"/>
      <use x="764.355469" xlink:href="#DejaVuSans-41"/>
     </g>
    </g>
   </g>
   <g id="line2d_9">
    <path clip-path="url(#p92729bb1b6)" d="M 91.666307 61.55575 
L 98.36454 61.650622 
L 99.176447 61.935155 
L 100.292819 61.877266 
L 101.612168 61.814937 
L 104.453842 61.788731 
L 105.671703 61.720004 
L 110.441656 61.820445 
L 111.050586 62.052488 
L 112.369935 62.083529 
L 116.632447 62.064466 
L 117.850308 62.089155 
L 125.867889 62.58516 
L 128.100633 62.401655 
L 131.957192 62.929831 
L 135.915238 63.154941 
L 137.539052 63.228186 
L 139.974773 63.574968 
L 142.511983 63.948902 
L 145.658122 64.161694 
L 146.977471 64.197873 
L 150.022122 64.750929 
L 151.848913 65.050756 
L 154.995053 65.38016 
L 156.618867 65.460717 
L 164.433472 66.84436 
L 166.260262 66.955812 
L 168.087053 67.374252 
L 170.421286 68.003369 
L 174.582309 68.62177 
L 175.901658 68.816353 
L 183.107333 70.524619 
L 184.731147 70.703682 
L 186.151984 71.119954 
L 188.486216 71.911757 
L 191.327891 72.578341 
L 192.850217 72.688995 
L 194.169565 72.791966 
L 195.590403 73.212656 
L 198.838031 74.384887 
L 201.578217 74.952883 
L 204.013938 75.124285 
L 205.333287 75.616023 
L 207.870496 76.560974 
L 210.712171 77.259214 
L 213.24938 77.46064 
L 214.568729 77.952891 
L 216.39552 78.797006 
L 218.120822 79.418234 
L 219.338682 79.745358 
L 220.75952 79.942713 
L 222.58631 80.023266 
L 224.413101 80.733776 
L 226.036915 81.583818 
L 227.762218 82.17057 
L 229.791985 82.77335 
L 231.314311 82.866964 
L 232.532171 83.243971 
L 234.866404 84.448443 
L 235.779799 84.837978 
L 236.794683 85.175697 
L 237.911055 85.610938 
L 239.027427 85.830744 
L 241.260171 86.200599 
L 242.478032 86.793306 
L 244.406311 87.914997 
L 247.653939 89.093864 
L 248.8718 89.125634 
L 249.886683 89.247937 
L 250.800079 89.589741 
L 252.017939 90.269335 
L 253.540265 91.194041 
L 254.555149 91.605293 
L 256.178963 92.305916 
L 256.99087 92.538592 
L 258.005753 92.583182 
L 258.919149 92.582932 
L 259.832544 92.906447 
L 260.847428 93.446237 
L 263.486126 95.088716 
L 266.530777 96.176199 
L 267.241195 96.113117 
L 268.053102 96.058333 
L 268.966498 96.326085 
L 269.879893 96.790787 
L 272.518591 98.526876 
L 275.360265 99.59447 
L 276.070684 99.536484 
L 277.491521 99.348394 
L 278.303428 99.620648 
L 279.318312 100.204873 
L 281.551056 101.721225 
L 282.971894 102.282544 
L 285.103149 102.937657 
L 285.813568 102.721707 
L 286.625475 102.463208 
L 287.234405 102.486457 
L 287.843336 102.755333 
L 289.46715 103.804332 
L 290.380545 104.473421 
L 291.699894 105.10594 
L 293.120731 105.540563 
L 294.541568 105.887749 
L 295.04901 105.687788 
L 295.65794 105.139724 
L 296.165382 104.774693 
L 296.672824 104.800377 
L 298.702592 105.229929 
L 299.108545 106.079047 
L 299.514499 106.865054 
L 299.920452 107.174967 
L 302.863615 108.254136 
L 303.472545 108.439013 
L 304.182964 108.405866 
L 305.096359 108.090682 
L 306.009755 107.762089 
L 306.618685 107.858175 
L 307.53208 108.024728 
L 308.039522 108.083998 
L 308.242499 108.281193 
L 309.358871 109.936916 
L 310.67822 110.383017 
L 312.707987 111.374489 
L 313.316918 111.454791 
L 314.331801 111.289904 
L 315.245197 111.114268 
L 315.752639 111.238729 
L 316.666034 111.815243 
L 317.376453 112.340936 
L 318.594313 113.425546 
L 320.116639 114.075212 
L 321.334499 114.669228 
L 322.146406 115.031895 
L 322.755336 115.054861 
L 323.668732 114.834125 
L 324.37915 114.710071 
L 324.886592 114.864074 
L 326.104453 115.664634 
L 328.235709 117.382353 
L 328.946127 117.646424 
L 329.758034 117.953745 
L 330.975895 118.662815 
L 331.686313 118.66938 
L 333.107151 118.379726 
L 333.817569 118.306024 
L 334.223523 118.450641 
L 335.542872 119.499844 
L 336.25329 120.197716 
L 336.862221 120.747934 
L 337.471151 120.993912 
L 338.891988 121.370644 
L 340.718779 122.085284 
L 341.226221 121.887329 
L 342.647058 121.104892 
L 343.357477 121.054079 
L 343.966407 121.136466 
L 344.270872 121.50407 
L 344.981291 122.609354 
L 346.503616 123.783035 
L 347.112546 123.975568 
L 348.330407 124.105537 
L 350.055709 124.790995 
L 350.563151 124.66999 
L 351.8825 124.093178 
L 354.216733 124.547222 
L 354.521198 125.082475 
L 355.02864 126.202072 
L 355.333105 126.450362 
L 355.840547 126.509736 
L 356.347989 126.636834 
L 358.580733 127.830217 
L 359.189663 128.057685 
L 359.697105 127.988572 
L 361.219431 127.546406 
L 361.929849 127.731148 
L 362.538779 128.111854 
L 363.553663 129.066512 
L 364.771524 130.18858 
L 365.481942 130.501107 
L 367.308733 131.232805 
L 368.12064 131.550504 
L 368.72957 131.539268 
L 369.541477 131.269231 
L 370.454873 130.958951 
L 371.165291 131.10775 
L 371.87571 131.210035 
L 372.281663 131.282472 
L 372.48464 131.543937 
L 373.499524 133.46674 
L 374.108454 133.674494 
L 374.615896 133.89789 
L 375.63078 134.546968 
L 376.544175 134.826127 
L 377.660547 135.355362 
L 378.167989 135.183424 
L 379.690315 134.482613 
L 380.400733 134.711147 
L 381.21264 134.869857 
L 381.720082 134.921489 
L 381.923059 135.194744 
L 382.836454 137.096154 
L 383.242408 137.178434 
L 383.952827 137.228451 
L 384.561757 137.565939 
L 386.287059 138.700076 
L 386.794501 138.738323 
L 387.606408 138.505217 
L 389.433199 137.934722 
L 390.245106 138.013285 
L 390.549571 138.427579 
L 391.158501 139.462917 
L 393.188269 141.359224 
L 394.406129 141.580162 
L 395.218036 141.999446 
L 396.029943 142.434742 
L 396.029943 142.434742 
" style="fill:none;stroke:#ff7f0e;stroke-linecap:square;stroke-width:1.5;"/>
   </g>
   <g id="patch_3">
    <path d="M 76.448125 254.83575 
L 76.448125 37.39575 
" style="fill:none;stroke:#000000;stroke-linecap:square;stroke-linejoin:miter;stroke-width:0.8;"/>
   </g>
   <g id="patch_4">
    <path d="M 411.248125 254.83575 
L 411.248125 37.39575 
" style="fill:none;stroke:#000000;stroke-linecap:square;stroke-linejoin:miter;stroke-width:0.8;"/>
   </g>
   <g id="patch_5">
    <path d="M 76.448125 254.83575 
L 411.248125 254.83575 
" style="fill:none;stroke:#000000;stroke-linecap:square;stroke-linejoin:miter;stroke-width:0.8;"/>
   </g>
   <g id="patch_6">
    <path d="M 76.448125 37.39575 
L 411.248125 37.39575 
" style="fill:none;stroke:#000000;stroke-linecap:square;stroke-linejoin:miter;stroke-width:0.8;"/>
   </g>
   <g id="text_10">
    <!-- $B(t)$ -->
    <g transform="translate(219.512125 30.907125)scale(0.312 -0.312)">
     <defs>
      <path d="M 13 65.296875 
L 38 65.296875 
Q 58.796875 65.296875 58.796875 50.296875 
Q 58.796875 43.296875 52.40625 39 
Q 49 36.703125 41.296875 35.09375 
L 41.296875 35 
Q 53.90625 31.203125 53.90625 20 
Q 53.90625 10.203125 46.453125 5.09375 
Q 39 0 26.40625 0 
L -0.796875 0 
L -0.796875 1.59375 
Q 3.296875 2.203125 4.75 3.59375 
Q 6.203125 5 7.5 9.59375 
L 19.59375 53.203125 
Q 20.703125 57.09375 20.703125 59.59375 
Q 20.703125 61.796875 19.203125 62.546875 
Q 17.703125 63.296875 13 63.703125 
z
M 24.796875 36.296875 
L 28.59375 36.296875 
Q 38.40625 36.296875 43.546875 40.1875 
Q 48.703125 44.09375 48.703125 51.5 
Q 48.703125 57.09375 45.890625 59.6875 
Q 43.09375 62.296875 37 62.296875 
Q 34.703125 62.296875 33.84375 62.140625 
Q 33 62 32.296875 61.25 
Q 31.59375 60.5 31.09375 58.703125 
z
M 23.796875 33.09375 
L 20.59375 21.203125 
Q 17.09375 7.90625 17.09375 7.203125 
Q 17.09375 3 23.796875 3 
Q 32.59375 3 37.84375 7.390625 
Q 43.09375 11.796875 43.09375 20 
Q 43.09375 24.5 41.1875 27.703125 
Q 39.296875 30.90625 36.40625 31.90625 
Q 33 33.09375 23.796875 33.09375 
z
" id="STIXGeneral-Italic-66"/>
      <path d="M 30.40625 -16.09375 
L 29.203125 -17.703125 
Q 17.59375 -11.09375 11.1875 0.5 
Q 4.796875 12.09375 4.796875 25.203125 
Q 4.796875 52.90625 29.5 67.59375 
L 30.40625 66 
Q 20.203125 57.296875 16.796875 48.84375 
Q 13.40625 40.40625 13.40625 25.5 
Q 13.40625 10.703125 16.90625 1.5 
Q 20.40625 -7.703125 30.40625 -16.09375 
z
" id="STIXGeneral-Regular-40"/>
      <path d="M 29.59375 42.796875 
L 29.09375 39.59375 
L 20.703125 39.59375 
L 12 6.796875 
Q 11.796875 6 11.796875 5.40625 
Q 11.796875 3.796875 13.296875 3.796875 
Q 14.5 3.796875 16.09375 5.34375 
Q 17.703125 6.90625 21.40625 11.703125 
L 22.703125 11 
Q 18.09375 4 15.140625 1.453125 
Q 12.203125 -1.09375 8.40625 -1.09375 
Q 3.796875 -1.09375 3.796875 2.59375 
Q 3.796875 3.59375 5.40625 10 
L 13.203125 39.59375 
L 5.703125 39.59375 
L 5.59375 40.203125 
Q 5.59375 42 8.90625 42.703125 
Q 11.40625 43.296875 15.5 46.546875 
Q 19.59375 49.796875 22.203125 53.703125 
Q 22.796875 54.59375 23.59375 54.59375 
Q 24.5 54.59375 24.5 53.796875 
Q 24.5 53.296875 24.40625 53.09375 
L 21.59375 42.796875 
z
" id="STIXGeneral-Italic-116"/>
      <path d="M 2.90625 66 
L 4.09375 67.59375 
Q 15.5 60.796875 22 49.1875 
Q 28.5 37.59375 28.5 24.703125 
Q 28.5 -2.59375 3.796875 -17.703125 
L 2.90625 -16.09375 
Q 13.203125 -7.59375 16.546875 0.84375 
Q 19.90625 9.296875 19.90625 24.40625 
Q 19.90625 39.59375 16.546875 48.75 
Q 13.203125 57.90625 2.90625 66 
z
" id="STIXGeneral-Regular-41"/>
     </defs>
     <use transform="translate(0 0.40625)" xlink:href="#STIXGeneral-Italic-66"/>
     <use transform="translate(61.099991 0.40625)" xlink:href="#STIXGeneral-Regular-40"/>
     <use transform="translate(94.399979 0.40625)" xlink:href="#STIXGeneral-Italic-116"/>
     <use transform="translate(122.199966 0.40625)" xlink:href="#STIXGeneral-Regular-41"/>
    </g>
   </g>
   <g id="legend_1">
    <g id="line2d_10">
     <path d="M 438.388125 58.451688 
L 490.388125 58.451688 
" style="fill:none;stroke:#1f77b4;stroke-linecap:square;stroke-width:1.5;"/>
    </g>
    <g id="line2d_11"/>
    <g id="text_11">
     <!-- exact -->
     <g transform="translate(511.188125 67.551688)scale(0.26 -0.26)">
      <defs>
       <path d="M 54.890625 54.6875 
L 35.109375 28.078125 
L 55.90625 0 
L 45.3125 0 
L 29.390625 21.484375 
L 13.484375 0 
L 2.875 0 
L 24.125 28.609375 
L 4.6875 54.6875 
L 15.28125 54.6875 
L 29.78125 35.203125 
L 44.28125 54.6875 
z
" id="DejaVuSans-120"/>
       <path d="M 48.78125 52.59375 
L 48.78125 44.1875 
Q 44.96875 46.296875 41.140625 47.34375 
Q 37.3125 48.390625 33.40625 48.390625 
Q 24.65625 48.390625 19.8125 42.84375 
Q 14.984375 37.3125 14.984375 27.296875 
Q 14.984375 17.28125 19.8125 11.734375 
Q 24.65625 6.203125 33.40625 6.203125 
Q 37.3125 6.203125 41.140625 7.25 
Q 44.96875 8.296875 48.78125 10.40625 
L 48.78125 2.09375 
Q 45.015625 0.34375 40.984375 -0.53125 
Q 36.96875 -1.421875 32.421875 -1.421875 
Q 20.0625 -1.421875 12.78125 6.34375 
Q 5.515625 14.109375 5.515625 27.296875 
Q 5.515625 40.671875 12.859375 48.328125 
Q 20.21875 56 33.015625 56 
Q 37.15625 56 41.109375 55.140625 
Q 45.0625 54.296875 48.78125 52.59375 
z
" id="DejaVuSans-99"/>
      </defs>
      <use xlink:href="#DejaVuSans-101"/>
      <use x="59.773438" xlink:href="#DejaVuSans-120"/>
      <use x="118.953125" xlink:href="#DejaVuSans-97"/>
      <use x="180.232422" xlink:href="#DejaVuSans-99"/>
      <use x="235.212891" xlink:href="#DejaVuSans-116"/>
     </g>
    </g>
    <g id="line2d_12">
     <path d="M 438.388125 96.614813 
L 490.388125 96.614813 
" style="fill:none;stroke:#ff7f0e;stroke-linecap:square;stroke-width:1.5;"/>
    </g>
    <g id="line2d_13"/>
    <g id="text_12">
     <!-- estimated -->
     <g transform="translate(511.188125 105.714813)scale(0.26 -0.26)">
      <use xlink:href="#DejaVuSans-101"/>
      <use x="61.523438" xlink:href="#DejaVuSans-115"/>
      <use x="113.623047" xlink:href="#DejaVuSans-116"/>
      <use x="152.832031" xlink:href="#DejaVuSans-105"/>
      <use x="180.615234" xlink:href="#DejaVuSans-109"/>
      <use x="278.027344" xlink:href="#DejaVuSans-97"/>
      <use x="339.306641" xlink:href="#DejaVuSans-116"/>
      <use x="378.515625" xlink:href="#DejaVuSans-101"/>
      <use x="440.039062" xlink:href="#DejaVuSans-100"/>
     </g>
    </g>
   </g>
  </g>
 </g>
 <defs>
  <clipPath id="p92729bb1b6">
   <rect height="217.44" width="334.8" x="76.448125" y="37.39575"/>
  </clipPath>
 </defs>
</svg>
