<?xml version="1.0" encoding="utf-8" standalone="no"?>
<!DOCTYPE svg PUBLIC "-//W3C//DTD SVG 1.1//EN"
  "http://www.w3.org/Graphics/SVG/1.1/DTD/svg11.dtd">
<!-- Created with matplotlib (https://matplotlib.org/) -->
<svg height="323.362pt" version="1.1" viewBox="0 0 676.244688 323.362" width="676.244688pt" xmlns="http://www.w3.org/2000/svg" xmlns:xlink="http://www.w3.org/1999/xlink">
 <metadata>
  <rdf:RDF xmlns:cc="http://creativecommons.org/ns#" xmlns:dc="http://purl.org/dc/elements/1.1/" xmlns:rdf="http://www.w3.org/1999/02/22-rdf-syntax-ns#">
   <cc:Work>
    <dc:type rdf:resource="http://purl.org/dc/dcmitype/StillImage"/>
    <dc:date>2021-09-29T18:19:32.305063</dc:date>
    <dc:format>image/svg+xml</dc:format>
    <dc:creator>
     <cc:Agent>
      <dc:title>Matplotlib v3.3.2, https://matplotlib.org/</dc:title>
     </cc:Agent>
    </dc:creator>
   </cc:Work>
  </rdf:RDF>
 </metadata>
 <defs>
  <style type="text/css">*{stroke-linecap:butt;stroke-linejoin:round;}</style>
 </defs>
 <g id="figure_1">
  <g id="patch_1">
   <path d="M 0 323.362 
L 676.244688 323.362 
L 676.244688 0 
L 0 0 
z
" style="fill:#ffffff;"/>
  </g>
  <g id="axes_1">
   <g id="patch_2">
    <path d="M 92.990625 254.83575 
L 427.790625 254.83575 
L 427.790625 37.39575 
L 92.990625 37.39575 
z
" style="fill:#ffffff;"/>
   </g>
   <g id="line2d_1">
    <path clip-path="url(#p1d5e746295)" d="M 108.208807 168.10779 
L 108.310295 143.373026 
L 108.411784 149.402705 
L 108.513272 113.454531 
L 108.716249 176.880575 
L 108.817737 185.69251 
L 109.020714 115.732175 
L 109.122202 149.542697 
L 109.223691 127.094518 
L 109.426667 163.873344 
L 109.528156 116.800069 
L 109.629644 198.865105 
L 109.832621 142.092331 
L 109.934109 169.289 
L 110.137086 123.629874 
L 110.340063 153.790741 
L 110.441551 155.765169 
L 110.543039 161.999163 
L 110.644528 148.89716 
L 110.746016 156.075479 
L 110.847505 151.153552 
L 110.948993 83.645672 
L 111.050481 165.659382 
L 111.354946 97.912772 
L 111.456435 169.641764 
L 111.557923 147.068656 
L 111.659412 163.09747 
L 111.862388 121.956945 
L 111.963877 163.982669 
L 112.166853 125.965281 
L 112.471319 165.038906 
L 112.572807 109.96291 
L 112.674295 156.381621 
L 112.775784 152.848543 
L 112.877272 153.258992 
L 113.080249 118.228471 
L 113.181737 150.528832 
L 113.283226 145.958243 
L 113.384714 133.999925 
L 113.486202 141.432939 
L 113.689179 119.823429 
L 113.790667 161.379487 
L 113.993644 147.356897 
L 114.095133 157.860543 
L 114.196621 199.836238 
L 114.298109 165.214852 
L 114.399598 165.475153 
L 114.602574 135.646767 
L 114.805551 139.494849 
L 115.008528 181.123766 
L 115.110016 126.954481 
L 115.211505 181.457504 
L 115.312993 99.22884 
L 115.51597 143.367457 
L 115.617458 136.804432 
L 115.718947 157.162469 
L 115.820435 128.846164 
L 116.023412 166.158058 
L 116.226388 80.97223 
L 116.327877 172.804502 
L 116.530854 114.263306 
L 116.632342 157.887091 
L 116.73383 113.609542 
L 116.835319 120.169724 
L 117.038295 150.263876 
L 117.139784 123.62566 
L 117.241272 164.711451 
L 117.444249 112.58807 
L 117.647226 122.16965 
L 117.748714 169.509179 
L 117.850202 129.900127 
L 118.053179 171.406134 
L 118.154668 149.467219 
L 118.256156 180.402662 
L 118.459133 149.058733 
L 118.662109 120.631219 
L 118.763598 179.633086 
L 118.865086 177.869907 
L 118.966575 195.060352 
L 119.068063 126.059368 
L 119.169551 162.546042 
L 119.27104 159.558206 
L 119.575505 129.751117 
L 119.676993 197.785973 
L 119.778482 150.836269 
L 119.87997 175.595959 
L 119.981458 105.649653 
L 120.184435 137.697219 
L 120.285923 94.162782 
L 120.387412 149.612785 
L 120.4889 124.6802 
L 120.590389 181.065346 
L 120.793365 91.709618 
L 120.996342 164.098919 
L 121.09783 169.450446 
L 121.199319 183.760115 
L 121.402296 125.520772 
L 121.605272 165.521864 
L 121.706761 140.33179 
L 121.808249 162.541539 
L 121.909737 116.917729 
L 122.112714 167.230173 
L 122.214203 159.16631 
L 122.315691 136.864109 
L 122.417179 175.547133 
L 122.518668 130.161476 
L 122.620156 152.603882 
L 122.721644 144.158742 
L 122.823133 149.224325 
L 122.924621 91.963085 
L 123.02611 150.170047 
L 123.229086 87.438438 
L 123.330575 135.932436 
L 123.432063 101.924213 
L 123.533551 143.784788 
L 123.63504 127.059802 
L 123.838017 172.71729 
L 123.939505 169.287203 
L 124.142482 139.281345 
L 124.345458 179.083828 
L 124.446947 191.004084 
L 124.548435 95.24827 
L 124.751412 197.427132 
L 124.8529 146.333194 
L 124.954389 149.925254 
L 125.055877 179.055536 
L 125.157365 118.386873 
L 125.258854 157.055128 
L 125.360342 145.128081 
L 125.461831 152.916046 
L 125.563319 145.006285 
L 125.664807 121.77799 
L 125.766296 131.629077 
L 125.867784 156.92416 
L 125.969272 108.432594 
L 126.070761 109.276796 
L 126.172249 181.113215 
L 126.375226 160.73382 
L 126.476714 109.638176 
L 126.679691 159.795193 
L 126.781179 146.928825 
L 126.882668 151.476886 
L 126.984156 149.84651 
L 127.085645 171.699766 
L 127.288621 152.505818 
L 127.39011 113.070668 
L 127.491598 115.281074 
L 127.694575 137.425569 
L 127.796063 208.587635 
L 127.897552 103.532211 
L 127.99904 119.374687 
L 128.202017 161.624043 
L 128.303505 141.665205 
L 128.404993 145.046357 
L 128.506482 162.683389 
L 128.60797 110.382126 
L 128.709459 161.783579 
L 128.810947 140.13923 
L 128.912435 174.919519 
L 129.115412 120.229675 
L 129.419877 192.713006 
L 129.521366 154.271717 
L 129.622854 154.598498 
L 129.825831 114.49039 
L 129.927319 175.262017 
L 130.028807 126.940595 
L 130.130296 169.286371 
L 130.231784 118.625428 
L 130.333273 156.563201 
L 130.536249 109.070227 
L 130.637738 186.864815 
L 130.840714 108.386994 
L 130.942203 127.480407 
L 131.043691 94.309898 
L 131.14518 157.98521 
L 131.246668 120.159252 
L 131.449645 144.905759 
L 131.551133 170.328814 
L 131.75411 99.863302 
L 132.160063 179.781197 
L 132.261552 150.876226 
L 132.36304 167.857267 
L 132.464528 154.628543 
L 132.667505 116.809944 
L 132.768994 120.112202 
L 132.97197 158.787631 
L 133.073459 135.61562 
L 133.174947 187.415844 
L 133.276435 119.708735 
L 133.377924 172.410274 
L 133.479412 114.205338 
L 133.580901 161.269124 
L 133.682389 92.703231 
L 133.783877 152.426811 
L 133.885366 148.883042 
L 133.986854 127.880356 
L 134.088342 178.211041 
L 134.189831 140.887194 
L 134.291319 170.160513 
L 134.392808 129.926563 
L 134.595784 140.75013 
L 134.697273 116.548247 
L 134.798761 142.683531 
L 134.900249 198.611052 
L 135.001738 164.131479 
L 135.103226 169.067406 
L 135.204715 130.248621 
L 135.407691 161.495976 
L 135.50918 165.572233 
L 135.813645 124.840173 
L 136.016622 156.708704 
L 136.11811 145.17692 
L 136.219598 175.083315 
L 136.321087 157.068531 
L 136.422575 111.945614 
L 136.524063 120.470336 
L 136.625552 92.623125 
L 136.72704 163.652765 
L 136.828529 83.922105 
L 137.031505 161.738111 
L 137.234482 134.364553 
L 137.437459 147.971213 
L 137.538947 96.800162 
L 137.640436 174.768642 
L 137.741924 172.343454 
L 137.843412 141.025007 
L 137.944901 148.443153 
L 138.046389 144.897982 
L 138.147877 90.675733 
L 138.350854 130.729815 
L 138.452343 164.434027 
L 138.553831 140.014084 
L 138.655319 187.777513 
L 138.858296 128.182936 
L 138.959784 168.586471 
L 139.061273 160.803064 
L 139.162761 140.752877 
L 139.26425 216.375183 
L 139.467226 138.616823 
L 139.568715 132.534262 
L 139.670203 105.86921 
L 139.771691 158.464498 
L 139.87318 151.039468 
L 139.974668 164.914305 
L 140.076157 160.966321 
L 140.177645 163.392116 
L 140.279133 163.321145 
L 140.380622 193.016589 
L 140.48211 173.42359 
L 140.583598 127.079654 
L 140.786575 157.887195 
L 140.888064 156.519343 
L 140.989552 138.610364 
L 141.09104 177.85939 
L 141.192529 124.335179 
L 141.294017 195.853731 
L 141.395505 121.771905 
L 141.496994 135.910377 
L 141.598482 195.365646 
L 141.801459 136.549138 
L 141.902947 174.67847 
L 142.004436 147.684713 
L 142.105924 182.393629 
L 142.207412 125.357528 
L 142.308901 129.276347 
L 142.410389 146.454507 
L 142.511878 207.139657 
L 142.613366 147.529438 
L 142.714854 150.379523 
L 142.917831 180.982464 
L 143.323785 130.360544 
L 143.425273 131.100749 
L 143.526761 141.267352 
L 143.62825 170.71861 
L 143.831226 130.397084 
L 143.932715 129.600616 
L 144.034203 123.179161 
L 144.135692 201.655882 
L 144.541645 125.949957 
L 144.643133 161.124435 
L 144.744622 96.360567 
L 144.84611 190.660176 
L 145.049087 129.567568 
L 145.252064 168.573131 
L 145.353552 117.118545 
L 145.45504 149.238549 
L 145.556529 141.037658 
L 145.658017 117.382865 
L 145.759506 165.236868 
L 145.860994 141.263463 
L 146.063971 174.779044 
L 146.165459 120.567671 
L 146.368436 139.308156 
L 146.469924 144.14132 
L 146.571413 112.481678 
L 146.672901 207.833815 
L 146.774389 153.004191 
L 146.875878 180.896715 
L 147.078854 116.844452 
L 147.180343 166.47577 
L 147.281831 109.602226 
L 147.38332 137.279073 
L 147.586296 126.799579 
L 147.687785 136.662174 
L 147.789273 168.510273 
L 147.890761 163.449886 
L 147.99225 146.900305 
L 148.093738 157.395984 
L 148.195227 132.631305 
L 148.296715 200.360943 
L 148.398203 137.920015 
L 148.60118 151.862017 
L 148.702668 148.41918 
L 148.804157 198.601963 
L 148.905645 129.509775 
L 149.007134 145.419213 
L 149.108622 87.443067 
L 149.413087 172.125962 
L 149.514575 167.339548 
L 149.616064 168.606336 
L 149.717552 100.141745 
L 149.920529 182.528258 
L 150.022017 124.062408 
L 150.123506 125.235873 
L 150.224994 148.520743 
L 150.326482 123.621563 
L 150.427971 139.539669 
L 150.529459 176.57636 
L 150.630948 95.719761 
L 150.732436 199.093983 
L 151.036901 98.989544 
L 151.138389 168.242483 
L 151.239878 146.260969 
L 151.341366 169.75411 
L 151.442855 110.506747 
L 151.645831 154.46114 
L 151.74732 132.858915 
L 151.848808 183.003693 
L 151.950296 176.193869 
L 152.153273 115.255548 
L 152.254762 152.012608 
L 152.35625 137.924196 
L 152.457738 170.762055 
L 152.559227 103.901156 
L 152.660715 125.843482 
L 152.863692 106.05881 
L 153.168157 194.729818 
L 153.472622 120.179563 
L 153.675599 148.879476 
L 153.777087 122.475447 
L 153.980064 161.112748 
L 154.081552 149.609182 
L 154.183041 139.587682 
L 154.386017 212.065089 
L 154.487506 128.030191 
L 154.588994 169.621996 
L 154.690483 124.329701 
L 154.791971 130.319715 
L 154.893459 149.199608 
L 154.994948 102.392619 
L 155.197924 154.533963 
L 155.299413 107.331439 
L 155.50239 206.560809 
L 155.705366 123.441667 
L 155.908343 152.615062 
L 156.009831 129.388025 
L 156.212808 174.491792 
L 156.314297 159.471079 
L 156.517273 170.636658 
L 156.72025 116.192743 
L 156.923227 168.143193 
L 157.32918 127.487208 
L 157.430669 103.862327 
L 157.532157 159.625144 
L 157.633645 133.980585 
L 157.836622 170.108064 
L 157.938111 146.067511 
L 158.039599 198.953021 
L 158.242576 148.251507 
L 158.344064 152.736544 
L 158.445552 163.774518 
L 158.547041 134.67872 
L 158.750018 166.60225 
L 158.851506 146.39054 
L 158.952994 154.271161 
L 159.054483 124.062101 
L 159.155971 135.237089 
L 159.257459 119.554119 
L 159.358948 166.543161 
L 159.663413 137.058865 
L 159.764901 107.306619 
L 159.86639 203.651745 
L 160.069366 129.234842 
L 160.170855 140.928396 
L 160.272343 190.458232 
L 160.576808 158.970587 
L 160.678297 157.958812 
L 160.881273 111.073622 
L 161.08425 146.034188 
L 161.287227 163.043888 
L 161.388715 149.990271 
L 161.490204 154.991234 
L 161.69318 110.701166 
L 161.896157 195.504153 
L 161.997646 167.939558 
L 162.099134 193.696298 
L 162.200622 124.705282 
L 162.302111 126.718737 
L 162.403599 127.067829 
L 162.505087 127.874686 
L 162.606576 130.092746 
L 162.708064 114.782785 
L 162.809553 141.860012 
L 162.911041 136.59598 
L 163.012529 151.434317 
L 163.114018 128.367597 
L 163.215506 203.657696 
L 163.418483 127.603359 
L 163.519971 102.894958 
L 163.62146 179.234748 
L 163.722948 141.619056 
L 163.824436 150.683001 
L 163.925925 182.409621 
L 164.027413 116.353198 
L 164.128901 135.532284 
L 164.23039 128.213262 
L 164.331878 190.028913 
L 164.534855 158.556092 
L 164.636343 157.533726 
L 164.737832 196.855991 
L 164.940808 150.152491 
L 165.042297 155.441819 
L 165.143785 139.189032 
L 165.346762 178.376441 
L 165.549739 137.274141 
L 165.651227 155.510554 
L 165.752715 142.497958 
L 165.854204 75.676437 
L 166.158669 170.483005 
L 166.260157 142.89485 
L 166.463134 152.357902 
L 166.564622 126.573251 
L 166.666111 144.351676 
L 166.767599 131.807452 
L 166.869088 142.536115 
L 166.970576 81.055664 
L 167.072064 184.714879 
L 167.173553 109.687896 
L 167.275041 203.161522 
L 167.376529 124.189492 
L 167.478018 172.060006 
L 167.680995 101.895424 
L 167.782483 136.573573 
L 167.98546 116.660224 
L 168.188436 164.011553 
L 168.391413 135.635947 
L 168.492902 136.939355 
L 168.59439 109.062906 
L 168.695878 163.494465 
L 168.797367 122.790625 
L 168.898855 176.845811 
L 169.000343 95.787002 
L 169.20332 173.123601 
L 169.304809 152.844761 
L 169.406297 163.801414 
L 169.507785 207.928576 
L 169.710762 122.886165 
L 169.81225 175.775098 
L 170.015227 127.445007 
L 170.116716 123.847477 
L 170.421181 171.396014 
L 170.624157 115.241614 
L 170.725646 125.94213 
L 170.928623 179.16428 
L 171.131599 136.313924 
L 171.233088 128.826278 
L 171.537553 178.657635 
L 171.639041 105.550513 
L 171.74053 148.553399 
L 171.842018 120.14645 
L 171.943506 150.733492 
L 172.044995 133.844753 
L 172.146483 141.268285 
L 172.247971 127.414906 
L 172.34946 160.361489 
L 172.450948 141.477799 
L 172.653925 153.178641 
L 172.755413 119.745902 
L 172.856902 135.545952 
L 172.95839 174.303984 
L 173.059878 149.321703 
L 173.161367 155.105523 
L 173.262855 143.327929 
L 173.364344 173.310574 
L 173.465832 122.860008 
L 173.668809 173.616221 
L 173.770297 159.45659 
L 173.871785 87.932907 
L 173.973274 97.559879 
L 174.074762 138.528402 
L 174.277739 112.70168 
L 174.379227 179.267411 
L 174.480716 129.955299 
L 174.582204 151.109966 
L 174.683692 145.12045 
L 174.785181 154.841005 
L 174.886669 179.186819 
L 174.988158 145.333279 
L 175.089646 187.495656 
L 175.292623 118.230075 
L 175.394111 127.342719 
L 175.495599 158.87345 
L 175.597088 113.342935 
L 175.800065 167.849771 
L 175.901553 91.464949 
L 176.10453 130.27228 
L 176.206018 124.854769 
L 176.307506 133.095198 
L 176.408995 163.492963 
L 176.510483 162.546418 
L 176.71346 134.431723 
L 176.814948 124.074451 
L 176.916437 148.738008 
L 177.017925 101.915334 
L 177.119413 177.811302 
L 177.220902 99.949986 
L 177.728344 165.656635 
L 177.829832 156.871694 
L 177.93132 136.39282 
L 178.032809 92.521956 
L 178.235786 180.561807 
L 178.337274 169.979867 
L 178.438762 123.622133 
L 178.641739 170.74511 
L 178.743227 169.058151 
L 178.844716 174.603689 
L 178.946204 104.126631 
L 179.047693 147.211075 
L 179.149181 146.483544 
L 179.352158 160.525681 
L 179.453646 182.175379 
L 179.656623 115.046454 
L 179.758111 154.338544 
L 179.961088 118.671148 
L 180.062576 126.319457 
L 180.164065 165.127592 
L 180.367041 142.529263 
L 180.46853 105.657634 
L 180.570018 116.354365 
L 180.772995 191.240205 
L 180.874483 147.677061 
L 180.975972 166.408402 
L 181.07746 124.21144 
L 181.178948 167.188241 
L 181.280437 162.301075 
L 181.381925 144.399509 
L 181.483414 148.372839 
L 181.584902 167.188222 
L 181.68639 109.905089 
L 181.889367 219.526267 
L 182.092344 140.984317 
L 182.193832 147.93758 
L 182.396809 190.582644 
L 182.599786 111.589063 
L 182.802762 165.956392 
L 182.904251 135.457059 
L 183.107228 200.76012 
L 183.208716 138.779636 
L 183.310204 140.41127 
L 183.411693 123.839489 
L 183.513181 128.456932 
L 183.614669 146.770721 
L 183.716158 127.821758 
L 183.919135 179.861197 
L 184.020623 189.127702 
L 184.325088 125.780637 
L 184.426576 166.467952 
L 184.629553 131.170424 
L 184.731042 125.212382 
L 184.83253 137.01033 
L 184.934018 169.159956 
L 185.035507 148.635107 
L 185.238483 175.232068 
L 185.339972 110.931526 
L 185.644437 168.147945 
L 185.847414 147.00182 
L 185.948902 124.550909 
L 186.05039 131.183597 
L 186.151879 146.235698 
L 186.253367 126.063778 
L 186.354856 161.819847 
L 186.456344 102.378364 
L 186.557832 132.269342 
L 186.659321 201.553413 
L 186.963786 104.947543 
L 187.065274 147.081205 
L 187.166763 146.129432 
L 187.369739 118.120208 
L 187.471228 195.26941 
L 187.572716 131.786835 
L 187.674204 177.348647 
L 187.775693 148.58731 
L 187.877181 154.049248 
L 188.080158 75.403422 
L 188.181646 184.020651 
L 188.384623 115.843101 
L 188.5876 161.373391 
L 188.689088 103.918866 
L 188.892065 155.45504 
L 188.993553 144.156267 
L 189.095042 157.980357 
L 189.19653 130.805571 
L 189.298018 173.700372 
L 189.500995 155.742571 
L 189.602483 128.352535 
L 189.703972 130.103817 
L 189.80546 111.798004 
L 189.906949 153.44824 
L 190.109925 115.783528 
L 190.211414 144.550226 
L 190.312902 126.1542 
L 190.41439 172.800347 
L 190.515879 125.841135 
L 190.820344 173.520362 
L 191.023321 133.230524 
L 191.226297 148.306129 
L 191.429274 120.15918 
L 191.530763 166.193056 
L 191.632251 150.444256 
L 191.733739 155.502064 
L 191.835228 142.645339 
L 191.936716 147.519962 
L 192.038204 129.696484 
L 192.139693 171.033171 
L 192.34267 75.537438 
L 192.444158 192.1603 
L 192.545646 149.544622 
L 192.647135 174.491908 
L 192.850111 123.16692 
L 192.9516 138.522897 
L 193.053088 111.354107 
L 193.154577 132.552491 
L 193.256065 114.793435 
L 193.459042 169.227862 
L 193.56053 137.510743 
L 193.662018 142.282152 
L 193.763507 141.16049 
L 193.864995 125.79379 
L 193.966484 163.360214 
L 194.067972 143.270992 
L 194.16946 164.162007 
L 194.270949 125.203374 
L 194.372437 162.097269 
L 194.473925 138.023209 
L 194.575414 174.557865 
L 194.879879 120.226753 
L 194.981367 135.613528 
L 195.082856 130.154628 
L 195.184344 150.730918 
L 195.285832 147.195472 
L 195.387321 157.06074 
L 195.590298 133.166015 
L 195.691786 132.712686 
L 195.793274 135.03141 
L 195.894763 115.074298 
L 195.996251 151.638737 
L 196.097739 105.163215 
L 196.300716 163.783866 
L 196.402205 138.212353 
L 196.503693 147.498371 
L 196.605181 146.847241 
L 196.70667 123.601516 
L 196.909646 169.564274 
L 197.011135 141.164144 
L 197.112623 161.782826 
L 197.3156 127.219691 
L 197.417088 178.857742 
L 197.518577 123.679133 
L 197.721553 140.295454 
L 197.823042 180.335929 
L 198.228995 144.183881 
L 198.330484 115.12513 
L 198.634949 160.484647 
L 198.736437 113.18042 
L 198.837926 136.21327 
L 198.939414 121.533339 
L 199.040902 165.845115 
L 199.142391 139.966072 
L 199.243879 163.090399 
L 199.345367 149.75141 
L 199.446856 161.014293 
L 199.548344 149.466673 
L 199.649833 150.763238 
L 199.751321 178.838906 
L 199.852809 173.95659 
L 199.954298 135.811136 
L 200.055786 142.91291 
L 200.157274 165.529622 
L 200.258763 158.751327 
L 200.46174 114.705225 
L 200.563228 126.18753 
L 200.664716 150.944691 
L 200.766205 143.883904 
L 200.867693 170.272675 
L 201.07067 135.754106 
L 201.273647 157.64262 
L 201.476623 131.993558 
L 201.578112 136.082276 
L 201.6796 111.719802 
L 201.781088 151.11869 
L 201.984065 125.891639 
L 202.085554 149.887353 
L 202.187042 127.186602 
L 202.28853 132.71399 
L 202.390019 131.224235 
L 202.491507 161.65104 
L 202.592995 107.708216 
L 202.694484 180.953272 
L 202.897461 123.506318 
L 202.998949 173.644212 
L 203.100437 117.742927 
L 203.303414 181.678179 
L 203.404902 115.291944 
L 203.607879 168.344485 
L 203.709368 112.356928 
L 203.810856 177.324534 
L 204.013833 142.587964 
L 204.115321 161.396324 
L 204.216809 156.985714 
L 204.419786 100.71605 
L 204.521275 115.136095 
L 204.622763 162.309724 
L 204.82574 145.100635 
L 204.927228 144.695797 
L 205.231693 140.557729 
L 205.536158 96.513519 
L 205.637647 183.230813 
L 205.739135 132.259999 
L 205.840623 182.714173 
L 205.942112 168.629073 
L 206.0436 109.095658 
L 206.246577 158.41279 
L 206.348065 149.960819 
L 206.551042 128.178095 
L 206.65253 171.994926 
L 206.754019 139.256955 
L 206.855507 166.27002 
L 206.956996 156.798748 
L 207.058484 163.255718 
L 207.159972 109.874842 
L 207.362949 177.095767 
L 207.565926 129.317958 
L 207.667414 115.026634 
L 207.870391 154.62906 
L 207.971879 123.814 
L 208.073368 174.171353 
L 208.174856 125.309156 
L 208.276344 137.707685 
L 208.479321 132.139331 
L 208.58081 167.748739 
L 208.682298 141.226391 
L 208.783786 173.128262 
L 208.885275 120.460154 
L 208.986763 160.043158 
L 209.088251 116.509126 
L 209.392717 170.812272 
L 209.494205 167.667946 
L 209.595693 158.430812 
L 209.697182 136.121345 
L 209.79867 195.120551 
L 210.103135 110.146626 
L 210.204624 152.291695 
L 210.306112 149.81343 
L 210.4076 185.720483 
L 210.509089 148.353426 
L 210.610577 172.188744 
L 210.813554 94.237843 
L 211.016531 172.460533 
L 211.118019 130.625666 
L 211.219507 166.795739 
L 211.523972 116.281713 
L 211.625461 143.600458 
L 211.726949 131.796815 
L 211.828438 144.524615 
L 211.929926 131.320029 
L 212.031414 148.573402 
L 212.132903 116.739643 
L 212.234391 180.412824 
L 212.335879 164.326894 
L 212.437368 172.734733 
L 212.538856 162.698156 
L 212.640345 169.538677 
L 212.741833 134.29089 
L 212.843321 161.68667 
L 212.94481 146.986691 
L 213.147786 164.220318 
L 213.249275 143.719249 
L 213.350763 177.40702 
L 213.452252 172.165621 
L 213.55374 185.91642 
L 213.858205 118.372562 
L 213.959693 166.123586 
L 214.061182 108.274344 
L 214.16267 149.157688 
L 214.264159 135.743389 
L 214.365647 142.06377 
L 214.467135 132.423307 
L 214.568624 102.347632 
L 214.670112 112.183886 
L 214.7716 169.499042 
L 214.974577 135.837671 
L 215.076066 171.548851 
L 215.177554 136.759294 
L 215.380531 170.018861 
L 215.583507 122.826855 
L 215.684996 168.672876 
L 215.786484 107.784237 
L 215.989461 149.181986 
L 216.090949 136.732022 
L 216.192438 208.133625 
L 216.293926 127.572019 
L 216.496903 157.040652 
L 216.69988 136.430382 
L 216.801368 171.49192 
L 216.902856 143.874739 
L 217.004345 184.20084 
L 217.105833 102.732407 
L 217.30881 153.416628 
L 217.410298 179.714118 
L 217.613275 148.442402 
L 217.714763 139.534925 
L 217.816252 183.401887 
L 218.019228 128.259118 
L 218.222205 142.525671 
L 218.323694 130.059857 
L 218.52667 165.252985 
L 218.628159 159.361493 
L 218.831135 124.811754 
L 219.034112 169.68485 
L 219.237089 124.019618 
L 219.338577 129.024999 
L 219.440066 170.542512 
L 219.541554 140.55953 
L 219.744531 155.682952 
L 219.846019 209.700117 
L 220.048996 112.886305 
L 220.150484 147.82237 
L 220.251973 142.793769 
L 220.353461 148.430148 
L 220.556438 131.091426 
L 220.657926 132.530164 
L 220.759415 117.844661 
L 220.860903 135.14424 
L 220.962391 105.364166 
L 221.06388 109.983955 
L 221.266856 175.133879 
L 221.368345 173.850089 
L 221.469833 169.939531 
L 221.571322 141.762259 
L 221.67281 176.209802 
L 221.875787 116.926319 
L 222.28174 172.716959 
L 222.383229 137.268815 
L 222.484717 140.303858 
L 222.586205 180.933447 
L 222.789182 140.46389 
L 222.992159 165.695376 
L 223.093647 152.62312 
L 223.195136 159.171717 
L 223.296624 177.00374 
L 223.499601 110.34971 
L 223.601089 151.411957 
L 223.702577 133.943745 
L 223.804066 183.135118 
L 224.007043 147.593543 
L 224.108531 168.041751 
L 224.210019 104.299345 
L 224.514484 188.342957 
L 224.717461 151.537385 
L 224.81895 151.93549 
L 224.920438 169.045407 
L 225.123415 150.389256 
L 225.224903 190.483415 
L 225.326391 134.567463 
L 225.42788 151.794333 
L 225.529368 151.461152 
L 225.630857 165.07854 
L 225.732345 146.32624 
L 225.833833 148.838587 
L 225.935322 173.892268 
L 226.03681 132.769889 
L 226.138298 174.732082 
L 226.239787 115.593426 
L 226.442764 164.475711 
L 226.544252 194.861964 
L 226.64574 166.145451 
L 226.747229 102.878632 
L 226.950205 156.027109 
L 227.153182 131.156774 
L 227.254671 152.861517 
L 227.356159 125.190098 
L 227.559136 172.183589 
L 227.660624 143.064388 
L 227.762112 149.453011 
L 227.863601 183.368953 
L 227.965089 135.952539 
L 228.066578 149.961207 
L 228.168066 114.657333 
L 228.269554 164.442702 
L 228.371043 149.510655 
L 228.472531 173.484947 
L 228.574019 133.153404 
L 228.675508 147.55959 
L 228.776996 145.838771 
L 228.979973 166.908817 
L 229.081461 138.172318 
L 229.18295 151.455057 
L 229.284438 141.668889 
L 229.385926 144.308478 
L 229.487415 134.604873 
L 229.690392 150.616677 
L 229.79188 177.477376 
L 229.994857 109.932709 
L 230.197833 159.0557 
L 230.40081 122.327658 
L 230.502299 145.668164 
L 230.603787 140.000497 
L 230.705275 163.125972 
L 230.806764 119.713617 
L 230.908252 128.179915 
L 231.00974 162.623697 
L 231.111229 160.852219 
L 231.212717 167.055849 
L 231.314206 113.027063 
L 231.415694 181.138493 
L 231.517182 176.984222 
L 231.618671 173.31068 
L 231.821647 195.371086 
L 231.923136 183.843427 
L 232.126113 83.138544 
L 232.227601 167.016927 
L 232.430578 132.441128 
L 232.532066 159.913196 
L 232.93802 137.453625 
L 233.039508 188.87836 
L 233.242485 92.742224 
L 233.343973 152.315481 
L 233.445461 136.077095 
L 233.54695 137.39223 
L 233.648438 158.034009 
L 233.749927 125.704495 
L 233.851415 130.093651 
L 233.952903 111.254885 
L 234.054392 141.649728 
L 234.15588 74.215807 
L 234.358857 151.270085 
L 234.460345 145.41438 
L 234.561834 148.244163 
L 234.663322 143.140452 
L 234.76481 144.57223 
L 234.866299 151.604889 
L 234.967787 171.200822 
L 235.069275 142.060662 
L 235.170764 157.653678 
L 235.272252 152.885865 
L 235.373741 175.949114 
L 235.576717 135.403039 
L 235.678206 162.799886 
L 235.779694 142.15754 
L 235.881182 154.159108 
L 235.982671 150.079664 
L 236.287136 176.868691 
L 236.388624 140.842721 
L 236.490113 180.801673 
L 236.693089 126.51776 
L 236.794578 164.708838 
L 236.896066 115.091285 
L 236.997555 158.789137 
L 237.504996 123.680484 
L 237.606485 157.290763 
L 237.707973 99.512149 
L 237.91095 194.604474 
L 238.215415 67.35977 
L 238.316903 158.131749 
L 238.418392 123.708256 
L 238.51988 136.013127 
L 238.621369 175.167404 
L 238.722857 154.806584 
L 238.824345 170.425824 
L 238.925834 126.594638 
L 239.027322 209.309713 
L 239.230299 162.483031 
L 239.331787 179.090137 
L 239.433276 148.906125 
L 239.534764 158.097127 
L 239.636252 114.903977 
L 239.737741 174.101728 
L 239.839229 135.894533 
L 240.042206 168.598284 
L 240.143694 141.483442 
L 240.245183 149.236301 
L 240.346671 106.975422 
L 240.448159 175.949574 
L 240.651136 127.280313 
L 240.854113 112.560739 
L 241.05709 164.443053 
L 241.158578 127.194841 
L 241.361555 186.452643 
L 241.463043 103.179671 
L 241.564531 158.483376 
L 241.66602 112.980206 
L 241.767508 157.777422 
L 241.868997 123.301772 
L 241.970485 155.987792 
L 242.071973 116.108538 
L 242.173462 122.648552 
L 242.27495 84.760177 
L 242.579415 193.54014 
L 242.680904 128.90347 
L 242.88388 155.395782 
L 242.985369 107.502655 
L 243.086857 188.281271 
L 243.289834 152.851299 
L 243.391322 157.867663 
L 243.594299 131.500555 
L 243.695787 135.394828 
L 243.797276 126.716715 
L 244.000252 170.794409 
L 244.203229 125.916696 
L 244.406206 178.527166 
L 244.507694 131.030714 
L 244.710671 145.887568 
L 244.913648 103.015133 
L 245.015136 169.920285 
L 245.116625 69.293497 
L 245.218113 150.088626 
L 245.319601 103.621448 
L 245.42109 154.106632 
L 245.522578 151.581907 
L 245.624066 148.055337 
L 245.725555 187.426581 
L 245.827043 135.508896 
L 245.928532 162.972464 
L 246.03002 133.379397 
L 246.131508 135.140996 
L 246.232997 131.599461 
L 246.334485 172.829698 
L 246.63895 124.208527 
L 246.841927 169.219846 
L 246.943415 146.190822 
L 247.044904 172.647866 
L 247.146392 117.428093 
L 247.24788 168.047329 
L 247.349369 153.891572 
L 247.450857 161.793297 
L 247.552346 121.233409 
L 247.653834 166.370844 
L 247.958299 112.993928 
L 248.059787 139.235062 
L 248.161276 137.642766 
L 248.262764 134.189718 
L 248.364253 151.932979 
L 248.465741 149.398813 
L 248.567229 133.595299 
L 248.668718 176.386975 
L 248.871694 74.285846 
L 249.074671 163.442125 
L 249.17616 145.187961 
L 249.277648 148.98162 
L 249.379136 126.482365 
L 249.480625 170.213471 
L 249.582113 162.088288 
L 249.78509 141.929123 
L 249.886578 141.133167 
L 249.988067 192.016586 
L 250.191043 100.878448 
L 250.39402 177.89361 
L 250.495508 149.630184 
L 250.596997 178.555621 
L 250.901462 113.036783 
L 251.00295 171.584335 
L 251.104439 152.594058 
L 251.205927 80.076418 
L 251.307415 131.753971 
L 251.408904 114.754767 
L 251.510392 122.756966 
L 251.713369 156.756808 
L 251.814857 172.375042 
L 252.017834 152.669973 
L 252.119322 148.671837 
L 252.220811 120.08499 
L 252.322299 217.425398 
L 252.525276 146.948595 
L 252.626764 139.772624 
L 252.829741 166.232982 
L 252.931229 121.456595 
L 253.235695 158.052925 
L 253.337183 126.333956 
L 253.438671 220.889487 
L 253.641648 126.738663 
L 253.743136 127.981752 
L 253.946113 179.143972 
L 254.14909 144.109525 
L 254.250578 167.291646 
L 254.352067 131.469839 
L 254.453555 150.005212 
L 254.555043 139.711693 
L 254.656532 179.904131 
L 254.75802 156.741286 
L 254.859509 176.312769 
L 254.960997 110.159323 
L 255.163974 157.199333 
L 255.265462 152.366676 
L 255.36695 101.370224 
L 255.772904 204.106801 
L 255.874392 135.227138 
L 255.975881 156.159366 
L 256.077369 98.069676 
L 256.280346 153.642047 
L 256.381834 147.387029 
L 256.483323 148.702067 
L 256.584811 167.504465 
L 256.686299 152.621611 
L 256.787788 118.025595 
L 256.990764 182.117944 
L 257.092253 179.536033 
L 257.29523 147.102129 
L 257.396718 151.747131 
L 257.498206 176.627901 
L 257.599695 141.871425 
L 257.701183 150.871892 
L 257.802671 125.311058 
L 257.90416 136.188123 
L 258.107137 176.41129 
L 258.208625 108.16796 
L 258.411602 150.351574 
L 258.51309 160.118347 
L 258.614578 156.604801 
L 258.716067 145.694877 
L 258.919044 108.227199 
L 259.020532 153.857269 
L 259.12202 90.119866 
L 259.223509 160.791052 
L 259.324997 123.993054 
L 259.426485 151.468244 
L 259.527974 124.801564 
L 259.629462 142.64385 
L 259.832439 137.083859 
L 259.933927 97.568597 
L 260.136904 137.530403 
L 260.238392 135.359943 
L 260.339881 153.431088 
L 260.441369 119.580473 
L 260.644346 153.383375 
L 260.745834 180.972446 
L 260.847323 168.133203 
L 260.948811 129.787492 
L 261.050299 154.618093 
L 261.151788 136.722064 
L 261.354765 186.929681 
L 261.456253 149.948804 
L 261.557741 184.7911 
L 261.760718 88.554049 
L 261.862206 138.576613 
L 261.963695 115.95968 
L 262.166672 177.214957 
L 262.26816 132.894291 
L 262.471137 184.458766 
L 262.572625 139.356304 
L 262.674113 141.608911 
L 262.775602 172.551672 
L 262.87709 146.728664 
L 262.978579 181.078956 
L 263.080067 90.937647 
L 263.283044 160.198436 
L 263.48602 127.925981 
L 263.587509 129.071351 
L 263.688997 173.116832 
L 263.790486 136.817178 
L 263.891974 151.319984 
L 263.993462 110.419852 
L 264.196439 155.703458 
L 264.297927 158.072236 
L 264.500904 180.434953 
L 264.602393 175.927793 
L 264.703881 134.381784 
L 264.906858 188.270548 
L 265.008346 176.84792 
L 265.211323 106.218367 
L 265.312811 110.579381 
L 265.4143 177.431682 
L 265.515788 155.686401 
L 265.617276 162.625703 
L 265.820253 132.693466 
L 265.921741 151.436362 
L 266.02323 143.661953 
L 266.124718 178.722438 
L 266.530672 108.831625 
L 266.63216 157.176288 
L 266.733648 154.536339 
L 266.835137 129.555304 
L 267.038114 179.524447 
L 267.139602 176.068928 
L 267.24109 117.58122 
L 267.342579 166.634062 
L 267.545555 117.77499 
L 267.647044 186.002484 
L 267.748532 138.41636 
L 267.850021 142.705263 
L 268.052997 113.003318 
L 268.154486 195.472101 
L 268.255974 136.114722 
L 268.357462 186.25088 
L 268.458951 77.575144 
L 268.661928 175.152081 
L 268.763416 187.340154 
L 268.864904 146.392224 
L 268.966393 176.813721 
L 269.067881 130.307717 
L 269.169369 148.883206 
L 269.270858 138.923231 
L 269.372346 169.122079 
L 269.473835 129.878933 
L 269.575323 136.293305 
L 269.676811 127.7186 
L 269.7783 190.612326 
L 269.879788 152.340952 
L 269.981276 161.793807 
L 270.082765 126.619167 
L 270.184253 172.533081 
L 270.285742 146.733909 
L 270.38723 162.492553 
L 270.488718 128.343689 
L 270.590207 143.896756 
L 270.691695 189.427973 
L 270.894672 95.654217 
L 270.99616 133.886212 
L 271.097649 124.075654 
L 271.199137 165.157466 
L 271.503602 105.83777 
L 271.60509 148.55011 
L 271.706579 146.761553 
L 271.808067 159.41671 
L 271.909556 154.127026 
L 272.011044 135.817337 
L 272.112532 153.646499 
L 272.214021 133.383189 
L 272.315509 134.614262 
L 272.416997 130.887621 
L 272.619974 116.974113 
L 272.721463 148.200886 
L 272.822951 142.930522 
L 272.924439 144.841756 
L 273.025928 177.077629 
L 273.127416 161.114876 
L 273.228904 121.403052 
L 273.330393 125.996584 
L 273.431881 172.876161 
L 273.634858 87.192914 
L 273.837835 158.262688 
L 273.939323 130.804017 
L 274.040811 196.22247 
L 274.1423 182.852031 
L 274.243788 197.132252 
L 274.446765 147.33783 
L 274.548253 161.111481 
L 274.649742 124.384982 
L 274.75123 188.454639 
L 274.954207 141.271418 
L 275.055695 140.86837 
L 275.157184 149.511033 
L 275.258672 134.843995 
L 275.36016 172.943393 
L 275.563137 139.751749 
L 275.766114 146.927991 
L 275.867602 155.968034 
L 276.070579 135.471121 
L 276.172067 142.632901 
L 276.273556 141.849268 
L 276.375044 167.153483 
L 276.578021 140.804169 
L 276.679509 152.331194 
L 276.780998 115.091375 
L 276.882486 185.598945 
L 276.983974 131.489416 
L 277.085463 153.896766 
L 277.288439 128.226534 
L 277.491416 143.705689 
L 277.592905 111.712633 
L 277.795881 192.869534 
L 278.100346 128.501998 
L 278.201835 162.042331 
L 278.404812 142.718982 
L 278.5063 174.837534 
L 278.709277 141.995046 
L 278.810765 121.754801 
L 279.013742 151.360603 
L 279.216719 121.935066 
L 279.419695 158.834879 
L 279.622672 151.316342 
L 279.72416 122.529999 
L 279.927137 147.056267 
L 280.028626 109.898008 
L 280.130114 190.924789 
L 280.434579 124.063024 
L 280.536067 167.381449 
L 280.637556 159.190301 
L 280.840533 126.567705 
L 280.942021 151.728344 
L 281.043509 111.778754 
L 281.144998 159.194811 
L 281.246486 143.131598 
L 281.347974 161.143088 
L 281.753928 128.912094 
L 281.855416 158.366294 
L 281.956905 139.450093 
L 282.058393 90.440521 
L 282.159881 104.67798 
L 282.26137 149.356828 
L 282.565835 96.720644 
L 282.768812 144.573841 
L 282.8703 138.114493 
L 283.073277 167.73486 
L 283.276254 105.107165 
L 283.47923 157.072298 
L 283.580719 124.734333 
L 283.682207 183.45139 
L 283.783695 117.419394 
L 283.885184 178.57569 
L 284.088161 131.665441 
L 284.189649 157.66123 
L 284.494114 95.992334 
L 284.697091 184.910416 
L 284.900068 122.135447 
L 285.204533 150.358517 
L 285.407509 125.459818 
L 285.508998 170.151375 
L 285.610486 130.991585 
L 285.711975 164.385098 
L 285.813463 138.750736 
L 285.914951 153.980154 
L 286.117928 125.10369 
L 286.219416 149.241064 
L 286.320905 72.088792 
L 286.422393 179.952099 
L 286.62537 118.563869 
L 286.828347 162.718535 
L 286.929835 143.372033 
L 287.031323 146.772053 
L 287.132812 187.479932 
L 287.2343 90.355333 
L 287.335789 106.548632 
L 287.538765 192.554578 
L 287.84323 136.016399 
L 287.944719 145.297797 
L 288.046207 109.728325 
L 288.147696 150.339869 
L 288.350672 128.696866 
L 288.452161 143.342837 
L 288.553649 179.971946 
L 288.756626 125.107687 
L 288.858114 173.767881 
L 289.061091 110.2282 
L 289.162579 166.474206 
L 289.264068 160.322068 
L 289.365556 174.665473 
L 289.467044 129.803862 
L 289.568533 146.865226 
L 289.670021 146.800942 
L 289.872998 122.152524 
L 289.974486 149.524724 
L 290.177463 127.812792 
L 290.481928 182.013751 
L 290.583417 216.132889 
L 290.684905 130.311908 
L 290.786393 142.940635 
L 290.887882 131.914824 
L 290.98937 143.423822 
L 291.090858 185.431708 
L 291.293835 95.20364 
L 291.395324 171.938432 
L 291.496812 153.0042 
L 291.5983 200.924089 
L 291.902765 131.412706 
L 292.105742 163.637603 
L 292.207231 135.085414 
L 292.410207 174.443417 
L 292.511696 148.739923 
L 292.613184 174.011447 
L 292.714672 114.235824 
L 292.816161 181.821735 
L 292.917649 151.813827 
L 293.019138 176.519417 
L 293.120626 171.699716 
L 293.222114 129.429881 
L 293.323603 136.726797 
L 293.425091 116.363035 
L 293.526579 154.648001 
L 293.628068 115.904551 
L 293.932533 177.10571 
L 294.034021 126.529064 
L 294.13551 135.00143 
L 294.236998 117.264651 
L 294.338486 147.921936 
L 294.439975 140.772522 
L 294.642952 151.526991 
L 294.74444 126.967812 
L 295.048905 168.996948 
L 295.150393 131.506867 
L 295.35337 158.855679 
L 295.556347 106.13813 
L 295.657835 112.07812 
L 295.860812 163.476211 
L 295.9623 132.638317 
L 296.063789 156.535372 
L 296.165277 148.61648 
L 296.266766 201.636882 
L 296.469742 133.118362 
L 296.571231 158.970792 
L 296.672719 155.211328 
L 296.774207 139.766062 
L 296.875696 149.594245 
L 296.977184 136.785786 
L 297.078673 149.53432 
L 297.180161 146.453431 
L 297.281649 159.062596 
L 297.383138 124.222281 
L 297.484626 127.743755 
L 297.586114 143.684808 
L 297.687603 126.75519 
L 297.89058 151.538466 
L 297.992068 115.459122 
L 298.093556 147.873738 
L 298.195045 120.531803 
L 298.398021 137.990488 
L 298.49951 130.963129 
L 298.600998 153.594792 
L 298.702487 137.369211 
L 298.803975 138.395704 
L 298.905463 149.320194 
L 299.006952 138.879548 
L 299.10844 185.836114 
L 299.209928 141.779967 
L 299.412905 170.210344 
L 299.514394 164.016852 
L 299.615882 187.176047 
L 299.818859 125.500601 
L 300.021835 173.818446 
L 300.123324 114.60016 
L 300.224812 184.94249 
L 300.427789 129.711102 
L 300.630766 160.559598 
L 300.732254 121.027411 
L 300.833742 200.103593 
L 300.935231 147.513392 
L 301.036719 148.839723 
L 301.138208 144.069409 
L 301.341184 176.112598 
L 301.442673 181.761127 
L 301.544161 143.018427 
L 301.645649 143.898917 
L 301.848626 164.885141 
L 301.950115 170.136829 
L 302.051603 147.807966 
L 302.153091 182.878266 
L 302.660533 102.161603 
L 302.762022 114.380014 
L 302.86351 150.249183 
L 302.964998 149.10679 
L 303.167975 189.416477 
L 303.370952 104.27269 
L 303.47244 104.883341 
L 303.573929 177.884128 
L 303.675417 141.551359 
L 303.776905 166.567128 
L 303.878394 142.680593 
L 303.979882 154.028666 
L 304.08137 142.893695 
L 304.284347 167.72879 
L 304.385836 125.908267 
L 304.487324 160.429146 
L 304.690301 150.848292 
L 304.791789 176.170211 
L 304.893277 156.604387 
L 304.994766 162.202149 
L 305.096254 159.603749 
L 305.197743 145.014619 
L 305.299231 191.728245 
L 305.400719 135.141045 
L 305.502208 157.982947 
L 305.603696 133.370395 
L 305.705184 139.517128 
L 305.806673 120.604446 
L 306.00965 171.770242 
L 306.212626 119.602872 
L 306.415603 160.572505 
L 306.517091 128.635886 
L 306.61858 153.041706 
L 306.821557 117.565061 
L 306.923045 142.718839 
L 307.126022 121.602867 
L 307.22751 127.411968 
L 307.328998 182.366122 
L 307.430487 148.997276 
L 307.633464 157.552475 
L 307.734952 176.200355 
L 307.83644 167.354381 
L 307.937929 124.98615 
L 308.140905 154.380813 
L 308.242394 148.70738 
L 308.343882 126.113663 
L 308.546859 166.151199 
L 308.648347 114.656177 
L 308.749836 154.834568 
L 308.851324 98.432729 
L 308.952812 108.207993 
L 309.155789 207.182254 
L 309.358766 141.284552 
L 309.663231 183.856669 
L 309.764719 125.787209 
L 309.967696 146.155684 
L 310.069185 146.96637 
L 310.170673 157.817864 
L 310.272161 99.941321 
L 310.37365 152.397791 
L 310.475138 126.360771 
L 310.678115 165.943651 
L 310.779603 150.964837 
L 310.881092 152.283504 
L 310.98258 144.42198 
L 311.084068 122.2489 
L 311.185557 139.895035 
L 311.388533 110.810377 
L 311.490022 191.064458 
L 311.59151 164.832581 
L 311.794487 180.923858 
L 311.895975 173.677769 
L 312.098952 139.124874 
L 312.20044 124.906792 
L 312.403417 146.820904 
L 312.504906 139.460316 
L 312.606394 122.904544 
L 312.707882 180.349267 
L 312.809371 179.654962 
L 312.910859 150.770861 
L 313.012347 158.923985 
L 313.113836 131.662418 
L 313.215324 179.97731 
L 313.316813 169.372024 
L 313.519789 111.341399 
L 313.621278 140.52584 
L 313.722766 114.829909 
L 313.925743 131.952082 
L 314.027231 175.682791 
L 314.230208 164.370719 
L 314.331696 165.299224 
L 314.534673 183.194836 
L 314.73765 127.940408 
L 314.940627 154.267985 
L 315.042115 156.593624 
L 315.143603 142.709441 
L 315.245092 153.279712 
L 315.34658 196.356958 
L 315.448068 88.574885 
L 315.549557 138.026116 
L 315.651045 137.427595 
L 315.752534 138.622002 
L 315.854022 135.965823 
L 315.95551 141.743403 
L 316.056999 136.444209 
L 316.158487 85.307174 
L 316.259975 155.184254 
L 316.361464 149.693331 
L 316.462952 166.080438 
L 316.564441 164.635148 
L 316.665929 117.055737 
L 316.970394 150.11536 
L 317.071882 143.172674 
L 317.173371 158.888311 
L 317.376348 134.171391 
L 317.477836 160.736148 
L 317.579324 140.662885 
L 317.680813 176.331765 
L 317.782301 171.883093 
L 317.883789 137.487318 
L 317.985278 152.278622 
L 318.086766 127.415214 
L 318.188255 157.50939 
L 318.289743 114.891584 
L 318.49272 135.286228 
L 318.594208 204.648899 
L 318.695696 130.900023 
L 318.797185 160.282166 
L 318.898673 149.482124 
L 319.000162 172.872055 
L 319.304627 124.486786 
L 319.406115 198.473422 
L 319.507603 155.44965 
L 319.71058 181.230062 
L 319.913557 125.18604 
L 320.015045 170.233644 
L 320.218022 150.578887 
L 320.31951 196.080007 
L 320.420999 159.512137 
L 320.522487 178.374054 
L 320.725464 117.906437 
L 320.826952 141.338797 
L 320.928441 105.776548 
L 321.029929 171.833539 
L 321.131417 132.215399 
L 321.232906 138.88347 
L 321.334394 160.345892 
L 321.435883 113.026321 
L 321.638859 182.101599 
L 321.943324 119.934443 
L 322.044813 122.608863 
L 322.349278 187.900826 
L 322.653743 127.411913 
L 322.755231 142.968596 
L 322.85672 114.147146 
L 322.958208 117.084932 
L 323.059697 135.759466 
L 323.262673 117.337136 
L 323.364162 157.886165 
L 323.46565 73.890085 
L 323.668627 140.668789 
L 323.770115 133.512844 
L 323.973092 152.307859 
L 324.07458 158.661767 
L 324.176069 139.616814 
L 324.379045 167.557735 
L 324.582022 143.934449 
L 324.784999 190.799679 
L 324.886487 147.935896 
L 324.987976 164.786378 
L 325.089464 134.629076 
L 325.495418 174.185039 
L 325.596906 133.091608 
L 325.698394 177.25057 
L 325.799883 137.266509 
L 326.104348 163.969861 
L 326.205836 140.113291 
L 326.307325 196.934948 
L 326.408813 106.115329 
L 326.510301 163.264953 
L 326.61179 158.907959 
L 326.713278 137.562635 
L 326.814766 151.845136 
L 326.916255 98.462503 
L 327.119232 181.10902 
L 327.322208 125.425093 
L 327.423697 177.367043 
L 327.525185 161.730052 
L 327.626673 105.420977 
L 327.82965 184.806239 
L 328.134115 103.241597 
L 328.235604 166.825873 
L 328.337092 145.651171 
L 328.43858 152.030267 
L 328.641557 175.918484 
L 328.743046 179.629938 
L 328.844534 202.094048 
L 329.047511 150.609488 
L 329.148999 146.692374 
L 329.250487 175.713245 
L 329.453464 111.517888 
L 329.554953 161.138271 
L 329.859418 101.801964 
L 329.960906 108.284227 
L 330.163883 162.064432 
L 330.265371 130.185023 
L 330.36686 133.390234 
L 330.468348 171.249391 
L 330.569836 158.766635 
L 330.671325 193.450115 
L 330.772813 148.355723 
L 330.874301 159.359563 
L 331.077278 137.231584 
L 331.178767 135.265391 
L 331.280255 118.939336 
L 331.483232 144.331274 
L 331.58472 110.885702 
L 331.787697 154.09018 
L 331.889185 151.496743 
L 332.092162 171.14958 
L 332.19365 122.559335 
L 332.295139 148.494286 
L 332.396627 104.453033 
L 332.498115 119.055735 
L 332.599604 108.729688 
L 332.701092 171.474219 
L 332.802581 106.245439 
L 333.005557 191.698731 
L 333.107046 137.618184 
L 333.208534 163.928366 
L 333.411511 123.901851 
L 333.512999 148.728932 
L 333.614487 137.55462 
L 333.715976 144.631507 
L 333.817464 123.772868 
L 333.918953 177.729686 
L 334.223418 117.54251 
L 334.426394 146.490507 
L 334.527883 144.158778 
L 334.629371 138.633658 
L 334.832348 168.822226 
L 335.035325 137.548304 
L 335.136813 162.659265 
L 335.33979 117.134727 
L 335.441278 160.083399 
L 335.542767 148.563245 
L 335.644255 155.758723 
L 335.745743 147.971094 
L 335.847232 148.785663 
L 336.050208 130.482157 
L 336.151697 143.30497 
L 336.253185 175.453951 
L 336.354674 139.308846 
L 336.55765 167.725376 
L 336.659139 136.988327 
L 336.760627 147.36141 
L 336.862115 113.609935 
L 337.065092 158.322275 
L 337.166581 112.534583 
L 337.268069 121.960531 
L 337.369557 157.314458 
L 337.674022 138.230552 
L 337.775511 114.688532 
L 337.876999 137.636087 
L 337.978488 106.036123 
L 338.079976 157.115715 
L 338.282953 124.560289 
L 338.384441 160.776125 
L 338.587418 104.08977 
L 338.993371 180.662864 
L 339.196348 92.418468 
L 339.297836 141.813747 
L 339.500813 117.757984 
L 339.70379 155.940009 
L 339.906767 116.000337 
L 340.008255 153.444954 
L 340.109743 129.258391 
L 340.211232 134.620924 
L 340.414209 171.382862 
L 340.515697 121.698895 
L 340.617185 123.948768 
L 340.92165 181.556743 
L 341.023139 116.505895 
L 341.124627 183.817074 
L 341.226116 167.214319 
L 341.327604 104.89785 
L 341.429092 159.641158 
L 341.530581 147.694998 
L 341.632069 174.056868 
L 341.733557 161.969962 
L 341.835046 127.644799 
L 341.936534 139.879677 
L 342.038023 93.440306 
L 342.139511 164.504611 
L 342.240999 146.035061 
L 342.342488 148.922004 
L 342.443976 167.969633 
L 342.545464 138.30034 
L 342.646953 149.562492 
L 342.748441 175.353993 
L 342.84993 124.984218 
L 342.951418 161.874242 
L 343.052906 151.492714 
L 343.255883 172.99336 
L 343.357371 171.601613 
L 343.45886 135.067598 
L 343.560348 164.063955 
L 343.661837 137.798439 
L 343.763325 139.763716 
L 343.864813 126.315288 
L 343.966302 176.898283 
L 344.06779 138.48995 
L 344.169278 166.596075 
L 344.270767 127.426037 
L 344.372255 131.395034 
L 344.473744 130.387707 
L 344.575232 141.817524 
L 344.67672 200.610939 
L 344.778209 179.589223 
L 344.879697 127.84875 
L 344.981185 160.520321 
L 345.082674 120.825725 
L 345.184162 175.815531 
L 345.285651 125.918244 
L 345.387139 136.091608 
L 345.488627 133.179506 
L 345.590116 142.702951 
L 345.691604 169.870972 
L 345.894581 131.874801 
L 345.996069 167.430374 
L 346.097558 116.10053 
L 346.199046 120.500564 
L 346.300534 113.392557 
L 346.402023 128.080271 
L 346.503511 178.687584 
L 346.706488 127.778238 
L 346.909465 168.42215 
L 347.010953 178.317543 
L 347.112441 171.429885 
L 347.21393 138.74363 
L 347.315418 143.094715 
L 347.416906 110.844364 
L 347.619883 149.783406 
L 347.721372 133.134636 
L 347.82286 167.600287 
L 347.924348 120.455273 
L 348.025837 124.082102 
L 348.127325 171.133982 
L 348.228813 140.378089 
L 348.330302 151.855861 
L 348.533279 119.916163 
L 348.736255 171.447283 
L 348.837744 122.891528 
L 348.939232 211.282597 
L 349.142209 145.371035 
L 349.243697 150.390191 
L 349.345186 136.081998 
L 349.446674 166.886214 
L 349.548162 134.76154 
L 349.751139 160.782048 
L 349.852627 167.625762 
L 349.954116 162.742321 
L 350.055604 140.019955 
L 350.157093 87.209954 
L 350.461558 195.965046 
L 350.563046 120.892835 
L 350.664534 161.864727 
L 350.766023 129.332909 
L 350.867511 181.615676 
L 350.969 129.328998 
L 351.171976 173.271943 
L 351.374953 99.543316 
L 351.476441 139.375181 
L 351.57793 131.373723 
L 351.679418 105.691047 
L 351.780907 188.204557 
L 351.882395 148.364766 
L 351.983883 182.845415 
L 352.288348 100.361253 
L 352.389837 141.835077 
L 352.491325 139.661635 
L 352.592814 157.492018 
L 352.79579 131.515895 
L 352.998767 153.46247 
L 353.100255 146.040598 
L 353.303232 190.236163 
L 353.404721 177.616082 
L 353.506209 142.577405 
L 353.607697 161.757644 
L 353.709186 154.871908 
L 353.912162 160.109693 
L 354.013651 153.109892 
L 354.115139 190.329638 
L 354.216628 149.678009 
L 354.318116 164.08498 
L 354.419604 163.224605 
L 354.521093 120.335504 
L 354.622581 131.210432 
L 354.724069 186.701397 
L 355.028535 124.031315 
L 355.130023 155.563624 
L 355.231511 129.135231 
L 355.434488 161.654089 
L 355.535976 153.734658 
L 355.637465 190.893168 
L 355.840442 139.150575 
L 355.94193 152.773396 
L 356.144907 130.075849 
L 356.246395 128.693643 
L 356.347883 114.162466 
L 356.449372 166.990543 
L 356.55086 150.470045 
L 356.652349 152.732748 
L 356.753837 133.234527 
L 356.855325 175.826971 
L 356.956814 161.637206 
L 357.058302 167.502857 
L 357.15979 143.688799 
L 357.261279 147.361883 
L 357.362767 160.720424 
L 357.464256 217.386498 
L 357.565744 162.601207 
L 357.667232 198.901714 
L 357.768721 156.467385 
L 357.870209 162.319983 
L 357.971697 142.139201 
L 358.073186 149.403201 
L 358.174674 164.69147 
L 358.276163 136.491472 
L 358.377651 190.088806 
L 358.479139 163.66652 
L 358.580628 194.203215 
L 358.783604 147.300345 
L 358.885093 178.267649 
L 358.986581 144.675052 
L 359.08807 188.423443 
L 359.189558 166.214489 
L 359.291046 170.309936 
L 359.392535 100.586349 
L 359.494023 176.836489 
L 359.798488 118.676184 
L 359.899977 178.856571 
L 360.001465 131.571429 
L 360.204442 160.692936 
L 360.30593 120.704544 
L 360.508907 152.7273 
L 360.610395 108.383054 
L 360.711884 139.808898 
L 360.813372 115.810152 
L 360.91486 117.778471 
L 361.016349 131.75321 
L 361.117837 130.263577 
L 361.219325 169.152073 
L 361.523791 116.822173 
L 361.625279 184.305344 
L 361.726767 168.028642 
L 361.828256 96.91814 
L 362.031232 147.711329 
L 362.132721 146.793932 
L 362.335698 126.567212 
L 362.437186 124.701469 
L 362.538674 164.353919 
L 362.640163 111.730793 
L 362.741651 117.474996 
L 362.843139 162.018576 
L 363.147605 86.711402 
L 363.553558 206.67151 
L 363.655046 129.92775 
L 363.756535 165.813735 
L 363.858023 146.155332 
L 363.959512 153.115662 
L 364.061 187.095997 
L 364.162488 139.478086 
L 364.365465 170.542114 
L 364.466953 138.67455 
L 364.568442 159.375427 
L 364.66993 158.737611 
L 364.771419 143.880958 
L 364.872907 144.791537 
L 364.974395 141.715719 
L 365.075884 120.41697 
L 365.177372 165.463111 
L 365.27886 145.69218 
L 365.380349 171.358642 
L 365.583326 124.780424 
L 365.684814 149.552418 
L 365.786302 133.130774 
L 365.887791 83.564812 
L 366.090767 162.143648 
L 366.192256 142.616512 
L 366.293744 156.107664 
L 366.395233 153.462874 
L 366.496721 139.650172 
L 366.699698 147.106271 
L 366.801186 116.168769 
L 366.902674 160.11608 
L 367.004163 145.67643 
L 367.105651 155.402109 
L 367.308628 100.971627 
L 367.410116 161.663585 
L 367.511605 111.408813 
L 367.714581 143.54392 
L 367.81607 136.285179 
L 367.917558 140.850664 
L 368.019047 168.977994 
L 368.120535 147.859659 
L 368.222023 151.379123 
L 368.323512 150.793901 
L 368.425 155.416009 
L 368.627977 141.176819 
L 368.729465 157.853021 
L 368.830954 114.111677 
L 368.932442 121.399702 
L 369.03393 155.50237 
L 369.135419 139.509769 
L 369.236907 147.311704 
L 369.338395 139.458215 
L 369.439884 151.398954 
L 369.541372 136.366392 
L 369.642861 186.462223 
L 369.845837 156.859866 
L 369.947326 185.068295 
L 370.048814 147.903683 
L 370.150302 169.795377 
L 370.454768 130.287873 
L 370.556256 133.631844 
L 370.759233 148.587282 
L 370.860721 149.086013 
L 371.063698 104.34149 
L 371.165186 168.562583 
L 371.266675 151.019457 
L 371.368163 180.578497 
L 371.469651 96.700436 
L 371.57114 175.239892 
L 371.672628 121.152328 
L 371.774116 185.265385 
L 371.977093 145.197448 
L 372.078582 180.38539 
L 372.18007 106.645095 
L 372.281558 148.404901 
L 372.383047 92.948287 
L 372.586023 187.358779 
L 372.687512 186.662196 
L 372.890489 123.673086 
L 373.093465 173.531215 
L 373.194954 161.561515 
L 373.296442 165.749721 
L 373.499419 112.32911 
L 373.702396 186.352483 
L 373.905372 130.316873 
L 374.209837 165.52928 
L 374.412814 110.768246 
L 374.615791 159.544764 
L 374.818768 175.637064 
L 374.920256 118.958992 
L 375.224721 141.474557 
L 375.427698 111.33755 
L 375.529186 181.698942 
L 375.833651 135.127174 
L 375.93514 135.077766 
L 376.138117 203.633678 
L 376.239605 181.860726 
L 376.341093 198.849329 
L 376.54407 162.53583 
L 376.747047 122.906944 
L 376.848535 145.657352 
L 376.950024 145.384865 
L 377.051512 95.264295 
L 377.254489 143.681423 
L 377.355977 116.36677 
L 377.558954 145.493282 
L 377.660442 155.59476 
L 377.761931 141.161863 
L 377.863419 157.794147 
L 377.964907 148.910721 
L 378.066396 168.327853 
L 378.167884 119.658985 
L 378.269372 151.98576 
L 378.370861 147.635635 
L 378.472349 177.904876 
L 378.675326 110.619831 
L 378.878303 162.362189 
L 378.979791 155.881305 
L 379.081279 154.308535 
L 379.182768 158.817851 
L 379.284256 152.157048 
L 379.385745 116.471798 
L 379.588721 167.029699 
L 379.69021 173.427739 
L 379.791698 159.961224 
L 379.893186 89.817234 
L 380.096163 129.166316 
L 380.197652 121.878487 
L 380.29914 161.430618 
L 380.400628 157.482309 
L 380.502117 116.257495 
L 380.705093 154.473448 
L 380.806582 115.334034 
L 380.90807 177.836111 
L 381.009559 119.981899 
L 381.212535 162.640117 
L 381.415512 134.803593 
L 381.517 157.226292 
L 381.618489 126.618219 
L 381.719977 163.935193 
L 381.821466 137.539964 
L 381.922954 177.747852 
L 382.125931 144.784118 
L 382.328907 180.085082 
L 382.430396 118.228331 
L 382.531884 128.313576 
L 382.633373 161.550841 
L 382.734861 134.793938 
L 382.836349 170.858148 
L 382.937838 103.55541 
L 383.039326 163.983574 
L 383.140814 103.858101 
L 383.343791 144.867107 
L 383.44528 193.329883 
L 383.648256 153.879897 
L 383.851233 154.991316 
L 383.952721 191.602773 
L 384.05421 96.862613 
L 384.257187 145.092596 
L 384.358675 178.51317 
L 384.460163 133.500264 
L 384.561652 165.648078 
L 384.66314 161.259979 
L 384.764628 146.540897 
L 384.967605 108.228169 
L 385.069094 182.168759 
L 385.27207 137.075519 
L 385.373559 124.537575 
L 385.576535 148.652569 
L 385.779512 118.715462 
L 385.881001 117.982412 
L 385.982489 166.156119 
L 386.489931 130.04297 
L 386.794396 147.112726 
L 386.895884 132.187909 
L 386.997373 136.368982 
L 387.200349 107.471123 
L 387.403326 159.067083 
L 387.504815 137.249644 
L 387.606303 156.026025 
L 387.707791 116.827599 
L 387.80928 188.241651 
L 388.012256 143.810825 
L 388.215233 194.682702 
L 388.519698 129.095294 
L 388.621187 131.510218 
L 388.722675 152.440428 
L 388.824163 136.041463 
L 388.925652 172.683048 
L 389.128629 149.838864 
L 389.230117 101.921007 
L 389.331605 180.979066 
L 389.534582 133.291973 
L 389.63607 189.945197 
L 389.839047 132.546826 
L 389.940536 155.234138 
L 390.042024 142.322152 
L 390.346489 218.298571 
L 390.549466 137.329329 
L 390.650954 155.155787 
L 390.955419 119.031824 
L 391.056908 142.016876 
L 391.158396 98.469557 
L 391.462861 182.826192 
L 391.56435 151.47438 
L 391.665838 163.364857 
L 391.767326 116.477982 
L 391.868815 158.675777 
L 391.970303 137.332146 
L 392.071791 152.989572 
L 392.17328 143.525256 
L 392.274768 154.738927 
L 392.376257 144.410871 
L 392.477745 122.676665 
L 392.579233 130.271624 
L 392.680722 188.733219 
L 392.78221 172.063503 
L 392.883698 132.950429 
L 392.985187 156.081771 
L 393.086675 107.543497 
L 393.289652 170.539054 
L 393.39114 137.851579 
L 393.594117 163.760508 
L 393.695605 156.134387 
L 393.797094 125.734264 
L 393.898582 139.371847 
L 394.000071 125.90317 
L 394.101559 170.703997 
L 394.203047 122.782861 
L 394.507512 179.39641 
L 394.609001 117.714787 
L 394.710489 142.845116 
L 394.811978 135.447674 
L 394.913466 176.280361 
L 395.014954 145.19189 
L 395.116443 169.178753 
L 395.217931 136.201248 
L 395.319419 150.306777 
L 395.420908 207.715619 
L 395.725373 145.041912 
L 395.92835 163.28939 
L 396.029838 148.01552 
L 396.131326 170.497426 
L 396.334303 121.314743 
L 396.53728 161.00483 
L 396.740257 97.445714 
L 396.841745 177.580574 
L 396.943233 112.564073 
L 397.044722 128.599593 
L 397.247699 113.44532 
L 397.349187 148.04934 
L 397.450675 133.369653 
L 397.552164 148.224607 
L 397.653652 189.908391 
L 397.958117 126.3873 
L 398.161094 175.811735 
L 398.364071 119.188015 
L 398.465559 142.241028 
L 398.567047 140.921945 
L 398.668536 148.376531 
L 398.770024 164.545744 
L 398.973001 136.63349 
L 399.074489 170.619745 
L 399.175978 110.548107 
L 399.378954 206.439113 
L 399.480443 126.051818 
L 399.581931 175.576606 
L 399.987885 144.047509 
L 400.089373 183.111897 
L 400.29235 143.783208 
L 400.393838 184.923467 
L 400.596815 119.557261 
L 400.698303 141.855928 
L 400.799792 112.329765 
L 400.90128 130.188135 
L 401.002768 127.40722 
L 401.104257 195.429253 
L 401.205745 125.479188 
L 401.307234 155.392703 
L 401.611699 144.978134 
L 401.713187 125.046511 
L 401.814675 143.889589 
L 401.916164 98.629167 
L 402.119141 144.938121 
L 402.220629 102.939698 
L 402.423606 174.427948 
L 402.525094 90.526869 
L 402.626582 154.951015 
L 402.728071 146.967614 
L 402.829559 104.957238 
L 403.032536 172.017415 
L 403.134024 183.827909 
L 403.337001 113.87885 
L 403.539978 174.168641 
L 403.844443 137.648546 
L 404.04742 168.27699 
L 404.148908 142.084897 
L 404.250396 161.608506 
L 404.351885 159.601834 
L 404.453373 143.604605 
L 404.554862 148.129012 
L 404.757838 175.71889 
L 404.859327 175.54044 
L 405.062303 147.253358 
L 405.163792 137.814739 
L 405.26528 165.029104 
L 405.366769 144.131032 
L 405.468257 169.202905 
L 405.569745 167.531162 
L 405.671234 128.030354 
L 405.772722 134.306753 
L 405.87421 154.718357 
L 406.077187 117.824986 
L 406.178676 172.68663 
L 406.381652 112.911538 
L 406.584629 164.207415 
L 406.686117 168.484791 
L 406.787606 123.650802 
L 406.889094 133.055168 
L 406.990583 123.145126 
L 407.092071 168.810858 
L 407.396536 131.954959 
L 407.599513 167.31515 
L 407.701001 144.941361 
L 407.80249 150.376743 
L 407.903978 139.416978 
L 408.005466 169.334995 
L 408.106955 112.898429 
L 408.208443 160.651575 
L 408.309931 151.479928 
L 408.41142 99.881949 
L 408.512908 167.436221 
L 408.817373 113.302856 
L 409.02035 171.219998 
L 409.121838 198.039975 
L 409.223327 114.561517 
L 409.426304 179.629051 
L 409.527792 97.222927 
L 409.62928 194.510264 
L 409.730769 146.308722 
L 409.832257 184.905576 
L 409.933745 135.522212 
L 410.035234 144.983553 
L 410.136722 124.264372 
L 410.238211 147.207087 
L 410.339699 145.426557 
L 410.441187 159.429071 
L 410.542676 149.947778 
L 410.644164 127.233516 
L 410.745652 202.170605 
L 411.050118 110.539755 
L 411.151606 163.708386 
L 411.456071 102.851368 
L 411.659048 181.396592 
L 411.760536 158.736447 
L 411.862025 97.435721 
L 412.065001 144.845522 
L 412.16649 141.615075 
L 412.369466 171.972665 
L 412.572443 112.221481 
L 412.572443 112.221481 
" style="fill:none;stroke:#1f77b4;stroke-linecap:square;stroke-width:1.5;"/>
   </g>
   <g id="matplotlib.axis_1">
    <g id="xtick_1">
     <g id="line2d_2">
      <defs>
       <path d="M 0 0 
L 0 3.5 
" id="m6cbd5b64e9" style="stroke:#000000;stroke-width:0.8;"/>
      </defs>
      <g>
       <use style="stroke:#000000;stroke-width:0.8;" x="108.208807" xlink:href="#m6cbd5b64e9" y="254.83575"/>
      </g>
     </g>
     <g id="text_1">
      <!-- 0 -->
      <g transform="translate(99.937557 281.591687)scale(0.26 -0.26)">
       <defs>
        <path d="M 31.78125 66.40625 
Q 24.171875 66.40625 20.328125 58.90625 
Q 16.5 51.421875 16.5 36.375 
Q 16.5 21.390625 20.328125 13.890625 
Q 24.171875 6.390625 31.78125 6.390625 
Q 39.453125 6.390625 43.28125 13.890625 
Q 47.125 21.390625 47.125 36.375 
Q 47.125 51.421875 43.28125 58.90625 
Q 39.453125 66.40625 31.78125 66.40625 
z
M 31.78125 74.21875 
Q 44.046875 74.21875 50.515625 64.515625 
Q 56.984375 54.828125 56.984375 36.375 
Q 56.984375 17.96875 50.515625 8.265625 
Q 44.046875 -1.421875 31.78125 -1.421875 
Q 19.53125 -1.421875 13.0625 8.265625 
Q 6.59375 17.96875 6.59375 36.375 
Q 6.59375 54.828125 13.0625 64.515625 
Q 19.53125 74.21875 31.78125 74.21875 
z
" id="DejaVuSans-48"/>
       </defs>
       <use xlink:href="#DejaVuSans-48"/>
      </g>
     </g>
    </g>
    <g id="xtick_2">
     <g id="line2d_3">
      <g>
       <use style="stroke:#000000;stroke-width:0.8;" x="209.697182" xlink:href="#m6cbd5b64e9" y="254.83575"/>
      </g>
     </g>
     <g id="text_2">
      <!-- 1 -->
      <g transform="translate(201.425932 281.591687)scale(0.26 -0.26)">
       <defs>
        <path d="M 12.40625 8.296875 
L 28.515625 8.296875 
L 28.515625 63.921875 
L 10.984375 60.40625 
L 10.984375 69.390625 
L 28.421875 72.90625 
L 38.28125 72.90625 
L 38.28125 8.296875 
L 54.390625 8.296875 
L 54.390625 0 
L 12.40625 0 
z
" id="DejaVuSans-49"/>
       </defs>
       <use xlink:href="#DejaVuSans-49"/>
      </g>
     </g>
    </g>
    <g id="xtick_3">
     <g id="line2d_4">
      <g>
       <use style="stroke:#000000;stroke-width:0.8;" x="311.185557" xlink:href="#m6cbd5b64e9" y="254.83575"/>
      </g>
     </g>
     <g id="text_3">
      <!-- 2 -->
      <g transform="translate(302.914307 281.591687)scale(0.26 -0.26)">
       <defs>
        <path d="M 19.1875 8.296875 
L 53.609375 8.296875 
L 53.609375 0 
L 7.328125 0 
L 7.328125 8.296875 
Q 12.9375 14.109375 22.625 23.890625 
Q 32.328125 33.6875 34.8125 36.53125 
Q 39.546875 41.84375 41.421875 45.53125 
Q 43.3125 49.21875 43.3125 52.78125 
Q 43.3125 58.59375 39.234375 62.25 
Q 35.15625 65.921875 28.609375 65.921875 
Q 23.96875 65.921875 18.8125 64.3125 
Q 13.671875 62.703125 7.8125 59.421875 
L 7.8125 69.390625 
Q 13.765625 71.78125 18.9375 73 
Q 24.125 74.21875 28.421875 74.21875 
Q 39.75 74.21875 46.484375 68.546875 
Q 53.21875 62.890625 53.21875 53.421875 
Q 53.21875 48.921875 51.53125 44.890625 
Q 49.859375 40.875 45.40625 35.40625 
Q 44.1875 33.984375 37.640625 27.21875 
Q 31.109375 20.453125 19.1875 8.296875 
z
" id="DejaVuSans-50"/>
       </defs>
       <use xlink:href="#DejaVuSans-50"/>
      </g>
     </g>
    </g>
    <g id="xtick_4">
     <g id="line2d_5">
      <g>
       <use style="stroke:#000000;stroke-width:0.8;" x="412.673932" xlink:href="#m6cbd5b64e9" y="254.83575"/>
      </g>
     </g>
     <g id="text_4">
      <!-- 3 -->
      <g transform="translate(404.402682 281.591687)scale(0.26 -0.26)">
       <defs>
        <path d="M 40.578125 39.3125 
Q 47.65625 37.796875 51.625 33 
Q 55.609375 28.21875 55.609375 21.1875 
Q 55.609375 10.40625 48.1875 4.484375 
Q 40.765625 -1.421875 27.09375 -1.421875 
Q 22.515625 -1.421875 17.65625 -0.515625 
Q 12.796875 0.390625 7.625 2.203125 
L 7.625 11.71875 
Q 11.71875 9.328125 16.59375 8.109375 
Q 21.484375 6.890625 26.8125 6.890625 
Q 36.078125 6.890625 40.9375 10.546875 
Q 45.796875 14.203125 45.796875 21.1875 
Q 45.796875 27.640625 41.28125 31.265625 
Q 36.765625 34.90625 28.71875 34.90625 
L 20.21875 34.90625 
L 20.21875 43.015625 
L 29.109375 43.015625 
Q 36.375 43.015625 40.234375 45.921875 
Q 44.09375 48.828125 44.09375 54.296875 
Q 44.09375 59.90625 40.109375 62.90625 
Q 36.140625 65.921875 28.71875 65.921875 
Q 24.65625 65.921875 20.015625 65.03125 
Q 15.375 64.15625 9.8125 62.3125 
L 9.8125 71.09375 
Q 15.4375 72.65625 20.34375 73.4375 
Q 25.25 74.21875 29.59375 74.21875 
Q 40.828125 74.21875 47.359375 69.109375 
Q 53.90625 64.015625 53.90625 55.328125 
Q 53.90625 49.265625 50.4375 45.09375 
Q 46.96875 40.921875 40.578125 39.3125 
z
" id="DejaVuSans-51"/>
       </defs>
       <use xlink:href="#DejaVuSans-51"/>
      </g>
     </g>
    </g>
    <g id="text_5">
     <!-- time (s) -->
     <g transform="translate(209.972969 310.754812)scale(0.26 -0.26)">
      <defs>
       <path d="M 18.3125 70.21875 
L 18.3125 54.6875 
L 36.8125 54.6875 
L 36.8125 47.703125 
L 18.3125 47.703125 
L 18.3125 18.015625 
Q 18.3125 11.328125 20.140625 9.421875 
Q 21.96875 7.515625 27.59375 7.515625 
L 36.8125 7.515625 
L 36.8125 0 
L 27.59375 0 
Q 17.1875 0 13.234375 3.875 
Q 9.28125 7.765625 9.28125 18.015625 
L 9.28125 47.703125 
L 2.6875 47.703125 
L 2.6875 54.6875 
L 9.28125 54.6875 
L 9.28125 70.21875 
z
" id="DejaVuSans-116"/>
       <path d="M 9.421875 54.6875 
L 18.40625 54.6875 
L 18.40625 0 
L 9.421875 0 
z
M 9.421875 75.984375 
L 18.40625 75.984375 
L 18.40625 64.59375 
L 9.421875 64.59375 
z
" id="DejaVuSans-105"/>
       <path d="M 52 44.1875 
Q 55.375 50.25 60.0625 53.125 
Q 64.75 56 71.09375 56 
Q 79.640625 56 84.28125 50.015625 
Q 88.921875 44.046875 88.921875 33.015625 
L 88.921875 0 
L 79.890625 0 
L 79.890625 32.71875 
Q 79.890625 40.578125 77.09375 44.375 
Q 74.3125 48.1875 68.609375 48.1875 
Q 61.625 48.1875 57.5625 43.546875 
Q 53.515625 38.921875 53.515625 30.90625 
L 53.515625 0 
L 44.484375 0 
L 44.484375 32.71875 
Q 44.484375 40.625 41.703125 44.40625 
Q 38.921875 48.1875 33.109375 48.1875 
Q 26.21875 48.1875 22.15625 43.53125 
Q 18.109375 38.875 18.109375 30.90625 
L 18.109375 0 
L 9.078125 0 
L 9.078125 54.6875 
L 18.109375 54.6875 
L 18.109375 46.1875 
Q 21.1875 51.21875 25.484375 53.609375 
Q 29.78125 56 35.6875 56 
Q 41.65625 56 45.828125 52.96875 
Q 50 49.953125 52 44.1875 
z
" id="DejaVuSans-109"/>
       <path d="M 56.203125 29.59375 
L 56.203125 25.203125 
L 14.890625 25.203125 
Q 15.484375 15.921875 20.484375 11.0625 
Q 25.484375 6.203125 34.421875 6.203125 
Q 39.59375 6.203125 44.453125 7.46875 
Q 49.3125 8.734375 54.109375 11.28125 
L 54.109375 2.78125 
Q 49.265625 0.734375 44.1875 -0.34375 
Q 39.109375 -1.421875 33.890625 -1.421875 
Q 20.796875 -1.421875 13.15625 6.1875 
Q 5.515625 13.8125 5.515625 26.8125 
Q 5.515625 40.234375 12.765625 48.109375 
Q 20.015625 56 32.328125 56 
Q 43.359375 56 49.78125 48.890625 
Q 56.203125 41.796875 56.203125 29.59375 
z
M 47.21875 32.234375 
Q 47.125 39.59375 43.09375 43.984375 
Q 39.0625 48.390625 32.421875 48.390625 
Q 24.90625 48.390625 20.390625 44.140625 
Q 15.875 39.890625 15.1875 32.171875 
z
" id="DejaVuSans-101"/>
       <path id="DejaVuSans-32"/>
       <path d="M 31 75.875 
Q 24.46875 64.65625 21.28125 53.65625 
Q 18.109375 42.671875 18.109375 31.390625 
Q 18.109375 20.125 21.3125 9.0625 
Q 24.515625 -2 31 -13.1875 
L 23.1875 -13.1875 
Q 15.875 -1.703125 12.234375 9.375 
Q 8.59375 20.453125 8.59375 31.390625 
Q 8.59375 42.28125 12.203125 53.3125 
Q 15.828125 64.359375 23.1875 75.875 
z
" id="DejaVuSans-40"/>
       <path d="M 44.28125 53.078125 
L 44.28125 44.578125 
Q 40.484375 46.53125 36.375 47.5 
Q 32.28125 48.484375 27.875 48.484375 
Q 21.1875 48.484375 17.84375 46.4375 
Q 14.5 44.390625 14.5 40.28125 
Q 14.5 37.15625 16.890625 35.375 
Q 19.28125 33.59375 26.515625 31.984375 
L 29.59375 31.296875 
Q 39.15625 29.25 43.1875 25.515625 
Q 47.21875 21.78125 47.21875 15.09375 
Q 47.21875 7.46875 41.1875 3.015625 
Q 35.15625 -1.421875 24.609375 -1.421875 
Q 20.21875 -1.421875 15.453125 -0.5625 
Q 10.6875 0.296875 5.421875 2 
L 5.421875 11.28125 
Q 10.40625 8.6875 15.234375 7.390625 
Q 20.0625 6.109375 24.8125 6.109375 
Q 31.15625 6.109375 34.5625 8.28125 
Q 37.984375 10.453125 37.984375 14.40625 
Q 37.984375 18.0625 35.515625 20.015625 
Q 33.0625 21.96875 24.703125 23.78125 
L 21.578125 24.515625 
Q 13.234375 26.265625 9.515625 29.90625 
Q 5.8125 33.546875 5.8125 39.890625 
Q 5.8125 47.609375 11.28125 51.796875 
Q 16.75 56 26.8125 56 
Q 31.78125 56 36.171875 55.265625 
Q 40.578125 54.546875 44.28125 53.078125 
z
" id="DejaVuSans-115"/>
       <path d="M 8.015625 75.875 
L 15.828125 75.875 
Q 23.140625 64.359375 26.78125 53.3125 
Q 30.421875 42.28125 30.421875 31.390625 
Q 30.421875 20.453125 26.78125 9.375 
Q 23.140625 -1.703125 15.828125 -13.1875 
L 8.015625 -13.1875 
Q 14.5 -2 17.703125 9.0625 
Q 20.90625 20.125 20.90625 31.390625 
Q 20.90625 42.671875 17.703125 53.65625 
Q 14.5 64.65625 8.015625 75.875 
z
" id="DejaVuSans-41"/>
      </defs>
      <use xlink:href="#DejaVuSans-116"/>
      <use x="39.208984" xlink:href="#DejaVuSans-105"/>
      <use x="66.992188" xlink:href="#DejaVuSans-109"/>
      <use x="164.404297" xlink:href="#DejaVuSans-101"/>
      <use x="225.927734" xlink:href="#DejaVuSans-32"/>
      <use x="257.714844" xlink:href="#DejaVuSans-40"/>
      <use x="296.728516" xlink:href="#DejaVuSans-115"/>
      <use x="348.828125" xlink:href="#DejaVuSans-41"/>
     </g>
    </g>
   </g>
   <g id="matplotlib.axis_2">
    <g id="ytick_1">
     <g id="line2d_6">
      <defs>
       <path d="M 0 0 
L -3.5 0 
" id="m3cdbe7f9e7" style="stroke:#000000;stroke-width:0.8;"/>
      </defs>
      <g>
       <use style="stroke:#000000;stroke-width:0.8;" x="92.990625" xlink:href="#m3cdbe7f9e7" y="222.21975"/>
      </g>
     </g>
     <g id="text_6">
      <!-- 150 -->
      <g transform="translate(36.363125 232.097719)scale(0.26 -0.26)">
       <defs>
        <path d="M 10.796875 72.90625 
L 49.515625 72.90625 
L 49.515625 64.59375 
L 19.828125 64.59375 
L 19.828125 46.734375 
Q 21.96875 47.46875 24.109375 47.828125 
Q 26.265625 48.1875 28.421875 48.1875 
Q 40.625 48.1875 47.75 41.5 
Q 54.890625 34.8125 54.890625 23.390625 
Q 54.890625 11.625 47.5625 5.09375 
Q 40.234375 -1.421875 26.90625 -1.421875 
Q 22.3125 -1.421875 17.546875 -0.640625 
Q 12.796875 0.140625 7.71875 1.703125 
L 7.71875 11.625 
Q 12.109375 9.234375 16.796875 8.0625 
Q 21.484375 6.890625 26.703125 6.890625 
Q 35.15625 6.890625 40.078125 11.328125 
Q 45.015625 15.765625 45.015625 23.390625 
Q 45.015625 31 40.078125 35.4375 
Q 35.15625 39.890625 26.703125 39.890625 
Q 22.75 39.890625 18.8125 39.015625 
Q 14.890625 38.140625 10.796875 36.28125 
z
" id="DejaVuSans-53"/>
       </defs>
       <use xlink:href="#DejaVuSans-49"/>
       <use x="63.623047" xlink:href="#DejaVuSans-53"/>
       <use x="127.246094" xlink:href="#DejaVuSans-48"/>
      </g>
     </g>
    </g>
    <g id="ytick_2">
     <g id="line2d_7">
      <g>
       <use style="stroke:#000000;stroke-width:0.8;" x="92.990625" xlink:href="#m3cdbe7f9e7" y="167.85975"/>
      </g>
     </g>
     <g id="text_7">
      <!-- 200 -->
      <g transform="translate(36.363125 177.737719)scale(0.26 -0.26)">
       <use xlink:href="#DejaVuSans-50"/>
       <use x="63.623047" xlink:href="#DejaVuSans-48"/>
       <use x="127.246094" xlink:href="#DejaVuSans-48"/>
      </g>
     </g>
    </g>
    <g id="ytick_3">
     <g id="line2d_8">
      <g>
       <use style="stroke:#000000;stroke-width:0.8;" x="92.990625" xlink:href="#m3cdbe7f9e7" y="113.49975"/>
      </g>
     </g>
     <g id="text_8">
      <!-- 250 -->
      <g transform="translate(36.363125 123.377719)scale(0.26 -0.26)">
       <use xlink:href="#DejaVuSans-50"/>
       <use x="63.623047" xlink:href="#DejaVuSans-53"/>
       <use x="127.246094" xlink:href="#DejaVuSans-48"/>
      </g>
     </g>
    </g>
    <g id="ytick_4">
     <g id="line2d_9">
      <g>
       <use style="stroke:#000000;stroke-width:0.8;" x="92.990625" xlink:href="#m3cdbe7f9e7" y="59.13975"/>
      </g>
     </g>
     <g id="text_9">
      <!-- 300 -->
      <g transform="translate(36.363125 69.017719)scale(0.26 -0.26)">
       <use xlink:href="#DejaVuSans-51"/>
       <use x="63.623047" xlink:href="#DejaVuSans-48"/>
       <use x="127.246094" xlink:href="#DejaVuSans-48"/>
      </g>
     </g>
    </g>
    <g id="text_10">
     <!-- amplitude (a.u.) -->
     <g transform="translate(26.955938 250.552469)rotate(-90)scale(0.26 -0.26)">
      <defs>
       <path d="M 34.28125 27.484375 
Q 23.390625 27.484375 19.1875 25 
Q 14.984375 22.515625 14.984375 16.5 
Q 14.984375 11.71875 18.140625 8.90625 
Q 21.296875 6.109375 26.703125 6.109375 
Q 34.1875 6.109375 38.703125 11.40625 
Q 43.21875 16.703125 43.21875 25.484375 
L 43.21875 27.484375 
z
M 52.203125 31.203125 
L 52.203125 0 
L 43.21875 0 
L 43.21875 8.296875 
Q 40.140625 3.328125 35.546875 0.953125 
Q 30.953125 -1.421875 24.3125 -1.421875 
Q 15.921875 -1.421875 10.953125 3.296875 
Q 6 8.015625 6 15.921875 
Q 6 25.140625 12.171875 29.828125 
Q 18.359375 34.515625 30.609375 34.515625 
L 43.21875 34.515625 
L 43.21875 35.40625 
Q 43.21875 41.609375 39.140625 45 
Q 35.0625 48.390625 27.6875 48.390625 
Q 23 48.390625 18.546875 47.265625 
Q 14.109375 46.140625 10.015625 43.890625 
L 10.015625 52.203125 
Q 14.9375 54.109375 19.578125 55.046875 
Q 24.21875 56 28.609375 56 
Q 40.484375 56 46.34375 49.84375 
Q 52.203125 43.703125 52.203125 31.203125 
z
" id="DejaVuSans-97"/>
       <path d="M 18.109375 8.203125 
L 18.109375 -20.796875 
L 9.078125 -20.796875 
L 9.078125 54.6875 
L 18.109375 54.6875 
L 18.109375 46.390625 
Q 20.953125 51.265625 25.265625 53.625 
Q 29.59375 56 35.59375 56 
Q 45.5625 56 51.78125 48.09375 
Q 58.015625 40.1875 58.015625 27.296875 
Q 58.015625 14.40625 51.78125 6.484375 
Q 45.5625 -1.421875 35.59375 -1.421875 
Q 29.59375 -1.421875 25.265625 0.953125 
Q 20.953125 3.328125 18.109375 8.203125 
z
M 48.6875 27.296875 
Q 48.6875 37.203125 44.609375 42.84375 
Q 40.53125 48.484375 33.40625 48.484375 
Q 26.265625 48.484375 22.1875 42.84375 
Q 18.109375 37.203125 18.109375 27.296875 
Q 18.109375 17.390625 22.1875 11.75 
Q 26.265625 6.109375 33.40625 6.109375 
Q 40.53125 6.109375 44.609375 11.75 
Q 48.6875 17.390625 48.6875 27.296875 
z
" id="DejaVuSans-112"/>
       <path d="M 9.421875 75.984375 
L 18.40625 75.984375 
L 18.40625 0 
L 9.421875 0 
z
" id="DejaVuSans-108"/>
       <path d="M 8.5 21.578125 
L 8.5 54.6875 
L 17.484375 54.6875 
L 17.484375 21.921875 
Q 17.484375 14.15625 20.5 10.265625 
Q 23.53125 6.390625 29.59375 6.390625 
Q 36.859375 6.390625 41.078125 11.03125 
Q 45.3125 15.671875 45.3125 23.6875 
L 45.3125 54.6875 
L 54.296875 54.6875 
L 54.296875 0 
L 45.3125 0 
L 45.3125 8.40625 
Q 42.046875 3.421875 37.71875 1 
Q 33.40625 -1.421875 27.6875 -1.421875 
Q 18.265625 -1.421875 13.375 4.4375 
Q 8.5 10.296875 8.5 21.578125 
z
M 31.109375 56 
z
" id="DejaVuSans-117"/>
       <path d="M 45.40625 46.390625 
L 45.40625 75.984375 
L 54.390625 75.984375 
L 54.390625 0 
L 45.40625 0 
L 45.40625 8.203125 
Q 42.578125 3.328125 38.25 0.953125 
Q 33.9375 -1.421875 27.875 -1.421875 
Q 17.96875 -1.421875 11.734375 6.484375 
Q 5.515625 14.40625 5.515625 27.296875 
Q 5.515625 40.1875 11.734375 48.09375 
Q 17.96875 56 27.875 56 
Q 33.9375 56 38.25 53.625 
Q 42.578125 51.265625 45.40625 46.390625 
z
M 14.796875 27.296875 
Q 14.796875 17.390625 18.875 11.75 
Q 22.953125 6.109375 30.078125 6.109375 
Q 37.203125 6.109375 41.296875 11.75 
Q 45.40625 17.390625 45.40625 27.296875 
Q 45.40625 37.203125 41.296875 42.84375 
Q 37.203125 48.484375 30.078125 48.484375 
Q 22.953125 48.484375 18.875 42.84375 
Q 14.796875 37.203125 14.796875 27.296875 
z
" id="DejaVuSans-100"/>
       <path d="M 10.6875 12.40625 
L 21 12.40625 
L 21 0 
L 10.6875 0 
z
" id="DejaVuSans-46"/>
      </defs>
      <use xlink:href="#DejaVuSans-97"/>
      <use x="61.279297" xlink:href="#DejaVuSans-109"/>
      <use x="158.691406" xlink:href="#DejaVuSans-112"/>
      <use x="222.167969" xlink:href="#DejaVuSans-108"/>
      <use x="249.951172" xlink:href="#DejaVuSans-105"/>
      <use x="277.734375" xlink:href="#DejaVuSans-116"/>
      <use x="316.943359" xlink:href="#DejaVuSans-117"/>
      <use x="380.322266" xlink:href="#DejaVuSans-100"/>
      <use x="443.798828" xlink:href="#DejaVuSans-101"/>
      <use x="505.322266" xlink:href="#DejaVuSans-32"/>
      <use x="537.109375" xlink:href="#DejaVuSans-40"/>
      <use x="576.123047" xlink:href="#DejaVuSans-97"/>
      <use x="637.402344" xlink:href="#DejaVuSans-46"/>
      <use x="669.189453" xlink:href="#DejaVuSans-117"/>
      <use x="732.568359" xlink:href="#DejaVuSans-46"/>
      <use x="764.355469" xlink:href="#DejaVuSans-41"/>
     </g>
    </g>
   </g>
   <g id="line2d_10">
    <path clip-path="url(#p1d5e746295)" d="M 108.208807 146.11575 
L 412.572443 146.017526 
L 412.572443 146.017526 
" style="fill:none;stroke:#ff7f0e;stroke-linecap:square;stroke-width:1.5;"/>
   </g>
   <g id="patch_3">
    <path d="M 92.990625 254.83575 
L 92.990625 37.39575 
" style="fill:none;stroke:#000000;stroke-linecap:square;stroke-linejoin:miter;stroke-width:0.8;"/>
   </g>
   <g id="patch_4">
    <path d="M 427.790625 254.83575 
L 427.790625 37.39575 
" style="fill:none;stroke:#000000;stroke-linecap:square;stroke-linejoin:miter;stroke-width:0.8;"/>
   </g>
   <g id="patch_5">
    <path d="M 92.990625 254.83575 
L 427.790625 254.83575 
" style="fill:none;stroke:#000000;stroke-linecap:square;stroke-linejoin:miter;stroke-width:0.8;"/>
   </g>
   <g id="patch_6">
    <path d="M 92.990625 37.39575 
L 427.790625 37.39575 
" style="fill:none;stroke:#000000;stroke-linecap:square;stroke-linejoin:miter;stroke-width:0.8;"/>
   </g>
   <g id="text_11">
    <!-- $p(t)$ -->
    <g transform="translate(237.770625 30.84375)scale(0.312 -0.312)">
     <defs>
      <path d="M 21.5 42.796875 
L 18.59375 32.796875 
Q 26.09375 44.09375 35.703125 44.09375 
Q 41.203125 44.09375 44.203125 40.796875 
Q 47.203125 37.5 47.203125 31.59375 
Q 47.203125 19.296875 37.84375 9.09375 
Q 28.5 -1.09375 17.5 -1.09375 
Q 13.90625 -1.09375 10.59375 0.59375 
Q 6.59375 -15.90625 6.59375 -16 
Q 6.59375 -17.59375 7.9375 -18.25 
Q 9.296875 -18.90625 12.796875 -18.90625 
L 12.796875 -20.5 
L -7.5 -20.5 
L -7.5 -18.90625 
Q -4.296875 -18.796875 -2.9375 -17.5 
Q -1.59375 -16.203125 -0.703125 -12.59375 
L 10.796875 30.59375 
Q 12.40625 36.40625 12.40625 37.703125 
Q 12.40625 40.40625 8 40.40625 
L 5.796875 40.40625 
L 5.59375 41.90625 
L 21.203125 44.09375 
Q 21.703125 44.09375 21.703125 43.703125 
Q 21.59375 43.203125 21.5 42.796875 
z
M 38.203125 31.296875 
Q 38.203125 35.703125 36.75 37.75 
Q 35.296875 39.796875 32 39.796875 
Q 28.09375 39.796875 24.1875 36.390625 
Q 20.296875 33 18.5 28.40625 
Q 16.296875 22.703125 14.140625 14.890625 
Q 12 7.09375 12 4.59375 
Q 12 2.90625 13.34375 1.84375 
Q 14.703125 0.796875 16.796875 0.796875 
Q 24.59375 0.796875 31.296875 10.296875 
Q 38.203125 19.90625 38.203125 31.296875 
z
" id="STIXGeneral-Italic-112"/>
      <path d="M 30.40625 -16.09375 
L 29.203125 -17.703125 
Q 17.59375 -11.09375 11.1875 0.5 
Q 4.796875 12.09375 4.796875 25.203125 
Q 4.796875 52.90625 29.5 67.59375 
L 30.40625 66 
Q 20.203125 57.296875 16.796875 48.84375 
Q 13.40625 40.40625 13.40625 25.5 
Q 13.40625 10.703125 16.90625 1.5 
Q 20.40625 -7.703125 30.40625 -16.09375 
z
" id="STIXGeneral-Regular-40"/>
      <path d="M 29.59375 42.796875 
L 29.09375 39.59375 
L 20.703125 39.59375 
L 12 6.796875 
Q 11.796875 6 11.796875 5.40625 
Q 11.796875 3.796875 13.296875 3.796875 
Q 14.5 3.796875 16.09375 5.34375 
Q 17.703125 6.90625 21.40625 11.703125 
L 22.703125 11 
Q 18.09375 4 15.140625 1.453125 
Q 12.203125 -1.09375 8.40625 -1.09375 
Q 3.796875 -1.09375 3.796875 2.59375 
Q 3.796875 3.59375 5.40625 10 
L 13.203125 39.59375 
L 5.703125 39.59375 
L 5.59375 40.203125 
Q 5.59375 42 8.90625 42.703125 
Q 11.40625 43.296875 15.5 46.546875 
Q 19.59375 49.796875 22.203125 53.703125 
Q 22.796875 54.59375 23.59375 54.59375 
Q 24.5 54.59375 24.5 53.796875 
Q 24.5 53.296875 24.40625 53.09375 
L 21.59375 42.796875 
z
" id="STIXGeneral-Italic-116"/>
      <path d="M 2.90625 66 
L 4.09375 67.59375 
Q 15.5 60.796875 22 49.1875 
Q 28.5 37.59375 28.5 24.703125 
Q 28.5 -2.59375 3.796875 -17.703125 
L 2.90625 -16.09375 
Q 13.203125 -7.59375 16.546875 0.84375 
Q 19.90625 9.296875 19.90625 24.40625 
Q 19.90625 39.59375 16.546875 48.75 
Q 13.203125 57.90625 2.90625 66 
z
" id="STIXGeneral-Regular-41"/>
     </defs>
     <use transform="translate(0 0.40625)" xlink:href="#STIXGeneral-Italic-112"/>
     <use transform="translate(50.399994 0.40625)" xlink:href="#STIXGeneral-Regular-40"/>
     <use transform="translate(83.699982 0.40625)" xlink:href="#STIXGeneral-Italic-116"/>
     <use transform="translate(111.499969 0.40625)" xlink:href="#STIXGeneral-Regular-41"/>
    </g>
   </g>
   <g id="legend_1">
    <g id="line2d_11">
     <path d="M 454.930625 58.451687 
L 506.930625 58.451687 
" style="fill:none;stroke:#1f77b4;stroke-linecap:square;stroke-width:1.5;"/>
    </g>
    <g id="line2d_12"/>
    <g id="text_12">
     <!-- exact -->
     <g transform="translate(527.730625 67.551687)scale(0.26 -0.26)">
      <defs>
       <path d="M 54.890625 54.6875 
L 35.109375 28.078125 
L 55.90625 0 
L 45.3125 0 
L 29.390625 21.484375 
L 13.484375 0 
L 2.875 0 
L 24.125 28.609375 
L 4.6875 54.6875 
L 15.28125 54.6875 
L 29.78125 35.203125 
L 44.28125 54.6875 
z
" id="DejaVuSans-120"/>
       <path d="M 48.78125 52.59375 
L 48.78125 44.1875 
Q 44.96875 46.296875 41.140625 47.34375 
Q 37.3125 48.390625 33.40625 48.390625 
Q 24.65625 48.390625 19.8125 42.84375 
Q 14.984375 37.3125 14.984375 27.296875 
Q 14.984375 17.28125 19.8125 11.734375 
Q 24.65625 6.203125 33.40625 6.203125 
Q 37.3125 6.203125 41.140625 7.25 
Q 44.96875 8.296875 48.78125 10.40625 
L 48.78125 2.09375 
Q 45.015625 0.34375 40.984375 -0.53125 
Q 36.96875 -1.421875 32.421875 -1.421875 
Q 20.0625 -1.421875 12.78125 6.34375 
Q 5.515625 14.109375 5.515625 27.296875 
Q 5.515625 40.671875 12.859375 48.328125 
Q 20.21875 56 33.015625 56 
Q 37.15625 56 41.109375 55.140625 
Q 45.0625 54.296875 48.78125 52.59375 
z
" id="DejaVuSans-99"/>
      </defs>
      <use xlink:href="#DejaVuSans-101"/>
      <use x="59.773438" xlink:href="#DejaVuSans-120"/>
      <use x="118.953125" xlink:href="#DejaVuSans-97"/>
      <use x="180.232422" xlink:href="#DejaVuSans-99"/>
      <use x="235.212891" xlink:href="#DejaVuSans-116"/>
     </g>
    </g>
    <g id="line2d_13">
     <path d="M 454.930625 96.614812 
L 506.930625 96.614812 
" style="fill:none;stroke:#ff7f0e;stroke-linecap:square;stroke-width:1.5;"/>
    </g>
    <g id="line2d_14"/>
    <g id="text_13">
     <!-- estimated -->
     <g transform="translate(527.730625 105.714812)scale(0.26 -0.26)">
      <use xlink:href="#DejaVuSans-101"/>
      <use x="61.523438" xlink:href="#DejaVuSans-115"/>
      <use x="113.623047" xlink:href="#DejaVuSans-116"/>
      <use x="152.832031" xlink:href="#DejaVuSans-105"/>
      <use x="180.615234" xlink:href="#DejaVuSans-109"/>
      <use x="278.027344" xlink:href="#DejaVuSans-97"/>
      <use x="339.306641" xlink:href="#DejaVuSans-116"/>
      <use x="378.515625" xlink:href="#DejaVuSans-101"/>
      <use x="440.039062" xlink:href="#DejaVuSans-100"/>
     </g>
    </g>
   </g>
  </g>
 </g>
 <defs>
  <clipPath id="p1d5e746295">
   <rect height="217.44" width="334.8" x="92.990625" y="37.39575"/>
  </clipPath>
 </defs>
</svg>
