<?xml version="1.0" encoding="utf-8" standalone="no"?>
<!DOCTYPE svg PUBLIC "-//W3C//DTD SVG 1.1//EN"
  "http://www.w3.org/Graphics/SVG/1.1/DTD/svg11.dtd">
<!-- Created with matplotlib (https://matplotlib.org/) -->
<svg height="323.362pt" version="1.1" viewBox="0 0 659.702188 323.362" width="659.702188pt" xmlns="http://www.w3.org/2000/svg" xmlns:xlink="http://www.w3.org/1999/xlink">
 <metadata>
  <rdf:RDF xmlns:cc="http://creativecommons.org/ns#" xmlns:dc="http://purl.org/dc/elements/1.1/" xmlns:rdf="http://www.w3.org/1999/02/22-rdf-syntax-ns#">
   <cc:Work>
    <dc:type rdf:resource="http://purl.org/dc/dcmitype/StillImage"/>
    <dc:date>2021-09-06T21:54:18.144485</dc:date>
    <dc:format>image/svg+xml</dc:format>
    <dc:creator>
     <cc:Agent>
      <dc:title>Matplotlib v3.3.2, https://matplotlib.org/</dc:title>
     </cc:Agent>
    </dc:creator>
   </cc:Work>
  </rdf:RDF>
 </metadata>
 <defs>
  <style type="text/css">*{stroke-linecap:butt;stroke-linejoin:round;}</style>
 </defs>
 <g id="figure_1">
  <g id="patch_1">
   <path d="M 0 323.362 
L 659.702188 323.362 
L 659.702188 0 
L 0 0 
z
" style="fill:#ffffff;"/>
  </g>
  <g id="axes_1">
   <g id="patch_2">
    <path d="M 76.448125 254.83575 
L 411.248125 254.83575 
L 411.248125 37.39575 
L 76.448125 37.39575 
z
" style="fill:#ffffff;"/>
   </g>
   <g id="line2d_1">
    <path clip-path="url(#pf223274fc7)" d="M 91.666307 143.703641 
L 91.869284 152.049331 
L 91.970772 148.493765 
L 92.07226 137.01583 
L 92.173749 162.011446 
L 92.275237 136.969516 
L 92.478214 148.115433 
L 92.579702 145.36898 
L 92.681191 147.312252 
L 92.782679 159.71349 
L 93.087144 139.558496 
L 93.188632 151.757518 
L 93.290121 147.452237 
L 93.391609 153.669905 
L 93.594586 140.791119 
L 93.899051 155.207585 
L 94.000539 144.947001 
L 94.102028 149.770428 
L 94.203516 147.29457 
L 94.406493 152.898666 
L 94.507981 147.078925 
L 94.60947 149.698486 
L 94.710958 139.604533 
L 94.812446 154.779311 
L 95.015423 149.497739 
L 95.116912 155.138211 
L 95.2184 143.750847 
L 95.319888 160.107123 
L 95.522865 144.288032 
L 95.624353 140.279734 
L 95.725842 154.189688 
L 96.030307 139.159919 
L 96.131795 138.228293 
L 96.233284 151.055831 
L 96.334772 150.872555 
L 96.43626 149.62408 
L 96.537749 160.057727 
L 96.740726 142.998327 
L 96.842214 140.121287 
L 96.943702 150.179548 
L 97.045191 134.725498 
L 97.146679 153.421588 
L 97.248167 153.168414 
L 97.349656 139.812101 
L 97.451144 151.281998 
L 97.654121 145.122609 
L 97.755609 145.091254 
L 97.857098 143.954421 
L 97.958586 149.728413 
L 98.060074 146.84054 
L 98.161563 161.562422 
L 98.263051 143.842977 
L 98.36454 161.208463 
L 98.466028 144.670822 
L 98.567516 144.87874 
L 98.770493 137.659992 
L 98.871981 141.533841 
L 98.97347 141.2076 
L 99.277935 151.683529 
L 99.379423 149.46326 
L 99.480912 136.914196 
L 99.683888 148.287432 
L 99.785377 147.749667 
L 99.886865 144.910929 
L 99.988354 147.314329 
L 100.089842 142.363408 
L 100.19133 153.818559 
L 100.292819 150.547103 
L 100.394307 156.936 
L 100.597284 142.469933 
L 100.698772 142.20984 
L 100.800261 147.73175 
L 100.901749 140.077026 
L 101.003237 150.560767 
L 101.104726 149.244095 
L 101.206214 139.604742 
L 101.307702 160.40237 
L 101.409191 137.490229 
L 101.510679 138.417807 
L 101.713656 145.214254 
L 101.815144 141.685015 
L 101.916633 154.964105 
L 102.119609 138.865871 
L 102.221098 141.607696 
L 102.322586 148.751629 
L 102.424075 145.236065 
L 102.627051 149.903166 
L 102.72854 152.351123 
L 102.830028 142.203839 
L 103.033005 152.902721 
L 103.134493 140.803376 
L 103.235982 151.415684 
L 103.33747 151.113907 
L 103.438958 145.27173 
L 103.540447 153.404318 
L 103.641935 140.369735 
L 103.743423 146.539047 
L 103.844912 136.85373 
L 104.047889 147.802256 
L 104.149377 155.655335 
L 104.352354 139.143574 
L 104.453842 148.995018 
L 104.55533 140.519612 
L 104.758307 150.780074 
L 104.859796 143.582219 
L 104.961284 144.642305 
L 105.062772 150.232647 
L 105.164261 136.827899 
L 105.265749 144.705905 
L 105.367237 144.633181 
L 105.468726 145.9499 
L 105.671703 142.21465 
L 105.773191 147.597063 
L 105.874679 139.784812 
L 105.976168 147.141082 
L 106.280633 137.637686 
L 106.382121 152.969918 
L 106.585098 142.679558 
L 106.686586 144.532703 
L 106.788075 150.634502 
L 106.889563 147.252368 
L 107.09254 154.580468 
L 107.194028 136.656657 
L 107.295517 152.50144 
L 107.599982 143.47795 
L 107.70147 155.182519 
L 107.904447 143.465907 
L 108.107424 147.392561 
L 108.3104 140.541969 
L 108.513377 151.968931 
L 108.614865 148.578769 
L 108.716354 148.859166 
L 108.817842 148.784484 
L 108.919331 148.199714 
L 109.020819 156.039164 
L 109.223796 144.1755 
L 109.325284 147.335437 
L 109.426772 155.838136 
L 109.528261 140.776393 
L 109.629749 153.739954 
L 109.731238 141.650942 
L 109.832726 144.012142 
L 110.035703 152.667668 
L 110.238679 136.159849 
L 110.340168 141.683091 
L 110.441656 151.945418 
L 110.543145 141.558052 
L 110.644633 157.53126 
L 110.746121 144.7911 
L 110.84761 146.305534 
L 111.152075 132.53945 
L 111.253563 161.544194 
L 111.45654 140.359531 
L 111.558028 140.905014 
L 111.659517 141.632345 
L 111.761005 159.830936 
L 111.862493 137.596179 
L 111.963982 147.217546 
L 112.06547 135.075883 
L 112.166959 146.462356 
L 112.369935 140.869922 
L 112.572912 158.315008 
L 112.6744 143.005635 
L 112.775889 146.344406 
L 112.877377 141.585495 
L 112.978866 146.819603 
L 113.181842 144.144951 
L 113.384819 153.474774 
L 113.486307 153.156508 
L 113.587796 141.917101 
L 113.790773 152.856808 
L 113.892261 136.968078 
L 113.993749 139.917853 
L 114.095238 154.410526 
L 114.196726 141.680375 
L 114.399703 154.544768 
L 114.501191 149.395835 
L 114.60268 149.422661 
L 114.704168 151.940455 
L 114.907145 146.039504 
L 115.008633 151.532513 
L 115.110121 146.753237 
L 115.21161 149.072636 
L 115.313098 155.354531 
L 115.414587 146.120439 
L 115.516075 151.540249 
L 115.617563 144.160895 
L 115.719052 149.935245 
L 115.82054 149.01013 
L 115.922028 150.247398 
L 116.023517 153.308694 
L 116.125005 149.01886 
L 116.226494 157.881585 
L 116.327982 143.904788 
L 116.42947 155.033688 
L 116.632447 139.804964 
L 116.936912 154.458399 
L 117.038401 144.563117 
L 117.139889 146.042765 
L 117.241377 157.950982 
L 117.342866 140.654855 
L 117.444354 141.361131 
L 117.545842 140.050468 
L 117.647331 146.609022 
L 117.748819 138.095893 
L 117.951796 150.025266 
L 118.154773 146.707676 
L 118.256261 148.604709 
L 118.357749 136.923122 
L 118.459238 148.024988 
L 118.560726 148.00603 
L 118.662215 146.12454 
L 118.763703 137.412004 
L 119.068168 148.072948 
L 119.169656 147.46784 
L 119.271145 149.254315 
L 119.372633 141.604916 
L 119.57561 150.028516 
L 119.677098 146.447752 
L 119.778587 147.950159 
L 119.880075 154.615337 
L 120.083052 143.303857 
L 120.18454 152.807971 
L 120.286029 142.644581 
L 120.387517 144.818503 
L 120.489005 137.817744 
L 120.691982 149.811868 
L 120.79347 149.021993 
L 120.894959 147.22305 
L 120.996447 150.159758 
L 121.097936 143.861188 
L 121.199424 146.073307 
L 121.402401 152.691847 
L 121.503889 147.891069 
L 121.605377 150.859106 
L 121.706866 136.542439 
L 121.808354 151.39647 
L 121.909843 137.77157 
L 122.011331 144.586012 
L 122.112819 139.386133 
L 122.214308 143.55059 
L 122.315796 139.768524 
L 122.518773 154.691861 
L 122.620261 143.738749 
L 122.72175 152.113547 
L 122.823238 142.595543 
L 122.924726 143.683843 
L 123.026215 146.913595 
L 123.127703 141.878621 
L 123.229191 149.814003 
L 123.33068 140.884949 
L 123.432168 150.783766 
L 123.533657 139.497422 
L 123.635145 144.540938 
L 123.736633 160.239547 
L 124.041098 137.487052 
L 124.142587 150.110886 
L 124.345564 141.076676 
L 124.447052 142.266654 
L 124.54854 152.952722 
L 124.650029 139.717463 
L 124.751517 156.554939 
L 124.853005 142.284496 
L 124.954494 152.061076 
L 125.258959 139.319303 
L 125.360447 145.111067 
L 125.461936 143.798019 
L 125.563424 146.0168 
L 125.664912 154.70033 
L 125.867889 141.343327 
L 125.969378 148.300755 
L 126.070866 143.565885 
L 126.172354 154.27849 
L 126.273843 144.106137 
L 126.375331 151.061049 
L 126.476819 142.146236 
L 126.578308 150.360386 
L 126.679796 143.011557 
L 126.781285 149.911257 
L 126.882773 135.959614 
L 126.984261 145.824223 
L 127.08575 131.25254 
L 127.288726 153.580919 
L 127.390215 143.24593 
L 127.491703 154.784289 
L 127.593192 143.335331 
L 127.69468 146.166356 
L 127.796168 156.507245 
L 127.897657 142.965117 
L 127.999145 153.311621 
L 128.30361 146.914168 
L 128.405099 141.155368 
L 128.506587 146.775443 
L 128.608075 142.68943 
L 128.709564 148.479814 
L 128.811052 140.445423 
L 128.91254 147.997438 
L 129.014029 140.285468 
L 129.115517 141.018496 
L 129.318494 155.826018 
L 129.521471 143.597804 
L 129.622959 153.585768 
L 129.825936 143.620115 
L 130.028913 150.487223 
L 130.130401 147.093449 
L 130.231889 147.634438 
L 130.333378 138.779047 
L 130.637843 146.757931 
L 130.739331 143.27387 
L 130.942308 153.958675 
L 131.145285 148.677239 
L 131.246773 148.468893 
L 131.44975 144.647319 
L 131.551238 152.853816 
L 131.652727 135.341867 
L 131.754215 142.914175 
L 131.855703 142.265694 
L 132.05868 148.476174 
L 132.160168 141.576389 
L 132.261657 154.476553 
L 132.363145 134.148355 
L 132.464634 153.139138 
L 132.566122 137.144308 
L 132.870587 156.078509 
L 133.073564 146.012984 
L 133.175052 146.697908 
L 133.276541 155.711909 
L 133.378029 143.009894 
L 133.479517 150.645279 
L 133.581006 144.442802 
L 133.682494 149.079328 
L 133.885471 140.98901 
L 133.986959 144.848447 
L 134.189936 142.824934 
L 134.291424 148.965104 
L 134.392913 142.509532 
L 134.494401 148.908152 
L 134.595889 144.106911 
L 134.697378 132.009537 
L 134.798866 156.175518 
L 134.900355 138.648437 
L 135.103331 155.479681 
L 135.20482 144.33859 
L 135.306308 151.49222 
L 135.407796 135.48863 
L 135.509285 143.238571 
L 135.610773 142.619276 
L 135.81375 147.821653 
L 135.915238 146.055751 
L 136.016727 150.66489 
L 136.219703 134.305846 
L 136.321192 153.234772 
L 136.42268 143.084275 
L 136.524169 150.479101 
L 136.828634 139.631564 
L 137.133099 158.986403 
L 137.234587 147.421724 
L 137.336076 149.225356 
L 137.437564 141.578729 
L 137.539052 145.061911 
L 137.640541 142.408323 
L 137.742029 146.734816 
L 137.843517 145.576365 
L 137.945006 142.678511 
L 138.046494 156.136303 
L 138.249471 141.431742 
L 138.350959 142.654487 
L 138.452448 142.561021 
L 138.553936 143.102007 
L 138.756913 150.270663 
L 138.95989 141.814175 
L 139.061378 141.996709 
L 139.162866 141.883335 
L 139.264355 151.79115 
L 139.365843 149.721808 
L 139.467331 137.954684 
L 139.56882 146.165559 
L 139.771797 141.236648 
L 139.873285 151.408337 
L 140.076262 140.693916 
L 140.279238 150.512557 
L 140.380727 148.027754 
L 140.482215 133.347343 
L 140.685192 144.45006 
L 140.78668 148.503081 
L 140.888169 131.820816 
L 141.091145 151.184075 
L 141.192634 146.877848 
L 141.294122 150.855989 
L 141.395611 142.268308 
L 141.497099 147.821017 
L 141.598587 146.62272 
L 141.700076 142.603945 
L 141.801564 148.599775 
L 141.903052 136.753614 
L 142.106029 149.348984 
L 142.207518 149.227564 
L 142.309006 153.143417 
L 142.410494 144.203057 
L 142.511983 147.620676 
L 142.714959 141.921434 
L 142.917936 149.383874 
L 143.120913 142.556515 
L 143.222401 154.415871 
L 143.526866 139.873036 
L 143.628355 142.830422 
L 143.729843 150.149477 
L 143.831332 146.358507 
L 143.93282 153.637547 
L 144.034308 142.868771 
L 144.135797 152.648318 
L 144.237285 148.666625 
L 144.338773 140.137801 
L 144.54175 143.982158 
L 144.643239 143.301327 
L 144.744727 134.527677 
L 144.846215 136.441008 
L 144.947704 136.318333 
L 145.049192 143.178823 
L 145.15068 137.150437 
L 145.252169 152.638017 
L 145.353657 152.303997 
L 145.455146 153.478389 
L 145.556634 140.40182 
L 145.658122 148.107439 
L 145.759611 146.477861 
L 145.861099 155.425454 
L 145.962587 146.965477 
L 146.064076 155.276113 
L 146.165564 155.140699 
L 146.267053 153.375848 
L 146.470029 138.728926 
L 146.571518 150.328493 
L 146.673006 149.361992 
L 146.774494 154.342766 
L 146.875983 142.767327 
L 146.977471 151.682479 
L 147.07896 143.724025 
L 147.180448 147.712947 
L 147.281936 138.601022 
L 147.383425 141.188886 
L 147.484913 136.635487 
L 147.586401 150.477191 
L 147.68789 141.838655 
L 147.789378 146.11326 
L 147.992355 138.648333 
L 148.093843 147.920398 
L 148.195332 136.926817 
L 148.29682 150.526792 
L 148.398308 136.836371 
L 148.601285 146.749624 
L 148.702774 142.601936 
L 148.804262 132.245579 
L 148.90575 151.049769 
L 149.007239 147.082175 
L 149.108727 158.051912 
L 149.210215 156.977767 
L 149.311704 143.759468 
L 149.514681 151.608618 
L 149.717657 147.522936 
L 149.819146 152.841158 
L 150.022122 144.913041 
L 150.225099 143.154018 
L 150.326588 148.050651 
L 150.428076 145.03401 
L 150.529564 149.92848 
L 150.631053 149.798726 
L 150.732541 148.656742 
L 150.834029 140.584177 
L 151.037006 154.076731 
L 151.138495 140.614947 
L 151.239983 149.039809 
L 151.341471 133.183254 
L 151.44296 150.337473 
L 151.544448 147.467541 
L 151.645936 155.548671 
L 151.848913 144.037603 
L 152.05189 141.895609 
L 152.153378 146.946341 
L 152.254867 139.328553 
L 152.356355 144.898099 
L 152.457843 142.772395 
L 152.66082 145.593442 
L 152.762309 146.888262 
L 152.965285 141.573136 
L 153.066774 141.907091 
L 153.26975 145.189616 
L 153.371239 147.88661 
L 153.472727 143.141611 
L 153.574216 154.519709 
L 153.675704 154.326629 
L 153.878681 140.125365 
L 153.980169 141.629494 
L 154.183146 148.453886 
L 154.284634 146.490224 
L 154.487611 138.346491 
L 154.690588 153.95485 
L 154.893564 144.35679 
L 155.19803 148.411337 
L 155.299518 152.012391 
L 155.401006 136.318394 
L 155.502495 153.545171 
L 155.603983 137.538332 
L 155.705471 146.187438 
L 156.009937 139.78718 
L 156.111425 150.009216 
L 156.212913 143.974613 
L 156.41589 155.487323 
L 156.517378 152.557623 
L 156.720355 139.699039 
L 156.821844 151.406288 
L 156.923332 145.283853 
L 157.02482 148.905295 
L 157.126309 142.953073 
L 157.329285 148.204699 
L 157.430774 143.56786 
L 157.532262 147.790232 
L 157.633751 142.603843 
L 157.735239 156.923181 
L 157.836727 155.542745 
L 157.938216 145.89522 
L 158.039704 152.942036 
L 158.141192 139.614429 
L 158.344169 152.125022 
L 158.445658 151.548604 
L 158.547146 138.651085 
L 158.648634 143.262487 
L 158.750123 139.664868 
L 158.851611 150.79797 
L 158.953099 147.499793 
L 159.054588 148.724816 
L 159.156076 156.427677 
L 159.257565 145.008533 
L 159.359053 145.966903 
L 159.460541 156.536175 
L 159.765006 143.400289 
L 159.866495 148.092115 
L 159.967983 146.360504 
L 160.069472 137.036691 
L 160.17096 146.666552 
L 160.272448 140.443052 
L 160.475425 152.438952 
L 160.678402 142.605546 
L 160.77989 145.024941 
L 160.881379 137.546351 
L 160.982867 138.315982 
L 161.185844 145.573218 
L 161.287332 144.962103 
L 161.490309 147.346248 
L 161.693286 141.90688 
L 161.896262 154.399662 
L 161.997751 154.316436 
L 162.099239 144.606045 
L 162.200727 148.109675 
L 162.302216 145.448042 
L 162.403704 150.979039 
L 162.809658 143.720153 
L 162.911146 132.974441 
L 163.012634 151.396283 
L 163.215611 148.936243 
L 163.3171 138.952134 
L 163.418588 145.549329 
L 163.520076 139.340461 
L 163.621565 146.545427 
L 163.824541 139.1226 
L 163.92603 150.547201 
L 164.027518 143.442864 
L 164.129007 152.132206 
L 164.230495 145.611486 
L 164.433472 148.669497 
L 164.53496 144.212838 
L 164.636448 144.32503 
L 164.737937 145.056893 
L 164.940914 135.58019 
L 165.042402 151.11418 
L 165.245379 141.406623 
L 165.346867 148.912991 
L 165.448355 145.160536 
L 165.549844 150.594433 
L 165.651332 145.5414 
L 165.752821 146.863015 
L 165.854309 153.107437 
L 166.057286 135.979674 
L 166.158774 155.25952 
L 166.260262 151.461532 
L 166.361751 138.60986 
L 166.564728 154.884507 
L 166.666216 150.132396 
L 166.767704 134.024656 
L 166.970681 155.618275 
L 167.072169 147.338504 
L 167.173658 150.460855 
L 167.275146 142.603878 
L 167.376635 145.155727 
L 167.478123 155.051033 
L 167.579611 146.175846 
L 167.6811 153.985123 
L 167.884076 139.256971 
L 168.087053 155.287913 
L 168.188542 141.700705 
L 168.29003 154.96137 
L 168.391518 141.969764 
L 168.594495 151.503248 
L 168.797472 138.018356 
L 168.89896 150.203214 
L 169.000449 146.735567 
L 169.101937 147.418966 
L 169.203425 136.158309 
L 169.304914 140.837057 
L 169.406402 157.743113 
L 169.609379 150.211464 
L 169.710867 152.829195 
L 169.812356 151.464089 
L 169.913844 141.838004 
L 170.015332 142.09661 
L 170.116821 151.014029 
L 170.218309 146.759309 
L 170.319797 154.375097 
L 170.421286 140.552513 
L 170.827239 151.512876 
L 170.928728 141.451184 
L 171.030216 141.459003 
L 171.233193 147.437156 
L 171.334681 144.74087 
L 171.537658 154.196337 
L 171.639146 138.203477 
L 171.740635 138.882444 
L 171.842123 139.59242 
L 171.943611 152.941454 
L 172.146588 142.100849 
L 172.349565 148.691076 
L 172.451053 140.830832 
L 172.552542 151.111165 
L 172.65403 142.510375 
L 172.958495 155.621419 
L 173.059983 152.21816 
L 173.161472 141.774828 
L 173.364449 147.299853 
L 173.465937 144.117514 
L 173.567425 157.877503 
L 173.668914 137.544063 
L 173.87189 149.459517 
L 173.973379 142.090921 
L 174.074867 142.168766 
L 174.176356 150.635494 
L 174.277844 142.550519 
L 174.480821 153.647467 
L 174.582309 145.659299 
L 174.785286 154.639554 
L 175.089751 144.576001 
L 175.292728 145.699874 
L 175.495704 139.965944 
L 175.597193 142.726363 
L 175.698681 139.709645 
L 175.80017 153.923657 
L 176.104635 143.989358 
L 176.206123 144.974474 
L 176.307611 154.264799 
L 176.4091 143.173249 
L 176.510588 152.481729 
L 176.612077 139.490736 
L 176.713565 142.315355 
L 176.815053 139.21921 
L 176.916542 145.580708 
L 177.01803 145.558413 
L 177.119518 137.405232 
L 177.423984 153.061468 
L 177.525472 137.565271 
L 177.62696 142.168369 
L 177.728449 161.041187 
L 177.829937 133.781396 
L 177.931425 148.31741 
L 178.134402 135.778174 
L 178.235891 147.865365 
L 178.337379 147.226694 
L 178.438867 145.305913 
L 178.641844 154.279212 
L 178.844821 144.959927 
L 179.047798 137.248134 
L 179.149286 137.252654 
L 179.352263 153.536387 
L 179.453751 154.004349 
L 179.555239 140.507956 
L 179.656728 141.68927 
L 179.758216 154.865085 
L 179.859705 142.130846 
L 179.961193 148.187964 
L 180.062681 142.977989 
L 180.265658 155.505472 
L 180.570123 137.413655 
L 180.7731 149.227717 
L 180.874588 147.558161 
L 180.976077 143.014818 
L 181.179053 150.311507 
L 181.585007 138.175552 
L 181.686495 145.848569 
L 181.787984 143.889196 
L 181.889472 148.999516 
L 181.99096 139.045053 
L 182.092449 155.331299 
L 182.295426 144.221834 
L 182.396914 154.913917 
L 182.701379 132.87513 
L 182.904356 151.187333 
L 183.005844 130.540504 
L 183.107333 155.857323 
L 183.310309 132.800544 
L 183.513286 153.704885 
L 183.716263 141.816834 
L 183.817751 147.25796 
L 183.91924 140.185965 
L 184.020728 141.163937 
L 184.122216 145.543057 
L 184.223705 141.074672 
L 184.325193 141.26129 
L 184.426681 143.192249 
L 184.629658 152.572919 
L 184.731147 148.802152 
L 184.832635 139.717221 
L 184.934123 140.363039 
L 185.035612 143.337725 
L 185.1371 143.295543 
L 185.238588 138.714346 
L 185.340077 147.278096 
L 185.543054 138.15361 
L 185.644542 148.200736 
L 185.847519 139.625405 
L 186.050495 151.62191 
L 186.456449 142.086044 
L 186.659426 148.653684 
L 186.760914 132.258775 
L 186.963891 142.363205 
L 187.065379 142.447541 
L 187.268356 155.901383 
L 187.471333 146.096524 
L 187.572821 146.146916 
L 187.674309 140.34672 
L 187.775798 154.066684 
L 187.877286 143.769584 
L 187.978775 149.501296 
L 188.080263 139.372517 
L 188.181751 145.189204 
L 188.28324 135.314971 
L 188.384728 145.510717 
L 188.486216 139.540065 
L 188.587705 148.601795 
L 188.790682 138.91023 
L 188.89217 151.297162 
L 188.993658 149.802064 
L 189.095147 144.299585 
L 189.196635 150.21954 
L 189.298123 148.226997 
L 189.399612 149.521815 
L 189.5011 153.217455 
L 189.704077 145.335318 
L 189.805565 150.405154 
L 189.907054 146.651216 
L 190.008542 154.013532 
L 190.313007 147.776542 
L 190.414496 149.405331 
L 190.515984 144.893626 
L 190.617472 151.760886 
L 190.718961 141.920141 
L 190.820449 148.725081 
L 190.921937 136.142076 
L 191.023426 146.706999 
L 191.124914 143.645224 
L 191.429379 150.774641 
L 191.530868 150.325404 
L 191.632356 142.262782 
L 191.835333 146.681532 
L 192.03831 147.479677 
L 192.139798 151.34926 
L 192.342775 134.52049 
L 192.444263 140.767333 
L 192.545751 155.951005 
L 192.748728 143.306033 
L 192.850217 146.294707 
L 192.951705 139.059216 
L 193.154682 150.645194 
L 193.25617 136.691899 
L 193.459147 147.082327 
L 193.560635 152.013947 
L 193.763612 138.33427 
L 193.966589 149.503758 
L 194.068077 148.2684 
L 194.169565 153.500678 
L 194.271054 138.926083 
L 194.474031 146.11682 
L 194.575519 137.778535 
L 194.677007 150.318225 
L 194.879984 146.742829 
L 195.082961 137.889802 
L 195.285938 142.153487 
L 195.387426 143.114903 
L 195.488914 161.35413 
L 195.590403 148.268695 
L 195.691891 149.992399 
L 195.793379 139.044418 
L 195.894868 149.121128 
L 195.996356 134.858352 
L 196.199333 150.995267 
L 196.300821 138.261075 
L 196.40231 145.175638 
L 196.503798 144.579055 
L 196.605286 140.185783 
L 196.808263 149.815958 
L 196.909752 141.749147 
L 197.112728 148.684199 
L 197.214217 149.878858 
L 197.315705 146.369455 
L 197.417193 149.483787 
L 197.518682 141.389007 
L 197.62017 146.914205 
L 197.721659 144.332243 
L 197.823147 153.525254 
L 197.924635 141.724363 
L 198.026124 142.52438 
L 198.127612 141.881921 
L 198.2291 137.921957 
L 198.330589 144.052374 
L 198.432077 142.571861 
L 198.533566 144.202277 
L 198.635054 148.745355 
L 198.838031 146.849455 
L 198.939519 140.650742 
L 199.142496 155.872095 
L 199.243984 140.772648 
L 199.345473 141.751865 
L 199.548449 153.80352 
L 199.649938 152.204034 
L 199.751426 141.292949 
L 199.852914 145.701081 
L 199.954403 139.466822 
L 200.055891 149.734149 
L 200.15738 147.970914 
L 200.258868 148.85906 
L 200.461845 139.905735 
L 200.563333 142.057605 
L 200.664821 136.379569 
L 200.76631 146.510062 
L 200.867798 139.333351 
L 201.070775 156.160247 
L 201.172263 135.429037 
L 201.273752 147.426228 
L 201.37524 146.973574 
L 201.476728 143.259363 
L 201.578217 156.507593 
L 201.679705 141.034148 
L 201.781194 141.517186 
L 201.882682 145.471776 
L 201.98417 143.381907 
L 202.085659 147.193584 
L 202.288635 141.183455 
L 202.390124 145.042732 
L 202.491612 138.647511 
L 202.593101 151.493748 
L 202.694589 151.492511 
L 202.796077 159.580643 
L 202.897566 141.928648 
L 203.100542 150.778033 
L 203.202031 142.641202 
L 203.303519 147.459531 
L 203.709473 137.269927 
L 204.115426 153.58266 
L 204.318403 140.527199 
L 204.419891 154.371851 
L 204.724356 141.649421 
L 204.825845 145.427232 
L 204.927333 142.988691 
L 205.028822 134.666242 
L 205.333287 153.711036 
L 205.536263 141.796008 
L 205.637752 148.377234 
L 205.73924 142.249262 
L 205.840729 146.336115 
L 205.942217 155.381171 
L 206.043705 142.942466 
L 206.145194 151.592997 
L 206.34817 140.969386 
L 206.449659 143.36115 
L 206.551147 137.173806 
L 206.754124 144.343562 
L 206.855612 143.307954 
L 206.957101 145.235271 
L 207.058589 135.709744 
L 207.160077 142.390954 
L 207.261566 131.593674 
L 207.363054 152.973716 
L 207.464543 145.771241 
L 207.566031 149.443946 
L 207.667519 142.275566 
L 207.769008 146.926081 
L 207.870496 144.368343 
L 207.971984 147.978506 
L 208.073473 144.236384 
L 208.174961 148.661322 
L 208.377938 143.587734 
L 208.479426 145.436386 
L 208.682403 142.426752 
L 208.783891 148.314909 
L 208.88538 142.477738 
L 208.986868 143.431331 
L 209.088357 139.478722 
L 209.189845 145.552102 
L 209.291333 142.323789 
L 209.49431 153.133142 
L 209.595798 145.056484 
L 209.697287 145.059942 
L 209.900264 156.971624 
L 210.001752 133.037981 
L 210.204729 144.064757 
L 210.306217 137.676343 
L 210.407705 154.082355 
L 210.509194 144.13436 
L 210.610682 146.200131 
L 210.712171 139.600365 
L 210.915147 155.330653 
L 211.016636 141.65239 
L 211.118124 155.757435 
L 211.219612 151.874922 
L 211.422589 139.814422 
L 211.727054 156.908113 
L 211.828543 148.520322 
L 211.930031 151.223351 
L 212.031519 147.856997 
L 212.133008 151.129463 
L 212.234496 148.995536 
L 212.335985 137.073096 
L 212.437473 159.849625 
L 212.538961 158.45027 
L 212.64045 143.279852 
L 212.944915 153.177584 
L 213.147892 144.65932 
L 213.350868 138.942881 
L 213.452357 148.430688 
L 213.553845 145.60895 
L 213.655333 146.664059 
L 213.756822 146.402749 
L 213.85831 147.431744 
L 213.959799 152.833978 
L 214.162775 144.770693 
L 214.264264 145.620399 
L 214.365752 141.029619 
L 214.46724 142.504961 
L 214.568729 155.894266 
L 214.670217 151.42963 
L 214.771706 140.642384 
L 214.873194 148.51446 
L 214.974682 144.685688 
L 215.076171 147.712994 
L 215.177659 139.3759 
L 215.482124 154.240412 
L 215.583613 155.043929 
L 215.786589 141.016459 
L 215.888078 150.331474 
L 215.989566 138.338895 
L 216.091054 149.362724 
L 216.192543 143.857763 
L 216.294031 148.815805 
L 216.497008 138.521957 
L 216.598496 140.895381 
L 216.699985 137.040414 
L 216.902961 152.289332 
L 217.00445 152.81893 
L 217.105938 147.350367 
L 217.207427 153.103687 
L 217.410403 150.25079 
L 217.511892 128.609102 
L 217.714868 146.457741 
L 217.917845 151.949716 
L 218.019334 146.110011 
L 218.22231 154.673795 
L 218.323799 155.005958 
L 218.425287 136.851099 
L 218.628264 155.139059 
L 218.831241 142.431439 
L 219.034217 152.27105 
L 219.135706 146.607384 
L 219.237194 149.311632 
L 219.440171 138.1674 
L 219.643148 156.209825 
L 219.846124 145.613169 
L 219.947613 149.069913 
L 220.049101 148.842447 
L 220.252078 142.914733 
L 220.353566 139.817385 
L 220.455055 150.179253 
L 220.75952 144.66566 
L 220.861008 143.256547 
L 221.063985 149.014658 
L 221.266962 140.414086 
L 221.36845 137.336768 
L 221.469938 141.050269 
L 221.571427 158.462228 
L 221.774403 145.858469 
L 221.875892 145.106329 
L 221.97738 153.214172 
L 222.281845 143.376796 
L 222.383334 149.520342 
L 222.484822 146.269492 
L 222.58631 150.005203 
L 222.687799 143.463845 
L 222.789287 146.574227 
L 222.890776 136.47343 
L 223.093752 151.997896 
L 223.296729 148.540335 
L 223.398217 135.841633 
L 223.702683 146.72936 
L 223.804171 158.137443 
L 224.007148 146.049646 
L 224.108636 149.134691 
L 224.210124 136.029022 
L 224.413101 144.83698 
L 224.51459 141.449171 
L 224.616078 152.504023 
L 224.819055 133.737558 
L 224.920543 147.09688 
L 225.022031 143.076616 
L 225.225008 149.080532 
L 225.529473 136.944046 
L 225.630962 135.898996 
L 225.73245 152.597162 
L 225.935427 146.619177 
L 226.036915 145.953691 
L 226.138404 158.260189 
L 226.34138 136.434236 
L 226.442869 155.736414 
L 226.544357 147.016824 
L 226.645845 147.726186 
L 226.747334 143.949784 
L 226.950311 150.278317 
L 227.051799 142.918822 
L 227.153287 146.261713 
L 227.254776 139.325165 
L 227.356264 142.870955 
L 227.559241 139.456174 
L 227.660729 155.169309 
L 227.762218 142.061282 
L 227.863706 145.155109 
L 227.965194 151.712079 
L 228.066683 147.772106 
L 228.168171 150.653759 
L 228.371148 147.352667 
L 228.472636 148.246653 
L 228.574125 136.582289 
L 228.675613 148.588506 
L 228.777101 147.216077 
L 228.87859 150.441614 
L 228.980078 142.011449 
L 229.081566 143.135083 
L 229.284543 151.95527 
L 229.386032 147.387632 
L 229.48752 150.090923 
L 229.589008 142.837041 
L 229.690497 156.493535 
L 229.893473 136.261908 
L 230.09645 152.262401 
L 230.400915 140.522506 
L 230.502404 151.191094 
L 230.603892 140.850529 
L 230.806869 153.266967 
L 230.908357 140.862042 
L 231.111334 146.882212 
L 231.212822 147.625846 
L 231.415799 144.598837 
L 231.517287 152.001403 
L 231.618776 149.471052 
L 231.720264 151.042364 
L 231.821753 137.282534 
L 231.923241 150.594418 
L 232.126218 138.864659 
L 232.227706 150.136333 
L 232.329194 145.923457 
L 232.430683 151.323791 
L 232.532171 146.703559 
L 232.63366 148.971719 
L 232.735148 141.54951 
L 232.836636 149.487912 
L 232.938125 146.851166 
L 233.039613 136.016308 
L 233.141101 151.541626 
L 233.24259 138.936544 
L 233.344078 146.184462 
L 233.445567 143.087985 
L 233.547055 146.806257 
L 233.750032 143.085559 
L 233.953008 149.416855 
L 234.054497 151.918304 
L 234.257474 148.75617 
L 234.358962 146.615437 
L 234.46045 151.347139 
L 234.561939 146.134937 
L 234.663427 146.528306 
L 234.764915 145.608429 
L 234.866404 139.439635 
L 235.069381 148.681786 
L 235.272357 138.250616 
L 235.373846 143.775007 
L 235.475334 140.311553 
L 235.576822 154.944321 
L 235.779799 152.129855 
L 235.881288 139.650562 
L 235.982776 153.405411 
L 236.084264 142.034659 
L 236.185753 144.949947 
L 236.287241 144.39324 
L 236.388729 139.308416 
L 236.490218 140.873062 
L 236.591706 134.535154 
L 236.693195 150.264668 
L 236.794683 136.355082 
L 236.99766 148.213756 
L 237.099148 144.57998 
L 237.200636 152.043632 
L 237.302125 144.767742 
L 237.403613 147.751887 
L 237.708078 138.196467 
L 237.809567 149.638102 
L 237.911055 148.134412 
L 238.114032 139.587552 
L 238.21552 140.244342 
L 238.317009 148.258341 
L 238.418497 146.670165 
L 238.519985 159.016045 
L 238.621474 148.031448 
L 238.722962 151.938767 
L 238.82445 143.096687 
L 238.925939 155.406239 
L 239.128916 145.776739 
L 239.230404 145.893755 
L 239.331892 143.740888 
L 239.433381 151.265842 
L 239.534869 139.048242 
L 239.636357 139.816666 
L 240.042311 156.032129 
L 240.245288 132.807462 
L 240.448264 146.948276 
L 240.549753 145.881586 
L 240.651241 138.434312 
L 240.75273 139.963301 
L 240.854218 150.920565 
L 240.955706 148.638685 
L 241.057195 141.548638 
L 241.158683 146.855438 
L 241.36166 140.707052 
L 241.463148 154.609186 
L 241.666125 144.711768 
L 241.767613 142.841771 
L 241.869102 145.145841 
L 242.072078 140.414161 
L 242.173567 148.084163 
L 242.275055 142.449451 
L 242.376544 148.717723 
L 242.478032 147.384835 
L 242.57952 143.902718 
L 242.681009 144.572367 
L 242.782497 141.909369 
L 242.985474 146.833371 
L 243.086962 140.230884 
L 243.188451 150.559682 
L 243.289939 138.241152 
L 243.391427 140.215638 
L 243.594404 155.133788 
L 243.695892 140.039044 
L 243.797381 140.293843 
L 243.898869 148.197711 
L 244.000358 147.192717 
L 244.101846 153.719681 
L 244.203334 146.462917 
L 244.304823 146.739777 
L 244.507799 150.930417 
L 244.609288 150.625887 
L 244.710776 138.216949 
L 244.913753 160.061409 
L 245.218218 140.798819 
L 245.319706 150.418342 
L 245.421195 135.527543 
L 245.624172 145.507929 
L 245.72566 147.640382 
L 245.928637 142.841311 
L 246.030125 149.0162 
L 246.131613 145.820859 
L 246.233102 155.718369 
L 246.436079 135.270443 
L 246.537567 137.595985 
L 246.639055 138.31332 
L 246.842032 152.682827 
L 246.94352 149.786358 
L 247.045009 150.292514 
L 247.146497 144.807731 
L 247.349474 155.005 
L 247.450962 136.396267 
L 247.552451 144.063026 
L 247.653939 137.578807 
L 247.755427 153.979595 
L 247.856916 141.535888 
L 247.958404 152.646537 
L 248.059893 148.001722 
L 248.161381 150.279939 
L 248.262869 149.565581 
L 248.364358 137.113742 
L 248.465846 149.504283 
L 248.668823 141.52348 
L 248.8718 153.975181 
L 248.973288 142.670788 
L 249.074776 149.138942 
L 249.176265 148.869457 
L 249.277753 145.516666 
L 249.48073 152.610813 
L 249.582218 142.070768 
L 249.785195 145.835262 
L 249.886683 139.873418 
L 250.08966 143.169557 
L 250.292637 134.825499 
L 250.394125 159.631137 
L 250.597102 140.625537 
L 250.69859 150.207053 
L 250.901567 143.062778 
L 251.003055 148.359368 
L 251.104544 145.395332 
L 251.206032 148.96338 
L 251.307521 148.19588 
L 251.510497 144.710333 
L 251.611986 151.780104 
L 251.814962 145.905241 
L 251.916451 148.392473 
L 252.017939 146.039371 
L 252.119428 151.544702 
L 252.220916 150.567743 
L 252.322404 144.909802 
L 252.525381 154.518554 
L 252.728358 143.802472 
L 252.931335 154.950421 
L 253.032823 144.315939 
L 253.134311 158.956368 
L 253.2358 144.745744 
L 253.337288 147.35253 
L 253.540265 140.956032 
L 253.641753 146.131437 
L 253.743242 143.963762 
L 253.946218 150.038047 
L 254.047707 140.886127 
L 254.149195 151.350719 
L 254.250683 148.525824 
L 254.352172 139.058844 
L 254.45366 145.840486 
L 254.555149 138.939025 
L 254.758125 157.849904 
L 254.961102 140.30271 
L 255.06259 148.767402 
L 255.164079 140.367539 
L 255.367056 149.28494 
L 255.468544 136.188622 
L 255.570032 152.952878 
L 255.671521 132.860598 
L 255.773009 153.132625 
L 255.874497 152.939061 
L 255.975986 151.937005 
L 256.178963 133.774527 
L 256.483428 143.835835 
L 256.584916 142.312259 
L 256.889381 147.594251 
L 256.99087 146.233529 
L 257.092358 151.996276 
L 257.193846 144.540385 
L 257.295335 150.442016 
L 257.396823 149.128994 
L 257.701288 137.207674 
L 257.904265 146.738052 
L 258.005753 143.895827 
L 258.107242 144.416699 
L 258.20873 146.356954 
L 258.411707 154.013642 
L 258.513195 151.822491 
L 258.614684 151.969683 
L 258.716172 151.452765 
L 258.919149 134.298015 
L 259.122125 148.275704 
L 259.223614 150.522209 
L 259.325102 147.810492 
L 259.426591 136.664736 
L 259.629567 148.24906 
L 259.731056 149.14552 
L 259.832544 153.252077 
L 259.934032 146.387838 
L 260.035521 147.919861 
L 260.137009 142.639244 
L 260.238498 145.504639 
L 260.339986 137.315662 
L 260.441474 137.431665 
L 260.745939 153.310623 
L 260.948916 147.73893 
L 261.050405 148.506222 
L 261.151893 141.207809 
L 261.253381 141.937955 
L 261.35487 141.098089 
L 261.456358 136.960003 
L 261.557846 138.278083 
L 261.659335 159.777041 
L 261.760823 143.894471 
L 261.9638 147.920973 
L 262.065288 136.620808 
L 262.369753 154.823055 
L 262.471242 142.300243 
L 262.57273 143.612952 
L 262.674219 133.241363 
L 262.978684 155.575644 
L 263.18166 146.183343 
L 263.283149 146.534934 
L 263.384637 139.250536 
L 263.689102 153.999951 
L 263.790591 145.045508 
L 263.993567 149.840633 
L 264.095056 136.323441 
L 264.196544 143.435297 
L 264.298033 142.047686 
L 264.399521 134.243205 
L 264.602498 149.775589 
L 264.703986 140.562487 
L 264.805474 149.207079 
L 264.906963 141.536231 
L 265.008451 156.846583 
L 265.10994 142.316523 
L 265.211428 145.945678 
L 265.312916 136.700066 
L 265.414405 140.294894 
L 265.515893 151.916098 
L 265.617381 147.294038 
L 265.71887 136.486273 
L 265.820358 147.390529 
L 265.921847 132.599062 
L 266.023335 144.803353 
L 266.124823 136.659949 
L 266.3278 149.853318 
L 266.530777 133.820088 
L 266.632265 146.750622 
L 266.835242 139.045426 
L 266.93673 130.349423 
L 267.241195 152.884405 
L 267.444172 142.955921 
L 267.545661 134.562146 
L 267.647149 146.391283 
L 267.850126 141.831042 
L 268.053102 152.990875 
L 268.154591 147.400375 
L 268.256079 154.665207 
L 268.357568 146.404813 
L 268.459056 148.912398 
L 268.560544 144.813824 
L 268.662033 150.917852 
L 268.763521 144.528776 
L 268.865009 144.741071 
L 268.966498 138.763527 
L 269.169475 151.327273 
L 269.270963 147.10562 
L 269.372451 129.497346 
L 269.575428 151.620297 
L 269.676916 147.050398 
L 269.778405 143.898335 
L 269.879893 145.162205 
L 269.981382 144.197614 
L 270.184358 150.491718 
L 270.285847 145.865456 
L 270.387335 146.549867 
L 270.488823 140.287375 
L 270.590312 152.11111 
L 270.6918 149.399709 
L 270.793289 127.322526 
L 270.996265 149.86742 
L 271.097754 140.258696 
L 271.30073 148.633931 
L 271.503707 141.610788 
L 271.706684 150.918002 
L 271.808172 141.23352 
L 271.909661 147.973781 
L 272.011149 143.736855 
L 272.112637 150.569647 
L 272.214126 141.912798 
L 272.315614 144.203962 
L 272.417103 133.263926 
L 272.518591 153.664879 
L 272.721568 142.505143 
L 272.823056 150.735904 
L 272.924544 141.717823 
L 273.127521 150.278375 
L 273.22901 143.890248 
L 273.330498 147.523381 
L 273.431986 146.501933 
L 273.533475 147.743644 
L 273.634963 145.314178 
L 273.736451 146.260069 
L 273.83794 137.359888 
L 273.939428 150.906465 
L 274.040917 145.979903 
L 274.142405 147.823883 
L 274.243893 154.311957 
L 274.44687 140.589654 
L 274.548358 146.21558 
L 274.852824 139.526526 
L 274.954312 149.652868 
L 275.0558 144.186741 
L 275.157289 144.765299 
L 275.258777 147.632211 
L 275.461754 133.604605 
L 275.664731 140.481982 
L 275.766219 141.889543 
L 275.867707 140.12046 
L 275.969196 146.696377 
L 276.070684 145.044838 
L 276.172172 145.065222 
L 276.273661 148.26431 
L 276.476638 138.472747 
L 276.578126 134.580924 
L 276.679614 156.095428 
L 276.781103 152.685353 
L 276.882591 153.317985 
L 277.085568 140.115894 
L 277.187056 141.172693 
L 277.288545 138.09607 
L 277.390033 150.620747 
L 277.491521 140.587746 
L 277.694498 154.166584 
L 277.998963 143.196717 
L 278.100452 147.64984 
L 278.20194 146.900167 
L 278.303428 150.422891 
L 278.404917 149.457875 
L 278.607893 145.47081 
L 278.709382 144.281966 
L 278.81087 153.722961 
L 278.912359 142.939049 
L 279.013847 145.118047 
L 279.115335 153.559358 
L 279.216824 142.538177 
L 279.318312 158.366698 
L 279.521289 147.742988 
L 279.622777 150.325488 
L 279.724266 150.002869 
L 279.825754 131.17858 
L 280.028731 149.047921 
L 280.130219 143.371411 
L 280.231707 145.947769 
L 280.434684 141.629303 
L 280.536173 146.776952 
L 280.637661 141.572315 
L 280.840638 149.503891 
L 280.942126 145.473841 
L 281.043614 149.310793 
L 281.246591 142.808625 
L 281.34808 155.293331 
L 281.449568 144.477471 
L 281.551056 151.204736 
L 281.652545 142.376442 
L 281.754033 148.895422 
L 281.855521 138.584857 
L 281.95701 144.568149 
L 282.058498 143.761988 
L 282.159987 145.436152 
L 282.261475 151.005184 
L 282.362963 144.837073 
L 282.56594 155.462312 
L 282.667428 142.891121 
L 282.768917 151.431577 
L 282.971894 143.361326 
L 283.073382 143.240537 
L 283.17487 150.695299 
L 283.276359 143.988241 
L 283.377847 152.456466 
L 283.479335 137.972242 
L 283.580824 158.634148 
L 283.682312 139.529458 
L 283.885289 152.667533 
L 284.088266 145.780866 
L 284.189754 149.857473 
L 284.291242 142.683288 
L 284.494219 148.644362 
L 284.595708 145.619251 
L 284.697196 149.854418 
L 284.798684 132.043238 
L 285.001661 137.195436 
L 285.103149 142.266839 
L 285.204638 155.103375 
L 285.306126 154.831136 
L 285.407615 140.518603 
L 285.509103 146.914212 
L 285.71208 141.902449 
L 285.813568 149.10729 
L 285.915056 147.177188 
L 286.016545 134.119027 
L 286.118033 148.147595 
L 286.219522 138.753075 
L 286.32101 147.10029 
L 286.422498 145.358243 
L 286.523987 146.721717 
L 286.625475 140.617518 
L 286.726963 149.886031 
L 286.828452 144.600392 
L 286.92994 157.285098 
L 287.132917 147.780453 
L 287.234405 147.831821 
L 287.335894 150.952197 
L 287.437382 158.744361 
L 287.53887 143.507762 
L 287.640359 145.889 
L 287.741847 145.687984 
L 287.843336 141.597904 
L 288.046312 157.670861 
L 288.147801 139.074696 
L 288.249289 151.424725 
L 288.350777 145.334926 
L 288.553754 152.356355 
L 288.655243 152.3414 
L 288.756731 150.475011 
L 288.959708 134.315671 
L 289.061196 141.95297 
L 289.162684 137.624249 
L 289.365661 153.456075 
L 289.46715 136.375803 
L 289.771615 148.576239 
L 289.873103 144.574567 
L 289.974591 152.961042 
L 290.07608 144.142313 
L 290.177568 144.218482 
L 290.279057 143.435125 
L 290.482033 153.107487 
L 290.583522 142.702572 
L 290.68501 143.235355 
L 290.786498 153.951081 
L 290.887987 147.656997 
L 291.090964 149.038536 
L 291.395429 133.73376 
L 291.801382 151.980796 
L 291.902871 145.504086 
L 292.004359 147.286113 
L 292.105847 136.461819 
L 292.308824 146.532793 
L 292.410312 142.48476 
L 292.613289 154.400401 
L 292.816266 141.452262 
L 292.917754 155.329994 
L 293.019243 139.475761 
L 293.120731 146.766633 
L 293.222219 141.203978 
L 293.323708 147.367107 
L 293.425196 136.299801 
L 293.628173 150.485145 
L 293.729661 143.695313 
L 294.034126 150.709903 
L 294.135615 139.86305 
L 294.237103 146.721392 
L 294.338592 140.58032 
L 294.541568 145.721347 
L 294.643057 146.510231 
L 294.846033 142.579799 
L 294.947522 146.327115 
L 295.150499 137.857237 
L 295.251987 153.438691 
L 295.353475 144.420481 
L 295.65794 156.013982 
L 295.759429 143.997441 
L 295.860917 147.70076 
L 295.962406 146.502801 
L 296.165382 143.264102 
L 296.266871 145.43703 
L 296.368359 133.692002 
L 296.571336 148.344487 
L 296.672824 144.696334 
L 296.774313 152.268912 
L 296.875801 150.52903 
L 297.078778 141.632371 
L 297.281754 149.001467 
L 297.383243 149.36709 
L 297.484731 143.009623 
L 297.687708 146.232717 
L 297.890685 156.528345 
L 297.992173 140.74657 
L 298.093661 147.406598 
L 298.19515 138.884324 
L 298.398127 147.284725 
L 298.499615 142.427003 
L 298.601103 150.079726 
L 298.80408 143.648119 
L 298.905568 146.587114 
L 299.007057 152.801416 
L 299.108545 152.361906 
L 299.210034 140.814318 
L 299.311522 146.998537 
L 299.41301 160.808135 
L 299.514499 140.563383 
L 299.615987 154.929515 
L 299.818964 138.787415 
L 299.920452 153.142838 
L 300.021941 144.365246 
L 300.123429 149.687018 
L 300.224917 137.190309 
L 300.529382 156.081628 
L 300.630871 151.19625 
L 300.732359 151.22894 
L 300.833848 151.136371 
L 300.935336 142.579999 
L 301.036824 145.547858 
L 301.138313 139.446788 
L 301.341289 147.411738 
L 301.442778 152.647198 
L 301.747243 142.368406 
L 301.848731 144.840494 
L 301.95022 143.61172 
L 302.153196 150.499155 
L 302.254685 149.21067 
L 302.356173 156.076076 
L 302.660638 138.606737 
L 302.863615 153.294228 
L 302.965103 136.882037 
L 303.066592 151.340012 
L 303.16808 142.091484 
L 303.269569 142.871122 
L 303.371057 156.995338 
L 303.472545 137.920566 
L 303.574034 146.327429 
L 303.675522 143.432095 
L 303.878499 148.222594 
L 303.979987 139.463348 
L 304.081476 144.342507 
L 304.182964 141.223977 
L 304.284452 134.210485 
L 304.385941 139.210104 
L 304.487429 134.182882 
L 304.791894 158.117365 
L 304.893383 145.743225 
L 304.994871 154.585597 
L 305.096359 151.571769 
L 305.197848 153.564363 
L 305.299336 145.194793 
L 305.400824 151.082911 
L 305.502313 140.157299 
L 305.70529 150.8773 
L 305.806778 148.965104 
L 305.908266 143.885319 
L 306.009755 145.327788 
L 306.111243 150.166326 
L 306.31422 139.710915 
L 306.517197 153.922634 
L 306.618685 148.07152 
L 306.720173 150.960018 
L 306.821662 158.616141 
L 306.92315 145.969126 
L 307.126127 154.030933 
L 307.227615 136.434014 
L 307.430592 156.373378 
L 307.633569 142.163082 
L 307.735057 142.006406 
L 307.836545 138.120309 
L 308.039522 149.108301 
L 308.141011 152.688496 
L 308.242499 140.150979 
L 308.445476 145.58521 
L 308.546964 142.845951 
L 308.749941 159.05573 
L 308.952918 143.862946 
L 309.054406 157.365402 
L 309.155894 145.740757 
L 309.257383 150.891511 
L 309.460359 144.55513 
L 309.764825 149.595666 
L 309.866313 151.018425 
L 309.967801 142.374044 
L 310.06929 147.676425 
L 310.272266 132.351098 
L 310.373755 146.787086 
L 310.576732 138.522104 
L 310.779708 148.929108 
L 310.881197 145.313772 
L 310.982685 145.696987 
L 311.185662 138.299351 
L 311.28715 149.115373 
L 311.388639 146.362695 
L 311.591615 155.584034 
L 311.794592 138.236715 
L 311.89608 139.429474 
L 311.997569 145.92834 
L 312.099057 141.739565 
L 312.200546 145.253294 
L 312.302034 153.953325 
L 312.403522 141.746026 
L 312.606499 154.575926 
L 312.809476 141.517914 
L 313.012453 151.292963 
L 313.418406 137.023285 
L 313.519894 149.839084 
L 313.621383 137.234879 
L 313.82436 152.176569 
L 314.128825 131.379898 
L 314.230313 145.053117 
L 314.331801 135.200801 
L 314.534778 154.251339 
L 314.839243 141.403817 
L 314.940732 148.521388 
L 315.04222 148.002161 
L 315.346685 140.743724 
L 315.448174 137.926202 
L 315.549662 140.534784 
L 315.65115 155.348822 
L 315.752639 152.775766 
L 315.955615 142.701625 
L 316.057104 157.585731 
L 316.260081 135.184525 
L 316.361569 145.371797 
L 316.463057 144.66636 
L 316.564546 143.25661 
L 316.666034 148.910766 
L 316.767522 146.797634 
L 316.869011 156.904105 
L 317.071987 145.12068 
L 317.173476 153.426425 
L 317.274964 136.356714 
L 317.376453 149.895529 
L 317.579429 147.665541 
L 317.680918 149.823896 
L 317.782406 149.440549 
L 317.883894 146.344543 
L 317.985383 152.104684 
L 318.086871 142.47518 
L 318.18836 148.200533 
L 318.289848 146.821611 
L 318.391336 148.66893 
L 318.492825 138.290246 
L 318.594313 145.961584 
L 318.79729 141.208092 
L 318.898778 153.044286 
L 319.000267 150.511221 
L 319.203243 140.098506 
L 319.304732 140.308364 
L 319.40622 152.101914 
L 319.609197 140.507674 
L 319.710685 145.99595 
L 319.812174 145.052364 
L 319.913662 146.283342 
L 320.01515 140.778223 
L 320.116639 151.436862 
L 320.218127 148.618828 
L 320.319615 142.21612 
L 320.421104 158.020786 
L 320.624081 145.896354 
L 320.725569 139.34596 
L 320.827057 142.943394 
L 320.928546 138.377129 
L 321.233011 144.875508 
L 321.334499 145.088908 
L 321.435988 149.727653 
L 321.537476 148.10692 
L 321.638964 148.645791 
L 321.740453 146.803719 
L 321.841941 148.985597 
L 321.943429 147.64939 
L 322.044918 142.994524 
L 322.247895 154.829856 
L 322.349383 143.200692 
L 322.55236 149.372175 
L 322.653848 148.280007 
L 322.755336 148.771162 
L 322.856825 141.316064 
L 323.059802 165.66993 
L 323.262778 147.651796 
L 323.364267 145.67986 
L 323.465755 135.210552 
L 323.668732 149.91519 
L 323.77022 149.563644 
L 323.871709 142.428205 
L 323.973197 155.506848 
L 324.074685 145.555406 
L 324.176174 152.21386 
L 324.277662 150.696025 
L 324.37915 147.240636 
L 324.480639 152.831639 
L 324.785104 141.742827 
L 324.886592 144.671903 
L 324.988081 152.249688 
L 325.191057 147.571529 
L 325.292546 150.594321 
L 325.394034 150.137079 
L 325.597011 142.449916 
L 325.698499 140.260329 
L 325.799988 152.399795 
L 326.002964 147.391598 
L 326.104453 159.997637 
L 326.205941 148.481912 
L 326.30743 150.119616 
L 326.510406 136.648335 
L 326.611895 150.987074 
L 326.814871 137.663134 
L 327.220825 152.860105 
L 327.322313 145.077161 
L 327.423802 148.905678 
L 327.626778 144.532321 
L 327.931244 154.883967 
L 328.032732 150.916433 
L 328.13422 134.578878 
L 328.438685 154.320757 
L 328.743151 139.024763 
L 328.844639 148.989412 
L 328.946127 143.23804 
L 329.047616 146.47364 
L 329.149104 157.608667 
L 329.250592 155.160368 
L 329.352081 145.081886 
L 329.453569 145.723125 
L 329.555058 137.282866 
L 329.656546 146.98383 
L 329.758034 141.173864 
L 330.062499 152.992333 
L 330.163988 139.432994 
L 330.265476 158.217827 
L 330.366965 141.746936 
L 330.468453 154.312746 
L 330.569941 147.758626 
L 330.67143 149.018141 
L 330.975895 140.566895 
L 331.077383 155.773307 
L 331.178872 144.416605 
L 331.483337 154.592681 
L 331.787802 147.742528 
L 331.990779 143.452432 
L 332.092267 148.760987 
L 332.193755 148.437442 
L 332.396732 146.115543 
L 332.599709 152.405836 
L 332.701197 139.274793 
L 332.802686 151.061582 
L 332.904174 143.611873 
L 333.005662 150.990482 
L 333.107151 150.186068 
L 333.208639 139.956607 
L 333.310127 147.468056 
L 333.411616 145.851729 
L 333.614593 136.768942 
L 333.817569 143.913966 
L 333.919058 142.203104 
L 334.020546 146.167639 
L 334.122034 155.819501 
L 334.325011 144.423275 
L 334.527988 148.912286 
L 334.629476 133.411548 
L 334.730965 151.01826 
L 334.933941 142.694215 
L 335.03543 152.755819 
L 335.238407 143.429658 
L 335.441383 152.052009 
L 335.542872 139.955865 
L 335.64436 143.155386 
L 335.745848 156.98158 
L 335.948825 137.597642 
L 336.050314 154.189781 
L 336.151802 139.756987 
L 336.456267 155.448039 
L 336.557755 144.986434 
L 336.659244 147.657114 
L 336.760732 142.413741 
L 336.963709 147.873847 
L 337.065197 139.437227 
L 337.166686 147.471939 
L 337.369662 139.138457 
L 337.572639 154.626035 
L 337.674128 140.330477 
L 337.775616 148.543345 
L 337.877104 142.713886 
L 338.080081 149.898196 
L 338.181569 148.295296 
L 338.384546 151.63387 
L 338.486035 144.873911 
L 338.587523 148.942506 
L 338.689011 136.472992 
L 338.7905 151.447474 
L 338.891988 137.059887 
L 338.993476 152.995365 
L 339.196453 143.009382 
L 339.297942 141.650607 
L 339.500918 150.121102 
L 339.703895 148.443059 
L 339.805383 153.438352 
L 339.906872 144.860145 
L 340.00836 152.532756 
L 340.109849 147.187083 
L 340.211337 149.836556 
L 340.312825 145.451217 
L 340.414314 148.886869 
L 340.515802 140.46866 
L 340.718779 151.255725 
L 341.023244 138.383551 
L 341.226221 146.379664 
L 341.327709 146.099052 
L 341.429197 146.566078 
L 341.632174 139.860567 
L 341.733663 152.862526 
L 341.835151 142.84538 
L 341.936639 156.270755 
L 342.038128 147.71832 
L 342.139616 149.083655 
L 342.241104 153.329881 
L 342.444081 145.669933 
L 342.54557 139.662031 
L 342.647058 145.992765 
L 342.748546 143.083909 
L 342.850035 149.831614 
L 343.053011 146.209266 
L 343.1545 147.778769 
L 343.255988 152.385291 
L 343.357477 144.518926 
L 343.560453 154.466649 
L 343.661942 140.099245 
L 343.76343 155.443442 
L 343.966407 127.135682 
L 344.169384 149.560894 
L 344.270872 149.39048 
L 344.37236 144.771815 
L 344.473849 145.632734 
L 344.676825 142.372946 
L 344.981291 149.555296 
L 345.082779 147.061175 
L 345.184267 150.604885 
L 345.285756 145.055798 
L 345.387244 147.291935 
L 345.488732 140.369414 
L 345.691709 154.43171 
L 345.793198 144.192632 
L 345.894686 144.263584 
L 345.996174 138.880553 
L 346.097663 142.038203 
L 346.199151 152.623594 
L 346.300639 144.027021 
L 346.402128 145.514264 
L 346.605105 139.356667 
L 346.706593 140.413776 
L 346.808081 149.99939 
L 346.90957 143.944779 
L 347.112546 155.024655 
L 347.214035 142.700342 
L 347.315523 147.866937 
L 347.417012 133.984117 
L 347.5185 151.569427 
L 347.619988 131.987899 
L 347.721477 142.16798 
L 347.822965 136.123167 
L 348.025942 142.69222 
L 348.12743 155.882326 
L 348.228919 145.014202 
L 348.431895 157.363823 
L 348.533384 147.870443 
L 348.634872 149.905753 
L 348.73636 146.579815 
L 348.837849 150.211856 
L 348.939337 143.981779 
L 349.040826 154.374853 
L 349.243802 144.179323 
L 349.345291 151.351323 
L 349.446779 147.811738 
L 349.548267 162.543306 
L 349.751244 144.453154 
L 349.954221 146.182241 
L 350.055709 146.326585 
L 350.157198 152.077811 
L 350.258686 143.090769 
L 350.360174 149.739704 
L 350.563151 135.459254 
L 350.66464 149.271168 
L 350.766128 141.47845 
L 350.969105 150.362043 
L 351.070593 143.13302 
L 351.172081 147.287986 
L 351.375058 136.249857 
L 351.578035 147.244492 
L 351.679523 143.493308 
L 351.781012 145.009074 
L 351.8825 144.71573 
L 351.983988 152.682778 
L 352.186965 150.471429 
L 352.288454 139.904696 
L 352.389942 141.808936 
L 352.49143 139.423156 
L 352.592919 154.644163 
L 352.694407 142.284635 
L 352.795895 144.565645 
L 352.897384 134.10291 
L 353.201849 146.813581 
L 353.303337 144.163882 
L 353.506314 153.878917 
L 353.709291 142.565745 
L 354.013756 146.962047 
L 354.115244 141.017961 
L 354.419709 152.856807 
L 354.521198 148.688292 
L 354.622686 152.460091 
L 354.724175 150.689066 
L 354.825663 153.741058 
L 354.927151 140.478033 
L 355.02864 150.838881 
L 355.130128 149.011103 
L 355.231616 143.095933 
L 355.333105 154.078648 
L 355.434593 152.006597 
L 355.536082 135.895598 
L 355.63757 150.802312 
L 355.840547 135.514349 
L 356.043523 143.837793 
L 356.145012 133.99458 
L 356.347989 155.895704 
L 356.449477 149.607288 
L 356.550965 150.207078 
L 356.652454 146.171565 
L 356.753942 149.496415 
L 356.85543 141.143515 
L 356.956919 142.673231 
L 357.058407 153.242632 
L 357.159896 141.650993 
L 357.261384 146.711999 
L 357.362872 159.488292 
L 357.464361 142.330089 
L 357.565849 155.103388 
L 357.667337 138.208999 
L 357.870314 147.402127 
L 357.971803 141.724159 
L 358.073291 145.548289 
L 358.174779 140.439511 
L 358.377756 148.068436 
L 358.479244 137.179744 
L 358.580733 158.687606 
L 358.682221 149.56356 
L 358.78371 151.601303 
L 358.986686 145.246292 
L 359.088175 146.074438 
L 359.189663 139.071848 
L 359.291151 145.496957 
L 359.39264 141.684168 
L 359.595617 150.136871 
L 359.697105 144.835635 
L 359.798593 146.198796 
L 359.900082 139.930105 
L 360.00157 148.809832 
L 360.103058 142.454115 
L 360.204547 145.486648 
L 360.306035 138.911375 
L 360.407524 146.373403 
L 360.509012 145.708487 
L 360.6105 140.067292 
L 360.711989 153.429791 
L 360.813477 143.040109 
L 361.016454 149.716455 
L 361.117942 141.01095 
L 361.219431 148.02005 
L 361.422407 136.864475 
L 361.523896 139.637504 
L 361.625384 132.37027 
L 361.828361 155.637073 
L 362.031338 139.650108 
L 362.132826 144.59703 
L 362.234314 159.78793 
L 362.335803 144.77754 
L 362.437291 146.25071 
L 362.538779 141.434941 
L 362.640268 153.794235 
L 362.741756 140.683099 
L 362.843245 154.044479 
L 362.944733 152.759636 
L 363.046221 160.227038 
L 363.14771 136.528594 
L 363.249198 159.080252 
L 363.350686 141.420359 
L 363.553663 147.913484 
L 363.655152 138.969825 
L 363.75664 143.316559 
L 363.858128 142.946088 
L 363.959617 133.097629 
L 364.061105 138.883366 
L 364.162593 131.145126 
L 364.36557 155.844829 
L 364.568547 144.744512 
L 364.670035 144.761459 
L 364.771524 142.511201 
L 364.9745 147.077762 
L 365.075989 143.147342 
L 365.177477 147.02678 
L 365.380454 139.436647 
L 365.481942 158.616049 
L 365.684919 142.61284 
L 365.786407 151.588465 
L 365.887896 136.964144 
L 366.192361 152.330532 
L 366.293849 150.158286 
L 366.395338 147.507439 
L 366.496826 140.981605 
L 366.598314 141.815153 
L 366.699803 137.229944 
L 366.90278 151.709052 
L 367.004268 146.069316 
L 367.105756 153.362641 
L 367.207245 139.712084 
L 367.308733 151.279989 
L 367.51171 140.64322 
L 367.714687 151.814663 
L 367.816175 156.493982 
L 368.019152 144.795369 
L 368.12064 145.610135 
L 368.222128 145.165979 
L 368.323617 147.714249 
L 368.425105 156.14048 
L 368.526594 149.684242 
L 368.628082 153.589136 
L 368.72957 147.719682 
L 369.034035 151.797981 
L 369.135524 150.591899 
L 369.237012 153.221442 
L 369.439989 139.815945 
L 369.541477 148.981912 
L 369.845942 136.413821 
L 369.947431 151.630734 
L 370.048919 143.010594 
L 370.150408 149.366765 
L 370.251896 143.381648 
L 370.353384 146.448898 
L 370.454873 141.971069 
L 370.556361 153.30557 
L 370.759338 142.823455 
L 371.063803 154.280026 
L 371.26678 142.709953 
L 371.368268 141.585399 
L 371.571245 145.884871 
L 371.672733 156.770341 
L 371.774222 137.932625 
L 371.87571 156.868234 
L 372.078687 142.396754 
L 372.180175 142.791808 
L 372.281663 153.192907 
L 372.48464 141.15386 
L 372.586129 143.714198 
L 372.687617 139.137875 
L 372.789105 145.550425 
L 372.890594 139.516273 
L 372.992082 149.132348 
L 373.09357 148.825873 
L 373.195059 142.695146 
L 373.296547 144.112111 
L 373.499524 137.677243 
L 373.601012 158.729997 
L 373.702501 142.917563 
L 373.803989 155.217565 
L 374.006966 152.359766 
L 374.209943 147.71003 
L 374.311431 152.061665 
L 374.412919 139.3367 
L 374.615896 153.685612 
L 374.818873 147.565331 
L 374.920361 137.930716 
L 375.123338 152.033324 
L 375.224826 133.115007 
L 375.427803 148.709137 
L 375.529291 146.966235 
L 375.63078 149.690174 
L 375.732268 144.554889 
L 375.935245 146.691352 
L 376.138222 144.155866 
L 376.23971 159.660393 
L 376.544175 141.656922 
L 376.645664 154.261501 
L 376.747152 139.31695 
L 376.950129 151.382799 
L 377.051617 149.783435 
L 377.153105 151.34799 
L 377.356082 136.391716 
L 377.559059 154.604757 
L 377.660547 141.871063 
L 377.762036 146.509988 
L 377.863524 142.181886 
L 377.965012 150.725957 
L 378.066501 143.760837 
L 378.167989 150.021136 
L 378.269478 148.873574 
L 378.370966 150.005256 
L 378.472454 145.07061 
L 378.573943 156.023314 
L 378.675431 154.496309 
L 378.878408 148.61463 
L 378.979896 144.969935 
L 379.081385 157.268566 
L 379.182873 137.855621 
L 379.38585 148.262639 
L 379.588826 138.709599 
L 379.690315 157.51914 
L 379.893292 138.778315 
L 379.99478 146.740485 
L 380.096268 146.717476 
L 380.197757 149.623585 
L 380.299245 143.563302 
L 380.502222 147.274781 
L 380.60371 138.528975 
L 380.806687 150.787476 
L 380.908175 135.917712 
L 381.111152 148.075091 
L 381.21264 143.431041 
L 381.314129 144.938759 
L 381.415617 153.376133 
L 381.517106 139.710277 
L 381.720082 146.365107 
L 381.821571 144.506853 
L 381.923059 150.76245 
L 382.227524 142.864293 
L 382.329013 149.560922 
L 382.430501 145.488055 
L 382.531989 146.679335 
L 382.633478 141.247383 
L 382.836454 144.363386 
L 382.937943 142.471651 
L 383.039431 144.107013 
L 383.14092 153.145236 
L 383.242408 134.764516 
L 383.343896 147.835538 
L 383.445385 146.657358 
L 383.546873 146.340547 
L 383.648361 153.82132 
L 383.851338 143.692853 
L 384.054315 147.032992 
L 384.155803 144.0098 
L 384.257292 150.784779 
L 384.35878 149.251766 
L 384.460268 136.791938 
L 384.561757 149.918867 
L 384.663245 147.629816 
L 384.764734 151.693483 
L 384.866222 138.980896 
L 384.96771 144.610725 
L 385.069199 142.232432 
L 385.170687 147.598032 
L 385.272175 146.426415 
L 385.373664 146.457557 
L 385.576641 155.65859 
L 385.678129 138.928094 
L 385.779617 141.267737 
L 385.881106 139.026499 
L 385.982594 153.526734 
L 386.185571 144.329461 
L 386.287059 142.767286 
L 386.388548 138.80452 
L 386.490036 146.239523 
L 386.591524 137.070752 
L 386.693013 156.568309 
L 386.794501 143.332393 
L 386.895989 151.688625 
L 387.098966 137.455985 
L 387.200455 149.599921 
L 387.301943 138.387296 
L 387.403431 145.757988 
L 387.50492 135.990957 
L 387.707896 148.512733 
L 387.809385 145.357439 
L 387.910873 149.937575 
L 388.012362 142.126709 
L 388.11385 150.079385 
L 388.215338 148.171685 
L 388.316827 161.420566 
L 388.621292 139.471619 
L 388.925757 144.833295 
L 389.027245 141.132986 
L 389.128734 146.079595 
L 389.230222 137.565448 
L 389.433199 148.786739 
L 389.534687 141.524864 
L 389.636176 146.006594 
L 389.839152 138.515292 
L 389.940641 154.843763 
L 390.143617 141.543562 
L 390.245106 154.714512 
L 390.346594 147.794297 
L 390.448083 150.377459 
L 390.549571 141.634669 
L 390.651059 151.433645 
L 390.752548 146.817579 
L 390.854036 152.454913 
L 390.955524 139.277721 
L 391.25999 154.480691 
L 391.462966 142.306868 
L 391.564455 145.954931 
L 391.767431 144.742371 
L 391.86892 155.979351 
L 392.173385 142.801754 
L 392.274873 145.019477 
L 392.47785 153.502827 
L 392.579338 142.120265 
L 392.680827 147.199367 
L 392.782315 160.731931 
L 392.883804 153.093534 
L 392.985292 135.509742 
L 393.188269 153.738908 
L 393.289757 138.452026 
L 393.391245 145.772775 
L 393.492734 140.157132 
L 393.594222 150.917598 
L 393.695711 135.949005 
L 393.898687 147.778312 
L 394.000176 149.965482 
L 394.101664 148.242006 
L 394.203152 149.969383 
L 394.304641 135.745334 
L 394.406129 149.15926 
L 394.507618 140.684633 
L 394.609106 142.228963 
L 394.812083 151.394414 
L 395.015059 139.956972 
L 395.116548 142.566402 
L 395.218036 139.427025 
L 395.319525 140.032844 
L 395.421013 151.010754 
L 395.62399 137.750462 
L 395.725478 156.973778 
L 395.928455 144.898272 
L 396.029943 140.975966 
L 396.029943 140.975966 
" style="fill:none;stroke:#1f77b4;stroke-linecap:square;stroke-width:1.5;"/>
   </g>
   <g id="matplotlib.axis_1">
    <g id="xtick_1">
     <g id="line2d_2">
      <defs>
       <path d="M 0 0 
L 0 3.5 
" id="m5b889d8b7f" style="stroke:#000000;stroke-width:0.8;"/>
      </defs>
      <g>
       <use style="stroke:#000000;stroke-width:0.8;" x="91.666307" xlink:href="#m5b889d8b7f" y="254.83575"/>
      </g>
     </g>
     <g id="text_1">
      <!-- 0 -->
      <g transform="translate(83.395057 281.591688)scale(0.26 -0.26)">
       <defs>
        <path d="M 31.78125 66.40625 
Q 24.171875 66.40625 20.328125 58.90625 
Q 16.5 51.421875 16.5 36.375 
Q 16.5 21.390625 20.328125 13.890625 
Q 24.171875 6.390625 31.78125 6.390625 
Q 39.453125 6.390625 43.28125 13.890625 
Q 47.125 21.390625 47.125 36.375 
Q 47.125 51.421875 43.28125 58.90625 
Q 39.453125 66.40625 31.78125 66.40625 
z
M 31.78125 74.21875 
Q 44.046875 74.21875 50.515625 64.515625 
Q 56.984375 54.828125 56.984375 36.375 
Q 56.984375 17.96875 50.515625 8.265625 
Q 44.046875 -1.421875 31.78125 -1.421875 
Q 19.53125 -1.421875 13.0625 8.265625 
Q 6.59375 17.96875 6.59375 36.375 
Q 6.59375 54.828125 13.0625 64.515625 
Q 19.53125 74.21875 31.78125 74.21875 
z
" id="DejaVuSans-48"/>
       </defs>
       <use xlink:href="#DejaVuSans-48"/>
      </g>
     </g>
    </g>
    <g id="xtick_2">
     <g id="line2d_3">
      <g>
       <use style="stroke:#000000;stroke-width:0.8;" x="193.154682" xlink:href="#m5b889d8b7f" y="254.83575"/>
      </g>
     </g>
     <g id="text_2">
      <!-- 1 -->
      <g transform="translate(184.883432 281.591688)scale(0.26 -0.26)">
       <defs>
        <path d="M 12.40625 8.296875 
L 28.515625 8.296875 
L 28.515625 63.921875 
L 10.984375 60.40625 
L 10.984375 69.390625 
L 28.421875 72.90625 
L 38.28125 72.90625 
L 38.28125 8.296875 
L 54.390625 8.296875 
L 54.390625 0 
L 12.40625 0 
z
" id="DejaVuSans-49"/>
       </defs>
       <use xlink:href="#DejaVuSans-49"/>
      </g>
     </g>
    </g>
    <g id="xtick_3">
     <g id="line2d_4">
      <g>
       <use style="stroke:#000000;stroke-width:0.8;" x="294.643057" xlink:href="#m5b889d8b7f" y="254.83575"/>
      </g>
     </g>
     <g id="text_3">
      <!-- 2 -->
      <g transform="translate(286.371807 281.591688)scale(0.26 -0.26)">
       <defs>
        <path d="M 19.1875 8.296875 
L 53.609375 8.296875 
L 53.609375 0 
L 7.328125 0 
L 7.328125 8.296875 
Q 12.9375 14.109375 22.625 23.890625 
Q 32.328125 33.6875 34.8125 36.53125 
Q 39.546875 41.84375 41.421875 45.53125 
Q 43.3125 49.21875 43.3125 52.78125 
Q 43.3125 58.59375 39.234375 62.25 
Q 35.15625 65.921875 28.609375 65.921875 
Q 23.96875 65.921875 18.8125 64.3125 
Q 13.671875 62.703125 7.8125 59.421875 
L 7.8125 69.390625 
Q 13.765625 71.78125 18.9375 73 
Q 24.125 74.21875 28.421875 74.21875 
Q 39.75 74.21875 46.484375 68.546875 
Q 53.21875 62.890625 53.21875 53.421875 
Q 53.21875 48.921875 51.53125 44.890625 
Q 49.859375 40.875 45.40625 35.40625 
Q 44.1875 33.984375 37.640625 27.21875 
Q 31.109375 20.453125 19.1875 8.296875 
z
" id="DejaVuSans-50"/>
       </defs>
       <use xlink:href="#DejaVuSans-50"/>
      </g>
     </g>
    </g>
    <g id="xtick_4">
     <g id="line2d_5">
      <g>
       <use style="stroke:#000000;stroke-width:0.8;" x="396.131432" xlink:href="#m5b889d8b7f" y="254.83575"/>
      </g>
     </g>
     <g id="text_4">
      <!-- 3 -->
      <g transform="translate(387.860182 281.591688)scale(0.26 -0.26)">
       <defs>
        <path d="M 40.578125 39.3125 
Q 47.65625 37.796875 51.625 33 
Q 55.609375 28.21875 55.609375 21.1875 
Q 55.609375 10.40625 48.1875 4.484375 
Q 40.765625 -1.421875 27.09375 -1.421875 
Q 22.515625 -1.421875 17.65625 -0.515625 
Q 12.796875 0.390625 7.625 2.203125 
L 7.625 11.71875 
Q 11.71875 9.328125 16.59375 8.109375 
Q 21.484375 6.890625 26.8125 6.890625 
Q 36.078125 6.890625 40.9375 10.546875 
Q 45.796875 14.203125 45.796875 21.1875 
Q 45.796875 27.640625 41.28125 31.265625 
Q 36.765625 34.90625 28.71875 34.90625 
L 20.21875 34.90625 
L 20.21875 43.015625 
L 29.109375 43.015625 
Q 36.375 43.015625 40.234375 45.921875 
Q 44.09375 48.828125 44.09375 54.296875 
Q 44.09375 59.90625 40.109375 62.90625 
Q 36.140625 65.921875 28.71875 65.921875 
Q 24.65625 65.921875 20.015625 65.03125 
Q 15.375 64.15625 9.8125 62.3125 
L 9.8125 71.09375 
Q 15.4375 72.65625 20.34375 73.4375 
Q 25.25 74.21875 29.59375 74.21875 
Q 40.828125 74.21875 47.359375 69.109375 
Q 53.90625 64.015625 53.90625 55.328125 
Q 53.90625 49.265625 50.4375 45.09375 
Q 46.96875 40.921875 40.578125 39.3125 
z
" id="DejaVuSans-51"/>
       </defs>
       <use xlink:href="#DejaVuSans-51"/>
      </g>
     </g>
    </g>
    <g id="text_5">
     <!-- time (s) -->
     <g transform="translate(193.430469 310.754813)scale(0.26 -0.26)">
      <defs>
       <path d="M 18.3125 70.21875 
L 18.3125 54.6875 
L 36.8125 54.6875 
L 36.8125 47.703125 
L 18.3125 47.703125 
L 18.3125 18.015625 
Q 18.3125 11.328125 20.140625 9.421875 
Q 21.96875 7.515625 27.59375 7.515625 
L 36.8125 7.515625 
L 36.8125 0 
L 27.59375 0 
Q 17.1875 0 13.234375 3.875 
Q 9.28125 7.765625 9.28125 18.015625 
L 9.28125 47.703125 
L 2.6875 47.703125 
L 2.6875 54.6875 
L 9.28125 54.6875 
L 9.28125 70.21875 
z
" id="DejaVuSans-116"/>
       <path d="M 9.421875 54.6875 
L 18.40625 54.6875 
L 18.40625 0 
L 9.421875 0 
z
M 9.421875 75.984375 
L 18.40625 75.984375 
L 18.40625 64.59375 
L 9.421875 64.59375 
z
" id="DejaVuSans-105"/>
       <path d="M 52 44.1875 
Q 55.375 50.25 60.0625 53.125 
Q 64.75 56 71.09375 56 
Q 79.640625 56 84.28125 50.015625 
Q 88.921875 44.046875 88.921875 33.015625 
L 88.921875 0 
L 79.890625 0 
L 79.890625 32.71875 
Q 79.890625 40.578125 77.09375 44.375 
Q 74.3125 48.1875 68.609375 48.1875 
Q 61.625 48.1875 57.5625 43.546875 
Q 53.515625 38.921875 53.515625 30.90625 
L 53.515625 0 
L 44.484375 0 
L 44.484375 32.71875 
Q 44.484375 40.625 41.703125 44.40625 
Q 38.921875 48.1875 33.109375 48.1875 
Q 26.21875 48.1875 22.15625 43.53125 
Q 18.109375 38.875 18.109375 30.90625 
L 18.109375 0 
L 9.078125 0 
L 9.078125 54.6875 
L 18.109375 54.6875 
L 18.109375 46.1875 
Q 21.1875 51.21875 25.484375 53.609375 
Q 29.78125 56 35.6875 56 
Q 41.65625 56 45.828125 52.96875 
Q 50 49.953125 52 44.1875 
z
" id="DejaVuSans-109"/>
       <path d="M 56.203125 29.59375 
L 56.203125 25.203125 
L 14.890625 25.203125 
Q 15.484375 15.921875 20.484375 11.0625 
Q 25.484375 6.203125 34.421875 6.203125 
Q 39.59375 6.203125 44.453125 7.46875 
Q 49.3125 8.734375 54.109375 11.28125 
L 54.109375 2.78125 
Q 49.265625 0.734375 44.1875 -0.34375 
Q 39.109375 -1.421875 33.890625 -1.421875 
Q 20.796875 -1.421875 13.15625 6.1875 
Q 5.515625 13.8125 5.515625 26.8125 
Q 5.515625 40.234375 12.765625 48.109375 
Q 20.015625 56 32.328125 56 
Q 43.359375 56 49.78125 48.890625 
Q 56.203125 41.796875 56.203125 29.59375 
z
M 47.21875 32.234375 
Q 47.125 39.59375 43.09375 43.984375 
Q 39.0625 48.390625 32.421875 48.390625 
Q 24.90625 48.390625 20.390625 44.140625 
Q 15.875 39.890625 15.1875 32.171875 
z
" id="DejaVuSans-101"/>
       <path id="DejaVuSans-32"/>
       <path d="M 31 75.875 
Q 24.46875 64.65625 21.28125 53.65625 
Q 18.109375 42.671875 18.109375 31.390625 
Q 18.109375 20.125 21.3125 9.0625 
Q 24.515625 -2 31 -13.1875 
L 23.1875 -13.1875 
Q 15.875 -1.703125 12.234375 9.375 
Q 8.59375 20.453125 8.59375 31.390625 
Q 8.59375 42.28125 12.203125 53.3125 
Q 15.828125 64.359375 23.1875 75.875 
z
" id="DejaVuSans-40"/>
       <path d="M 44.28125 53.078125 
L 44.28125 44.578125 
Q 40.484375 46.53125 36.375 47.5 
Q 32.28125 48.484375 27.875 48.484375 
Q 21.1875 48.484375 17.84375 46.4375 
Q 14.5 44.390625 14.5 40.28125 
Q 14.5 37.15625 16.890625 35.375 
Q 19.28125 33.59375 26.515625 31.984375 
L 29.59375 31.296875 
Q 39.15625 29.25 43.1875 25.515625 
Q 47.21875 21.78125 47.21875 15.09375 
Q 47.21875 7.46875 41.1875 3.015625 
Q 35.15625 -1.421875 24.609375 -1.421875 
Q 20.21875 -1.421875 15.453125 -0.5625 
Q 10.6875 0.296875 5.421875 2 
L 5.421875 11.28125 
Q 10.40625 8.6875 15.234375 7.390625 
Q 20.0625 6.109375 24.8125 6.109375 
Q 31.15625 6.109375 34.5625 8.28125 
Q 37.984375 10.453125 37.984375 14.40625 
Q 37.984375 18.0625 35.515625 20.015625 
Q 33.0625 21.96875 24.703125 23.78125 
L 21.578125 24.515625 
Q 13.234375 26.265625 9.515625 29.90625 
Q 5.8125 33.546875 5.8125 39.890625 
Q 5.8125 47.609375 11.28125 51.796875 
Q 16.75 56 26.8125 56 
Q 31.78125 56 36.171875 55.265625 
Q 40.578125 54.546875 44.28125 53.078125 
z
" id="DejaVuSans-115"/>
       <path d="M 8.015625 75.875 
L 15.828125 75.875 
Q 23.140625 64.359375 26.78125 53.3125 
Q 30.421875 42.28125 30.421875 31.390625 
Q 30.421875 20.453125 26.78125 9.375 
Q 23.140625 -1.703125 15.828125 -13.1875 
L 8.015625 -13.1875 
Q 14.5 -2 17.703125 9.0625 
Q 20.90625 20.125 20.90625 31.390625 
Q 20.90625 42.671875 17.703125 53.65625 
Q 14.5 64.65625 8.015625 75.875 
z
" id="DejaVuSans-41"/>
      </defs>
      <use xlink:href="#DejaVuSans-116"/>
      <use x="39.208984" xlink:href="#DejaVuSans-105"/>
      <use x="66.992188" xlink:href="#DejaVuSans-109"/>
      <use x="164.404297" xlink:href="#DejaVuSans-101"/>
      <use x="225.927734" xlink:href="#DejaVuSans-32"/>
      <use x="257.714844" xlink:href="#DejaVuSans-40"/>
      <use x="296.728516" xlink:href="#DejaVuSans-115"/>
      <use x="348.828125" xlink:href="#DejaVuSans-41"/>
     </g>
    </g>
   </g>
   <g id="matplotlib.axis_2">
    <g id="ytick_1">
     <g id="line2d_6">
      <defs>
       <path d="M 0 0 
L -3.5 0 
" id="mbeb9784215" style="stroke:#000000;stroke-width:0.8;"/>
      </defs>
      <g>
       <use style="stroke:#000000;stroke-width:0.8;" x="76.448125" xlink:href="#mbeb9784215" y="254.83575"/>
      </g>
     </g>
     <g id="text_6">
      <!-- 48 -->
      <g transform="translate(36.363125 264.713719)scale(0.26 -0.26)">
       <defs>
        <path d="M 37.796875 64.3125 
L 12.890625 25.390625 
L 37.796875 25.390625 
z
M 35.203125 72.90625 
L 47.609375 72.90625 
L 47.609375 25.390625 
L 58.015625 25.390625 
L 58.015625 17.1875 
L 47.609375 17.1875 
L 47.609375 0 
L 37.796875 0 
L 37.796875 17.1875 
L 4.890625 17.1875 
L 4.890625 26.703125 
z
" id="DejaVuSans-52"/>
        <path d="M 31.78125 34.625 
Q 24.75 34.625 20.71875 30.859375 
Q 16.703125 27.09375 16.703125 20.515625 
Q 16.703125 13.921875 20.71875 10.15625 
Q 24.75 6.390625 31.78125 6.390625 
Q 38.8125 6.390625 42.859375 10.171875 
Q 46.921875 13.96875 46.921875 20.515625 
Q 46.921875 27.09375 42.890625 30.859375 
Q 38.875 34.625 31.78125 34.625 
z
M 21.921875 38.8125 
Q 15.578125 40.375 12.03125 44.71875 
Q 8.5 49.078125 8.5 55.328125 
Q 8.5 64.0625 14.71875 69.140625 
Q 20.953125 74.21875 31.78125 74.21875 
Q 42.671875 74.21875 48.875 69.140625 
Q 55.078125 64.0625 55.078125 55.328125 
Q 55.078125 49.078125 51.53125 44.71875 
Q 48 40.375 41.703125 38.8125 
Q 48.828125 37.15625 52.796875 32.3125 
Q 56.78125 27.484375 56.78125 20.515625 
Q 56.78125 9.90625 50.3125 4.234375 
Q 43.84375 -1.421875 31.78125 -1.421875 
Q 19.734375 -1.421875 13.25 4.234375 
Q 6.78125 9.90625 6.78125 20.515625 
Q 6.78125 27.484375 10.78125 32.3125 
Q 14.796875 37.15625 21.921875 38.8125 
z
M 18.3125 54.390625 
Q 18.3125 48.734375 21.84375 45.5625 
Q 25.390625 42.390625 31.78125 42.390625 
Q 38.140625 42.390625 41.71875 45.5625 
Q 45.3125 48.734375 45.3125 54.390625 
Q 45.3125 60.0625 41.71875 63.234375 
Q 38.140625 66.40625 31.78125 66.40625 
Q 25.390625 66.40625 21.84375 63.234375 
Q 18.3125 60.0625 18.3125 54.390625 
z
" id="DejaVuSans-56"/>
       </defs>
       <use xlink:href="#DejaVuSans-52"/>
       <use x="63.623047" xlink:href="#DejaVuSans-56"/>
      </g>
     </g>
    </g>
    <g id="ytick_2">
     <g id="line2d_7">
      <g>
       <use style="stroke:#000000;stroke-width:0.8;" x="76.448125" xlink:href="#mbeb9784215" y="200.47575"/>
      </g>
     </g>
     <g id="text_7">
      <!-- 49 -->
      <g transform="translate(36.363125 210.353719)scale(0.26 -0.26)">
       <defs>
        <path d="M 10.984375 1.515625 
L 10.984375 10.5 
Q 14.703125 8.734375 18.5 7.8125 
Q 22.3125 6.890625 25.984375 6.890625 
Q 35.75 6.890625 40.890625 13.453125 
Q 46.046875 20.015625 46.78125 33.40625 
Q 43.953125 29.203125 39.59375 26.953125 
Q 35.25 24.703125 29.984375 24.703125 
Q 19.046875 24.703125 12.671875 31.3125 
Q 6.296875 37.9375 6.296875 49.421875 
Q 6.296875 60.640625 12.9375 67.421875 
Q 19.578125 74.21875 30.609375 74.21875 
Q 43.265625 74.21875 49.921875 64.515625 
Q 56.59375 54.828125 56.59375 36.375 
Q 56.59375 19.140625 48.40625 8.859375 
Q 40.234375 -1.421875 26.421875 -1.421875 
Q 22.703125 -1.421875 18.890625 -0.6875 
Q 15.09375 0.046875 10.984375 1.515625 
z
M 30.609375 32.421875 
Q 37.25 32.421875 41.125 36.953125 
Q 45.015625 41.5 45.015625 49.421875 
Q 45.015625 57.28125 41.125 61.84375 
Q 37.25 66.40625 30.609375 66.40625 
Q 23.96875 66.40625 20.09375 61.84375 
Q 16.21875 57.28125 16.21875 49.421875 
Q 16.21875 41.5 20.09375 36.953125 
Q 23.96875 32.421875 30.609375 32.421875 
z
" id="DejaVuSans-57"/>
       </defs>
       <use xlink:href="#DejaVuSans-52"/>
       <use x="63.623047" xlink:href="#DejaVuSans-57"/>
      </g>
     </g>
    </g>
    <g id="ytick_3">
     <g id="line2d_8">
      <g>
       <use style="stroke:#000000;stroke-width:0.8;" x="76.448125" xlink:href="#mbeb9784215" y="146.11575"/>
      </g>
     </g>
     <g id="text_8">
      <!-- 50 -->
      <g transform="translate(36.363125 155.993719)scale(0.26 -0.26)">
       <defs>
        <path d="M 10.796875 72.90625 
L 49.515625 72.90625 
L 49.515625 64.59375 
L 19.828125 64.59375 
L 19.828125 46.734375 
Q 21.96875 47.46875 24.109375 47.828125 
Q 26.265625 48.1875 28.421875 48.1875 
Q 40.625 48.1875 47.75 41.5 
Q 54.890625 34.8125 54.890625 23.390625 
Q 54.890625 11.625 47.5625 5.09375 
Q 40.234375 -1.421875 26.90625 -1.421875 
Q 22.3125 -1.421875 17.546875 -0.640625 
Q 12.796875 0.140625 7.71875 1.703125 
L 7.71875 11.625 
Q 12.109375 9.234375 16.796875 8.0625 
Q 21.484375 6.890625 26.703125 6.890625 
Q 35.15625 6.890625 40.078125 11.328125 
Q 45.015625 15.765625 45.015625 23.390625 
Q 45.015625 31 40.078125 35.4375 
Q 35.15625 39.890625 26.703125 39.890625 
Q 22.75 39.890625 18.8125 39.015625 
Q 14.890625 38.140625 10.796875 36.28125 
z
" id="DejaVuSans-53"/>
       </defs>
       <use xlink:href="#DejaVuSans-53"/>
       <use x="63.623047" xlink:href="#DejaVuSans-48"/>
      </g>
     </g>
    </g>
    <g id="ytick_4">
     <g id="line2d_9">
      <g>
       <use style="stroke:#000000;stroke-width:0.8;" x="76.448125" xlink:href="#mbeb9784215" y="91.75575"/>
      </g>
     </g>
     <g id="text_9">
      <!-- 51 -->
      <g transform="translate(36.363125 101.633719)scale(0.26 -0.26)">
       <use xlink:href="#DejaVuSans-53"/>
       <use x="63.623047" xlink:href="#DejaVuSans-49"/>
      </g>
     </g>
    </g>
    <g id="ytick_5">
     <g id="line2d_10">
      <g>
       <use style="stroke:#000000;stroke-width:0.8;" x="76.448125" xlink:href="#mbeb9784215" y="37.39575"/>
      </g>
     </g>
     <g id="text_10">
      <!-- 52 -->
      <g transform="translate(36.363125 47.273719)scale(0.26 -0.26)">
       <use xlink:href="#DejaVuSans-53"/>
       <use x="63.623047" xlink:href="#DejaVuSans-50"/>
      </g>
     </g>
    </g>
    <g id="text_11">
     <!-- amplitude (a.u.) -->
     <g transform="translate(26.955937 250.552469)rotate(-90)scale(0.26 -0.26)">
      <defs>
       <path d="M 34.28125 27.484375 
Q 23.390625 27.484375 19.1875 25 
Q 14.984375 22.515625 14.984375 16.5 
Q 14.984375 11.71875 18.140625 8.90625 
Q 21.296875 6.109375 26.703125 6.109375 
Q 34.1875 6.109375 38.703125 11.40625 
Q 43.21875 16.703125 43.21875 25.484375 
L 43.21875 27.484375 
z
M 52.203125 31.203125 
L 52.203125 0 
L 43.21875 0 
L 43.21875 8.296875 
Q 40.140625 3.328125 35.546875 0.953125 
Q 30.953125 -1.421875 24.3125 -1.421875 
Q 15.921875 -1.421875 10.953125 3.296875 
Q 6 8.015625 6 15.921875 
Q 6 25.140625 12.171875 29.828125 
Q 18.359375 34.515625 30.609375 34.515625 
L 43.21875 34.515625 
L 43.21875 35.40625 
Q 43.21875 41.609375 39.140625 45 
Q 35.0625 48.390625 27.6875 48.390625 
Q 23 48.390625 18.546875 47.265625 
Q 14.109375 46.140625 10.015625 43.890625 
L 10.015625 52.203125 
Q 14.9375 54.109375 19.578125 55.046875 
Q 24.21875 56 28.609375 56 
Q 40.484375 56 46.34375 49.84375 
Q 52.203125 43.703125 52.203125 31.203125 
z
" id="DejaVuSans-97"/>
       <path d="M 18.109375 8.203125 
L 18.109375 -20.796875 
L 9.078125 -20.796875 
L 9.078125 54.6875 
L 18.109375 54.6875 
L 18.109375 46.390625 
Q 20.953125 51.265625 25.265625 53.625 
Q 29.59375 56 35.59375 56 
Q 45.5625 56 51.78125 48.09375 
Q 58.015625 40.1875 58.015625 27.296875 
Q 58.015625 14.40625 51.78125 6.484375 
Q 45.5625 -1.421875 35.59375 -1.421875 
Q 29.59375 -1.421875 25.265625 0.953125 
Q 20.953125 3.328125 18.109375 8.203125 
z
M 48.6875 27.296875 
Q 48.6875 37.203125 44.609375 42.84375 
Q 40.53125 48.484375 33.40625 48.484375 
Q 26.265625 48.484375 22.1875 42.84375 
Q 18.109375 37.203125 18.109375 27.296875 
Q 18.109375 17.390625 22.1875 11.75 
Q 26.265625 6.109375 33.40625 6.109375 
Q 40.53125 6.109375 44.609375 11.75 
Q 48.6875 17.390625 48.6875 27.296875 
z
" id="DejaVuSans-112"/>
       <path d="M 9.421875 75.984375 
L 18.40625 75.984375 
L 18.40625 0 
L 9.421875 0 
z
" id="DejaVuSans-108"/>
       <path d="M 8.5 21.578125 
L 8.5 54.6875 
L 17.484375 54.6875 
L 17.484375 21.921875 
Q 17.484375 14.15625 20.5 10.265625 
Q 23.53125 6.390625 29.59375 6.390625 
Q 36.859375 6.390625 41.078125 11.03125 
Q 45.3125 15.671875 45.3125 23.6875 
L 45.3125 54.6875 
L 54.296875 54.6875 
L 54.296875 0 
L 45.3125 0 
L 45.3125 8.40625 
Q 42.046875 3.421875 37.71875 1 
Q 33.40625 -1.421875 27.6875 -1.421875 
Q 18.265625 -1.421875 13.375 4.4375 
Q 8.5 10.296875 8.5 21.578125 
z
M 31.109375 56 
z
" id="DejaVuSans-117"/>
       <path d="M 45.40625 46.390625 
L 45.40625 75.984375 
L 54.390625 75.984375 
L 54.390625 0 
L 45.40625 0 
L 45.40625 8.203125 
Q 42.578125 3.328125 38.25 0.953125 
Q 33.9375 -1.421875 27.875 -1.421875 
Q 17.96875 -1.421875 11.734375 6.484375 
Q 5.515625 14.40625 5.515625 27.296875 
Q 5.515625 40.1875 11.734375 48.09375 
Q 17.96875 56 27.875 56 
Q 33.9375 56 38.25 53.625 
Q 42.578125 51.265625 45.40625 46.390625 
z
M 14.796875 27.296875 
Q 14.796875 17.390625 18.875 11.75 
Q 22.953125 6.109375 30.078125 6.109375 
Q 37.203125 6.109375 41.296875 11.75 
Q 45.40625 17.390625 45.40625 27.296875 
Q 45.40625 37.203125 41.296875 42.84375 
Q 37.203125 48.484375 30.078125 48.484375 
Q 22.953125 48.484375 18.875 42.84375 
Q 14.796875 37.203125 14.796875 27.296875 
z
" id="DejaVuSans-100"/>
       <path d="M 10.6875 12.40625 
L 21 12.40625 
L 21 0 
L 10.6875 0 
z
" id="DejaVuSans-46"/>
      </defs>
      <use xlink:href="#DejaVuSans-97"/>
      <use x="61.279297" xlink:href="#DejaVuSans-109"/>
      <use x="158.691406" xlink:href="#DejaVuSans-112"/>
      <use x="222.167969" xlink:href="#DejaVuSans-108"/>
      <use x="249.951172" xlink:href="#DejaVuSans-105"/>
      <use x="277.734375" xlink:href="#DejaVuSans-116"/>
      <use x="316.943359" xlink:href="#DejaVuSans-117"/>
      <use x="380.322266" xlink:href="#DejaVuSans-100"/>
      <use x="443.798828" xlink:href="#DejaVuSans-101"/>
      <use x="505.322266" xlink:href="#DejaVuSans-32"/>
      <use x="537.109375" xlink:href="#DejaVuSans-40"/>
      <use x="576.123047" xlink:href="#DejaVuSans-97"/>
      <use x="637.402344" xlink:href="#DejaVuSans-46"/>
      <use x="669.189453" xlink:href="#DejaVuSans-117"/>
      <use x="732.568359" xlink:href="#DejaVuSans-46"/>
      <use x="764.355469" xlink:href="#DejaVuSans-41"/>
     </g>
    </g>
   </g>
   <g id="line2d_11">
    <path clip-path="url(#pf223274fc7)" d="M 91.666307 146.11575 
L 111.050586 146.009928 
L 112.369935 145.919614 
L 116.835424 145.960421 
L 118.256261 146.000159 
L 122.214308 145.892461 
L 123.229191 145.761561 
L 127.593192 145.704909 
L 130.333378 145.890636 
L 132.261657 145.842877 
L 133.581006 145.622301 
L 137.742029 145.501313 
L 142.917936 145.715667 
L 146.571518 145.295225 
L 149.108727 145.25848 
L 151.950402 145.571625 
L 152.965285 145.514369 
L 154.690588 145.171153 
L 158.750123 144.928213 
L 159.866495 145.058698 
L 161.185844 145.2421 
L 163.520076 145.184248 
L 165.448355 144.744409 
L 169.203425 144.583813 
L 172.0451 144.813076 
L 173.87189 144.722666 
L 175.394216 144.333029 
L 178.844821 144.061866 
L 179.961193 144.163419 
L 181.38203 144.392793 
L 184.426681 144.24265 
L 185.847519 143.85593 
L 189.196635 143.52022 
L 190.211519 143.580195 
L 192.241286 143.910102 
L 195.184449 143.70704 
L 196.300821 143.361611 
L 198.736542 143.091379 
L 200.461845 143.007964 
L 201.172263 143.200561 
L 201.98417 143.44448 
L 203.405008 143.406182 
L 206.043705 143.229223 
L 207.261566 142.850093 
L 209.088357 142.678917 
L 211.219612 142.590224 
L 211.930031 142.879896 
L 212.437473 142.994708 
L 214.264264 142.942456 
L 216.699985 142.796338 
L 218.120822 142.336082 
L 221.266962 141.984192 
L 221.97738 142.066654 
L 222.789287 142.456583 
L 223.296729 142.549267 
L 226.34138 142.476636 
L 226.950311 142.350938 
L 228.472636 141.796623 
L 230.806869 141.516234 
L 232.227706 141.464439 
L 232.735148 141.654409 
L 233.445567 141.959381 
L 234.561939 141.936895 
L 238.012543 141.654524 
L 239.027427 141.23927 
L 240.143799 141.088926 
L 243.188451 140.945642 
L 244.507799 141.439223 
L 247.958404 141.284849 
L 248.668823 140.903746 
L 249.379241 140.626267 
L 250.800079 140.405243 
L 253.438776 140.264249 
L 253.946218 140.581163 
L 254.45366 140.859221 
L 255.367056 140.865529 
L 259.325102 140.557521 
L 260.441474 140.084453 
L 261.659335 139.94707 
L 263.18166 139.718766 
L 263.993567 139.678421 
L 264.501009 139.868038 
L 265.617381 140.52228 
L 267.545661 140.448978 
L 269.981382 140.258646 
L 271.503707 139.599269 
L 273.026033 139.410783 
L 275.360265 139.353834 
L 275.867707 139.83585 
L 276.273661 140.068519 
L 277.288545 140.070354 
L 281.145103 139.787419 
L 282.464452 139.182079 
L 283.885289 139.020341 
L 285.407615 138.760625 
L 286.016545 138.771198 
L 286.422498 138.964357 
L 287.53887 139.747158 
L 289.771615 139.667011 
L 291.902871 139.476354 
L 293.425196 138.710569 
L 295.353475 138.512386 
L 296.977289 138.416281 
L 297.383243 138.680375 
L 298.19515 139.410297 
L 299.818964 139.375469 
L 303.16808 139.176736 
L 303.675522 138.934265 
L 304.487429 138.486066 
L 305.400824 138.332708 
L 308.546964 138.158595 
L 308.952918 138.561155 
L 309.460359 139.174683 
L 309.967801 139.223407 
L 312.809476 139.112773 
L 315.143708 138.903728 
L 315.65115 138.844641 
L 317.376453 138.177353 
L 319.609197 137.949201 
L 320.421104 137.819873 
L 320.827057 137.992127 
L 321.233011 138.493154 
L 321.638964 139.041739 
L 322.044918 139.119165 
L 324.886592 139.021143 
L 326.611895 138.815292 
L 328.13422 137.904411 
L 329.047616 137.803872 
L 330.366965 137.653557 
L 331.28036 137.465519 
L 331.686313 137.601016 
L 331.990779 137.907675 
L 332.701197 138.898984 
L 333.310127 138.933052 
L 335.745848 138.825692 
L 337.775616 138.653907 
L 338.283058 138.521485 
L 339.703895 137.817185 
L 342.748546 137.412859 
L 343.1545 137.533446 
L 343.458965 137.816499 
L 343.864918 138.573272 
L 344.169384 139.035878 
L 344.473849 139.10162 
L 346.605105 139.073137 
L 348.431895 138.979709 
L 350.66464 138.74872 
L 351.27357 138.764015 
L 351.8825 138.435093 
L 352.49143 138.189403 
L 353.303337 138.126383 
L 354.724175 138.023088 
L 355.942035 137.809495 
L 356.347989 138.038206 
L 356.652454 138.494484 
L 357.159896 139.405123 
L 357.464361 139.470343 
L 361.219431 139.271846 
L 363.14771 138.930796 
L 364.162593 138.222359 
L 364.873012 138.120373 
L 366.699803 138.024907 
L 367.613198 137.894236 
L 367.917663 138.053807 
L 368.222128 138.455701 
L 368.932547 139.794616 
L 369.439989 139.785595 
L 370.860826 139.784937 
L 372.992082 139.713899 
L 375.529291 139.430769 
L 376.036733 139.361585 
L 377.762036 138.632022 
L 379.690315 138.467104 
L 380.60371 138.332616 
L 380.908175 138.473113 
L 381.21264 138.841377 
L 382.024547 140.218147 
L 383.74985 140.199578 
L 385.779617 140.132121 
L 388.621292 139.644301 
L 389.534687 139.028834 
L 390.245106 138.912328 
L 391.970408 138.783407 
L 393.08678 138.494857 
L 393.391245 138.652639 
L 393.695711 139.094367 
L 394.406129 140.537354 
L 394.913571 140.564489 
L 396.029943 140.542896 
L 396.029943 140.542896 
" style="fill:none;stroke:#ff7f0e;stroke-linecap:square;stroke-width:1.5;"/>
   </g>
   <g id="patch_3">
    <path d="M 76.448125 254.83575 
L 76.448125 37.39575 
" style="fill:none;stroke:#000000;stroke-linecap:square;stroke-linejoin:miter;stroke-width:0.8;"/>
   </g>
   <g id="patch_4">
    <path d="M 411.248125 254.83575 
L 411.248125 37.39575 
" style="fill:none;stroke:#000000;stroke-linecap:square;stroke-linejoin:miter;stroke-width:0.8;"/>
   </g>
   <g id="patch_5">
    <path d="M 76.448125 254.83575 
L 411.248125 254.83575 
" style="fill:none;stroke:#000000;stroke-linecap:square;stroke-linejoin:miter;stroke-width:0.8;"/>
   </g>
   <g id="patch_6">
    <path d="M 76.448125 37.39575 
L 411.248125 37.39575 
" style="fill:none;stroke:#000000;stroke-linecap:square;stroke-linejoin:miter;stroke-width:0.8;"/>
   </g>
   <g id="text_12">
    <!-- $b(t)$ -->
    <g transform="translate(221.228125 30.907125)scale(0.312 -0.312)">
     <defs>
      <path d="M 16.296875 29 
L 16.40625 29 
Q 21.40625 37.296875 25.84375 40.6875 
Q 30.296875 44.09375 35.703125 44.09375 
Q 40.90625 44.09375 44.09375 40.890625 
Q 47.296875 37.703125 47.296875 32.09375 
Q 47.296875 24.40625 42.59375 16.59375 
Q 37.90625 8.796875 30.34375 3.84375 
Q 22.796875 -1.09375 15.296875 -1.09375 
Q 10.703125 -1.09375 6.5 0.5 
Q 2.296875 2.09375 2.296875 4.203125 
L 2.296875 4.796875 
L 16.5 57.09375 
Q 17.40625 60.703125 17.40625 61.796875 
Q 17.40625 63.40625 16.453125 63.75 
Q 15.5 64.09375 11 64.296875 
L 11 66 
Q 18.5 66.90625 26.296875 68.296875 
L 26.796875 67.796875 
L 24.703125 59.59375 
z
M 38.796875 30.59375 
Q 38.796875 39.203125 31.796875 39.203125 
Q 24.90625 39.203125 18.09375 27.703125 
Q 14.90625 22.296875 12.90625 15.75 
Q 10.90625 9.203125 10.90625 4.59375 
Q 10.90625 1.203125 15.5 1.203125 
Q 22.09375 1.203125 27.796875 7.09375 
Q 32.40625 11.90625 35.59375 18.546875 
Q 38.796875 25.203125 38.796875 30.59375 
z
" id="STIXGeneral-Italic-98"/>
      <path d="M 30.40625 -16.09375 
L 29.203125 -17.703125 
Q 17.59375 -11.09375 11.1875 0.5 
Q 4.796875 12.09375 4.796875 25.203125 
Q 4.796875 52.90625 29.5 67.59375 
L 30.40625 66 
Q 20.203125 57.296875 16.796875 48.84375 
Q 13.40625 40.40625 13.40625 25.5 
Q 13.40625 10.703125 16.90625 1.5 
Q 20.40625 -7.703125 30.40625 -16.09375 
z
" id="STIXGeneral-Regular-40"/>
      <path d="M 29.59375 42.796875 
L 29.09375 39.59375 
L 20.703125 39.59375 
L 12 6.796875 
Q 11.796875 6 11.796875 5.40625 
Q 11.796875 3.796875 13.296875 3.796875 
Q 14.5 3.796875 16.09375 5.34375 
Q 17.703125 6.90625 21.40625 11.703125 
L 22.703125 11 
Q 18.09375 4 15.140625 1.453125 
Q 12.203125 -1.09375 8.40625 -1.09375 
Q 3.796875 -1.09375 3.796875 2.59375 
Q 3.796875 3.59375 5.40625 10 
L 13.203125 39.59375 
L 5.703125 39.59375 
L 5.59375 40.203125 
Q 5.59375 42 8.90625 42.703125 
Q 11.40625 43.296875 15.5 46.546875 
Q 19.59375 49.796875 22.203125 53.703125 
Q 22.796875 54.59375 23.59375 54.59375 
Q 24.5 54.59375 24.5 53.796875 
Q 24.5 53.296875 24.40625 53.09375 
L 21.59375 42.796875 
z
" id="STIXGeneral-Italic-116"/>
      <path d="M 2.90625 66 
L 4.09375 67.59375 
Q 15.5 60.796875 22 49.1875 
Q 28.5 37.59375 28.5 24.703125 
Q 28.5 -2.59375 3.796875 -17.703125 
L 2.90625 -16.09375 
Q 13.203125 -7.59375 16.546875 0.84375 
Q 19.90625 9.296875 19.90625 24.40625 
Q 19.90625 39.59375 16.546875 48.75 
Q 13.203125 57.90625 2.90625 66 
z
" id="STIXGeneral-Regular-41"/>
     </defs>
     <use transform="translate(0 0.703125)" xlink:href="#STIXGeneral-Italic-98"/>
     <use transform="translate(49.999985 0.703125)" xlink:href="#STIXGeneral-Regular-40"/>
     <use transform="translate(83.299973 0.703125)" xlink:href="#STIXGeneral-Italic-116"/>
     <use transform="translate(111.09996 0.703125)" xlink:href="#STIXGeneral-Regular-41"/>
    </g>
   </g>
   <g id="legend_1">
    <g id="line2d_12">
     <path d="M 438.388125 58.451688 
L 490.388125 58.451688 
" style="fill:none;stroke:#1f77b4;stroke-linecap:square;stroke-width:1.5;"/>
    </g>
    <g id="line2d_13"/>
    <g id="text_13">
     <!-- exact -->
     <g transform="translate(511.188125 67.551688)scale(0.26 -0.26)">
      <defs>
       <path d="M 54.890625 54.6875 
L 35.109375 28.078125 
L 55.90625 0 
L 45.3125 0 
L 29.390625 21.484375 
L 13.484375 0 
L 2.875 0 
L 24.125 28.609375 
L 4.6875 54.6875 
L 15.28125 54.6875 
L 29.78125 35.203125 
L 44.28125 54.6875 
z
" id="DejaVuSans-120"/>
       <path d="M 48.78125 52.59375 
L 48.78125 44.1875 
Q 44.96875 46.296875 41.140625 47.34375 
Q 37.3125 48.390625 33.40625 48.390625 
Q 24.65625 48.390625 19.8125 42.84375 
Q 14.984375 37.3125 14.984375 27.296875 
Q 14.984375 17.28125 19.8125 11.734375 
Q 24.65625 6.203125 33.40625 6.203125 
Q 37.3125 6.203125 41.140625 7.25 
Q 44.96875 8.296875 48.78125 10.40625 
L 48.78125 2.09375 
Q 45.015625 0.34375 40.984375 -0.53125 
Q 36.96875 -1.421875 32.421875 -1.421875 
Q 20.0625 -1.421875 12.78125 6.34375 
Q 5.515625 14.109375 5.515625 27.296875 
Q 5.515625 40.671875 12.859375 48.328125 
Q 20.21875 56 33.015625 56 
Q 37.15625 56 41.109375 55.140625 
Q 45.0625 54.296875 48.78125 52.59375 
z
" id="DejaVuSans-99"/>
      </defs>
      <use xlink:href="#DejaVuSans-101"/>
      <use x="59.773438" xlink:href="#DejaVuSans-120"/>
      <use x="118.953125" xlink:href="#DejaVuSans-97"/>
      <use x="180.232422" xlink:href="#DejaVuSans-99"/>
      <use x="235.212891" xlink:href="#DejaVuSans-116"/>
     </g>
    </g>
    <g id="line2d_14">
     <path d="M 438.388125 96.614813 
L 490.388125 96.614813 
" style="fill:none;stroke:#ff7f0e;stroke-linecap:square;stroke-width:1.5;"/>
    </g>
    <g id="line2d_15"/>
    <g id="text_14">
     <!-- estimated -->
     <g transform="translate(511.188125 105.714813)scale(0.26 -0.26)">
      <use xlink:href="#DejaVuSans-101"/>
      <use x="61.523438" xlink:href="#DejaVuSans-115"/>
      <use x="113.623047" xlink:href="#DejaVuSans-116"/>
      <use x="152.832031" xlink:href="#DejaVuSans-105"/>
      <use x="180.615234" xlink:href="#DejaVuSans-109"/>
      <use x="278.027344" xlink:href="#DejaVuSans-97"/>
      <use x="339.306641" xlink:href="#DejaVuSans-116"/>
      <use x="378.515625" xlink:href="#DejaVuSans-101"/>
      <use x="440.039062" xlink:href="#DejaVuSans-100"/>
     </g>
    </g>
   </g>
  </g>
 </g>
 <defs>
  <clipPath id="pf223274fc7">
   <rect height="217.44" width="334.8" x="76.448125" y="37.39575"/>
  </clipPath>
 </defs>
</svg>
