<?xml version="1.0" encoding="utf-8" standalone="no"?>
<!DOCTYPE svg PUBLIC "-//W3C//DTD SVG 1.1//EN"
  "http://www.w3.org/Graphics/SVG/1.1/DTD/svg11.dtd">
<!-- Created with matplotlib (https://matplotlib.org/) -->
<svg height="323.362pt" version="1.1" viewBox="0 0 667.965312 323.362" width="667.965312pt" xmlns="http://www.w3.org/2000/svg" xmlns:xlink="http://www.w3.org/1999/xlink">
 <metadata>
  <rdf:RDF xmlns:cc="http://creativecommons.org/ns#" xmlns:dc="http://purl.org/dc/elements/1.1/" xmlns:rdf="http://www.w3.org/1999/02/22-rdf-syntax-ns#">
   <cc:Work>
    <dc:type rdf:resource="http://purl.org/dc/dcmitype/StillImage"/>
    <dc:date>2021-09-06T21:54:17.178314</dc:date>
    <dc:format>image/svg+xml</dc:format>
    <dc:creator>
     <cc:Agent>
      <dc:title>Matplotlib v3.3.2, https://matplotlib.org/</dc:title>
     </cc:Agent>
    </dc:creator>
   </cc:Work>
  </rdf:RDF>
 </metadata>
 <defs>
  <style type="text/css">*{stroke-linecap:butt;stroke-linejoin:round;}</style>
 </defs>
 <g id="figure_1">
  <g id="patch_1">
   <path d="M 0 323.362 
L 667.965312 323.362 
L 667.965312 0 
L 0 0 
z
" style="fill:#ffffff;"/>
  </g>
  <g id="axes_1">
   <g id="patch_2">
    <path d="M 84.71125 254.83575 
L 419.51125 254.83575 
L 419.51125 37.39575 
L 84.71125 37.39575 
z
" style="fill:#ffffff;"/>
   </g>
   <g id="line2d_1">
    <path clip-path="url(#p985d1c8bcb)" d="M 99.929432 207.63893 
L 100.03092 199.241991 
L 100.132409 180.935939 
L 100.233897 186.337939 
L 100.335385 227.566794 
L 100.436874 199.617788 
L 100.538362 215.574423 
L 100.63985 214.86667 
L 100.741339 207.408416 
L 100.842827 211.262421 
L 100.944316 192.259334 
L 101.147292 211.556641 
L 101.248781 206.876153 
L 101.350269 208.463385 
L 101.451757 191.632074 
L 101.553246 216.254116 
L 101.654734 208.731792 
L 101.857711 250.257866 
L 102.060688 200.698489 
L 102.162176 223.977568 
L 102.263664 180.30655 
L 102.365153 234.281149 
L 102.466641 212.525081 
L 102.56813 215.891527 
L 102.669618 190.948638 
L 102.771106 191.857658 
L 102.872595 210.901023 
L 102.974083 207.654936 
L 103.17706 241.829629 
L 103.481525 195.250404 
L 103.583013 195.644527 
L 103.684502 218.678423 
L 103.78599 217.435404 
L 103.988967 233.616725 
L 104.090455 237.755671 
L 104.191944 184.732552 
L 104.293432 220.388304 
L 104.39492 219.340087 
L 104.496409 231.13964 
L 104.597897 201.697956 
L 104.699385 236.352838 
L 104.800874 216.030957 
L 104.902362 225.917037 
L 105.003851 207.317076 
L 105.206827 230.018523 
L 105.409804 206.673366 
L 105.511292 211.907395 
L 105.612781 208.476141 
L 105.714269 222.045032 
L 105.815758 218.097301 
L 105.917246 222.576078 
L 106.018734 218.029241 
L 106.221711 237.819426 
L 106.323199 210.212272 
L 106.424688 218.597446 
L 106.526176 236.393554 
L 106.627665 206.042656 
L 106.729153 225.892274 
L 106.93213 202.14898 
L 107.033618 210.83701 
L 107.135106 196.178844 
L 107.236595 230.584462 
L 107.338083 206.840892 
L 107.54106 225.273873 
L 107.845525 211.802815 
L 107.947013 229.49569 
L 108.048502 199.535967 
L 108.14999 205.832754 
L 108.251479 234.841015 
L 108.454455 185.066015 
L 108.657432 215.134132 
L 108.75892 228.0361 
L 108.860409 197.217645 
L 108.961897 218.335917 
L 109.063386 194.759367 
L 109.164874 209.449223 
L 109.266362 198.299443 
L 109.367851 207.279321 
L 109.469339 202.191108 
L 109.570827 212.269748 
L 109.672316 186.522321 
L 109.773804 210.558905 
L 109.875293 206.559686 
L 109.976781 185.077053 
L 110.078269 231.900581 
L 110.179758 230.768656 
L 110.281246 198.287549 
L 110.382734 229.333719 
L 110.484223 184.141566 
L 110.6872 223.127695 
L 110.788688 184.405736 
L 110.890176 190.807254 
L 110.991665 185.184734 
L 111.194641 224.717277 
L 111.29613 184.532656 
L 111.397618 216.093922 
L 111.600595 198.453492 
L 111.702083 214.419806 
L 111.90506 198.780255 
L 112.006548 206.679758 
L 112.108037 228.061175 
L 112.311014 192.872583 
L 112.412502 222.156102 
L 112.51399 214.244501 
L 112.615479 218.371115 
L 112.716967 185.243911 
L 113.021432 223.174539 
L 113.122921 204.184501 
L 113.224409 221.764184 
L 113.325897 211.515221 
L 113.427386 221.181418 
L 113.528874 202.146151 
L 113.630362 203.580981 
L 113.731851 214.946231 
L 113.833339 206.173689 
L 114.036316 233.506344 
L 114.137804 205.507055 
L 114.239293 209.447759 
L 114.340781 202.645801 
L 114.442269 177.292487 
L 114.645246 225.045431 
L 114.746735 195.608162 
L 114.848223 230.863072 
L 115.152688 186.912671 
L 115.355665 223.703634 
L 115.457153 213.137862 
L 115.558642 221.315566 
L 115.66013 195.353138 
L 115.863107 228.292626 
L 115.964595 217.99256 
L 116.066083 218.852377 
L 116.167572 183.649357 
L 116.472037 229.344494 
L 116.573525 199.327559 
L 116.776502 233.934105 
L 116.87799 194.306218 
L 116.979479 206.920269 
L 117.080967 198.152649 
L 117.182456 206.867868 
L 117.283944 199.05423 
L 117.486921 226.440566 
L 117.588409 201.554421 
L 117.689897 223.067651 
L 117.791386 221.403725 
L 117.994363 211.127737 
L 118.095851 216.499127 
L 118.197339 231.285418 
L 118.298828 220.670486 
L 118.400316 243.557492 
L 118.501804 202.250108 
L 118.603293 234.52329 
L 118.704781 227.295379 
L 118.80627 210.516405 
L 118.907758 221.979624 
L 119.009246 188.877684 
L 119.110735 229.972758 
L 119.212223 207.346592 
L 119.313711 211.773439 
L 119.4152 228.122888 
L 119.516688 203.590972 
L 119.618177 213.649288 
L 119.922642 179.762626 
L 120.125618 216.444663 
L 120.227107 214.549061 
L 120.328595 195.124349 
L 120.531572 201.757583 
L 120.63306 234.462246 
L 120.734549 211.36138 
L 120.836037 221.693117 
L 120.937525 206.922683 
L 121.039014 212.389082 
L 121.140502 197.75814 
L 121.241991 206.339473 
L 121.343479 199.525009 
L 121.546456 224.58574 
L 121.850921 205.355822 
L 121.952409 178.086666 
L 122.155386 224.66612 
L 122.256874 215.809622 
L 122.358363 217.500062 
L 122.459851 203.785698 
L 122.561339 233.086102 
L 122.764316 208.452824 
L 122.865805 207.341226 
L 122.967293 219.350971 
L 123.068781 214.12652 
L 123.17027 231.306098 
L 123.474735 204.587612 
L 123.576223 227.363898 
L 123.7792 188.910161 
L 123.880688 240.56584 
L 124.083665 200.717058 
L 124.185153 219.754856 
L 124.38813 212.410833 
L 124.591107 214.933973 
L 124.692595 234.734796 
L 124.794084 193.720145 
L 124.895572 194.759064 
L 125.098549 231.636171 
L 125.200037 202.810323 
L 125.301526 218.695071 
L 125.403014 208.275439 
L 125.504502 214.946895 
L 125.707479 200.216184 
L 125.910456 230.309766 
L 126.011944 233.187385 
L 126.113433 201.377612 
L 126.214921 227.443911 
L 126.316409 217.541526 
L 126.417898 218.823368 
L 126.519386 210.925672 
L 126.620874 238.216399 
L 126.823851 202.522545 
L 127.026828 214.592152 
L 127.229805 204.269541 
L 127.331293 250.229867 
L 127.432781 181.669676 
L 127.635758 219.448254 
L 127.737247 215.642339 
L 127.838735 202.80191 
L 127.940223 211.626319 
L 128.041712 239.364137 
L 128.1432 179.984479 
L 128.244688 211.49777 
L 128.346177 195.090927 
L 128.447665 219.895257 
L 128.549154 187.575905 
L 128.650642 205.680286 
L 128.75213 200.989194 
L 128.853619 224.950831 
L 128.955107 192.225892 
L 129.056595 199.766839 
L 129.158084 190.878642 
L 129.259572 218.838697 
L 129.361061 216.690616 
L 129.462549 176.303751 
L 129.564037 225.050969 
L 129.767014 193.171826 
L 129.868502 208.219153 
L 129.969991 201.168821 
L 130.071479 215.393246 
L 130.172968 204.221991 
L 130.274456 228.509195 
L 130.375944 185.516952 
L 130.578921 219.379861 
L 130.680409 199.843458 
L 130.883386 228.811374 
L 130.984875 228.975247 
L 131.086363 199.379533 
L 131.187851 211.732856 
L 131.28934 211.341 
L 131.390828 193.763043 
L 131.492316 225.703611 
L 131.796782 207.950636 
L 131.999758 213.443074 
L 132.101247 210.160651 
L 132.202735 210.805742 
L 132.405712 221.001166 
L 132.5072 205.219475 
L 132.710177 225.941491 
L 133.014642 176.399198 
L 133.11613 219.310671 
L 133.217619 195.404473 
L 133.319107 198.229355 
L 133.420596 226.278131 
L 133.522084 197.816669 
L 133.725061 247.538137 
L 133.826549 200.184041 
L 133.928037 234.409083 
L 134.029526 202.401362 
L 134.131014 218.835916 
L 134.232503 184.846003 
L 134.333991 193.396067 
L 134.536968 218.820642 
L 134.638456 226.431255 
L 134.841433 212.860416 
L 134.942921 214.065133 
L 135.145898 200.356507 
L 135.247386 203.656228 
L 135.450363 229.531087 
L 135.551851 188.890585 
L 135.65334 218.647042 
L 135.754828 218.090352 
L 135.856317 216.171753 
L 135.957805 235.315588 
L 136.059293 215.508992 
L 136.160782 215.515171 
L 136.363758 198.400755 
L 136.465247 208.452637 
L 136.566735 194.980907 
L 136.769712 208.67958 
L 136.8712 206.101028 
L 137.074177 214.120673 
L 137.175665 212.259501 
L 137.277154 224.711558 
L 137.378642 204.276064 
L 137.480131 222.719077 
L 137.581619 196.103851 
L 137.683107 211.901639 
L 137.987572 198.90387 
L 138.089061 230.978342 
L 138.292038 195.413878 
L 138.393526 232.769831 
L 138.495014 202.521179 
L 138.596503 240.812932 
L 138.799479 207.518346 
L 138.900968 232.075061 
L 139.002456 222.326237 
L 139.103945 229.356917 
L 139.205433 184.110725 
L 139.306921 205.602305 
L 139.40841 199.740342 
L 139.712875 231.338499 
L 139.814363 212.117271 
L 139.915852 218.906064 
L 140.118828 191.287319 
L 140.220317 186.54979 
L 140.321805 195.431274 
L 140.524782 223.92692 
L 140.62627 196.617786 
L 140.727759 202.546941 
L 140.829247 233.328891 
L 141.032224 195.845575 
L 141.438177 228.542838 
L 141.539666 195.952927 
L 141.641154 212.015112 
L 141.742642 210.898634 
L 141.844131 182.376855 
L 142.047107 202.078968 
L 142.148596 205.375104 
L 142.351573 182.46714 
L 142.554549 198.914125 
L 142.656038 237.697244 
L 142.757526 205.520199 
L 142.859014 209.179463 
L 142.960503 205.911216 
L 143.061991 193.582463 
L 143.16348 246.946885 
L 143.366456 203.279224 
L 143.569433 227.690333 
L 143.670921 194.533871 
L 143.77241 203.096302 
L 143.873898 221.166408 
L 144.076875 195.13835 
L 144.178363 206.950675 
L 144.279852 195.401719 
L 144.584317 223.751397 
L 144.787294 204.086291 
L 144.888782 194.185802 
L 144.99027 208.529552 
L 145.091759 200.209305 
L 145.193247 220.802031 
L 145.294735 218.142989 
L 145.396224 208.377149 
L 145.497712 222.043755 
L 145.599201 194.844431 
L 145.802177 202.646637 
L 145.903666 201.758438 
L 146.005154 177.352895 
L 146.208131 238.519436 
L 146.309619 203.696938 
L 146.512596 214.045151 
L 146.614084 220.710863 
L 146.817061 203.850064 
L 146.918549 213.746027 
L 147.020038 171.464684 
L 147.121526 220.337467 
L 147.223015 217.889375 
L 147.324503 239.546498 
L 147.425991 202.703426 
L 147.52748 235.557023 
L 147.730456 210.279709 
L 147.831945 216.549953 
L 147.933433 181.033151 
L 148.034922 191.803188 
L 148.13641 187.073767 
L 148.237898 218.96553 
L 148.339387 189.791865 
L 148.440875 198.939879 
L 148.643852 191.16295 
L 148.74534 219.236969 
L 148.846829 212.192253 
L 148.948317 193.514926 
L 149.049805 244.492712 
L 149.151294 184.037359 
L 149.35427 206.592394 
L 149.455759 202.710993 
L 149.557247 220.814982 
L 149.658736 210.935352 
L 149.963201 166.710503 
L 150.166177 215.296107 
L 150.267666 213.181385 
L 150.369154 220.461876 
L 150.572131 200.110731 
L 150.673619 206.132384 
L 150.775108 189.720517 
L 150.978084 210.604007 
L 151.079573 213.970478 
L 151.181061 229.188094 
L 151.28255 228.224763 
L 151.384038 222.568419 
L 151.485526 186.586753 
L 151.587015 192.451435 
L 151.688503 185.474487 
L 151.89148 233.896721 
L 152.094457 202.764296 
L 152.297433 190.074853 
L 152.398922 201.121931 
L 152.50041 179.957679 
L 152.703387 218.408409 
L 152.804875 229.519802 
L 153.007852 201.591915 
L 153.10934 217.96089 
L 153.312317 184.557479 
L 153.413805 239.35635 
L 153.515294 192.457718 
L 153.616782 237.424486 
L 153.819759 187.155685 
L 154.022736 223.413864 
L 154.225712 208.608239 
L 154.327201 207.433162 
L 154.428689 207.708413 
L 154.530178 206.335924 
L 154.631666 201.624263 
L 154.733154 222.214124 
L 154.936131 182.63736 
L 155.139108 211.03121 
L 155.240596 188.943404 
L 155.342085 241.646446 
L 155.443573 187.398758 
L 155.545061 213.659581 
L 155.849526 190.763711 
L 156.052503 214.205025 
L 156.153992 185.538053 
L 156.25548 238.597915 
L 156.356968 204.007276 
L 156.458457 223.81672 
L 156.559945 215.292077 
L 156.661433 175.072212 
L 156.762922 204.848887 
L 156.86441 201.349707 
L 156.965899 229.977942 
L 157.270364 198.934526 
L 157.371852 195.109528 
L 157.47334 203.901631 
L 157.574829 196.361996 
L 157.676317 197.398137 
L 157.777806 230.474751 
L 157.980782 192.768558 
L 158.082271 195.323736 
L 158.285247 215.50201 
L 158.386736 220.00915 
L 158.589713 187.321765 
L 158.691201 232.014583 
L 158.792689 213.261324 
L 158.894178 220.192375 
L 158.995666 192.265282 
L 159.097154 211.653489 
L 159.198643 210.414733 
L 159.300131 206.711386 
L 159.40162 197.084142 
L 159.503108 209.202674 
L 159.604596 247.645496 
L 159.706085 195.586722 
L 159.807573 197.072133 
L 160.01055 219.098437 
L 160.213527 197.834435 
L 160.315015 210.11917 
L 160.416503 206.421014 
L 160.517992 216.736487 
L 160.61948 205.815392 
L 160.720968 225.675176 
L 160.822457 197.124249 
L 160.923945 216.83678 
L 161.025434 199.669145 
L 161.126922 223.474963 
L 161.329899 204.642538 
L 161.431387 227.08771 
L 161.532875 201.318306 
L 161.634364 208.456859 
L 161.735852 228.191139 
L 161.837341 221.79892 
L 162.040317 189.871358 
L 162.141806 204.738541 
L 162.243294 196.931982 
L 162.344782 199.527552 
L 162.446271 197.967113 
L 162.547759 184.076606 
L 162.649248 224.536542 
L 162.750736 192.857943 
L 162.852224 208.174306 
L 162.953713 205.86031 
L 163.156689 207.992965 
L 163.258178 220.302405 
L 163.461155 178.250624 
L 163.562643 203.258835 
L 163.664131 202.437686 
L 163.76562 212.353134 
L 163.968596 195.577261 
L 164.171573 208.85776 
L 164.273062 196.405939 
L 164.37455 215.531265 
L 164.679015 182.42644 
L 164.780503 203.422483 
L 164.881992 182.259627 
L 164.98348 187.061484 
L 165.186457 219.655355 
L 165.389434 187.028342 
L 165.59241 210.594439 
L 165.693899 179.357689 
L 165.896876 235.441621 
L 166.099852 194.206901 
L 166.201341 198.44649 
L 166.302829 195.16935 
L 166.404317 202.635028 
L 166.505806 220.742652 
L 166.607294 206.976256 
L 166.708783 215.281484 
L 166.810271 215.066116 
L 166.911759 219.825769 
L 167.013248 194.928236 
L 167.317713 210.813646 
L 167.52069 185.698856 
L 167.622178 230.366924 
L 167.723666 195.821522 
L 168.028131 229.402129 
L 168.332597 195.411512 
L 168.434085 214.691462 
L 168.637062 180.393561 
L 168.840038 209.535089 
L 168.941527 184.632968 
L 169.043015 189.952725 
L 169.144504 188.299356 
L 169.34748 241.903582 
L 169.448969 170.09911 
L 169.550457 224.105599 
L 169.753434 166.183287 
L 169.854922 195.872603 
L 169.956411 186.8744 
L 170.159387 226.343681 
L 170.362364 184.702896 
L 170.565341 211.973075 
L 170.768318 184.709756 
L 170.869806 221.309012 
L 170.971294 217.88082 
L 171.072783 211.734928 
L 171.174271 184.40405 
L 171.275759 196.837464 
L 171.377248 169.303209 
L 171.580225 200.65846 
L 171.681713 181.780499 
L 171.88469 210.27618 
L 171.986178 190.16995 
L 172.087666 210.090001 
L 172.189155 204.174791 
L 172.290643 180.68676 
L 172.49362 211.514721 
L 172.595108 206.572405 
L 172.696597 184.998431 
L 172.798085 207.788837 
L 172.899573 205.356147 
L 173.001062 207.11409 
L 173.10255 197.019481 
L 173.204039 205.242462 
L 173.305527 222.843315 
L 173.609992 181.505788 
L 173.71148 187.716956 
L 173.812969 190.95306 
L 174.015946 211.228549 
L 174.117434 206.72818 
L 174.218922 214.587588 
L 174.320411 163.108406 
L 174.421899 231.824253 
L 174.523387 191.068409 
L 174.624876 217.833312 
L 174.726364 200.69313 
L 174.929341 216.187602 
L 175.030829 215.612979 
L 175.132318 173.612375 
L 175.335294 210.08807 
L 175.436783 190.899601 
L 175.538271 198.774061 
L 175.63976 188.45423 
L 175.741248 225.303977 
L 175.944225 187.593873 
L 176.045713 222.848976 
L 176.24869 174.109656 
L 176.350178 198.880348 
L 176.451667 186.725295 
L 176.553155 188.879191 
L 176.654643 208.823125 
L 176.756132 197.957966 
L 176.85762 221.21684 
L 177.162085 187.921153 
L 177.263574 198.013535 
L 177.365062 187.900482 
L 177.46655 214.292107 
L 177.771015 171.393492 
L 177.973992 205.372564 
L 178.075481 197.796075 
L 178.176969 211.395773 
L 178.278457 195.244826 
L 178.379946 203.297466 
L 178.481434 223.939307 
L 178.582922 198.78805 
L 178.684411 202.508399 
L 178.785899 221.535376 
L 178.988876 176.214887 
L 179.090364 190.214121 
L 179.191853 188.866751 
L 179.293341 217.149849 
L 179.394829 190.756618 
L 179.496318 195.483995 
L 179.597806 189.933021 
L 179.699294 191.441736 
L 179.800783 217.2456 
L 179.902271 198.100381 
L 180.00376 208.452306 
L 180.105248 198.158162 
L 180.206736 210.406758 
L 180.308225 178.338313 
L 180.511201 210.326524 
L 180.61269 196.179979 
L 180.714178 212.840495 
L 180.815667 203.348427 
L 180.917155 209.189275 
L 181.018643 176.667316 
L 181.323108 202.691172 
L 181.424597 183.34594 
L 181.526085 191.076993 
L 181.627574 189.696371 
L 181.729062 197.261087 
L 181.83055 221.319212 
L 181.932039 198.442119 
L 182.033527 204.495926 
L 182.236504 182.039441 
L 182.337992 206.209783 
L 182.540969 171.438728 
L 182.642457 206.246084 
L 182.743946 172.150631 
L 182.845434 208.85566 
L 182.946922 196.128516 
L 183.048411 196.58763 
L 183.149899 196.224056 
L 183.251388 208.498365 
L 183.352876 204.889772 
L 183.454364 205.96381 
L 183.758829 163.910664 
L 183.860318 176.268485 
L 183.961806 203.497376 
L 184.164783 181.581034 
L 184.36776 196.973181 
L 184.469248 195.180164 
L 184.570736 183.319848 
L 184.672225 208.153198 
L 184.875202 188.964527 
L 184.97669 191.233117 
L 185.078178 192.238749 
L 185.179667 201.036223 
L 185.382643 164.670595 
L 185.58562 198.330834 
L 185.687109 184.538969 
L 185.890085 206.288837 
L 185.991574 194.90924 
L 186.093062 232.788523 
L 186.296039 200.319169 
L 186.397527 214.857181 
L 186.600504 201.496119 
L 186.701992 218.944657 
L 186.803481 200.977824 
L 186.904969 202.813817 
L 187.107946 178.24963 
L 187.310923 194.601341 
L 187.513899 191.536177 
L 187.615388 209.533946 
L 187.818364 190.245201 
L 187.919853 214.55411 
L 188.12283 178.933252 
L 188.224318 203.723895 
L 188.325806 198.032449 
L 188.427295 207.22677 
L 188.528783 184.320768 
L 188.630271 209.804888 
L 188.73176 197.608818 
L 188.833248 206.797033 
L 188.934737 193.569794 
L 189.036225 220.279831 
L 189.137713 175.004509 
L 189.239202 208.178004 
L 189.34069 193.288967 
L 189.645155 206.912602 
L 189.746644 180.431272 
L 189.848132 201.586914 
L 189.94962 189.998225 
L 190.051109 205.509445 
L 190.152597 203.234286 
L 190.355574 180.289011 
L 190.558551 214.311666 
L 190.660039 164.698733 
L 190.863016 215.931008 
L 190.964504 155.936843 
L 191.167481 214.657702 
L 191.370458 188.063132 
L 191.471946 190.593562 
L 191.573434 205.6602 
L 191.674923 166.852505 
L 191.877899 210.370146 
L 192.080876 173.85289 
L 192.283853 213.354806 
L 192.385341 178.064525 
L 192.48683 222.640603 
L 192.588318 210.704508 
L 192.689806 178.860059 
L 192.892783 196.631588 
L 192.994272 187.651757 
L 193.09576 194.941398 
L 193.197248 211.513095 
L 193.400225 173.400908 
L 193.603202 191.874864 
L 193.70469 158.574271 
L 193.806179 196.456947 
L 193.907667 196.172868 
L 194.212132 169.201777 
L 194.31362 195.998949 
L 194.415109 187.741168 
L 194.516597 212.147452 
L 194.618086 196.653134 
L 194.821062 206.645588 
L 194.922551 167.634271 
L 195.024039 203.455205 
L 195.125527 199.636146 
L 195.328504 173.036128 
L 195.429993 184.834805 
L 195.531481 151.769044 
L 195.632969 192.810607 
L 195.835946 187.65212 
L 195.937434 170.804193 
L 196.2419 205.219545 
L 196.444876 171.089372 
L 196.546365 197.311358 
L 196.647853 183.654053 
L 196.749341 187.712577 
L 196.85083 178.72223 
L 196.952318 202.864555 
L 197.053807 157.140843 
L 197.155295 209.659511 
L 197.358272 177.435986 
L 197.45976 186.691963 
L 197.561248 178.920718 
L 197.662737 198.102447 
L 197.865714 190.651012 
L 197.967202 168.038968 
L 198.06869 180.737085 
L 198.170179 179.155533 
L 198.271667 200.199896 
L 198.373155 176.576143 
L 198.474644 187.309461 
L 198.677621 161.300409 
L 198.880597 196.302567 
L 198.982086 202.896219 
L 199.083574 192.410536 
L 199.185062 195.825194 
L 199.286551 185.034082 
L 199.489528 195.403291 
L 199.591016 174.687306 
L 199.692504 203.672989 
L 199.793993 183.757049 
L 199.895481 195.877777 
L 200.098458 169.828104 
L 200.199946 194.260313 
L 200.301435 183.431093 
L 200.402923 187.19019 
L 200.504411 201.328024 
L 200.707388 185.463637 
L 200.808876 183.627259 
L 200.910365 192.445691 
L 201.011853 188.161716 
L 201.113342 206.120283 
L 201.417807 176.419137 
L 201.519295 195.435543 
L 201.722272 185.922146 
L 201.82376 186.264464 
L 201.925249 181.303135 
L 202.026737 215.454074 
L 202.229714 185.548135 
L 202.331202 203.470869 
L 202.43269 164.660858 
L 202.534179 186.541828 
L 202.635667 166.177472 
L 202.838644 201.906285 
L 202.940132 185.459982 
L 203.041621 213.001648 
L 203.143109 185.507842 
L 203.244597 187.171255 
L 203.346086 173.813984 
L 203.447574 178.331257 
L 203.650551 204.315716 
L 203.752039 163.541196 
L 203.955016 203.431316 
L 204.056504 203.957717 
L 204.157993 171.991399 
L 204.36097 199.025867 
L 204.462458 186.060313 
L 204.665435 197.798016 
L 204.868411 172.437456 
L 204.9699 173.553012 
L 205.172877 181.911411 
L 205.274365 213.446934 
L 205.375853 163.461954 
L 205.477342 183.237492 
L 205.781807 166.704164 
L 206.086272 196.034969 
L 206.18776 186.824393 
L 206.289249 199.641394 
L 206.390737 197.651103 
L 206.492225 200.123434 
L 206.695202 171.873082 
L 206.796691 141.069508 
L 206.999667 206.492886 
L 207.101156 168.5642 
L 207.304132 196.387687 
L 207.405621 183.724524 
L 207.507109 204.705556 
L 207.608598 183.451558 
L 207.710086 187.912361 
L 207.913063 181.011918 
L 208.116039 186.213602 
L 208.319016 180.338154 
L 208.521993 206.99817 
L 208.623481 187.117074 
L 208.72497 206.947018 
L 208.927946 172.47893 
L 209.029435 177.240719 
L 209.130923 201.190057 
L 209.232412 198.420475 
L 209.3339 181.145351 
L 209.435388 191.675878 
L 209.536877 190.403123 
L 209.638365 177.114318 
L 209.739853 200.032933 
L 209.841342 191.491637 
L 210.044319 200.704663 
L 210.145807 197.961669 
L 210.247295 175.670941 
L 210.450272 198.143576 
L 210.55176 188.703174 
L 210.653249 209.063101 
L 210.754737 195.890843 
L 210.856226 154.054262 
L 210.957714 186.476387 
L 211.059202 174.515768 
L 211.160691 186.024862 
L 211.363667 175.368141 
L 211.465156 200.948793 
L 211.668133 161.956016 
L 211.769621 196.328256 
L 211.972598 189.163736 
L 212.277063 166.190926 
L 212.48004 185.36926 
L 212.581528 166.170005 
L 212.683016 174.169218 
L 212.784505 206.010466 
L 212.885993 147.659912 
L 212.987481 158.57838 
L 213.08897 186.626575 
L 213.291947 164.896095 
L 213.393435 186.543099 
L 213.596412 167.940558 
L 213.6979 198.616219 
L 213.799388 192.589445 
L 213.900877 170.454012 
L 214.002365 177.083454 
L 214.103854 170.324703 
L 214.408319 212.546046 
L 214.712784 171.478393 
L 214.814272 175.683614 
L 215.017249 187.227879 
L 215.118737 180.092343 
L 215.220226 182.059098 
L 215.321714 162.784789 
L 215.524691 204.521592 
L 215.626179 201.448588 
L 215.727668 160.937751 
L 215.829156 199.882897 
L 215.930644 171.775636 
L 216.032133 186.700125 
L 216.235109 184.65809 
L 216.336598 164.96041 
L 216.438086 185.412913 
L 216.539575 183.052314 
L 216.641063 204.711652 
L 216.84404 174.726649 
L 216.945528 178.909697 
L 217.047016 162.064125 
L 217.148505 181.47991 
L 217.249993 177.89731 
L 217.351482 158.286155 
L 217.45297 204.603424 
L 217.655947 161.363824 
L 217.757435 168.418747 
L 217.858923 172.106499 
L 217.960412 169.821582 
L 218.0619 177.101894 
L 218.163389 158.142737 
L 218.366365 178.21982 
L 218.467854 179.343902 
L 218.569342 178.803613 
L 218.67083 198.322662 
L 218.772319 170.330002 
L 218.873807 183.343642 
L 218.975296 154.993384 
L 219.076784 182.451541 
L 219.178272 175.204296 
L 219.279761 177.682167 
L 219.381249 190.275942 
L 219.584226 153.493881 
L 219.787203 185.367119 
L 219.888691 186.108677 
L 219.990179 208.34463 
L 220.193156 177.175936 
L 220.294644 165.475315 
L 220.396133 166.798885 
L 220.497621 186.703928 
L 220.59911 184.629775 
L 220.700598 164.275379 
L 220.903575 187.861933 
L 221.005063 160.23307 
L 221.106551 165.328618 
L 221.411017 209.38483 
L 221.512505 171.622596 
L 221.715482 208.523267 
L 221.81697 157.048184 
L 222.121435 197.476248 
L 222.222924 167.196947 
L 222.324412 192.499566 
L 222.4259 160.933581 
L 222.628877 171.844114 
L 222.831854 176.74728 
L 222.933342 166.708586 
L 223.034831 186.004722 
L 223.237807 168.421865 
L 223.339296 171.110796 
L 223.440784 196.544209 
L 223.643761 175.456528 
L 223.745249 184.985451 
L 223.846738 153.295095 
L 223.948226 184.669341 
L 224.049714 181.271331 
L 224.151203 167.715746 
L 224.455668 189.684152 
L 224.658645 163.554223 
L 224.760133 171.621432 
L 224.861621 189.796349 
L 224.96311 153.288889 
L 225.166086 201.306466 
L 225.267575 164.388916 
L 225.57204 194.085774 
L 225.673528 144.467772 
L 225.775017 176.361906 
L 225.876505 170.264617 
L 225.977993 173.349452 
L 226.282459 167.187491 
L 226.586924 202.889543 
L 226.891389 162.349758 
L 226.992877 168.763603 
L 227.297342 217.554319 
L 227.398831 160.54695 
L 227.500319 185.732689 
L 227.601807 183.64089 
L 227.703296 175.181336 
L 227.804784 197.412297 
L 227.906273 182.056384 
L 228.007761 147.602311 
L 228.312226 199.720112 
L 228.413714 144.205542 
L 228.515203 197.302129 
L 228.616691 148.75975 
L 228.71818 207.234074 
L 228.921156 153.015742 
L 229.022645 188.370074 
L 229.225621 168.379856 
L 229.428598 197.219147 
L 229.530087 195.262636 
L 229.631575 168.266795 
L 229.834552 184.18578 
L 229.93604 161.93958 
L 230.037528 168.537051 
L 230.240505 193.210864 
L 230.341994 168.161133 
L 230.443482 183.48721 
L 230.54497 174.204372 
L 230.646459 152.740439 
L 230.849435 187.985871 
L 230.950924 173.105462 
L 231.052412 189.191884 
L 231.153901 152.013121 
L 231.255389 183.418797 
L 231.458366 170.712984 
L 231.559854 172.813211 
L 231.661342 203.460641 
L 231.864319 181.522342 
L 231.965808 170.282336 
L 232.270273 194.302698 
L 232.574738 167.164799 
L 232.676226 179.276794 
L 232.777715 165.757218 
L 232.879203 183.061677 
L 232.980691 178.099542 
L 233.08218 179.381987 
L 233.183668 185.625405 
L 233.285156 165.169982 
L 233.386645 185.973058 
L 233.589622 175.133992 
L 233.69111 192.828276 
L 233.792598 178.67911 
L 233.894087 184.227323 
L 234.097063 174.679633 
L 234.198552 185.353782 
L 234.30004 176.895751 
L 234.401529 154.682351 
L 234.503017 173.974051 
L 234.604505 156.945599 
L 234.705994 168.471762 
L 234.807482 162.219521 
L 234.90897 184.615501 
L 235.111947 171.342069 
L 235.416412 194.727517 
L 235.517901 151.383674 
L 235.619389 187.114734 
L 235.720877 153.451012 
L 235.923854 185.362586 
L 236.025343 163.782845 
L 236.126831 181.903624 
L 236.228319 164.460452 
L 236.329808 177.472221 
L 236.431296 165.630482 
L 236.532784 186.576458 
L 236.634273 160.437269 
L 236.735761 165.361767 
L 236.83725 185.713544 
L 236.938738 134.017144 
L 237.040226 164.446354 
L 237.141715 139.020188 
L 237.243203 148.972122 
L 237.44618 178.039461 
L 237.547668 177.858473 
L 237.649157 198.484767 
L 237.953622 149.676535 
L 238.05511 182.945601 
L 238.156598 158.903877 
L 238.258087 189.794417 
L 238.562552 166.086929 
L 238.66404 164.794139 
L 238.765529 157.419777 
L 238.867017 160.1424 
L 238.968505 167.738041 
L 239.069994 165.550819 
L 239.171482 148.128736 
L 239.272971 178.508977 
L 239.374459 159.81863 
L 239.475947 197.206434 
L 239.577436 164.979352 
L 239.678924 177.893699 
L 239.780412 170.79769 
L 239.881901 155.704306 
L 239.983389 168.341141 
L 240.186366 149.256928 
L 240.287854 164.926701 
L 240.389343 153.537967 
L 240.490831 175.193565 
L 240.592319 170.525094 
L 240.693808 177.928309 
L 240.795296 155.179737 
L 240.998273 177.544219 
L 241.20125 154.985335 
L 241.404226 183.732155 
L 241.505715 168.010473 
L 241.607203 198.579174 
L 241.708692 158.671014 
L 241.911668 176.510645 
L 242.013157 156.959618 
L 242.114645 189.389278 
L 242.216133 141.320899 
L 242.41911 177.023383 
L 242.520599 154.580796 
L 242.622087 159.057346 
L 242.723575 133.743679 
L 242.825064 172.28445 
L 242.926552 170.914315 
L 243.02804 190.559148 
L 243.129529 173.875211 
L 243.231017 179.464988 
L 243.332506 175.458501 
L 243.433994 194.182964 
L 243.535482 144.773087 
L 243.738459 209.358029 
L 243.941436 177.382564 
L 244.042924 185.239232 
L 244.144413 152.60027 
L 244.245901 170.465369 
L 244.347389 168.045227 
L 244.448878 159.510935 
L 244.550366 164.159085 
L 244.651854 154.065752 
L 244.753343 184.279983 
L 244.854831 176.079743 
L 244.95632 158.434978 
L 245.057808 204.775648 
L 245.260785 160.66416 
L 245.362273 174.83412 
L 245.463761 154.248495 
L 245.56525 156.034305 
L 245.666738 185.077602 
L 245.869715 150.181946 
L 246.072692 181.662773 
L 246.17418 154.691637 
L 246.377157 159.465233 
L 246.478645 156.898482 
L 246.580134 210.632447 
L 246.78311 140.903457 
L 246.986087 164.211909 
L 247.087575 156.855912 
L 247.189064 161.994344 
L 247.290552 157.394807 
L 247.595017 181.238962 
L 247.696506 181.095835 
L 247.797994 186.475415 
L 247.899482 181.995517 
L 248.000971 140.931948 
L 248.203948 175.415113 
L 248.305436 171.959569 
L 248.406924 164.614519 
L 248.508413 175.694646 
L 248.711389 154.811129 
L 248.812878 166.547106 
L 249.015855 153.069789 
L 249.117343 169.810883 
L 249.218831 161.683424 
L 249.32032 170.24217 
L 249.421808 166.116668 
L 249.624785 173.260964 
L 249.827762 157.273169 
L 249.92925 163.310648 
L 250.030738 158.147596 
L 250.233715 182.717811 
L 250.436692 155.188252 
L 250.53818 164.382705 
L 250.639669 145.509962 
L 250.741157 151.838739 
L 250.842645 126.084835 
L 251.045622 179.312998 
L 251.248599 172.922433 
L 251.350087 157.77007 
L 251.451576 195.899626 
L 251.553064 145.448191 
L 251.756041 168.030708 
L 251.857529 180.044988 
L 252.060506 164.098186 
L 252.161994 166.003464 
L 252.263483 159.266387 
L 252.466459 177.058416 
L 252.567948 156.069747 
L 252.669436 162.533669 
L 252.770924 161.051257 
L 252.872413 148.503577 
L 252.973901 178.623973 
L 253.07539 176.144089 
L 253.176878 145.467512 
L 253.278366 185.133691 
L 253.379855 182.5647 
L 253.481343 151.673385 
L 253.68432 161.894966 
L 253.785808 164.694759 
L 253.887297 162.858465 
L 253.988785 164.592633 
L 254.090273 143.554537 
L 254.191762 168.92025 
L 254.29325 165.433629 
L 254.394738 137.027693 
L 254.496227 162.58691 
L 254.597715 130.576051 
L 254.699204 164.398819 
L 254.800692 143.000661 
L 254.90218 186.764254 
L 255.003669 160.486838 
L 255.105157 185.628281 
L 255.206645 150.364229 
L 255.308134 180.132861 
L 255.409622 158.3833 
L 255.714087 185.808169 
L 255.917064 136.993183 
L 256.018552 166.425423 
L 256.120041 148.820741 
L 256.221529 162.889402 
L 256.323018 149.299207 
L 256.424506 188.436879 
L 256.627483 148.08287 
L 256.728971 164.157744 
L 256.830459 162.990208 
L 256.931948 167.922685 
L 257.033436 144.967069 
L 257.236413 160.881866 
L 257.337901 152.144072 
L 257.43939 152.884666 
L 257.540878 158.275703 
L 257.642366 138.877391 
L 257.743855 162.122889 
L 257.845343 157.163705 
L 257.946832 170.460822 
L 258.149808 138.016035 
L 258.352785 177.356458 
L 258.454273 146.420714 
L 258.555762 162.972108 
L 258.65725 159.369775 
L 258.758739 161.36128 
L 258.860227 159.506242 
L 258.961715 148.269777 
L 259.164692 175.157528 
L 259.26618 159.205055 
L 259.367669 183.669612 
L 259.469157 180.232363 
L 259.570646 133.215065 
L 259.773622 160.312156 
L 259.875111 142.166177 
L 259.976599 175.142809 
L 260.281064 146.985027 
L 260.382553 152.406952 
L 260.484041 196.625992 
L 260.687018 152.764641 
L 260.788506 164.786119 
L 260.889994 122.749084 
L 261.19446 175.601744 
L 261.498925 142.900341 
L 261.600413 146.421918 
L 261.701901 144.166696 
L 261.80339 172.480058 
L 261.904878 138.562612 
L 262.006367 178.99003 
L 262.209343 152.627165 
L 262.615297 181.099881 
L 262.818274 140.275628 
L 263.122739 179.730383 
L 263.325715 126.225084 
L 263.427204 184.282369 
L 263.630181 167.970463 
L 263.731669 166.245769 
L 263.934646 134.557961 
L 264.036134 143.283867 
L 264.137622 150.202825 
L 264.340599 173.973813 
L 264.442088 169.240159 
L 264.543576 135.195762 
L 264.746553 164.006785 
L 264.848041 160.139644 
L 264.949529 145.468742 
L 265.051018 176.399978 
L 265.152506 136.805408 
L 265.355483 160.344615 
L 265.456971 150.73555 
L 265.55846 153.935733 
L 265.659948 162.037672 
L 265.761436 160.658092 
L 265.862925 169.536441 
L 265.964413 147.372995 
L 266.16739 170.643253 
L 266.370367 137.407452 
L 266.573343 165.383134 
L 266.77632 128.386987 
L 266.877809 177.455153 
L 266.979297 150.814694 
L 267.080785 153.32896 
L 267.182274 139.411107 
L 267.283762 141.831303 
L 267.486739 180.507975 
L 267.588227 144.344133 
L 267.791204 169.653816 
L 267.892692 139.230294 
L 267.994181 169.027405 
L 268.095669 135.435031 
L 268.298646 151.038677 
L 268.400134 151.157507 
L 268.603111 181.256197 
L 268.806088 147.165951 
L 269.009064 167.202937 
L 269.110553 154.966797 
L 269.212041 156.377396 
L 269.31353 169.010348 
L 269.415018 140.384016 
L 269.516506 180.111828 
L 269.617995 146.442545 
L 269.719483 149.353028 
L 269.820971 140.234642 
L 269.92246 169.391688 
L 270.125437 123.240059 
L 270.328413 153.149894 
L 270.429902 146.739592 
L 270.53139 153.253428 
L 270.632878 122.690782 
L 270.835855 155.585955 
L 270.937344 150.634533 
L 271.038832 159.904806 
L 271.14032 136.649299 
L 271.343297 177.34461 
L 271.546274 122.765808 
L 271.749251 152.238374 
L 271.850739 144.292497 
L 271.952227 163.147583 
L 272.053716 151.233214 
L 272.155204 153.099226 
L 272.256692 144.528278 
L 272.358181 176.143427 
L 272.561158 141.205139 
L 272.764134 167.74956 
L 272.865623 123.695746 
L 273.068599 161.585346 
L 273.170088 177.673844 
L 273.271576 142.516552 
L 273.373065 142.902416 
L 273.576041 168.910959 
L 273.67753 153.2369 
L 273.880506 166.433687 
L 273.981995 154.221337 
L 274.083483 167.914208 
L 274.28646 143.756037 
L 274.489437 172.299909 
L 274.590925 129.781719 
L 274.692413 165.992407 
L 274.793902 161.877024 
L 274.996879 143.518594 
L 275.098367 155.870935 
L 275.199855 145.424027 
L 275.402832 166.078533 
L 275.605809 115.824828 
L 275.808786 149.738577 
L 275.910274 125.165226 
L 276.113251 158.558517 
L 276.214739 144.827707 
L 276.417716 165.73684 
L 276.519204 164.456276 
L 276.620693 139.756326 
L 276.722181 178.098887 
L 276.823669 142.522708 
L 277.026646 181.926352 
L 277.128134 177.782488 
L 277.229623 122.565171 
L 277.331111 153.868827 
L 277.4326 149.717973 
L 277.534088 130.34845 
L 277.635576 137.329015 
L 277.737065 170.991084 
L 277.838553 138.171671 
L 278.04153 155.619756 
L 278.143018 150.263709 
L 278.244507 132.01274 
L 278.345995 163.356956 
L 278.447483 144.651864 
L 278.548972 150.552236 
L 278.65046 176.413111 
L 278.954925 131.402803 
L 279.157902 141.450452 
L 279.25939 161.875206 
L 279.360879 123.895923 
L 279.563855 164.493379 
L 279.766832 136.811976 
L 279.868321 149.643055 
L 280.071297 133.653381 
L 280.274274 161.984945 
L 280.578739 122.447545 
L 280.680228 172.925495 
L 280.781716 151.254448 
L 280.883204 157.71684 
L 280.984693 144.341914 
L 281.086181 184.484351 
L 281.187669 132.937312 
L 281.390646 175.739812 
L 281.593623 140.071383 
L 281.695111 171.918511 
L 281.7966 148.752183 
L 281.898088 164.078068 
L 282.202553 145.93992 
L 282.304042 155.37325 
L 282.507018 136.592354 
L 282.608507 152.443138 
L 282.811483 127.104304 
L 283.01446 157.447378 
L 283.115949 172.275478 
L 283.217437 149.936789 
L 283.318925 153.320877 
L 283.420414 136.709829 
L 283.521902 169.837512 
L 283.724879 133.811632 
L 283.927856 158.806956 
L 284.029344 168.681262 
L 284.130832 109.669257 
L 284.333809 166.408376 
L 284.739763 135.397221 
L 285.044228 168.25319 
L 285.348693 124.87524 
L 285.55167 148.405045 
L 285.653158 162.151239 
L 285.754646 151.30722 
L 285.856135 153.179459 
L 285.957623 152.140466 
L 286.059111 160.631197 
L 286.1606 138.873501 
L 286.465065 171.378016 
L 286.566553 139.32676 
L 286.668042 139.374305 
L 286.76953 158.549584 
L 286.871018 131.984282 
L 286.972507 166.072166 
L 287.073995 146.557239 
L 287.175484 150.123247 
L 287.276972 165.237237 
L 287.479949 121.366402 
L 287.682925 152.662339 
L 287.784414 139.42212 
L 288.088879 151.926458 
L 288.190367 125.096778 
L 288.393344 153.277319 
L 288.494832 147.131368 
L 288.596321 156.257417 
L 288.697809 154.287704 
L 288.799298 154.71001 
L 288.900786 161.817199 
L 289.002274 134.059012 
L 289.103763 149.49759 
L 289.205251 137.198287 
L 289.306739 154.897367 
L 289.408228 146.010571 
L 289.509716 155.395169 
L 289.611205 134.608016 
L 289.91567 168.695862 
L 290.017158 140.854206 
L 290.118646 155.071588 
L 290.220135 144.984177 
L 290.321623 151.836199 
L 290.423112 130.828819 
L 290.727577 153.450264 
L 290.930553 119.566424 
L 291.032042 156.440869 
L 291.13353 141.832184 
L 291.235019 168.190408 
L 291.336507 123.962783 
L 291.437995 149.957488 
L 291.539484 132.798141 
L 291.640972 169.075405 
L 291.74246 117.991477 
L 291.843949 149.174972 
L 291.945437 136.045103 
L 292.148414 147.564738 
L 292.249902 119.377483 
L 292.351391 167.658135 
L 292.554367 130.4741 
L 292.757344 145.294728 
L 292.858833 145.603631 
L 292.960321 161.284588 
L 293.163298 135.963604 
L 293.467763 150.35606 
L 293.569251 147.259444 
L 293.67074 124.932289 
L 293.772228 173.366236 
L 293.873716 142.491361 
L 293.975205 147.777269 
L 294.076693 121.876675 
L 294.178181 142.129621 
L 294.27967 121.362561 
L 294.381158 173.629993 
L 294.482647 136.134018 
L 294.584135 138.690556 
L 294.685623 122.547245 
L 294.787112 166.451601 
L 294.990088 141.609484 
L 295.091577 149.708441 
L 295.193065 124.840211 
L 295.294554 147.339627 
L 295.396042 112.888578 
L 295.599019 128.510131 
L 295.700507 134.140333 
L 295.801995 157.621815 
L 296.207949 123.072124 
L 296.410926 154.399355 
L 296.512414 129.431808 
L 296.613902 153.576577 
L 296.816879 124.358663 
L 297.019856 146.843461 
L 297.222833 132.967219 
L 297.324321 141.377561 
L 297.425809 109.613853 
L 297.628786 155.925447 
L 297.730275 155.507098 
L 297.831763 149.847871 
L 297.933251 172.842446 
L 298.03474 150.33944 
L 298.136228 150.637453 
L 298.339205 135.021935 
L 298.440693 159.012072 
L 298.64367 114.819755 
L 298.745158 143.919997 
L 298.846647 118.034287 
L 298.948135 137.927535 
L 299.049623 111.939181 
L 299.151112 124.527488 
L 299.2526 163.34982 
L 299.455577 125.307735 
L 299.658554 141.03782 
L 299.760042 122.052667 
L 299.86153 150.705281 
L 300.064507 135.636189 
L 300.165996 145.122277 
L 300.267484 140.531648 
L 300.368972 128.961371 
L 300.470461 133.877984 
L 300.673437 156.070477 
L 300.774926 151.460327 
L 300.876414 139.95985 
L 300.977903 142.252919 
L 301.079391 151.951011 
L 301.180879 148.518306 
L 301.282368 161.838608 
L 301.383856 133.703551 
L 301.485344 140.297549 
L 301.586833 157.936033 
L 301.78981 120.12506 
L 301.891298 150.270655 
L 301.992786 120.437184 
L 302.094275 144.147173 
L 302.195763 136.54757 
L 302.297251 137.955284 
L 302.39874 119.012828 
L 302.703205 158.204469 
L 302.906182 163.931781 
L 303.00767 138.403556 
L 303.109158 152.922234 
L 303.210647 140.158431 
L 303.413624 150.075089 
L 303.515112 145.8296 
L 303.718089 125.30543 
L 303.819577 133.351386 
L 303.921065 153.037997 
L 304.124042 128.618653 
L 304.225531 134.581358 
L 304.327019 147.270511 
L 304.428507 128.202625 
L 304.529996 132.30694 
L 304.631484 183.575976 
L 304.732972 129.009991 
L 304.834461 166.051566 
L 304.935949 128.648989 
L 305.037438 140.459476 
L 305.138926 120.881552 
L 305.341903 150.952838 
L 305.544879 122.654017 
L 305.747856 139.591023 
L 305.849345 127.113455 
L 306.052321 137.894825 
L 306.255298 115.183023 
L 306.458275 141.788437 
L 306.559763 115.902621 
L 306.76274 127.098169 
L 306.864228 155.106339 
L 306.965717 135.397744 
L 307.067205 148.176068 
L 307.270182 133.833796 
L 307.37167 135.820744 
L 307.473159 144.119828 
L 307.574647 118.738027 
L 307.676135 161.736999 
L 307.777624 126.524296 
L 307.879112 163.994311 
L 307.9806 131.481329 
L 308.082089 149.843315 
L 308.183577 124.214178 
L 308.285066 135.652214 
L 308.386554 133.274079 
L 308.488042 151.58525 
L 308.589531 146.272405 
L 308.792507 128.243415 
L 308.893996 94.202271 
L 308.995484 133.391542 
L 309.096973 122.433144 
L 309.198461 159.110827 
L 309.299949 155.779395 
L 309.401438 141.614345 
L 309.502926 153.778857 
L 309.604414 114.833994 
L 309.705903 142.287302 
L 309.90888 114.708364 
L 310.010368 135.600685 
L 310.111856 128.906829 
L 310.213345 136.954275 
L 310.314833 128.296055 
L 310.416321 129.054937 
L 310.51781 137.814148 
L 310.720787 110.955672 
L 310.923763 131.140397 
L 311.025252 134.014998 
L 311.228228 150.636415 
L 311.329717 131.017937 
L 311.431205 155.516642 
L 311.532694 146.735309 
L 311.73567 107.799426 
L 311.837159 159.658599 
L 311.938647 111.88983 
L 312.040135 138.495634 
L 312.141624 135.609063 
L 312.243112 136.99653 
L 312.344601 119.649955 
L 312.446089 158.579451 
L 312.547577 128.623114 
L 312.649066 148.893632 
L 312.852042 112.754806 
L 312.953531 135.086487 
L 313.156508 129.066212 
L 313.257996 146.555363 
L 313.460973 110.150379 
L 313.765438 141.467597 
L 313.866926 143.815217 
L 313.968415 109.895 
L 314.069903 114.15364 
L 314.374368 175.595236 
L 314.678833 114.12377 
L 314.780322 143.836572 
L 314.983298 115.423389 
L 315.287763 153.172653 
L 315.389252 151.594154 
L 315.49074 128.09359 
L 315.592229 137.000065 
L 315.693717 132.273876 
L 315.795205 134.697851 
L 315.896694 124.347545 
L 315.998182 145.312312 
L 316.09967 138.764609 
L 316.201159 106.375564 
L 316.302647 145.418953 
L 316.404136 137.869644 
L 316.505624 142.294391 
L 316.708601 118.855598 
L 316.810089 140.861113 
L 316.911577 139.855702 
L 317.013066 137.608962 
L 317.114554 125.84734 
L 317.216043 144.209092 
L 317.317531 138.903783 
L 317.419019 167.804282 
L 317.723484 120.291045 
L 317.824973 128.992325 
L 318.02795 153.4945 
L 318.129438 130.627608 
L 318.230926 157.082238 
L 318.332415 117.63499 
L 318.535391 156.313439 
L 318.63688 146.979787 
L 318.738368 143.440572 
L 318.839857 144.112831 
L 318.941345 154.46642 
L 319.144322 142.717 
L 319.24581 143.070558 
L 319.347298 116.372787 
L 319.550275 147.049801 
L 319.651764 137.466231 
L 319.753252 145.32967 
L 319.956229 119.816462 
L 320.057717 128.815105 
L 320.159205 99.304169 
L 320.362182 145.608277 
L 320.565159 116.638864 
L 320.666647 116.396932 
L 320.768136 148.084566 
L 320.971112 115.744773 
L 321.072601 156.537947 
L 321.174089 139.320301 
L 321.275578 152.730326 
L 321.377066 145.528698 
L 321.478554 146.651504 
L 321.580043 113.811471 
L 321.783019 144.384672 
L 321.884508 146.846543 
L 321.985996 129.745768 
L 322.087485 131.925813 
L 322.188973 112.245746 
L 322.290461 124.446305 
L 322.39195 152.415029 
L 322.493438 140.742575 
L 322.594926 116.078324 
L 322.696415 140.558576 
L 322.797903 106.376311 
L 322.899392 147.406822 
L 323.00088 123.150807 
L 323.102368 143.901024 
L 323.203857 138.769409 
L 323.305345 115.422794 
L 323.406833 133.155358 
L 323.508322 119.487188 
L 323.60981 124.383813 
L 323.711299 120.28228 
L 323.812787 144.051218 
L 324.015764 124.95765 
L 324.117252 143.381626 
L 324.21874 107.418125 
L 324.320229 142.271988 
L 324.421717 135.320117 
L 324.624694 161.972733 
L 324.726182 104.821308 
L 324.929159 137.294736 
L 325.030647 133.648561 
L 325.132136 110.151905 
L 325.233624 144.690746 
L 325.335112 120.815893 
L 325.538089 139.249072 
L 325.741066 116.207185 
L 325.944043 141.611112 
L 326.045531 147.379726 
L 326.147019 114.402805 
L 326.349996 157.13768 
L 326.451485 109.860821 
L 326.552973 150.123817 
L 326.654461 118.934162 
L 326.75595 127.541169 
L 326.857438 125.9935 
L 326.958926 138.605238 
L 327.060415 124.801574 
L 327.161903 154.24442 
L 327.36488 107.432179 
L 327.466368 117.154957 
L 327.567857 159.212329 
L 327.872322 122.780461 
L 328.075299 136.923632 
L 328.278275 112.833509 
L 328.379764 133.043977 
L 328.481252 119.077707 
L 328.58274 166.997867 
L 328.785717 134.204385 
L 328.887206 136.597467 
L 329.090182 114.755599 
L 329.191671 122.074172 
L 329.394647 151.428854 
L 329.496136 121.249098 
L 329.597624 155.937144 
L 329.699113 119.79263 
L 329.902089 146.240334 
L 330.003578 124.999595 
L 330.206554 129.630809 
L 330.308043 130.289566 
L 330.51102 115.604933 
L 330.612508 121.775087 
L 330.713996 114.270672 
L 330.815485 129.550978 
L 330.916973 105.418558 
L 331.221438 144.642938 
L 331.322927 125.771383 
L 331.424415 147.662769 
L 331.525903 142.80235 
L 331.627392 125.195387 
L 331.830368 142.128468 
L 332.033345 127.483663 
L 332.236322 133.94837 
L 332.33781 116.055734 
L 332.540787 131.621911 
L 332.642275 92.629622 
L 332.743764 125.511995 
L 332.845252 111.881621 
L 333.048229 147.987256 
L 333.251206 132.054191 
L 333.352694 135.337544 
L 333.454182 108.736087 
L 333.555671 129.818127 
L 333.657159 121.358269 
L 333.860136 134.272068 
L 333.961624 127.406305 
L 334.063113 103.080077 
L 334.164601 139.029062 
L 334.266089 116.748538 
L 334.367578 142.709825 
L 334.773531 106.217761 
L 334.976508 139.886672 
L 335.077996 118.204884 
L 335.179485 132.877211 
L 335.280973 124.108631 
L 335.382462 129.223712 
L 335.48395 155.681735 
L 335.686927 118.993867 
L 335.788415 113.98886 
L 335.889903 101.292007 
L 335.991392 144.686372 
L 336.09288 119.845527 
L 336.194369 121.370391 
L 336.295857 133.349295 
L 336.498834 119.973023 
L 336.600322 144.852817 
L 336.70181 123.588442 
L 336.803299 140.435737 
L 336.904787 136.548939 
L 337.006276 152.797357 
L 337.209252 129.963794 
L 337.310741 119.013257 
L 337.412229 126.942124 
L 337.513717 149.283406 
L 337.615206 114.399965 
L 337.716694 128.588001 
L 338.122648 98.324641 
L 338.224136 127.773263 
L 338.325624 122.187572 
L 338.427113 142.301136 
L 338.528601 111.251878 
L 338.731578 152.753122 
L 338.833066 114.518656 
L 338.934555 134.090222 
L 339.036043 115.227331 
L 339.137531 120.555931 
L 339.340508 165.839682 
L 339.543485 126.120134 
L 339.644973 144.042115 
L 339.746462 135.765765 
L 339.84795 147.424269 
L 339.949438 123.785081 
L 340.050927 124.903226 
L 340.152415 133.170351 
L 340.355392 104.425814 
L 340.45688 117.914939 
L 340.558369 152.170936 
L 340.659857 142.06748 
L 340.761345 120.124608 
L 340.862834 135.110457 
L 340.964322 133.032319 
L 341.065811 112.912604 
L 341.167299 118.511026 
L 341.268787 106.839356 
L 341.370276 132.083866 
L 341.471764 105.899528 
L 341.573252 133.840269 
L 341.674741 104.043778 
L 341.979206 149.34527 
L 342.182183 129.359456 
L 342.283671 113.185495 
L 342.486648 131.832921 
L 342.588136 109.924821 
L 342.791113 133.837212 
L 342.892601 117.127763 
L 342.99409 132.531166 
L 343.095578 115.853981 
L 343.197066 134.030285 
L 343.400043 123.118328 
L 343.501532 130.721133 
L 343.60302 125.46634 
L 343.704508 113.423854 
L 343.805997 119.266478 
L 343.907485 118.220087 
L 344.008973 134.377127 
L 344.110462 112.777046 
L 344.21195 115.407468 
L 344.313439 110.527198 
L 344.414927 135.59051 
L 344.617904 115.825221 
L 344.719392 133.808278 
L 344.82088 128.234768 
L 345.023857 96.612287 
L 345.226834 111.247553 
L 345.328322 139.602538 
L 345.429811 117.371599 
L 345.632787 140.095327 
L 345.835764 123.022305 
L 346.038741 132.63224 
L 346.140229 113.140906 
L 346.241718 122.507898 
L 346.343206 121.18722 
L 346.444694 122.924326 
L 346.647671 144.36315 
L 346.74916 119.968105 
L 346.952136 153.567884 
L 347.053625 130.085061 
L 347.155113 140.202056 
L 347.256601 114.216527 
L 347.459578 117.091099 
L 347.561067 133.909512 
L 347.662555 113.639539 
L 347.96702 130.741039 
L 348.068508 111.203951 
L 348.169997 130.985239 
L 348.474462 96.367941 
L 348.57595 99.901639 
L 348.677439 110.938225 
L 348.778927 145.801687 
L 349.083392 99.934488 
L 349.184881 134.011451 
L 349.286369 118.251896 
L 349.387857 122.363258 
L 349.489346 137.356729 
L 349.692322 117.97893 
L 349.793811 141.93215 
L 349.895299 105.977448 
L 349.996788 153.926208 
L 350.199764 109.542342 
L 350.301253 140.905476 
L 350.402741 118.506578 
L 350.504229 142.352131 
L 350.605718 124.884663 
L 350.707206 157.05277 
L 350.808695 135.7024 
L 350.910183 145.830871 
L 351.011671 129.264886 
L 351.11316 129.436385 
L 351.214648 133.158935 
L 351.316136 111.803293 
L 351.417625 136.202429 
L 351.620602 99.681106 
L 351.925067 141.339062 
L 352.026555 133.494287 
L 352.128043 112.967369 
L 352.229532 120.903089 
L 352.33102 109.555446 
L 352.432509 111.945246 
L 352.533997 121.04754 
L 352.635485 116.201848 
L 352.736974 96.148723 
L 352.838462 102.497893 
L 352.93995 127.38476 
L 353.041439 108.626704 
L 353.142927 114.457583 
L 353.244416 106.454008 
L 353.345904 113.168384 
L 353.548881 146.337286 
L 353.751857 95.232326 
L 353.853346 134.033928 
L 353.954834 125.493707 
L 354.056323 137.758649 
L 354.157811 105.64796 
L 354.259299 156.114836 
L 354.360788 155.490553 
L 354.462276 117.217674 
L 354.665253 129.561542 
L 354.766741 126.95113 
L 354.86823 114.779851 
L 355.071206 138.420291 
L 355.172695 135.939991 
L 355.274183 109.597283 
L 355.47716 142.511139 
L 355.680137 115.065402 
L 355.781625 103.099066 
L 355.984602 131.882709 
L 356.187578 111.734398 
L 356.390555 122.878163 
L 356.492044 118.438877 
L 356.593532 123.200551 
L 356.69502 118.540441 
L 356.897997 138.799302 
L 356.999485 134.221109 
L 357.100974 112.769665 
L 357.202462 118.305974 
L 357.303951 106.956583 
L 357.506927 138.57098 
L 357.608416 105.37979 
L 357.709904 122.221802 
L 357.811392 103.323341 
L 357.912881 113.239057 
L 358.014369 90.15929 
L 358.115858 125.049986 
L 358.217346 108.785947 
L 358.318834 108.900343 
L 358.420323 129.847419 
L 358.521811 124.279394 
L 358.724788 144.188105 
L 358.927765 110.199124 
L 359.130741 116.723488 
L 359.23223 109.121202 
L 359.333718 130.158805 
L 359.435206 125.540261 
L 359.536695 110.877627 
L 359.638183 115.269395 
L 359.739672 124.57396 
L 359.84116 102.360038 
L 359.942648 140.214367 
L 360.247113 109.586954 
L 360.45009 139.668809 
L 360.653067 105.576063 
L 360.856044 112.324904 
L 360.957532 148.449791 
L 361.160509 114.250735 
L 361.261997 122.0143 
L 361.363486 113.623343 
L 361.464974 139.53497 
L 361.566462 122.049256 
L 361.769439 149.437972 
L 361.972416 108.863027 
L 362.276881 143.660013 
L 362.378369 106.412542 
L 362.479858 121.615593 
L 362.581346 92.551388 
L 362.682834 107.277522 
L 362.784323 149.983752 
L 362.885811 109.952429 
L 362.9873 141.122011 
L 363.291765 122.182175 
L 363.393253 115.035873 
L 363.59623 137.440169 
L 363.697718 112.033792 
L 363.799207 120.912699 
L 363.900695 118.173401 
L 364.002183 152.481267 
L 364.103672 123.229969 
L 364.306648 133.968782 
L 364.408137 107.239661 
L 364.509625 136.467554 
L 364.611114 136.40804 
L 364.81409 113.999532 
L 364.915579 133.322396 
L 365.118555 99.452421 
L 365.220044 133.22776 
L 365.321532 123.983932 
L 365.524509 144.824465 
L 365.727486 109.721036 
L 365.828974 91.172319 
L 365.930462 133.326259 
L 366.133439 100.820957 
L 366.234928 117.392833 
L 366.437904 107.564437 
L 366.539393 91.58814 
L 366.742369 121.039121 
L 366.843858 132.704726 
L 367.046835 105.265299 
L 367.249811 131.380333 
L 367.3513 118.764848 
L 367.452788 121.909866 
L 367.554276 116.181595 
L 367.655765 144.091023 
L 367.858742 111.332946 
L 367.96023 113.497315 
L 368.061718 119.982196 
L 368.163207 146.088272 
L 368.366183 104.496924 
L 368.56916 148.673246 
L 368.670649 142.150642 
L 368.873625 114.377428 
L 368.975114 106.916939 
L 369.17809 141.477506 
L 369.279579 131.575876 
L 369.381067 107.823069 
L 369.482556 117.638489 
L 369.584044 110.237369 
L 369.685532 113.336813 
L 369.787021 122.59286 
L 369.888509 122.126425 
L 369.989997 92.665767 
L 370.192974 121.415011 
L 370.294463 112.931624 
L 370.395951 116.284564 
L 370.497439 150.771289 
L 370.700416 93.06689 
L 370.801904 130.756693 
L 370.903393 98.350613 
L 371.004881 123.134486 
L 371.207858 103.860226 
L 371.309346 129.795979 
L 371.410835 101.330349 
L 371.512323 136.925565 
L 371.7153 127.89349 
L 371.816788 109.676206 
L 372.019765 141.271903 
L 372.121253 122.360116 
L 372.222742 130.572258 
L 372.32423 108.586311 
L 372.425718 124.145665 
L 372.527207 118.127203 
L 372.628695 125.013915 
L 372.730184 112.828878 
L 372.831672 121.763688 
L 372.93316 114.371402 
L 373.034649 156.662398 
L 373.237625 113.034939 
L 373.339114 121.907033 
L 373.542091 108.277983 
L 373.643579 100.062268 
L 373.948044 152.048886 
L 374.049532 142.122005 
L 374.151021 119.43468 
L 374.252509 121.148965 
L 374.353998 114.84781 
L 374.556974 129.495473 
L 374.759951 109.27824 
L 374.861439 122.490573 
L 375.165905 111.410331 
L 375.267393 135.288201 
L 375.368881 129.119789 
L 375.47037 136.510658 
L 375.673346 106.864788 
L 375.774835 110.705516 
L 375.876323 134.526226 
L 375.977812 111.166331 
L 376.180788 125.720094 
L 376.282277 138.932204 
L 376.485253 108.655841 
L 376.586742 149.852685 
L 376.789719 85.78663 
L 376.992695 114.666606 
L 377.094184 129.10362 
L 377.195672 128.234725 
L 377.29716 119.593303 
L 377.398649 95.135168 
L 377.601626 130.981817 
L 377.703114 101.264709 
L 377.804602 122.549289 
L 377.906091 93.687566 
L 378.109067 132.804634 
L 378.312044 103.990578 
L 378.413533 103.176178 
L 378.616509 132.507682 
L 378.717998 125.494317 
L 378.819486 147.410604 
L 379.123951 112.468846 
L 379.22544 123.013346 
L 379.326928 118.903406 
L 379.428416 123.805389 
L 379.529905 107.160294 
L 379.631393 131.065597 
L 379.83437 89.577001 
L 380.037347 125.612625 
L 380.138835 125.730703 
L 380.240323 100.404183 
L 380.341812 134.2581 
L 380.4433 131.738512 
L 380.646277 136.415781 
L 380.747765 133.01328 
L 380.950742 101.859367 
L 381.05223 127.928081 
L 381.255207 106.789158 
L 381.559672 139.064901 
L 381.661161 103.088204 
L 381.762649 110.528175 
L 381.864137 109.342694 
L 381.965626 133.748175 
L 382.168602 108.544781 
L 382.270091 113.096078 
L 382.371579 128.433748 
L 382.473068 102.945766 
L 382.574556 139.749675 
L 382.777533 101.905466 
L 382.879021 94.769654 
L 383.081998 132.021369 
L 383.183486 106.011317 
L 383.284975 127.641031 
L 383.386463 116.853271 
L 383.58944 130.539187 
L 383.690928 112.79544 
L 383.792416 137.613233 
L 383.893905 108.835902 
L 384.096882 142.495657 
L 384.299858 111.107575 
L 384.502835 105.47384 
L 384.604323 151.441181 
L 384.908789 95.261824 
L 385.010277 105.906345 
L 385.111765 89.691913 
L 385.213254 124.849518 
L 385.314742 113.248328 
L 385.41623 133.157758 
L 385.517719 123.0604 
L 385.619207 127.844109 
L 385.720696 126.361937 
L 386.126649 109.239475 
L 386.431114 124.652224 
L 386.532603 121.51567 
L 386.634091 123.559318 
L 386.837068 104.476665 
L 386.938556 98.541425 
L 387.040044 128.560153 
L 387.141533 110.179336 
L 387.243021 137.187358 
L 387.445998 101.249185 
L 387.547486 119.098847 
L 387.648975 101.368283 
L 387.750463 133.408735 
L 387.851951 129.772721 
L 388.054928 102.046753 
L 388.257905 123.413307 
L 388.359393 131.200224 
L 388.56237 98.727509 
L 388.968324 124.913652 
L 389.069812 106.917698 
L 389.272789 119.226019 
L 389.374277 103.675701 
L 389.577254 128.815474 
L 389.678742 103.478743 
L 389.983207 132.752967 
L 390.186184 82.711932 
L 390.287672 122.276753 
L 390.389161 121.444477 
L 390.490649 94.468711 
L 390.795114 139.319029 
L 390.896603 98.725585 
L 390.998091 106.835388 
L 391.099579 104.506924 
L 391.302556 126.992082 
L 391.505533 114.461066 
L 391.607021 128.57282 
L 391.70851 108.269593 
L 391.809998 134.655207 
L 392.012975 119.328925 
L 392.114463 126.376446 
L 392.215952 148.318245 
L 392.31744 109.842759 
L 392.418928 127.2783 
L 392.520417 97.093355 
L 392.723393 124.134192 
L 392.92637 100.991892 
L 393.027859 124.4177 
L 393.230835 95.347939 
L 393.332324 101.858912 
L 393.433812 92.625952 
L 393.5353 97.4526 
L 393.738277 92.910731 
L 394.042742 148.92506 
L 394.347207 121.629927 
L 394.448696 118.299484 
L 394.651673 139.193593 
L 394.753161 117.937259 
L 394.854649 118.78371 
L 394.956138 127.732595 
L 395.057626 126.772935 
L 395.159114 129.631633 
L 395.260603 121.739577 
L 395.362091 128.393001 
L 395.46358 97.70537 
L 395.666556 130.040279 
L 395.768045 119.999478 
L 395.869533 133.032095 
L 396.07251 95.834703 
L 396.173998 97.739482 
L 396.275487 132.470617 
L 396.376975 117.188829 
L 396.478463 121.675681 
L 396.579952 107.69628 
L 396.68144 130.442613 
L 396.985905 113.576194 
L 397.087394 105.724984 
L 397.188882 120.54114 
L 397.391859 103.836805 
L 397.594835 133.788483 
L 397.696324 132.697927 
L 397.797812 107.131627 
L 398.000789 140.513533 
L 398.102277 106.790909 
L 398.203766 113.787272 
L 398.305254 136.03524 
L 398.406742 98.546536 
L 398.609719 113.61035 
L 398.812696 135.928054 
L 398.914184 120.0403 
L 399.015673 140.423136 
L 399.117161 109.695378 
L 399.218649 136.007939 
L 399.320138 113.15531 
L 399.421626 119.7119 
L 399.523115 105.206387 
L 399.624603 129.110214 
L 399.726091 111.535062 
L 399.82758 135.711985 
L 399.929068 103.949452 
L 400.030556 117.137599 
L 400.132045 108.272657 
L 400.233533 134.592257 
L 400.335022 108.204629 
L 400.43651 110.990082 
L 400.537998 110.146112 
L 400.639487 110.875825 
L 400.740975 118.201727 
L 400.842463 97.392929 
L 401.04544 126.08091 
L 401.146929 116.206791 
L 401.248417 129.123807 
L 401.451394 117.893726 
L 401.552882 120.816034 
L 401.65437 112.413234 
L 401.755859 87.087632 
L 401.857347 107.006615 
L 401.958836 99.728766 
L 402.161812 123.761744 
L 402.263301 120.724213 
L 402.364789 102.86847 
L 402.466277 146.3609 
L 402.669254 113.718018 
L 402.770743 118.439801 
L 402.872231 86.657046 
L 403.176696 138.02005 
L 403.278184 120.077787 
L 403.379673 134.022495 
L 403.481161 108.355006 
L 403.58265 112.775651 
L 403.684138 110.461908 
L 403.785626 84.951406 
L 403.887115 128.235857 
L 403.988603 117.860418 
L 404.090091 132.638069 
L 404.293068 91.945629 
L 404.293068 91.945629 
" style="fill:none;stroke:#1f77b4;stroke-linecap:square;stroke-width:1.5;"/>
   </g>
   <g id="matplotlib.axis_1">
    <g id="xtick_1">
     <g id="line2d_2">
      <defs>
       <path d="M 0 0 
L 0 3.5 
" id="m0b7d34eb8f" style="stroke:#000000;stroke-width:0.8;"/>
      </defs>
      <g>
       <use style="stroke:#000000;stroke-width:0.8;" x="99.929432" xlink:href="#m0b7d34eb8f" y="254.83575"/>
      </g>
     </g>
     <g id="text_1">
      <!-- 0 -->
      <g transform="translate(91.658182 281.591688)scale(0.26 -0.26)">
       <defs>
        <path d="M 31.78125 66.40625 
Q 24.171875 66.40625 20.328125 58.90625 
Q 16.5 51.421875 16.5 36.375 
Q 16.5 21.390625 20.328125 13.890625 
Q 24.171875 6.390625 31.78125 6.390625 
Q 39.453125 6.390625 43.28125 13.890625 
Q 47.125 21.390625 47.125 36.375 
Q 47.125 51.421875 43.28125 58.90625 
Q 39.453125 66.40625 31.78125 66.40625 
z
M 31.78125 74.21875 
Q 44.046875 74.21875 50.515625 64.515625 
Q 56.984375 54.828125 56.984375 36.375 
Q 56.984375 17.96875 50.515625 8.265625 
Q 44.046875 -1.421875 31.78125 -1.421875 
Q 19.53125 -1.421875 13.0625 8.265625 
Q 6.59375 17.96875 6.59375 36.375 
Q 6.59375 54.828125 13.0625 64.515625 
Q 19.53125 74.21875 31.78125 74.21875 
z
" id="DejaVuSans-48"/>
       </defs>
       <use xlink:href="#DejaVuSans-48"/>
      </g>
     </g>
    </g>
    <g id="xtick_2">
     <g id="line2d_3">
      <g>
       <use style="stroke:#000000;stroke-width:0.8;" x="201.417807" xlink:href="#m0b7d34eb8f" y="254.83575"/>
      </g>
     </g>
     <g id="text_2">
      <!-- 1 -->
      <g transform="translate(193.146557 281.591688)scale(0.26 -0.26)">
       <defs>
        <path d="M 12.40625 8.296875 
L 28.515625 8.296875 
L 28.515625 63.921875 
L 10.984375 60.40625 
L 10.984375 69.390625 
L 28.421875 72.90625 
L 38.28125 72.90625 
L 38.28125 8.296875 
L 54.390625 8.296875 
L 54.390625 0 
L 12.40625 0 
z
" id="DejaVuSans-49"/>
       </defs>
       <use xlink:href="#DejaVuSans-49"/>
      </g>
     </g>
    </g>
    <g id="xtick_3">
     <g id="line2d_4">
      <g>
       <use style="stroke:#000000;stroke-width:0.8;" x="302.906182" xlink:href="#m0b7d34eb8f" y="254.83575"/>
      </g>
     </g>
     <g id="text_3">
      <!-- 2 -->
      <g transform="translate(294.634932 281.591688)scale(0.26 -0.26)">
       <defs>
        <path d="M 19.1875 8.296875 
L 53.609375 8.296875 
L 53.609375 0 
L 7.328125 0 
L 7.328125 8.296875 
Q 12.9375 14.109375 22.625 23.890625 
Q 32.328125 33.6875 34.8125 36.53125 
Q 39.546875 41.84375 41.421875 45.53125 
Q 43.3125 49.21875 43.3125 52.78125 
Q 43.3125 58.59375 39.234375 62.25 
Q 35.15625 65.921875 28.609375 65.921875 
Q 23.96875 65.921875 18.8125 64.3125 
Q 13.671875 62.703125 7.8125 59.421875 
L 7.8125 69.390625 
Q 13.765625 71.78125 18.9375 73 
Q 24.125 74.21875 28.421875 74.21875 
Q 39.75 74.21875 46.484375 68.546875 
Q 53.21875 62.890625 53.21875 53.421875 
Q 53.21875 48.921875 51.53125 44.890625 
Q 49.859375 40.875 45.40625 35.40625 
Q 44.1875 33.984375 37.640625 27.21875 
Q 31.109375 20.453125 19.1875 8.296875 
z
" id="DejaVuSans-50"/>
       </defs>
       <use xlink:href="#DejaVuSans-50"/>
      </g>
     </g>
    </g>
    <g id="xtick_4">
     <g id="line2d_5">
      <g>
       <use style="stroke:#000000;stroke-width:0.8;" x="404.394557" xlink:href="#m0b7d34eb8f" y="254.83575"/>
      </g>
     </g>
     <g id="text_4">
      <!-- 3 -->
      <g transform="translate(396.123307 281.591688)scale(0.26 -0.26)">
       <defs>
        <path d="M 40.578125 39.3125 
Q 47.65625 37.796875 51.625 33 
Q 55.609375 28.21875 55.609375 21.1875 
Q 55.609375 10.40625 48.1875 4.484375 
Q 40.765625 -1.421875 27.09375 -1.421875 
Q 22.515625 -1.421875 17.65625 -0.515625 
Q 12.796875 0.390625 7.625 2.203125 
L 7.625 11.71875 
Q 11.71875 9.328125 16.59375 8.109375 
Q 21.484375 6.890625 26.8125 6.890625 
Q 36.078125 6.890625 40.9375 10.546875 
Q 45.796875 14.203125 45.796875 21.1875 
Q 45.796875 27.640625 41.28125 31.265625 
Q 36.765625 34.90625 28.71875 34.90625 
L 20.21875 34.90625 
L 20.21875 43.015625 
L 29.109375 43.015625 
Q 36.375 43.015625 40.234375 45.921875 
Q 44.09375 48.828125 44.09375 54.296875 
Q 44.09375 59.90625 40.109375 62.90625 
Q 36.140625 65.921875 28.71875 65.921875 
Q 24.65625 65.921875 20.015625 65.03125 
Q 15.375 64.15625 9.8125 62.3125 
L 9.8125 71.09375 
Q 15.4375 72.65625 20.34375 73.4375 
Q 25.25 74.21875 29.59375 74.21875 
Q 40.828125 74.21875 47.359375 69.109375 
Q 53.90625 64.015625 53.90625 55.328125 
Q 53.90625 49.265625 50.4375 45.09375 
Q 46.96875 40.921875 40.578125 39.3125 
z
" id="DejaVuSans-51"/>
       </defs>
       <use xlink:href="#DejaVuSans-51"/>
      </g>
     </g>
    </g>
    <g id="text_5">
     <!-- time (s) -->
     <g transform="translate(201.693594 310.754813)scale(0.26 -0.26)">
      <defs>
       <path d="M 18.3125 70.21875 
L 18.3125 54.6875 
L 36.8125 54.6875 
L 36.8125 47.703125 
L 18.3125 47.703125 
L 18.3125 18.015625 
Q 18.3125 11.328125 20.140625 9.421875 
Q 21.96875 7.515625 27.59375 7.515625 
L 36.8125 7.515625 
L 36.8125 0 
L 27.59375 0 
Q 17.1875 0 13.234375 3.875 
Q 9.28125 7.765625 9.28125 18.015625 
L 9.28125 47.703125 
L 2.6875 47.703125 
L 2.6875 54.6875 
L 9.28125 54.6875 
L 9.28125 70.21875 
z
" id="DejaVuSans-116"/>
       <path d="M 9.421875 54.6875 
L 18.40625 54.6875 
L 18.40625 0 
L 9.421875 0 
z
M 9.421875 75.984375 
L 18.40625 75.984375 
L 18.40625 64.59375 
L 9.421875 64.59375 
z
" id="DejaVuSans-105"/>
       <path d="M 52 44.1875 
Q 55.375 50.25 60.0625 53.125 
Q 64.75 56 71.09375 56 
Q 79.640625 56 84.28125 50.015625 
Q 88.921875 44.046875 88.921875 33.015625 
L 88.921875 0 
L 79.890625 0 
L 79.890625 32.71875 
Q 79.890625 40.578125 77.09375 44.375 
Q 74.3125 48.1875 68.609375 48.1875 
Q 61.625 48.1875 57.5625 43.546875 
Q 53.515625 38.921875 53.515625 30.90625 
L 53.515625 0 
L 44.484375 0 
L 44.484375 32.71875 
Q 44.484375 40.625 41.703125 44.40625 
Q 38.921875 48.1875 33.109375 48.1875 
Q 26.21875 48.1875 22.15625 43.53125 
Q 18.109375 38.875 18.109375 30.90625 
L 18.109375 0 
L 9.078125 0 
L 9.078125 54.6875 
L 18.109375 54.6875 
L 18.109375 46.1875 
Q 21.1875 51.21875 25.484375 53.609375 
Q 29.78125 56 35.6875 56 
Q 41.65625 56 45.828125 52.96875 
Q 50 49.953125 52 44.1875 
z
" id="DejaVuSans-109"/>
       <path d="M 56.203125 29.59375 
L 56.203125 25.203125 
L 14.890625 25.203125 
Q 15.484375 15.921875 20.484375 11.0625 
Q 25.484375 6.203125 34.421875 6.203125 
Q 39.59375 6.203125 44.453125 7.46875 
Q 49.3125 8.734375 54.109375 11.28125 
L 54.109375 2.78125 
Q 49.265625 0.734375 44.1875 -0.34375 
Q 39.109375 -1.421875 33.890625 -1.421875 
Q 20.796875 -1.421875 13.15625 6.1875 
Q 5.515625 13.8125 5.515625 26.8125 
Q 5.515625 40.234375 12.765625 48.109375 
Q 20.015625 56 32.328125 56 
Q 43.359375 56 49.78125 48.890625 
Q 56.203125 41.796875 56.203125 29.59375 
z
M 47.21875 32.234375 
Q 47.125 39.59375 43.09375 43.984375 
Q 39.0625 48.390625 32.421875 48.390625 
Q 24.90625 48.390625 20.390625 44.140625 
Q 15.875 39.890625 15.1875 32.171875 
z
" id="DejaVuSans-101"/>
       <path id="DejaVuSans-32"/>
       <path d="M 31 75.875 
Q 24.46875 64.65625 21.28125 53.65625 
Q 18.109375 42.671875 18.109375 31.390625 
Q 18.109375 20.125 21.3125 9.0625 
Q 24.515625 -2 31 -13.1875 
L 23.1875 -13.1875 
Q 15.875 -1.703125 12.234375 9.375 
Q 8.59375 20.453125 8.59375 31.390625 
Q 8.59375 42.28125 12.203125 53.3125 
Q 15.828125 64.359375 23.1875 75.875 
z
" id="DejaVuSans-40"/>
       <path d="M 44.28125 53.078125 
L 44.28125 44.578125 
Q 40.484375 46.53125 36.375 47.5 
Q 32.28125 48.484375 27.875 48.484375 
Q 21.1875 48.484375 17.84375 46.4375 
Q 14.5 44.390625 14.5 40.28125 
Q 14.5 37.15625 16.890625 35.375 
Q 19.28125 33.59375 26.515625 31.984375 
L 29.59375 31.296875 
Q 39.15625 29.25 43.1875 25.515625 
Q 47.21875 21.78125 47.21875 15.09375 
Q 47.21875 7.46875 41.1875 3.015625 
Q 35.15625 -1.421875 24.609375 -1.421875 
Q 20.21875 -1.421875 15.453125 -0.5625 
Q 10.6875 0.296875 5.421875 2 
L 5.421875 11.28125 
Q 10.40625 8.6875 15.234375 7.390625 
Q 20.0625 6.109375 24.8125 6.109375 
Q 31.15625 6.109375 34.5625 8.28125 
Q 37.984375 10.453125 37.984375 14.40625 
Q 37.984375 18.0625 35.515625 20.015625 
Q 33.0625 21.96875 24.703125 23.78125 
L 21.578125 24.515625 
Q 13.234375 26.265625 9.515625 29.90625 
Q 5.8125 33.546875 5.8125 39.890625 
Q 5.8125 47.609375 11.28125 51.796875 
Q 16.75 56 26.8125 56 
Q 31.78125 56 36.171875 55.265625 
Q 40.578125 54.546875 44.28125 53.078125 
z
" id="DejaVuSans-115"/>
       <path d="M 8.015625 75.875 
L 15.828125 75.875 
Q 23.140625 64.359375 26.78125 53.3125 
Q 30.421875 42.28125 30.421875 31.390625 
Q 30.421875 20.453125 26.78125 9.375 
Q 23.140625 -1.703125 15.828125 -13.1875 
L 8.015625 -13.1875 
Q 14.5 -2 17.703125 9.0625 
Q 20.90625 20.125 20.90625 31.390625 
Q 20.90625 42.671875 17.703125 53.65625 
Q 14.5 64.65625 8.015625 75.875 
z
" id="DejaVuSans-41"/>
      </defs>
      <use xlink:href="#DejaVuSans-116"/>
      <use x="39.208984" xlink:href="#DejaVuSans-105"/>
      <use x="66.992188" xlink:href="#DejaVuSans-109"/>
      <use x="164.404297" xlink:href="#DejaVuSans-101"/>
      <use x="225.927734" xlink:href="#DejaVuSans-32"/>
      <use x="257.714844" xlink:href="#DejaVuSans-40"/>
      <use x="296.728516" xlink:href="#DejaVuSans-115"/>
      <use x="348.828125" xlink:href="#DejaVuSans-41"/>
     </g>
    </g>
   </g>
   <g id="matplotlib.axis_2">
    <g id="ytick_1">
     <g id="line2d_6">
      <defs>
       <path d="M 0 0 
L -3.5 0 
" id="m3f0d0c0f5b" style="stroke:#000000;stroke-width:0.8;"/>
      </defs>
      <g>
       <use style="stroke:#000000;stroke-width:0.8;" x="84.71125" xlink:href="#m3f0d0c0f5b" y="254.83575"/>
      </g>
     </g>
     <g id="text_6">
      <!-- 3.0 -->
      <g transform="translate(36.363125 264.713719)scale(0.26 -0.26)">
       <defs>
        <path d="M 10.6875 12.40625 
L 21 12.40625 
L 21 0 
L 10.6875 0 
z
" id="DejaVuSans-46"/>
       </defs>
       <use xlink:href="#DejaVuSans-51"/>
       <use x="63.623047" xlink:href="#DejaVuSans-46"/>
       <use x="95.410156" xlink:href="#DejaVuSans-48"/>
      </g>
     </g>
    </g>
    <g id="ytick_2">
     <g id="line2d_7">
      <g>
       <use style="stroke:#000000;stroke-width:0.8;" x="84.71125" xlink:href="#m3f0d0c0f5b" y="182.35575"/>
      </g>
     </g>
     <g id="text_7">
      <!-- 3.5 -->
      <g transform="translate(36.363125 192.233719)scale(0.26 -0.26)">
       <defs>
        <path d="M 10.796875 72.90625 
L 49.515625 72.90625 
L 49.515625 64.59375 
L 19.828125 64.59375 
L 19.828125 46.734375 
Q 21.96875 47.46875 24.109375 47.828125 
Q 26.265625 48.1875 28.421875 48.1875 
Q 40.625 48.1875 47.75 41.5 
Q 54.890625 34.8125 54.890625 23.390625 
Q 54.890625 11.625 47.5625 5.09375 
Q 40.234375 -1.421875 26.90625 -1.421875 
Q 22.3125 -1.421875 17.546875 -0.640625 
Q 12.796875 0.140625 7.71875 1.703125 
L 7.71875 11.625 
Q 12.109375 9.234375 16.796875 8.0625 
Q 21.484375 6.890625 26.703125 6.890625 
Q 35.15625 6.890625 40.078125 11.328125 
Q 45.015625 15.765625 45.015625 23.390625 
Q 45.015625 31 40.078125 35.4375 
Q 35.15625 39.890625 26.703125 39.890625 
Q 22.75 39.890625 18.8125 39.015625 
Q 14.890625 38.140625 10.796875 36.28125 
z
" id="DejaVuSans-53"/>
       </defs>
       <use xlink:href="#DejaVuSans-51"/>
       <use x="63.623047" xlink:href="#DejaVuSans-46"/>
       <use x="95.410156" xlink:href="#DejaVuSans-53"/>
      </g>
     </g>
    </g>
    <g id="ytick_3">
     <g id="line2d_8">
      <g>
       <use style="stroke:#000000;stroke-width:0.8;" x="84.71125" xlink:href="#m3f0d0c0f5b" y="109.87575"/>
      </g>
     </g>
     <g id="text_8">
      <!-- 4.0 -->
      <g transform="translate(36.363125 119.753719)scale(0.26 -0.26)">
       <defs>
        <path d="M 37.796875 64.3125 
L 12.890625 25.390625 
L 37.796875 25.390625 
z
M 35.203125 72.90625 
L 47.609375 72.90625 
L 47.609375 25.390625 
L 58.015625 25.390625 
L 58.015625 17.1875 
L 47.609375 17.1875 
L 47.609375 0 
L 37.796875 0 
L 37.796875 17.1875 
L 4.890625 17.1875 
L 4.890625 26.703125 
z
" id="DejaVuSans-52"/>
       </defs>
       <use xlink:href="#DejaVuSans-52"/>
       <use x="63.623047" xlink:href="#DejaVuSans-46"/>
       <use x="95.410156" xlink:href="#DejaVuSans-48"/>
      </g>
     </g>
    </g>
    <g id="ytick_4">
     <g id="line2d_9">
      <g>
       <use style="stroke:#000000;stroke-width:0.8;" x="84.71125" xlink:href="#m3f0d0c0f5b" y="37.39575"/>
      </g>
     </g>
     <g id="text_9">
      <!-- 4.5 -->
      <g transform="translate(36.363125 47.273719)scale(0.26 -0.26)">
       <use xlink:href="#DejaVuSans-52"/>
       <use x="63.623047" xlink:href="#DejaVuSans-46"/>
       <use x="95.410156" xlink:href="#DejaVuSans-53"/>
      </g>
     </g>
    </g>
    <g id="text_10">
     <!-- amplitude (a.u.) -->
     <g transform="translate(26.955937 250.552469)rotate(-90)scale(0.26 -0.26)">
      <defs>
       <path d="M 34.28125 27.484375 
Q 23.390625 27.484375 19.1875 25 
Q 14.984375 22.515625 14.984375 16.5 
Q 14.984375 11.71875 18.140625 8.90625 
Q 21.296875 6.109375 26.703125 6.109375 
Q 34.1875 6.109375 38.703125 11.40625 
Q 43.21875 16.703125 43.21875 25.484375 
L 43.21875 27.484375 
z
M 52.203125 31.203125 
L 52.203125 0 
L 43.21875 0 
L 43.21875 8.296875 
Q 40.140625 3.328125 35.546875 0.953125 
Q 30.953125 -1.421875 24.3125 -1.421875 
Q 15.921875 -1.421875 10.953125 3.296875 
Q 6 8.015625 6 15.921875 
Q 6 25.140625 12.171875 29.828125 
Q 18.359375 34.515625 30.609375 34.515625 
L 43.21875 34.515625 
L 43.21875 35.40625 
Q 43.21875 41.609375 39.140625 45 
Q 35.0625 48.390625 27.6875 48.390625 
Q 23 48.390625 18.546875 47.265625 
Q 14.109375 46.140625 10.015625 43.890625 
L 10.015625 52.203125 
Q 14.9375 54.109375 19.578125 55.046875 
Q 24.21875 56 28.609375 56 
Q 40.484375 56 46.34375 49.84375 
Q 52.203125 43.703125 52.203125 31.203125 
z
" id="DejaVuSans-97"/>
       <path d="M 18.109375 8.203125 
L 18.109375 -20.796875 
L 9.078125 -20.796875 
L 9.078125 54.6875 
L 18.109375 54.6875 
L 18.109375 46.390625 
Q 20.953125 51.265625 25.265625 53.625 
Q 29.59375 56 35.59375 56 
Q 45.5625 56 51.78125 48.09375 
Q 58.015625 40.1875 58.015625 27.296875 
Q 58.015625 14.40625 51.78125 6.484375 
Q 45.5625 -1.421875 35.59375 -1.421875 
Q 29.59375 -1.421875 25.265625 0.953125 
Q 20.953125 3.328125 18.109375 8.203125 
z
M 48.6875 27.296875 
Q 48.6875 37.203125 44.609375 42.84375 
Q 40.53125 48.484375 33.40625 48.484375 
Q 26.265625 48.484375 22.1875 42.84375 
Q 18.109375 37.203125 18.109375 27.296875 
Q 18.109375 17.390625 22.1875 11.75 
Q 26.265625 6.109375 33.40625 6.109375 
Q 40.53125 6.109375 44.609375 11.75 
Q 48.6875 17.390625 48.6875 27.296875 
z
" id="DejaVuSans-112"/>
       <path d="M 9.421875 75.984375 
L 18.40625 75.984375 
L 18.40625 0 
L 9.421875 0 
z
" id="DejaVuSans-108"/>
       <path d="M 8.5 21.578125 
L 8.5 54.6875 
L 17.484375 54.6875 
L 17.484375 21.921875 
Q 17.484375 14.15625 20.5 10.265625 
Q 23.53125 6.390625 29.59375 6.390625 
Q 36.859375 6.390625 41.078125 11.03125 
Q 45.3125 15.671875 45.3125 23.6875 
L 45.3125 54.6875 
L 54.296875 54.6875 
L 54.296875 0 
L 45.3125 0 
L 45.3125 8.40625 
Q 42.046875 3.421875 37.71875 1 
Q 33.40625 -1.421875 27.6875 -1.421875 
Q 18.265625 -1.421875 13.375 4.4375 
Q 8.5 10.296875 8.5 21.578125 
z
M 31.109375 56 
z
" id="DejaVuSans-117"/>
       <path d="M 45.40625 46.390625 
L 45.40625 75.984375 
L 54.390625 75.984375 
L 54.390625 0 
L 45.40625 0 
L 45.40625 8.203125 
Q 42.578125 3.328125 38.25 0.953125 
Q 33.9375 -1.421875 27.875 -1.421875 
Q 17.96875 -1.421875 11.734375 6.484375 
Q 5.515625 14.40625 5.515625 27.296875 
Q 5.515625 40.1875 11.734375 48.09375 
Q 17.96875 56 27.875 56 
Q 33.9375 56 38.25 53.625 
Q 42.578125 51.265625 45.40625 46.390625 
z
M 14.796875 27.296875 
Q 14.796875 17.390625 18.875 11.75 
Q 22.953125 6.109375 30.078125 6.109375 
Q 37.203125 6.109375 41.296875 11.75 
Q 45.40625 17.390625 45.40625 27.296875 
Q 45.40625 37.203125 41.296875 42.84375 
Q 37.203125 48.484375 30.078125 48.484375 
Q 22.953125 48.484375 18.875 42.84375 
Q 14.796875 37.203125 14.796875 27.296875 
z
" id="DejaVuSans-100"/>
      </defs>
      <use xlink:href="#DejaVuSans-97"/>
      <use x="61.279297" xlink:href="#DejaVuSans-109"/>
      <use x="158.691406" xlink:href="#DejaVuSans-112"/>
      <use x="222.167969" xlink:href="#DejaVuSans-108"/>
      <use x="249.951172" xlink:href="#DejaVuSans-105"/>
      <use x="277.734375" xlink:href="#DejaVuSans-116"/>
      <use x="316.943359" xlink:href="#DejaVuSans-117"/>
      <use x="380.322266" xlink:href="#DejaVuSans-100"/>
      <use x="443.798828" xlink:href="#DejaVuSans-101"/>
      <use x="505.322266" xlink:href="#DejaVuSans-32"/>
      <use x="537.109375" xlink:href="#DejaVuSans-40"/>
      <use x="576.123047" xlink:href="#DejaVuSans-97"/>
      <use x="637.402344" xlink:href="#DejaVuSans-46"/>
      <use x="669.189453" xlink:href="#DejaVuSans-117"/>
      <use x="732.568359" xlink:href="#DejaVuSans-46"/>
      <use x="764.355469" xlink:href="#DejaVuSans-41"/>
     </g>
    </g>
   </g>
   <g id="line2d_10">
    <path clip-path="url(#p985d1c8bcb)" d="M 99.929432 218.59575 
L 101.553246 218.701347 
L 103.583013 219.247421 
L 104.39492 219.647409 
L 105.409804 220.156294 
L 105.612781 220.074324 
L 105.815758 219.779668 
L 106.018734 219.138116 
L 106.323199 217.180415 
L 106.729153 212.510668 
L 107.236595 207.017295 
L 107.54106 205.419898 
L 107.845525 204.710985 
L 108.14999 204.497778 
L 108.75892 204.498303 
L 110.281246 204.644318 
L 111.397618 204.756958 
L 112.108037 204.829222 
L 112.412502 205.095651 
L 112.716967 205.708045 
L 113.224409 206.733608 
L 113.630362 206.896247 
L 114.340781 207.114405 
L 114.848223 207.565852 
L 115.558642 208.55543 
L 116.370549 210.152395 
L 117.283944 212.450654 
L 117.892874 213.837545 
L 118.095851 213.937236 
L 118.298828 213.54407 
L 118.501804 212.347197 
L 118.80627 208.501941 
L 119.719665 192.938614 
L 120.02413 191.494526 
L 120.328595 191.129764 
L 120.63306 191.189536 
L 121.241991 191.683291 
L 122.764316 193.004139 
L 123.373246 193.136327 
L 124.185153 193.219665 
L 124.489619 193.526519 
L 124.794084 194.268656 
L 125.707479 197.302749 
L 126.316409 197.827007 
L 126.722363 198.378018 
L 127.229805 199.629359 
L 128.041712 202.509277 
L 129.158084 206.575875 
L 129.361061 206.637749 
L 129.564037 205.982895 
L 129.767014 204.221656 
L 130.071479 199.120564 
L 130.781898 184.847913 
L 131.086363 182.522983 
L 131.390828 181.880989 
L 131.593805 181.878935 
L 131.999758 182.230982 
L 132.710177 183.242774 
L 133.623572 184.453078 
L 134.131014 184.822447 
L 134.638456 184.921952 
L 135.450363 184.963882 
L 135.754828 185.299718 
L 136.059293 186.140267 
L 136.465247 188.234482 
L 137.074177 191.45044 
L 137.581619 192.885265 
L 138.190549 194.521274 
L 138.697991 196.662343 
L 139.712875 201.742479 
L 139.814363 201.726645 
L 140.01734 200.963925 
L 140.220317 199.044121 
L 140.727759 190.602654 
L 141.133712 185.702051 
L 141.438177 184.409911 
L 141.641154 184.255071 
L 141.844131 184.404922 
L 142.250084 185.133539 
L 143.467945 187.652789 
L 143.975387 188.082605 
L 144.685805 188.371622 
L 145.294735 188.42036 
L 145.903666 188.435019 
L 146.208131 188.708491 
L 146.512596 189.471434 
L 146.918549 191.552181 
L 147.425991 194.161698 
L 147.831945 195.103772 
L 148.542363 196.426785 
L 148.948317 197.789671 
L 149.557247 200.848422 
L 150.572131 206.216692 
L 150.673619 206.355597 
L 150.775108 206.301474 
L 150.978084 205.413353 
L 151.181061 203.178716 
L 151.587015 195.088103 
L 152.094457 185.812732 
L 152.398922 183.60462 
L 152.601898 183.125616 
L 152.804875 183.092231 
L 153.10934 183.496948 
L 153.921247 185.314944 
L 154.631666 186.610637 
L 155.240596 187.296242 
L 155.748038 187.539864 
L 156.356968 187.519311 
L 156.86441 187.561726 
L 157.168875 187.879308 
L 157.47334 188.62257 
L 157.879294 190.457674 
L 160.213527 203.23686 
L 160.517992 204.27831 
L 160.61948 204.353207 
L 160.720968 204.224814 
L 160.923945 203.220586 
L 161.22841 199.877415 
L 161.837341 192.379665 
L 162.141806 190.866409 
L 162.344782 190.583943 
L 162.547759 190.678881 
L 162.852224 191.255876 
L 164.476038 195.197075 
L 164.98348 195.65758 
L 165.59241 195.92369 
L 166.302829 195.99357 
L 167.216224 196.016759 
L 167.52069 196.315905 
L 167.825155 197.034129 
L 168.12962 198.357859 
L 169.448969 205.550642 
L 170.463852 209.040923 
L 170.971294 210.709359 
L 171.072783 210.789409 
L 171.174271 210.710858 
L 171.377248 209.917497 
L 171.580225 207.930506 
L 171.986178 200.33089 
L 172.49362 191.507391 
L 172.798085 189.364608 
L 173.001062 188.888686 
L 173.204039 188.848813 
L 173.508504 189.204892 
L 175.335294 192.087959 
L 176.045713 192.506762 
L 176.654643 192.608388 
L 177.263574 192.630515 
L 177.568039 192.950654 
L 177.872504 193.837542 
L 178.278457 196.071874 
L 178.785899 198.614513 
L 179.293341 199.865491 
L 179.800783 201.113592 
L 180.206736 202.712938 
L 181.323108 207.811126 
L 181.424597 207.706223 
L 181.627574 206.607571 
L 181.932039 202.217837 
L 182.743946 186.90259 
L 183.048411 185.083071 
L 183.251388 184.782257 
L 183.454364 184.896945 
L 183.860318 185.694903 
L 185.179667 188.722429 
L 185.788597 189.438345 
L 186.296039 189.758646 
L 186.803481 189.836053 
L 187.615388 189.910933 
L 187.919853 190.228814 
L 188.224318 191.024769 
L 188.528783 192.479506 
L 189.239202 196.377511 
L 189.746644 197.644405 
L 190.254085 198.952069 
L 190.761527 201.048216 
L 191.573434 204.790814 
L 191.776411 205.018167 
L 191.877899 204.849889 
L 192.080876 203.705256 
L 192.385341 199.456853 
L 193.298737 182.525254 
L 193.603202 181.094662 
L 193.806179 180.924999 
L 194.009155 181.091252 
L 194.415109 181.935525 
L 195.632969 184.916033 
L 196.2419 185.773582 
L 196.749341 186.114069 
L 197.256783 186.200982 
L 198.06869 186.256539 
L 198.373155 186.545947 
L 198.677621 187.302081 
L 198.982086 188.733092 
L 199.895481 193.917157 
L 200.402923 195.004495 
L 200.808876 195.935999 
L 201.21483 197.416345 
L 202.43269 202.596258 
L 202.534179 202.388788 
L 202.737156 201.073718 
L 203.041621 196.339529 
L 203.853528 179.670676 
L 204.157993 177.693442 
L 204.36097 177.342798 
L 204.563946 177.395163 
L 204.868411 177.839351 
L 205.57883 179.382337 
L 206.390737 181.01533 
L 206.898179 181.581211 
L 207.507109 181.927592 
L 208.116039 181.97786 
L 208.623481 182.026217 
L 208.927946 182.343553 
L 209.232412 183.216349 
L 209.536877 184.890732 
L 210.247295 189.126349 
L 210.653249 189.857631 
L 211.160691 190.594054 
L 211.566644 191.762792 
L 212.074086 194.069534 
L 213.08897 199.131401 
L 213.190458 199.262754 
L 213.291947 199.203354 
L 213.494923 198.300214 
L 213.6979 195.905314 
L 214.002365 189.131338 
L 214.712784 172.294828 
L 215.017249 169.891016 
L 215.220226 169.385027 
L 215.423202 169.336167 
L 215.727668 169.681547 
L 217.148505 171.836498 
L 217.960412 172.526838 
L 218.467854 172.729027 
L 219.381249 172.883447 
L 219.584226 173.194626 
L 219.888691 174.295537 
L 220.700598 178.239334 
L 221.106551 178.643902 
L 221.512505 179.076571 
L 221.81697 179.732498 
L 222.222924 181.182885 
L 222.831854 184.364975 
L 223.745249 189.249526 
L 223.948226 189.697644 
L 224.049714 189.674119 
L 224.252691 188.87641 
L 224.455668 186.656399 
L 224.760133 180.266913 
L 225.369063 166.028479 
L 225.673528 163.136695 
L 225.876505 162.485391 
L 226.079482 162.372067 
L 226.383947 162.679396 
L 227.804784 164.788242 
L 228.921156 165.76331 
L 229.428598 165.85985 
L 229.93604 165.915101 
L 230.139017 166.109333 
L 230.341994 166.533142 
L 230.646459 167.832167 
L 231.458366 172.113299 
L 231.864319 172.744514 
L 232.270273 173.376361 
L 232.676226 174.592348 
L 233.183668 177.095833 
L 234.30004 183.266665 
L 234.401529 183.350736 
L 234.503017 183.192932 
L 234.705994 181.93675 
L 235.010459 177.205632 
L 235.720877 163.236464 
L 236.025343 161.152058 
L 236.228319 160.766255 
L 236.431296 160.81403 
L 236.735761 161.271613 
L 238.359575 164.246802 
L 238.968505 164.625556 
L 239.678924 164.833836 
L 240.490831 164.955745 
L 240.693808 165.22451 
L 240.896785 165.80408 
L 241.302738 168.018458 
L 241.607203 169.468263 
L 241.911668 170.000878 
L 242.723575 170.77536 
L 243.129529 171.796126 
L 243.636971 173.837696 
L 244.245901 177.26327 
L 244.95632 181.155251 
L 245.159296 181.365457 
L 245.260785 181.150621 
L 245.463761 179.819487 
L 245.768227 174.869312 
L 246.681622 155.681734 
L 246.986087 154.22442 
L 247.189064 154.07228 
L 247.392041 154.230229 
L 248.914366 156.199064 
L 250.132227 157.110568 
L 250.639669 157.182727 
L 251.14711 157.248628 
L 251.350087 157.440067 
L 251.553064 157.892274 
L 251.857529 159.292061 
L 252.364971 161.899948 
L 252.669436 162.374734 
L 253.379855 163.045468 
L 253.68432 163.770617 
L 254.090273 165.378727 
L 254.800692 169.381108 
L 255.308134 171.86252 
L 255.511111 172.218737 
L 255.612599 172.113337 
L 255.815576 171.072446 
L 256.018552 168.574394 
L 256.424506 159.495377 
L 256.830459 151.12275 
L 257.134925 148.29124 
L 257.337901 147.659692 
L 257.540878 147.56621 
L 257.845343 147.901144 
L 259.26618 150.241453 
L 259.875111 150.630354 
L 260.788506 151.014468 
L 261.600413 151.142634 
L 261.80339 151.439285 
L 262.006367 152.092865 
L 262.919762 156.094548 
L 263.833157 156.661487 
L 264.239111 157.610386 
L 264.746553 159.503935 
L 265.456971 163.178246 
L 266.370367 167.974674 
L 266.471855 168.074154 
L 266.573343 167.924018 
L 266.77632 166.635504 
L 267.080785 161.66262 
L 267.994181 141.278264 
L 268.298646 139.605205 
L 268.501623 139.379619 
L 268.704599 139.483711 
L 271.038832 141.838493 
L 271.546274 142.16417 
L 272.561158 142.466104 
L 272.764134 142.906389 
L 273.068599 144.337457 
L 273.576041 147.396513 
L 273.880506 147.87655 
L 274.590925 148.278036 
L 274.89539 148.795359 
L 275.301344 149.974111 
L 275.910274 152.597287 
L 277.331111 159.260158 
L 277.4326 159.117336 
L 277.635576 157.850966 
L 277.940041 152.719548 
L 278.751948 134.311567 
L 279.056414 132.256705 
L 279.25939 131.898499 
L 279.462367 131.937169 
L 279.766832 132.328874 
L 280.883204 133.994738 
L 281.492135 134.377147 
L 282.709995 134.930545 
L 283.420414 135.063772 
L 283.62339 135.39972 
L 283.826367 136.144403 
L 284.638274 140.091887 
L 285.044228 140.195048 
L 285.450181 140.344146 
L 285.754646 140.676797 
L 286.1606 141.516671 
L 286.668042 143.205018 
L 287.276972 146.150687 
L 288.291856 151.801314 
L 288.393344 151.924507 
L 288.494832 151.804196 
L 288.697809 150.541164 
L 289.002274 145.593264 
L 289.91567 125.71554 
L 290.220135 124.162317 
L 290.423112 123.993122 
L 290.727577 124.229708 
L 291.945437 125.591847 
L 293.67074 126.791074 
L 294.381158 126.899424 
L 294.584135 127.155791 
L 294.787112 127.734177 
L 295.091577 129.441548 
L 295.49753 131.773937 
L 295.700507 132.089516 
L 296.715391 132.643356 
L 297.121344 133.630555 
L 297.628786 135.625452 
L 298.237716 139.081891 
L 299.2526 145.141631 
L 299.354089 145.127875 
L 299.557065 144.194681 
L 299.760042 141.657883 
L 300.064507 134.556123 
L 300.673437 119.788467 
L 300.977903 117.153989 
L 301.180879 116.652967 
L 301.383856 116.623652 
L 301.78981 117.024176 
L 303.00767 118.244306 
L 304.225531 118.905563 
L 304.834461 119.01836 
L 305.240414 119.083562 
L 305.443391 119.293798 
L 305.646368 119.805878 
L 305.950833 121.469345 
L 306.356786 123.480805 
L 306.559763 123.631787 
L 307.37167 123.705849 
L 307.676135 123.999597 
L 308.082089 124.767951 
L 308.589531 126.249102 
L 309.299949 129.178092 
L 310.010368 133.116271 
L 310.51781 135.699987 
L 310.720787 135.944872 
L 310.822275 135.700547 
L 311.025252 134.098758 
L 311.329717 128.201224 
L 312.141624 107.417438 
L 312.446089 105.04792 
L 312.649066 104.627801 
L 312.852042 104.626871 
L 313.359484 105.096662 
L 314.171391 105.750016 
L 314.88181 106.056534 
L 315.693717 106.482599 
L 316.201159 106.617547 
L 316.708601 106.690363 
L 316.911577 106.935932 
L 317.114554 107.549483 
L 317.520508 110.152237 
L 317.824973 111.320023 
L 318.02795 111.427705 
L 318.839857 111.493774 
L 319.144322 111.759274 
L 319.550275 112.470018 
L 320.159205 114.11251 
L 321.072601 117.39223 
L 321.681531 120.485441 
L 322.899392 127.493274 
L 323.00088 127.319321 
L 323.203857 125.824203 
L 323.508322 119.955181 
L 324.421717 97.043014 
L 324.726182 95.375132 
L 324.929159 95.195677 
L 325.233624 95.392932 
L 325.741066 95.778192 
L 326.451485 95.988024 
L 327.060415 96.214027 
L 328.481252 96.93781 
L 328.887206 96.989338 
L 329.090182 97.200237 
L 329.293159 97.750113 
L 329.597624 99.535992 
L 329.902089 101.394053 
L 330.105066 101.792414 
L 330.409531 101.855591 
L 330.916973 101.943707 
L 331.221438 102.238866 
L 331.627392 103.086052 
L 332.134834 104.858105 
L 332.743764 107.837872 
L 334.063113 115.01301 
L 334.164601 114.829618 
L 334.367578 113.388605 
L 334.672043 108.133004 
L 335.382462 92.954985 
L 335.686927 90.791495 
L 335.889903 90.446212 
L 336.09288 90.525281 
L 337.209252 91.729828 
L 338.325624 92.203071 
L 339.137531 92.745789 
L 340.050927 93.065937 
L 340.253904 93.645356 
L 340.558369 95.518904 
L 340.964322 97.785844 
L 341.167299 97.970162 
L 342.080694 98.148012 
L 342.385159 98.526732 
L 342.791113 99.392543 
L 343.298555 101.050002 
L 343.907485 103.98151 
L 344.617904 108.677245 
L 345.429811 113.876322 
L 345.531299 114.055347 
L 345.632787 113.972434 
L 345.835764 112.774795 
L 346.038741 109.94344 
L 346.444694 99.708978 
L 346.952136 88.413939 
L 347.256601 86.031509 
L 347.459578 85.626482 
L 347.662555 85.638967 
L 348.271485 86.225478 
L 349.590834 87.434277 
L 350.808695 87.931903 
L 351.417625 88.011011 
L 351.620602 88.26321 
L 351.823578 88.888321 
L 352.128043 90.899115 
L 352.432509 92.802898 
L 352.635485 93.089043 
L 353.954834 93.185843 
L 354.360788 93.625762 
L 354.86823 94.491303 
L 356.08609 97.203917 
L 356.69502 98.987111 
L 357.202462 101.273967 
L 357.912881 105.91678 
L 358.318834 108.214914 
L 358.521811 108.439205 
L 358.623299 108.106089 
L 358.826276 106.198889 
L 359.130741 99.763022 
L 359.942648 78.353504 
L 360.247113 76.083737 
L 360.45009 75.731637 
L 360.653067 75.767408 
L 361.363486 76.179293 
L 362.581346 76.360018 
L 364.002183 77.120532 
L 364.408137 77.174783 
L 364.611114 77.399263 
L 364.81409 77.998899 
L 365.118555 79.985148 
L 365.423021 81.796444 
L 365.625997 82.069451 
L 366.742369 82.265382 
L 367.148323 82.86209 
L 367.655765 84.158818 
L 368.264695 86.416316 
L 368.975114 90.01169 
L 369.685532 95.099091 
L 370.192974 98.591643 
L 370.395951 99.072714 
L 370.497439 98.882356 
L 370.700416 97.31175 
L 371.004881 91.515694 
L 371.7153 74.407988 
L 372.019765 72.004143 
L 372.222742 71.616854 
L 372.425718 71.666806 
L 373.034649 72.127642 
L 373.440602 72.100336 
L 373.948044 72.014965 
L 374.556974 72.205901 
L 375.673346 72.701381 
L 376.180788 72.801113 
L 376.383765 73.148431 
L 376.586742 73.990395 
L 377.195672 77.619784 
L 377.398649 77.691171 
L 378.210556 77.623387 
L 378.616509 77.763703 
L 379.022463 78.177857 
L 379.529905 79.021033 
L 380.646277 81.517307 
L 381.153719 83.087326 
L 381.762649 85.776017 
L 382.270091 89.031636 
L 383.183486 95.280626 
L 383.284975 95.390517 
L 383.386463 95.196424 
L 383.58944 93.613532 
L 383.893905 87.802078 
L 384.705812 68.730311 
L 385.010277 66.84935 
L 385.213254 66.622687 
L 385.41623 66.741882 
L 386.025161 67.267639 
L 386.532603 67.291331 
L 387.040044 67.370825 
L 388.866835 68.14293 
L 389.1713 68.239518 
L 389.374277 68.553218 
L 389.577254 69.315635 
L 390.287672 73.015699 
L 390.693626 72.991282 
L 391.302556 73.049082 
L 391.607021 73.289008 
L 392.012975 73.895018 
L 392.621905 75.253415 
L 393.636789 78.065576 
L 394.245719 80.542745 
L 394.753161 83.705219 
L 395.666556 90.187154 
L 395.768045 90.390001 
L 395.869533 90.29361 
L 396.07251 88.927557 
L 396.376975 83.348189 
L 397.087394 66.365722 
L 397.391859 63.963468 
L 397.594835 63.579916 
L 397.797812 63.636812 
L 398.508231 64.166154 
L 399.82758 64.372124 
L 401.146929 65.143784 
L 401.552882 65.190587 
L 401.755859 65.418108 
L 401.958836 66.047019 
L 402.263301 68.141771 
L 402.567766 70.155988 
L 402.770743 70.503207 
L 403.176696 70.509777 
L 403.684138 70.592515 
L 403.988603 70.88299 
L 404.293068 71.389099 
L 404.293068 71.389099 
" style="fill:none;stroke:#ff7f0e;stroke-linecap:square;stroke-width:1.5;"/>
   </g>
   <g id="patch_3">
    <path d="M 84.71125 254.83575 
L 84.71125 37.39575 
" style="fill:none;stroke:#000000;stroke-linecap:square;stroke-linejoin:miter;stroke-width:0.8;"/>
   </g>
   <g id="patch_4">
    <path d="M 419.51125 254.83575 
L 419.51125 37.39575 
" style="fill:none;stroke:#000000;stroke-linecap:square;stroke-linejoin:miter;stroke-width:0.8;"/>
   </g>
   <g id="patch_5">
    <path d="M 84.71125 254.83575 
L 419.51125 254.83575 
" style="fill:none;stroke:#000000;stroke-linecap:square;stroke-linejoin:miter;stroke-width:0.8;"/>
   </g>
   <g id="patch_6">
    <path d="M 84.71125 37.39575 
L 419.51125 37.39575 
" style="fill:none;stroke:#000000;stroke-linecap:square;stroke-linejoin:miter;stroke-width:0.8;"/>
   </g>
   <g id="text_11">
    <!-- $A(t)$ -->
    <g transform="translate(227.77525 30.907125)scale(0.312 -0.312)">
     <defs>
      <path d="M 56.40625 0 
L 31.90625 0 
L 31.90625 1.59375 
Q 36.40625 1.796875 38 3 
Q 39.59375 4.203125 39.59375 6.90625 
Q 39.59375 7.703125 39.40625 9.5 
L 37.40625 22.59375 
L 15.40625 22.59375 
L 9.5 11.5 
Q 7.296875 7.40625 7.296875 4.90625 
Q 7.296875 1.90625 13.5 1.59375 
L 13.5 0 
L -5.09375 0 
L -5.09375 1.59375 
Q -1.703125 2.296875 0.4375 4.796875 
Q 2.59375 7.296875 8.296875 17.203125 
L 36.796875 66.796875 
L 39.40625 66.796875 
L 48.59375 11.5 
Q 49.59375 5.296875 51 3.59375 
Q 52.40625 1.90625 56.40625 1.59375 
z
M 36.90625 26.203125 
L 32.40625 52.5 
L 17.5 26.203125 
z
" id="STIXGeneral-Italic-65"/>
      <path d="M 30.40625 -16.09375 
L 29.203125 -17.703125 
Q 17.59375 -11.09375 11.1875 0.5 
Q 4.796875 12.09375 4.796875 25.203125 
Q 4.796875 52.90625 29.5 67.59375 
L 30.40625 66 
Q 20.203125 57.296875 16.796875 48.84375 
Q 13.40625 40.40625 13.40625 25.5 
Q 13.40625 10.703125 16.90625 1.5 
Q 20.40625 -7.703125 30.40625 -16.09375 
z
" id="STIXGeneral-Regular-40"/>
      <path d="M 29.59375 42.796875 
L 29.09375 39.59375 
L 20.703125 39.59375 
L 12 6.796875 
Q 11.796875 6 11.796875 5.40625 
Q 11.796875 3.796875 13.296875 3.796875 
Q 14.5 3.796875 16.09375 5.34375 
Q 17.703125 6.90625 21.40625 11.703125 
L 22.703125 11 
Q 18.09375 4 15.140625 1.453125 
Q 12.203125 -1.09375 8.40625 -1.09375 
Q 3.796875 -1.09375 3.796875 2.59375 
Q 3.796875 3.59375 5.40625 10 
L 13.203125 39.59375 
L 5.703125 39.59375 
L 5.59375 40.203125 
Q 5.59375 42 8.90625 42.703125 
Q 11.40625 43.296875 15.5 46.546875 
Q 19.59375 49.796875 22.203125 53.703125 
Q 22.796875 54.59375 23.59375 54.59375 
Q 24.5 54.59375 24.5 53.796875 
Q 24.5 53.296875 24.40625 53.09375 
L 21.59375 42.796875 
z
" id="STIXGeneral-Italic-116"/>
      <path d="M 2.90625 66 
L 4.09375 67.59375 
Q 15.5 60.796875 22 49.1875 
Q 28.5 37.59375 28.5 24.703125 
Q 28.5 -2.59375 3.796875 -17.703125 
L 2.90625 -16.09375 
Q 13.203125 -7.59375 16.546875 0.84375 
Q 19.90625 9.296875 19.90625 24.40625 
Q 19.90625 39.59375 16.546875 48.75 
Q 13.203125 57.90625 2.90625 66 
z
" id="STIXGeneral-Regular-41"/>
     </defs>
     <use transform="translate(0 0.40625)" xlink:href="#STIXGeneral-Italic-65"/>
     <use transform="translate(61.099991 0.40625)" xlink:href="#STIXGeneral-Regular-40"/>
     <use transform="translate(94.399979 0.40625)" xlink:href="#STIXGeneral-Italic-116"/>
     <use transform="translate(122.199966 0.40625)" xlink:href="#STIXGeneral-Regular-41"/>
    </g>
   </g>
   <g id="legend_1">
    <g id="line2d_11">
     <path d="M 446.65125 58.451688 
L 498.65125 58.451688 
" style="fill:none;stroke:#1f77b4;stroke-linecap:square;stroke-width:1.5;"/>
    </g>
    <g id="line2d_12"/>
    <g id="text_12">
     <!-- exact -->
     <g transform="translate(519.45125 67.551688)scale(0.26 -0.26)">
      <defs>
       <path d="M 54.890625 54.6875 
L 35.109375 28.078125 
L 55.90625 0 
L 45.3125 0 
L 29.390625 21.484375 
L 13.484375 0 
L 2.875 0 
L 24.125 28.609375 
L 4.6875 54.6875 
L 15.28125 54.6875 
L 29.78125 35.203125 
L 44.28125 54.6875 
z
" id="DejaVuSans-120"/>
       <path d="M 48.78125 52.59375 
L 48.78125 44.1875 
Q 44.96875 46.296875 41.140625 47.34375 
Q 37.3125 48.390625 33.40625 48.390625 
Q 24.65625 48.390625 19.8125 42.84375 
Q 14.984375 37.3125 14.984375 27.296875 
Q 14.984375 17.28125 19.8125 11.734375 
Q 24.65625 6.203125 33.40625 6.203125 
Q 37.3125 6.203125 41.140625 7.25 
Q 44.96875 8.296875 48.78125 10.40625 
L 48.78125 2.09375 
Q 45.015625 0.34375 40.984375 -0.53125 
Q 36.96875 -1.421875 32.421875 -1.421875 
Q 20.0625 -1.421875 12.78125 6.34375 
Q 5.515625 14.109375 5.515625 27.296875 
Q 5.515625 40.671875 12.859375 48.328125 
Q 20.21875 56 33.015625 56 
Q 37.15625 56 41.109375 55.140625 
Q 45.0625 54.296875 48.78125 52.59375 
z
" id="DejaVuSans-99"/>
      </defs>
      <use xlink:href="#DejaVuSans-101"/>
      <use x="59.773438" xlink:href="#DejaVuSans-120"/>
      <use x="118.953125" xlink:href="#DejaVuSans-97"/>
      <use x="180.232422" xlink:href="#DejaVuSans-99"/>
      <use x="235.212891" xlink:href="#DejaVuSans-116"/>
     </g>
    </g>
    <g id="line2d_13">
     <path d="M 446.65125 96.614813 
L 498.65125 96.614813 
" style="fill:none;stroke:#ff7f0e;stroke-linecap:square;stroke-width:1.5;"/>
    </g>
    <g id="line2d_14"/>
    <g id="text_13">
     <!-- estimated -->
     <g transform="translate(519.45125 105.714813)scale(0.26 -0.26)">
      <use xlink:href="#DejaVuSans-101"/>
      <use x="61.523438" xlink:href="#DejaVuSans-115"/>
      <use x="113.623047" xlink:href="#DejaVuSans-116"/>
      <use x="152.832031" xlink:href="#DejaVuSans-105"/>
      <use x="180.615234" xlink:href="#DejaVuSans-109"/>
      <use x="278.027344" xlink:href="#DejaVuSans-97"/>
      <use x="339.306641" xlink:href="#DejaVuSans-116"/>
      <use x="378.515625" xlink:href="#DejaVuSans-101"/>
      <use x="440.039062" xlink:href="#DejaVuSans-100"/>
     </g>
    </g>
   </g>
  </g>
 </g>
 <defs>
  <clipPath id="p985d1c8bcb">
   <rect height="217.44" width="334.8" x="84.71125" y="37.39575"/>
  </clipPath>
 </defs>
</svg>
