<?xml version="1.0" encoding="utf-8" standalone="no"?>
<!DOCTYPE svg PUBLIC "-//W3C//DTD SVG 1.1//EN"
  "http://www.w3.org/Graphics/SVG/1.1/DTD/svg11.dtd">
<!-- Created with matplotlib (https://matplotlib.org/) -->
<svg height="323.362pt" version="1.1" viewBox="0 0 676.244688 323.362" width="676.244688pt" xmlns="http://www.w3.org/2000/svg" xmlns:xlink="http://www.w3.org/1999/xlink">
 <metadata>
  <rdf:RDF xmlns:cc="http://creativecommons.org/ns#" xmlns:dc="http://purl.org/dc/elements/1.1/" xmlns:rdf="http://www.w3.org/1999/02/22-rdf-syntax-ns#">
   <cc:Work>
    <dc:type rdf:resource="http://purl.org/dc/dcmitype/StillImage"/>
    <dc:date>2021-09-06T21:54:17.503470</dc:date>
    <dc:format>image/svg+xml</dc:format>
    <dc:creator>
     <cc:Agent>
      <dc:title>Matplotlib v3.3.2, https://matplotlib.org/</dc:title>
     </cc:Agent>
    </dc:creator>
   </cc:Work>
  </rdf:RDF>
 </metadata>
 <defs>
  <style type="text/css">*{stroke-linecap:butt;stroke-linejoin:round;}</style>
 </defs>
 <g id="figure_1">
  <g id="patch_1">
   <path d="M 0 323.362 
L 676.244688 323.362 
L 676.244688 0 
L 0 0 
z
" style="fill:#ffffff;"/>
  </g>
  <g id="axes_1">
   <g id="patch_2">
    <path d="M 92.990625 254.83575 
L 427.790625 254.83575 
L 427.790625 37.39575 
L 92.990625 37.39575 
z
" style="fill:#ffffff;"/>
   </g>
   <g id="line2d_1">
    <path clip-path="url(#pd0d9c80aa5)" d="M 108.208807 143.024175 
L 108.310295 146.738102 
L 108.411784 144.747888 
L 108.513272 152.697961 
L 108.716249 145.652317 
L 108.817737 145.575292 
L 108.919225 154.43618 
L 109.020714 144.33479 
L 109.122202 144.598038 
L 109.223691 148.1654 
L 109.325179 146.093055 
L 109.426667 154.18001 
L 109.528156 154.159919 
L 109.629644 145.38359 
L 109.731132 149.745493 
L 109.934109 141.552279 
L 110.035598 147.061233 
L 110.137086 161.394542 
L 110.238574 146.934703 
L 110.340063 148.730705 
L 110.441551 147.391549 
L 110.543039 141.224813 
L 110.644528 154.69664 
L 110.847505 137.579578 
L 110.948993 149.518377 
L 111.15197 140.862912 
L 111.456435 149.972706 
L 111.557923 142.072452 
L 111.659412 142.896828 
L 111.862388 152.511058 
L 111.963877 153.078215 
L 112.065365 137.08301 
L 112.166853 146.4851 
L 112.268342 133.285547 
L 112.471319 143.726507 
L 112.572807 144.450853 
L 112.674295 140.684371 
L 112.775784 151.367269 
L 112.877272 134.373919 
L 113.080249 149.939433 
L 113.283226 140.177796 
L 113.384714 151.592818 
L 113.486202 143.034248 
L 113.587691 150.01034 
L 113.790667 148.776576 
L 113.892156 141.965139 
L 113.993644 152.144669 
L 114.095133 145.068689 
L 114.399598 152.712464 
L 114.501086 152.654651 
L 114.602574 154.997065 
L 114.704063 141.244185 
L 114.805551 147.429377 
L 114.90704 145.253318 
L 115.008528 139.711113 
L 115.110016 152.748307 
L 115.211505 151.233992 
L 115.312993 144.731116 
L 115.414481 156.031446 
L 115.51597 149.261609 
L 115.617458 151.143469 
L 115.718947 144.324466 
L 115.820435 148.430485 
L 115.921923 135.199451 
L 116.1249 150.753954 
L 116.226388 148.221186 
L 116.327877 148.005219 
L 116.429365 128.141212 
L 116.530854 154.325195 
L 116.632342 145.009308 
L 116.73383 157.446723 
L 116.936807 135.733585 
L 117.038295 148.336114 
L 117.139784 140.111392 
L 117.342761 148.412453 
L 117.444249 147.483754 
L 117.748714 153.346687 
L 117.850202 137.924781 
L 117.951691 148.252513 
L 118.053179 144.518793 
L 118.154668 150.880577 
L 118.256156 140.043789 
L 118.357644 147.602799 
L 118.459133 146.610604 
L 118.560621 156.058067 
L 118.763598 136.268405 
L 118.865086 150.840056 
L 118.966575 148.606684 
L 119.068063 152.303679 
L 119.169551 145.413624 
L 119.27104 145.767714 
L 119.372528 142.282929 
L 119.474016 143.11794 
L 119.575505 150.532587 
L 119.676993 144.892932 
L 119.87997 152.046605 
L 119.981458 146.805339 
L 120.082947 125.449925 
L 120.285923 145.355653 
L 120.387412 136.663322 
L 120.691877 156.713622 
L 120.996342 145.531277 
L 121.09783 146.03973 
L 121.300807 149.316539 
L 121.402296 147.018958 
L 121.503784 153.625104 
L 121.706761 148.188442 
L 121.808249 152.905036 
L 121.909737 147.910923 
L 122.011226 150.653762 
L 122.112714 139.400211 
L 122.214203 147.441067 
L 122.315691 147.14612 
L 122.518668 143.08807 
L 122.620156 155.55396 
L 122.721644 148.163948 
L 122.823133 151.05725 
L 122.924621 146.904895 
L 123.02611 149.031254 
L 123.127598 145.26192 
L 123.229086 151.445526 
L 123.330575 149.202133 
L 123.432063 149.329294 
L 123.533551 140.230783 
L 123.838017 147.672176 
L 123.939505 148.207076 
L 124.142482 141.889619 
L 124.24397 146.033412 
L 124.446947 139.189443 
L 124.548435 155.165049 
L 124.649924 143.77621 
L 124.751412 146.347334 
L 124.954389 140.049302 
L 125.157365 154.92356 
L 125.258854 140.102493 
L 125.360342 151.543513 
L 125.461831 149.846039 
L 125.563319 145.003431 
L 125.766296 154.771007 
L 125.867784 145.929894 
L 125.969272 150.363901 
L 126.070761 142.865784 
L 126.273738 149.858143 
L 126.375226 147.257313 
L 126.476714 140.396244 
L 126.578203 141.180383 
L 126.679691 152.058528 
L 126.781179 130.896539 
L 126.984156 152.380282 
L 127.085645 141.287321 
L 127.187133 148.081801 
L 127.288621 134.408131 
L 127.491598 147.195991 
L 127.593086 137.552382 
L 127.694575 141.49996 
L 127.796063 152.796024 
L 127.897552 141.28644 
L 127.99904 148.923376 
L 128.202017 145.403338 
L 128.404993 153.363799 
L 128.506482 144.116476 
L 128.709459 160.114551 
L 128.912435 144.315932 
L 129.013924 147.582824 
L 129.115412 139.227626 
L 129.318389 150.281409 
L 129.419877 148.505326 
L 129.521366 153.924789 
L 129.622854 140.213356 
L 129.724342 153.62341 
L 130.028807 146.102958 
L 130.130296 154.284157 
L 130.333273 144.674989 
L 130.434761 139.974574 
L 130.739226 154.609004 
L 131.043691 140.239724 
L 131.14518 141.281103 
L 131.246668 145.365193 
L 131.449645 130.45213 
L 131.652621 150.264047 
L 131.75411 137.861277 
L 131.957087 145.505245 
L 132.058575 143.982803 
L 132.261552 151.740897 
L 132.36304 150.340324 
L 132.464528 139.342786 
L 132.566017 153.925329 
L 132.667505 143.405063 
L 132.768994 149.147339 
L 132.870482 148.036652 
L 133.073459 141.527826 
L 133.174947 144.25133 
L 133.276435 156.298028 
L 133.377924 137.575986 
L 133.479412 138.993522 
L 133.682389 146.059989 
L 133.783877 136.323072 
L 134.088342 147.704903 
L 134.189831 147.167818 
L 134.291319 139.716317 
L 134.392808 140.462355 
L 134.494296 154.886317 
L 134.697273 141.418386 
L 134.798761 154.304884 
L 134.900249 146.131866 
L 135.001738 155.775759 
L 135.103226 145.411827 
L 135.204715 157.440213 
L 135.407691 149.437504 
L 135.50918 149.969058 
L 135.610668 138.225244 
L 135.915133 151.187961 
L 136.016622 147.413738 
L 136.11811 151.710008 
L 136.321087 135.26133 
L 136.625552 147.016108 
L 136.72704 148.317908 
L 136.828529 136.628383 
L 136.930017 149.246536 
L 137.031505 137.629618 
L 137.132994 152.266797 
L 137.234482 147.726065 
L 137.33597 155.433362 
L 137.437459 145.250153 
L 137.538947 152.985373 
L 137.640436 137.064541 
L 137.741924 143.874638 
L 137.843412 143.194461 
L 137.944901 144.57911 
L 138.046389 152.054802 
L 138.249366 136.129379 
L 138.553831 156.185085 
L 138.655319 149.993396 
L 138.756808 155.695226 
L 138.858296 141.601058 
L 138.959784 141.869325 
L 139.061273 150.875956 
L 139.162761 142.778148 
L 139.26425 149.249357 
L 139.467226 144.0938 
L 139.568715 148.529117 
L 139.670203 143.842397 
L 139.771691 155.279368 
L 139.87318 145.477156 
L 139.974668 146.305749 
L 140.076157 157.239943 
L 140.177645 155.953226 
L 140.279133 156.22412 
L 140.380622 143.863578 
L 140.48211 145.441905 
L 140.583598 144.626517 
L 140.685087 153.325943 
L 140.786575 139.924288 
L 140.888064 140.773025 
L 140.989552 150.284961 
L 141.09104 139.722686 
L 141.294017 155.771201 
L 141.395505 154.991079 
L 141.496994 142.127229 
L 141.598482 146.681359 
L 141.699971 141.325411 
L 141.801459 146.596146 
L 141.902947 144.660691 
L 142.004436 134.57226 
L 142.105924 138.522478 
L 142.207412 148.468599 
L 142.410389 143.427945 
L 142.511878 141.976828 
L 142.714854 148.798589 
L 142.816343 146.135444 
L 142.917831 148.726591 
L 143.019319 136.964965 
L 143.120808 139.371162 
L 143.222296 147.222601 
L 143.323785 143.787553 
L 143.425273 147.015187 
L 143.526761 139.629291 
L 143.62825 140.414036 
L 143.729738 143.024782 
L 143.831226 141.379557 
L 143.932715 142.524887 
L 144.034203 139.73355 
L 144.440157 154.659787 
L 144.541645 146.267134 
L 144.643133 150.144128 
L 144.84611 139.916055 
L 145.150575 150.753357 
L 145.252064 153.889965 
L 145.353552 138.87062 
L 145.45504 155.773842 
L 145.556529 151.197231 
L 145.658017 158.690316 
L 145.759506 147.834296 
L 145.860994 147.976409 
L 145.962482 148.313494 
L 146.063971 146.458924 
L 146.266947 151.082382 
L 146.368436 136.234046 
L 146.469924 147.931716 
L 146.571413 141.181718 
L 146.672901 150.664437 
L 146.774389 137.348957 
L 146.875878 137.884656 
L 147.078854 152.092804 
L 147.180343 145.64281 
L 147.281831 145.858603 
L 147.38332 144.813154 
L 147.586296 154.394779 
L 147.687785 145.233145 
L 147.789273 146.171694 
L 147.890761 146.10447 
L 147.99225 140.534062 
L 148.093738 154.134722 
L 148.195227 140.621619 
L 148.296715 150.155935 
L 148.398203 148.264177 
L 148.499692 150.604687 
L 148.60118 145.628576 
L 148.702668 156.475776 
L 149.007134 139.245025 
L 149.108622 145.296555 
L 149.21011 142.334912 
L 149.413087 151.817572 
L 149.514575 141.184184 
L 149.616064 150.711569 
L 149.717552 148.976409 
L 149.920529 140.975801 
L 150.022017 147.210476 
L 150.123506 137.904538 
L 150.224994 149.222307 
L 150.326482 142.497607 
L 150.427971 146.096092 
L 150.529459 137.708042 
L 150.732436 156.320822 
L 150.833924 140.19956 
L 151.036901 149.122195 
L 151.138389 139.467714 
L 151.239878 147.916744 
L 151.341366 142.854222 
L 151.544343 150.660953 
L 151.645831 136.273428 
L 151.74732 150.39406 
L 151.848808 149.294565 
L 151.950296 155.402182 
L 152.051785 137.255167 
L 152.254762 144.82318 
L 152.35625 140.814898 
L 152.457738 153.342024 
L 152.660715 146.612806 
L 152.762203 154.533239 
L 152.863692 138.986832 
L 153.066669 147.873147 
L 153.168157 144.831628 
L 153.269645 150.206787 
L 153.371134 145.870516 
L 153.472622 127.48365 
L 153.57411 142.828698 
L 153.675599 137.046811 
L 153.878576 150.201279 
L 153.980064 144.432201 
L 154.183041 158.656372 
L 154.284529 142.138813 
L 154.386017 142.629436 
L 154.487506 141.582935 
L 154.588994 145.962619 
L 154.690483 135.361316 
L 154.994948 162.459077 
L 155.197924 141.593662 
L 155.299413 146.078453 
L 155.50239 133.640776 
L 155.603878 147.058082 
L 155.705366 139.422656 
L 155.806855 154.736445 
L 155.908343 140.509499 
L 156.11132 147.319229 
L 156.314297 146.965416 
L 156.415785 147.794403 
L 156.517273 145.035764 
L 156.618762 147.063202 
L 156.72025 152.398638 
L 156.821738 143.848645 
L 156.923227 149.42012 
L 157.024715 140.418895 
L 157.126204 146.299633 
L 157.227692 145.425248 
L 157.32918 157.255375 
L 157.430669 152.947063 
L 157.532157 141.008006 
L 157.633645 150.104778 
L 157.836622 147.626632 
L 157.938111 138.702445 
L 158.039599 144.081936 
L 158.141087 138.993152 
L 158.242576 147.571227 
L 158.344064 144.956924 
L 158.445552 152.656581 
L 158.547041 139.711972 
L 158.750018 145.875864 
L 158.851506 144.276667 
L 158.952994 138.250988 
L 159.054483 147.281745 
L 159.155971 137.07547 
L 159.257459 150.744627 
L 159.460436 135.193638 
L 159.561925 148.778383 
L 159.764901 141.345632 
L 159.967878 154.27167 
L 160.069366 151.855945 
L 160.272343 141.269473 
L 160.373832 141.850907 
L 160.47532 139.883746 
L 160.576808 145.724438 
L 160.678297 144.983794 
L 160.779785 154.37232 
L 160.982762 142.785217 
L 161.08425 149.286087 
L 161.185739 142.614957 
L 161.287227 155.986922 
L 161.388715 142.032773 
L 161.490204 144.483404 
L 161.591692 134.642482 
L 161.69318 138.434217 
L 161.794669 137.923805 
L 162.099134 152.539098 
L 162.200622 147.937306 
L 162.302111 136.185654 
L 162.403599 154.03146 
L 162.505087 148.563482 
L 162.606576 153.830706 
L 162.708064 138.228376 
L 162.809553 149.191337 
L 162.911041 137.719661 
L 163.114018 148.856212 
L 163.215506 139.165665 
L 163.316994 141.012261 
L 163.418483 160.88145 
L 163.62146 142.853243 
L 163.722948 144.97524 
L 163.824436 149.690779 
L 163.925925 145.961322 
L 164.027413 148.279612 
L 164.128901 144.966998 
L 164.331878 149.496551 
L 164.534855 141.753692 
L 164.737832 149.12535 
L 165.042297 137.443133 
L 165.245274 143.194551 
L 165.44825 153.538895 
L 165.549739 147.215894 
L 165.651227 153.776078 
L 165.854204 147.040535 
L 165.955692 148.747918 
L 166.057181 147.898313 
L 166.158669 153.334783 
L 166.361646 140.698732 
L 166.463134 149.095425 
L 166.666111 131.641168 
L 166.767599 146.614835 
L 166.869088 142.575772 
L 166.970576 145.046108 
L 167.072064 140.844875 
L 167.173553 155.458331 
L 167.478018 141.294221 
L 167.579506 145.406221 
L 167.680995 155.16437 
L 167.98546 144.00119 
L 168.086948 150.258194 
L 168.188436 149.816617 
L 168.391413 138.856971 
L 168.492902 148.362312 
L 168.59439 143.805979 
L 168.695878 156.343496 
L 168.898855 139.647029 
L 169.20332 148.228413 
L 169.304809 149.631711 
L 169.406297 147.089242 
L 169.507785 154.549384 
L 169.609274 137.361295 
L 169.913739 149.485009 
L 170.218204 140.617519 
L 170.421181 151.407852 
L 170.522669 134.818492 
L 170.827134 146.869431 
L 170.928623 141.092775 
L 171.030111 153.037046 
L 171.131599 137.789057 
L 171.233088 146.310208 
L 171.334576 141.816627 
L 171.436064 142.60291 
L 171.639041 147.069042 
L 171.74053 139.475224 
L 171.842018 140.53571 
L 171.943506 155.749598 
L 172.044995 155.315668 
L 172.247971 150.973063 
L 172.34946 152.196057 
L 172.450948 144.636557 
L 172.552437 148.636447 
L 172.755413 138.217906 
L 172.856902 146.271672 
L 172.95839 136.964473 
L 173.161367 148.479272 
L 173.364344 140.979491 
L 173.465832 154.89196 
L 173.668809 144.499053 
L 173.770297 144.142022 
L 173.871785 148.11857 
L 173.973274 143.458711 
L 174.074762 144.527777 
L 174.176251 149.333363 
L 174.277739 134.25658 
L 174.480716 147.916063 
L 174.582204 149.223615 
L 174.683692 140.519883 
L 174.785181 145.560953 
L 174.886669 132.264209 
L 175.089646 152.870561 
L 175.292623 145.164083 
L 175.394111 157.631648 
L 175.495599 147.79639 
L 175.597088 148.118456 
L 175.698576 148.120349 
L 175.800065 149.541657 
L 175.901553 153.417345 
L 176.003041 141.995055 
L 176.206018 151.680591 
L 176.408995 148.683299 
L 176.611972 142.482659 
L 176.71346 151.297234 
L 176.814948 148.721211 
L 176.916437 153.42993 
L 177.017925 164.556293 
L 177.220902 137.853011 
L 177.423879 148.872128 
L 177.525367 145.591289 
L 177.626855 152.502072 
L 177.728344 146.780531 
L 177.93132 150.751105 
L 178.134297 131.982872 
L 178.235786 137.062366 
L 178.337274 146.507539 
L 178.438762 141.309703 
L 178.540251 141.426072 
L 178.641739 149.635767 
L 178.743227 142.615487 
L 178.844716 153.948983 
L 179.047693 144.817889 
L 179.149181 148.370536 
L 179.250669 136.567532 
L 179.555134 148.673821 
L 179.656623 145.099378 
L 179.758111 151.853618 
L 179.8596 142.878003 
L 179.961088 153.591891 
L 180.062576 142.729067 
L 180.164065 147.010487 
L 180.265553 143.861911 
L 180.367041 151.620167 
L 180.570018 133.002228 
L 180.671507 148.60118 
L 180.874483 137.931488 
L 181.280437 153.06072 
L 181.381925 145.825291 
L 181.483414 148.6339 
L 181.68639 144.9978 
L 181.787879 149.792812 
L 181.990855 136.012639 
L 182.092344 151.602528 
L 182.396809 139.916211 
L 182.498297 152.564923 
L 182.599786 151.905895 
L 182.701274 157.877411 
L 182.904251 142.418478 
L 183.005739 140.325188 
L 183.208716 149.382552 
L 183.310204 142.27537 
L 183.411693 145.005074 
L 183.513181 156.556706 
L 183.614669 152.791674 
L 183.716158 137.89725 
L 183.919135 153.589132 
L 184.122111 140.34579 
L 184.2236 148.480595 
L 184.325088 142.54059 
L 184.426576 166.446937 
L 184.629553 139.727605 
L 184.731042 152.229634 
L 184.83253 144.582334 
L 184.934018 147.953773 
L 185.035507 146.6731 
L 185.136995 148.4254 
L 185.238483 153.358108 
L 185.339972 135.839515 
L 185.44146 147.8026 
L 185.542949 145.546302 
L 185.745925 151.75216 
L 185.948902 143.254283 
L 186.151879 140.115635 
L 186.354856 148.530438 
L 186.456344 142.05607 
L 186.557832 149.58087 
L 186.659321 141.376871 
L 186.760809 144.079966 
L 186.862297 139.837026 
L 186.963786 142.471501 
L 187.065274 151.847717 
L 187.166763 150.821334 
L 187.369739 135.748994 
L 187.471228 153.306554 
L 187.674204 144.584567 
L 187.775693 154.409877 
L 187.877181 143.516663 
L 187.978669 146.621965 
L 188.080158 157.512636 
L 188.181646 137.300037 
L 188.384623 153.087439 
L 188.5876 143.085252 
L 188.689088 142.112618 
L 188.790576 148.214064 
L 188.892065 146.17508 
L 189.095042 153.237983 
L 189.19653 140.249596 
L 189.500995 156.983769 
L 189.602483 147.085375 
L 189.703972 150.69555 
L 189.80546 147.06495 
L 189.906949 147.307561 
L 190.008437 148.542733 
L 190.109925 141.012223 
L 190.211414 143.685564 
L 190.312902 139.988538 
L 190.41439 153.317512 
L 190.617367 146.334717 
L 190.718856 148.326239 
L 190.820344 146.546595 
L 190.921832 152.541664 
L 191.023321 150.008894 
L 191.124809 155.039237 
L 191.226297 150.953929 
L 191.327786 142.342205 
L 191.429274 147.280179 
L 191.530763 137.930475 
L 191.632251 149.353072 
L 191.733739 145.46848 
L 191.835228 152.71099 
L 191.936716 131.978498 
L 192.038204 147.086732 
L 192.139693 141.605882 
L 192.241181 143.868589 
L 192.444158 153.350529 
L 192.545646 145.266956 
L 192.647135 149.142459 
L 192.850111 142.575272 
L 192.9516 145.690431 
L 193.053088 144.065746 
L 193.154577 145.300097 
L 193.256065 154.091717 
L 193.357553 138.526756 
L 193.459042 139.723817 
L 193.56053 152.291942 
L 193.662018 143.368936 
L 193.864995 150.175987 
L 193.966484 146.142069 
L 194.067972 136.615425 
L 194.270949 142.825767 
L 194.372437 152.370442 
L 194.473925 132.229763 
L 194.676902 158.88403 
L 194.778391 143.944208 
L 194.879879 148.772294 
L 194.981367 143.887086 
L 195.082856 143.937869 
L 195.184344 151.10882 
L 195.285832 136.190235 
L 195.387321 145.029721 
L 195.590298 138.769412 
L 195.793274 151.072123 
L 195.996251 138.544286 
L 196.097739 153.601223 
L 196.199228 135.182632 
L 196.300716 147.395946 
L 196.402205 142.355209 
L 196.503693 143.047736 
L 196.605181 151.395967 
L 196.70667 150.812716 
L 196.808158 157.442158 
L 196.909646 152.373402 
L 197.011135 154.174489 
L 197.214112 138.67168 
L 197.3156 146.26331 
L 197.518577 141.886523 
L 197.620065 142.420849 
L 197.823042 154.070494 
L 198.026019 145.773503 
L 198.127507 150.854013 
L 198.228995 144.148132 
L 198.330484 147.706933 
L 198.431972 142.735528 
L 198.634949 151.127566 
L 198.736437 136.47198 
L 198.837926 145.959431 
L 198.939414 143.109839 
L 199.040902 152.086773 
L 199.345367 137.605062 
L 199.548344 150.480409 
L 199.649833 146.238978 
L 199.751321 154.402362 
L 199.852809 146.279555 
L 199.954298 146.467613 
L 200.157274 138.425931 
L 200.258763 143.018076 
L 200.360251 142.084678 
L 200.664716 156.96588 
L 200.867693 144.934688 
L 200.969181 155.061197 
L 201.07067 144.795401 
L 201.273647 151.668949 
L 201.375135 148.670802 
L 201.578112 141.302166 
L 201.6796 156.645398 
L 201.882577 141.147873 
L 201.984065 147.517666 
L 202.085554 145.52423 
L 202.187042 154.244804 
L 202.28853 148.725213 
L 202.390019 136.174527 
L 202.592995 153.947027 
L 202.795972 141.828761 
L 202.897461 139.626196 
L 202.998949 148.93009 
L 203.201926 143.156637 
L 203.303414 142.586642 
L 203.404902 149.090344 
L 203.506391 136.805377 
L 203.607879 149.851897 
L 203.709368 142.267757 
L 203.912344 149.30787 
L 204.013833 149.61029 
L 204.115321 149.303132 
L 204.216809 148.544941 
L 204.318298 151.654412 
L 204.419786 142.324631 
L 204.521275 149.940059 
L 204.622763 149.459003 
L 204.724251 143.459228 
L 204.82574 146.702631 
L 204.927228 153.845218 
L 205.130205 147.184235 
L 205.231693 149.241384 
L 205.333182 142.036127 
L 205.536158 151.373053 
L 205.637647 151.609079 
L 205.840623 143.487598 
L 205.942112 155.207159 
L 206.145089 141.435499 
L 206.246577 155.308014 
L 206.348065 149.868935 
L 206.449554 138.348291 
L 206.551042 140.646581 
L 206.65253 145.980977 
L 206.754019 143.390958 
L 206.855507 134.634811 
L 207.058484 152.752067 
L 207.159972 138.695942 
L 207.261461 150.850174 
L 207.362949 140.712897 
L 207.464437 142.548263 
L 207.565926 141.280354 
L 207.667414 137.739238 
L 207.768903 154.08446 
L 207.971879 135.537025 
L 208.276344 151.677719 
L 208.377833 145.535617 
L 208.58081 154.097793 
L 208.682298 142.982012 
L 208.885275 150.320566 
L 208.986763 143.968812 
L 209.088251 148.854895 
L 209.18974 136.442067 
L 209.291228 146.281942 
L 209.392717 137.542698 
L 209.494205 150.534142 
L 209.697182 136.093397 
L 209.79867 144.642099 
L 209.900158 139.938021 
L 210.001647 155.565322 
L 210.103135 142.271766 
L 210.204624 145.950571 
L 210.4076 141.399122 
L 210.509089 158.380726 
L 210.610577 148.527174 
L 210.712065 149.757997 
L 210.813554 145.288585 
L 210.915042 156.66449 
L 211.016531 152.043755 
L 211.118019 140.669309 
L 211.320996 152.030197 
L 211.523972 140.145538 
L 211.625461 156.115635 
L 211.726949 147.265076 
L 211.828438 147.364199 
L 212.031414 143.377205 
L 212.132903 135.731128 
L 212.335879 149.309299 
L 212.437368 139.277534 
L 212.538856 150.783471 
L 212.741833 137.573277 
L 212.94481 141.706667 
L 213.046298 158.246389 
L 213.147786 146.6648 
L 213.249275 149.308721 
L 213.350763 138.913766 
L 213.55374 144.696377 
L 213.655228 141.797165 
L 213.756717 149.647065 
L 213.858205 142.667779 
L 213.959693 145.599316 
L 214.061182 155.265662 
L 214.264159 142.271639 
L 214.365647 139.628348 
L 214.467135 143.248866 
L 214.568624 140.643307 
L 214.670112 155.532681 
L 214.873089 146.890437 
L 214.974577 147.908229 
L 215.076066 146.599783 
L 215.177554 149.254476 
L 215.279042 142.113954 
L 215.380531 151.503943 
L 215.482019 145.435301 
L 215.583507 145.718092 
L 215.684996 145.333307 
L 215.786484 151.267579 
L 215.887973 138.509536 
L 216.090949 153.937361 
L 216.192438 141.759878 
L 216.395414 146.642724 
L 216.496903 146.636907 
L 216.598391 143.966155 
L 216.902856 153.830442 
L 217.004345 144.466185 
L 217.105833 154.368722 
L 217.207321 140.029019 
L 217.30881 151.300938 
L 217.410298 150.734252 
L 217.511787 151.453357 
L 217.613275 153.52544 
L 217.816252 147.657538 
L 218.019228 159.408007 
L 218.222205 141.313605 
L 218.323694 153.184941 
L 218.52667 138.339243 
L 218.628159 153.309799 
L 218.729647 148.498654 
L 218.831135 150.155527 
L 218.932624 141.267014 
L 219.034112 143.594138 
L 219.135601 142.758146 
L 219.237089 132.545227 
L 219.744531 155.433949 
L 219.846019 146.385602 
L 219.947508 153.179264 
L 220.048996 142.716318 
L 220.150484 150.419536 
L 220.251973 149.28463 
L 220.353461 154.556121 
L 220.454949 134.644955 
L 220.657926 149.974931 
L 220.860903 138.923426 
L 220.962391 151.159407 
L 221.06388 135.75148 
L 221.165368 151.726653 
L 221.266856 147.079887 
L 221.469833 159.915096 
L 221.571322 140.624897 
L 221.774298 155.541018 
L 221.875787 155.034058 
L 221.977275 139.889565 
L 222.078763 146.934385 
L 222.180252 138.334425 
L 222.383229 146.477586 
L 222.484717 145.940004 
L 222.586205 149.13313 
L 222.687694 145.584185 
L 222.789182 146.447264 
L 222.89067 141.563009 
L 222.992159 147.004093 
L 223.195136 141.111193 
L 223.398112 153.253046 
L 223.499601 146.988101 
L 223.601089 156.477172 
L 223.702577 152.674945 
L 223.804066 142.145196 
L 223.905554 143.425513 
L 224.210019 150.135134 
L 224.311508 148.903396 
L 224.412996 140.868643 
L 224.514484 143.524522 
L 224.615973 153.569683 
L 224.920438 137.153561 
L 225.021926 155.669801 
L 225.224903 140.82312 
L 225.326391 152.154778 
L 225.42788 133.147511 
L 225.529368 152.524491 
L 225.732345 143.074049 
L 225.833833 141.326432 
L 225.935322 142.227877 
L 226.03681 148.627603 
L 226.138298 141.151557 
L 226.239787 150.218041 
L 226.341275 149.023886 
L 226.544252 137.90969 
L 226.747229 150.955647 
L 226.848717 139.53943 
L 226.950205 152.991203 
L 227.051694 136.123395 
L 227.153182 151.465223 
L 227.356159 141.078256 
L 227.457647 141.848305 
L 227.660624 145.846507 
L 227.762112 155.102439 
L 227.965089 142.176581 
L 228.066578 142.509675 
L 228.168066 151.757673 
L 228.472531 136.597755 
L 228.675508 148.941694 
L 228.878485 151.547828 
L 228.979973 144.077531 
L 229.081461 149.944548 
L 229.18295 140.27366 
L 229.284438 149.525748 
L 229.385926 137.77695 
L 229.690392 152.36948 
L 229.79188 144.326685 
L 229.893368 145.868293 
L 229.994857 142.679749 
L 230.197833 154.017682 
L 230.299322 144.619645 
L 230.40081 145.355867 
L 230.502299 144.789951 
L 230.603787 140.649036 
L 230.806764 159.062944 
L 230.908252 143.533503 
L 231.00974 143.90921 
L 231.111229 148.709028 
L 231.212717 145.188378 
L 231.415694 157.565038 
L 231.517182 155.318417 
L 231.720159 138.599336 
L 231.821647 148.233172 
L 231.923136 141.691184 
L 232.024624 149.346539 
L 232.227601 141.785646 
L 232.532066 150.819534 
L 232.735043 139.689843 
L 232.836531 154.653828 
L 232.93802 141.444428 
L 233.039508 144.573845 
L 233.140996 151.383844 
L 233.242485 146.21563 
L 233.343973 147.224887 
L 233.445461 151.267667 
L 233.54695 149.048119 
L 233.749927 157.376552 
L 233.952903 140.437905 
L 234.054392 137.236865 
L 234.15588 152.157204 
L 234.257368 134.442673 
L 234.460345 138.37774 
L 234.561834 150.386633 
L 234.663322 149.17215 
L 234.76481 156.652661 
L 234.866299 145.076608 
L 234.967787 148.255375 
L 235.069275 145.236256 
L 235.170764 150.65219 
L 235.272252 142.458026 
L 235.373741 144.250179 
L 235.475229 152.335203 
L 235.779694 135.197862 
L 235.982671 151.227813 
L 236.185648 146.285481 
L 236.287136 146.841974 
L 236.388624 156.125991 
L 236.490113 147.918202 
L 236.591601 149.884577 
L 236.693089 147.531898 
L 236.794578 134.586198 
L 236.896066 150.640082 
L 236.997555 138.299103 
L 237.200531 142.400256 
L 237.30202 146.098842 
L 237.403508 142.558467 
L 237.606485 149.086302 
L 237.707973 150.181126 
L 237.809462 144.626821 
L 238.012438 147.418134 
L 238.113927 138.395386 
L 238.215415 149.946763 
L 238.316903 142.118306 
L 238.51988 154.770922 
L 238.621369 153.867217 
L 238.925834 142.626999 
L 239.027322 147.424125 
L 239.12881 142.75401 
L 239.331787 147.537211 
L 239.534764 139.658359 
L 239.636252 140.592625 
L 239.737741 147.783911 
L 239.839229 143.029691 
L 239.940717 157.690329 
L 240.143694 144.153341 
L 240.346671 147.324025 
L 240.448159 139.023003 
L 240.651136 146.874278 
L 240.752624 147.425482 
L 240.854113 140.494353 
L 241.05709 150.651273 
L 241.158578 146.706961 
L 241.260066 136.832618 
L 241.361555 147.75028 
L 241.463043 142.768415 
L 241.564531 147.62756 
L 241.66602 147.620146 
L 241.767508 149.164484 
L 241.868997 152.727579 
L 242.173462 137.547565 
L 242.376438 150.556207 
L 242.477927 142.063187 
L 242.579415 143.647647 
L 242.782392 134.756628 
L 242.985369 148.250784 
L 243.086857 146.981322 
L 243.188345 139.821185 
L 243.289834 148.87557 
L 243.391322 146.879418 
L 243.594299 140.295935 
L 243.695787 144.904007 
L 243.797276 161.839488 
L 243.898764 144.270957 
L 244.101741 151.420857 
L 244.304718 140.024907 
L 244.406206 152.257763 
L 244.507694 137.472929 
L 244.812159 150.544506 
L 244.913648 147.481504 
L 245.015136 148.19684 
L 245.116625 146.113897 
L 245.218113 146.453895 
L 245.319601 147.840859 
L 245.42109 147.082963 
L 245.522578 147.266118 
L 245.624066 144.661708 
L 245.725555 155.095027 
L 245.928532 136.889381 
L 246.03002 140.285635 
L 246.131508 151.257647 
L 246.334485 133.669333 
L 246.435973 147.434286 
L 246.63895 133.616318 
L 246.740439 140.515063 
L 246.841927 137.686033 
L 246.943415 152.069396 
L 247.146392 143.985006 
L 247.349369 141.823987 
L 247.450857 145.266782 
L 247.552346 153.249925 
L 247.653834 140.319493 
L 247.755322 144.056265 
L 247.856811 152.52271 
L 247.958299 141.989849 
L 248.161276 143.19643 
L 248.262764 147.674986 
L 248.364253 137.231121 
L 248.668718 154.502182 
L 248.770206 150.286968 
L 248.871694 158.997022 
L 249.074671 145.414739 
L 249.17616 152.680625 
L 249.277648 149.080781 
L 249.379136 137.672106 
L 249.480625 145.532514 
L 249.582113 137.769622 
L 249.886578 158.070895 
L 250.089555 140.133115 
L 250.191043 147.976863 
L 250.292532 147.802564 
L 250.39402 141.696084 
L 250.596997 150.368465 
L 250.698485 144.392004 
L 250.799974 149.411332 
L 250.901462 142.794039 
L 251.00295 151.118553 
L 251.104439 137.91006 
L 251.510392 151.8657 
L 251.611881 150.99313 
L 251.713369 153.901207 
L 251.814857 138.829171 
L 251.916346 144.256231 
L 252.119322 136.662192 
L 252.322299 143.671633 
L 252.423788 148.35022 
L 252.525276 142.042558 
L 252.829741 148.916368 
L 253.032718 138.084262 
L 253.235695 148.491324 
L 253.337183 142.320499 
L 253.438671 149.568569 
L 253.641648 136.673801 
L 253.743136 148.387098 
L 253.844625 145.982496 
L 253.946113 135.299778 
L 254.047602 148.144293 
L 254.14909 145.349074 
L 254.250578 151.235459 
L 254.352067 149.936359 
L 254.453555 153.611108 
L 254.555043 130.214093 
L 254.75802 146.365129 
L 254.960997 156.034781 
L 255.062485 144.801661 
L 255.163974 146.904795 
L 255.36695 142.35225 
L 255.468439 140.613023 
L 255.569927 146.345025 
L 255.671416 142.734501 
L 255.874392 150.744213 
L 255.975881 147.954114 
L 256.077369 141.935641 
L 256.178857 142.818829 
L 256.280346 146.184315 
L 256.381834 144.363033 
L 256.483323 137.377335 
L 256.584811 155.913651 
L 256.686299 152.938299 
L 256.889276 142.308608 
L 256.990764 147.285975 
L 257.092253 141.206561 
L 257.193741 162.464179 
L 257.29523 158.78417 
L 257.498206 131.616187 
L 257.701183 158.300267 
L 257.90416 142.759053 
L 258.005648 140.885109 
L 258.208625 147.397582 
L 258.411602 139.844682 
L 258.51309 149.131278 
L 258.614578 146.787644 
L 258.716067 146.855577 
L 258.817555 155.387079 
L 258.919044 152.949326 
L 259.020532 158.719795 
L 259.12202 145.657289 
L 259.324997 147.958733 
L 259.527974 143.293003 
L 259.629462 149.771912 
L 259.730951 139.735999 
L 259.832439 154.771109 
L 259.933927 146.189947 
L 260.035416 146.650356 
L 260.136904 141.495818 
L 260.238392 148.806492 
L 260.339881 140.306129 
L 260.441369 147.387048 
L 260.542858 146.669163 
L 260.644346 146.926133 
L 260.847323 141.478037 
L 261.050299 153.774481 
L 261.151788 151.449018 
L 261.253276 145.217815 
L 261.354765 146.206237 
L 261.456253 145.34964 
L 261.557741 150.057786 
L 261.65923 141.790103 
L 261.862206 154.9951 
L 262.065183 143.139942 
L 262.26816 145.407869 
L 262.369648 144.880843 
L 262.471137 151.843822 
L 262.572625 137.789141 
L 262.674113 147.890569 
L 262.775602 138.14198 
L 262.87709 149.127995 
L 262.978579 140.860903 
L 263.283044 151.21902 
L 263.384532 139.56092 
L 263.587509 146.606349 
L 263.688997 139.55246 
L 263.790486 145.634228 
L 263.891974 134.103247 
L 264.094951 147.913485 
L 264.196439 138.731586 
L 264.297927 145.784935 
L 264.399416 135.211724 
L 264.602393 146.546332 
L 264.805369 143.944032 
L 264.906858 137.693694 
L 265.109834 146.695852 
L 265.211323 148.798199 
L 265.312811 141.844786 
L 265.515788 152.469512 
L 265.617276 151.237802 
L 265.820253 146.792175 
L 265.921741 140.390707 
L 266.02323 149.253646 
L 266.124718 139.60816 
L 266.226207 155.018321 
L 266.327695 131.794049 
L 266.429183 154.73955 
L 266.530672 145.038949 
L 266.733648 150.384721 
L 266.936625 140.368734 
L 267.038114 147.051754 
L 267.139602 139.541534 
L 267.342579 151.898458 
L 267.444067 146.546213 
L 267.545555 148.983219 
L 267.647044 143.614023 
L 267.748532 148.285621 
L 267.850021 146.51901 
L 267.951509 152.015753 
L 268.052997 140.302728 
L 268.255974 151.929428 
L 268.357462 131.811056 
L 268.458951 153.796679 
L 268.560439 143.357359 
L 268.661928 157.877436 
L 268.763416 144.43862 
L 268.864904 145.093165 
L 268.966393 147.487677 
L 269.067881 153.527975 
L 269.270858 150.500214 
L 269.372346 152.498286 
L 269.473835 151.269327 
L 269.575323 138.314406 
L 269.676811 143.989138 
L 269.7783 138.881371 
L 269.879788 151.491096 
L 269.981276 148.460314 
L 270.082765 155.558351 
L 270.285742 147.698241 
L 270.38723 148.402166 
L 270.488718 136.454055 
L 270.691695 147.556833 
L 270.793183 143.618111 
L 270.894672 145.969638 
L 270.99616 152.017634 
L 271.097649 149.523512 
L 271.199137 138.51102 
L 271.300625 139.02836 
L 271.402114 144.717419 
L 271.60509 137.185439 
L 271.706579 148.516971 
L 271.909556 144.9139 
L 272.011044 150.610308 
L 272.112532 143.688948 
L 272.214021 152.332784 
L 272.315509 145.559865 
L 272.416997 147.577566 
L 272.518486 143.780732 
L 272.619974 153.480776 
L 272.721463 148.948447 
L 272.822951 135.87887 
L 272.924439 146.848773 
L 273.025928 145.745318 
L 273.127416 149.75554 
L 273.330393 144.051313 
L 273.431881 148.700916 
L 273.736346 144.508121 
L 273.837835 139.970258 
L 273.939323 149.754204 
L 274.040811 141.734439 
L 274.1423 141.741913 
L 274.243788 144.730481 
L 274.345277 140.235891 
L 274.446765 145.577214 
L 274.548253 145.529661 
L 274.75123 147.585448 
L 274.852718 147.260018 
L 274.954207 156.231174 
L 275.055695 142.852662 
L 275.258672 154.100505 
L 275.36016 140.84108 
L 275.461649 151.418798 
L 275.563137 141.443551 
L 275.664625 150.146848 
L 275.867602 135.793215 
L 275.969091 154.786511 
L 276.172067 140.914539 
L 276.273556 144.59536 
L 276.375044 144.584448 
L 276.476532 141.13853 
L 276.679509 153.090393 
L 276.780998 149.99602 
L 276.882486 138.86656 
L 277.085463 154.459782 
L 277.186951 139.827488 
L 277.288439 148.899968 
L 277.389928 148.556562 
L 277.491416 153.69284 
L 277.694393 143.028287 
L 277.998858 156.401206 
L 278.201835 132.001202 
L 278.303323 143.917851 
L 278.404812 142.808912 
L 278.5063 145.319043 
L 278.607788 144.215452 
L 278.709277 147.382427 
L 278.810765 144.516541 
L 279.013742 152.860159 
L 279.11523 145.511057 
L 279.216719 145.58214 
L 279.318207 152.49991 
L 279.622672 142.224751 
L 279.825649 147.026878 
L 279.927137 154.771036 
L 280.231602 134.16681 
L 280.333091 143.689481 
L 280.536067 141.040371 
L 280.637556 155.969599 
L 280.739044 146.793174 
L 280.840533 147.037942 
L 280.942021 148.616144 
L 281.144998 137.272896 
L 281.246486 151.141167 
L 281.449463 143.805464 
L 281.65244 157.621241 
L 281.753928 147.284833 
L 281.956905 156.653213 
L 282.159881 137.225274 
L 282.362858 143.85457 
L 282.464347 143.756075 
L 282.565835 146.537627 
L 282.667323 143.674067 
L 282.8703 150.197833 
L 282.971788 139.170435 
L 283.073277 142.045482 
L 283.174765 131.670814 
L 283.377742 153.971592 
L 283.47923 138.821925 
L 283.580719 146.68756 
L 283.783695 135.167569 
L 283.885184 153.577365 
L 283.986672 150.776731 
L 284.088161 155.255234 
L 284.189649 146.934404 
L 284.291137 150.035454 
L 284.392626 156.666387 
L 284.595602 139.147687 
L 284.697091 151.389102 
L 284.798579 139.345883 
L 285.001556 146.466655 
L 285.103044 151.86617 
L 285.204533 148.666442 
L 285.306021 134.545792 
L 285.407509 148.231663 
L 285.508998 143.019334 
L 285.711975 152.086744 
L 285.914951 137.150437 
L 286.01644 140.325689 
L 286.117928 137.368982 
L 286.320905 146.12965 
L 286.422393 143.247279 
L 286.726858 154.779862 
L 286.828347 140.579874 
L 287.132812 156.000631 
L 287.2343 136.485024 
L 287.437277 144.031572 
L 287.538765 154.090348 
L 287.640254 147.555104 
L 287.741742 151.726132 
L 287.944719 147.294678 
L 288.147696 153.692281 
L 288.249184 142.100148 
L 288.350672 144.7603 
L 288.756626 137.07443 
L 289.162579 153.12673 
L 289.264068 142.907102 
L 289.365556 147.703391 
L 289.467044 135.256653 
L 289.568533 148.8585 
L 289.77151 144.568316 
L 289.872998 154.124249 
L 289.974486 150.274818 
L 290.075975 156.915235 
L 290.177463 144.623548 
L 290.278951 145.100953 
L 290.38044 142.072655 
L 290.583417 151.875331 
L 290.786393 143.869291 
L 290.887882 152.002906 
L 291.090858 143.450734 
L 291.192347 141.65651 
L 291.293835 148.058933 
L 291.395324 145.642069 
L 291.496812 139.437614 
L 291.5983 149.920779 
L 291.699789 146.323642 
L 291.801277 135.21099 
L 291.902765 144.462952 
L 292.004254 140.988114 
L 292.105742 144.48235 
L 292.207231 140.642058 
L 292.511696 147.421936 
L 292.613184 147.357439 
L 292.714672 142.540012 
L 292.917649 146.206739 
L 293.120626 144.623573 
L 293.222114 137.617936 
L 293.323603 151.152637 
L 293.425091 140.252636 
L 293.526579 148.432684 
L 293.628068 147.937092 
L 293.729556 146.921868 
L 293.831045 153.479272 
L 294.034021 146.854351 
L 294.13551 149.359796 
L 294.236998 139.064814 
L 294.338486 150.595815 
L 294.439975 147.024935 
L 294.541463 149.399274 
L 294.642952 139.313725 
L 294.74444 153.415573 
L 294.947417 139.609566 
L 295.048905 138.463472 
L 295.150393 145.154191 
L 295.251882 136.720538 
L 295.35337 151.289102 
L 295.657835 144.717223 
L 295.759324 157.607084 
L 295.9623 139.422533 
L 296.063789 147.682332 
L 296.165277 139.276191 
L 296.266766 142.996811 
L 296.368254 151.426041 
L 296.571231 148.873386 
L 296.774207 141.002718 
L 296.875696 142.46272 
L 296.977184 149.487568 
L 297.078673 145.502299 
L 297.180161 149.449126 
L 297.281649 137.514527 
L 297.383138 148.205555 
L 297.484626 146.482 
L 297.586114 147.656367 
L 297.687603 152.63633 
L 297.89058 141.648048 
L 298.093556 155.090753 
L 298.195045 147.249839 
L 298.296533 149.980458 
L 298.49951 140.868055 
L 298.600998 149.922083 
L 298.803975 145.863729 
L 298.905463 153.876594 
L 299.006952 144.197202 
L 299.311417 153.431373 
L 299.514394 141.655501 
L 299.615882 143.4467 
L 299.71737 152.519588 
L 300.123324 137.920352 
L 300.224812 144.941955 
L 300.326301 140.265525 
L 300.427789 153.722649 
L 300.630766 137.459324 
L 300.732254 146.341032 
L 300.833742 138.636132 
L 300.935231 138.746686 
L 301.036719 142.716482 
L 301.138208 137.007722 
L 301.239696 147.693256 
L 301.341184 147.360569 
L 301.442673 137.827772 
L 301.645649 152.872395 
L 301.747138 145.96844 
L 301.848626 129.9166 
L 301.950115 158.992566 
L 302.051603 138.928303 
L 302.153091 148.880909 
L 302.356068 141.629872 
L 302.559045 154.585713 
L 302.762022 146.647599 
L 302.86351 155.261826 
L 302.964998 142.548323 
L 303.066487 142.896379 
L 303.269463 144.893821 
L 303.370952 153.28517 
L 303.675417 141.910909 
L 303.776905 145.403733 
L 303.878394 137.053072 
L 304.08137 145.819154 
L 304.182859 143.656507 
L 304.284347 137.337717 
L 304.385836 152.241257 
L 304.588812 148.01667 
L 304.791789 151.315719 
L 304.893277 142.865352 
L 304.994766 148.598776 
L 305.096254 142.793832 
L 305.299231 152.976086 
L 305.502208 136.339582 
L 305.603696 144.894396 
L 305.705184 143.272258 
L 305.806673 136.674684 
L 305.908161 143.35071 
L 306.00965 139.782599 
L 306.111138 142.239228 
L 306.212626 138.940356 
L 306.415603 144.490754 
L 306.517091 142.807005 
L 306.61858 153.451884 
L 306.720068 150.863098 
L 306.923045 138.393071 
L 307.126022 151.290777 
L 307.22751 139.577504 
L 307.430487 152.47729 
L 307.633464 141.26418 
L 307.734952 141.35319 
L 307.937929 148.940319 
L 308.039417 153.219904 
L 308.140905 137.855211 
L 308.242394 144.958635 
L 308.343882 137.600268 
L 308.445371 147.52316 
L 308.546859 136.812096 
L 308.648347 156.013707 
L 308.749836 145.226994 
L 308.851324 150.535854 
L 308.952812 149.406457 
L 309.054301 153.332169 
L 309.155789 149.617467 
L 309.257278 135.73906 
L 309.358766 149.179182 
L 309.460254 140.231429 
L 309.561743 156.726337 
L 309.663231 132.845299 
L 309.764719 146.209712 
L 309.967696 139.376966 
L 310.069185 149.232575 
L 310.170673 143.806051 
L 310.475138 154.473261 
L 310.678115 142.056875 
L 310.779603 141.064718 
L 310.881092 144.868634 
L 310.98258 143.86304 
L 311.084068 144.432091 
L 311.287045 154.470446 
L 311.388533 149.172167 
L 311.490022 154.810692 
L 311.692999 132.572031 
L 311.895975 147.644559 
L 311.997464 146.024933 
L 312.098952 139.843043 
L 312.20044 149.382324 
L 312.301929 145.393103 
L 312.403417 157.911731 
L 312.707882 142.657004 
L 312.809371 150.288691 
L 312.910859 142.753696 
L 313.012347 145.120086 
L 313.113836 136.008316 
L 313.316813 157.092228 
L 313.418301 159.365807 
L 313.621278 139.858091 
L 313.722766 145.108332 
L 313.824254 142.536356 
L 313.925743 146.385028 
L 314.027231 144.82525 
L 314.12872 154.332701 
L 314.230208 135.611385 
L 314.534673 156.789961 
L 314.636161 143.217991 
L 314.839138 147.655135 
L 314.940627 138.321918 
L 315.143603 150.735515 
L 315.245092 142.177659 
L 315.34658 142.822087 
L 315.448068 153.129595 
L 315.651045 135.456223 
L 315.854022 149.41873 
L 315.95551 150.069037 
L 316.158487 141.286317 
L 316.259975 152.156904 
L 316.462952 139.181864 
L 316.564441 144.514308 
L 316.665929 157.997104 
L 316.767417 141.808386 
L 316.868906 154.949475 
L 317.071882 140.602183 
L 317.173371 140.906931 
L 317.274859 160.332906 
L 317.477836 142.079528 
L 317.680813 154.405117 
L 317.883789 146.145059 
L 317.985278 155.422643 
L 318.086766 136.844183 
L 318.391231 150.113687 
L 318.49272 147.817036 
L 318.695696 151.504053 
L 318.898673 140.118083 
L 319.10165 148.356816 
L 319.304627 141.866531 
L 319.507603 153.623392 
L 319.609092 140.976141 
L 319.71058 153.517903 
L 319.812069 143.207557 
L 320.015045 150.988618 
L 320.116534 138.575032 
L 320.420999 143.723905 
L 320.522487 143.531095 
L 320.623976 151.462476 
L 320.725464 149.170748 
L 320.826952 155.036244 
L 321.029929 138.325392 
L 321.131417 148.201605 
L 321.232906 144.82474 
L 321.334394 149.011807 
L 321.435883 148.677084 
L 321.537371 147.96445 
L 321.638859 154.069736 
L 321.740348 139.92633 
L 321.841836 146.143065 
L 321.943324 140.834199 
L 322.349278 154.741949 
L 322.450766 141.828447 
L 322.755231 154.305466 
L 322.85672 149.249114 
L 322.958208 152.13497 
L 323.059697 145.380354 
L 323.161185 151.838649 
L 323.262673 134.959483 
L 323.567138 154.194928 
L 323.668627 146.722741 
L 323.770115 156.768219 
L 323.871604 140.349778 
L 323.973092 141.814254 
L 324.07458 138.240917 
L 324.176069 149.141724 
L 324.379045 138.592103 
L 324.582022 150.104914 
L 324.683511 138.787407 
L 324.784999 145.32494 
L 324.886487 143.803831 
L 324.987976 146.594334 
L 325.089464 152.902452 
L 325.190952 140.11116 
L 325.292441 157.147492 
L 325.393929 140.690753 
L 325.495418 147.63369 
L 325.596906 147.13572 
L 325.698394 149.010642 
L 325.799883 143.251791 
L 325.901371 143.893812 
L 326.002859 137.355644 
L 326.104348 147.116367 
L 326.205836 147.105434 
L 326.307325 148.038981 
L 326.408813 145.550781 
L 326.510301 148.556408 
L 326.713278 138.666255 
L 326.814766 156.565841 
L 327.119232 142.519204 
L 327.22072 150.964871 
L 327.423697 138.6612 
L 327.525185 141.925217 
L 327.728162 152.638431 
L 327.82965 160.619331 
L 327.931139 143.452044 
L 328.032627 152.938142 
L 328.235604 144.861185 
L 328.337092 153.235684 
L 328.43858 140.987467 
L 328.540069 151.747265 
L 328.641557 149.345582 
L 328.743046 152.542601 
L 328.844534 145.84917 
L 328.946022 149.728753 
L 329.047511 133.77571 
L 329.148999 149.614327 
L 329.250487 145.102622 
L 329.351976 147.639541 
L 329.453464 141.295874 
L 329.656441 154.061939 
L 329.859418 143.724046 
L 329.960906 153.06913 
L 330.163883 149.67963 
L 330.265371 144.71786 
L 330.36686 148.055365 
L 330.468348 158.358964 
L 330.671325 139.945042 
L 330.772813 142.676495 
L 330.874301 142.56135 
L 330.97579 146.420538 
L 331.077278 134.303344 
L 331.280255 147.373202 
L 331.381743 148.683424 
L 331.483232 148.283017 
L 331.58472 141.863273 
L 331.686208 157.444374 
L 331.787697 152.558596 
L 331.889185 138.501123 
L 332.092162 152.245284 
L 332.19365 147.024912 
L 332.295139 150.183501 
L 332.396627 144.523705 
L 332.498115 152.61901 
L 332.599604 137.966636 
L 332.701092 153.241967 
L 332.904069 145.812308 
L 333.005557 144.776363 
L 333.107046 146.445207 
L 333.208534 146.147167 
L 333.310022 146.496283 
L 333.411511 139.018054 
L 333.512999 146.797418 
L 333.614487 140.877875 
L 333.715976 150.096342 
L 333.817464 146.128899 
L 333.918953 146.823356 
L 334.020441 140.67719 
L 334.223418 149.875954 
L 334.426394 146.231012 
L 334.527883 157.544128 
L 334.73086 140.080855 
L 334.832348 147.499613 
L 334.933836 147.429227 
L 335.238301 136.661049 
L 335.441278 148.509137 
L 335.745743 140.888118 
L 335.847232 151.022413 
L 336.050208 136.509623 
L 336.151697 147.058466 
L 336.253185 146.054267 
L 336.456162 151.888097 
L 336.659139 141.83168 
L 336.760627 147.739716 
L 336.862115 140.10543 
L 336.963604 141.180935 
L 337.065092 148.106125 
L 337.166581 142.14696 
L 337.268069 146.818847 
L 337.369557 145.610474 
L 337.572534 132.859064 
L 337.674022 153.705577 
L 337.876999 139.808576 
L 338.079976 148.449764 
L 338.181464 137.050192 
L 338.282953 146.446457 
L 338.384441 141.835998 
L 338.587418 154.588504 
L 338.790395 142.398798 
L 338.993371 150.452923 
L 339.09486 134.896544 
L 339.297836 151.526527 
L 339.399325 139.051601 
L 339.500813 141.133097 
L 339.602302 149.159553 
L 339.805278 141.818336 
L 340.008255 145.409862 
L 340.109743 155.727022 
L 340.31272 146.403393 
L 340.414209 149.28691 
L 340.515697 148.052303 
L 340.617185 142.302357 
L 340.820162 155.336141 
L 341.023139 149.027183 
L 341.124627 146.995791 
L 341.226116 152.784419 
L 341.327604 147.804379 
L 341.429092 150.882363 
L 341.530581 141.878132 
L 341.632069 147.167827 
L 341.733557 143.139167 
L 341.835046 144.611 
L 341.936534 153.098676 
L 342.139511 137.038259 
L 342.240999 154.872333 
L 342.342488 140.963255 
L 342.545464 154.32772 
L 342.748441 140.660972 
L 342.84993 146.447296 
L 342.951418 144.446 
L 343.052906 136.209224 
L 343.154395 149.406801 
L 343.255883 136.178659 
L 343.357371 137.190989 
L 343.45886 153.320044 
L 343.560348 145.444181 
L 343.661837 145.751906 
L 343.763325 139.084771 
L 343.864813 139.760637 
L 343.966302 137.906523 
L 344.06779 154.918392 
L 344.169278 138.629532 
L 344.270767 143.028556 
L 344.372255 156.110776 
L 344.473744 138.977833 
L 344.575232 152.133903 
L 344.67672 141.913946 
L 344.778209 149.301691 
L 344.981185 143.704319 
L 345.184162 154.009761 
L 345.285651 144.453406 
L 345.387139 152.380849 
L 345.488627 143.156633 
L 345.590116 152.923089 
L 345.894581 135.169183 
L 345.996069 156.64853 
L 346.097558 144.397103 
L 346.199046 152.966938 
L 346.300534 143.51401 
L 346.402023 146.725929 
L 346.604999 138.417365 
L 346.706488 147.950204 
L 346.807976 146.18843 
L 346.909465 141.200833 
L 347.010953 148.992161 
L 347.21393 141.555713 
L 347.416906 154.405501 
L 347.619883 141.349866 
L 347.721372 154.29675 
L 347.82286 143.446164 
L 347.924348 148.102025 
L 348.025837 147.048587 
L 348.127325 140.507651 
L 348.330302 150.763991 
L 348.43179 146.182368 
L 348.634767 147.64408 
L 348.736255 139.704883 
L 348.939232 150.427109 
L 349.142209 142.642621 
L 349.345186 152.810465 
L 349.548162 132.937501 
L 349.751139 155.151578 
L 350.055604 143.170378 
L 350.157093 149.897431 
L 350.258581 134.351306 
L 350.461558 144.307498 
L 350.563046 139.282987 
L 350.664534 144.780565 
L 350.766023 156.799996 
L 350.867511 148.258745 
L 350.969 149.590912 
L 351.171976 145.49589 
L 351.273465 142.351282 
L 351.374953 150.321928 
L 351.476441 150.275517 
L 351.679418 142.986406 
L 351.780907 143.120329 
L 351.882395 142.852555 
L 351.983883 140.084191 
L 352.085372 148.078066 
L 352.18686 140.026731 
L 352.389837 145.257426 
L 352.491325 136.323098 
L 352.694302 150.28117 
L 352.79579 138.15119 
L 352.897279 146.359605 
L 352.998767 140.107347 
L 353.100255 143.949626 
L 353.201744 155.641899 
L 353.404721 142.720374 
L 353.506209 146.510112 
L 353.810674 138.116501 
L 353.912162 141.810595 
L 354.013651 150.70785 
L 354.115139 145.440901 
L 354.216628 149.996531 
L 354.622581 144.909613 
L 354.724069 134.787706 
L 354.825558 144.770258 
L 354.927046 136.424742 
L 355.028535 146.189076 
L 355.130023 141.941057 
L 355.231511 148.048203 
L 355.333 145.918901 
L 355.434488 150.011424 
L 355.535976 142.350002 
L 355.637465 150.351122 
L 355.94193 143.751176 
L 356.043418 143.262374 
L 356.347883 158.400978 
L 356.55086 149.685654 
L 356.652349 149.882846 
L 356.753837 150.69098 
L 356.855325 143.611818 
L 356.956814 147.610118 
L 357.058302 146.861314 
L 357.15979 150.389992 
L 357.261279 137.245397 
L 357.464256 158.896617 
L 357.565744 150.340792 
L 357.768721 153.732658 
L 357.971697 133.168903 
L 358.073186 152.687797 
L 358.174674 148.392713 
L 358.276163 150.384757 
L 358.377651 157.882252 
L 358.479139 139.893807 
L 358.580628 151.282678 
L 358.783604 138.943004 
L 359.08807 161.11328 
L 359.291046 134.464198 
L 359.392535 148.566717 
L 359.494023 143.587426 
L 359.697 149.413965 
L 359.798488 137.763016 
L 360.001465 146.04202 
L 360.102953 145.417105 
L 360.204442 145.442854 
L 360.30593 154.882314 
L 360.508907 136.772401 
L 360.711884 149.171794 
L 360.91486 139.264718 
L 361.016349 144.307611 
L 361.117837 132.547524 
L 361.320814 144.788903 
L 361.523791 155.200451 
L 361.625279 140.519652 
L 361.828256 150.273105 
L 361.929744 143.049838 
L 362.031232 149.45307 
L 362.132721 142.279909 
L 362.335698 149.514688 
L 362.437186 144.715458 
L 362.538674 154.142003 
L 362.640163 143.725919 
L 362.741651 148.906649 
L 362.843139 146.316374 
L 362.944628 139.407375 
L 363.147605 149.67427 
L 363.249093 140.753521 
L 363.350581 146.3634 
L 363.45207 139.574708 
L 363.553558 150.170258 
L 363.655046 147.734839 
L 363.858023 153.301192 
L 363.959512 145.227742 
L 364.162488 150.147699 
L 364.263977 145.375243 
L 364.365465 151.874917 
L 364.466953 146.555924 
L 364.568442 148.967194 
L 364.66993 136.122937 
L 364.872907 153.504132 
L 365.075884 145.274602 
L 365.177372 150.887804 
L 365.27886 149.130138 
L 365.380349 153.051483 
L 365.481837 150.72154 
L 365.684814 141.295193 
L 365.786302 143.957654 
L 365.887791 140.881101 
L 365.989279 146.549145 
L 366.090767 142.610385 
L 366.293744 146.231444 
L 366.395233 159.369439 
L 366.598209 141.101828 
L 366.699698 150.494389 
L 366.801186 136.234957 
L 366.902674 141.622464 
L 367.105651 136.529618 
L 367.20714 157.535044 
L 367.308628 140.9118 
L 367.410116 144.7683 
L 367.511605 139.68729 
L 367.613093 140.796519 
L 367.81607 151.467199 
L 367.917558 151.520147 
L 368.019047 145.195391 
L 368.222023 151.303668 
L 368.323512 149.445879 
L 368.425 144.341028 
L 368.526488 150.473082 
L 368.627977 140.415852 
L 368.729465 150.364411 
L 368.830954 138.68211 
L 368.932442 151.668222 
L 369.135419 145.558277 
L 369.236907 151.353931 
L 369.338395 150.109213 
L 369.439884 144.773691 
L 369.642861 149.199403 
L 369.744349 148.381323 
L 369.845837 145.122037 
L 369.947326 150.678823 
L 370.048814 137.073393 
L 370.150302 156.355247 
L 370.251791 145.903363 
L 370.454768 148.05192 
L 370.556256 153.733608 
L 370.657744 142.746024 
L 370.759233 155.202371 
L 370.860721 143.278092 
L 371.165186 153.065055 
L 371.266675 150.036847 
L 371.368163 158.897477 
L 371.469651 142.760799 
L 371.57114 145.365069 
L 371.672628 143.329574 
L 371.774116 152.645038 
L 372.18007 140.132718 
L 372.383047 144.282497 
L 372.484535 145.360491 
L 372.586023 138.47304 
L 372.789 149.621528 
L 372.890489 146.044266 
L 372.991977 146.31947 
L 373.093465 147.440036 
L 373.194954 141.335308 
L 373.39793 148.85688 
L 373.499419 134.386485 
L 373.600907 149.210387 
L 373.702396 142.91402 
L 373.803884 150.746733 
L 374.006861 148.025191 
L 374.108349 136.009107 
L 374.209837 145.533403 
L 374.311326 145.093122 
L 374.412814 153.936944 
L 374.514303 144.877169 
L 374.615791 151.715764 
L 374.717279 149.791553 
L 374.818768 143.70219 
L 374.920256 148.676971 
L 375.021744 137.888691 
L 375.123233 139.092052 
L 375.32621 145.721994 
L 375.427698 147.099473 
L 375.630675 143.560589 
L 375.833651 152.444457 
L 375.93514 144.720169 
L 376.036628 145.154277 
L 376.138117 149.780278 
L 376.239605 146.411482 
L 376.341093 150.555654 
L 376.442582 142.839674 
L 376.54407 145.261388 
L 376.645558 145.110982 
L 376.747047 142.176695 
L 376.848535 134.202027 
L 376.950024 145.900869 
L 377.153 140.210968 
L 377.254489 146.623174 
L 377.457465 139.295718 
L 377.558954 146.048251 
L 377.660442 130.667903 
L 377.761931 155.613801 
L 377.863419 150.316205 
L 377.964907 152.448012 
L 378.066396 139.870402 
L 378.269372 150.186379 
L 378.370861 141.773682 
L 378.472349 147.700888 
L 378.573838 131.818761 
L 378.675326 148.856009 
L 378.776814 140.195471 
L 378.878303 151.589976 
L 378.979791 143.185754 
L 379.284256 157.25968 
L 379.487233 140.778301 
L 379.69021 153.813989 
L 379.791698 138.447611 
L 379.893186 143.806783 
L 379.994675 141.863561 
L 380.096163 143.685243 
L 380.197652 132.325084 
L 380.400628 150.467895 
L 380.502117 140.245851 
L 380.603605 157.981817 
L 380.705093 144.548496 
L 380.806582 148.174561 
L 380.90807 139.141464 
L 381.111047 150.221249 
L 381.212535 145.359266 
L 381.314024 153.226968 
L 381.415512 136.073207 
L 381.517 147.365486 
L 381.618489 142.370639 
L 381.719977 149.536173 
L 381.821466 143.725986 
L 381.922954 146.570454 
L 382.024442 135.642999 
L 382.125931 154.116137 
L 382.227419 148.362456 
L 382.328907 148.882494 
L 382.430396 152.807738 
L 382.633373 141.475379 
L 382.734861 150.071808 
L 382.937838 143.645569 
L 383.039326 143.126981 
L 383.242303 159.229348 
L 383.44528 134.866082 
L 383.648256 151.835097 
L 383.749745 145.008457 
L 383.851233 146.076985 
L 383.952721 149.850556 
L 384.05421 146.200454 
L 384.155698 147.011303 
L 384.358675 143.714235 
L 384.460163 152.002722 
L 384.561652 142.333889 
L 384.764628 149.586238 
L 384.866117 140.434882 
L 385.069094 148.072523 
L 385.170582 147.54507 
L 385.27207 143.241387 
L 385.373559 145.121409 
L 385.475047 142.436493 
L 385.576535 156.043765 
L 385.678024 139.971003 
L 385.779512 146.573621 
L 385.982489 138.519698 
L 386.083977 138.669259 
L 386.185466 153.579783 
L 386.286954 140.597559 
L 386.388442 144.676735 
L 386.489931 140.508393 
L 386.591419 154.696251 
L 386.692908 151.501539 
L 386.794396 144.720187 
L 386.895884 151.006127 
L 386.997373 148.218261 
L 387.200349 133.993612 
L 387.301838 147.146516 
L 387.403326 140.938141 
L 387.504815 145.190492 
L 387.606303 141.006536 
L 387.707791 143.222918 
L 387.80928 152.849729 
L 387.910768 139.106397 
L 388.113745 153.186887 
L 388.215233 139.602405 
L 388.316722 147.94578 
L 388.41821 141.538924 
L 388.519698 143.161978 
L 388.722675 154.818543 
L 388.824163 136.562864 
L 388.925652 142.345366 
L 389.02714 138.149399 
L 389.128629 147.092808 
L 389.331605 136.806222 
L 389.534582 147.576079 
L 389.63607 145.609995 
L 389.737559 146.319936 
L 389.839047 160.575629 
L 390.042024 144.590194 
L 390.143512 144.519302 
L 390.245001 144.720158 
L 390.346489 147.7543 
L 390.447977 157.168699 
L 390.650954 144.95393 
L 390.752443 151.049114 
L 390.853931 144.198515 
L 390.955419 144.722188 
L 391.056908 149.055411 
L 391.158396 146.788039 
L 391.259884 141.565685 
L 391.361373 144.522528 
L 391.462861 151.178662 
L 391.56435 137.596664 
L 391.665838 139.80156 
L 391.767326 150.555664 
L 391.868815 150.019938 
L 391.970303 149.558782 
L 392.17328 142.429661 
L 392.274768 142.913775 
L 392.376257 142.243365 
L 392.477745 153.100442 
L 392.579233 149.164967 
L 392.680722 156.506211 
L 392.883698 140.59431 
L 392.985187 140.161626 
L 393.086675 148.290607 
L 393.39114 137.87114 
L 393.492629 156.51193 
L 393.594117 142.079953 
L 393.797094 148.023687 
L 393.898582 142.68902 
L 394.000071 143.772385 
L 394.101559 150.734748 
L 394.203047 143.277408 
L 394.304536 143.916311 
L 394.406024 137.14496 
L 394.507512 144.760986 
L 394.609001 141.853064 
L 394.710489 154.174185 
L 394.811978 148.58666 
L 394.913466 151.401031 
L 395.116443 136.834033 
L 395.217931 155.495124 
L 395.420908 146.362431 
L 395.522396 148.865381 
L 395.623885 138.57515 
L 395.826861 140.612196 
L 395.92835 147.766882 
L 396.029838 146.688752 
L 396.131326 143.268545 
L 396.232815 145.338542 
L 396.334303 150.566464 
L 396.435792 142.061414 
L 396.53728 157.587705 
L 396.740257 136.704486 
L 396.841745 144.162569 
L 396.943233 141.350645 
L 397.14621 151.75507 
L 397.247699 138.779701 
L 397.349187 150.898401 
L 397.450675 134.075991 
L 397.552164 148.037574 
L 397.653652 145.770653 
L 397.75514 146.080705 
L 397.856629 143.885644 
L 397.958117 149.255995 
L 398.059606 147.900037 
L 398.161094 139.525343 
L 398.262582 153.896918 
L 398.364071 149.825223 
L 398.465559 150.934561 
L 398.668536 145.749743 
L 398.770024 147.243692 
L 398.973001 140.932635 
L 399.074489 141.778562 
L 399.175978 147.040635 
L 399.277466 144.872654 
L 399.378954 150.845628 
L 399.480443 138.928166 
L 399.581931 145.129086 
L 399.68342 159.376379 
L 399.784908 148.004283 
L 399.886396 151.046123 
L 399.987885 140.744163 
L 400.190861 149.799691 
L 400.29235 148.863475 
L 400.393838 155.66148 
L 400.495327 154.070387 
L 400.596815 143.222082 
L 400.698303 150.464701 
L 400.799792 139.764704 
L 400.90128 151.795107 
L 401.002768 145.770179 
L 401.205745 152.354363 
L 401.307234 145.338509 
L 401.408722 149.63976 
L 401.611699 143.746077 
L 401.713187 150.942116 
L 401.814675 132.713855 
L 401.916164 149.304278 
L 402.017652 141.834989 
L 402.119141 146.535511 
L 402.322117 145.169166 
L 402.423606 150.002188 
L 402.626582 145.985412 
L 402.728071 145.205635 
L 402.829559 148.192462 
L 402.931048 146.293041 
L 403.032536 153.082795 
L 403.134024 147.690698 
L 403.235513 149.348512 
L 403.438489 144.077518 
L 403.539978 146.049875 
L 403.641466 136.529457 
L 403.742955 153.460044 
L 403.844443 139.656965 
L 404.04742 146.110673 
L 404.148908 156.397178 
L 404.250396 143.649684 
L 404.351885 148.13977 
L 404.453373 144.858617 
L 404.554862 153.800587 
L 404.859327 138.634712 
L 405.062303 156.485365 
L 405.26528 137.98755 
L 405.468257 150.171626 
L 405.569745 144.362945 
L 405.671234 153.771098 
L 405.772722 145.321858 
L 405.975699 147.516883 
L 406.077187 147.245157 
L 406.178676 149.783604 
L 406.280164 148.921663 
L 406.381652 150.153417 
L 406.483141 144.669201 
L 406.584629 145.737628 
L 406.686117 148.757865 
L 406.990583 136.535653 
L 407.295048 151.825753 
L 407.396536 144.728665 
L 407.498024 152.568785 
L 407.599513 142.531484 
L 407.701001 147.820713 
L 407.80249 139.496349 
L 407.903978 152.027213 
L 408.106955 144.995228 
L 408.208443 149.521551 
L 408.41142 130.754862 
L 408.715885 152.041683 
L 408.918862 147.003247 
L 409.02035 148.618165 
L 409.121838 153.368141 
L 409.223327 143.313752 
L 409.324815 148.779093 
L 409.426304 144.467099 
L 409.527792 132.781262 
L 409.62928 156.300826 
L 409.832257 145.804664 
L 410.035234 146.471042 
L 410.136722 144.844617 
L 410.238211 152.30844 
L 410.339699 146.172284 
L 410.542676 152.036756 
L 410.644164 147.997711 
L 410.847141 160.243491 
L 410.948629 145.038217 
L 411.050118 148.747754 
L 411.354583 138.725941 
L 411.659048 146.17671 
L 411.760536 138.805632 
L 411.862025 150.635743 
L 411.963513 148.333485 
L 412.065001 153.35 
L 412.16649 144.199024 
L 412.267978 149.039691 
L 412.369466 143.976986 
L 412.470955 144.558237 
L 412.572443 135.012523 
L 412.572443 135.012523 
" style="fill:none;stroke:#1f77b4;stroke-linecap:square;stroke-width:1.5;"/>
   </g>
   <g id="matplotlib.axis_1">
    <g id="xtick_1">
     <g id="line2d_2">
      <defs>
       <path d="M 0 0 
L 0 3.5 
" id="m8378757a6f" style="stroke:#000000;stroke-width:0.8;"/>
      </defs>
      <g>
       <use style="stroke:#000000;stroke-width:0.8;" x="108.208807" xlink:href="#m8378757a6f" y="254.83575"/>
      </g>
     </g>
     <g id="text_1">
      <!-- 0 -->
      <g transform="translate(99.937557 281.591688)scale(0.26 -0.26)">
       <defs>
        <path d="M 31.78125 66.40625 
Q 24.171875 66.40625 20.328125 58.90625 
Q 16.5 51.421875 16.5 36.375 
Q 16.5 21.390625 20.328125 13.890625 
Q 24.171875 6.390625 31.78125 6.390625 
Q 39.453125 6.390625 43.28125 13.890625 
Q 47.125 21.390625 47.125 36.375 
Q 47.125 51.421875 43.28125 58.90625 
Q 39.453125 66.40625 31.78125 66.40625 
z
M 31.78125 74.21875 
Q 44.046875 74.21875 50.515625 64.515625 
Q 56.984375 54.828125 56.984375 36.375 
Q 56.984375 17.96875 50.515625 8.265625 
Q 44.046875 -1.421875 31.78125 -1.421875 
Q 19.53125 -1.421875 13.0625 8.265625 
Q 6.59375 17.96875 6.59375 36.375 
Q 6.59375 54.828125 13.0625 64.515625 
Q 19.53125 74.21875 31.78125 74.21875 
z
" id="DejaVuSans-48"/>
       </defs>
       <use xlink:href="#DejaVuSans-48"/>
      </g>
     </g>
    </g>
    <g id="xtick_2">
     <g id="line2d_3">
      <g>
       <use style="stroke:#000000;stroke-width:0.8;" x="209.697182" xlink:href="#m8378757a6f" y="254.83575"/>
      </g>
     </g>
     <g id="text_2">
      <!-- 1 -->
      <g transform="translate(201.425932 281.591688)scale(0.26 -0.26)">
       <defs>
        <path d="M 12.40625 8.296875 
L 28.515625 8.296875 
L 28.515625 63.921875 
L 10.984375 60.40625 
L 10.984375 69.390625 
L 28.421875 72.90625 
L 38.28125 72.90625 
L 38.28125 8.296875 
L 54.390625 8.296875 
L 54.390625 0 
L 12.40625 0 
z
" id="DejaVuSans-49"/>
       </defs>
       <use xlink:href="#DejaVuSans-49"/>
      </g>
     </g>
    </g>
    <g id="xtick_3">
     <g id="line2d_4">
      <g>
       <use style="stroke:#000000;stroke-width:0.8;" x="311.185557" xlink:href="#m8378757a6f" y="254.83575"/>
      </g>
     </g>
     <g id="text_3">
      <!-- 2 -->
      <g transform="translate(302.914307 281.591688)scale(0.26 -0.26)">
       <defs>
        <path d="M 19.1875 8.296875 
L 53.609375 8.296875 
L 53.609375 0 
L 7.328125 0 
L 7.328125 8.296875 
Q 12.9375 14.109375 22.625 23.890625 
Q 32.328125 33.6875 34.8125 36.53125 
Q 39.546875 41.84375 41.421875 45.53125 
Q 43.3125 49.21875 43.3125 52.78125 
Q 43.3125 58.59375 39.234375 62.25 
Q 35.15625 65.921875 28.609375 65.921875 
Q 23.96875 65.921875 18.8125 64.3125 
Q 13.671875 62.703125 7.8125 59.421875 
L 7.8125 69.390625 
Q 13.765625 71.78125 18.9375 73 
Q 24.125 74.21875 28.421875 74.21875 
Q 39.75 74.21875 46.484375 68.546875 
Q 53.21875 62.890625 53.21875 53.421875 
Q 53.21875 48.921875 51.53125 44.890625 
Q 49.859375 40.875 45.40625 35.40625 
Q 44.1875 33.984375 37.640625 27.21875 
Q 31.109375 20.453125 19.1875 8.296875 
z
" id="DejaVuSans-50"/>
       </defs>
       <use xlink:href="#DejaVuSans-50"/>
      </g>
     </g>
    </g>
    <g id="xtick_4">
     <g id="line2d_5">
      <g>
       <use style="stroke:#000000;stroke-width:0.8;" x="412.673932" xlink:href="#m8378757a6f" y="254.83575"/>
      </g>
     </g>
     <g id="text_4">
      <!-- 3 -->
      <g transform="translate(404.402682 281.591688)scale(0.26 -0.26)">
       <defs>
        <path d="M 40.578125 39.3125 
Q 47.65625 37.796875 51.625 33 
Q 55.609375 28.21875 55.609375 21.1875 
Q 55.609375 10.40625 48.1875 4.484375 
Q 40.765625 -1.421875 27.09375 -1.421875 
Q 22.515625 -1.421875 17.65625 -0.515625 
Q 12.796875 0.390625 7.625 2.203125 
L 7.625 11.71875 
Q 11.71875 9.328125 16.59375 8.109375 
Q 21.484375 6.890625 26.8125 6.890625 
Q 36.078125 6.890625 40.9375 10.546875 
Q 45.796875 14.203125 45.796875 21.1875 
Q 45.796875 27.640625 41.28125 31.265625 
Q 36.765625 34.90625 28.71875 34.90625 
L 20.21875 34.90625 
L 20.21875 43.015625 
L 29.109375 43.015625 
Q 36.375 43.015625 40.234375 45.921875 
Q 44.09375 48.828125 44.09375 54.296875 
Q 44.09375 59.90625 40.109375 62.90625 
Q 36.140625 65.921875 28.71875 65.921875 
Q 24.65625 65.921875 20.015625 65.03125 
Q 15.375 64.15625 9.8125 62.3125 
L 9.8125 71.09375 
Q 15.4375 72.65625 20.34375 73.4375 
Q 25.25 74.21875 29.59375 74.21875 
Q 40.828125 74.21875 47.359375 69.109375 
Q 53.90625 64.015625 53.90625 55.328125 
Q 53.90625 49.265625 50.4375 45.09375 
Q 46.96875 40.921875 40.578125 39.3125 
z
" id="DejaVuSans-51"/>
       </defs>
       <use xlink:href="#DejaVuSans-51"/>
      </g>
     </g>
    </g>
    <g id="text_5">
     <!-- time (s) -->
     <g transform="translate(209.972969 310.754813)scale(0.26 -0.26)">
      <defs>
       <path d="M 18.3125 70.21875 
L 18.3125 54.6875 
L 36.8125 54.6875 
L 36.8125 47.703125 
L 18.3125 47.703125 
L 18.3125 18.015625 
Q 18.3125 11.328125 20.140625 9.421875 
Q 21.96875 7.515625 27.59375 7.515625 
L 36.8125 7.515625 
L 36.8125 0 
L 27.59375 0 
Q 17.1875 0 13.234375 3.875 
Q 9.28125 7.765625 9.28125 18.015625 
L 9.28125 47.703125 
L 2.6875 47.703125 
L 2.6875 54.6875 
L 9.28125 54.6875 
L 9.28125 70.21875 
z
" id="DejaVuSans-116"/>
       <path d="M 9.421875 54.6875 
L 18.40625 54.6875 
L 18.40625 0 
L 9.421875 0 
z
M 9.421875 75.984375 
L 18.40625 75.984375 
L 18.40625 64.59375 
L 9.421875 64.59375 
z
" id="DejaVuSans-105"/>
       <path d="M 52 44.1875 
Q 55.375 50.25 60.0625 53.125 
Q 64.75 56 71.09375 56 
Q 79.640625 56 84.28125 50.015625 
Q 88.921875 44.046875 88.921875 33.015625 
L 88.921875 0 
L 79.890625 0 
L 79.890625 32.71875 
Q 79.890625 40.578125 77.09375 44.375 
Q 74.3125 48.1875 68.609375 48.1875 
Q 61.625 48.1875 57.5625 43.546875 
Q 53.515625 38.921875 53.515625 30.90625 
L 53.515625 0 
L 44.484375 0 
L 44.484375 32.71875 
Q 44.484375 40.625 41.703125 44.40625 
Q 38.921875 48.1875 33.109375 48.1875 
Q 26.21875 48.1875 22.15625 43.53125 
Q 18.109375 38.875 18.109375 30.90625 
L 18.109375 0 
L 9.078125 0 
L 9.078125 54.6875 
L 18.109375 54.6875 
L 18.109375 46.1875 
Q 21.1875 51.21875 25.484375 53.609375 
Q 29.78125 56 35.6875 56 
Q 41.65625 56 45.828125 52.96875 
Q 50 49.953125 52 44.1875 
z
" id="DejaVuSans-109"/>
       <path d="M 56.203125 29.59375 
L 56.203125 25.203125 
L 14.890625 25.203125 
Q 15.484375 15.921875 20.484375 11.0625 
Q 25.484375 6.203125 34.421875 6.203125 
Q 39.59375 6.203125 44.453125 7.46875 
Q 49.3125 8.734375 54.109375 11.28125 
L 54.109375 2.78125 
Q 49.265625 0.734375 44.1875 -0.34375 
Q 39.109375 -1.421875 33.890625 -1.421875 
Q 20.796875 -1.421875 13.15625 6.1875 
Q 5.515625 13.8125 5.515625 26.8125 
Q 5.515625 40.234375 12.765625 48.109375 
Q 20.015625 56 32.328125 56 
Q 43.359375 56 49.78125 48.890625 
Q 56.203125 41.796875 56.203125 29.59375 
z
M 47.21875 32.234375 
Q 47.125 39.59375 43.09375 43.984375 
Q 39.0625 48.390625 32.421875 48.390625 
Q 24.90625 48.390625 20.390625 44.140625 
Q 15.875 39.890625 15.1875 32.171875 
z
" id="DejaVuSans-101"/>
       <path id="DejaVuSans-32"/>
       <path d="M 31 75.875 
Q 24.46875 64.65625 21.28125 53.65625 
Q 18.109375 42.671875 18.109375 31.390625 
Q 18.109375 20.125 21.3125 9.0625 
Q 24.515625 -2 31 -13.1875 
L 23.1875 -13.1875 
Q 15.875 -1.703125 12.234375 9.375 
Q 8.59375 20.453125 8.59375 31.390625 
Q 8.59375 42.28125 12.203125 53.3125 
Q 15.828125 64.359375 23.1875 75.875 
z
" id="DejaVuSans-40"/>
       <path d="M 44.28125 53.078125 
L 44.28125 44.578125 
Q 40.484375 46.53125 36.375 47.5 
Q 32.28125 48.484375 27.875 48.484375 
Q 21.1875 48.484375 17.84375 46.4375 
Q 14.5 44.390625 14.5 40.28125 
Q 14.5 37.15625 16.890625 35.375 
Q 19.28125 33.59375 26.515625 31.984375 
L 29.59375 31.296875 
Q 39.15625 29.25 43.1875 25.515625 
Q 47.21875 21.78125 47.21875 15.09375 
Q 47.21875 7.46875 41.1875 3.015625 
Q 35.15625 -1.421875 24.609375 -1.421875 
Q 20.21875 -1.421875 15.453125 -0.5625 
Q 10.6875 0.296875 5.421875 2 
L 5.421875 11.28125 
Q 10.40625 8.6875 15.234375 7.390625 
Q 20.0625 6.109375 24.8125 6.109375 
Q 31.15625 6.109375 34.5625 8.28125 
Q 37.984375 10.453125 37.984375 14.40625 
Q 37.984375 18.0625 35.515625 20.015625 
Q 33.0625 21.96875 24.703125 23.78125 
L 21.578125 24.515625 
Q 13.234375 26.265625 9.515625 29.90625 
Q 5.8125 33.546875 5.8125 39.890625 
Q 5.8125 47.609375 11.28125 51.796875 
Q 16.75 56 26.8125 56 
Q 31.78125 56 36.171875 55.265625 
Q 40.578125 54.546875 44.28125 53.078125 
z
" id="DejaVuSans-115"/>
       <path d="M 8.015625 75.875 
L 15.828125 75.875 
Q 23.140625 64.359375 26.78125 53.3125 
Q 30.421875 42.28125 30.421875 31.390625 
Q 30.421875 20.453125 26.78125 9.375 
Q 23.140625 -1.703125 15.828125 -13.1875 
L 8.015625 -13.1875 
Q 14.5 -2 17.703125 9.0625 
Q 20.90625 20.125 20.90625 31.390625 
Q 20.90625 42.671875 17.703125 53.65625 
Q 14.5 64.65625 8.015625 75.875 
z
" id="DejaVuSans-41"/>
      </defs>
      <use xlink:href="#DejaVuSans-116"/>
      <use x="39.208984" xlink:href="#DejaVuSans-105"/>
      <use x="66.992188" xlink:href="#DejaVuSans-109"/>
      <use x="164.404297" xlink:href="#DejaVuSans-101"/>
      <use x="225.927734" xlink:href="#DejaVuSans-32"/>
      <use x="257.714844" xlink:href="#DejaVuSans-40"/>
      <use x="296.728516" xlink:href="#DejaVuSans-115"/>
      <use x="348.828125" xlink:href="#DejaVuSans-41"/>
     </g>
    </g>
   </g>
   <g id="matplotlib.axis_2">
    <g id="ytick_1">
     <g id="line2d_6">
      <defs>
       <path d="M 0 0 
L -3.5 0 
" id="m9882be72ad" style="stroke:#000000;stroke-width:0.8;"/>
      </defs>
      <g>
       <use style="stroke:#000000;stroke-width:0.8;" x="92.990625" xlink:href="#m9882be72ad" y="254.83575"/>
      </g>
     </g>
     <g id="text_6">
      <!-- 98 -->
      <g transform="translate(52.905625 264.713719)scale(0.26 -0.26)">
       <defs>
        <path d="M 10.984375 1.515625 
L 10.984375 10.5 
Q 14.703125 8.734375 18.5 7.8125 
Q 22.3125 6.890625 25.984375 6.890625 
Q 35.75 6.890625 40.890625 13.453125 
Q 46.046875 20.015625 46.78125 33.40625 
Q 43.953125 29.203125 39.59375 26.953125 
Q 35.25 24.703125 29.984375 24.703125 
Q 19.046875 24.703125 12.671875 31.3125 
Q 6.296875 37.9375 6.296875 49.421875 
Q 6.296875 60.640625 12.9375 67.421875 
Q 19.578125 74.21875 30.609375 74.21875 
Q 43.265625 74.21875 49.921875 64.515625 
Q 56.59375 54.828125 56.59375 36.375 
Q 56.59375 19.140625 48.40625 8.859375 
Q 40.234375 -1.421875 26.421875 -1.421875 
Q 22.703125 -1.421875 18.890625 -0.6875 
Q 15.09375 0.046875 10.984375 1.515625 
z
M 30.609375 32.421875 
Q 37.25 32.421875 41.125 36.953125 
Q 45.015625 41.5 45.015625 49.421875 
Q 45.015625 57.28125 41.125 61.84375 
Q 37.25 66.40625 30.609375 66.40625 
Q 23.96875 66.40625 20.09375 61.84375 
Q 16.21875 57.28125 16.21875 49.421875 
Q 16.21875 41.5 20.09375 36.953125 
Q 23.96875 32.421875 30.609375 32.421875 
z
" id="DejaVuSans-57"/>
        <path d="M 31.78125 34.625 
Q 24.75 34.625 20.71875 30.859375 
Q 16.703125 27.09375 16.703125 20.515625 
Q 16.703125 13.921875 20.71875 10.15625 
Q 24.75 6.390625 31.78125 6.390625 
Q 38.8125 6.390625 42.859375 10.171875 
Q 46.921875 13.96875 46.921875 20.515625 
Q 46.921875 27.09375 42.890625 30.859375 
Q 38.875 34.625 31.78125 34.625 
z
M 21.921875 38.8125 
Q 15.578125 40.375 12.03125 44.71875 
Q 8.5 49.078125 8.5 55.328125 
Q 8.5 64.0625 14.71875 69.140625 
Q 20.953125 74.21875 31.78125 74.21875 
Q 42.671875 74.21875 48.875 69.140625 
Q 55.078125 64.0625 55.078125 55.328125 
Q 55.078125 49.078125 51.53125 44.71875 
Q 48 40.375 41.703125 38.8125 
Q 48.828125 37.15625 52.796875 32.3125 
Q 56.78125 27.484375 56.78125 20.515625 
Q 56.78125 9.90625 50.3125 4.234375 
Q 43.84375 -1.421875 31.78125 -1.421875 
Q 19.734375 -1.421875 13.25 4.234375 
Q 6.78125 9.90625 6.78125 20.515625 
Q 6.78125 27.484375 10.78125 32.3125 
Q 14.796875 37.15625 21.921875 38.8125 
z
M 18.3125 54.390625 
Q 18.3125 48.734375 21.84375 45.5625 
Q 25.390625 42.390625 31.78125 42.390625 
Q 38.140625 42.390625 41.71875 45.5625 
Q 45.3125 48.734375 45.3125 54.390625 
Q 45.3125 60.0625 41.71875 63.234375 
Q 38.140625 66.40625 31.78125 66.40625 
Q 25.390625 66.40625 21.84375 63.234375 
Q 18.3125 60.0625 18.3125 54.390625 
z
" id="DejaVuSans-56"/>
       </defs>
       <use xlink:href="#DejaVuSans-57"/>
       <use x="63.623047" xlink:href="#DejaVuSans-56"/>
      </g>
     </g>
    </g>
    <g id="ytick_2">
     <g id="line2d_7">
      <g>
       <use style="stroke:#000000;stroke-width:0.8;" x="92.990625" xlink:href="#m9882be72ad" y="200.47575"/>
      </g>
     </g>
     <g id="text_7">
      <!-- 99 -->
      <g transform="translate(52.905625 210.353719)scale(0.26 -0.26)">
       <use xlink:href="#DejaVuSans-57"/>
       <use x="63.623047" xlink:href="#DejaVuSans-57"/>
      </g>
     </g>
    </g>
    <g id="ytick_3">
     <g id="line2d_8">
      <g>
       <use style="stroke:#000000;stroke-width:0.8;" x="92.990625" xlink:href="#m9882be72ad" y="146.11575"/>
      </g>
     </g>
     <g id="text_8">
      <!-- 100 -->
      <g transform="translate(36.363125 155.993719)scale(0.26 -0.26)">
       <use xlink:href="#DejaVuSans-49"/>
       <use x="63.623047" xlink:href="#DejaVuSans-48"/>
       <use x="127.246094" xlink:href="#DejaVuSans-48"/>
      </g>
     </g>
    </g>
    <g id="ytick_4">
     <g id="line2d_9">
      <g>
       <use style="stroke:#000000;stroke-width:0.8;" x="92.990625" xlink:href="#m9882be72ad" y="91.75575"/>
      </g>
     </g>
     <g id="text_9">
      <!-- 101 -->
      <g transform="translate(36.363125 101.633719)scale(0.26 -0.26)">
       <use xlink:href="#DejaVuSans-49"/>
       <use x="63.623047" xlink:href="#DejaVuSans-48"/>
       <use x="127.246094" xlink:href="#DejaVuSans-49"/>
      </g>
     </g>
    </g>
    <g id="ytick_5">
     <g id="line2d_10">
      <g>
       <use style="stroke:#000000;stroke-width:0.8;" x="92.990625" xlink:href="#m9882be72ad" y="37.39575"/>
      </g>
     </g>
     <g id="text_10">
      <!-- 102 -->
      <g transform="translate(36.363125 47.273719)scale(0.26 -0.26)">
       <use xlink:href="#DejaVuSans-49"/>
       <use x="63.623047" xlink:href="#DejaVuSans-48"/>
       <use x="127.246094" xlink:href="#DejaVuSans-50"/>
      </g>
     </g>
    </g>
    <g id="text_11">
     <!-- amplitude (a.u.) -->
     <g transform="translate(26.955938 250.552469)rotate(-90)scale(0.26 -0.26)">
      <defs>
       <path d="M 34.28125 27.484375 
Q 23.390625 27.484375 19.1875 25 
Q 14.984375 22.515625 14.984375 16.5 
Q 14.984375 11.71875 18.140625 8.90625 
Q 21.296875 6.109375 26.703125 6.109375 
Q 34.1875 6.109375 38.703125 11.40625 
Q 43.21875 16.703125 43.21875 25.484375 
L 43.21875 27.484375 
z
M 52.203125 31.203125 
L 52.203125 0 
L 43.21875 0 
L 43.21875 8.296875 
Q 40.140625 3.328125 35.546875 0.953125 
Q 30.953125 -1.421875 24.3125 -1.421875 
Q 15.921875 -1.421875 10.953125 3.296875 
Q 6 8.015625 6 15.921875 
Q 6 25.140625 12.171875 29.828125 
Q 18.359375 34.515625 30.609375 34.515625 
L 43.21875 34.515625 
L 43.21875 35.40625 
Q 43.21875 41.609375 39.140625 45 
Q 35.0625 48.390625 27.6875 48.390625 
Q 23 48.390625 18.546875 47.265625 
Q 14.109375 46.140625 10.015625 43.890625 
L 10.015625 52.203125 
Q 14.9375 54.109375 19.578125 55.046875 
Q 24.21875 56 28.609375 56 
Q 40.484375 56 46.34375 49.84375 
Q 52.203125 43.703125 52.203125 31.203125 
z
" id="DejaVuSans-97"/>
       <path d="M 18.109375 8.203125 
L 18.109375 -20.796875 
L 9.078125 -20.796875 
L 9.078125 54.6875 
L 18.109375 54.6875 
L 18.109375 46.390625 
Q 20.953125 51.265625 25.265625 53.625 
Q 29.59375 56 35.59375 56 
Q 45.5625 56 51.78125 48.09375 
Q 58.015625 40.1875 58.015625 27.296875 
Q 58.015625 14.40625 51.78125 6.484375 
Q 45.5625 -1.421875 35.59375 -1.421875 
Q 29.59375 -1.421875 25.265625 0.953125 
Q 20.953125 3.328125 18.109375 8.203125 
z
M 48.6875 27.296875 
Q 48.6875 37.203125 44.609375 42.84375 
Q 40.53125 48.484375 33.40625 48.484375 
Q 26.265625 48.484375 22.1875 42.84375 
Q 18.109375 37.203125 18.109375 27.296875 
Q 18.109375 17.390625 22.1875 11.75 
Q 26.265625 6.109375 33.40625 6.109375 
Q 40.53125 6.109375 44.609375 11.75 
Q 48.6875 17.390625 48.6875 27.296875 
z
" id="DejaVuSans-112"/>
       <path d="M 9.421875 75.984375 
L 18.40625 75.984375 
L 18.40625 0 
L 9.421875 0 
z
" id="DejaVuSans-108"/>
       <path d="M 8.5 21.578125 
L 8.5 54.6875 
L 17.484375 54.6875 
L 17.484375 21.921875 
Q 17.484375 14.15625 20.5 10.265625 
Q 23.53125 6.390625 29.59375 6.390625 
Q 36.859375 6.390625 41.078125 11.03125 
Q 45.3125 15.671875 45.3125 23.6875 
L 45.3125 54.6875 
L 54.296875 54.6875 
L 54.296875 0 
L 45.3125 0 
L 45.3125 8.40625 
Q 42.046875 3.421875 37.71875 1 
Q 33.40625 -1.421875 27.6875 -1.421875 
Q 18.265625 -1.421875 13.375 4.4375 
Q 8.5 10.296875 8.5 21.578125 
z
M 31.109375 56 
z
" id="DejaVuSans-117"/>
       <path d="M 45.40625 46.390625 
L 45.40625 75.984375 
L 54.390625 75.984375 
L 54.390625 0 
L 45.40625 0 
L 45.40625 8.203125 
Q 42.578125 3.328125 38.25 0.953125 
Q 33.9375 -1.421875 27.875 -1.421875 
Q 17.96875 -1.421875 11.734375 6.484375 
Q 5.515625 14.40625 5.515625 27.296875 
Q 5.515625 40.1875 11.734375 48.09375 
Q 17.96875 56 27.875 56 
Q 33.9375 56 38.25 53.625 
Q 42.578125 51.265625 45.40625 46.390625 
z
M 14.796875 27.296875 
Q 14.796875 17.390625 18.875 11.75 
Q 22.953125 6.109375 30.078125 6.109375 
Q 37.203125 6.109375 41.296875 11.75 
Q 45.40625 17.390625 45.40625 27.296875 
Q 45.40625 37.203125 41.296875 42.84375 
Q 37.203125 48.484375 30.078125 48.484375 
Q 22.953125 48.484375 18.875 42.84375 
Q 14.796875 37.203125 14.796875 27.296875 
z
" id="DejaVuSans-100"/>
       <path d="M 10.6875 12.40625 
L 21 12.40625 
L 21 0 
L 10.6875 0 
z
" id="DejaVuSans-46"/>
      </defs>
      <use xlink:href="#DejaVuSans-97"/>
      <use x="61.279297" xlink:href="#DejaVuSans-109"/>
      <use x="158.691406" xlink:href="#DejaVuSans-112"/>
      <use x="222.167969" xlink:href="#DejaVuSans-108"/>
      <use x="249.951172" xlink:href="#DejaVuSans-105"/>
      <use x="277.734375" xlink:href="#DejaVuSans-116"/>
      <use x="316.943359" xlink:href="#DejaVuSans-117"/>
      <use x="380.322266" xlink:href="#DejaVuSans-100"/>
      <use x="443.798828" xlink:href="#DejaVuSans-101"/>
      <use x="505.322266" xlink:href="#DejaVuSans-32"/>
      <use x="537.109375" xlink:href="#DejaVuSans-40"/>
      <use x="576.123047" xlink:href="#DejaVuSans-97"/>
      <use x="637.402344" xlink:href="#DejaVuSans-46"/>
      <use x="669.189453" xlink:href="#DejaVuSans-117"/>
      <use x="732.568359" xlink:href="#DejaVuSans-46"/>
      <use x="764.355469" xlink:href="#DejaVuSans-41"/>
     </g>
    </g>
   </g>
   <g id="line2d_11">
    <path clip-path="url(#pd0d9c80aa5)" d="M 108.208807 146.11575 
L 127.491598 146.216868 
L 128.60797 146.283 
L 135.50918 146.161377 
L 138.452343 146.161681 
L 139.670203 146.263419 
L 145.252064 146.128416 
L 147.99225 146.001302 
L 156.009831 145.903339 
L 159.764901 145.832944 
L 160.982762 145.903992 
L 167.275041 145.67518 
L 169.304809 145.597522 
L 171.030111 145.589493 
L 175.089646 145.477499 
L 177.017925 145.37555 
L 178.641739 145.252468 
L 180.265553 145.286364 
L 181.584902 145.283071 
L 193.459042 144.947142 
L 197.620065 144.753032 
L 199.852809 144.632899 
L 208.174856 144.399792 
L 210.204624 144.281878 
L 211.523972 144.323463 
L 212.741833 144.321144 
L 225.123415 143.922911 
L 228.472531 143.80386 
L 229.284438 143.664801 
L 233.242485 143.566805 
L 234.460345 143.579367 
L 239.433276 143.351549 
L 240.245183 143.234542 
L 244.000252 143.144414 
L 250.089555 142.828059 
L 253.235695 142.610568 
L 254.555043 142.695289 
L 256.483323 142.667455 
L 260.238392 142.55812 
L 261.050299 142.371227 
L 264.500904 142.24691 
L 265.718765 142.253321 
L 269.879788 142.205323 
L 270.488718 142.14061 
L 271.300625 141.920954 
L 276.780998 141.785239 
L 281.550951 141.638262 
L 282.159881 141.452947 
L 286.320905 141.256632 
L 287.640254 141.288025 
L 292.410207 141.134505 
L 292.917649 140.945113 
L 297.180161 140.715876 
L 298.905463 140.788533 
L 303.370952 140.697244 
L 304.08137 140.441433 
L 306.821557 140.225768 
L 308.039417 140.199104 
L 309.866208 140.264939 
L 314.230208 140.174154 
L 314.839138 139.943707 
L 317.173371 139.837568 
L 319.203138 139.673134 
L 323.059697 139.830825 
L 325.596906 139.746352 
L 326.205836 139.443039 
L 329.859418 139.161666 
L 331.381743 139.056322 
L 336.456162 139.245924 
L 337.876999 139.112006 
L 338.384441 138.834392 
L 339.906767 138.790408 
L 343.357371 138.605109 
L 345.285651 138.639232 
L 348.736255 138.57973 
L 349.548162 138.200946 
L 351.57793 138.100541 
L 354.013651 137.826763 
L 360.102953 138.012159 
L 360.407418 137.85492 
L 360.813372 137.559546 
L 361.320814 137.573294 
L 362.538674 137.576548 
L 364.365465 137.412876 
L 367.105651 137.182998 
L 370.556256 137.376118 
L 373.296442 137.297322 
L 373.905372 136.897804 
L 376.848535 136.696513 
L 378.675326 136.48553 
L 379.994675 136.609997 
L 382.024442 136.651412 
L 384.967605 136.58233 
L 385.576535 136.140653 
L 388.824163 136.034462 
L 391.970303 135.728227 
L 395.014954 135.907988 
L 397.958117 135.855711 
L 398.668536 135.384262 
L 400.495327 135.376368 
L 402.626582 135.061932 
L 404.148908 134.926421 
L 405.975699 135.081906 
L 409.324815 135.114127 
L 410.441187 135.009565 
L 411.050118 134.512656 
L 412.572443 134.493093 
L 412.572443 134.493093 
" style="fill:none;stroke:#ff7f0e;stroke-linecap:square;stroke-width:1.5;"/>
   </g>
   <g id="patch_3">
    <path d="M 92.990625 254.83575 
L 92.990625 37.39575 
" style="fill:none;stroke:#000000;stroke-linecap:square;stroke-linejoin:miter;stroke-width:0.8;"/>
   </g>
   <g id="patch_4">
    <path d="M 427.790625 254.83575 
L 427.790625 37.39575 
" style="fill:none;stroke:#000000;stroke-linecap:square;stroke-linejoin:miter;stroke-width:0.8;"/>
   </g>
   <g id="patch_5">
    <path d="M 92.990625 254.83575 
L 427.790625 254.83575 
" style="fill:none;stroke:#000000;stroke-linecap:square;stroke-linejoin:miter;stroke-width:0.8;"/>
   </g>
   <g id="patch_6">
    <path d="M 92.990625 37.39575 
L 427.790625 37.39575 
" style="fill:none;stroke:#000000;stroke-linecap:square;stroke-linejoin:miter;stroke-width:0.8;"/>
   </g>
   <g id="text_12">
    <!-- $a(t)$ -->
    <g transform="translate(237.770625 30.907125)scale(0.312 -0.312)">
     <defs>
      <path d="M 46.296875 11.09375 
L 47.59375 10 
Q 42 3.203125 39.34375 1.09375 
Q 36.703125 -1 33.703125 -1 
Q 29.703125 -1 29.703125 3.09375 
Q 29.703125 5.59375 32 14.59375 
Q 26.40625 6.203125 21.703125 2.546875 
Q 17 -1.09375 11.703125 -1.09375 
Q 7.296875 -1.09375 4.5 1.953125 
Q 1.703125 5 1.703125 10.5 
Q 1.703125 18.09375 6.046875 26 
Q 10.40625 33.90625 17.09375 39 
Q 23.796875 44.09375 30.296875 44.09375 
Q 37 44.09375 38.296875 38.296875 
L 39.40625 43.09375 
L 39.703125 43.40625 
L 45.796875 44.09375 
L 46.5 43.796875 
Q 46.40625 43.40625 45.90625 41.703125 
Q 37 9.296875 37 5.40625 
Q 37 4.09375 38.40625 4.09375 
Q 39.90625 4.09375 43.59375 8.203125 
z
M 36.5 36.09375 
Q 36.5 38.703125 35 40.296875 
Q 33.5 41.90625 30.90625 41.90625 
Q 24.09375 41.90625 17.796875 32.703125 
Q 14.5 27.796875 12.296875 21.796875 
Q 10.09375 15.796875 10.09375 11.203125 
Q 10.09375 3.796875 16.09375 3.796875 
Q 22 3.796875 28.796875 13.59375 
Q 36.5 24.703125 36.5 36.09375 
z
" id="STIXGeneral-Italic-97"/>
      <path d="M 30.40625 -16.09375 
L 29.203125 -17.703125 
Q 17.59375 -11.09375 11.1875 0.5 
Q 4.796875 12.09375 4.796875 25.203125 
Q 4.796875 52.90625 29.5 67.59375 
L 30.40625 66 
Q 20.203125 57.296875 16.796875 48.84375 
Q 13.40625 40.40625 13.40625 25.5 
Q 13.40625 10.703125 16.90625 1.5 
Q 20.40625 -7.703125 30.40625 -16.09375 
z
" id="STIXGeneral-Regular-40"/>
      <path d="M 29.59375 42.796875 
L 29.09375 39.59375 
L 20.703125 39.59375 
L 12 6.796875 
Q 11.796875 6 11.796875 5.40625 
Q 11.796875 3.796875 13.296875 3.796875 
Q 14.5 3.796875 16.09375 5.34375 
Q 17.703125 6.90625 21.40625 11.703125 
L 22.703125 11 
Q 18.09375 4 15.140625 1.453125 
Q 12.203125 -1.09375 8.40625 -1.09375 
Q 3.796875 -1.09375 3.796875 2.59375 
Q 3.796875 3.59375 5.40625 10 
L 13.203125 39.59375 
L 5.703125 39.59375 
L 5.59375 40.203125 
Q 5.59375 42 8.90625 42.703125 
Q 11.40625 43.296875 15.5 46.546875 
Q 19.59375 49.796875 22.203125 53.703125 
Q 22.796875 54.59375 23.59375 54.59375 
Q 24.5 54.59375 24.5 53.796875 
Q 24.5 53.296875 24.40625 53.09375 
L 21.59375 42.796875 
z
" id="STIXGeneral-Italic-116"/>
      <path d="M 2.90625 66 
L 4.09375 67.59375 
Q 15.5 60.796875 22 49.1875 
Q 28.5 37.59375 28.5 24.703125 
Q 28.5 -2.59375 3.796875 -17.703125 
L 2.90625 -16.09375 
Q 13.203125 -7.59375 16.546875 0.84375 
Q 19.90625 9.296875 19.90625 24.40625 
Q 19.90625 39.59375 16.546875 48.75 
Q 13.203125 57.90625 2.90625 66 
z
" id="STIXGeneral-Regular-41"/>
     </defs>
     <use transform="translate(0 0.40625)" xlink:href="#STIXGeneral-Italic-97"/>
     <use transform="translate(50.099991 0.40625)" xlink:href="#STIXGeneral-Regular-40"/>
     <use transform="translate(83.399979 0.40625)" xlink:href="#STIXGeneral-Italic-116"/>
     <use transform="translate(111.199966 0.40625)" xlink:href="#STIXGeneral-Regular-41"/>
    </g>
   </g>
   <g id="legend_1">
    <g id="line2d_12">
     <path d="M 454.930625 58.451688 
L 506.930625 58.451688 
" style="fill:none;stroke:#1f77b4;stroke-linecap:square;stroke-width:1.5;"/>
    </g>
    <g id="line2d_13"/>
    <g id="text_13">
     <!-- exact -->
     <g transform="translate(527.730625 67.551688)scale(0.26 -0.26)">
      <defs>
       <path d="M 54.890625 54.6875 
L 35.109375 28.078125 
L 55.90625 0 
L 45.3125 0 
L 29.390625 21.484375 
L 13.484375 0 
L 2.875 0 
L 24.125 28.609375 
L 4.6875 54.6875 
L 15.28125 54.6875 
L 29.78125 35.203125 
L 44.28125 54.6875 
z
" id="DejaVuSans-120"/>
       <path d="M 48.78125 52.59375 
L 48.78125 44.1875 
Q 44.96875 46.296875 41.140625 47.34375 
Q 37.3125 48.390625 33.40625 48.390625 
Q 24.65625 48.390625 19.8125 42.84375 
Q 14.984375 37.3125 14.984375 27.296875 
Q 14.984375 17.28125 19.8125 11.734375 
Q 24.65625 6.203125 33.40625 6.203125 
Q 37.3125 6.203125 41.140625 7.25 
Q 44.96875 8.296875 48.78125 10.40625 
L 48.78125 2.09375 
Q 45.015625 0.34375 40.984375 -0.53125 
Q 36.96875 -1.421875 32.421875 -1.421875 
Q 20.0625 -1.421875 12.78125 6.34375 
Q 5.515625 14.109375 5.515625 27.296875 
Q 5.515625 40.671875 12.859375 48.328125 
Q 20.21875 56 33.015625 56 
Q 37.15625 56 41.109375 55.140625 
Q 45.0625 54.296875 48.78125 52.59375 
z
" id="DejaVuSans-99"/>
      </defs>
      <use xlink:href="#DejaVuSans-101"/>
      <use x="59.773438" xlink:href="#DejaVuSans-120"/>
      <use x="118.953125" xlink:href="#DejaVuSans-97"/>
      <use x="180.232422" xlink:href="#DejaVuSans-99"/>
      <use x="235.212891" xlink:href="#DejaVuSans-116"/>
     </g>
    </g>
    <g id="line2d_14">
     <path d="M 454.930625 96.614813 
L 506.930625 96.614813 
" style="fill:none;stroke:#ff7f0e;stroke-linecap:square;stroke-width:1.5;"/>
    </g>
    <g id="line2d_15"/>
    <g id="text_14">
     <!-- estimated -->
     <g transform="translate(527.730625 105.714813)scale(0.26 -0.26)">
      <use xlink:href="#DejaVuSans-101"/>
      <use x="61.523438" xlink:href="#DejaVuSans-115"/>
      <use x="113.623047" xlink:href="#DejaVuSans-116"/>
      <use x="152.832031" xlink:href="#DejaVuSans-105"/>
      <use x="180.615234" xlink:href="#DejaVuSans-109"/>
      <use x="278.027344" xlink:href="#DejaVuSans-97"/>
      <use x="339.306641" xlink:href="#DejaVuSans-116"/>
      <use x="378.515625" xlink:href="#DejaVuSans-101"/>
      <use x="440.039062" xlink:href="#DejaVuSans-100"/>
     </g>
    </g>
   </g>
  </g>
 </g>
 <defs>
  <clipPath id="pd0d9c80aa5">
   <rect height="217.44" width="334.8" x="92.990625" y="37.39575"/>
  </clipPath>
 </defs>
</svg>
