<?xml version="1.0" encoding="utf-8" standalone="no"?>
<!DOCTYPE svg PUBLIC "-//W3C//DTD SVG 1.1//EN"
  "http://www.w3.org/Graphics/SVG/1.1/DTD/svg11.dtd">
<!-- Created with matplotlib (https://matplotlib.org/) -->
<svg height="323.362pt" version="1.1" viewBox="0 0 667.965312 323.362" width="667.965312pt" xmlns="http://www.w3.org/2000/svg" xmlns:xlink="http://www.w3.org/1999/xlink">
 <metadata>
  <rdf:RDF xmlns:cc="http://creativecommons.org/ns#" xmlns:dc="http://purl.org/dc/elements/1.1/" xmlns:rdf="http://www.w3.org/1999/02/22-rdf-syntax-ns#">
   <cc:Work>
    <dc:type rdf:resource="http://purl.org/dc/dcmitype/StillImage"/>
    <dc:date>2021-09-29T18:19:30.997173</dc:date>
    <dc:format>image/svg+xml</dc:format>
    <dc:creator>
     <cc:Agent>
      <dc:title>Matplotlib v3.3.2, https://matplotlib.org/</dc:title>
     </cc:Agent>
    </dc:creator>
   </cc:Work>
  </rdf:RDF>
 </metadata>
 <defs>
  <style type="text/css">*{stroke-linecap:butt;stroke-linejoin:round;}</style>
 </defs>
 <g id="figure_1">
  <g id="patch_1">
   <path d="M 0 323.362 
L 667.965312 323.362 
L 667.965312 0 
L 0 0 
z
" style="fill:#ffffff;"/>
  </g>
  <g id="axes_1">
   <g id="patch_2">
    <path d="M 84.71125 254.83575 
L 419.51125 254.83575 
L 419.51125 37.39575 
L 84.71125 37.39575 
z
" style="fill:#ffffff;"/>
   </g>
   <g id="line2d_1">
    <path clip-path="url(#pfca30d5528)" d="M 99.929432 210.83961 
L 100.03092 202.448659 
L 100.132409 184.148605 
L 100.233897 189.556614 
L 100.335385 230.791488 
L 100.436874 202.848512 
L 100.538362 218.811186 
L 100.63985 218.109483 
L 100.741339 210.657291 
L 100.842827 214.517367 
L 100.944316 195.520362 
L 101.147292 214.829864 
L 101.248781 210.15549 
L 101.350269 211.748846 
L 101.451757 194.92367 
L 101.553246 219.551857 
L 101.654734 212.035689 
L 101.857711 253.574106 
L 102.060688 204.027116 
L 102.162176 227.312404 
L 102.263664 183.647606 
L 102.365153 237.628436 
L 102.466641 215.878609 
L 102.56813 219.251308 
L 102.669618 194.314681 
L 102.771106 195.229975 
L 102.872595 214.279624 
L 102.974083 211.039833 
L 103.17706 245.227149 
L 103.481525 198.66694 
L 103.583013 199.067423 
L 103.684502 222.107691 
L 103.78599 220.871054 
L 103.988967 237.065173 
L 104.090455 241.210534 
L 104.191944 188.193841 
L 104.293432 223.856031 
L 104.39492 222.814262 
L 104.496409 234.620275 
L 104.597897 205.185061 
L 104.699385 239.846424 
L 104.800874 219.531036 
L 104.902362 229.42362 
L 105.003851 210.830173 
L 105.206827 233.544683 
L 105.409804 210.212634 
L 105.511292 215.453234 
L 105.612781 212.028562 
L 105.714269 225.604046 
L 105.815758 221.662919 
L 105.917246 226.148312 
L 106.018734 221.608101 
L 106.221711 241.411574 
L 106.323199 213.811081 
L 106.424688 222.202927 
L 106.526176 240.005718 
L 106.627665 209.661515 
L 106.729153 229.517839 
L 106.93213 205.787991 
L 107.033618 214.482762 
L 107.135106 199.831347 
L 107.236595 234.243728 
L 107.338083 210.506934 
L 107.54106 228.953498 
L 107.845525 215.502903 
L 107.947013 233.202622 
L 108.048502 203.249754 
L 108.14999 209.553409 
L 108.251479 238.568548 
L 108.454455 188.807341 
L 108.657432 218.889296 
L 108.75892 231.798201 
L 108.860409 200.986695 
L 108.961897 222.111928 
L 109.063386 198.54235 
L 109.164874 213.239189 
L 109.266362 202.096405 
L 109.367851 211.08329 
L 109.469339 206.002096 
L 109.570827 216.087768 
L 109.672316 190.347384 
L 109.773804 214.391022 
L 109.875293 210.39887 
L 109.976781 188.923315 
L 110.078269 235.753934 
L 110.179758 234.629111 
L 110.281246 202.155118 
L 110.382734 233.208414 
L 110.484223 188.023399 
L 110.6872 227.02384 
L 110.788688 188.309055 
L 110.890176 194.71776 
L 110.991665 189.102437 
L 111.194641 228.649412 
L 111.29613 188.472026 
L 111.397618 220.040538 
L 111.600595 202.414637 
L 111.702083 218.388234 
L 111.90506 202.763285 
L 112.006548 210.670107 
L 112.108037 232.058855 
L 112.311014 196.884963 
L 112.412502 226.17585 
L 112.51399 218.271629 
L 112.615479 222.405636 
L 112.716967 189.285837 
L 113.021432 227.238753 
L 113.122921 208.25617 
L 113.224409 225.84332 
L 113.325897 215.601836 
L 113.427386 225.275524 
L 113.528874 206.247761 
L 113.630362 207.690107 
L 113.731851 219.062886 
L 113.833339 210.297885 
L 114.036316 237.64566 
L 114.137804 209.65395 
L 114.239293 213.602245 
L 114.340781 206.807891 
L 114.442269 181.462193 
L 114.645246 229.230408 
L 114.746735 199.800793 
L 114.848223 235.063369 
L 115.152688 191.136044 
L 115.355665 227.942455 
L 115.457153 217.384425 
L 115.558642 225.569885 
L 115.66013 199.615226 
L 115.863107 232.570289 
L 115.964595 222.278029 
L 116.066083 223.145665 
L 116.167572 187.950477 
L 116.472037 233.669189 
L 116.573525 203.660137 
L 116.776502 238.282489 
L 116.87799 198.662524 
L 116.979479 211.284511 
L 117.080967 202.524839 
L 117.182456 211.248019 
L 117.283944 203.442356 
L 117.486921 230.84468 
L 117.588409 205.966548 
L 117.689897 227.487805 
L 117.791386 225.831918 
L 117.994363 215.572048 
L 118.095851 220.951517 
L 118.197339 235.745901 
L 118.298828 225.139074 
L 118.400316 248.034198 
L 118.501804 206.734945 
L 118.603293 239.016272 
L 118.704781 231.796519 
L 118.80627 215.025716 
L 118.907758 226.497119 
L 119.009246 193.403376 
L 119.110735 234.506662 
L 119.212223 211.88872 
L 119.313711 216.323804 
L 119.4152 232.681504 
L 119.516688 208.157852 
L 119.618177 218.224446 
L 119.922642 184.362697 
L 120.125618 221.061409 
L 120.227107 219.174165 
L 120.328595 199.757825 
L 120.531572 206.407842 
L 120.63306 239.120916 
L 120.734549 216.028476 
L 120.836037 226.368652 
L 120.937525 211.60667 
L 121.039014 217.081535 
L 121.140502 202.459072 
L 121.241991 211.048899 
L 121.343479 204.242942 
L 121.546456 229.320727 
L 121.850921 210.116493 
L 121.952409 182.855926 
L 122.155386 229.452598 
L 122.256874 220.60473 
L 122.358363 222.303814 
L 122.459851 208.598108 
L 122.561339 237.907183 
L 122.764316 213.291289 
L 122.865805 212.188404 
L 122.967293 224.206875 
L 123.068781 218.991165 
L 123.17027 236.179498 
L 123.474735 209.487358 
L 123.576223 232.272454 
L 123.7792 193.83638 
L 123.880688 245.500911 
L 124.083665 205.669875 
L 124.185153 224.716566 
L 124.38813 217.390373 
L 124.591107 219.9314 
L 124.692595 239.741187 
L 124.794084 198.735515 
L 124.895572 199.783427 
L 125.098549 236.678562 
L 125.200037 207.861749 
L 125.301526 223.755547 
L 125.403014 213.344979 
L 125.504502 220.025512 
L 125.707479 205.313 
L 125.910456 235.424837 
L 126.011944 238.311605 
L 126.113433 206.510996 
L 126.214921 232.586472 
L 126.316409 222.69328 
L 126.417898 223.984328 
L 126.519386 216.095853 
L 126.620874 243.395816 
L 126.823851 207.720476 
L 127.026828 219.808654 
L 127.229805 209.504673 
L 127.331293 255.474335 
L 127.432781 186.923496 
L 127.635758 224.720819 
L 127.737247 220.924298 
L 127.838735 208.093279 
L 127.940223 216.927112 
L 128.041712 244.674368 
L 128.1432 185.304163 
L 128.244688 216.826921 
L 128.346177 200.429561 
L 128.447665 225.243387 
L 128.549154 192.933547 
L 128.650642 211.047454 
L 128.75213 206.365903 
L 128.853619 230.337095 
L 128.955107 197.621727 
L 129.056595 205.172259 
L 129.158084 196.293662 
L 129.259572 224.263331 
L 129.361061 222.12488 
L 129.462549 181.747658 
L 129.564037 230.504536 
L 129.767014 198.644755 
L 129.868502 213.701785 
L 129.969991 206.661171 
L 130.071479 220.89533 
L 130.172968 209.733823 
L 130.274456 234.03079 
L 130.375944 191.048325 
L 130.578921 224.930834 
L 130.680409 205.404254 
L 130.883386 234.391861 
L 130.984875 234.565601 
L 131.086363 204.97977 
L 131.187851 217.342991 
L 131.28934 216.961047 
L 131.390828 199.393018 
L 131.492316 231.343529 
L 131.796782 213.620473 
L 131.999758 219.132933 
L 132.101247 215.860544 
L 132.202735 216.515684 
L 132.405712 226.73125 
L 132.5072 210.959654 
L 132.710177 231.701904 
L 133.014642 182.190077 
L 133.11613 225.111736 
L 133.217619 201.215739 
L 133.319107 204.050838 
L 133.420596 232.109846 
L 133.522084 203.658631 
L 133.725061 253.400639 
L 133.826549 206.056836 
L 133.928037 240.292187 
L 134.029526 208.29479 
L 134.131014 224.739683 
L 134.232503 190.760125 
L 134.333991 199.320559 
L 134.536968 224.765921 
L 134.638456 232.386951 
L 134.841433 218.836992 
L 134.942921 220.052173 
L 135.145898 206.364519 
L 135.247386 209.674751 
L 135.450363 235.570676 
L 135.551851 194.94073 
L 135.65334 224.707759 
L 135.754828 224.161657 
L 135.856317 222.253662 
L 135.957805 241.408115 
L 136.059293 221.612154 
L 136.160782 221.628984 
L 136.363758 204.535916 
L 136.465247 214.598496 
L 136.566735 201.137478 
L 136.769712 214.857625 
L 136.8712 212.289834 
L 137.074177 220.331047 
L 137.175665 218.480683 
L 137.277154 230.943564 
L 137.378642 210.518909 
L 137.480131 228.972777 
L 137.581619 202.368422 
L 137.683107 218.177098 
L 137.987572 205.212084 
L 138.089061 237.297507 
L 138.292038 201.754992 
L 138.393526 239.121943 
L 138.495014 208.884305 
L 138.596503 247.187088 
L 138.799479 213.91461 
L 138.900968 238.482404 
L 139.002456 228.744673 
L 139.103945 235.786463 
L 139.205433 190.551398 
L 139.306921 212.05412 
L 139.40841 206.203315 
L 139.712875 237.835043 
L 139.814363 218.625037 
L 139.915852 225.425069 
L 140.118828 197.82885 
L 140.220317 193.102608 
L 140.321805 201.995395 
L 140.524782 230.513695 
L 140.62627 203.215913 
L 140.727759 209.156436 
L 140.829247 239.94977 
L 141.032224 202.489271 
L 141.438177 235.232362 
L 141.539666 202.653949 
L 141.641154 218.727648 
L 141.742642 217.6227 
L 141.844131 189.112468 
L 142.047107 208.837722 
L 142.148596 212.145454 
L 142.351573 189.26073 
L 142.554549 205.731021 
L 142.656038 244.525818 
L 142.757526 212.360466 
L 142.859014 216.031441 
L 142.960503 212.77492 
L 143.061991 200.45791 
L 143.16348 253.834091 
L 143.366456 210.189999 
L 143.569433 234.624741 
L 143.670921 201.480121 
L 143.77241 210.05441 
L 143.873898 228.136391 
L 144.076875 202.132132 
L 144.178363 213.956382 
L 144.279852 202.419366 
L 144.584317 230.804966 
L 144.787294 211.16389 
L 144.888782 201.275442 
L 144.99027 215.631248 
L 145.091759 207.323074 
L 145.193247 227.927891 
L 145.294735 225.280955 
L 145.396224 215.527238 
L 145.497712 229.205984 
L 145.599201 202.018817 
L 145.802177 209.845386 
L 145.903666 208.969394 
L 146.005154 184.576074 
L 146.208131 245.767111 
L 146.309619 210.956886 
L 146.512596 221.329695 
L 146.614084 228.007731 
L 146.817061 211.171629 
L 146.918549 221.079966 
L 147.020038 178.811013 
L 147.121526 227.696204 
L 147.223015 225.260535 
L 147.324503 246.930098 
L 147.425991 210.099484 
L 147.52748 242.965555 
L 147.730456 217.71324 
L 147.831945 223.996009 
L 147.933433 188.491749 
L 148.034922 199.274344 
L 148.13641 194.557498 
L 148.237898 226.461853 
L 148.339387 197.300798 
L 148.440875 206.461437 
L 148.643852 198.709809 
L 148.74534 226.796505 
L 148.846829 219.764482 
L 148.948317 201.099866 
L 149.049805 252.090378 
L 149.151294 191.647769 
L 149.35427 214.228343 
L 149.455759 210.359736 
L 149.557247 228.476537 
L 149.658736 218.609736 
L 149.963201 174.423474 
L 150.166177 223.034887 
L 150.267666 220.933096 
L 150.369154 228.226534 
L 150.572131 207.901334 
L 150.673619 213.935985 
L 150.775108 197.537133 
L 150.978084 218.446704 
L 151.079573 221.826241 
L 151.181061 237.05694 
L 151.28255 236.10671 
L 151.384038 230.463483 
L 151.485526 194.494951 
L 151.587015 200.372784 
L 151.688503 193.409004 
L 151.89148 241.857625 
L 152.094457 210.751657 
L 152.297433 198.088737 
L 152.398922 209.149103 
L 152.50041 187.998156 
L 152.703387 226.475546 
L 152.804875 237.600295 
L 153.007852 209.699171 
L 153.10934 226.081553 
L 153.312317 192.705008 
L 153.413805 247.517338 
L 153.515294 200.63218 
L 153.616782 245.612441 
L 153.819759 195.370678 
L 154.022736 231.655961 
L 154.225712 216.87751 
L 154.327201 215.716045 
L 154.428689 216.004926 
L 154.530178 214.646084 
L 154.631666 209.948087 
L 154.733154 230.551629 
L 154.936131 191.002278 
L 155.139108 219.42361 
L 155.240596 197.349571 
L 155.342085 250.066397 
L 155.443573 195.83251 
L 155.545061 222.107151 
L 155.849526 199.252838 
L 156.052503 222.721943 
L 156.153992 194.068892 
L 156.25548 247.142693 
L 156.356968 212.56601 
L 156.458457 232.389426 
L 156.559945 223.878773 
L 156.661433 183.672915 
L 156.762922 213.463614 
L 156.86441 209.978475 
L 156.965899 238.620769 
L 157.270364 207.619631 
L 157.371852 203.80876 
L 157.47334 212.615007 
L 157.574829 205.089534 
L 157.676317 206.139854 
L 157.777806 239.230663 
L 157.980782 201.552913 
L 158.082271 204.122339 
L 158.285247 224.329159 
L 158.386736 228.850597 
L 158.589713 196.191862 
L 158.691201 240.89903 
L 158.792689 222.160138 
L 158.894178 229.105574 
L 158.995666 201.192882 
L 159.097154 220.595508 
L 159.198643 219.371188 
L 159.300131 215.682294 
L 159.40162 206.069521 
L 159.503108 218.202541 
L 159.604596 256.659867 
L 159.706085 204.615615 
L 159.807573 206.115564 
L 160.01055 228.170998 
L 160.213527 206.936194 
L 160.315015 219.235553 
L 160.416503 215.552039 
L 160.517992 225.882171 
L 160.61948 214.975752 
L 160.720968 234.850229 
L 160.822457 206.314012 
L 160.923945 226.041271 
L 161.025434 208.888381 
L 161.126922 232.70896 
L 161.329899 213.906109 
L 161.431387 236.366094 
L 161.532875 210.61152 
L 161.634364 217.76492 
L 161.735852 237.514064 
L 161.837341 231.136726 
L 162.040317 199.238978 
L 162.141806 214.121093 
L 162.243294 206.329484 
L 162.344782 208.94002 
L 162.446271 207.394565 
L 162.547759 193.519058 
L 162.649248 233.994012 
L 162.750736 202.330448 
L 162.852224 217.661863 
L 162.953713 215.362935 
L 163.156689 217.525779 
L 163.258178 229.850339 
L 163.461155 187.828848 
L 163.562643 212.85223 
L 163.664131 212.046269 
L 163.76562 221.976922 
L 163.968596 205.23151 
L 164.171573 218.542537 
L 164.273062 206.106006 
L 164.37455 225.246639 
L 164.679015 192.187835 
L 164.780503 213.199252 
L 164.881992 192.051788 
L 164.98348 196.869052 
L 165.186457 229.49379 
L 165.389434 196.897711 
L 165.59241 220.49481 
L 165.693899 189.273586 
L 165.896876 245.388621 
L 166.099852 204.185072 
L 166.201341 208.440271 
L 166.302829 205.178758 
L 166.404317 212.66008 
L 166.505806 230.783365 
L 166.607294 217.032646 
L 166.708783 225.353568 
L 166.810271 225.153911 
L 166.911759 229.929292 
L 167.013248 205.047503 
L 167.317713 220.980247 
L 167.52069 195.897096 
L 167.622178 240.581009 
L 167.723666 206.051467 
L 168.028131 239.679758 
L 168.332597 205.736975 
L 168.434085 225.032902 
L 168.637062 190.767006 
L 168.840038 219.940604 
L 168.941527 195.054544 
L 169.043015 200.390378 
L 169.144504 198.753103 
L 169.34748 252.389564 
L 169.448969 180.601235 
L 169.550457 234.623883 
L 169.753434 176.733939 
L 169.854922 206.439464 
L 169.956411 197.457485 
L 170.159387 236.959265 
L 170.362364 195.351044 
L 170.565341 222.653853 
L 170.768318 195.423228 
L 170.869806 232.038856 
L 170.971294 228.627052 
L 171.072783 222.497564 
L 171.174271 195.183107 
L 171.275759 207.632957 
L 171.377248 180.115156 
L 171.580225 211.503361 
L 171.681713 192.641901 
L 171.88469 221.170633 
L 171.986178 201.080953 
L 172.087666 221.017571 
L 172.189155 215.118942 
L 172.290643 191.64751 
L 172.49362 222.508715 
L 172.595108 217.583044 
L 172.696597 196.025732 
L 172.798085 218.832817 
L 172.899573 216.416821 
L 173.001062 218.191474 
L 173.10255 208.11359 
L 173.204039 216.353313 
L 173.305527 233.970924 
L 173.609992 192.683764 
L 173.71148 198.911754 
L 173.812969 202.164695 
L 174.015946 222.473905 
L 174.117434 217.99042 
L 174.218922 225.866728 
L 174.320411 174.404461 
L 174.421899 243.137239 
L 174.523387 202.398342 
L 174.624876 229.180207 
L 174.726364 212.057003 
L 174.929341 227.585478 
L 175.030829 227.027881 
L 175.132318 185.044316 
L 175.335294 221.55414 
L 175.436783 202.382757 
L 175.538271 210.274319 
L 175.63976 199.971606 
L 175.741248 236.838487 
L 175.944225 199.162695 
L 176.045713 234.434977 
L 176.24869 185.730062 
L 176.350178 210.517979 
L 176.451667 198.380168 
L 176.553155 200.551319 
L 176.654643 220.512524 
L 176.756132 209.664651 
L 176.85762 232.940827 
L 177.162085 199.697135 
L 177.263574 209.806879 
L 177.365062 199.711203 
L 177.46655 226.12022 
L 177.771015 183.273871 
L 177.973992 217.287862 
L 178.075481 209.728855 
L 178.176969 223.34605 
L 178.278457 207.212614 
L 178.379946 215.28278 
L 178.481434 235.942163 
L 178.582922 210.808462 
L 178.684411 214.546381 
L 178.785899 233.590944 
L 178.988876 188.305669 
L 179.090364 202.322532 
L 179.191853 200.992806 
L 179.293341 229.293563 
L 179.394829 202.918005 
L 179.496318 207.663069 
L 179.597806 202.129798 
L 179.699294 203.65623 
L 179.800783 229.477824 
L 179.902271 210.350351 
L 180.00376 220.720036 
L 180.105248 210.443666 
L 180.206736 222.710051 
L 180.308225 190.65941 
L 180.511201 222.683269 
L 180.61269 208.55457 
L 180.714178 225.232945 
L 180.815667 215.758752 
L 180.917155 221.617488 
L 181.018643 189.113431 
L 181.323108 215.19108 
L 181.424597 195.863805 
L 181.526085 203.612831 
L 181.627574 202.250196 
L 181.729062 209.832913 
L 181.83055 233.909051 
L 181.932039 211.049986 
L 182.033527 217.121836 
L 182.236504 194.701476 
L 182.337992 218.889901 
L 182.540969 184.155054 
L 182.642457 218.980534 
L 182.743946 184.903219 
L 182.845434 221.6264 
L 182.946922 208.91742 
L 183.048411 209.394713 
L 183.149899 209.049332 
L 183.251388 221.341845 
L 183.352876 217.751471 
L 183.454364 218.843742 
L 183.758829 176.845373 
L 183.860318 189.221479 
L 183.961806 216.468668 
L 184.164783 194.588963 
L 184.36776 210.017799 
L 184.469248 208.243146 
L 184.570736 196.401207 
L 184.672225 221.252947 
L 184.875202 202.101095 
L 184.97669 204.388114 
L 185.078178 205.412187 
L 185.179667 214.228116 
L 185.382643 177.899434 
L 185.58562 211.596672 
L 185.687109 197.823324 
L 185.890085 219.610265 
L 185.991574 208.249224 
L 186.093062 246.147075 
L 186.296039 213.714894 
L 186.397527 228.271511 
L 186.600504 214.947696 
L 186.701992 232.414876 
L 186.803481 214.466697 
L 186.904969 216.321356 
L 187.107946 191.794538 
L 187.310923 208.183666 
L 187.513899 205.155966 
L 187.615388 223.172486 
L 187.818364 203.921276 
L 187.919853 228.248972 
L 188.12283 192.66572 
L 188.224318 217.475183 
L 188.325806 211.80257 
L 188.427295 221.015735 
L 188.528783 198.128588 
L 188.630271 223.631575 
L 188.73176 211.454383 
L 188.833248 220.661488 
L 188.934737 207.45315 
L 189.036225 234.182099 
L 189.137713 188.925701 
L 189.239202 222.118131 
L 189.34069 207.24804 
L 189.645155 220.92858 
L 189.746644 194.46624 
L 189.848132 215.640882 
L 189.94962 204.071206 
L 190.051109 219.601449 
L 190.152597 217.345324 
L 190.355574 194.438149 
L 190.558551 228.498947 
L 190.660039 178.905101 
L 190.863016 230.175583 
L 190.964504 170.200536 
L 191.167481 228.959664 
L 191.370458 202.403404 
L 191.471946 204.953006 
L 191.573434 220.038824 
L 191.674923 181.25032 
L 191.877899 224.806373 
L 192.080876 188.327569 
L 192.283853 227.867976 
L 192.385341 192.596956 
L 192.48683 237.192305 
L 192.588318 225.275489 
L 192.689806 193.450331 
L 192.892783 211.260468 
L 192.994272 202.299955 
L 193.09576 209.608924 
L 193.197248 226.199958 
L 193.400225 188.126475 
L 193.603202 206.63917 
L 193.70469 173.357961 
L 193.806179 211.26003 
L 193.907667 210.995352 
L 194.212132 184.082521 
L 194.31362 210.899131 
L 194.415109 202.660796 
L 194.516597 227.086535 
L 194.618086 211.611681 
L 194.821062 221.643089 
L 194.922551 182.651261 
L 195.024039 218.491694 
L 195.125527 214.692142 
L 195.328504 188.131162 
L 195.429993 199.949371 
L 195.531481 166.90315 
L 195.632969 207.964261 
L 195.835946 202.844894 
L 195.937434 186.01654 
L 196.2419 220.490656 
L 196.444876 186.399698 
L 196.546365 212.641304 
L 196.647853 199.003626 
L 196.749341 203.081784 
L 196.85083 194.111079 
L 196.952318 218.273054 
L 197.053807 172.568999 
L 197.155295 225.10733 
L 197.358272 192.923156 
L 197.45976 202.198818 
L 197.561248 194.447267 
L 197.662737 213.648696 
L 197.865714 206.236681 
L 197.967202 183.644358 
L 198.06869 196.362202 
L 198.170179 194.800385 
L 198.271667 215.864489 
L 198.373155 192.260485 
L 198.474644 203.013557 
L 198.677621 177.044034 
L 198.880597 212.085745 
L 198.982086 218.699183 
L 199.083574 208.233294 
L 199.185062 211.66775 
L 199.286551 200.896443 
L 199.489528 211.30528 
L 199.591016 190.609118 
L 199.692504 219.61463 
L 199.793993 199.718524 
L 199.895481 211.859094 
L 200.098458 185.849118 
L 200.199946 210.301184 
L 200.301435 199.491827 
L 200.402923 203.270792 
L 200.504411 217.428499 
L 200.707388 201.603876 
L 200.808876 199.787387 
L 200.910365 208.625714 
L 201.011853 204.361638 
L 201.113342 222.34011 
L 201.417807 192.698707 
L 201.519295 211.735037 
L 201.722272 202.261501 
L 201.82376 202.623757 
L 201.925249 197.68237 
L 202.026737 231.853256 
L 202.229714 201.987223 
L 202.331202 219.929916 
L 202.43269 181.139869 
L 202.534179 203.040806 
L 202.635667 182.696422 
L 202.838644 218.46519 
L 202.940132 202.03887 
L 203.041621 229.600524 
L 203.143109 202.126708 
L 203.244597 203.810116 
L 203.346086 190.472843 
L 203.447574 195.010117 
L 203.650551 221.034589 
L 203.752039 180.28008 
L 203.955016 220.210233 
L 204.056504 220.756655 
L 204.157993 188.810361 
L 204.36097 215.884885 
L 204.462458 202.939363 
L 204.665435 214.717139 
L 204.868411 189.396663 
L 204.9699 190.532264 
L 205.172877 198.930761 
L 205.274365 230.486336 
L 205.375853 180.52141 
L 205.477342 200.317005 
L 205.781807 183.843858 
L 206.086272 213.23486 
L 206.18776 204.044354 
L 206.289249 216.881425 
L 206.390737 214.911206 
L 206.492225 217.403611 
L 206.695202 189.193409 
L 206.796691 158.409913 
L 206.999667 223.873447 
L 207.101156 185.964842 
L 207.304132 213.828492 
L 207.405621 201.185411 
L 207.507109 222.186526 
L 207.608598 200.952612 
L 207.710086 205.433499 
L 207.913063 198.573225 
L 208.116039 203.815079 
L 208.319016 197.979801 
L 208.521993 224.679987 
L 208.623481 204.818976 
L 208.72497 224.669005 
L 208.927946 190.241085 
L 209.029435 195.022958 
L 209.130923 218.992378 
L 209.232412 216.242879 
L 209.3339 198.987836 
L 209.435388 209.538444 
L 209.536877 208.285769 
L 209.638365 195.017042 
L 209.739853 217.955734 
L 209.841342 209.434515 
L 210.044319 218.68769 
L 210.145807 215.964768 
L 210.247295 193.694112 
L 210.450272 216.206884 
L 210.55176 206.786548 
L 210.653249 227.16654 
L 210.754737 214.014344 
L 210.856226 172.197824 
L 210.957714 204.640009 
L 211.059202 192.699445 
L 211.160691 204.228594 
L 211.363667 193.611975 
L 211.465156 219.212674 
L 211.668133 180.259985 
L 211.769621 214.652265 
L 211.972598 207.527816 
L 212.277063 184.61509 
L 212.48004 203.833466 
L 212.581528 184.654227 
L 212.683016 192.673451 
L 212.784505 224.534708 
L 212.885993 166.204159 
L 212.987481 177.142629 
L 213.08897 205.210821 
L 213.291947 183.520325 
L 213.393435 205.187316 
L 213.596412 186.624735 
L 213.6979 217.320369 
L 213.799388 211.313564 
L 213.900877 189.198096 
L 214.002365 195.847498 
L 214.103854 189.108704 
L 214.408319 231.389886 
L 214.712784 190.382028 
L 214.814272 194.607171 
L 215.017249 206.191262 
L 215.118737 199.075632 
L 215.220226 201.062287 
L 215.321714 181.807873 
L 215.524691 223.584447 
L 215.626179 220.53132 
L 215.727668 180.040355 
L 215.829156 219.005366 
L 215.930644 190.917963 
L 216.032133 205.862305 
L 216.235109 203.859957 
L 216.336598 184.18211 
L 216.438086 204.654441 
L 216.539575 202.313662 
L 216.641063 223.992814 
L 216.84404 194.047418 
L 216.945528 198.250259 
L 217.047016 181.424472 
L 217.148505 200.860037 
L 217.249993 197.297208 
L 217.351482 177.705817 
L 217.45297 224.042843 
L 217.655947 180.842733 
L 217.757435 187.91739 
L 217.858923 191.624868 
L 217.960412 189.35967 
L 218.0619 196.659692 
L 218.163389 177.720237 
L 218.366365 197.8367 
L 218.467854 198.980459 
L 218.569342 198.459839 
L 218.67083 217.998548 
L 218.772319 190.02554 
L 218.873807 203.058823 
L 218.975296 174.728199 
L 219.076784 202.205982 
L 219.178272 194.978354 
L 219.279761 197.475832 
L 219.381249 210.089205 
L 219.584226 173.346313 
L 219.787203 205.258682 
L 219.888691 206.019791 
L 219.990179 228.275285 
L 220.193156 197.145644 
L 220.294644 185.464535 
L 220.396133 186.807607 
L 220.497621 206.732142 
L 220.59911 204.67747 
L 220.700598 184.342545 
L 220.903575 207.968009 
L 221.005063 180.358585 
L 221.106551 185.473563 
L 221.411017 229.587995 
L 221.512505 191.845145 
L 221.715482 228.784552 
L 221.81697 177.32882 
L 222.121435 217.814867 
L 222.222924 187.554871 
L 222.324412 212.876782 
L 222.4259 181.330079 
L 222.628877 192.279137 
L 222.831854 197.220778 
L 222.933342 187.201304 
L 223.034831 206.516647 
L 223.237807 188.972166 
L 223.339296 191.680267 
L 223.440784 217.132836 
L 223.643761 196.083428 
L 223.745249 205.631468 
L 223.846738 173.960214 
L 223.948226 205.353551 
L 224.049714 201.974618 
L 224.151203 188.438096 
L 224.455668 210.463609 
L 224.658645 184.371682 
L 224.760133 192.457871 
L 224.861621 210.651753 
L 224.96311 174.163245 
L 225.166086 222.218681 
L 225.267575 185.320039 
L 225.57204 215.073531 
L 225.673528 165.474378 
L 225.775017 197.387344 
L 225.876505 191.308874 
L 225.977993 194.412511 
L 226.282459 188.306866 
L 226.586924 224.065092 
L 226.891389 183.581337 
L 226.992877 190.013827 
L 227.297342 238.860378 
L 227.398831 181.871587 
L 227.500319 207.075888 
L 227.601807 205.002633 
L 227.703296 196.561607 
L 227.804784 218.811079 
L 227.906273 203.47366 
L 228.007761 169.038063 
L 228.312226 221.211189 
L 228.413714 165.715025 
L 228.515203 218.830002 
L 228.616691 170.305994 
L 228.71818 228.798671 
L 228.921156 174.61699 
L 229.022645 209.98962 
L 229.225621 190.035945 
L 229.428598 218.911704 
L 229.530087 216.973399 
L 229.631575 189.995745 
L 229.834552 205.951047 
L 229.93604 183.722978 
L 230.037528 190.338561 
L 230.240505 215.048537 
L 230.341994 190.016859 
L 230.443482 205.360969 
L 230.54497 196.096145 
L 230.646459 174.650205 
L 230.849435 209.931565 
L 230.950924 195.069089 
L 231.052412 211.173425 
L 231.153901 174.012555 
L 231.255389 205.436104 
L 231.458366 192.765975 
L 231.559854 194.884013 
L 231.661342 225.549234 
L 231.864319 203.646452 
L 231.965808 192.424173 
L 232.270273 216.49759 
L 232.574738 189.412552 
L 232.676226 201.542124 
L 232.777715 188.040102 
L 232.879203 205.362095 
L 232.980691 200.417471 
L 233.08218 201.717405 
L 233.183668 207.97829 
L 233.285156 187.54031 
L 233.386645 208.360808 
L 233.589622 197.556518 
L 233.69111 215.268156 
L 233.792598 201.13632 
L 233.894087 206.701841 
L 234.097063 197.188698 
L 234.198552 207.880085 
L 234.30004 199.43927 
L 234.401529 177.243061 
L 234.503017 196.551929 
L 234.604505 179.540622 
L 234.705994 191.083905 
L 234.807482 184.848761 
L 234.90897 207.261814 
L 235.111947 194.022455 
L 235.416412 217.458831 
L 235.517901 174.131916 
L 235.619389 209.879878 
L 235.720877 176.233033 
L 235.923854 208.178288 
L 236.025343 186.61535 
L 236.126831 204.752907 
L 236.228319 187.326487 
L 236.329808 200.354984 
L 236.431296 188.529947 
L 236.532784 209.492599 
L 236.634273 183.370061 
L 236.735761 188.311183 
L 236.83725 208.67956 
L 236.938738 156.999733 
L 237.040226 187.44549 
L 237.141715 162.035845 
L 237.243203 172.004274 
L 237.44618 201.104524 
L 237.547668 200.939952 
L 237.649157 221.582635 
L 237.953622 172.823409 
L 238.05511 206.108757 
L 238.156598 182.083287 
L 238.258087 212.990055 
L 238.562552 189.331085 
L 238.66404 188.054413 
L 238.765529 180.696141 
L 238.867017 183.434826 
L 238.968505 191.046502 
L 239.069994 188.875286 
L 239.171482 171.469182 
L 239.272971 201.865373 
L 239.374459 183.190948 
L 239.475947 220.594645 
L 239.577436 188.383429 
L 239.678924 201.313613 
L 239.780412 194.233411 
L 239.881901 179.155807 
L 239.983389 191.808393 
L 240.186366 172.755594 
L 240.287854 188.44103 
L 240.389343 177.06793 
L 240.490831 198.739133 
L 240.592319 194.086238 
L 240.693808 201.504999 
L 240.795296 178.771943 
L 240.998273 201.16737 
L 241.20125 178.63931 
L 241.404226 207.416834 
L 241.505715 191.710459 
L 241.607203 222.294436 
L 241.708692 182.401522 
L 241.911668 200.271553 
L 242.013157 180.73568 
L 242.114645 213.180463 
L 242.216133 165.127177 
L 242.41911 200.859752 
L 242.520599 178.432165 
L 242.622087 182.923682 
L 242.723575 157.624952 
L 242.825064 196.180627 
L 242.926552 194.825365 
L 243.02804 214.48504 
L 243.129529 197.815913 
L 243.231017 203.420468 
L 243.332506 199.428727 
L 243.433994 218.167904 
L 243.535482 168.772709 
L 243.738459 233.386919 
L 243.941436 201.44059 
L 244.042924 209.311778 
L 244.144413 176.687304 
L 244.245901 194.566857 
L 244.347389 192.161137 
L 244.448878 183.641234 
L 244.550366 188.303739 
L 244.651854 178.224728 
L 244.753343 208.453248 
L 244.854831 200.267265 
L 244.95632 182.636722 
L 245.057808 228.991582 
L 245.260785 184.90837 
L 245.362273 199.092419 
L 245.463761 178.520847 
L 245.56525 180.320678 
L 245.666738 209.377961 
L 245.869715 174.510175 
L 246.072692 206.018734 
L 246.17418 179.061413 
L 246.377157 183.862534 
L 246.478645 181.309494 
L 246.580134 235.057135 
L 246.78311 165.355391 
L 246.986087 188.69095 
L 247.087575 181.348454 
L 247.189064 186.50035 
L 247.290552 181.914243 
L 247.595017 205.798473 
L 247.696506 205.668632 
L 247.797994 211.061464 
L 247.899482 206.59478 
L 248.000971 165.54439 
L 248.203948 200.053804 
L 248.305436 196.61133 
L 248.406924 189.279314 
L 248.508413 200.372438 
L 248.711389 179.514806 
L 248.812878 191.26367 
L 249.015855 177.812018 
L 249.117343 194.565888 
L 249.218831 186.451168 
L 249.32032 195.022617 
L 249.421808 190.90978 
L 249.624785 198.079294 
L 249.827762 182.116567 
L 249.92925 188.166524 
L 250.030738 183.015912 
L 250.233715 207.610893 
L 250.436692 180.105948 
L 250.53818 189.312651 
L 250.639669 170.45212 
L 250.741157 176.793069 
L 250.842645 151.051301 
L 251.045622 204.303618 
L 251.248599 197.937053 
L 251.350087 182.796631 
L 251.451576 220.93809 
L 251.553064 170.498519 
L 251.756041 193.104647 
L 251.857529 205.130673 
L 252.060506 189.207247 
L 252.161994 191.124152 
L 252.263483 184.398665 
L 252.466459 202.213752 
L 252.567948 181.236553 
L 252.669436 187.711906 
L 252.770924 186.240884 
L 252.872413 173.704554 
L 252.973901 203.83626 
L 253.07539 201.367646 
L 253.176878 170.702299 
L 253.278366 210.379668 
L 253.379855 207.821826 
L 253.481343 176.941619 
L 253.68432 187.185297 
L 253.785808 189.996077 
L 253.887297 188.170729 
L 253.988785 189.915802 
L 254.090273 168.888571 
L 254.191762 194.265108 
L 254.29325 190.789269 
L 254.394738 162.394075 
L 254.496227 187.963992 
L 254.597715 155.963792 
L 254.699204 189.797178 
L 254.800692 168.409596 
L 254.90218 212.183724 
L 255.003669 185.916801 
L 255.105157 211.068696 
L 255.206645 175.815055 
L 255.308134 205.594056 
L 255.409622 183.854821 
L 255.714087 211.310417 
L 255.917064 162.515706 
L 256.018552 191.958021 
L 256.120041 174.36337 
L 256.221529 188.442021 
L 256.323018 174.861772 
L 256.424506 214.009349 
L 256.627483 173.675021 
L 256.728971 189.759671 
L 256.830459 188.60187 
L 256.931948 193.544038 
L 257.033436 170.598069 
L 257.236413 186.532033 
L 257.337901 177.803758 
L 257.43939 178.553828 
L 257.540878 183.954297 
L 257.642366 164.565374 
L 257.743855 187.820218 
L 257.845343 182.870336 
L 257.946832 196.176711 
L 258.149808 163.750311 
L 258.352785 203.108946 
L 258.454273 172.182242 
L 258.555762 188.742632 
L 258.65725 185.149252 
L 258.758739 187.149665 
L 258.860227 185.303491 
L 258.961715 174.075846 
L 259.164692 200.981104 
L 259.26618 185.037318 
L 259.367669 209.510518 
L 259.469157 206.081868 
L 259.570646 159.073124 
L 259.773622 186.187188 
L 259.875111 168.04963 
L 259.976599 201.034637 
L 260.281064 172.901712 
L 260.382553 178.331832 
L 260.484041 222.559023 
L 260.687018 178.713837 
L 260.788506 190.743331 
L 260.889994 148.714266 
L 261.19446 201.590564 
L 261.498925 168.912389 
L 261.600413 172.441618 
L 261.701901 170.194001 
L 261.80339 198.514924 
L 261.904878 164.604991 
L 262.006367 205.039878 
L 262.209343 178.691812 
L 262.615297 207.193574 
L 262.818274 166.383566 
L 263.122739 205.859342 
L 263.325715 152.367824 
L 263.427204 210.431931 
L 263.630181 194.133526 
L 263.731669 192.415513 
L 263.934646 160.740926 
L 264.036134 169.473373 
L 264.137622 176.398825 
L 264.340599 200.182659 
L 264.442088 195.455357 
L 264.543576 161.417266 
L 264.746553 190.240759 
L 264.848041 186.379781 
L 264.949529 171.714996 
L 265.051018 202.652301 
L 265.152506 163.063753 
L 265.355483 186.614862 
L 265.456971 177.011677 
L 265.55846 180.217692 
L 265.659948 188.325416 
L 265.761436 186.951572 
L 265.862925 195.835611 
L 265.964413 173.677807 
L 266.16739 196.959204 
L 266.370367 163.734353 
L 266.573343 191.720791 
L 266.77632 154.73521 
L 266.877809 203.808587 
L 266.979297 177.17329 
L 267.080785 179.69267 
L 267.182274 165.779884 
L 267.283762 168.205098 
L 267.486739 206.891661 
L 267.588227 170.732693 
L 267.791204 196.051978 
L 267.892692 165.633184 
L 267.994181 195.434975 
L 268.095669 161.847232 
L 268.298646 177.459995 
L 268.400134 177.583311 
L 268.603111 207.690826 
L 268.806088 173.609212 
L 269.009064 193.654634 
L 269.110553 181.422639 
L 269.212041 182.837334 
L 269.31353 195.474333 
L 269.415018 166.851999 
L 269.516506 206.583761 
L 269.617995 172.918378 
L 269.719483 175.832713 
L 269.820971 166.718129 
L 269.92246 195.878928 
L 270.125437 149.73466 
L 270.328413 179.651658 
L 270.429902 173.244864 
L 270.53139 179.762159 
L 270.632878 149.202923 
L 270.835855 182.104768 
L 270.937344 177.156608 
L 271.038832 186.430093 
L 271.14032 163.177749 
L 271.343297 203.879239 
L 271.546274 149.306418 
L 271.749251 178.784768 
L 271.850739 170.841708 
L 271.952227 189.699562 
L 272.053716 177.787912 
L 272.155204 179.656593 
L 272.256692 171.088264 
L 272.358181 202.705983 
L 272.561158 167.772686 
L 272.764134 194.321899 
L 272.865623 150.270407 
L 273.068599 188.164501 
L 273.170088 204.255172 
L 273.271576 169.100003 
L 273.373065 169.48794 
L 273.576041 195.50048 
L 273.67753 179.828345 
L 273.880506 193.02883 
L 273.981995 180.818254 
L 274.083483 194.512851 
L 274.28646 170.357979 
L 274.489437 198.904951 
L 274.590925 156.388236 
L 274.692413 192.60035 
L 274.793902 188.486342 
L 274.996879 170.130513 
L 275.098367 182.48408 
L 275.199855 172.038347 
L 275.402832 192.695055 
L 275.605809 142.443351 
L 275.808786 176.358901 
L 275.910274 151.786376 
L 276.113251 185.181168 
L 276.214739 171.451034 
L 276.417716 192.361368 
L 276.519204 191.08133 
L 276.620693 166.381855 
L 276.722181 204.724842 
L 276.823669 169.149039 
L 277.026646 208.553284 
L 277.128134 204.409645 
L 277.229623 149.192503 
L 277.331111 180.496284 
L 277.4326 176.345505 
L 277.534088 156.976007 
L 277.635576 163.956547 
L 277.737065 197.618541 
L 277.838553 164.799003 
L 278.04153 182.246687 
L 278.143018 176.890365 
L 278.244507 158.639071 
L 278.345995 189.982911 
L 278.447483 171.277393 
L 278.548972 177.17729 
L 278.65046 203.03764 
L 278.954925 158.025454 
L 279.157902 168.071603 
L 279.25939 188.49553 
L 279.360879 150.515372 
L 279.563855 191.110926 
L 279.766832 163.427422 
L 279.868321 176.257375 
L 280.071297 160.2653 
L 280.274274 188.594262 
L 280.578739 149.052587 
L 280.680228 199.529012 
L 280.781716 177.85639 
L 280.883204 184.317157 
L 280.984693 170.940556 
L 281.086181 211.081268 
L 281.187669 159.532455 
L 281.390646 202.331257 
L 281.593623 166.658931 
L 281.695111 198.504035 
L 281.7966 175.335634 
L 281.898088 190.659396 
L 282.202553 172.514581 
L 282.304042 181.945589 
L 282.507018 163.159901 
L 282.608507 179.008214 
L 282.811483 153.66429 
L 283.01446 184.002076 
L 283.115949 198.827457 
L 283.217437 176.486 
L 283.318925 179.86727 
L 283.420414 163.253356 
L 283.521902 196.378122 
L 283.724879 160.346261 
L 283.927856 185.335407 
L 284.029344 195.206549 
L 284.130832 136.191332 
L 284.333809 192.923877 
L 284.739763 161.898985 
L 285.044228 194.744136 
L 285.348693 151.354924 
L 285.55167 174.876978 
L 285.653158 188.619222 
L 285.754646 177.771205 
L 285.856135 179.639396 
L 285.957623 178.596307 
L 286.059111 187.082893 
L 286.1606 165.321004 
L 286.465065 197.812645 
L 286.566553 165.757001 
L 286.668042 165.800109 
L 286.76953 184.970902 
L 286.871018 158.401066 
L 286.972507 192.484367 
L 287.073995 172.964808 
L 287.175484 176.526137 
L 287.276972 191.635399 
L 287.479949 147.754962 
L 287.682925 179.041104 
L 287.784414 165.795915 
L 288.088879 178.285055 
L 288.190367 151.450212 
L 288.393344 179.620283 
L 288.494832 173.469026 
L 288.596321 182.58972 
L 288.697809 180.614604 
L 288.799298 181.03146 
L 288.900786 188.13315 
L 289.002274 160.369417 
L 289.103763 175.802402 
L 289.205251 163.497457 
L 289.306739 181.190847 
L 289.408228 172.298314 
L 289.509716 181.677127 
L 289.611205 160.884142 
L 289.91567 194.954207 
L 290.017158 167.106529 
L 290.118646 181.317842 
L 290.220135 171.224315 
L 290.321623 178.070173 
L 290.423112 157.056582 
L 290.727577 179.65911 
L 290.930553 145.762424 
L 291.032042 182.630376 
L 291.13353 168.01515 
L 291.235019 194.366786 
L 291.336507 150.132527 
L 291.437995 176.120551 
L 291.539484 158.954476 
L 291.640972 195.224967 
L 291.74246 144.134217 
L 291.843949 175.310845 
L 291.945437 162.174061 
L 292.148414 173.67973 
L 292.249902 145.485421 
L 292.351391 193.758973 
L 292.554367 156.560601 
L 292.757344 171.366706 
L 292.858833 171.668278 
L 292.960321 187.341858 
L 293.163298 162.005984 
L 293.467763 176.375759 
L 293.569251 173.271492 
L 293.67074 150.93664 
L 293.772228 199.362844 
L 293.873716 168.48018 
L 293.975205 173.758255 
L 294.076693 147.849782 
L 294.178181 168.094803 
L 294.27967 147.319773 
L 294.381158 199.57919 
L 294.482647 162.075155 
L 294.584135 164.623587 
L 294.685623 148.472125 
L 294.787112 192.368286 
L 294.990088 167.509642 
L 295.091577 175.600269 
L 295.193065 150.723664 
L 295.294554 173.21466 
L 295.396042 138.755146 
L 295.599019 154.359635 
L 295.700507 159.98124 
L 295.801995 183.454078 
L 296.207949 148.869373 
L 296.410926 180.178831 
L 296.512414 155.202332 
L 296.613902 179.338105 
L 296.816879 150.102066 
L 297.019856 172.568565 
L 297.222833 158.67385 
L 297.324321 167.07489 
L 297.425809 135.301836 
L 297.628786 181.594609 
L 297.730275 181.166784 
L 297.831763 175.498038 
L 297.933251 198.483052 
L 298.03474 175.970441 
L 298.136228 176.258805 
L 298.339205 160.623863 
L 298.440693 184.604224 
L 298.64367 140.392225 
L 298.745158 169.482563 
L 298.846647 143.586906 
L 298.948135 163.470164 
L 299.049623 137.471778 
L 299.151112 150.050012 
L 299.2526 188.862227 
L 299.455577 150.799783 
L 299.658554 166.50934 
L 299.760042 147.513861 
L 299.86153 176.156107 
L 300.064507 161.066153 
L 300.165996 170.541747 
L 300.267484 165.940583 
L 300.368972 154.35973 
L 300.470461 159.265725 
L 300.673437 181.436858 
L 300.774926 176.815967 
L 300.876414 165.304707 
L 300.977903 167.586953 
L 301.079391 177.27418 
L 301.180879 173.83057 
L 301.282368 187.139925 
L 301.383856 158.993882 
L 301.485344 165.576852 
L 301.586833 183.204268 
L 301.78981 145.371037 
L 301.891298 175.505442 
L 301.992786 145.660741 
L 302.094275 169.35946 
L 302.195763 161.748547 
L 302.297251 163.14491 
L 302.39874 144.191064 
L 302.703205 183.348296 
L 302.906182 189.052469 
L 303.00767 163.512616 
L 303.109158 178.019627 
L 303.210647 165.244116 
L 303.413624 175.137241 
L 303.515112 170.879928 
L 303.718089 150.331991 
L 303.819577 158.366006 
L 303.921065 178.040636 
L 304.124042 153.597215 
L 304.225531 159.547824 
L 304.327019 172.224842 
L 304.428507 153.144783 
L 304.529996 157.236886 
L 304.631484 208.493672 
L 304.732972 153.915399 
L 304.834461 190.944648 
L 304.935949 153.529706 
L 305.037438 165.327791 
L 305.138926 145.737428 
L 305.341903 175.783721 
L 305.544879 147.459756 
L 305.747856 164.37147 
L 305.849345 151.8812 
L 306.052321 162.637053 
L 306.255298 139.899588 
L 306.458275 166.47919 
L 306.559763 140.580413 
L 306.76274 151.74993 
L 306.864228 179.74503 
L 306.965717 160.023329 
L 307.067205 172.78851 
L 307.270182 158.419844 
L 307.37167 160.393542 
L 307.473159 168.679338 
L 307.574647 143.284215 
L 307.676135 186.269828 
L 307.777624 151.043732 
L 307.879112 188.500317 
L 307.9806 155.97387 
L 308.082089 174.322356 
L 308.183577 148.679684 
L 308.285066 160.104149 
L 308.386554 157.712408 
L 308.488042 176.009938 
L 308.589531 170.683417 
L 308.792507 152.626971 
L 308.893996 118.572047 
L 308.995484 157.747504 
L 309.096973 146.775257 
L 309.198461 183.439056 
L 309.299949 180.093706 
L 309.401438 165.914705 
L 309.502926 178.06523 
L 309.604414 139.106347 
L 309.705903 166.5456 
L 309.90888 138.938453 
L 310.010368 159.816618 
L 310.111856 153.108573 
L 310.213345 161.141797 
L 310.314833 152.469321 
L 310.416321 153.213913 
L 310.51781 161.958802 
L 310.720787 135.071582 
L 310.923763 155.22743 
L 311.025252 158.087545 
L 311.228228 174.67989 
L 311.329717 155.046826 
L 311.431205 179.530913 
L 311.532694 170.734931 
L 311.73567 131.769652 
L 311.837159 183.614079 
L 311.938647 135.830532 
L 312.040135 162.421526 
L 312.141624 159.520113 
L 312.243112 160.892707 
L 312.344601 143.531227 
L 312.446089 182.445787 
L 312.547577 152.474482 
L 312.649066 172.730001 
L 312.852042 136.561083 
L 312.953531 158.877673 
L 313.156508 152.827121 
L 313.257996 170.301087 
L 313.460973 133.865641 
L 313.765438 165.136939 
L 313.866926 167.469192 
L 313.968415 133.533578 
L 314.069903 137.776791 
L 314.374368 199.171927 
L 314.678833 137.653734 
L 314.780322 167.350902 
L 314.983298 138.906362 
L 315.287763 176.608374 
L 315.389252 175.014068 
L 315.49074 151.497667 
L 315.592229 160.388276 
L 315.693717 155.646194 
L 315.795205 158.054247 
L 315.896694 147.687991 
L 315.998182 168.63678 
L 316.09967 162.073069 
L 316.201159 129.66799 
L 316.302647 168.695317 
L 316.404136 161.129918 
L 316.505624 165.538547 
L 316.708601 142.067436 
L 316.810089 164.056751 
L 316.911577 163.035113 
L 317.013066 160.772118 
L 317.114554 148.994214 
L 317.216043 167.339658 
L 317.317531 162.018013 
L 317.419019 190.902149 
L 317.723484 143.339666 
L 317.824973 152.024477 
L 318.02795 176.493636 
L 318.129438 153.610197 
L 318.230926 180.048254 
L 318.332415 140.584406 
L 318.535391 179.22958 
L 318.63688 169.879252 
L 318.738368 166.323335 
L 318.839857 166.978867 
L 318.941345 177.315703 
L 319.144322 165.532702 
L 319.24581 165.869432 
L 319.347298 139.154808 
L 319.550275 169.798042 
L 319.651764 160.197545 
L 319.753252 168.044032 
L 319.956229 142.496849 
L 320.057717 151.478467 
L 320.159205 121.950482 
L 320.362182 168.220421 
L 320.565159 139.216742 
L 320.666647 138.957642 
L 320.768136 170.628084 
L 320.971112 138.253837 
L 321.072601 179.02975 
L 321.174089 161.794819 
L 321.275578 175.187536 
L 321.377066 167.968577 
L 321.478554 169.074029 
L 321.580043 136.21662 
L 321.783019 166.755001 
L 321.884508 169.199427 
L 321.985996 152.081186 
L 322.087485 154.243742 
L 322.188973 134.546164 
L 322.290461 146.72919 
L 322.39195 174.680359 
L 322.493438 162.990328 
L 322.594926 138.308478 
L 322.696415 162.77111 
L 322.797903 128.571203 
L 322.899392 169.58405 
L 323.00088 145.31035 
L 323.102368 166.042861 
L 323.203857 160.893519 
L 323.305345 137.529156 
L 323.406833 155.24395 
L 323.508322 141.55799 
L 323.60981 146.436804 
L 323.711299 142.317439 
L 323.812787 166.068525 
L 324.015764 146.939191 
L 324.117252 165.345254 
L 324.21874 129.363818 
L 324.320229 164.199728 
L 324.421717 157.229883 
L 324.624694 183.846492 
L 324.726182 126.677034 
L 324.929159 159.114337 
L 325.030647 155.45007 
L 325.132136 131.935303 
L 325.233624 166.456014 
L 325.335112 142.563012 
L 325.538089 160.959835 
L 325.741066 137.881517 
L 325.944043 163.248939 
L 326.045531 168.999273 
L 326.147019 136.004053 
L 326.349996 178.702277 
L 326.451485 131.407064 
L 326.552973 171.651689 
L 326.654461 140.443645 
L 326.75595 149.032246 
L 326.857438 147.466153 
L 326.958926 160.059449 
L 327.060415 146.237326 
L 327.161903 175.661696 
L 327.36488 128.81245 
L 327.466368 138.516701 
L 327.567857 180.555527 
L 327.872322 144.067925 
L 328.075299 158.173856 
L 328.278275 134.046428 
L 328.379764 154.238219 
L 328.481252 140.253256 
L 328.58274 188.154707 
L 328.785717 155.32376 
L 328.887206 157.698086 
L 329.090182 135.818658 
L 329.191671 143.118428 
L 329.394647 172.435459 
L 329.496136 142.236855 
L 329.597624 176.906037 
L 329.699113 140.742645 
L 329.902089 167.152549 
L 330.003578 145.892888 
L 330.206554 150.486214 
L 330.308043 151.126005 
L 330.51102 136.403398 
L 330.612508 142.554544 
L 330.713996 135.031107 
L 330.815485 150.292378 
L 330.916973 126.140908 
L 331.221438 165.308058 
L 331.322927 146.417399 
L 331.424415 168.289668 
L 331.525903 163.41012 
L 331.627392 145.784013 
L 331.830368 162.67877 
L 332.033345 147.995588 
L 332.236322 154.421869 
L 332.33781 136.510001 
L 332.540787 152.037677 
L 332.642275 113.026119 
L 332.743764 145.889212 
L 332.845252 132.239545 
L 333.048229 168.306559 
L 333.251206 152.334828 
L 333.352694 155.598829 
L 333.454182 128.97801 
L 333.555671 150.040677 
L 333.657159 141.561434 
L 333.860136 154.43643 
L 333.961624 147.551249 
L 334.063113 123.205593 
L 334.164601 159.135138 
L 334.266089 136.835164 
L 334.367578 162.776991 
L 334.773531 126.206982 
L 334.976508 159.836859 
L 335.077996 138.13554 
L 335.179485 152.788325 
L 335.280973 144.000194 
L 335.382462 149.095714 
L 335.48395 175.534167 
L 335.686927 138.807131 
L 335.788415 133.782525 
L 335.889903 121.066064 
L 335.991392 164.440813 
L 336.09288 139.580343 
L 336.194369 141.085572 
L 336.295857 153.044834 
L 336.498834 139.629249 
L 336.600322 164.489374 
L 336.70181 143.205321 
L 336.803299 160.032931 
L 336.904787 156.126438 
L 337.006276 172.355155 
L 337.209252 149.482163 
L 337.310741 138.5119 
L 337.412229 146.421033 
L 337.513717 168.742573 
L 337.615206 133.839384 
L 337.716694 148.007663 
L 338.122648 117.665202 
L 338.224136 147.094032 
L 338.325624 141.488541 
L 338.427113 161.582298 
L 338.528601 130.513226 
L 338.731578 171.974822 
L 338.833066 133.720523 
L 338.934555 153.272249 
L 339.036043 134.389511 
L 339.137531 139.698259 
L 339.340508 184.942285 
L 339.543485 145.182989 
L 339.644973 163.085088 
L 339.746462 154.788849 
L 339.84795 166.427458 
L 339.949438 142.76837 
L 340.050927 143.866609 
L 340.152415 152.113824 
L 340.355392 123.329448 
L 340.45688 136.798647 
L 340.558369 171.034712 
L 340.659857 160.91132 
L 340.761345 138.948507 
L 340.862834 153.914409 
L 340.964322 151.816319 
L 341.065811 131.676648 
L 341.167299 137.25511 
L 341.268787 125.563475 
L 341.370276 150.788016 
L 341.471764 124.583704 
L 341.573252 152.504467 
L 341.674741 122.687995 
L 341.979206 167.929516 
L 342.182183 147.903703 
L 342.283671 131.709737 
L 342.486648 150.317142 
L 342.588136 128.389027 
L 342.791113 152.261376 
L 342.892601 135.531903 
L 342.99409 150.915278 
L 343.095578 134.218061 
L 343.197066 152.374331 
L 343.400043 141.422297 
L 343.501532 149.00506 
L 343.60302 143.730222 
L 343.704508 131.667688 
L 343.805997 137.490263 
L 343.907485 136.423819 
L 344.008973 152.560804 
L 344.110462 130.940667 
L 344.21195 133.55103 
L 344.313439 128.650699 
L 344.414927 153.693949 
L 344.617904 133.888529 
L 344.719392 151.851518 
L 344.82088 146.257939 
L 345.023857 114.595314 
L 345.226834 129.190431 
L 345.328322 157.52534 
L 345.429811 135.274323 
L 345.632787 157.957893 
L 345.835764 140.844708 
L 346.038741 150.414479 
L 346.140229 130.903062 
L 346.241718 140.24997 
L 346.343206 138.909208 
L 346.444694 140.626229 
L 346.647671 162.024883 
L 346.74916 137.609752 
L 346.952136 171.169361 
L 347.053625 147.666453 
L 347.155113 157.763363 
L 347.256601 131.757749 
L 347.459578 134.592153 
L 347.561067 151.390481 
L 347.662555 131.100426 
L 347.96702 148.141681 
L 348.068508 128.584513 
L 348.169997 148.345722 
L 348.474462 113.668192 
L 348.57595 117.181815 
L 348.677439 128.198328 
L 348.778927 163.041719 
L 349.083392 117.114312 
L 349.184881 151.171209 
L 349.286369 135.39159 
L 349.387857 139.482889 
L 349.489346 154.4563 
L 349.692322 135.038386 
L 349.793811 158.971551 
L 349.895299 122.996798 
L 349.996788 170.925507 
L 350.199764 126.501549 
L 350.301253 157.844639 
L 350.402741 135.425701 
L 350.504229 159.251217 
L 350.605718 141.763713 
L 350.707206 173.911788 
L 350.808695 152.541388 
L 350.910183 162.649832 
L 351.011671 146.063823 
L 351.11316 146.215302 
L 351.214648 149.917834 
L 351.316136 128.542178 
L 351.417625 152.921302 
L 351.620602 116.359966 
L 351.925067 157.957928 
L 352.026555 150.093163 
L 352.128043 129.546257 
L 352.229532 137.461994 
L 352.33102 126.094372 
L 352.432509 128.464196 
L 352.533997 137.546518 
L 352.635485 132.680859 
L 352.736974 112.60777 
L 352.838462 118.936981 
L 352.93995 143.803893 
L 353.041439 125.025886 
L 353.142927 130.836818 
L 353.244416 122.813301 
L 353.345904 129.507739 
L 353.548881 162.63678 
L 353.751857 111.491976 
L 353.853346 150.273665 
L 353.954834 141.713534 
L 354.056323 153.958572 
L 354.157811 121.827983 
L 354.259299 172.274965 
L 354.360788 171.630792 
L 354.462276 133.338029 
L 354.665253 145.642144 
L 354.766741 143.011864 
L 354.86823 130.820722 
L 355.071206 154.421453 
L 355.172695 151.921307 
L 355.274183 125.558758 
L 355.47716 158.432952 
L 355.680137 130.947574 
L 355.781625 118.961427 
L 355.984602 147.705466 
L 356.187578 127.517576 
L 356.390555 138.621787 
L 356.492044 134.162734 
L 356.593532 138.904647 
L 356.69502 134.224783 
L 356.897997 154.444154 
L 356.999485 149.846227 
L 357.100974 128.375055 
L 357.202462 133.891644 
L 357.303951 122.522538 
L 357.506927 154.097528 
L 357.608416 120.886645 
L 357.709904 137.708971 
L 357.811392 118.790832 
L 357.912881 128.686876 
L 358.014369 105.587445 
L 358.115858 140.458484 
L 358.217346 124.174795 
L 358.318834 124.26955 
L 358.420323 145.196991 
L 358.521811 139.60934 
L 358.724788 159.47882 
L 358.927765 125.450639 
L 359.130741 131.935834 
L 359.23223 124.313976 
L 359.333718 145.332015 
L 359.435206 140.693914 
L 359.536695 126.011733 
L 359.638183 130.383961 
L 359.739672 139.668994 
L 359.84116 117.435549 
L 359.942648 155.270363 
L 360.247113 124.584455 
L 360.45009 154.627356 
L 360.653067 120.495691 
L 360.856044 127.205648 
L 360.957532 163.311106 
L 361.160509 129.07322 
L 361.261997 136.817382 
L 361.363486 128.407032 
L 361.464974 154.299276 
L 361.566462 136.794188 
L 361.769439 164.144182 
L 361.972416 123.530553 
L 362.276881 158.269584 
L 362.378369 121.002813 
L 362.479858 136.186575 
L 362.581346 107.103089 
L 362.682834 121.809954 
L 362.784323 164.496923 
L 362.885811 124.446349 
L 362.9873 155.59669 
L 363.291765 136.599191 
L 363.393253 129.433688 
L 363.59623 151.799613 
L 363.697718 126.374065 
L 363.799207 135.233811 
L 363.900695 132.475363 
L 364.002183 166.76409 
L 364.103672 137.493662 
L 364.306648 148.194248 
L 364.408137 121.446029 
L 364.509625 150.654835 
L 364.611114 150.576244 
L 364.81409 128.129614 
L 364.915579 147.433434 
L 365.118555 113.525402 
L 365.220044 147.281729 
L 365.321532 138.0189 
L 365.524509 158.821463 
L 365.727486 123.680109 
L 365.828974 105.112446 
L 365.930462 147.247451 
L 366.133439 114.704313 
L 366.234928 131.257288 
L 366.437904 121.391124 
L 366.539393 105.39596 
L 366.742369 134.809242 
L 366.843858 146.456014 
L 367.046835 118.978958 
L 367.249811 145.056409 
L 367.3513 132.42215 
L 367.452788 135.548406 
L 367.554276 129.801385 
L 367.655765 157.692074 
L 367.858742 124.896556 
L 367.96023 127.042223 
L 368.061718 133.508414 
L 368.163207 159.595811 
L 368.366183 117.967143 
L 368.56916 162.106193 
L 368.670649 155.564972 
L 368.873625 127.75456 
L 368.975114 120.275491 
L 369.17809 154.798935 
L 369.279579 144.878762 
L 369.381067 121.107424 
L 369.482556 130.904326 
L 369.584044 123.484702 
L 369.685532 126.565653 
L 369.787021 135.80322 
L 369.888509 135.318318 
L 369.989997 105.839205 
L 370.192974 134.551579 
L 370.294463 126.049776 
L 370.395951 129.384313 
L 370.497439 163.852648 
L 370.700416 106.111507 
L 370.801904 143.782959 
L 370.903393 111.358541 
L 371.004881 136.12409 
L 371.207858 116.813219 
L 371.309346 142.730687 
L 371.410835 114.246785 
L 371.512323 149.823743 
L 371.7153 140.755189 
L 371.816788 122.519686 
L 372.019765 154.078987 
L 372.121253 135.14902 
L 372.222742 143.342998 
L 372.32423 121.338899 
L 372.425718 136.880115 
L 372.527207 130.843529 
L 372.628695 137.712131 
L 372.730184 125.508996 
L 372.831672 134.425723 
L 372.93316 127.015368 
L 373.034649 169.288308 
L 373.237625 125.624778 
L 373.339114 134.478859 
L 373.542091 120.813822 
L 373.643579 112.580134 
L 373.948044 164.512918 
L 374.049532 154.56812 
L 374.151021 131.862893 
L 374.252509 133.559289 
L 374.353998 127.240261 
L 374.556974 141.852217 
L 374.759951 121.599336 
L 374.861439 134.793866 
L 375.165905 123.660301 
L 375.267393 147.520426 
L 375.368881 141.334282 
L 375.47037 148.707434 
L 375.673346 119.026175 
L 375.774835 122.84923 
L 375.876323 146.652281 
L 375.977812 123.274742 
L 376.180788 137.793261 
L 376.282277 150.987771 
L 376.485253 120.676252 
L 376.586742 161.85554 
L 376.789719 97.754418 
L 376.992695 126.599386 
L 377.094184 141.018918 
L 377.195672 140.132556 
L 377.29716 131.473682 
L 377.398649 106.99811 
L 377.601626 142.80993 
L 377.703114 113.07543 
L 377.804602 134.342633 
L 377.906091 105.463548 
L 378.109067 144.545937 
L 378.312044 115.697264 
L 378.413533 114.865578 
L 378.616509 144.162554 
L 378.717998 137.131949 
L 378.819486 159.03101 
L 379.123951 124.037668 
L 379.22544 134.565004 
L 379.326928 130.437915 
L 379.428416 135.322765 
L 379.529905 118.660553 
L 379.631393 142.548753 
L 379.83437 101.025999 
L 380.037347 137.027526 
L 380.138835 137.12858 
L 380.240323 111.78505 
L 380.341812 145.621974 
L 380.4433 143.085407 
L 380.646277 147.728767 
L 380.747765 144.309335 
L 380.950742 113.121607 
L 381.05223 139.173436 
L 381.255207 118.000793 
L 381.559672 150.226073 
L 381.661161 114.232587 
L 381.762649 121.655784 
L 381.864137 120.453545 
L 381.965626 144.842285 
L 382.168602 119.605455 
L 382.270091 124.140058 
L 382.371579 139.46105 
L 382.473068 113.956406 
L 382.574556 150.743669 
L 382.777533 112.866215 
L 382.879021 105.713805 
L 383.081998 142.932372 
L 383.183486 116.905771 
L 383.284975 138.518951 
L 383.386463 127.714674 
L 383.58944 141.367603 
L 383.690928 123.607387 
L 383.792416 148.408726 
L 383.893905 119.614959 
L 384.096882 153.241889 
L 384.299858 121.821047 
L 384.502835 116.154617 
L 384.604323 162.105635 
L 384.908789 105.877408 
L 385.010277 116.505671 
L 385.111765 100.274998 
L 385.213254 135.416378 
L 385.314742 123.79898 
L 385.41623 143.692218 
L 385.517719 133.578684 
L 385.619207 138.346234 
L 385.720696 136.847919 
L 386.126649 119.661051 
L 386.431114 135.025669 
L 386.532603 131.873104 
L 386.634091 133.900757 
L 386.837068 114.786166 
L 386.938556 108.834982 
L 387.040044 138.837782 
L 387.141533 120.441055 
L 387.243021 147.433182 
L 387.445998 111.463269 
L 387.547486 129.297086 
L 387.648975 111.550695 
L 387.750463 143.575336 
L 387.851951 139.923527 
L 388.054928 112.16602 
L 388.257905 133.501102 
L 388.359393 141.272308 
L 388.56237 108.768222 
L 388.968324 134.891822 
L 389.069812 116.880275 
L 389.272789 129.157459 
L 389.374277 113.591598 
L 389.577254 138.700336 
L 389.678742 113.348113 
L 389.983207 142.57596 
L 390.186184 92.504092 
L 390.287672 132.053522 
L 390.389161 131.205871 
L 390.490649 104.214748 
L 390.795114 149.019096 
L 390.896603 108.410362 
L 390.998091 116.504892 
L 391.099579 114.161172 
L 391.302556 136.61587 
L 391.505533 124.054461 
L 391.607021 138.151045 
L 391.70851 117.832663 
L 391.809998 144.203141 
L 392.012975 128.846636 
L 392.114463 135.879071 
L 392.215952 157.805801 
L 392.31744 119.315264 
L 392.418928 136.73577 
L 392.520417 106.535808 
L 392.723393 133.546661 
L 392.92637 110.374444 
L 393.027859 133.78532 
L 393.230835 104.685745 
L 393.332324 111.181837 
L 393.433812 101.934013 
L 393.5353 106.745813 
L 393.738277 102.174302 
L 394.042742 158.144295 
L 394.347207 130.80498 
L 394.448696 127.459844 
L 394.651673 148.324618 
L 394.753161 127.053642 
L 394.854649 127.885469 
L 394.956138 136.819747 
L 395.057626 135.845496 
L 395.159114 138.689621 
L 395.260603 130.783009 
L 395.362091 137.421894 
L 395.46358 106.719741 
L 395.666556 139.025658 
L 395.768045 128.970386 
L 395.869533 141.988551 
L 396.07251 104.762303 
L 396.173998 106.652681 
L 396.275487 141.369431 
L 396.376975 126.073276 
L 396.478463 130.545777 
L 396.579952 116.552044 
L 396.68144 139.28406 
L 396.985905 122.374796 
L 397.087394 114.509339 
L 397.188882 129.311265 
L 397.391859 112.578521 
L 397.594835 142.501859 
L 397.696324 141.397159 
L 397.797812 115.816732 
L 398.000789 149.170435 
L 398.102277 115.433736 
L 398.203766 122.41604 
L 398.305254 144.649967 
L 398.406742 107.147239 
L 398.609719 122.183055 
L 398.812696 144.472832 
L 398.914184 128.571139 
L 399.015673 148.940055 
L 399.117161 118.198392 
L 399.218649 144.497066 
L 399.320138 121.630568 
L 399.421626 128.173305 
L 399.523115 113.653957 
L 399.624603 137.543966 
L 399.726091 119.955013 
L 399.82758 144.118152 
L 399.929068 112.341852 
L 400.030556 125.51625 
L 400.132045 116.637575 
L 400.233533 142.94346 
L 400.335022 116.542134 
L 400.43651 119.313906 
L 400.537998 118.456272 
L 400.639487 119.172338 
L 400.740975 126.484611 
L 400.842463 105.6622 
L 401.04544 134.323007 
L 401.146929 124.435328 
L 401.248417 137.338799 
L 401.451394 126.081682 
L 401.552882 128.990497 
L 401.65437 120.574222 
L 401.755859 95.235161 
L 401.857347 115.140702 
L 401.958836 107.849429 
L 402.161812 131.85561 
L 402.263301 128.804706 
L 402.364789 110.935607 
L 402.466277 154.414699 
L 402.669254 121.74519 
L 402.770743 126.453686 
L 402.872231 94.65766 
L 403.176696 145.980955 
L 403.278184 128.025489 
L 403.379673 141.957012 
L 403.481161 116.276355 
L 403.58265 120.683849 
L 403.684138 118.356971 
L 403.785626 92.833353 
L 403.887115 136.104703 
L 403.988603 125.716181 
L 404.090091 140.480766 
L 404.293068 99.762245 
L 404.293068 99.762245 
" style="fill:none;stroke:#1f77b4;stroke-linecap:square;stroke-width:1.5;"/>
   </g>
   <g id="matplotlib.axis_1">
    <g id="xtick_1">
     <g id="line2d_2">
      <defs>
       <path d="M 0 0 
L 0 3.5 
" id="m3cc683117c" style="stroke:#000000;stroke-width:0.8;"/>
      </defs>
      <g>
       <use style="stroke:#000000;stroke-width:0.8;" x="99.929432" xlink:href="#m3cc683117c" y="254.83575"/>
      </g>
     </g>
     <g id="text_1">
      <!-- 0 -->
      <g transform="translate(91.658182 281.591688)scale(0.26 -0.26)">
       <defs>
        <path d="M 31.78125 66.40625 
Q 24.171875 66.40625 20.328125 58.90625 
Q 16.5 51.421875 16.5 36.375 
Q 16.5 21.390625 20.328125 13.890625 
Q 24.171875 6.390625 31.78125 6.390625 
Q 39.453125 6.390625 43.28125 13.890625 
Q 47.125 21.390625 47.125 36.375 
Q 47.125 51.421875 43.28125 58.90625 
Q 39.453125 66.40625 31.78125 66.40625 
z
M 31.78125 74.21875 
Q 44.046875 74.21875 50.515625 64.515625 
Q 56.984375 54.828125 56.984375 36.375 
Q 56.984375 17.96875 50.515625 8.265625 
Q 44.046875 -1.421875 31.78125 -1.421875 
Q 19.53125 -1.421875 13.0625 8.265625 
Q 6.59375 17.96875 6.59375 36.375 
Q 6.59375 54.828125 13.0625 64.515625 
Q 19.53125 74.21875 31.78125 74.21875 
z
" id="DejaVuSans-48"/>
       </defs>
       <use xlink:href="#DejaVuSans-48"/>
      </g>
     </g>
    </g>
    <g id="xtick_2">
     <g id="line2d_3">
      <g>
       <use style="stroke:#000000;stroke-width:0.8;" x="201.417807" xlink:href="#m3cc683117c" y="254.83575"/>
      </g>
     </g>
     <g id="text_2">
      <!-- 1 -->
      <g transform="translate(193.146557 281.591688)scale(0.26 -0.26)">
       <defs>
        <path d="M 12.40625 8.296875 
L 28.515625 8.296875 
L 28.515625 63.921875 
L 10.984375 60.40625 
L 10.984375 69.390625 
L 28.421875 72.90625 
L 38.28125 72.90625 
L 38.28125 8.296875 
L 54.390625 8.296875 
L 54.390625 0 
L 12.40625 0 
z
" id="DejaVuSans-49"/>
       </defs>
       <use xlink:href="#DejaVuSans-49"/>
      </g>
     </g>
    </g>
    <g id="xtick_3">
     <g id="line2d_4">
      <g>
       <use style="stroke:#000000;stroke-width:0.8;" x="302.906182" xlink:href="#m3cc683117c" y="254.83575"/>
      </g>
     </g>
     <g id="text_3">
      <!-- 2 -->
      <g transform="translate(294.634932 281.591688)scale(0.26 -0.26)">
       <defs>
        <path d="M 19.1875 8.296875 
L 53.609375 8.296875 
L 53.609375 0 
L 7.328125 0 
L 7.328125 8.296875 
Q 12.9375 14.109375 22.625 23.890625 
Q 32.328125 33.6875 34.8125 36.53125 
Q 39.546875 41.84375 41.421875 45.53125 
Q 43.3125 49.21875 43.3125 52.78125 
Q 43.3125 58.59375 39.234375 62.25 
Q 35.15625 65.921875 28.609375 65.921875 
Q 23.96875 65.921875 18.8125 64.3125 
Q 13.671875 62.703125 7.8125 59.421875 
L 7.8125 69.390625 
Q 13.765625 71.78125 18.9375 73 
Q 24.125 74.21875 28.421875 74.21875 
Q 39.75 74.21875 46.484375 68.546875 
Q 53.21875 62.890625 53.21875 53.421875 
Q 53.21875 48.921875 51.53125 44.890625 
Q 49.859375 40.875 45.40625 35.40625 
Q 44.1875 33.984375 37.640625 27.21875 
Q 31.109375 20.453125 19.1875 8.296875 
z
" id="DejaVuSans-50"/>
       </defs>
       <use xlink:href="#DejaVuSans-50"/>
      </g>
     </g>
    </g>
    <g id="xtick_4">
     <g id="line2d_5">
      <g>
       <use style="stroke:#000000;stroke-width:0.8;" x="404.394557" xlink:href="#m3cc683117c" y="254.83575"/>
      </g>
     </g>
     <g id="text_4">
      <!-- 3 -->
      <g transform="translate(396.123307 281.591688)scale(0.26 -0.26)">
       <defs>
        <path d="M 40.578125 39.3125 
Q 47.65625 37.796875 51.625 33 
Q 55.609375 28.21875 55.609375 21.1875 
Q 55.609375 10.40625 48.1875 4.484375 
Q 40.765625 -1.421875 27.09375 -1.421875 
Q 22.515625 -1.421875 17.65625 -0.515625 
Q 12.796875 0.390625 7.625 2.203125 
L 7.625 11.71875 
Q 11.71875 9.328125 16.59375 8.109375 
Q 21.484375 6.890625 26.8125 6.890625 
Q 36.078125 6.890625 40.9375 10.546875 
Q 45.796875 14.203125 45.796875 21.1875 
Q 45.796875 27.640625 41.28125 31.265625 
Q 36.765625 34.90625 28.71875 34.90625 
L 20.21875 34.90625 
L 20.21875 43.015625 
L 29.109375 43.015625 
Q 36.375 43.015625 40.234375 45.921875 
Q 44.09375 48.828125 44.09375 54.296875 
Q 44.09375 59.90625 40.109375 62.90625 
Q 36.140625 65.921875 28.71875 65.921875 
Q 24.65625 65.921875 20.015625 65.03125 
Q 15.375 64.15625 9.8125 62.3125 
L 9.8125 71.09375 
Q 15.4375 72.65625 20.34375 73.4375 
Q 25.25 74.21875 29.59375 74.21875 
Q 40.828125 74.21875 47.359375 69.109375 
Q 53.90625 64.015625 53.90625 55.328125 
Q 53.90625 49.265625 50.4375 45.09375 
Q 46.96875 40.921875 40.578125 39.3125 
z
" id="DejaVuSans-51"/>
       </defs>
       <use xlink:href="#DejaVuSans-51"/>
      </g>
     </g>
    </g>
    <g id="text_5">
     <!-- time (s) -->
     <g transform="translate(201.693594 310.754813)scale(0.26 -0.26)">
      <defs>
       <path d="M 18.3125 70.21875 
L 18.3125 54.6875 
L 36.8125 54.6875 
L 36.8125 47.703125 
L 18.3125 47.703125 
L 18.3125 18.015625 
Q 18.3125 11.328125 20.140625 9.421875 
Q 21.96875 7.515625 27.59375 7.515625 
L 36.8125 7.515625 
L 36.8125 0 
L 27.59375 0 
Q 17.1875 0 13.234375 3.875 
Q 9.28125 7.765625 9.28125 18.015625 
L 9.28125 47.703125 
L 2.6875 47.703125 
L 2.6875 54.6875 
L 9.28125 54.6875 
L 9.28125 70.21875 
z
" id="DejaVuSans-116"/>
       <path d="M 9.421875 54.6875 
L 18.40625 54.6875 
L 18.40625 0 
L 9.421875 0 
z
M 9.421875 75.984375 
L 18.40625 75.984375 
L 18.40625 64.59375 
L 9.421875 64.59375 
z
" id="DejaVuSans-105"/>
       <path d="M 52 44.1875 
Q 55.375 50.25 60.0625 53.125 
Q 64.75 56 71.09375 56 
Q 79.640625 56 84.28125 50.015625 
Q 88.921875 44.046875 88.921875 33.015625 
L 88.921875 0 
L 79.890625 0 
L 79.890625 32.71875 
Q 79.890625 40.578125 77.09375 44.375 
Q 74.3125 48.1875 68.609375 48.1875 
Q 61.625 48.1875 57.5625 43.546875 
Q 53.515625 38.921875 53.515625 30.90625 
L 53.515625 0 
L 44.484375 0 
L 44.484375 32.71875 
Q 44.484375 40.625 41.703125 44.40625 
Q 38.921875 48.1875 33.109375 48.1875 
Q 26.21875 48.1875 22.15625 43.53125 
Q 18.109375 38.875 18.109375 30.90625 
L 18.109375 0 
L 9.078125 0 
L 9.078125 54.6875 
L 18.109375 54.6875 
L 18.109375 46.1875 
Q 21.1875 51.21875 25.484375 53.609375 
Q 29.78125 56 35.6875 56 
Q 41.65625 56 45.828125 52.96875 
Q 50 49.953125 52 44.1875 
z
" id="DejaVuSans-109"/>
       <path d="M 56.203125 29.59375 
L 56.203125 25.203125 
L 14.890625 25.203125 
Q 15.484375 15.921875 20.484375 11.0625 
Q 25.484375 6.203125 34.421875 6.203125 
Q 39.59375 6.203125 44.453125 7.46875 
Q 49.3125 8.734375 54.109375 11.28125 
L 54.109375 2.78125 
Q 49.265625 0.734375 44.1875 -0.34375 
Q 39.109375 -1.421875 33.890625 -1.421875 
Q 20.796875 -1.421875 13.15625 6.1875 
Q 5.515625 13.8125 5.515625 26.8125 
Q 5.515625 40.234375 12.765625 48.109375 
Q 20.015625 56 32.328125 56 
Q 43.359375 56 49.78125 48.890625 
Q 56.203125 41.796875 56.203125 29.59375 
z
M 47.21875 32.234375 
Q 47.125 39.59375 43.09375 43.984375 
Q 39.0625 48.390625 32.421875 48.390625 
Q 24.90625 48.390625 20.390625 44.140625 
Q 15.875 39.890625 15.1875 32.171875 
z
" id="DejaVuSans-101"/>
       <path id="DejaVuSans-32"/>
       <path d="M 31 75.875 
Q 24.46875 64.65625 21.28125 53.65625 
Q 18.109375 42.671875 18.109375 31.390625 
Q 18.109375 20.125 21.3125 9.0625 
Q 24.515625 -2 31 -13.1875 
L 23.1875 -13.1875 
Q 15.875 -1.703125 12.234375 9.375 
Q 8.59375 20.453125 8.59375 31.390625 
Q 8.59375 42.28125 12.203125 53.3125 
Q 15.828125 64.359375 23.1875 75.875 
z
" id="DejaVuSans-40"/>
       <path d="M 44.28125 53.078125 
L 44.28125 44.578125 
Q 40.484375 46.53125 36.375 47.5 
Q 32.28125 48.484375 27.875 48.484375 
Q 21.1875 48.484375 17.84375 46.4375 
Q 14.5 44.390625 14.5 40.28125 
Q 14.5 37.15625 16.890625 35.375 
Q 19.28125 33.59375 26.515625 31.984375 
L 29.59375 31.296875 
Q 39.15625 29.25 43.1875 25.515625 
Q 47.21875 21.78125 47.21875 15.09375 
Q 47.21875 7.46875 41.1875 3.015625 
Q 35.15625 -1.421875 24.609375 -1.421875 
Q 20.21875 -1.421875 15.453125 -0.5625 
Q 10.6875 0.296875 5.421875 2 
L 5.421875 11.28125 
Q 10.40625 8.6875 15.234375 7.390625 
Q 20.0625 6.109375 24.8125 6.109375 
Q 31.15625 6.109375 34.5625 8.28125 
Q 37.984375 10.453125 37.984375 14.40625 
Q 37.984375 18.0625 35.515625 20.015625 
Q 33.0625 21.96875 24.703125 23.78125 
L 21.578125 24.515625 
Q 13.234375 26.265625 9.515625 29.90625 
Q 5.8125 33.546875 5.8125 39.890625 
Q 5.8125 47.609375 11.28125 51.796875 
Q 16.75 56 26.8125 56 
Q 31.78125 56 36.171875 55.265625 
Q 40.578125 54.546875 44.28125 53.078125 
z
" id="DejaVuSans-115"/>
       <path d="M 8.015625 75.875 
L 15.828125 75.875 
Q 23.140625 64.359375 26.78125 53.3125 
Q 30.421875 42.28125 30.421875 31.390625 
Q 30.421875 20.453125 26.78125 9.375 
Q 23.140625 -1.703125 15.828125 -13.1875 
L 8.015625 -13.1875 
Q 14.5 -2 17.703125 9.0625 
Q 20.90625 20.125 20.90625 31.390625 
Q 20.90625 42.671875 17.703125 53.65625 
Q 14.5 64.65625 8.015625 75.875 
z
" id="DejaVuSans-41"/>
      </defs>
      <use xlink:href="#DejaVuSans-116"/>
      <use x="39.208984" xlink:href="#DejaVuSans-105"/>
      <use x="66.992188" xlink:href="#DejaVuSans-109"/>
      <use x="164.404297" xlink:href="#DejaVuSans-101"/>
      <use x="225.927734" xlink:href="#DejaVuSans-32"/>
      <use x="257.714844" xlink:href="#DejaVuSans-40"/>
      <use x="296.728516" xlink:href="#DejaVuSans-115"/>
      <use x="348.828125" xlink:href="#DejaVuSans-41"/>
     </g>
    </g>
   </g>
   <g id="matplotlib.axis_2">
    <g id="ytick_1">
     <g id="line2d_6">
      <defs>
       <path d="M 0 0 
L -3.5 0 
" id="m5dff6885a4" style="stroke:#000000;stroke-width:0.8;"/>
      </defs>
      <g>
       <use style="stroke:#000000;stroke-width:0.8;" x="84.71125" xlink:href="#m5dff6885a4" y="254.83575"/>
      </g>
     </g>
     <g id="text_6">
      <!-- 3.0 -->
      <g transform="translate(36.363125 264.713719)scale(0.26 -0.26)">
       <defs>
        <path d="M 10.6875 12.40625 
L 21 12.40625 
L 21 0 
L 10.6875 0 
z
" id="DejaVuSans-46"/>
       </defs>
       <use xlink:href="#DejaVuSans-51"/>
       <use x="63.623047" xlink:href="#DejaVuSans-46"/>
       <use x="95.410156" xlink:href="#DejaVuSans-48"/>
      </g>
     </g>
    </g>
    <g id="ytick_2">
     <g id="line2d_7">
      <g>
       <use style="stroke:#000000;stroke-width:0.8;" x="84.71125" xlink:href="#m5dff6885a4" y="182.35575"/>
      </g>
     </g>
     <g id="text_7">
      <!-- 3.5 -->
      <g transform="translate(36.363125 192.233719)scale(0.26 -0.26)">
       <defs>
        <path d="M 10.796875 72.90625 
L 49.515625 72.90625 
L 49.515625 64.59375 
L 19.828125 64.59375 
L 19.828125 46.734375 
Q 21.96875 47.46875 24.109375 47.828125 
Q 26.265625 48.1875 28.421875 48.1875 
Q 40.625 48.1875 47.75 41.5 
Q 54.890625 34.8125 54.890625 23.390625 
Q 54.890625 11.625 47.5625 5.09375 
Q 40.234375 -1.421875 26.90625 -1.421875 
Q 22.3125 -1.421875 17.546875 -0.640625 
Q 12.796875 0.140625 7.71875 1.703125 
L 7.71875 11.625 
Q 12.109375 9.234375 16.796875 8.0625 
Q 21.484375 6.890625 26.703125 6.890625 
Q 35.15625 6.890625 40.078125 11.328125 
Q 45.015625 15.765625 45.015625 23.390625 
Q 45.015625 31 40.078125 35.4375 
Q 35.15625 39.890625 26.703125 39.890625 
Q 22.75 39.890625 18.8125 39.015625 
Q 14.890625 38.140625 10.796875 36.28125 
z
" id="DejaVuSans-53"/>
       </defs>
       <use xlink:href="#DejaVuSans-51"/>
       <use x="63.623047" xlink:href="#DejaVuSans-46"/>
       <use x="95.410156" xlink:href="#DejaVuSans-53"/>
      </g>
     </g>
    </g>
    <g id="ytick_3">
     <g id="line2d_8">
      <g>
       <use style="stroke:#000000;stroke-width:0.8;" x="84.71125" xlink:href="#m5dff6885a4" y="109.87575"/>
      </g>
     </g>
     <g id="text_8">
      <!-- 4.0 -->
      <g transform="translate(36.363125 119.753719)scale(0.26 -0.26)">
       <defs>
        <path d="M 37.796875 64.3125 
L 12.890625 25.390625 
L 37.796875 25.390625 
z
M 35.203125 72.90625 
L 47.609375 72.90625 
L 47.609375 25.390625 
L 58.015625 25.390625 
L 58.015625 17.1875 
L 47.609375 17.1875 
L 47.609375 0 
L 37.796875 0 
L 37.796875 17.1875 
L 4.890625 17.1875 
L 4.890625 26.703125 
z
" id="DejaVuSans-52"/>
       </defs>
       <use xlink:href="#DejaVuSans-52"/>
       <use x="63.623047" xlink:href="#DejaVuSans-46"/>
       <use x="95.410156" xlink:href="#DejaVuSans-48"/>
      </g>
     </g>
    </g>
    <g id="ytick_4">
     <g id="line2d_9">
      <g>
       <use style="stroke:#000000;stroke-width:0.8;" x="84.71125" xlink:href="#m5dff6885a4" y="37.39575"/>
      </g>
     </g>
     <g id="text_9">
      <!-- 4.5 -->
      <g transform="translate(36.363125 47.273719)scale(0.26 -0.26)">
       <use xlink:href="#DejaVuSans-52"/>
       <use x="63.623047" xlink:href="#DejaVuSans-46"/>
       <use x="95.410156" xlink:href="#DejaVuSans-53"/>
      </g>
     </g>
    </g>
    <g id="text_10">
     <!-- amplitude (a.u.) -->
     <g transform="translate(26.955937 250.552469)rotate(-90)scale(0.26 -0.26)">
      <defs>
       <path d="M 34.28125 27.484375 
Q 23.390625 27.484375 19.1875 25 
Q 14.984375 22.515625 14.984375 16.5 
Q 14.984375 11.71875 18.140625 8.90625 
Q 21.296875 6.109375 26.703125 6.109375 
Q 34.1875 6.109375 38.703125 11.40625 
Q 43.21875 16.703125 43.21875 25.484375 
L 43.21875 27.484375 
z
M 52.203125 31.203125 
L 52.203125 0 
L 43.21875 0 
L 43.21875 8.296875 
Q 40.140625 3.328125 35.546875 0.953125 
Q 30.953125 -1.421875 24.3125 -1.421875 
Q 15.921875 -1.421875 10.953125 3.296875 
Q 6 8.015625 6 15.921875 
Q 6 25.140625 12.171875 29.828125 
Q 18.359375 34.515625 30.609375 34.515625 
L 43.21875 34.515625 
L 43.21875 35.40625 
Q 43.21875 41.609375 39.140625 45 
Q 35.0625 48.390625 27.6875 48.390625 
Q 23 48.390625 18.546875 47.265625 
Q 14.109375 46.140625 10.015625 43.890625 
L 10.015625 52.203125 
Q 14.9375 54.109375 19.578125 55.046875 
Q 24.21875 56 28.609375 56 
Q 40.484375 56 46.34375 49.84375 
Q 52.203125 43.703125 52.203125 31.203125 
z
" id="DejaVuSans-97"/>
       <path d="M 18.109375 8.203125 
L 18.109375 -20.796875 
L 9.078125 -20.796875 
L 9.078125 54.6875 
L 18.109375 54.6875 
L 18.109375 46.390625 
Q 20.953125 51.265625 25.265625 53.625 
Q 29.59375 56 35.59375 56 
Q 45.5625 56 51.78125 48.09375 
Q 58.015625 40.1875 58.015625 27.296875 
Q 58.015625 14.40625 51.78125 6.484375 
Q 45.5625 -1.421875 35.59375 -1.421875 
Q 29.59375 -1.421875 25.265625 0.953125 
Q 20.953125 3.328125 18.109375 8.203125 
z
M 48.6875 27.296875 
Q 48.6875 37.203125 44.609375 42.84375 
Q 40.53125 48.484375 33.40625 48.484375 
Q 26.265625 48.484375 22.1875 42.84375 
Q 18.109375 37.203125 18.109375 27.296875 
Q 18.109375 17.390625 22.1875 11.75 
Q 26.265625 6.109375 33.40625 6.109375 
Q 40.53125 6.109375 44.609375 11.75 
Q 48.6875 17.390625 48.6875 27.296875 
z
" id="DejaVuSans-112"/>
       <path d="M 9.421875 75.984375 
L 18.40625 75.984375 
L 18.40625 0 
L 9.421875 0 
z
" id="DejaVuSans-108"/>
       <path d="M 8.5 21.578125 
L 8.5 54.6875 
L 17.484375 54.6875 
L 17.484375 21.921875 
Q 17.484375 14.15625 20.5 10.265625 
Q 23.53125 6.390625 29.59375 6.390625 
Q 36.859375 6.390625 41.078125 11.03125 
Q 45.3125 15.671875 45.3125 23.6875 
L 45.3125 54.6875 
L 54.296875 54.6875 
L 54.296875 0 
L 45.3125 0 
L 45.3125 8.40625 
Q 42.046875 3.421875 37.71875 1 
Q 33.40625 -1.421875 27.6875 -1.421875 
Q 18.265625 -1.421875 13.375 4.4375 
Q 8.5 10.296875 8.5 21.578125 
z
M 31.109375 56 
z
" id="DejaVuSans-117"/>
       <path d="M 45.40625 46.390625 
L 45.40625 75.984375 
L 54.390625 75.984375 
L 54.390625 0 
L 45.40625 0 
L 45.40625 8.203125 
Q 42.578125 3.328125 38.25 0.953125 
Q 33.9375 -1.421875 27.875 -1.421875 
Q 17.96875 -1.421875 11.734375 6.484375 
Q 5.515625 14.40625 5.515625 27.296875 
Q 5.515625 40.1875 11.734375 48.09375 
Q 17.96875 56 27.875 56 
Q 33.9375 56 38.25 53.625 
Q 42.578125 51.265625 45.40625 46.390625 
z
M 14.796875 27.296875 
Q 14.796875 17.390625 18.875 11.75 
Q 22.953125 6.109375 30.078125 6.109375 
Q 37.203125 6.109375 41.296875 11.75 
Q 45.40625 17.390625 45.40625 27.296875 
Q 45.40625 37.203125 41.296875 42.84375 
Q 37.203125 48.484375 30.078125 48.484375 
Q 22.953125 48.484375 18.875 42.84375 
Q 14.796875 37.203125 14.796875 27.296875 
z
" id="DejaVuSans-100"/>
      </defs>
      <use xlink:href="#DejaVuSans-97"/>
      <use x="61.279297" xlink:href="#DejaVuSans-109"/>
      <use x="158.691406" xlink:href="#DejaVuSans-112"/>
      <use x="222.167969" xlink:href="#DejaVuSans-108"/>
      <use x="249.951172" xlink:href="#DejaVuSans-105"/>
      <use x="277.734375" xlink:href="#DejaVuSans-116"/>
      <use x="316.943359" xlink:href="#DejaVuSans-117"/>
      <use x="380.322266" xlink:href="#DejaVuSans-100"/>
      <use x="443.798828" xlink:href="#DejaVuSans-101"/>
      <use x="505.322266" xlink:href="#DejaVuSans-32"/>
      <use x="537.109375" xlink:href="#DejaVuSans-40"/>
      <use x="576.123047" xlink:href="#DejaVuSans-97"/>
      <use x="637.402344" xlink:href="#DejaVuSans-46"/>
      <use x="669.189453" xlink:href="#DejaVuSans-117"/>
      <use x="732.568359" xlink:href="#DejaVuSans-46"/>
      <use x="764.355469" xlink:href="#DejaVuSans-41"/>
     </g>
    </g>
   </g>
   <g id="line2d_10">
    <path clip-path="url(#pfca30d5528)" d="M 99.929432 218.59575 
L 100.741339 218.667594 
L 101.147292 218.951477 
L 101.654734 219.639118 
L 102.263664 220.888213 
L 103.075571 222.661328 
L 103.481525 222.792953 
L 104.39492 222.971599 
L 105.105339 223.515793 
L 105.612781 223.857285 
L 105.815758 223.763683 
L 106.018734 223.263757 
L 106.221711 221.909262 
L 106.424688 218.84258 
L 106.729153 209.29038 
L 107.135106 196.493219 
L 107.439572 192.435666 
L 107.54106 192.151813 
L 107.642548 192.306924 
L 108.352967 195.210388 
L 109.266362 199.751306 
L 109.469339 199.705494 
L 109.773804 199.597162 
L 111.499107 199.81544 
L 112.108037 199.863453 
L 112.311014 200.040616 
L 112.51399 200.482692 
L 112.818455 202.041845 
L 113.224409 204.61334 
L 113.427386 204.740355 
L 114.239293 204.817 
L 114.746735 205.401321 
L 115.558642 206.419632 
L 116.066083 207.541982 
L 116.776502 209.731088 
L 117.994363 213.902202 
L 118.095851 213.751244 
L 118.298828 212.478217 
L 118.501804 209.19978 
L 119.212223 193.701352 
L 119.4152 192.797823 
L 119.618177 192.604549 
L 120.02413 192.678219 
L 120.328595 192.979177 
L 121.241991 194.376486 
L 121.647944 194.472508 
L 122.155386 194.357476 
L 123.17027 194.013592 
L 123.474735 194.087373 
L 123.7792 194.391525 
L 124.083665 194.960629 
L 124.591107 196.52798 
L 125.098549 197.888976 
L 125.403014 198.141944 
L 125.605991 197.953748 
L 126.417898 196.649058 
L 127.026828 196.519633 
L 127.53427 196.315953 
L 128.1432 195.766751 
L 128.955107 194.699356 
L 129.564037 194.078706 
L 130.071479 193.914075 
L 130.680409 193.98504 
L 131.999758 194.437053 
L 132.608689 194.533861 
L 133.522084 194.532753 
L 133.826549 194.810707 
L 134.131014 195.628497 
L 134.536968 197.65026 
L 135.754828 205.034796 
L 135.856317 205.100923 
L 136.059293 204.814263 
L 136.363758 203.631517 
L 136.769712 202.034661 
L 137.074177 201.638979 
L 137.987572 201.117551 
L 139.814363 199.32439 
L 140.220317 199.3225 
L 140.930735 199.629453 
L 142.351573 200.296614 
L 142.859014 200.301409 
L 143.569433 200.174698 
L 143.873898 200.349983 
L 144.38134 200.699779 
L 144.584317 200.634595 
L 144.888782 200.245416 
L 145.599201 198.868863 
L 146.208131 197.101065 
L 146.614084 196.183123 
L 146.918549 195.886176 
L 147.628968 195.683318 
L 148.237898 195.312344 
L 149.455759 194.452946 
L 149.963201 194.344179 
L 150.470643 194.475567 
L 151.181061 194.947865 
L 151.89148 195.412308 
L 152.398922 195.516804 
L 152.906364 195.378221 
L 153.515294 195.15985 
L 153.819759 195.266654 
L 154.530178 196.123162 
L 154.733154 195.901402 
L 155.037619 195.004292 
L 155.849526 192.17709 
L 156.25548 191.545952 
L 156.661433 191.282145 
L 158.082271 190.707295 
L 159.198643 189.730329 
L 159.604596 189.74829 
L 160.01055 190.020307 
L 161.634364 191.456672 
L 162.141806 191.500707 
L 162.547759 191.345175 
L 163.258178 190.888838 
L 163.461155 190.998905 
L 163.968596 191.389819 
L 164.171573 191.210758 
L 164.476038 190.334212 
L 165.389434 186.881665 
L 165.795387 186.522332 
L 167.317713 185.815967 
L 167.926643 185.412608 
L 168.332597 185.386396 
L 168.840038 185.572494 
L 169.34748 186.017429 
L 170.260876 186.846323 
L 171.174271 187.373688 
L 171.681713 187.438814 
L 171.986178 187.281706 
L 172.798085 186.663817 
L 173.204039 186.871834 
L 173.407015 186.911437 
L 173.609992 186.749593 
L 173.914457 186.119411 
L 174.523387 184.630381 
L 175.233806 183.677324 
L 175.741248 182.728934 
L 176.85762 180.528245 
L 177.365062 179.896375 
L 177.771015 179.646497 
L 178.075481 179.649515 
L 178.481434 179.894981 
L 179.293341 180.672176 
L 180.714178 182.447143 
L 181.120132 182.516534 
L 181.526085 182.373124 
L 181.932039 181.989157 
L 183.048411 180.468921 
L 183.352876 179.63564 
L 184.773713 174.923927 
L 185.484132 174.193808 
L 186.499016 173.435946 
L 186.904969 173.330135 
L 187.209434 173.426682 
L 187.513899 173.741548 
L 189.036225 175.830949 
L 190.152597 176.68247 
L 190.457062 176.69716 
L 190.761527 176.525469 
L 192.182365 175.09363 
L 192.48683 174.112003 
L 193.400225 170.792893 
L 194.31362 168.374582 
L 194.922551 167.249057 
L 195.429993 166.699011 
L 195.734458 166.607078 
L 196.038923 166.748029 
L 196.546365 167.322968 
L 198.170179 169.526016 
L 199.185062 171.060663 
L 199.591016 171.19221 
L 199.996969 171.047092 
L 201.316318 170.300491 
L 201.620783 170.271297 
L 201.82376 170.048917 
L 202.128225 169.104427 
L 202.940132 166.066334 
L 203.447574 165.183587 
L 204.9699 163.058337 
L 205.375853 162.957237 
L 205.781807 163.15529 
L 206.18776 163.634436 
L 207.811574 166.226891 
L 208.72497 167.801679 
L 209.130923 168.029217 
L 209.536877 167.932775 
L 210.145807 167.710089 
L 210.450272 167.844207 
L 211.059202 168.385263 
L 211.262179 168.167293 
L 211.566644 167.097274 
L 212.784505 161.55605 
L 213.08897 161.25967 
L 213.6979 160.941642 
L 214.814272 159.856987 
L 215.118737 159.87949 
L 215.423202 160.098088 
L 215.930644 160.904777 
L 216.945528 163.037378 
L 218.163389 165.420963 
L 218.467854 165.542987 
L 218.873807 165.367193 
L 219.381249 165.227388 
L 219.685714 165.449558 
L 220.193156 165.852936 
L 220.396133 165.82013 
L 220.59911 165.424921 
L 221.005063 163.727183 
L 221.715482 160.66881 
L 222.222924 159.672688 
L 222.730365 159.150042 
L 224.354179 158.025715 
L 224.658645 158.260283 
L 225.166086 159.122911 
L 226.282459 161.598165 
L 226.891389 162.956187 
L 227.500319 163.687832 
L 228.007761 163.949439 
L 228.312226 163.895692 
L 229.225621 163.501271 
L 229.428598 163.756282 
L 229.733063 164.593394 
L 230.037528 165.5981 
L 230.139017 165.628797 
L 230.341994 165.014617 
L 231.255389 159.974952 
L 231.458366 159.966953 
L 231.762831 160.393581 
L 232.371761 161.2886 
L 232.676226 161.395895 
L 232.980691 161.221947 
L 233.589622 160.403264 
L 233.995575 159.987537 
L 234.30004 159.959168 
L 234.604505 160.214197 
L 235.010459 160.929852 
L 236.228319 163.831101 
L 236.938738 165.356521 
L 237.344691 165.753859 
L 237.649157 165.658815 
L 238.05511 165.457985 
L 238.359575 165.525994 
L 238.765529 165.681721 
L 238.968505 165.524457 
L 239.272971 164.791537 
L 239.881901 162.314184 
L 240.490831 158.876889 
L 241.20125 154.786689 
L 241.505715 153.95547 
L 241.81018 153.668387 
L 242.114645 153.689652 
L 242.520599 153.986497 
L 243.332506 154.947155 
L 244.144413 155.71971 
L 244.550366 156.213828 
L 244.854831 156.994565 
L 245.768227 159.889583 
L 246.17418 160.461238 
L 246.478645 160.561932 
L 246.884599 160.353955 
L 247.290552 159.875691 
L 247.797994 159.263477 
L 248.203948 159.19811 
L 248.406924 158.841262 
L 248.711389 157.718506 
L 249.624785 153.613944 
L 250.132227 152.608192 
L 250.944134 151.626326 
L 252.161994 150.43148 
L 252.466459 150.448805 
L 252.770924 150.735066 
L 253.176878 151.485028 
L 253.785808 153.056338 
L 254.90218 156.51751 
L 255.308134 157.109574 
L 255.612599 157.214204 
L 256.018552 157.08178 
L 256.627483 156.834948 
L 256.931948 156.964862 
L 257.134925 157.055684 
L 257.337901 156.939294 
L 257.540878 156.612821 
L 257.845343 155.564959 
L 258.352785 152.482682 
L 259.063204 147.576632 
L 259.367669 146.72253 
L 259.570646 146.607823 
L 259.773622 146.74072 
L 260.788506 147.90502 
L 261.701901 147.9532 
L 262.107855 148.416993 
L 262.818274 149.674441 
L 263.325715 151.159007 
L 264.137622 153.758506 
L 264.645064 154.678241 
L 264.949529 154.826915 
L 265.355483 154.674188 
L 266.065902 154.255694 
L 266.268878 154.578011 
L 266.77632 155.589916 
L 266.877809 155.533274 
L 267.080785 154.988978 
L 267.486739 152.680446 
L 268.197157 148.566029 
L 268.806088 146.268587 
L 269.212041 145.624874 
L 269.516506 145.533353 
L 270.53139 145.72384 
L 270.937344 146.016755 
L 271.647762 146.993421 
L 272.256692 148.152328 
L 272.967111 150.0049 
L 273.779018 152.408 
L 274.184972 152.975371 
L 274.489437 152.992338 
L 274.996879 152.783118 
L 275.199855 153.034408 
L 275.50432 154.020541 
L 276.011762 155.954473 
L 276.113251 155.959393 
L 276.316227 155.415715 
L 276.722181 152.755287 
L 277.331111 148.971318 
L 277.635576 148.200486 
L 277.838553 148.128675 
L 278.04153 148.329155 
L 278.65046 149.174408 
L 278.853437 149.16142 
L 279.157902 148.840584 
L 279.868321 147.897778 
L 280.172786 147.88301 
L 280.477251 148.182336 
L 281.086181 149.267267 
L 281.7966 150.743683 
L 283.217437 154.57706 
L 283.521902 154.658283 
L 283.927856 154.651411 
L 284.130832 154.896024 
L 284.435297 155.811904 
L 284.841251 158.066632 
L 285.348693 160.790263 
L 285.450181 160.918946 
L 285.55167 160.802319 
L 285.754646 159.976249 
L 286.1606 156.94113 
L 286.76953 152.366645 
L 287.073995 151.421567 
L 287.276972 151.284777 
L 287.479949 151.393844 
L 288.088879 151.970476 
L 288.393344 151.885206 
L 288.900786 151.285548 
L 289.306739 150.945211 
L 289.611205 150.980159 
L 289.91567 151.306211 
L 290.423112 152.260469 
L 291.235019 154.299305 
L 292.452879 157.081264 
L 292.757344 157.413978 
L 293.061809 157.417873 
L 293.264786 157.424811 
L 293.467763 157.663438 
L 293.67074 158.316434 
L 293.975205 160.402945 
L 294.990088 169.970498 
L 295.193065 170.276409 
L 295.294554 170.033834 
L 295.49753 168.680636 
L 296.309437 160.564246 
L 296.512414 160.358914 
L 296.715391 160.707251 
L 297.527298 162.630435 
L 297.831763 162.821819 
L 298.136228 162.628888 
L 299.049623 161.622562 
L 299.2526 161.641745 
L 299.658554 162.007504 
L 300.470461 162.964682 
L 300.876414 163.842298 
L 301.485344 165.072709 
L 302.094275 165.811765 
L 302.39874 165.882734 
L 302.703205 165.803283 
L 302.804693 165.871233 
L 303.00767 166.491423 
L 303.210647 168.194354 
L 303.515112 173.913137 
L 303.921065 189.182356 
L 304.529996 213.177106 
L 304.732972 215.488183 
L 304.935949 215.850296 
L 305.341903 215.625078 
L 305.544879 216.174937 
L 305.849345 218.160377 
L 306.255298 221.096309 
L 306.356786 221.262764 
L 306.458275 220.866182 
L 306.661252 217.365059 
L 306.864228 208.53961 
L 307.676135 159.745907 
L 307.9806 156.468045 
L 308.183577 156.11576 
L 308.488042 156.224541 
L 308.792507 156.563234 
L 309.096973 157.291971 
L 309.604414 158.789012 
L 310.010368 159.268083 
L 310.619298 159.640122 
L 311.532694 159.816192 
L 312.344601 159.87663 
L 312.649066 160.233553 
L 312.953531 161.160349 
L 313.257996 162.989181 
L 313.562461 166.112989 
L 314.780322 181.127214 
L 315.287763 182.46719 
L 315.896694 184.199071 
L 315.998182 183.990447 
L 316.201159 182.016877 
L 316.404136 176.908673 
L 317.114554 153.712991 
L 317.317531 152.123416 
L 317.520508 151.669903 
L 317.824973 151.638391 
L 318.230926 151.852299 
L 318.535391 152.297064 
L 319.347298 153.732951 
L 319.956229 154.076894 
L 320.869624 154.304806 
L 321.985996 154.413988 
L 322.290461 154.769371 
L 322.594926 155.548033 
L 323.406833 158.650115 
L 323.508322 158.655798 
L 323.711299 158.17243 
L 324.523206 154.766945 
L 324.726182 154.710218 
L 325.233624 155.063533 
L 325.842554 155.407036 
L 326.248508 155.363376 
L 327.466368 154.852267 
L 327.97381 155.028819 
L 328.785717 155.632214 
L 330.206554 156.693375 
L 331.11995 156.796073 
L 331.424415 157.282377 
L 331.72888 158.411924 
L 332.540787 162.325663 
L 332.642275 162.294652 
L 332.845252 161.639964 
L 333.454182 158.633021 
L 333.657159 158.41539 
L 333.860136 158.484588 
L 334.87502 159.317512 
L 335.179485 159.226591 
L 336.498834 158.507287 
L 337.107764 158.719317 
L 337.716694 159.099007 
L 338.122648 159.575864 
L 338.833066 160.569229 
L 339.23902 160.681278 
L 340.050927 160.77896 
L 340.45688 161.158322 
L 340.761345 161.717436 
L 341.065811 162.972168 
L 341.877718 167.370002 
L 341.979206 167.383836 
L 342.182183 166.543243 
L 342.588136 162.266776 
L 342.892601 159.806259 
L 343.095578 159.366774 
L 343.298555 159.47187 
L 344.414927 160.874143 
L 344.719392 160.876599 
L 346.038741 160.410755 
L 346.444694 160.510364 
L 346.952136 160.964784 
L 348.271485 162.342285 
L 348.677439 162.382184 
L 348.981904 162.401453 
L 349.184881 162.688241 
L 349.387857 163.467289 
L 349.692322 166.110721 
L 350.098276 172.370512 
L 351.519113 197.116593 
L 351.72209 197.975097 
L 351.823578 197.905016 
L 352.026555 196.573746 
L 352.229532 193.310735 
L 352.93995 178.218313 
L 353.244416 176.439329 
L 353.650369 175.498231 
L 354.056323 175.002773 
L 354.360788 174.896765 
L 354.969718 175.091331 
L 355.578648 175.182382 
L 356.289067 175.230688 
L 356.796509 175.621232 
L 357.506927 176.199971 
L 358.014369 176.330862 
L 358.521811 176.374615 
L 358.724788 176.686846 
L 358.927765 177.533717 
L 359.23223 180.27162 
L 359.638183 186.75572 
L 360.145625 195.4329 
L 360.348602 196.577925 
L 360.551579 196.744483 
L 360.957532 196.677677 
L 361.160509 197.013312 
L 361.464974 198.214376 
L 361.870927 199.953567 
L 361.972416 200.021071 
L 362.073904 199.680152 
L 362.276881 196.943079 
L 362.581346 185.78724 
L 363.088788 165.008111 
L 363.393253 161.732537 
L 363.59623 161.270714 
L 363.900695 161.206262 
L 364.306648 161.287348 
L 364.611114 161.672885 
L 365.423021 163.022503 
L 365.828974 163.302679 
L 366.539393 163.470968 
L 367.3513 163.453717 
L 367.757253 163.477683 
L 367.96023 163.638491 
L 368.264695 164.284516 
L 368.772137 166.425845 
L 369.17809 167.778082 
L 369.381067 167.861905 
L 369.584044 167.558365 
L 369.888509 166.466312 
L 370.801904 162.54864 
L 371.10637 162.205011 
L 371.512323 162.212211 
L 372.019765 162.219846 
L 372.527207 161.955406 
L 373.237625 161.579872 
L 373.745067 161.576074 
L 374.759951 161.873469 
L 375.165905 162.258699 
L 375.673346 162.763279 
L 376.282277 162.98967 
L 377.094184 163.133569 
L 377.29716 163.416454 
L 377.601626 164.480526 
L 377.906091 166.67354 
L 378.312044 172.027774 
L 378.819486 179.016158 
L 379.123951 181.049597 
L 379.631393 182.622546 
L 380.037347 183.697369 
L 380.138835 183.628278 
L 380.240323 183.197934 
L 380.4433 180.378318 
L 380.747765 169.594981 
L 381.153719 153.969825 
L 381.458184 149.525354 
L 381.661161 148.721104 
L 381.864137 148.531697 
L 382.168602 148.586522 
L 382.574556 148.851644 
L 382.879021 149.359201 
L 383.58944 150.745482 
L 383.995393 150.915379 
L 385.213254 151.206733 
L 385.720696 151.285188 
L 386.126649 151.365219 
L 386.329626 151.644654 
L 386.532603 152.276479 
L 386.837068 154.191345 
L 387.243021 158.874033 
L 388.257905 173.613347 
L 388.56237 174.488363 
L 389.069812 175.148479 
L 389.374277 175.684854 
L 389.475765 175.684749 
L 389.577254 175.454563 
L 389.780231 173.698945 
L 389.983207 169.085337 
L 390.795114 144.236088 
L 390.998091 143.171316 
L 391.201068 142.878777 
L 391.70851 142.824953 
L 392.114463 142.90638 
L 392.520417 143.366833 
L 393.230835 144.320403 
L 393.839766 144.653759 
L 394.448696 144.789118 
L 395.46358 144.914884 
L 395.768045 145.205326 
L 396.07251 145.817367 
L 396.376975 146.915694 
L 396.68144 148.735524 
L 397.087394 152.711918 
L 397.797812 159.854396 
L 398.000789 160.743553 
L 398.102277 160.867849 
L 398.203766 160.692889 
L 398.406742 159.09689 
L 398.711208 153.498153 
L 399.117161 147.195754 
L 399.421626 146.050472 
L 399.726091 145.864242 
L 400.132045 145.966705 
L 400.740975 146.49394 
L 401.146929 146.721121 
L 401.857347 146.756687 
L 402.364789 146.833778 
L 403.278184 147.346443 
L 403.988603 147.782147 
L 404.293068 147.855113 
L 404.293068 147.855113 
" style="fill:none;stroke:#ff7f0e;stroke-linecap:square;stroke-width:1.5;"/>
   </g>
   <g id="patch_3">
    <path d="M 84.71125 254.83575 
L 84.71125 37.39575 
" style="fill:none;stroke:#000000;stroke-linecap:square;stroke-linejoin:miter;stroke-width:0.8;"/>
   </g>
   <g id="patch_4">
    <path d="M 419.51125 254.83575 
L 419.51125 37.39575 
" style="fill:none;stroke:#000000;stroke-linecap:square;stroke-linejoin:miter;stroke-width:0.8;"/>
   </g>
   <g id="patch_5">
    <path d="M 84.71125 254.83575 
L 419.51125 254.83575 
" style="fill:none;stroke:#000000;stroke-linecap:square;stroke-linejoin:miter;stroke-width:0.8;"/>
   </g>
   <g id="patch_6">
    <path d="M 84.71125 37.39575 
L 419.51125 37.39575 
" style="fill:none;stroke:#000000;stroke-linecap:square;stroke-linejoin:miter;stroke-width:0.8;"/>
   </g>
   <g id="text_11">
    <!-- $A(t)$ -->
    <g transform="translate(227.77525 30.907125)scale(0.312 -0.312)">
     <defs>
      <path d="M 56.40625 0 
L 31.90625 0 
L 31.90625 1.59375 
Q 36.40625 1.796875 38 3 
Q 39.59375 4.203125 39.59375 6.90625 
Q 39.59375 7.703125 39.40625 9.5 
L 37.40625 22.59375 
L 15.40625 22.59375 
L 9.5 11.5 
Q 7.296875 7.40625 7.296875 4.90625 
Q 7.296875 1.90625 13.5 1.59375 
L 13.5 0 
L -5.09375 0 
L -5.09375 1.59375 
Q -1.703125 2.296875 0.4375 4.796875 
Q 2.59375 7.296875 8.296875 17.203125 
L 36.796875 66.796875 
L 39.40625 66.796875 
L 48.59375 11.5 
Q 49.59375 5.296875 51 3.59375 
Q 52.40625 1.90625 56.40625 1.59375 
z
M 36.90625 26.203125 
L 32.40625 52.5 
L 17.5 26.203125 
z
" id="STIXGeneral-Italic-65"/>
      <path d="M 30.40625 -16.09375 
L 29.203125 -17.703125 
Q 17.59375 -11.09375 11.1875 0.5 
Q 4.796875 12.09375 4.796875 25.203125 
Q 4.796875 52.90625 29.5 67.59375 
L 30.40625 66 
Q 20.203125 57.296875 16.796875 48.84375 
Q 13.40625 40.40625 13.40625 25.5 
Q 13.40625 10.703125 16.90625 1.5 
Q 20.40625 -7.703125 30.40625 -16.09375 
z
" id="STIXGeneral-Regular-40"/>
      <path d="M 29.59375 42.796875 
L 29.09375 39.59375 
L 20.703125 39.59375 
L 12 6.796875 
Q 11.796875 6 11.796875 5.40625 
Q 11.796875 3.796875 13.296875 3.796875 
Q 14.5 3.796875 16.09375 5.34375 
Q 17.703125 6.90625 21.40625 11.703125 
L 22.703125 11 
Q 18.09375 4 15.140625 1.453125 
Q 12.203125 -1.09375 8.40625 -1.09375 
Q 3.796875 -1.09375 3.796875 2.59375 
Q 3.796875 3.59375 5.40625 10 
L 13.203125 39.59375 
L 5.703125 39.59375 
L 5.59375 40.203125 
Q 5.59375 42 8.90625 42.703125 
Q 11.40625 43.296875 15.5 46.546875 
Q 19.59375 49.796875 22.203125 53.703125 
Q 22.796875 54.59375 23.59375 54.59375 
Q 24.5 54.59375 24.5 53.796875 
Q 24.5 53.296875 24.40625 53.09375 
L 21.59375 42.796875 
z
" id="STIXGeneral-Italic-116"/>
      <path d="M 2.90625 66 
L 4.09375 67.59375 
Q 15.5 60.796875 22 49.1875 
Q 28.5 37.59375 28.5 24.703125 
Q 28.5 -2.59375 3.796875 -17.703125 
L 2.90625 -16.09375 
Q 13.203125 -7.59375 16.546875 0.84375 
Q 19.90625 9.296875 19.90625 24.40625 
Q 19.90625 39.59375 16.546875 48.75 
Q 13.203125 57.90625 2.90625 66 
z
" id="STIXGeneral-Regular-41"/>
     </defs>
     <use transform="translate(0 0.40625)" xlink:href="#STIXGeneral-Italic-65"/>
     <use transform="translate(61.099991 0.40625)" xlink:href="#STIXGeneral-Regular-40"/>
     <use transform="translate(94.399979 0.40625)" xlink:href="#STIXGeneral-Italic-116"/>
     <use transform="translate(122.199966 0.40625)" xlink:href="#STIXGeneral-Regular-41"/>
    </g>
   </g>
   <g id="legend_1">
    <g id="line2d_11">
     <path d="M 446.65125 58.451688 
L 498.65125 58.451688 
" style="fill:none;stroke:#1f77b4;stroke-linecap:square;stroke-width:1.5;"/>
    </g>
    <g id="line2d_12"/>
    <g id="text_12">
     <!-- exact -->
     <g transform="translate(519.45125 67.551688)scale(0.26 -0.26)">
      <defs>
       <path d="M 54.890625 54.6875 
L 35.109375 28.078125 
L 55.90625 0 
L 45.3125 0 
L 29.390625 21.484375 
L 13.484375 0 
L 2.875 0 
L 24.125 28.609375 
L 4.6875 54.6875 
L 15.28125 54.6875 
L 29.78125 35.203125 
L 44.28125 54.6875 
z
" id="DejaVuSans-120"/>
       <path d="M 48.78125 52.59375 
L 48.78125 44.1875 
Q 44.96875 46.296875 41.140625 47.34375 
Q 37.3125 48.390625 33.40625 48.390625 
Q 24.65625 48.390625 19.8125 42.84375 
Q 14.984375 37.3125 14.984375 27.296875 
Q 14.984375 17.28125 19.8125 11.734375 
Q 24.65625 6.203125 33.40625 6.203125 
Q 37.3125 6.203125 41.140625 7.25 
Q 44.96875 8.296875 48.78125 10.40625 
L 48.78125 2.09375 
Q 45.015625 0.34375 40.984375 -0.53125 
Q 36.96875 -1.421875 32.421875 -1.421875 
Q 20.0625 -1.421875 12.78125 6.34375 
Q 5.515625 14.109375 5.515625 27.296875 
Q 5.515625 40.671875 12.859375 48.328125 
Q 20.21875 56 33.015625 56 
Q 37.15625 56 41.109375 55.140625 
Q 45.0625 54.296875 48.78125 52.59375 
z
" id="DejaVuSans-99"/>
      </defs>
      <use xlink:href="#DejaVuSans-101"/>
      <use x="59.773438" xlink:href="#DejaVuSans-120"/>
      <use x="118.953125" xlink:href="#DejaVuSans-97"/>
      <use x="180.232422" xlink:href="#DejaVuSans-99"/>
      <use x="235.212891" xlink:href="#DejaVuSans-116"/>
     </g>
    </g>
    <g id="line2d_13">
     <path d="M 446.65125 96.614813 
L 498.65125 96.614813 
" style="fill:none;stroke:#ff7f0e;stroke-linecap:square;stroke-width:1.5;"/>
    </g>
    <g id="line2d_14"/>
    <g id="text_13">
     <!-- estimated -->
     <g transform="translate(519.45125 105.714813)scale(0.26 -0.26)">
      <use xlink:href="#DejaVuSans-101"/>
      <use x="61.523438" xlink:href="#DejaVuSans-115"/>
      <use x="113.623047" xlink:href="#DejaVuSans-116"/>
      <use x="152.832031" xlink:href="#DejaVuSans-105"/>
      <use x="180.615234" xlink:href="#DejaVuSans-109"/>
      <use x="278.027344" xlink:href="#DejaVuSans-97"/>
      <use x="339.306641" xlink:href="#DejaVuSans-116"/>
      <use x="378.515625" xlink:href="#DejaVuSans-101"/>
      <use x="440.039062" xlink:href="#DejaVuSans-100"/>
     </g>
    </g>
   </g>
  </g>
 </g>
 <defs>
  <clipPath id="pfca30d5528">
   <rect height="217.44" width="334.8" x="84.71125" y="37.39575"/>
  </clipPath>
 </defs>
</svg>
